G04*
G04 #@! TF.GenerationSoftware,Altium Limited,Altium Designer,26.3.0 (6)*
G04*
G04 Layer_Physical_Order=3*
G04 Layer_Color=16440176*
%FSLAX24Y24*%
%MOIN*%
G70*
G04*
G04 #@! TF.SameCoordinates,16BEF44E-F0A4-4101-97DD-AF4FD7D9166A*
G04*
G04*
G04 #@! TF.FilePolarity,Positive*
G04*
G01*
G75*
%ADD10C,0.0039*%
%ADD11C,0.0079*%
%ADD12C,0.0100*%
%ADD14C,0.0050*%
%ADD15C,0.0060*%
%ADD16C,0.0059*%
%ADD17C,0.0049*%
%ADD21O,0.0669X0.0354*%
%ADD22O,0.0787X0.0354*%
%ADD50C,0.0079*%
%ADD83C,0.0390*%
%ADD137C,0.1260*%
%ADD139C,0.0354*%
%ADD148C,0.0089*%
%ADD156C,0.0157*%
%ADD166C,0.0042*%
%ADD181C,0.0236*%
%ADD182C,0.0118*%
%ADD183C,0.0039*%
%ADD184C,0.0037*%
G36*
X56749Y24792D02*
X56784Y24777D01*
X56816Y24756D01*
X56843Y24729D01*
X56864Y24698D01*
X56878Y24663D01*
X56886Y24625D01*
Y24606D01*
X56886Y19817D01*
X54010Y19817D01*
X54009Y13623D01*
X52108D01*
Y12919D01*
X53974D01*
X54009Y12883D01*
X54008Y201D01*
X11352Y201D01*
X11331Y251D01*
X11365Y284D01*
X11401Y347D01*
X11419Y416D01*
Y489D01*
X11401Y558D01*
X11365Y621D01*
X11314Y672D01*
X11251Y708D01*
X11182Y726D01*
X11110D01*
X11072Y716D01*
X11047Y757D01*
X11045Y761D01*
X11063Y803D01*
Y850D01*
X11045Y894D01*
X11012Y927D01*
X10968Y945D01*
X10921D01*
X10878Y927D01*
X10845Y894D01*
X10827Y850D01*
Y803D01*
X10845Y760D01*
X10878Y727D01*
X10921Y709D01*
X10947D01*
X10965Y659D01*
X10927Y621D01*
X10891Y558D01*
X10872Y489D01*
Y416D01*
X10891Y347D01*
X10927Y284D01*
X10960Y251D01*
X10940Y201D01*
X10462Y201D01*
X10452Y251D01*
X10461Y254D01*
X10494Y288D01*
X10512Y331D01*
Y378D01*
X10498Y411D01*
Y1592D01*
X10500Y1593D01*
X10533Y1626D01*
X10551Y1670D01*
Y1717D01*
X10533Y1760D01*
X10500Y1793D01*
X10457Y1811D01*
X10410D01*
X10366Y1793D01*
X10333Y1760D01*
X10315Y1717D01*
Y1670D01*
X10333Y1626D01*
X10366Y1593D01*
X10368Y1592D01*
Y472D01*
X10327Y455D01*
X10294Y421D01*
X10276Y378D01*
Y331D01*
X10294Y288D01*
X10327Y254D01*
X10335Y251D01*
X10325Y201D01*
X394Y201D01*
X394Y201D01*
X393Y201D01*
X374Y201D01*
X337Y208D01*
X302Y223D01*
X271Y244D01*
X244Y271D01*
X223Y302D01*
X208Y337D01*
X201Y375D01*
Y394D01*
X201Y24606D01*
Y24625D01*
X208Y24663D01*
X223Y24698D01*
X244Y24729D01*
X271Y24756D01*
X302Y24777D01*
X337Y24792D01*
X375Y24799D01*
X394D01*
X56694Y24799D01*
X56712D01*
X56749Y24792D01*
D02*
G37*
%LPC*%
G36*
X1884Y24390D02*
X1817D01*
X1752Y24372D01*
X1693Y24339D01*
X1646Y24291D01*
X1612Y24233D01*
X1594Y24168D01*
Y24100D01*
X1612Y24035D01*
X1646Y23977D01*
X1693Y23929D01*
X1752Y23896D01*
X1817Y23878D01*
X1884D01*
X1949Y23896D01*
X2008Y23929D01*
X2055Y23977D01*
X2089Y24035D01*
X2106Y24100D01*
Y24168D01*
X2089Y24233D01*
X2055Y24291D01*
X2008Y24339D01*
X1949Y24372D01*
X1884Y24390D01*
D02*
G37*
G36*
X13527Y23908D02*
X13480D01*
X13437Y23890D01*
X13403Y23857D01*
X13385Y23813D01*
Y23766D01*
X13403Y23723D01*
X13437Y23689D01*
X13480Y23672D01*
X13527D01*
X13570Y23689D01*
X13604Y23723D01*
X13622Y23766D01*
Y23813D01*
X13604Y23857D01*
X13570Y23890D01*
X13527Y23908D01*
D02*
G37*
G36*
X7477Y23615D02*
X7430D01*
X7386Y23597D01*
X7353Y23564D01*
X7335Y23520D01*
Y23473D01*
X7353Y23430D01*
X7386Y23397D01*
X7430Y23379D01*
X7477D01*
X7520Y23397D01*
X7553Y23430D01*
X7571Y23473D01*
Y23520D01*
X7553Y23564D01*
X7520Y23597D01*
X7477Y23615D01*
D02*
G37*
G36*
X12533Y23610D02*
X12486D01*
X12443Y23592D01*
X12410Y23559D01*
X12392Y23515D01*
Y23468D01*
X12410Y23425D01*
X12443Y23392D01*
X12486Y23374D01*
X12533D01*
X12577Y23392D01*
X12610Y23425D01*
X12628Y23468D01*
Y23515D01*
X12610Y23559D01*
X12577Y23592D01*
X12533Y23610D01*
D02*
G37*
G36*
X50865Y23436D02*
X50818D01*
X50774Y23418D01*
X50741Y23385D01*
X50723Y23342D01*
Y23295D01*
X50741Y23251D01*
X50774Y23218D01*
X50818Y23200D01*
X50865D01*
X50908Y23218D01*
X50941Y23251D01*
X50959Y23295D01*
Y23342D01*
X50941Y23385D01*
X50908Y23418D01*
X50865Y23436D01*
D02*
G37*
G36*
X50365D02*
X50318D01*
X50274Y23418D01*
X50241Y23385D01*
X50223Y23342D01*
Y23295D01*
X50241Y23251D01*
X50274Y23218D01*
X50318Y23200D01*
X50365D01*
X50408Y23218D01*
X50441Y23251D01*
X50459Y23295D01*
Y23342D01*
X50441Y23385D01*
X50408Y23418D01*
X50365Y23436D01*
D02*
G37*
G36*
X49865D02*
X49818D01*
X49774Y23418D01*
X49741Y23385D01*
X49723Y23342D01*
Y23295D01*
X49741Y23251D01*
X49774Y23218D01*
X49818Y23200D01*
X49865D01*
X49908Y23218D01*
X49941Y23251D01*
X49959Y23295D01*
Y23342D01*
X49941Y23385D01*
X49908Y23418D01*
X49865Y23436D01*
D02*
G37*
G36*
X49365D02*
X49318D01*
X49274Y23418D01*
X49241Y23385D01*
X49223Y23342D01*
Y23295D01*
X49241Y23251D01*
X49274Y23218D01*
X49318Y23200D01*
X49365D01*
X49408Y23218D01*
X49441Y23251D01*
X49459Y23295D01*
Y23342D01*
X49441Y23385D01*
X49408Y23418D01*
X49365Y23436D01*
D02*
G37*
G36*
X48365D02*
X48318D01*
X48274Y23418D01*
X48241Y23385D01*
X48223Y23342D01*
Y23295D01*
X48241Y23251D01*
X48274Y23218D01*
X48318Y23200D01*
X48365D01*
X48408Y23218D01*
X48441Y23251D01*
X48459Y23295D01*
Y23342D01*
X48441Y23385D01*
X48408Y23418D01*
X48365Y23436D01*
D02*
G37*
G36*
X47365D02*
X47318D01*
X47274Y23418D01*
X47241Y23385D01*
X47223Y23342D01*
Y23295D01*
X47241Y23251D01*
X47274Y23218D01*
X47318Y23200D01*
X47365D01*
X47408Y23218D01*
X47441Y23251D01*
X47459Y23295D01*
Y23342D01*
X47441Y23385D01*
X47408Y23418D01*
X47365Y23436D01*
D02*
G37*
G36*
X46865D02*
X46818D01*
X46774Y23418D01*
X46741Y23385D01*
X46723Y23342D01*
Y23295D01*
X46741Y23251D01*
X46774Y23218D01*
X46818Y23200D01*
X46865D01*
X46908Y23218D01*
X46941Y23251D01*
X46959Y23295D01*
Y23342D01*
X46941Y23385D01*
X46908Y23418D01*
X46865Y23436D01*
D02*
G37*
G36*
X46365D02*
X46318D01*
X46274Y23418D01*
X46241Y23385D01*
X46223Y23342D01*
Y23295D01*
X46241Y23251D01*
X46274Y23218D01*
X46318Y23200D01*
X46365D01*
X46408Y23218D01*
X46441Y23251D01*
X46459Y23295D01*
Y23342D01*
X46441Y23385D01*
X46408Y23418D01*
X46365Y23436D01*
D02*
G37*
G36*
X13527Y23335D02*
X13480D01*
X13437Y23317D01*
X13404Y23284D01*
X13386Y23240D01*
Y23193D01*
X13404Y23150D01*
X13437Y23117D01*
X13480Y23099D01*
X13527D01*
X13571Y23117D01*
X13604Y23150D01*
X13622Y23193D01*
Y23240D01*
X13604Y23284D01*
X13571Y23317D01*
X13527Y23335D01*
D02*
G37*
G36*
X9079Y22953D02*
X9032D01*
X8988Y22935D01*
X8955Y22902D01*
X8937Y22858D01*
Y22811D01*
X8955Y22768D01*
X8988Y22735D01*
X9032Y22717D01*
X9079D01*
X9122Y22735D01*
X9155Y22768D01*
X9173Y22811D01*
Y22858D01*
X9155Y22902D01*
X9122Y22935D01*
X9079Y22953D01*
D02*
G37*
G36*
X5030Y23740D02*
X4891D01*
X4754Y23713D01*
X4625Y23660D01*
X4509Y23582D01*
X4410Y23483D01*
X4333Y23367D01*
X4279Y23238D01*
X4252Y23101D01*
Y22962D01*
X4279Y22825D01*
X4333Y22696D01*
X4410Y22580D01*
X4509Y22481D01*
X4625Y22404D01*
X4754Y22350D01*
X4891Y22323D01*
X5030D01*
X5167Y22350D01*
X5296Y22404D01*
X5412Y22481D01*
X5511Y22580D01*
X5589Y22696D01*
X5642Y22825D01*
X5669Y22962D01*
Y23101D01*
X5642Y23238D01*
X5589Y23367D01*
X5511Y23483D01*
X5412Y23582D01*
X5296Y23660D01*
X5167Y23713D01*
X5030Y23740D01*
D02*
G37*
G36*
X44597Y23740D02*
X44458D01*
X44321Y23713D01*
X44192Y23660D01*
X44076Y23582D01*
X43977Y23483D01*
X43900Y23367D01*
X43846Y23238D01*
X43819Y23101D01*
Y22962D01*
X43846Y22825D01*
X43900Y22696D01*
X43977Y22580D01*
X44076Y22481D01*
X44192Y22404D01*
X44321Y22350D01*
X44458Y22323D01*
X44597D01*
X44734Y22350D01*
X44863Y22404D01*
X44979Y22481D01*
X45078Y22580D01*
X45156Y22696D01*
X45209Y22825D01*
X45236Y22962D01*
Y23101D01*
X45209Y23238D01*
X45156Y23367D01*
X45078Y23483D01*
X44979Y23582D01*
X44863Y23660D01*
X44734Y23713D01*
X44597Y23740D01*
D02*
G37*
G36*
X17393D02*
X17253D01*
X17116Y23713D01*
X16987Y23660D01*
X16871Y23582D01*
X16772Y23483D01*
X16695Y23367D01*
X16641Y23238D01*
X16614Y23101D01*
Y22962D01*
X16641Y22825D01*
X16695Y22696D01*
X16772Y22580D01*
X16871Y22481D01*
X16987Y22404D01*
X17116Y22350D01*
X17253Y22323D01*
X17393D01*
X17530Y22350D01*
X17659Y22404D01*
X17775Y22481D01*
X17873Y22580D01*
X17951Y22696D01*
X18004Y22825D01*
X18032Y22962D01*
Y23101D01*
X18004Y23238D01*
X17951Y23367D01*
X17873Y23483D01*
X17775Y23582D01*
X17659Y23660D01*
X17530Y23713D01*
X17393Y23740D01*
D02*
G37*
G36*
X56086Y22480D02*
X56040D01*
X55996Y22462D01*
X55963Y22429D01*
X55945Y22386D01*
Y22339D01*
X55963Y22295D01*
X55996Y22262D01*
X56040Y22244D01*
X56086D01*
X56130Y22262D01*
X56163Y22295D01*
X56181Y22339D01*
Y22386D01*
X56163Y22429D01*
X56130Y22462D01*
X56086Y22480D01*
D02*
G37*
G36*
X55693D02*
X55646D01*
X55602Y22462D01*
X55569Y22429D01*
X55551Y22386D01*
Y22339D01*
X55569Y22295D01*
X55602Y22262D01*
X55646Y22244D01*
X55693D01*
X55736Y22262D01*
X55769Y22295D01*
X55787Y22339D01*
Y22386D01*
X55769Y22429D01*
X55736Y22462D01*
X55693Y22480D01*
D02*
G37*
G36*
X9951Y21925D02*
X9904D01*
X9861Y21907D01*
X9827Y21874D01*
X9809Y21831D01*
Y21784D01*
X9827Y21740D01*
X9861Y21707D01*
X9904Y21689D01*
X9951D01*
X9995Y21707D01*
X10028Y21740D01*
X10046Y21784D01*
Y21831D01*
X10028Y21874D01*
X9995Y21907D01*
X9951Y21925D01*
D02*
G37*
G36*
X6441Y21811D02*
X6394D01*
X6350Y21793D01*
X6317Y21760D01*
X6299Y21716D01*
Y21669D01*
X6317Y21626D01*
X6350Y21593D01*
X6394Y21575D01*
X6441D01*
X6484Y21593D01*
X6517Y21626D01*
X6535Y21669D01*
Y21716D01*
X6517Y21760D01*
X6484Y21793D01*
X6441Y21811D01*
D02*
G37*
G36*
X46244Y21693D02*
X46197D01*
X46154Y21675D01*
X46120Y21642D01*
X46102Y21598D01*
Y21551D01*
X46120Y21508D01*
X46154Y21475D01*
X46197Y21457D01*
X46244D01*
X46287Y21475D01*
X46321Y21508D01*
X46339Y21551D01*
Y21598D01*
X46321Y21642D01*
X46287Y21675D01*
X46244Y21693D01*
D02*
G37*
G36*
X8714Y21503D02*
X8667D01*
X8624Y21485D01*
X8591Y21452D01*
X8573Y21409D01*
Y21362D01*
X8591Y21318D01*
X8624Y21285D01*
X8667Y21267D01*
X8714D01*
X8758Y21285D01*
X8791Y21318D01*
X8809Y21362D01*
Y21409D01*
X8791Y21452D01*
X8758Y21485D01*
X8714Y21503D01*
D02*
G37*
G36*
X1884Y21713D02*
X1817D01*
X1752Y21695D01*
X1693Y21662D01*
X1646Y21614D01*
X1612Y21556D01*
X1594Y21491D01*
Y21423D01*
X1612Y21358D01*
X1646Y21300D01*
X1693Y21252D01*
X1752Y21218D01*
X1817Y21201D01*
X1884D01*
X1949Y21218D01*
X2008Y21252D01*
X2055Y21300D01*
X2089Y21358D01*
X2106Y21423D01*
Y21491D01*
X2089Y21556D01*
X2055Y21614D01*
X2008Y21662D01*
X1949Y21695D01*
X1884Y21713D01*
D02*
G37*
G36*
X5142Y21378D02*
X5095D01*
X5051Y21360D01*
X5018Y21327D01*
X5000Y21284D01*
Y21237D01*
X5018Y21193D01*
X5051Y21160D01*
X5095Y21142D01*
X5142D01*
X5185Y21160D01*
X5218Y21193D01*
X5236Y21237D01*
Y21284D01*
X5218Y21327D01*
X5185Y21360D01*
X5142Y21378D01*
D02*
G37*
G36*
X56704Y21301D02*
X56657D01*
X56614Y21283D01*
X56581Y21250D01*
X56563Y21206D01*
Y21159D01*
X56564Y21156D01*
X56502Y21094D01*
X55203D01*
X55170Y21144D01*
X55173Y21152D01*
Y21199D01*
X55155Y21243D01*
X55122Y21276D01*
X55079Y21294D01*
X55032D01*
X54988Y21276D01*
X54955Y21243D01*
X54954Y21240D01*
X53712D01*
X53698Y21234D01*
X53673Y21229D01*
X53653Y21215D01*
X53639Y21210D01*
X53639Y21210D01*
X53639Y21209D01*
X53604Y21174D01*
X50959Y18529D01*
X22060D01*
X22041Y18549D01*
X22005Y18564D01*
X21966D01*
X21929Y18549D01*
X21902Y18521D01*
X21887Y18485D01*
Y18458D01*
X21852Y18435D01*
X21841Y18432D01*
X21808Y18445D01*
X21769D01*
X21733Y18430D01*
X21705Y18402D01*
X21690Y18366D01*
Y18327D01*
X21705Y18291D01*
X21733Y18263D01*
X21769Y18248D01*
X21808D01*
X21844Y18263D01*
X21864Y18283D01*
X23275D01*
X23307Y18233D01*
X23303Y18225D01*
X23267Y18210D01*
X23239Y18182D01*
X23224Y18146D01*
Y18107D01*
X23187Y18065D01*
X16079Y18065D01*
X15803D01*
X15784Y18085D01*
X15748Y18100D01*
X15709D01*
X15672Y18085D01*
X15645Y18057D01*
X15630Y18021D01*
Y17982D01*
X15645Y17946D01*
X15672Y17918D01*
X15709Y17903D01*
X15748D01*
X15784Y17918D01*
X15803Y17937D01*
X16079D01*
X22458Y17937D01*
X22493Y17887D01*
Y17863D01*
X22508Y17827D01*
X22536Y17799D01*
X22572Y17784D01*
X22611D01*
X22647Y17799D01*
X22667Y17819D01*
X23517D01*
X23556Y17781D01*
Y17742D01*
X23518Y17702D01*
X22398D01*
X22379Y17721D01*
X22342Y17736D01*
X22303D01*
X22267Y17721D01*
X22239Y17693D01*
X22224Y17657D01*
Y17618D01*
X22239Y17582D01*
X22258Y17563D01*
X22247Y17520D01*
X22243Y17513D01*
X21694D01*
X21674Y17533D01*
X21638Y17548D01*
X21599D01*
X21563Y17533D01*
X21535Y17505D01*
X21520Y17469D01*
Y17430D01*
X21535Y17394D01*
X21512Y17347D01*
X16308Y17347D01*
X15948D01*
X15928Y17366D01*
X15892Y17381D01*
X15853D01*
X15817Y17366D01*
X15789Y17338D01*
X15774Y17302D01*
Y17263D01*
X15789Y17227D01*
X15817Y17199D01*
X15853Y17184D01*
X15892D01*
X15928Y17199D01*
X15948Y17219D01*
X16308D01*
X21260Y17219D01*
X21270Y17169D01*
X21267Y17167D01*
X21239Y17140D01*
X21224Y17104D01*
Y17064D01*
X21239Y17028D01*
X21267Y17000D01*
X21303Y16985D01*
X21342D01*
X21379Y17000D01*
X21398Y17020D01*
X49811D01*
X50042Y16789D01*
Y15854D01*
X50036Y15848D01*
X50008D01*
X49972Y15833D01*
X49944Y15806D01*
X49929Y15769D01*
Y15730D01*
X49944Y15694D01*
X49972Y15666D01*
X50008Y15651D01*
X50047D01*
X50076Y15663D01*
X50107Y15651D01*
X50126Y15638D01*
Y15414D01*
X50032Y15320D01*
X50013Y15275D01*
Y14034D01*
X49738Y13760D01*
X49736D01*
X49707Y13748D01*
X49683Y13728D01*
X49659Y13748D01*
X49657Y13749D01*
X49649Y13755D01*
X49599Y13805D01*
X49616Y13855D01*
X49645Y13867D01*
X49667Y13889D01*
X49679Y13918D01*
Y13950D01*
X49667Y13978D01*
X49645Y14001D01*
X49645Y14001D01*
Y14058D01*
X49691Y14069D01*
X49695Y14069D01*
X49716Y14048D01*
X49745Y14036D01*
X49776D01*
X49805Y14048D01*
X49821Y14064D01*
X49837Y14048D01*
X49866Y14036D01*
X49897D01*
X49926Y14048D01*
X49948Y14070D01*
X49960Y14099D01*
Y14130D01*
X49948Y14159D01*
X49926Y14181D01*
X49897Y14193D01*
X49866D01*
X49837Y14181D01*
X49821Y14166D01*
X49805Y14181D01*
X49776Y14193D01*
X49745D01*
X49716Y14181D01*
X49695Y14160D01*
X49689Y14160D01*
X49647Y14167D01*
X49644Y14168D01*
X49626Y14262D01*
X49572Y14342D01*
X49572Y14343D01*
X49565Y14346D01*
X49522Y14411D01*
X49506Y14488D01*
X49509Y14495D01*
Y15058D01*
X49524Y15103D01*
X49560Y15118D01*
X49588Y15145D01*
X49603Y15181D01*
Y15221D01*
X49588Y15257D01*
X49560Y15284D01*
X49524Y15299D01*
X49485D01*
X49448Y15284D01*
X49438Y15274D01*
X49406Y15262D01*
X49374Y15274D01*
X49363Y15284D01*
X49327Y15299D01*
X49288D01*
X49252Y15284D01*
X49224Y15257D01*
X49209Y15221D01*
Y15181D01*
X49224Y15145D01*
X49252Y15118D01*
X49288Y15103D01*
X49302Y15058D01*
Y14495D01*
X49304Y14490D01*
X49318Y14386D01*
X49360Y14285D01*
X49424Y14201D01*
X49438Y14167D01*
Y14004D01*
X49438Y14004D01*
X49416Y13982D01*
X49404Y13953D01*
Y13921D01*
X49405Y13917D01*
X49375Y13867D01*
X48742D01*
X48576Y14033D01*
X48595Y14080D01*
X48974D01*
X48976Y14077D01*
X49005Y14065D01*
X49037D01*
X49066Y14077D01*
X49088Y14099D01*
X49100Y14128D01*
Y14159D01*
X49114Y14181D01*
X49162D01*
X49164Y14178D01*
X49193Y14166D01*
X49225D01*
X49254Y14178D01*
X49276Y14200D01*
X49288Y14229D01*
Y14260D01*
X49276Y14289D01*
X49254Y14311D01*
X49225Y14323D01*
X49193D01*
X49164Y14311D01*
X49162Y14308D01*
X48536D01*
X46512Y16333D01*
X46466Y16351D01*
X36404D01*
X36359Y16333D01*
X36351Y16325D01*
X24047D01*
X24027Y16345D01*
X23991Y16360D01*
X23952D01*
X23916Y16345D01*
X23888Y16317D01*
X23873Y16281D01*
Y16242D01*
X23873Y16241D01*
X23840Y16191D01*
X23080D01*
X23060Y16211D01*
X23024Y16226D01*
X22985D01*
X22949Y16211D01*
X22921Y16183D01*
X22906Y16147D01*
Y16108D01*
X22921Y16072D01*
X22938Y16055D01*
X22934Y15900D01*
X22513D01*
X22421Y15992D01*
Y16020D01*
X22406Y16056D01*
X22379Y16083D01*
X22342Y16098D01*
X22303D01*
X22267Y16083D01*
X22239Y16056D01*
X22224Y16020D01*
Y15980D01*
X22239Y15944D01*
X22267Y15917D01*
X22303Y15902D01*
X22331D01*
X22441Y15791D01*
X22486Y15773D01*
X23186D01*
X23224Y15734D01*
Y15695D01*
X23239Y15658D01*
X23267Y15631D01*
X23303Y15616D01*
X23342D01*
X23378Y15631D01*
X23398Y15650D01*
X29210D01*
X29231Y15600D01*
X29213Y15557D01*
Y15510D01*
X29231Y15467D01*
X29264Y15433D01*
X29307Y15415D01*
X29354D01*
X29398Y15433D01*
X29431Y15467D01*
X29449Y15510D01*
Y15557D01*
X29431Y15600D01*
X29452Y15650D01*
X44321D01*
X44331Y15641D01*
X44351Y15600D01*
X44339Y15572D01*
Y15525D01*
X44357Y15482D01*
X44390Y15449D01*
X44434Y15431D01*
X44481D01*
X44524Y15449D01*
X44557Y15482D01*
X44575Y15525D01*
Y15572D01*
X44564Y15600D01*
X44584Y15641D01*
X44593Y15650D01*
X46418D01*
X47875Y14193D01*
X47856Y14157D01*
X47849Y14148D01*
X47813D01*
X47777Y14133D01*
X47757Y14114D01*
X46387D01*
X46342Y14095D01*
X45617Y13371D01*
X42021D01*
X42002Y13391D01*
X41966Y13405D01*
X41927D01*
X41890Y13391D01*
X41863Y13363D01*
X41848Y13327D01*
Y13287D01*
X41809Y13251D01*
X36387D01*
X36342Y13232D01*
X35810Y12700D01*
X28825D01*
X28805Y12719D01*
X28769Y12734D01*
X28730D01*
X28694Y12719D01*
X28666Y12692D01*
X28651Y12656D01*
Y12616D01*
X28614Y12574D01*
X27399D01*
X27379Y12594D01*
X27343Y12609D01*
X27304D01*
X27268Y12594D01*
X27240Y12566D01*
X27225Y12530D01*
Y12491D01*
X27189Y12447D01*
X26377D01*
X26367Y12497D01*
X26379Y12502D01*
X26406Y12530D01*
X26421Y12566D01*
Y12605D01*
X26406Y12641D01*
X26379Y12669D01*
X26342Y12684D01*
X26303D01*
X26267Y12669D01*
X26239Y12641D01*
X26224Y12605D01*
Y12566D01*
X26239Y12530D01*
X26267Y12502D01*
X26279Y12497D01*
X26269Y12447D01*
X24520D01*
X24501Y12467D01*
X24465Y12482D01*
X24425D01*
X24389Y12467D01*
X24362Y12439D01*
X24347Y12403D01*
Y12364D01*
X24362Y12328D01*
X24389Y12300D01*
X24425Y12285D01*
X24465D01*
X24501Y12300D01*
X24520Y12319D01*
X25185D01*
X25224Y12283D01*
Y12244D01*
X25239Y12207D01*
X25267Y12180D01*
X25303Y12165D01*
X25342D01*
X25379Y12180D01*
X25398Y12199D01*
X25598D01*
X25636Y12160D01*
Y12121D01*
X25651Y12085D01*
X25679Y12057D01*
X25715Y12042D01*
X25754D01*
X25790Y12057D01*
X25810Y12076D01*
X26266D01*
X26285Y12030D01*
X25689Y11435D01*
X23639D01*
X23594Y11416D01*
X23422Y11244D01*
X14039D01*
X14020Y11262D01*
X13984Y11277D01*
X13945D01*
X13909Y11262D01*
X13881Y11235D01*
X13866Y11198D01*
Y11159D01*
X13881Y11123D01*
X13909Y11095D01*
X13945Y11080D01*
X13984D01*
X14020Y11095D01*
X14041Y11116D01*
X15285D01*
X15295Y11106D01*
X15314Y11066D01*
X15306Y11045D01*
Y11029D01*
X15285Y10997D01*
X15260Y10986D01*
X15239D01*
X15203Y10971D01*
X15175Y10943D01*
X15160Y10907D01*
Y10868D01*
X15175Y10832D01*
X15203Y10804D01*
X15239Y10789D01*
X15278D01*
X15314Y10804D01*
X15334Y10824D01*
X21512D01*
X21532Y10804D01*
X21568Y10789D01*
X21607D01*
X21643Y10804D01*
X21663Y10824D01*
X22405D01*
X22508Y10720D01*
X22553Y10702D01*
X26878D01*
X26916Y10661D01*
Y10622D01*
X26931Y10586D01*
X26958Y10558D01*
X26994Y10543D01*
X27034D01*
X27070Y10558D01*
X27089Y10578D01*
X27596D01*
X27631Y10532D01*
Y10493D01*
X27608Y10458D01*
X21903D01*
X21890Y10471D01*
X21854Y10486D01*
X21815D01*
X21779Y10471D01*
X21766Y10458D01*
X15341D01*
X15322Y10477D01*
X15286Y10492D01*
X15247D01*
X15210Y10477D01*
X15183Y10450D01*
X15168Y10414D01*
Y10374D01*
X15183Y10338D01*
X15210Y10311D01*
X15247Y10296D01*
X15286D01*
X15322Y10311D01*
X15341Y10330D01*
X21753D01*
X21779Y10304D01*
X21815Y10289D01*
X21854D01*
X21890Y10304D01*
X21917Y10330D01*
X25757D01*
X25768Y10318D01*
X25786Y10280D01*
X25776Y10257D01*
Y10218D01*
X25791Y10182D01*
X25819Y10154D01*
X25855Y10139D01*
X25883D01*
X26157Y9865D01*
X26202Y9846D01*
X30245D01*
X30942Y9150D01*
X30987Y9131D01*
X37899D01*
X37920Y9081D01*
X37908Y9069D01*
X37890Y9026D01*
Y8979D01*
X37908Y8936D01*
X37941Y8902D01*
X37985Y8884D01*
X38032D01*
X38075Y8902D01*
X38108Y8936D01*
X38126Y8979D01*
Y9026D01*
X38108Y9069D01*
X38096Y9081D01*
X38117Y9131D01*
X49062D01*
X49107Y9150D01*
X50678Y10721D01*
X50697Y10766D01*
Y11536D01*
X51108Y11947D01*
X51127Y11993D01*
Y12563D01*
X51108Y12609D01*
X50405Y13311D01*
X50360Y13330D01*
X50332D01*
X50312Y13378D01*
X50326Y13393D01*
X50386Y13391D01*
X50393Y13385D01*
X50421Y13373D01*
X50453D01*
X50482Y13385D01*
X50485Y13387D01*
X51037D01*
X51083Y13406D01*
X51525Y13848D01*
X51715D01*
X51749Y13798D01*
X51747Y13793D01*
Y13746D01*
X51765Y13702D01*
X51798Y13669D01*
X51841Y13651D01*
X51888D01*
X51932Y13669D01*
X51965Y13702D01*
X51983Y13746D01*
Y13793D01*
X51981Y13798D01*
X51983Y13802D01*
X52026Y13829D01*
X52063Y13814D01*
X52102D01*
X52138Y13829D01*
X52166Y13856D01*
X52181Y13892D01*
Y13932D01*
X52166Y13968D01*
X52138Y13995D01*
X52102Y14010D01*
X52063D01*
X52026Y13995D01*
X52007Y13976D01*
X51862D01*
X51828Y14026D01*
X51833Y14038D01*
Y14085D01*
X51815Y14128D01*
X51782Y14161D01*
X51739Y14179D01*
X51712D01*
X51683Y14196D01*
X51668Y14224D01*
Y14251D01*
X51650Y14295D01*
X51617Y14328D01*
X51601Y14335D01*
X51587Y14392D01*
X51643Y14448D01*
X51791D01*
X51808Y14430D01*
X51845Y14415D01*
X51884D01*
X51920Y14430D01*
X51948Y14458D01*
X51963Y14494D01*
Y14533D01*
X51948Y14569D01*
X51920Y14597D01*
X51884Y14612D01*
X51845D01*
X51808Y14597D01*
X51787Y14575D01*
X51616D01*
X51571Y14557D01*
X50971Y13956D01*
X50917Y13973D01*
X50906Y13998D01*
X50873Y14031D01*
X50830Y14049D01*
X50783D01*
X50739Y14031D01*
X50706Y13998D01*
X50688Y13955D01*
Y13908D01*
X50694Y13893D01*
X50662Y13843D01*
X50345D01*
X50326Y13889D01*
X50337Y13900D01*
X50356Y13946D01*
Y14100D01*
X50583Y14326D01*
X50635Y14308D01*
X50636Y14297D01*
X50636Y14290D01*
Y14258D01*
X50651Y14222D01*
X50679Y14194D01*
X50715Y14179D01*
X50754D01*
X50791Y14194D01*
X50818Y14222D01*
X50833Y14258D01*
Y14285D01*
X50899Y14351D01*
X50914D01*
X50960Y14370D01*
X51028Y14439D01*
X51047Y14484D01*
Y17037D01*
X51028Y17082D01*
X49874Y18237D01*
X49893Y18283D01*
X51063D01*
X51108Y18301D01*
X53773Y20966D01*
X56528D01*
X56573Y20985D01*
X56654Y21066D01*
X56657Y21065D01*
X56704D01*
X56748Y21083D01*
X56781Y21116D01*
X56799Y21159D01*
Y21206D01*
X56781Y21250D01*
X56748Y21283D01*
X56704Y21301D01*
D02*
G37*
G36*
X46632Y21516D02*
X46585D01*
X46542Y21498D01*
X46509Y21465D01*
X46491Y21421D01*
Y21374D01*
X46509Y21331D01*
X46542Y21298D01*
X46585Y21280D01*
X46632D01*
X46635Y21281D01*
X46653Y21264D01*
X46668Y21240D01*
X46654Y21205D01*
Y21158D01*
X46672Y21114D01*
X46705Y21081D01*
X46748Y21063D01*
X46795D01*
X46839Y21081D01*
X46872Y21114D01*
X46890Y21158D01*
Y21205D01*
X46872Y21248D01*
X46839Y21281D01*
X46795Y21299D01*
X46748D01*
X46746Y21298D01*
X46727Y21315D01*
X46712Y21339D01*
X46727Y21374D01*
Y21421D01*
X46709Y21465D01*
X46676Y21498D01*
X46632Y21516D01*
D02*
G37*
G36*
X7356Y20837D02*
X7309D01*
X7266Y20819D01*
X7233Y20786D01*
X7232Y20784D01*
X7178D01*
X7177Y20786D01*
X7144Y20819D01*
X7100Y20837D01*
X7053D01*
X7010Y20819D01*
X6977Y20786D01*
X6959Y20742D01*
Y20695D01*
X6977Y20652D01*
X7010Y20619D01*
X7053Y20601D01*
X7100D01*
X7103Y20602D01*
X7189Y20516D01*
Y20163D01*
X6748Y19722D01*
X6729Y19677D01*
Y18582D01*
X5507Y17359D01*
X5488Y17314D01*
Y16788D01*
X5210Y16510D01*
X4571D01*
X4526Y16491D01*
X3925Y15891D01*
X3907Y15846D01*
Y14699D01*
X3925Y14654D01*
X4283Y14297D01*
Y11825D01*
X4243Y11812D01*
X4233Y11812D01*
X4201Y11843D01*
X4158Y11861D01*
X4111D01*
X4068Y11843D01*
X4034Y11810D01*
X4016Y11766D01*
Y11719D01*
X4034Y11676D01*
X4068Y11643D01*
X4111Y11625D01*
X4158D01*
X4201Y11643D01*
X4233Y11674D01*
X4243Y11673D01*
X4283Y11661D01*
Y6216D01*
X4301Y6171D01*
X4730Y5742D01*
X4775Y5724D01*
X4977D01*
X4979Y5721D01*
X5012Y5687D01*
X5055Y5669D01*
X5102D01*
X5146Y5687D01*
X5179Y5721D01*
X5197Y5764D01*
Y5811D01*
X5179Y5854D01*
X5146Y5888D01*
X5102Y5906D01*
X5055D01*
X5012Y5888D01*
X4979Y5854D01*
X4977Y5851D01*
X4801D01*
X4410Y6242D01*
Y14216D01*
X4457Y14235D01*
X4503Y14189D01*
Y6412D01*
X4522Y6367D01*
X4871Y6018D01*
X4916Y5999D01*
X5174D01*
X5175Y5996D01*
X5209Y5963D01*
X5252Y5945D01*
X5299D01*
X5343Y5963D01*
X5376Y5996D01*
X5394Y6040D01*
Y6087D01*
X5376Y6130D01*
X5343Y6163D01*
X5299Y6181D01*
X5252D01*
X5209Y6163D01*
X5175Y6130D01*
X5174Y6127D01*
X4942D01*
X4631Y6439D01*
Y14216D01*
X4612Y14261D01*
X4115Y14758D01*
Y15788D01*
X4630Y16303D01*
X5270D01*
X5315Y16322D01*
X5677Y16683D01*
X5695Y16728D01*
Y17254D01*
X6919Y18477D01*
X6937Y18523D01*
Y19616D01*
X7378Y20056D01*
X7397Y20101D01*
Y20617D01*
X7400Y20619D01*
X7433Y20652D01*
X7451Y20695D01*
Y20742D01*
X7433Y20786D01*
X7400Y20819D01*
X7356Y20837D01*
D02*
G37*
G36*
X38606Y20945D02*
X38559D01*
X38516Y20927D01*
X38483Y20894D01*
X38465Y20850D01*
Y20803D01*
X38483Y20760D01*
X38516Y20727D01*
X38559Y20709D01*
X38606D01*
X38650Y20727D01*
X38683Y20760D01*
X38701Y20803D01*
Y20850D01*
X38683Y20894D01*
X38650Y20927D01*
X38606Y20945D01*
D02*
G37*
G36*
X24344Y20935D02*
X24297D01*
X24254Y20917D01*
X24221Y20884D01*
X24203Y20841D01*
Y20794D01*
X24221Y20750D01*
X24254Y20717D01*
X24297Y20699D01*
X24344D01*
X24388Y20717D01*
X24421Y20750D01*
X24439Y20794D01*
Y20841D01*
X24421Y20884D01*
X24388Y20917D01*
X24344Y20935D01*
D02*
G37*
G36*
X36598Y20906D02*
X36551D01*
X36508Y20888D01*
X36475Y20854D01*
X36457Y20811D01*
Y20764D01*
X36475Y20721D01*
X36508Y20687D01*
X36551Y20669D01*
X36598D01*
X36642Y20687D01*
X36675Y20721D01*
X36693Y20764D01*
Y20811D01*
X36675Y20854D01*
X36642Y20888D01*
X36598Y20906D01*
D02*
G37*
G36*
X44478Y20886D02*
X44431D01*
X44388Y20868D01*
X44355Y20834D01*
X44337Y20791D01*
Y20744D01*
X44355Y20701D01*
X44388Y20667D01*
X44431Y20649D01*
X44478D01*
X44522Y20667D01*
X44555Y20701D01*
X44573Y20744D01*
Y20791D01*
X44555Y20834D01*
X44522Y20868D01*
X44478Y20886D01*
D02*
G37*
G36*
X40596D02*
X40549D01*
X40506Y20868D01*
X40473Y20834D01*
X40455Y20791D01*
Y20744D01*
X40473Y20701D01*
X40506Y20667D01*
X40549Y20649D01*
X40596D01*
X40640Y20667D01*
X40673Y20701D01*
X40691Y20744D01*
Y20791D01*
X40673Y20834D01*
X40640Y20868D01*
X40596Y20886D01*
D02*
G37*
G36*
X39596D02*
X39549D01*
X39506Y20868D01*
X39473Y20834D01*
X39455Y20791D01*
Y20744D01*
X39473Y20701D01*
X39506Y20667D01*
X39549Y20649D01*
X39596D01*
X39640Y20667D01*
X39673Y20701D01*
X39691Y20744D01*
Y20791D01*
X39673Y20834D01*
X39640Y20868D01*
X39596Y20886D01*
D02*
G37*
G36*
X29346D02*
X29299D01*
X29256Y20868D01*
X29223Y20834D01*
X29205Y20791D01*
Y20744D01*
X29223Y20701D01*
X29256Y20667D01*
X29299Y20649D01*
X29346D01*
X29390Y20667D01*
X29423Y20701D01*
X29441Y20744D01*
Y20791D01*
X29423Y20834D01*
X29390Y20868D01*
X29346Y20886D01*
D02*
G37*
G36*
X48865Y23436D02*
X48818D01*
X48774Y23418D01*
X48741Y23385D01*
X48723Y23342D01*
Y23295D01*
X48741Y23251D01*
X48774Y23218D01*
X48777Y23217D01*
Y21624D01*
X47782Y20629D01*
X47779Y20630D01*
X47732D01*
X47689Y20612D01*
X47656Y20579D01*
X47655Y20576D01*
X41317D01*
X41272Y20557D01*
X39599Y18884D01*
X39596Y18886D01*
X39549D01*
X39506Y18868D01*
X39473Y18834D01*
X39455Y18791D01*
Y18744D01*
X39473Y18701D01*
X39506Y18667D01*
X39549Y18649D01*
X39596D01*
X39640Y18667D01*
X39673Y18701D01*
X39691Y18744D01*
Y18791D01*
X39690Y18794D01*
X41344Y20448D01*
X47655D01*
X47656Y20445D01*
X47689Y20412D01*
X47732Y20394D01*
X47779D01*
X47823Y20412D01*
X47856Y20445D01*
X47874Y20488D01*
Y20535D01*
X47873Y20538D01*
X48887Y21552D01*
X48905Y21597D01*
Y23217D01*
X48908Y23218D01*
X48941Y23251D01*
X48959Y23295D01*
Y23342D01*
X48941Y23385D01*
X48908Y23418D01*
X48865Y23436D01*
D02*
G37*
G36*
X14315Y20847D02*
X14268D01*
X14224Y20829D01*
X14191Y20795D01*
X14173Y20752D01*
Y20705D01*
X14191Y20662D01*
X14224Y20628D01*
X14268Y20610D01*
X14315D01*
X14358Y20628D01*
X14391Y20662D01*
X14409Y20705D01*
Y20752D01*
X14391Y20795D01*
X14358Y20829D01*
X14315Y20847D01*
D02*
G37*
G36*
X55988Y20455D02*
X55941D01*
X55898Y20437D01*
X55866Y20406D01*
X55835Y20437D01*
X55791Y20455D01*
X55744D01*
X55701Y20437D01*
X55668Y20404D01*
X55650Y20360D01*
Y20313D01*
X55668Y20270D01*
X55701Y20237D01*
X55744Y20219D01*
X55791D01*
X55835Y20237D01*
X55866Y20268D01*
X55898Y20237D01*
X55941Y20219D01*
X55988D01*
X56031Y20237D01*
X56065Y20270D01*
X56083Y20313D01*
Y20360D01*
X56065Y20404D01*
X56031Y20437D01*
X55988Y20455D01*
D02*
G37*
G36*
X12932Y20641D02*
X12885D01*
X12841Y20623D01*
X12808Y20590D01*
X12790Y20547D01*
Y20500D01*
X12808Y20456D01*
X12841Y20423D01*
X12885Y20405D01*
X12932D01*
X12975Y20423D01*
X13008Y20456D01*
X13026Y20500D01*
Y20547D01*
X13008Y20590D01*
X12975Y20623D01*
X12932Y20641D01*
D02*
G37*
G36*
X11004Y21738D02*
X10957D01*
X10913Y21720D01*
X10880Y21687D01*
X10862Y21644D01*
Y21631D01*
X10177Y20946D01*
X10158Y20917D01*
X10151Y20882D01*
Y20622D01*
X9903Y20374D01*
X9819D01*
X9793Y20424D01*
X9803Y20449D01*
Y20496D01*
X9785Y20539D01*
X9752Y20573D01*
X9709Y20591D01*
X9662D01*
X9618Y20573D01*
X9585Y20539D01*
X9567Y20496D01*
Y20454D01*
X8308Y19195D01*
X8293Y19172D01*
X8287Y19145D01*
Y17894D01*
X8208Y17815D01*
X8165D01*
X8122Y17797D01*
X8089Y17764D01*
X8071Y17720D01*
Y17673D01*
X8089Y17630D01*
X8122Y17597D01*
X8165Y17579D01*
X8212D01*
X8256Y17597D01*
X8289Y17630D01*
X8307Y17673D01*
Y17716D01*
X8407Y17816D01*
X8413Y17825D01*
X8434Y17832D01*
X8456Y17834D01*
X8472Y17832D01*
X8555Y17749D01*
Y17546D01*
X8505Y17526D01*
X8493Y17538D01*
X8449Y17556D01*
X8402D01*
X8359Y17538D01*
X8339Y17518D01*
X7974D01*
X7943Y17512D01*
X7917Y17494D01*
X7373Y16950D01*
X6256D01*
X6236Y16970D01*
X6193Y16988D01*
X6146D01*
X6102Y16970D01*
X6069Y16937D01*
X6051Y16894D01*
Y16847D01*
X6069Y16803D01*
X6102Y16770D01*
X6146Y16752D01*
X6193D01*
X6236Y16770D01*
X6256Y16790D01*
X7406D01*
X7437Y16796D01*
X7463Y16813D01*
X8007Y17357D01*
X8339D01*
X8359Y17337D01*
X8402Y17319D01*
X8438D01*
X8459Y17286D01*
X8462Y17273D01*
X8377Y17188D01*
X8236D01*
X8218Y17196D01*
X8179D01*
X8143Y17181D01*
X8115Y17153D01*
X8100Y17117D01*
Y17078D01*
X8115Y17041D01*
X8143Y17014D01*
X8179Y16999D01*
X8218D01*
X8236Y17006D01*
X8415D01*
X8450Y17013D01*
X8480Y17033D01*
X8710Y17264D01*
X8730Y17293D01*
X8737Y17328D01*
Y17786D01*
X8730Y17821D01*
X8710Y17851D01*
X8618Y17944D01*
Y18762D01*
X8643Y18777D01*
X8668Y18786D01*
X8706Y18770D01*
X8753D01*
X8796Y18788D01*
X8813Y18805D01*
X8834Y18784D01*
X8877Y18766D01*
X8924D01*
X8968Y18784D01*
X8981Y18797D01*
X8996Y18782D01*
X9039Y18764D01*
X9086D01*
X9130Y18782D01*
X9147Y18800D01*
X9167Y18780D01*
X9211Y18762D01*
X9258D01*
X9301Y18780D01*
X9334Y18813D01*
X9352Y18856D01*
Y18903D01*
X9334Y18947D01*
X9301Y18980D01*
X9258Y18998D01*
X9211D01*
X9167Y18980D01*
X9150Y18962D01*
X9130Y18983D01*
X9086Y19001D01*
X9039D01*
X8996Y18983D01*
X8983Y18969D01*
X8968Y18984D01*
X8924Y19002D01*
X8877D01*
X8834Y18984D01*
X8817Y18967D01*
X8796Y18988D01*
X8753Y19006D01*
X8706D01*
X8668Y18991D01*
X8643Y19000D01*
X8618Y19014D01*
Y19104D01*
X9706Y20192D01*
X9941D01*
X9976Y20199D01*
X10005Y20219D01*
X10306Y20520D01*
X10326Y20549D01*
X10333Y20584D01*
Y20844D01*
X10991Y21502D01*
X11004D01*
X11047Y21520D01*
X11080Y21553D01*
X11098Y21597D01*
Y21644D01*
X11080Y21687D01*
X11047Y21720D01*
X11004Y21738D01*
D02*
G37*
G36*
X1598Y20591D02*
X1551D01*
X1508Y20573D01*
X1475Y20540D01*
X1457Y20496D01*
Y20449D01*
X1475Y20406D01*
X1508Y20372D01*
X1551Y20354D01*
X1598D01*
X1642Y20372D01*
X1675Y20406D01*
X1693Y20449D01*
Y20496D01*
X1675Y20540D01*
X1642Y20573D01*
X1598Y20591D01*
D02*
G37*
G36*
X3724Y20473D02*
X3677D01*
X3634Y20455D01*
X3601Y20421D01*
X3583Y20378D01*
Y20331D01*
X3601Y20288D01*
X3634Y20254D01*
X3677Y20236D01*
X3724D01*
X3768Y20254D01*
X3801Y20288D01*
X3819Y20331D01*
Y20378D01*
X3801Y20421D01*
X3768Y20455D01*
X3724Y20473D01*
D02*
G37*
G36*
X7801Y20419D02*
X7754D01*
X7710Y20401D01*
X7677Y20368D01*
X7659Y20325D01*
Y20278D01*
X7677Y20234D01*
X7710Y20201D01*
X7754Y20183D01*
X7801D01*
X7844Y20201D01*
X7877Y20234D01*
X7895Y20278D01*
Y20325D01*
X7877Y20368D01*
X7844Y20401D01*
X7801Y20419D01*
D02*
G37*
G36*
X2780Y20570D02*
X2733D01*
X2690Y20552D01*
X2657Y20518D01*
X2639Y20475D01*
Y20428D01*
X2657Y20385D01*
X2690Y20351D01*
X2691Y20351D01*
Y20297D01*
X2690Y20296D01*
X2657Y20263D01*
X2639Y20219D01*
Y20172D01*
X2657Y20129D01*
X2690Y20096D01*
X2733Y20078D01*
X2780D01*
X2824Y20096D01*
X2857Y20129D01*
X2875Y20172D01*
Y20219D01*
X2857Y20263D01*
X2824Y20296D01*
X2822Y20297D01*
Y20351D01*
X2824Y20351D01*
X2857Y20385D01*
X2875Y20428D01*
Y20475D01*
X2857Y20518D01*
X2824Y20552D01*
X2780Y20570D01*
D02*
G37*
G36*
X48764Y20158D02*
X48717D01*
X48673Y20140D01*
X48640Y20106D01*
X48622Y20063D01*
Y20016D01*
X48640Y19973D01*
X48673Y19939D01*
X48717Y19921D01*
X48764D01*
X48807Y19939D01*
X48840Y19973D01*
X48858Y20016D01*
Y20063D01*
X48840Y20106D01*
X48807Y20140D01*
X48764Y20158D01*
D02*
G37*
G36*
X8481Y19983D02*
X8434D01*
X8391Y19965D01*
X8357Y19932D01*
X8339Y19888D01*
Y19841D01*
X8357Y19798D01*
X8391Y19765D01*
X8434Y19747D01*
X8481D01*
X8524Y19765D01*
X8558Y19798D01*
X8576Y19841D01*
Y19888D01*
X8558Y19932D01*
X8524Y19965D01*
X8481Y19983D01*
D02*
G37*
G36*
X38827Y19950D02*
X38780D01*
X38736Y19932D01*
X38703Y19899D01*
X38685Y19856D01*
Y19809D01*
X38703Y19765D01*
X38736Y19732D01*
X38780Y19714D01*
X38827D01*
X38870Y19732D01*
X38903Y19765D01*
X38921Y19809D01*
Y19856D01*
X38903Y19899D01*
X38870Y19932D01*
X38827Y19950D01*
D02*
G37*
G36*
X6205Y19754D02*
X6158D01*
X6114Y19736D01*
X6090Y19712D01*
X6060Y19706D01*
X6030Y19712D01*
X6006Y19736D01*
X5962Y19754D01*
X5915D01*
X5872Y19736D01*
X5839Y19703D01*
X5821Y19659D01*
Y19612D01*
X5839Y19569D01*
X5865Y19543D01*
X5867Y19507D01*
X5863Y19485D01*
X5835Y19457D01*
X5817Y19413D01*
Y19366D01*
X5835Y19323D01*
X5868Y19290D01*
X5912Y19272D01*
X5959D01*
X6002Y19290D01*
X6029Y19317D01*
X6058Y19320D01*
X6087Y19317D01*
X6114Y19290D01*
X6158Y19272D01*
X6205D01*
X6248Y19290D01*
X6281Y19323D01*
X6299Y19366D01*
Y19413D01*
X6281Y19457D01*
X6254Y19484D01*
X6251Y19513D01*
X6254Y19542D01*
X6281Y19569D01*
X6299Y19612D01*
Y19659D01*
X6281Y19703D01*
X6248Y19736D01*
X6205Y19754D01*
D02*
G37*
G36*
X47773Y19576D02*
X47727D01*
X47683Y19558D01*
X47650Y19525D01*
X47632Y19482D01*
Y19435D01*
X47650Y19391D01*
X47683Y19358D01*
X47727Y19340D01*
X47773D01*
X47817Y19358D01*
X47850Y19391D01*
X47868Y19435D01*
Y19482D01*
X47850Y19525D01*
X47817Y19558D01*
X47773Y19576D01*
D02*
G37*
G36*
X10693Y19331D02*
X10646D01*
X10602Y19313D01*
X10571Y19281D01*
X10539Y19313D01*
X10496Y19331D01*
X10449D01*
X10406Y19313D01*
X10372Y19280D01*
X10354Y19236D01*
Y19189D01*
X10372Y19146D01*
X10406Y19112D01*
X10449Y19094D01*
X10496D01*
X10539Y19112D01*
X10571Y19144D01*
X10602Y19112D01*
X10646Y19094D01*
X10693D01*
X10736Y19112D01*
X10769Y19146D01*
X10787Y19189D01*
Y19236D01*
X10769Y19280D01*
X10736Y19313D01*
X10693Y19331D01*
D02*
G37*
G36*
X13114Y19410D02*
X13067D01*
X13024Y19392D01*
X12990Y19358D01*
X12972Y19315D01*
Y19268D01*
X12990Y19225D01*
X13024Y19191D01*
X13067Y19173D01*
X13114D01*
X13157Y19191D01*
X13191Y19225D01*
X13209Y19268D01*
Y19315D01*
X13191Y19358D01*
X13157Y19392D01*
X13114Y19410D01*
D02*
G37*
G36*
X1992Y19213D02*
X1945D01*
X1902Y19195D01*
X1868Y19162D01*
X1857Y19135D01*
X1804D01*
X1793Y19162D01*
X1760Y19195D01*
X1716Y19213D01*
X1669D01*
X1626Y19195D01*
X1593Y19162D01*
X1575Y19118D01*
Y19071D01*
X1593Y19028D01*
X1626Y18995D01*
X1653Y18983D01*
Y18930D01*
X1626Y18919D01*
X1593Y18886D01*
X1575Y18843D01*
Y18796D01*
X1593Y18752D01*
X1626Y18719D01*
X1669Y18701D01*
X1716D01*
X1760Y18719D01*
X1793Y18752D01*
X1804Y18779D01*
X1857D01*
X1868Y18752D01*
X1902Y18719D01*
X1945Y18701D01*
X1992D01*
X2035Y18719D01*
X2069Y18752D01*
X2087Y18796D01*
Y18843D01*
X2069Y18886D01*
X2035Y18919D01*
X2008Y18930D01*
Y18983D01*
X2035Y18995D01*
X2069Y19028D01*
X2087Y19071D01*
Y19118D01*
X2069Y19162D01*
X2035Y19195D01*
X1992Y19213D01*
D02*
G37*
G36*
X50254Y19234D02*
X50207D01*
X50163Y19216D01*
X50130Y19183D01*
X50112Y19140D01*
Y19093D01*
X50130Y19049D01*
X50163Y19016D01*
X50207Y18998D01*
X50254D01*
X50297Y19016D01*
X50330Y19049D01*
X50348Y19093D01*
Y19140D01*
X50330Y19183D01*
X50297Y19216D01*
X50254Y19234D01*
D02*
G37*
G36*
X48042Y19170D02*
X47995D01*
X47951Y19152D01*
X47918Y19119D01*
X47900Y19075D01*
Y19028D01*
X47918Y18985D01*
X47951Y18952D01*
X47995Y18934D01*
X48042D01*
X48085Y18952D01*
X48118Y18985D01*
X48136Y19028D01*
Y19075D01*
X48118Y19119D01*
X48085Y19152D01*
X48042Y19170D01*
D02*
G37*
G36*
X45549D02*
X45502D01*
X45459Y19152D01*
X45425Y19119D01*
X45407Y19075D01*
Y19028D01*
X45425Y18985D01*
X45459Y18952D01*
X45502Y18934D01*
X45549D01*
X45592Y18952D01*
X45626Y18985D01*
X45644Y19028D01*
Y19075D01*
X45626Y19119D01*
X45592Y19152D01*
X45549Y19170D01*
D02*
G37*
G36*
X25338Y19055D02*
X25291D01*
X25248Y19037D01*
X25215Y19004D01*
X25197Y18961D01*
Y18914D01*
X25215Y18870D01*
X25248Y18837D01*
X25291Y18819D01*
X25338D01*
X25382Y18837D01*
X25415Y18870D01*
X25433Y18914D01*
Y18961D01*
X25415Y19004D01*
X25382Y19037D01*
X25338Y19055D01*
D02*
G37*
G36*
X1401Y23898D02*
X1354D01*
X1311Y23880D01*
X1278Y23846D01*
X1260Y23803D01*
Y23761D01*
X555Y23056D01*
X540Y23033D01*
X535Y23007D01*
Y19096D01*
X540Y19069D01*
X555Y19046D01*
X981Y18621D01*
Y18323D01*
X951Y18293D01*
X933Y18249D01*
Y18202D01*
X951Y18159D01*
X984Y18126D01*
X1028Y18108D01*
X1075D01*
X1118Y18126D01*
X1151Y18159D01*
X1169Y18202D01*
Y18249D01*
X1151Y18293D01*
X1121Y18323D01*
Y18650D01*
X1116Y18677D01*
X1101Y18699D01*
X1094Y18706D01*
X1106Y18765D01*
X1120Y18770D01*
X1153Y18804D01*
X1171Y18847D01*
Y18894D01*
X1153Y18937D01*
X1123Y18967D01*
Y19930D01*
X1151Y19957D01*
X1169Y20001D01*
Y20043D01*
X1270Y20144D01*
X1285Y20167D01*
X1291Y20194D01*
Y21739D01*
X1341Y21760D01*
X1350Y21750D01*
X1394Y21732D01*
X1441D01*
X1484Y21750D01*
X1514Y21780D01*
X2099D01*
X2223Y21657D01*
Y18389D01*
X2228Y18362D01*
X2243Y18340D01*
X2338Y18245D01*
Y18202D01*
X2356Y18159D01*
X2390Y18126D01*
X2433Y18108D01*
X2480D01*
X2523Y18126D01*
X2557Y18159D01*
X2575Y18202D01*
Y18249D01*
X2557Y18293D01*
X2523Y18326D01*
X2480Y18344D01*
X2438D01*
X2363Y18418D01*
Y18724D01*
X2413Y18757D01*
X2425Y18752D01*
X2472D01*
X2516Y18770D01*
X2549Y18804D01*
X2567Y18847D01*
Y18894D01*
X2549Y18937D01*
X2519Y18967D01*
Y19928D01*
X2549Y19957D01*
X2567Y20001D01*
Y20048D01*
X2549Y20091D01*
X2519Y20121D01*
Y22670D01*
X2514Y22696D01*
X2498Y22719D01*
X2441Y22777D01*
Y22819D01*
X2423Y22862D01*
X2390Y22896D01*
X2346Y22914D01*
X2299D01*
X2256Y22896D01*
X2223Y22862D01*
X2205Y22819D01*
Y22772D01*
X2223Y22729D01*
X2256Y22695D01*
X2299Y22677D01*
X2342D01*
X2378Y22640D01*
Y21770D01*
X2328Y21750D01*
X2178Y21900D01*
X2155Y21915D01*
X2128Y21921D01*
X1514D01*
X1484Y21951D01*
X1441Y21969D01*
X1394D01*
X1350Y21951D01*
X1341Y21941D01*
X1291Y21962D01*
Y22609D01*
X1359Y22677D01*
X1401D01*
X1445Y22695D01*
X1478Y22729D01*
X1496Y22772D01*
Y22819D01*
X1478Y22862D01*
X1445Y22896D01*
X1401Y22914D01*
X1354D01*
X1311Y22896D01*
X1278Y22862D01*
X1260Y22819D01*
Y22777D01*
X1171Y22688D01*
X1156Y22665D01*
X1150Y22638D01*
Y20223D01*
X1070Y20143D01*
X1028D01*
X984Y20125D01*
X951Y20091D01*
X933Y20048D01*
Y20001D01*
X951Y19957D01*
X983Y19926D01*
Y18967D01*
X953Y18937D01*
X947Y18924D01*
X889Y18911D01*
X675Y19125D01*
Y22977D01*
X1359Y23661D01*
X1401D01*
X1445Y23679D01*
X1478Y23713D01*
X1496Y23756D01*
Y23803D01*
X1478Y23846D01*
X1445Y23880D01*
X1401Y23898D01*
D02*
G37*
G36*
X37583Y18898D02*
X37536D01*
X37492Y18880D01*
X37459Y18846D01*
X37441Y18803D01*
Y18756D01*
X37459Y18713D01*
X37492Y18679D01*
X37536Y18661D01*
X37583D01*
X37626Y18679D01*
X37659Y18713D01*
X37677Y18756D01*
Y18803D01*
X37659Y18846D01*
X37626Y18880D01*
X37583Y18898D01*
D02*
G37*
G36*
X38596Y18886D02*
X38549D01*
X38506Y18868D01*
X38473Y18834D01*
X38455Y18791D01*
Y18744D01*
X38473Y18701D01*
X38506Y18667D01*
X38549Y18649D01*
X38596D01*
X38640Y18667D01*
X38673Y18701D01*
X38691Y18744D01*
Y18791D01*
X38673Y18834D01*
X38640Y18868D01*
X38596Y18886D01*
D02*
G37*
G36*
X35596D02*
X35549D01*
X35506Y18868D01*
X35473Y18834D01*
X35455Y18791D01*
Y18744D01*
X35473Y18701D01*
X35506Y18667D01*
X35549Y18649D01*
X35596D01*
X35640Y18667D01*
X35673Y18701D01*
X35691Y18744D01*
Y18791D01*
X35673Y18834D01*
X35640Y18868D01*
X35596Y18886D01*
D02*
G37*
G36*
X32096D02*
X32049D01*
X32006Y18868D01*
X31973Y18834D01*
X31955Y18791D01*
Y18744D01*
X31973Y18701D01*
X32006Y18667D01*
X32049Y18649D01*
X32096D01*
X32140Y18667D01*
X32173Y18701D01*
X32191Y18744D01*
Y18791D01*
X32173Y18834D01*
X32140Y18868D01*
X32096Y18886D01*
D02*
G37*
G36*
X20346D02*
X20299D01*
X20256Y18868D01*
X20223Y18834D01*
X20205Y18791D01*
Y18744D01*
X20223Y18701D01*
X20256Y18667D01*
X20299Y18649D01*
X20346D01*
X20390Y18667D01*
X20423Y18701D01*
X20441Y18744D01*
Y18791D01*
X20423Y18834D01*
X20390Y18868D01*
X20346Y18886D01*
D02*
G37*
G36*
X16846D02*
X16799D01*
X16756Y18868D01*
X16723Y18834D01*
X16705Y18791D01*
Y18744D01*
X16723Y18701D01*
X16756Y18667D01*
X16799Y18649D01*
X16846D01*
X16890Y18667D01*
X16923Y18701D01*
X16941Y18744D01*
Y18791D01*
X16923Y18834D01*
X16890Y18868D01*
X16846Y18886D01*
D02*
G37*
G36*
X36287Y18885D02*
X36240D01*
X36197Y18867D01*
X36164Y18834D01*
X36146Y18791D01*
Y18744D01*
X36164Y18700D01*
X36197Y18667D01*
X36240Y18649D01*
X36287D01*
X36331Y18667D01*
X36364Y18700D01*
X36382Y18744D01*
Y18791D01*
X36364Y18834D01*
X36331Y18867D01*
X36287Y18885D01*
D02*
G37*
G36*
X14226Y18831D02*
X14179D01*
X14136Y18813D01*
X14103Y18780D01*
X14085Y18736D01*
Y18689D01*
X14103Y18646D01*
X14136Y18613D01*
X14179Y18595D01*
X14226D01*
X14270Y18613D01*
X14303Y18646D01*
X14321Y18689D01*
Y18736D01*
X14303Y18780D01*
X14270Y18813D01*
X14226Y18831D01*
D02*
G37*
G36*
X14919Y18630D02*
X14872D01*
X14829Y18612D01*
X14796Y18579D01*
X14778Y18535D01*
Y18488D01*
X14796Y18445D01*
X14829Y18412D01*
X14872Y18394D01*
X14919D01*
X14963Y18412D01*
X14996Y18445D01*
X15014Y18488D01*
Y18535D01*
X14996Y18579D01*
X14963Y18612D01*
X14919Y18630D01*
D02*
G37*
G36*
X11998Y18415D02*
X11951D01*
X11907Y18397D01*
X11874Y18363D01*
X11856Y18320D01*
Y18273D01*
X11874Y18230D01*
X11907Y18196D01*
X11951Y18178D01*
X11998D01*
X12041Y18196D01*
X12074Y18230D01*
X12092Y18273D01*
Y18320D01*
X12074Y18363D01*
X12041Y18397D01*
X11998Y18415D01*
D02*
G37*
G36*
X4945Y18347D02*
X4898D01*
X4854Y18329D01*
X4821Y18295D01*
X4803Y18252D01*
Y18205D01*
X4821Y18162D01*
X4854Y18128D01*
X4898Y18110D01*
X4945D01*
X4988Y18128D01*
X5021Y18162D01*
X5039Y18205D01*
Y18252D01*
X5021Y18295D01*
X4988Y18329D01*
X4945Y18347D01*
D02*
G37*
G36*
X438Y18288D02*
X391D01*
X347Y18270D01*
X314Y18237D01*
X296Y18193D01*
Y18146D01*
X314Y18103D01*
X347Y18070D01*
X391Y18052D01*
X438D01*
X481Y18070D01*
X514Y18103D01*
X532Y18146D01*
Y18193D01*
X514Y18237D01*
X481Y18270D01*
X438Y18288D01*
D02*
G37*
G36*
X15087Y17959D02*
X15040D01*
X14997Y17941D01*
X14963Y17908D01*
X14945Y17865D01*
Y17818D01*
X14963Y17774D01*
X14997Y17741D01*
X15040Y17723D01*
X15087D01*
X15130Y17741D01*
X15164Y17774D01*
X15182Y17818D01*
Y17865D01*
X15164Y17908D01*
X15130Y17941D01*
X15087Y17959D01*
D02*
G37*
G36*
X10575Y17717D02*
X10528D01*
X10484Y17699D01*
X10464Y17678D01*
X10433Y17670D01*
X10402Y17678D01*
X10382Y17699D01*
X10338Y17717D01*
X10291D01*
X10248Y17699D01*
X10215Y17665D01*
X10197Y17622D01*
Y17575D01*
X10215Y17532D01*
X10248Y17498D01*
X10291Y17480D01*
X10338D01*
X10382Y17498D01*
X10402Y17519D01*
X10433Y17527D01*
X10464Y17519D01*
X10484Y17498D01*
X10528Y17480D01*
X10575D01*
X10618Y17498D01*
X10651Y17532D01*
X10669Y17575D01*
Y17622D01*
X10651Y17665D01*
X10618Y17699D01*
X10575Y17717D01*
D02*
G37*
G36*
X6513Y17731D02*
X6466D01*
X6423Y17713D01*
X6389Y17679D01*
X6371Y17636D01*
Y17589D01*
X6389Y17546D01*
X6423Y17512D01*
X6466Y17494D01*
X6513D01*
X6556Y17512D01*
X6590Y17546D01*
X6608Y17589D01*
Y17636D01*
X6590Y17679D01*
X6556Y17713D01*
X6513Y17731D01*
D02*
G37*
G36*
X10575Y17402D02*
X10528D01*
X10484Y17384D01*
X10464Y17363D01*
X10433Y17355D01*
X10402Y17363D01*
X10382Y17384D01*
X10338Y17402D01*
X10291D01*
X10248Y17384D01*
X10215Y17350D01*
X10197Y17307D01*
Y17260D01*
X10215Y17217D01*
X10248Y17183D01*
X10291Y17165D01*
X10338D01*
X10382Y17183D01*
X10402Y17204D01*
X10433Y17212D01*
X10464Y17204D01*
X10484Y17183D01*
X10528Y17165D01*
X10575D01*
X10618Y17183D01*
X10651Y17217D01*
X10669Y17260D01*
Y17307D01*
X10651Y17350D01*
X10618Y17384D01*
X10575Y17402D01*
D02*
G37*
G36*
X12444Y17564D02*
X12397D01*
X12353Y17546D01*
X12320Y17513D01*
X12302Y17470D01*
Y17423D01*
X12320Y17379D01*
X12353Y17346D01*
X12397Y17328D01*
X12444D01*
X12487Y17346D01*
X12520Y17379D01*
X12538Y17423D01*
Y17470D01*
X12520Y17513D01*
X12487Y17546D01*
X12444Y17564D01*
D02*
G37*
G36*
X4977Y17663D02*
X4930D01*
X4886Y17645D01*
X4853Y17612D01*
X4835Y17568D01*
Y17521D01*
X4853Y17478D01*
X4886Y17445D01*
X4896Y17441D01*
Y17387D01*
X4886Y17383D01*
X4853Y17349D01*
X4835Y17306D01*
Y17259D01*
X4853Y17216D01*
X4886Y17182D01*
X4930Y17164D01*
X4977D01*
X5020Y17182D01*
X5053Y17216D01*
X5071Y17259D01*
Y17306D01*
X5053Y17349D01*
X5020Y17383D01*
X5011Y17387D01*
Y17441D01*
X5020Y17445D01*
X5053Y17478D01*
X5071Y17521D01*
Y17568D01*
X5053Y17612D01*
X5020Y17645D01*
X4977Y17663D01*
D02*
G37*
G36*
X2931Y17424D02*
X2498D01*
X2414Y17407D01*
X2342Y17359D01*
X2294Y17287D01*
X2277Y17203D01*
X2294Y17118D01*
X2342Y17047D01*
X2414Y16999D01*
X2498Y16982D01*
X2931D01*
X3016Y16999D01*
X3087Y17047D01*
X3135Y17118D01*
X3152Y17203D01*
X3135Y17287D01*
X3087Y17359D01*
X3016Y17407D01*
X2931Y17424D01*
D02*
G37*
G36*
X1226D02*
X911D01*
X827Y17407D01*
X755Y17359D01*
X707Y17287D01*
X691Y17203D01*
X707Y17118D01*
X755Y17047D01*
X827Y16999D01*
X911Y16982D01*
X1226D01*
X1311Y16999D01*
X1382Y17047D01*
X1430Y17118D01*
X1447Y17203D01*
X1430Y17287D01*
X1382Y17359D01*
X1311Y17407D01*
X1226Y17424D01*
D02*
G37*
G36*
X2565Y16835D02*
X2486D01*
X2414Y16805D01*
X2359Y16749D01*
X2329Y16677D01*
Y16599D01*
X2359Y16526D01*
X2414Y16471D01*
X2486Y16441D01*
X2565D01*
X2637Y16471D01*
X2692Y16526D01*
X2722Y16599D01*
Y16677D01*
X2692Y16749D01*
X2637Y16805D01*
X2565Y16835D01*
D02*
G37*
G36*
X3449Y16547D02*
X3402D01*
X3358Y16529D01*
X3325Y16496D01*
X3307Y16452D01*
Y16405D01*
X3325Y16362D01*
X3358Y16329D01*
X3402Y16311D01*
X3449D01*
X3492Y16329D01*
X3525Y16362D01*
X3543Y16405D01*
Y16452D01*
X3525Y16496D01*
X3492Y16529D01*
X3449Y16547D01*
D02*
G37*
G36*
X6520Y16142D02*
X6473D01*
X6429Y16124D01*
X6396Y16091D01*
X6378Y16047D01*
Y16000D01*
X6396Y15957D01*
X6429Y15923D01*
X6473Y15906D01*
X6520D01*
X6563Y15923D01*
X6596Y15957D01*
X6614Y16000D01*
Y16047D01*
X6596Y16091D01*
X6563Y16124D01*
X6520Y16142D01*
D02*
G37*
G36*
X2593Y16110D02*
X2546D01*
X2503Y16092D01*
X2470Y16059D01*
X2452Y16016D01*
Y15969D01*
X2470Y15925D01*
X2503Y15892D01*
X2546Y15874D01*
X2593D01*
X2637Y15892D01*
X2670Y15925D01*
X2688Y15969D01*
Y16016D01*
X2670Y16059D01*
X2637Y16092D01*
X2593Y16110D01*
D02*
G37*
G36*
X3381Y15618D02*
X3334D01*
X3290Y15600D01*
X3257Y15567D01*
X3239Y15524D01*
Y15477D01*
X3257Y15433D01*
X3290Y15400D01*
X3334Y15382D01*
X3381D01*
X3424Y15400D01*
X3457Y15433D01*
X3475Y15477D01*
Y15524D01*
X3457Y15567D01*
X3424Y15600D01*
X3381Y15618D01*
D02*
G37*
G36*
X5059Y15697D02*
X5020D01*
X4984Y15682D01*
X4956Y15654D01*
X4941Y15618D01*
Y15579D01*
X4956Y15542D01*
X4966Y15532D01*
X4978Y15500D01*
X4966Y15468D01*
X4956Y15458D01*
X4941Y15421D01*
Y15382D01*
X4956Y15346D01*
X4984Y15318D01*
X5020Y15303D01*
X5059D01*
X5095Y15318D01*
X5123Y15346D01*
X5138Y15382D01*
Y15421D01*
X5123Y15458D01*
X5113Y15468D01*
X5101Y15500D01*
X5113Y15532D01*
X5123Y15542D01*
X5138Y15579D01*
Y15618D01*
X5123Y15654D01*
X5095Y15682D01*
X5059Y15697D01*
D02*
G37*
G36*
X48317Y15511D02*
X48270D01*
X48227Y15493D01*
X48194Y15460D01*
X48176Y15417D01*
Y15370D01*
X48194Y15326D01*
X48227Y15293D01*
X48270Y15275D01*
X48317D01*
X48361Y15293D01*
X48394Y15326D01*
X48412Y15370D01*
Y15417D01*
X48394Y15460D01*
X48361Y15493D01*
X48317Y15511D01*
D02*
G37*
G36*
X2966Y15894D02*
X2927D01*
X2891Y15879D01*
X2863Y15851D01*
X2848Y15815D01*
Y15776D01*
X2863Y15740D01*
X2880Y15700D01*
X2860Y15678D01*
X2847Y15665D01*
X2829Y15622D01*
Y15575D01*
X2847Y15532D01*
X2879Y15500D01*
X2846Y15468D01*
X2828Y15425D01*
Y15378D01*
X2846Y15335D01*
X2859Y15322D01*
X2879Y15301D01*
X2861Y15255D01*
X2848Y15225D01*
Y15186D01*
X2863Y15149D01*
X2891Y15122D01*
X2927Y15107D01*
X2966D01*
X3003Y15122D01*
X3030Y15149D01*
X3045Y15186D01*
Y15225D01*
X3030Y15261D01*
X3014Y15300D01*
X3034Y15322D01*
X3047Y15335D01*
X3065Y15378D01*
Y15425D01*
X3047Y15468D01*
X3015Y15500D01*
X3048Y15532D01*
X3066Y15575D01*
Y15622D01*
X3048Y15665D01*
X3035Y15679D01*
X3015Y15699D01*
X3033Y15745D01*
X3045Y15776D01*
Y15815D01*
X3030Y15851D01*
X3003Y15879D01*
X2966Y15894D01*
D02*
G37*
G36*
X5299Y15276D02*
X5252D01*
X5209Y15258D01*
X5175Y15225D01*
X5157Y15181D01*
Y15134D01*
X5175Y15091D01*
X5209Y15057D01*
X5252Y15040D01*
X5299D01*
X5343Y15057D01*
X5376Y15091D01*
X5394Y15134D01*
Y15181D01*
X5376Y15225D01*
X5343Y15258D01*
X5299Y15276D01*
D02*
G37*
G36*
X28346Y15226D02*
X28299D01*
X28256Y15208D01*
X28223Y15175D01*
X28205Y15131D01*
Y15084D01*
X28223Y15041D01*
X28256Y15008D01*
X28299Y14990D01*
X28346D01*
X28390Y15008D01*
X28423Y15041D01*
X28441Y15084D01*
Y15131D01*
X28423Y15175D01*
X28390Y15208D01*
X28346Y15226D01*
D02*
G37*
G36*
X41596D02*
X41549D01*
X41506Y15208D01*
X41473Y15175D01*
X41455Y15131D01*
Y15084D01*
X41473Y15041D01*
X41506Y15008D01*
X41549Y14990D01*
X41596D01*
X41640Y15008D01*
X41658Y15026D01*
X41700Y14997D01*
X41697Y14991D01*
Y14944D01*
X41715Y14900D01*
X41749Y14867D01*
X41792Y14849D01*
X41839D01*
X41882Y14867D01*
X41916Y14900D01*
X41934Y14944D01*
Y14991D01*
X41916Y15034D01*
X41882Y15068D01*
X41839Y15086D01*
X41792D01*
X41749Y15068D01*
X41731Y15050D01*
X41688Y15078D01*
X41691Y15084D01*
Y15131D01*
X41673Y15175D01*
X41640Y15208D01*
X41596Y15226D01*
D02*
G37*
G36*
X40596Y14944D02*
X40549D01*
X40506Y14926D01*
X40473Y14893D01*
X40455Y14850D01*
Y14803D01*
X40473Y14759D01*
X40506Y14726D01*
X40549Y14708D01*
X40596D01*
X40640Y14726D01*
X40673Y14759D01*
X40691Y14803D01*
Y14850D01*
X40673Y14893D01*
X40640Y14926D01*
X40596Y14944D01*
D02*
G37*
G36*
X39596Y14806D02*
X39549D01*
X39505Y14788D01*
X39472Y14754D01*
X39454Y14711D01*
Y14664D01*
X39472Y14621D01*
X39505Y14587D01*
X39543Y14572D01*
X39546Y14542D01*
X39544Y14522D01*
X39517Y14511D01*
X39489Y14483D01*
X39474Y14447D01*
Y14408D01*
X39477Y14401D01*
X39444Y14351D01*
X36701D01*
X36669Y14401D01*
X36671Y14408D01*
Y14447D01*
X36656Y14483D01*
X36629Y14511D01*
X36592Y14526D01*
X36553D01*
X36517Y14511D01*
X36489Y14483D01*
X36474Y14447D01*
Y14408D01*
X36477Y14401D01*
X36444Y14351D01*
X21611D01*
X21566Y14332D01*
X21331Y14098D01*
X21304D01*
X21268Y14083D01*
X21240Y14055D01*
X21225Y14019D01*
Y13980D01*
X21240Y13944D01*
X21268Y13916D01*
X21304Y13901D01*
X21343D01*
X21379Y13916D01*
X21407Y13944D01*
X21422Y13980D01*
Y14008D01*
X21637Y14223D01*
X28517D01*
X28554Y14182D01*
Y14142D01*
X28569Y14106D01*
X28597Y14079D01*
X28633Y14064D01*
X28672D01*
X28708Y14079D01*
X28728Y14098D01*
X37461D01*
X37474Y14078D01*
X37486Y14048D01*
X37474Y14020D01*
Y13980D01*
X37489Y13944D01*
X37517Y13917D01*
X37553Y13902D01*
X37592D01*
X37629Y13917D01*
X37656Y13944D01*
X37671Y13980D01*
Y14020D01*
X37659Y14048D01*
X37671Y14078D01*
X37685Y14098D01*
X38461D01*
X38474Y14078D01*
X38486Y14048D01*
X38474Y14020D01*
Y13980D01*
X38489Y13944D01*
X38517Y13917D01*
X38553Y13902D01*
X38592D01*
X38629Y13917D01*
X38656Y13944D01*
X38671Y13980D01*
Y14020D01*
X38659Y14048D01*
X38672Y14078D01*
X38685Y14098D01*
X40069D01*
X40114Y14117D01*
X40259Y14262D01*
X47369D01*
X47389Y14242D01*
X47425Y14227D01*
X47464D01*
X47501Y14242D01*
X47528Y14270D01*
X47543Y14306D01*
Y14345D01*
X47528Y14381D01*
X47501Y14409D01*
X47464Y14424D01*
X47454D01*
X47423Y14429D01*
X47408Y14470D01*
Y14471D01*
X47393Y14507D01*
X47365Y14534D01*
X47329Y14549D01*
X47290D01*
X47254Y14534D01*
X47234Y14515D01*
X40181D01*
X40135Y14496D01*
X39990Y14351D01*
X39701D01*
X39669Y14401D01*
X39671Y14408D01*
Y14447D01*
X39656Y14483D01*
X39629Y14511D01*
X39602Y14522D01*
X39599Y14540D01*
X39601Y14571D01*
X39602Y14572D01*
X39639Y14587D01*
X39672Y14621D01*
X39690Y14664D01*
Y14711D01*
X39672Y14754D01*
X39639Y14788D01*
X39596Y14806D01*
D02*
G37*
G36*
X3911Y14469D02*
X3864D01*
X3821Y14451D01*
X3788Y14417D01*
X3770Y14374D01*
Y14327D01*
X3788Y14284D01*
X3821Y14250D01*
X3864Y14232D01*
X3911D01*
X3955Y14250D01*
X3988Y14284D01*
X4006Y14327D01*
Y14374D01*
X3988Y14417D01*
X3955Y14451D01*
X3911Y14469D01*
D02*
G37*
G36*
X2565Y14559D02*
X2486D01*
X2414Y14529D01*
X2359Y14474D01*
X2329Y14402D01*
Y14323D01*
X2359Y14251D01*
X2414Y14195D01*
X2486Y14166D01*
X2565D01*
X2637Y14195D01*
X2692Y14251D01*
X2722Y14323D01*
Y14402D01*
X2692Y14474D01*
X2637Y14529D01*
X2565Y14559D01*
D02*
G37*
G36*
X24342Y14098D02*
X24303D01*
X24267Y14083D01*
X24239Y14056D01*
X24224Y14020D01*
Y13980D01*
X24239Y13944D01*
X24267Y13917D01*
X24303Y13902D01*
X24342D01*
X24379Y13917D01*
X24406Y13944D01*
X24421Y13980D01*
Y14020D01*
X24406Y14056D01*
X24379Y14083D01*
X24342Y14098D01*
D02*
G37*
G36*
X23342D02*
X23303D01*
X23267Y14083D01*
X23239Y14056D01*
X23224Y14020D01*
Y13980D01*
X23239Y13944D01*
X23267Y13917D01*
X23303Y13902D01*
X23342D01*
X23379Y13917D01*
X23406Y13944D01*
X23421Y13980D01*
Y14020D01*
X23406Y14056D01*
X23379Y14083D01*
X23342Y14098D01*
D02*
G37*
G36*
X22342D02*
X22303D01*
X22267Y14083D01*
X22239Y14056D01*
X22224Y14020D01*
Y13980D01*
X22239Y13944D01*
X22267Y13917D01*
X22303Y13902D01*
X22342D01*
X22379Y13917D01*
X22406Y13944D01*
X22421Y13980D01*
Y14020D01*
X22406Y14056D01*
X22379Y14083D01*
X22342Y14098D01*
D02*
G37*
G36*
X41118Y14054D02*
X41071D01*
X41027Y14036D01*
X40994Y14003D01*
X40976Y13959D01*
Y13912D01*
X40994Y13869D01*
X41027Y13836D01*
X41071Y13818D01*
X41118D01*
X41161Y13836D01*
X41194Y13869D01*
X41212Y13912D01*
Y13959D01*
X41194Y14003D01*
X41161Y14036D01*
X41118Y14054D01*
D02*
G37*
G36*
X35596Y13886D02*
X35549D01*
X35506Y13868D01*
X35473Y13834D01*
X35455Y13791D01*
Y13744D01*
X35473Y13701D01*
X35506Y13667D01*
X35549Y13649D01*
X35596D01*
X35640Y13667D01*
X35673Y13701D01*
X35691Y13744D01*
Y13791D01*
X35673Y13834D01*
X35640Y13868D01*
X35596Y13886D01*
D02*
G37*
G36*
X32096D02*
X32049D01*
X32006Y13868D01*
X31973Y13834D01*
X31955Y13791D01*
Y13744D01*
X31973Y13701D01*
X32006Y13667D01*
X32049Y13649D01*
X32096D01*
X32140Y13667D01*
X32173Y13701D01*
X32191Y13744D01*
Y13791D01*
X32173Y13834D01*
X32140Y13868D01*
X32096Y13886D01*
D02*
G37*
G36*
X20346D02*
X20299D01*
X20256Y13868D01*
X20223Y13834D01*
X20205Y13791D01*
Y13744D01*
X20223Y13701D01*
X20256Y13667D01*
X20299Y13649D01*
X20346D01*
X20390Y13667D01*
X20423Y13701D01*
X20441Y13744D01*
Y13791D01*
X20423Y13834D01*
X20390Y13868D01*
X20346Y13886D01*
D02*
G37*
G36*
X16846D02*
X16799D01*
X16756Y13868D01*
X16723Y13834D01*
X16705Y13791D01*
Y13744D01*
X16723Y13701D01*
X16756Y13667D01*
X16799Y13649D01*
X16846D01*
X16890Y13667D01*
X16923Y13701D01*
X16941Y13744D01*
Y13791D01*
X16923Y13834D01*
X16890Y13868D01*
X16846Y13886D01*
D02*
G37*
G36*
X2931Y14018D02*
X2498D01*
X2414Y14001D01*
X2342Y13954D01*
X2294Y13882D01*
X2277Y13797D01*
X2294Y13713D01*
X2342Y13641D01*
X2414Y13593D01*
X2498Y13577D01*
X2931D01*
X3016Y13593D01*
X3087Y13641D01*
X3135Y13713D01*
X3152Y13797D01*
X3135Y13882D01*
X3087Y13954D01*
X3016Y14001D01*
X2931Y14018D01*
D02*
G37*
G36*
X1226D02*
X911D01*
X827Y14001D01*
X755Y13954D01*
X707Y13882D01*
X691Y13797D01*
X707Y13713D01*
X755Y13641D01*
X827Y13593D01*
X911Y13577D01*
X1226D01*
X1311Y13593D01*
X1382Y13641D01*
X1430Y13713D01*
X1447Y13797D01*
X1430Y13882D01*
X1382Y13954D01*
X1311Y14001D01*
X1226Y14018D01*
D02*
G37*
G36*
X28346Y13226D02*
X28299D01*
X28256Y13208D01*
X28223Y13175D01*
X28205Y13131D01*
Y13084D01*
X28223Y13041D01*
X28256Y13008D01*
X28299Y12990D01*
X28346D01*
X28390Y13008D01*
X28423Y13041D01*
X28441Y13084D01*
Y13131D01*
X28423Y13175D01*
X28390Y13208D01*
X28346Y13226D01*
D02*
G37*
G36*
X27346D02*
X27299D01*
X27256Y13208D01*
X27223Y13175D01*
X27205Y13131D01*
Y13084D01*
X27223Y13041D01*
X27256Y13008D01*
X27299Y12990D01*
X27346D01*
X27390Y13008D01*
X27423Y13041D01*
X27441Y13084D01*
Y13131D01*
X27423Y13175D01*
X27390Y13208D01*
X27346Y13226D01*
D02*
G37*
G36*
X25532Y13048D02*
X25493D01*
X25457Y13033D01*
X25429Y13005D01*
X25414Y12969D01*
Y12930D01*
X25429Y12894D01*
X25457Y12866D01*
X25493Y12851D01*
X25532D01*
X25569Y12866D01*
X25596Y12894D01*
X25611Y12930D01*
Y12969D01*
X25596Y13005D01*
X25569Y13033D01*
X25532Y13048D01*
D02*
G37*
G36*
X25027Y12926D02*
X24980D01*
X24937Y12909D01*
X24904Y12875D01*
X24886Y12832D01*
Y12785D01*
X24904Y12742D01*
X24903Y12740D01*
X24882Y12704D01*
X24877Y12698D01*
X24840D01*
X24804Y12683D01*
X24776Y12655D01*
X24761Y12619D01*
Y12580D01*
X24776Y12544D01*
X24804Y12516D01*
X24840Y12501D01*
X24879D01*
X24915Y12516D01*
X24943Y12544D01*
X24958Y12580D01*
Y12619D01*
X24944Y12651D01*
X24952Y12665D01*
X24977Y12692D01*
X24980Y12690D01*
X25027D01*
X25071Y12708D01*
X25104Y12741D01*
X25122Y12785D01*
Y12832D01*
X25104Y12875D01*
X25071Y12909D01*
X25027Y12926D01*
D02*
G37*
G36*
X7608Y12980D02*
X7561D01*
X7517Y12962D01*
X7484Y12929D01*
X7466Y12886D01*
Y12839D01*
X7484Y12795D01*
X7517Y12762D01*
X7561Y12744D01*
X7577D01*
X7610Y12736D01*
X7624Y12698D01*
Y12686D01*
X7642Y12643D01*
X7675Y12610D01*
X7718Y12592D01*
X7735D01*
X7767Y12586D01*
X7781Y12545D01*
Y12536D01*
X7799Y12493D01*
X7832Y12459D01*
X7876Y12441D01*
X7899D01*
X7930Y12427D01*
X7944Y12396D01*
Y12373D01*
X7962Y12329D01*
X7995Y12296D01*
X8038Y12278D01*
X8085D01*
X8129Y12296D01*
X8162Y12329D01*
X8180Y12373D01*
Y12420D01*
X8162Y12463D01*
X8129Y12496D01*
X8085Y12514D01*
X8062D01*
X8031Y12529D01*
X8017Y12560D01*
Y12583D01*
X7999Y12626D01*
X7966Y12660D01*
X7923Y12678D01*
X7906D01*
X7874Y12684D01*
X7860Y12724D01*
Y12733D01*
X7842Y12777D01*
X7809Y12810D01*
X7765Y12828D01*
X7749D01*
X7716Y12836D01*
X7702Y12874D01*
Y12886D01*
X7684Y12929D01*
X7651Y12962D01*
X7608Y12980D01*
D02*
G37*
G36*
X7031Y12270D02*
X6984D01*
X6940Y12252D01*
X6907Y12219D01*
X6889Y12176D01*
Y12129D01*
X6907Y12085D01*
X6871Y12052D01*
X6871Y12052D01*
X6835Y12067D01*
X6795D01*
X6759Y12052D01*
X6731Y12024D01*
X6717Y11988D01*
Y11949D01*
X6731Y11913D01*
X6759Y11885D01*
X6795Y11870D01*
X6835D01*
X6871Y11885D01*
X6889Y11904D01*
X7711D01*
X8217Y11398D01*
Y11176D01*
X8167Y11142D01*
X8165Y11143D01*
X8126D01*
X8089Y11128D01*
X8062Y11100D01*
X8062Y11100D01*
X8008Y11099D01*
X7980Y11127D01*
X7944Y11142D01*
X7905D01*
X7869Y11127D01*
X7841Y11099D01*
X7787Y11100D01*
X7759Y11128D01*
X7723Y11142D01*
X7684D01*
X7648Y11128D01*
X7620Y11100D01*
X7566Y11099D01*
X7539Y11127D01*
X7503Y11142D01*
X7463D01*
X7427Y11127D01*
X7400Y11099D01*
X7385Y11063D01*
Y11024D01*
X7400Y10988D01*
X7418Y10969D01*
Y8979D01*
X7368Y8946D01*
X7362Y8948D01*
X7323D01*
X7287Y8933D01*
X7259Y8905D01*
X7244Y8869D01*
Y8830D01*
X7259Y8794D01*
X7287Y8766D01*
X7323Y8751D01*
X7323D01*
X7389Y8685D01*
X7434Y8667D01*
X8627D01*
X8672Y8685D01*
X9236Y9250D01*
X9300D01*
X9335Y9214D01*
X9335Y9214D01*
X9335D01*
X9337Y9203D01*
X9293Y9185D01*
X9260Y9152D01*
X9242Y9108D01*
Y9061D01*
X9260Y9018D01*
X9293Y8985D01*
X9337Y8967D01*
X9384D01*
X9427Y8985D01*
X9460Y9018D01*
X9478Y9061D01*
Y9108D01*
X9460Y9152D01*
X9427Y9185D01*
X9384Y9203D01*
X9386Y9214D01*
X9386D01*
X9386Y9214D01*
X9420Y9250D01*
X10189D01*
X10208Y9230D01*
X10244Y9215D01*
X10283D01*
X10320Y9230D01*
X10347Y9258D01*
X10362Y9294D01*
Y9333D01*
X10347Y9369D01*
X10320Y9397D01*
X10283Y9412D01*
X10244D01*
X10208Y9397D01*
X10189Y9378D01*
X9210D01*
X9165Y9359D01*
X8600Y8794D01*
X8251D01*
X8228Y8829D01*
Y8868D01*
X8213Y8904D01*
X8195Y8923D01*
Y10750D01*
X8328Y10883D01*
X8347Y10929D01*
Y11425D01*
X8328Y11471D01*
X7784Y12015D01*
X7738Y12034D01*
X7127D01*
X7106Y12084D01*
X7107Y12085D01*
X7125Y12129D01*
Y12176D01*
X7107Y12219D01*
X7074Y12252D01*
X7031Y12270D01*
D02*
G37*
G36*
X5922Y11690D02*
X5875D01*
X5832Y11672D01*
X5798Y11639D01*
X5780Y11596D01*
Y11549D01*
X5798Y11505D01*
X5832Y11472D01*
X5875Y11454D01*
X5922D01*
X5965Y11472D01*
X5999Y11505D01*
X6017Y11549D01*
Y11596D01*
X5999Y11639D01*
X5965Y11672D01*
X5922Y11690D01*
D02*
G37*
G36*
X9572Y11389D02*
X9525D01*
X9481Y11371D01*
X9448Y11337D01*
X9430Y11294D01*
Y11247D01*
X9448Y11204D01*
X9481Y11170D01*
X9525Y11152D01*
X9572D01*
X9615Y11170D01*
X9648Y11204D01*
X9666Y11247D01*
Y11294D01*
X9648Y11337D01*
X9615Y11371D01*
X9572Y11389D01*
D02*
G37*
G36*
X7134Y11385D02*
X7087D01*
X7044Y11367D01*
X7011Y11334D01*
X6993Y11291D01*
Y11244D01*
X7011Y11200D01*
X7044Y11167D01*
X7087Y11149D01*
X7134D01*
X7178Y11167D01*
X7211Y11200D01*
X7229Y11244D01*
Y11291D01*
X7211Y11334D01*
X7178Y11367D01*
X7134Y11385D01*
D02*
G37*
G36*
X8749Y11278D02*
X8702D01*
X8659Y11260D01*
X8625Y11226D01*
X8607Y11183D01*
Y11136D01*
X8625Y11093D01*
X8659Y11059D01*
X8702Y11041D01*
X8749D01*
X8792Y11059D01*
X8826Y11093D01*
X8844Y11136D01*
Y11183D01*
X8826Y11226D01*
X8792Y11260D01*
X8749Y11278D01*
D02*
G37*
G36*
X2931Y11425D02*
X2498D01*
X2414Y11408D01*
X2342Y11361D01*
X2294Y11289D01*
X2277Y11204D01*
X2294Y11120D01*
X2342Y11048D01*
X2414Y11000D01*
X2498Y10984D01*
X2931D01*
X3016Y11000D01*
X3087Y11048D01*
X3135Y11120D01*
X3152Y11204D01*
X3135Y11289D01*
X3087Y11361D01*
X3016Y11408D01*
X2931Y11425D01*
D02*
G37*
G36*
X1226D02*
X911D01*
X827Y11408D01*
X755Y11361D01*
X707Y11289D01*
X691Y11204D01*
X707Y11120D01*
X755Y11048D01*
X827Y11000D01*
X911Y10984D01*
X1226D01*
X1311Y11000D01*
X1382Y11048D01*
X1430Y11120D01*
X1447Y11204D01*
X1430Y11289D01*
X1382Y11361D01*
X1311Y11408D01*
X1226Y11425D01*
D02*
G37*
G36*
X2565Y10836D02*
X2486D01*
X2414Y10806D01*
X2359Y10751D01*
X2329Y10679D01*
Y10600D01*
X2359Y10528D01*
X2414Y10473D01*
X2486Y10443D01*
X2565D01*
X2637Y10473D01*
X2692Y10528D01*
X2722Y10600D01*
Y10679D01*
X2692Y10751D01*
X2637Y10806D01*
X2565Y10836D01*
D02*
G37*
G36*
X13510Y10316D02*
X13463D01*
X13420Y10298D01*
X13387Y10265D01*
X13369Y10222D01*
Y10175D01*
X13387Y10131D01*
X13420Y10098D01*
X13463Y10080D01*
X13510D01*
X13554Y10098D01*
X13587Y10131D01*
X13605Y10175D01*
Y10222D01*
X13587Y10265D01*
X13554Y10298D01*
X13510Y10316D01*
D02*
G37*
G36*
X2592Y10112D02*
X2545D01*
X2502Y10094D01*
X2469Y10061D01*
X2451Y10017D01*
Y9970D01*
X2469Y9927D01*
X2502Y9894D01*
X2545Y9876D01*
X2592D01*
X2636Y9894D01*
X2669Y9927D01*
X2687Y9970D01*
Y10017D01*
X2669Y10061D01*
X2636Y10094D01*
X2592Y10112D01*
D02*
G37*
G36*
X3854Y9979D02*
X3807D01*
X3764Y9961D01*
X3731Y9927D01*
X3713Y9884D01*
Y9837D01*
X3731Y9794D01*
X3764Y9760D01*
X3807Y9742D01*
X3854D01*
X3898Y9760D01*
X3931Y9794D01*
X3949Y9837D01*
Y9884D01*
X3931Y9927D01*
X3898Y9961D01*
X3854Y9979D01*
D02*
G37*
G36*
X13510Y9944D02*
X13463D01*
X13420Y9926D01*
X13387Y9893D01*
X13369Y9850D01*
Y9803D01*
X13387Y9759D01*
X13420Y9726D01*
X13463Y9708D01*
X13510D01*
X13554Y9726D01*
X13587Y9759D01*
X13605Y9803D01*
Y9850D01*
X13587Y9893D01*
X13554Y9926D01*
X13510Y9944D01*
D02*
G37*
G36*
X9409Y9884D02*
X9362D01*
X9319Y9866D01*
X9285Y9833D01*
X9267Y9790D01*
Y9743D01*
X9285Y9699D01*
X9319Y9666D01*
X9362Y9648D01*
X9409D01*
X9452Y9666D01*
X9486Y9699D01*
X9504Y9743D01*
Y9790D01*
X9486Y9833D01*
X9452Y9866D01*
X9409Y9884D01*
D02*
G37*
G36*
X22342Y9538D02*
X22303D01*
X22267Y9523D01*
X22248Y9503D01*
X15068D01*
X15048Y9523D01*
X15012Y9538D01*
X14973D01*
X14937Y9523D01*
X14909Y9495D01*
X14894Y9459D01*
Y9420D01*
X14909Y9384D01*
X14937Y9356D01*
X14973Y9341D01*
X15012D01*
X15048Y9356D01*
X15068Y9375D01*
X22248D01*
X22267Y9356D01*
X22303Y9341D01*
X22342D01*
X22379Y9356D01*
X22406Y9384D01*
X22421Y9420D01*
Y9459D01*
X22406Y9495D01*
X22379Y9523D01*
X22342Y9538D01*
D02*
G37*
G36*
X3381Y9620D02*
X3334D01*
X3290Y9602D01*
X3257Y9569D01*
X3239Y9525D01*
Y9478D01*
X3257Y9435D01*
X3290Y9402D01*
X3334Y9384D01*
X3381D01*
X3424Y9402D01*
X3457Y9435D01*
X3475Y9478D01*
Y9525D01*
X3457Y9569D01*
X3424Y9602D01*
X3381Y9620D01*
D02*
G37*
G36*
X12334Y9584D02*
X12287D01*
X12244Y9566D01*
X12210Y9533D01*
X12192Y9489D01*
Y9442D01*
X12210Y9399D01*
X12244Y9366D01*
X12287Y9348D01*
X12334D01*
X12377Y9366D01*
X12411Y9399D01*
X12429Y9442D01*
Y9489D01*
X12411Y9533D01*
X12377Y9566D01*
X12334Y9584D01*
D02*
G37*
G36*
X11830D02*
X11783D01*
X11740Y9566D01*
X11706Y9533D01*
X11688Y9489D01*
Y9442D01*
X11706Y9399D01*
X11740Y9366D01*
X11783Y9348D01*
X11830D01*
X11873Y9366D01*
X11907Y9399D01*
X11925Y9442D01*
Y9489D01*
X11907Y9533D01*
X11873Y9566D01*
X11830Y9584D01*
D02*
G37*
G36*
X8685Y9557D02*
X8638D01*
X8595Y9539D01*
X8561Y9506D01*
X8543Y9463D01*
Y9416D01*
X8561Y9372D01*
X8595Y9339D01*
X8638Y9321D01*
X8685D01*
X8728Y9339D01*
X8762Y9372D01*
X8780Y9416D01*
Y9463D01*
X8762Y9506D01*
X8728Y9539D01*
X8685Y9557D01*
D02*
G37*
G36*
X6974Y9373D02*
X6927D01*
X6883Y9355D01*
X6850Y9322D01*
X6832Y9279D01*
Y9232D01*
X6850Y9188D01*
X6883Y9155D01*
X6927Y9137D01*
X6974D01*
X7017Y9155D01*
X7050Y9188D01*
X7068Y9232D01*
Y9279D01*
X7050Y9322D01*
X7017Y9355D01*
X6974Y9373D01*
D02*
G37*
G36*
X2970Y9915D02*
X2923D01*
X2880Y9897D01*
X2847Y9864D01*
X2829Y9820D01*
Y9773D01*
X2847Y9730D01*
X2860Y9717D01*
X2880Y9696D01*
X2861Y9650D01*
X2849Y9620D01*
Y9581D01*
X2864Y9545D01*
X2874Y9534D01*
X2886Y9502D01*
X2874Y9470D01*
X2863Y9459D01*
X2848Y9423D01*
Y9384D01*
X2861Y9353D01*
X2880Y9307D01*
X2860Y9286D01*
X2847Y9273D01*
X2829Y9230D01*
Y9183D01*
X2847Y9139D01*
X2880Y9106D01*
X2923Y9088D01*
X2970D01*
X3014Y9106D01*
X3047Y9139D01*
X3065Y9183D01*
Y9230D01*
X3047Y9273D01*
X3034Y9286D01*
X3014Y9307D01*
X3033Y9353D01*
X3045Y9384D01*
Y9423D01*
X3030Y9459D01*
X3020Y9470D01*
X3008Y9502D01*
X3020Y9534D01*
X3031Y9545D01*
X3046Y9581D01*
Y9620D01*
X3031Y9656D01*
X3014Y9696D01*
X3035Y9718D01*
X3047Y9730D01*
X3065Y9773D01*
Y9820D01*
X3047Y9864D01*
X3014Y9897D01*
X2970Y9915D01*
D02*
G37*
G36*
X12847Y9305D02*
X12800D01*
X12757Y9287D01*
X12724Y9254D01*
X12706Y9210D01*
Y9163D01*
X12724Y9120D01*
X12757Y9087D01*
X12800Y9069D01*
X12847D01*
X12891Y9087D01*
X12924Y9120D01*
X12942Y9163D01*
Y9210D01*
X12924Y9254D01*
X12891Y9287D01*
X12847Y9305D01*
D02*
G37*
G36*
X2583Y9095D02*
X2536D01*
X2492Y9077D01*
X2459Y9043D01*
X2441Y9000D01*
Y8953D01*
X2459Y8910D01*
X2492Y8876D01*
X2536Y8858D01*
X2583D01*
X2626Y8876D01*
X2659Y8910D01*
X2677Y8953D01*
Y9000D01*
X2659Y9043D01*
X2626Y9077D01*
X2583Y9095D01*
D02*
G37*
G36*
X5450Y8954D02*
X5403D01*
X5360Y8936D01*
X5326Y8903D01*
X5308Y8859D01*
Y8812D01*
X5326Y8769D01*
X5360Y8736D01*
X5403Y8718D01*
X5450D01*
X5493Y8736D01*
X5527Y8769D01*
X5545Y8812D01*
Y8859D01*
X5527Y8903D01*
X5493Y8936D01*
X5450Y8954D01*
D02*
G37*
G36*
X9748Y8935D02*
X9701D01*
X9658Y8917D01*
X9625Y8884D01*
X9607Y8840D01*
Y8793D01*
X9625Y8750D01*
X9658Y8717D01*
X9701Y8699D01*
X9748D01*
X9792Y8717D01*
X9825Y8750D01*
X9843Y8793D01*
Y8840D01*
X9825Y8884D01*
X9792Y8917D01*
X9748Y8935D01*
D02*
G37*
G36*
X20346Y8886D02*
X20299D01*
X20256Y8868D01*
X20223Y8834D01*
X20205Y8791D01*
Y8744D01*
X20223Y8701D01*
X20256Y8667D01*
X20299Y8649D01*
X20346D01*
X20390Y8667D01*
X20423Y8701D01*
X20441Y8744D01*
Y8791D01*
X20423Y8834D01*
X20390Y8868D01*
X20346Y8886D01*
D02*
G37*
G36*
X16846D02*
X16799D01*
X16756Y8868D01*
X16723Y8834D01*
X16705Y8791D01*
Y8744D01*
X16723Y8701D01*
X16756Y8667D01*
X16799Y8649D01*
X16846D01*
X16890Y8667D01*
X16923Y8701D01*
X16941Y8744D01*
Y8791D01*
X16923Y8834D01*
X16890Y8868D01*
X16846Y8886D01*
D02*
G37*
G36*
X6461Y9636D02*
X6414D01*
X6370Y9618D01*
X6337Y9585D01*
X6319Y9541D01*
Y9494D01*
X6337Y9451D01*
X6357Y9431D01*
Y9148D01*
X5989Y8780D01*
X5961D01*
X5917Y8762D01*
X5884Y8728D01*
X5866Y8685D01*
Y8638D01*
X5884Y8595D01*
X5917Y8561D01*
X5961Y8543D01*
X6008D01*
X6051Y8561D01*
X6084Y8595D01*
X6102Y8638D01*
Y8666D01*
X6494Y9058D01*
X6494Y9058D01*
X6511Y9084D01*
X6517Y9114D01*
X6517Y9114D01*
Y9431D01*
X6537Y9451D01*
X6555Y9494D01*
Y9541D01*
X6537Y9585D01*
X6504Y9618D01*
X6461Y9636D01*
D02*
G37*
G36*
X26847Y8713D02*
X26800D01*
X26757Y8695D01*
X26724Y8662D01*
X26706Y8618D01*
Y8571D01*
X26724Y8528D01*
X26757Y8495D01*
X26800Y8477D01*
X26847D01*
X26891Y8495D01*
X26924Y8528D01*
X26942Y8571D01*
Y8618D01*
X26924Y8662D01*
X26891Y8695D01*
X26847Y8713D01*
D02*
G37*
G36*
X11283Y9048D02*
X11243D01*
X11207Y9033D01*
X11180Y9005D01*
X11165Y8969D01*
Y8941D01*
X10821Y8597D01*
X9120D01*
X9075Y8579D01*
X8767Y8270D01*
X6464D01*
X6419Y8252D01*
X6248Y8081D01*
X6221D01*
X6184Y8066D01*
X6157Y8038D01*
X6142Y8002D01*
Y7963D01*
X6118Y7928D01*
X5990D01*
X5989Y7930D01*
X5961Y7958D01*
X5925Y7973D01*
X5886D01*
X5850Y7958D01*
X5822Y7930D01*
X5807Y7894D01*
Y7855D01*
X5822Y7818D01*
X5850Y7791D01*
X5886Y7776D01*
X5925D01*
X5961Y7791D01*
X5971Y7800D01*
X6030D01*
X6049Y7754D01*
X5835Y7540D01*
X5807D01*
X5771Y7525D01*
X5743Y7497D01*
X5728Y7461D01*
Y7422D01*
X5743Y7385D01*
X5771Y7358D01*
X5800Y7346D01*
X5807Y7318D01*
X5807Y7293D01*
X5776Y7262D01*
X5758Y7219D01*
Y7172D01*
X5776Y7128D01*
X5809Y7095D01*
X5852Y7077D01*
X5899D01*
X5943Y7095D01*
X5976Y7128D01*
X5994Y7172D01*
Y7219D01*
X5976Y7262D01*
X5943Y7295D01*
X5902Y7312D01*
X5892Y7335D01*
X5888Y7363D01*
X5910Y7385D01*
X5925Y7422D01*
Y7449D01*
X6191Y7715D01*
X6290D01*
X6309Y7669D01*
X6248Y7608D01*
X6221D01*
X6184Y7593D01*
X6157Y7566D01*
X6142Y7530D01*
Y7490D01*
X6157Y7454D01*
X6184Y7427D01*
X6221Y7412D01*
X6260D01*
X6296Y7427D01*
X6324Y7454D01*
X6339Y7490D01*
Y7518D01*
X6505Y7685D01*
X8704D01*
X8749Y7703D01*
X9274Y8228D01*
X11188D01*
X11207Y8209D01*
X11243Y8194D01*
X11283D01*
X11319Y8209D01*
X11346Y8237D01*
X11361Y8273D01*
Y8312D01*
X11346Y8348D01*
X11319Y8376D01*
Y8427D01*
X11346Y8455D01*
X11361Y8491D01*
Y8530D01*
X11346Y8566D01*
X11319Y8594D01*
Y8647D01*
X11346Y8674D01*
X11361Y8710D01*
Y8750D01*
X11346Y8786D01*
X11319Y8813D01*
Y8866D01*
X11346Y8894D01*
X11361Y8930D01*
Y8969D01*
X11346Y9005D01*
X11319Y9033D01*
X11283Y9048D01*
D02*
G37*
G36*
X2565Y8561D02*
X2486D01*
X2414Y8531D01*
X2359Y8475D01*
X2329Y8403D01*
Y8325D01*
X2359Y8252D01*
X2414Y8197D01*
X2486Y8167D01*
X2565D01*
X2637Y8197D01*
X2692Y8252D01*
X2722Y8325D01*
Y8403D01*
X2692Y8475D01*
X2637Y8531D01*
X2565Y8561D01*
D02*
G37*
G36*
X9303Y7872D02*
X9256D01*
X9213Y7854D01*
X9179Y7821D01*
X9161Y7777D01*
Y7730D01*
X9179Y7687D01*
X9213Y7654D01*
X9256Y7636D01*
X9303D01*
X9346Y7654D01*
X9380Y7687D01*
X9398Y7730D01*
Y7777D01*
X9380Y7821D01*
X9346Y7854D01*
X9303Y7872D01*
D02*
G37*
G36*
X4894Y7864D02*
X4847D01*
X4804Y7846D01*
X4771Y7813D01*
X4753Y7770D01*
Y7723D01*
X4771Y7679D01*
X4804Y7646D01*
X4847Y7628D01*
X4894D01*
X4938Y7646D01*
X4971Y7679D01*
X4989Y7723D01*
Y7770D01*
X4971Y7813D01*
X4938Y7846D01*
X4894Y7864D01*
D02*
G37*
G36*
X2931Y8020D02*
X2498D01*
X2414Y8003D01*
X2342Y7955D01*
X2294Y7883D01*
X2277Y7799D01*
X2294Y7714D01*
X2342Y7643D01*
X2414Y7595D01*
X2498Y7578D01*
X2931D01*
X3016Y7595D01*
X3087Y7643D01*
X3135Y7714D01*
X3152Y7799D01*
X3135Y7883D01*
X3087Y7955D01*
X3016Y8003D01*
X2931Y8020D01*
D02*
G37*
G36*
X1226D02*
X911D01*
X827Y8003D01*
X755Y7955D01*
X707Y7883D01*
X691Y7799D01*
X707Y7714D01*
X755Y7643D01*
X827Y7595D01*
X911Y7578D01*
X1226D01*
X1311Y7595D01*
X1382Y7643D01*
X1430Y7714D01*
X1447Y7799D01*
X1430Y7883D01*
X1382Y7955D01*
X1311Y8003D01*
X1226Y8020D01*
D02*
G37*
G36*
X13443Y8747D02*
X13404D01*
X13367Y8732D01*
X13340Y8704D01*
X13325Y8668D01*
Y8629D01*
X13340Y8593D01*
X13367Y8565D01*
X13404Y8550D01*
X13443D01*
X13479Y8565D01*
X13498Y8585D01*
X14121D01*
X14150Y8535D01*
X14142Y8515D01*
Y8468D01*
X14160Y8424D01*
X14193Y8391D01*
X14237Y8373D01*
X14284D01*
X14287Y8374D01*
X15131Y7529D01*
X15177Y7511D01*
X36314D01*
X36940Y6884D01*
X36985Y6865D01*
X50812D01*
X50871Y6806D01*
X50916Y6788D01*
X52004D01*
X52049Y6806D01*
X52074Y6831D01*
X52101D01*
X52137Y6846D01*
X52165Y6874D01*
X52180Y6910D01*
Y6949D01*
X52165Y6985D01*
X52137Y7013D01*
X52101Y7028D01*
X52062D01*
X52026Y7013D01*
X51998Y6985D01*
X51983Y6949D01*
Y6921D01*
X51978Y6916D01*
X51659D01*
X51643Y6944D01*
X51635Y6966D01*
X51649Y6998D01*
Y7037D01*
X51659Y7050D01*
X51686Y7076D01*
X51718D01*
X51754Y7091D01*
X51782Y7119D01*
X51797Y7155D01*
Y7194D01*
X51782Y7230D01*
X51754Y7258D01*
X51718Y7273D01*
X51679D01*
X51643Y7258D01*
X51633Y7249D01*
X36983D01*
X36802Y7429D01*
X36822Y7475D01*
X48812D01*
X48831Y7456D01*
X48867Y7441D01*
X48906D01*
X48942Y7456D01*
X48970Y7484D01*
X48985Y7520D01*
Y7559D01*
X48970Y7595D01*
X48942Y7623D01*
X48906Y7638D01*
X48867D01*
X48831Y7623D01*
X48811Y7603D01*
X48469D01*
X48433Y7646D01*
Y7685D01*
X48418Y7721D01*
X48391Y7749D01*
X48354Y7764D01*
X48315D01*
X48279Y7749D01*
X48260Y7730D01*
X36744D01*
X36406Y8067D01*
X36361Y8086D01*
X23893D01*
X23841Y8138D01*
Y8166D01*
X23826Y8202D01*
X23799Y8229D01*
X23763Y8244D01*
X23723D01*
X23687Y8229D01*
X23660Y8202D01*
X23645Y8166D01*
Y8126D01*
X23660Y8090D01*
X23687Y8063D01*
X23716Y8051D01*
X23720Y8042D01*
X23726Y8023D01*
X23728Y7998D01*
X23711Y7980D01*
X23696Y7944D01*
Y7905D01*
X23711Y7869D01*
X23723Y7856D01*
X23703Y7806D01*
X15422D01*
X15160Y8067D01*
Y8095D01*
X15145Y8131D01*
X15117Y8159D01*
X15081Y8174D01*
X15042D01*
X15006Y8159D01*
X14978Y8131D01*
X14925Y8132D01*
X14363Y8694D01*
X14318Y8713D01*
X13498D01*
X13479Y8732D01*
X13443Y8747D01*
D02*
G37*
G36*
X12334Y7614D02*
X12287D01*
X12244Y7596D01*
X12210Y7563D01*
X12192Y7519D01*
Y7472D01*
X12210Y7429D01*
X12244Y7396D01*
X12287Y7378D01*
X12334D01*
X12377Y7396D01*
X12411Y7429D01*
X12429Y7472D01*
Y7519D01*
X12411Y7563D01*
X12377Y7596D01*
X12334Y7614D01*
D02*
G37*
G36*
X12994Y9062D02*
X12955D01*
X12919Y9047D01*
X12891Y9019D01*
X12876Y8983D01*
Y8944D01*
X12891Y8908D01*
X12909Y8890D01*
X11288Y7269D01*
X10026D01*
X10005Y7319D01*
X10021Y7335D01*
X10039Y7378D01*
Y7425D01*
X10021Y7469D01*
X9988Y7502D01*
X9945Y7520D01*
X9898D01*
X9854Y7502D01*
X9821Y7469D01*
X9803Y7425D01*
Y7378D01*
X9821Y7335D01*
X9837Y7319D01*
X9816Y7269D01*
X6496D01*
Y7293D01*
X6481Y7330D01*
X6453Y7357D01*
X6417Y7372D01*
X6378D01*
X6342Y7357D01*
X6314Y7330D01*
X6299Y7293D01*
Y7254D01*
X6314Y7218D01*
X6342Y7190D01*
X6378Y7175D01*
X6406D01*
X6421Y7160D01*
X6467Y7141D01*
X9399D01*
X9420Y7091D01*
X9402Y7073D01*
X9396Y7059D01*
X9372Y7028D01*
X9338Y7025D01*
X8567D01*
X8540Y7019D01*
X8517Y7004D01*
X8473Y6960D01*
X8060D01*
X8033Y6954D01*
X8010Y6939D01*
X7813Y6742D01*
X7795D01*
X7759Y6727D01*
X7736Y6704D01*
X7713Y6727D01*
X7677Y6742D01*
X7638D01*
X7602Y6727D01*
X7579Y6704D01*
X7556Y6727D01*
X7520Y6742D01*
X7480D01*
X7444Y6727D01*
X7417Y6700D01*
X7402Y6663D01*
Y6624D01*
X7417Y6588D01*
X7433Y6571D01*
X7435Y6564D01*
X7450Y6541D01*
X7636Y6355D01*
X7659Y6340D01*
X7686Y6335D01*
X8498D01*
X8525Y6340D01*
X8548Y6355D01*
X8580Y6387D01*
X9088D01*
X9250Y6225D01*
X9272Y6210D01*
X9300Y6205D01*
X10649D01*
X10661Y6192D01*
X10698Y6177D01*
X10737D01*
X10773Y6192D01*
X10801Y6220D01*
X10816Y6256D01*
Y6295D01*
X10801Y6331D01*
X10773Y6359D01*
X10737Y6374D01*
X10698D01*
X10661Y6359D01*
X10649Y6346D01*
X9329D01*
X9279Y6396D01*
X9300Y6446D01*
X9318D01*
X9362Y6464D01*
X9395Y6497D01*
X9413Y6541D01*
Y6588D01*
X9395Y6631D01*
X9419Y6678D01*
X11098D01*
X11118Y6628D01*
X10978Y6488D01*
X10959Y6443D01*
Y5703D01*
X10571Y5315D01*
X8126D01*
X8107Y5335D01*
X8071Y5350D01*
X8032D01*
X7995Y5335D01*
X7968Y5307D01*
X7953Y5271D01*
Y5266D01*
X7922Y5227D01*
X7907Y5225D01*
X7882D01*
X7845Y5210D01*
X7818Y5183D01*
X7803Y5147D01*
Y5107D01*
X7765Y5069D01*
X7546D01*
X7526Y5088D01*
X7490Y5103D01*
X7451D01*
X7415Y5088D01*
X7387Y5061D01*
X7372Y5025D01*
Y5002D01*
X7366Y4995D01*
X7333Y4974D01*
X7326Y4972D01*
X7304Y4980D01*
X7265D01*
X7229Y4965D01*
X7201Y4938D01*
X7186Y4902D01*
Y4862D01*
X7201Y4826D01*
X7229Y4799D01*
X7265Y4784D01*
X7304D01*
X7341Y4799D01*
X7360Y4818D01*
X8997D01*
X9031Y4770D01*
Y4731D01*
X8993Y4692D01*
X7678D01*
X7658Y4712D01*
X7622Y4727D01*
X7583D01*
X7547Y4712D01*
X7519Y4684D01*
X7504Y4648D01*
Y4609D01*
X7470Y4560D01*
X7177D01*
X7000Y4737D01*
Y4765D01*
X6985Y4801D01*
X6957Y4829D01*
X6921Y4844D01*
X6882D01*
X6846Y4829D01*
X6818Y4801D01*
X6818Y4800D01*
X6759Y4789D01*
X6713Y4835D01*
Y4862D01*
X6698Y4898D01*
X6670Y4926D01*
X6634Y4941D01*
X6595D01*
X6558Y4926D01*
X6531Y4898D01*
X6516Y4862D01*
Y4823D01*
X6531Y4787D01*
X6558Y4759D01*
X6595Y4744D01*
X6622D01*
X7000Y4367D01*
X7045Y4348D01*
X11498D01*
X11518Y4328D01*
X11554Y4313D01*
X11593D01*
X11629Y4328D01*
X11657Y4356D01*
X11672Y4392D01*
Y4431D01*
X11657Y4467D01*
X11634Y4490D01*
X11657Y4513D01*
X11672Y4550D01*
Y4589D01*
X11657Y4625D01*
X11634Y4648D01*
X11657Y4671D01*
X11672Y4707D01*
Y4746D01*
X11657Y4782D01*
X11634Y4805D01*
X11657Y4828D01*
X11672Y4865D01*
Y4904D01*
X11657Y4940D01*
X11629Y4968D01*
X11593Y4983D01*
X11554D01*
X11518Y4968D01*
X11490Y4940D01*
X11475Y4904D01*
Y4900D01*
X11390Y4815D01*
X10668D01*
X10647Y4865D01*
X11327Y5544D01*
X11346Y5590D01*
Y6314D01*
X11404Y6372D01*
X11498D01*
X11518Y6352D01*
X11554Y6337D01*
X11593D01*
X11629Y6352D01*
X11657Y6380D01*
X11672Y6416D01*
Y6455D01*
X11657Y6491D01*
X11634Y6514D01*
X11657Y6537D01*
X11672Y6574D01*
Y6613D01*
X11657Y6649D01*
X11634Y6672D01*
X11657Y6695D01*
X11672Y6731D01*
Y6770D01*
X11657Y6806D01*
X11634Y6829D01*
X11657Y6852D01*
X11672Y6888D01*
Y6928D01*
X11657Y6964D01*
X11656Y6965D01*
X11677Y7015D01*
X11990D01*
X12003Y7002D01*
X12039Y6987D01*
X12078D01*
X12114Y7002D01*
X12142Y7029D01*
X12157Y7066D01*
Y7105D01*
X12193Y7149D01*
X12604D01*
X12631Y7154D01*
X12654Y7170D01*
X12659Y7174D01*
X12716Y7161D01*
X12723Y7144D01*
X12756Y7110D01*
X12799Y7092D01*
X12846D01*
X12890Y7110D01*
X12923Y7144D01*
X12941Y7187D01*
Y7234D01*
X12923Y7277D01*
X12890Y7311D01*
X12884Y7364D01*
X12906Y7390D01*
X13531D01*
X13558Y7395D01*
X13581Y7411D01*
X13700Y7529D01*
X13718D01*
X13754Y7544D01*
X13782Y7572D01*
X13797Y7608D01*
Y7647D01*
X13782Y7684D01*
X13754Y7711D01*
X13750Y7713D01*
Y7767D01*
X13754Y7769D01*
X13782Y7796D01*
X13797Y7833D01*
Y7872D01*
X13782Y7908D01*
X13754Y7936D01*
X13718Y7951D01*
X13679D01*
X13642Y7936D01*
X13630Y7923D01*
X12891D01*
X12879Y7936D01*
X12843Y7951D01*
X12803D01*
X12767Y7936D01*
X12739Y7908D01*
X12725Y7872D01*
Y7833D01*
X12739Y7796D01*
X12767Y7769D01*
X12803Y7754D01*
X12843D01*
X12879Y7769D01*
X12891Y7781D01*
X13275D01*
X13285Y7731D01*
X13266Y7724D01*
X13233Y7691D01*
X13215Y7647D01*
Y7600D01*
X13223Y7581D01*
X13193Y7531D01*
X12845D01*
X12818Y7526D01*
X12795Y7511D01*
X12575Y7290D01*
X11561D01*
X11540Y7340D01*
X11646Y7446D01*
X11705Y7434D01*
X11706Y7430D01*
X11740Y7397D01*
X11783Y7379D01*
X11830D01*
X11873Y7397D01*
X11907Y7430D01*
X11925Y7474D01*
Y7521D01*
X11907Y7564D01*
X11884Y7586D01*
X11881Y7640D01*
X11882Y7645D01*
X11885Y7648D01*
X11940Y7640D01*
X11973Y7607D01*
X12017Y7589D01*
X12064D01*
X12107Y7607D01*
X12140Y7640D01*
X12158Y7684D01*
Y7731D01*
X12140Y7774D01*
X12107Y7807D01*
X12086Y7816D01*
X12071Y7871D01*
X13020Y8820D01*
X13039Y8866D01*
Y8888D01*
X13058Y8908D01*
X13073Y8944D01*
Y8983D01*
X13058Y9019D01*
X13031Y9047D01*
X12994Y9062D01*
D02*
G37*
G36*
X14215Y7331D02*
X14168D01*
X14124Y7313D01*
X14091Y7280D01*
X14073Y7237D01*
Y7190D01*
X14091Y7146D01*
X14124Y7113D01*
X14168Y7095D01*
X14215D01*
X14258Y7113D01*
X14291Y7146D01*
X14309Y7190D01*
Y7237D01*
X14291Y7280D01*
X14258Y7313D01*
X14215Y7331D01*
D02*
G37*
G36*
X5275Y7313D02*
X5228D01*
X5185Y7295D01*
X5151Y7262D01*
X5133Y7219D01*
Y7172D01*
X5151Y7128D01*
X5185Y7095D01*
X5228Y7077D01*
X5275D01*
X5318Y7095D01*
X5352Y7128D01*
X5370Y7172D01*
Y7219D01*
X5352Y7262D01*
X5318Y7295D01*
X5275Y7313D01*
D02*
G37*
G36*
X29346Y7138D02*
X29299D01*
X29256Y7120D01*
X29223Y7086D01*
X29205Y7043D01*
Y6996D01*
X29223Y6953D01*
X29256Y6919D01*
X29299Y6901D01*
X29346D01*
X29390Y6919D01*
X29423Y6953D01*
X29441Y6996D01*
Y7043D01*
X29423Y7086D01*
X29390Y7120D01*
X29346Y7138D01*
D02*
G37*
G36*
X13240Y6790D02*
X13193D01*
X13150Y6772D01*
X13117Y6739D01*
X13099Y6695D01*
Y6648D01*
X13117Y6605D01*
X13150Y6572D01*
X13193Y6554D01*
X13240D01*
X13284Y6572D01*
X13317Y6605D01*
X13335Y6648D01*
Y6695D01*
X13317Y6739D01*
X13284Y6772D01*
X13240Y6790D01*
D02*
G37*
G36*
X27339Y6507D02*
X27300D01*
X27264Y6492D01*
X27244Y6473D01*
X24304D01*
X24285Y6492D01*
X24249Y6507D01*
X24209D01*
X24173Y6492D01*
X24146Y6464D01*
X24131Y6428D01*
Y6389D01*
X24146Y6353D01*
X24173Y6325D01*
X24209Y6310D01*
X24249D01*
X24285Y6325D01*
X24304Y6345D01*
X27244D01*
X27264Y6325D01*
X27300Y6310D01*
X27339D01*
X27375Y6325D01*
X27403Y6353D01*
X27418Y6389D01*
Y6428D01*
X27403Y6464D01*
X27375Y6492D01*
X27339Y6507D01*
D02*
G37*
G36*
X14284Y6632D02*
X14237D01*
X14193Y6615D01*
X14160Y6581D01*
X14142Y6538D01*
Y6491D01*
X14160Y6447D01*
X14193Y6414D01*
X14237Y6396D01*
X14284D01*
X14327Y6414D01*
X14360Y6447D01*
X14378Y6491D01*
Y6538D01*
X14360Y6581D01*
X14327Y6615D01*
X14284Y6632D01*
D02*
G37*
G36*
X6799Y6324D02*
X6752D01*
X6708Y6306D01*
X6675Y6273D01*
X6657Y6229D01*
Y6182D01*
X6675Y6139D01*
X6708Y6106D01*
X6752Y6088D01*
X6799D01*
X6842Y6106D01*
X6875Y6139D01*
X6893Y6182D01*
Y6229D01*
X6875Y6273D01*
X6842Y6306D01*
X6799Y6324D01*
D02*
G37*
G36*
X48117Y6316D02*
X48070D01*
X48027Y6298D01*
X47994Y6265D01*
X47976Y6221D01*
Y6174D01*
X47994Y6131D01*
X48027Y6098D01*
X48070Y6080D01*
X48117D01*
X48161Y6098D01*
X48194Y6131D01*
X48212Y6174D01*
Y6221D01*
X48194Y6265D01*
X48161Y6298D01*
X48117Y6316D01*
D02*
G37*
G36*
X6484Y6299D02*
X6437D01*
X6393Y6281D01*
X6360Y6248D01*
X6342Y6205D01*
Y6158D01*
X6360Y6114D01*
X6393Y6081D01*
X6437Y6063D01*
X6484D01*
X6527Y6081D01*
X6560Y6114D01*
X6578Y6158D01*
Y6205D01*
X6560Y6248D01*
X6527Y6281D01*
X6484Y6299D01*
D02*
G37*
G36*
X13677Y6211D02*
X13630D01*
X13586Y6193D01*
X13553Y6160D01*
X13535Y6117D01*
Y6070D01*
X13553Y6026D01*
X13586Y5993D01*
X13625Y5977D01*
X13635Y5956D01*
X13644Y5926D01*
X13644Y5925D01*
X13623Y5904D01*
X12894D01*
X12879Y5919D01*
X12843Y5934D01*
X12803D01*
X12767Y5919D01*
X12739Y5891D01*
X12725Y5855D01*
Y5816D01*
X12739Y5780D01*
X12767Y5752D01*
X12803Y5737D01*
X12843D01*
X12879Y5752D01*
X12889Y5762D01*
X13267D01*
X13277Y5712D01*
X13269Y5709D01*
X13236Y5676D01*
X13218Y5633D01*
Y5586D01*
X13236Y5542D01*
X13269Y5509D01*
X13313Y5491D01*
X13360D01*
X13403Y5509D01*
X13436Y5542D01*
X13454Y5586D01*
Y5633D01*
X13436Y5676D01*
X13403Y5709D01*
X13396Y5712D01*
X13406Y5762D01*
X13631D01*
X13643Y5750D01*
X13679Y5735D01*
X13719D01*
X13755Y5750D01*
X13783Y5777D01*
X13798Y5814D01*
Y5853D01*
X13783Y5889D01*
X13755Y5917D01*
X13719Y5932D01*
X13702Y5932D01*
Y5932D01*
X13706Y5932D01*
X13702Y5932D01*
X13692Y5982D01*
X13702Y5986D01*
X13720Y5993D01*
X13753Y6026D01*
X13771Y6070D01*
Y6117D01*
X13753Y6160D01*
X13720Y6193D01*
X13677Y6211D01*
D02*
G37*
G36*
X22342Y6098D02*
X22303D01*
X22267Y6083D01*
X22239Y6056D01*
X22224Y6020D01*
Y5980D01*
X22239Y5944D01*
X22267Y5917D01*
X22303Y5902D01*
X22342D01*
X22379Y5917D01*
X22406Y5944D01*
X22421Y5980D01*
Y6020D01*
X22406Y6056D01*
X22379Y6083D01*
X22342Y6098D01*
D02*
G37*
G36*
X37169Y6492D02*
X37130D01*
X37094Y6477D01*
X37074Y6456D01*
X30714D01*
X30669Y6438D01*
X30330Y6098D01*
X30302D01*
X30266Y6083D01*
X30239Y6056D01*
X30224Y6020D01*
Y5980D01*
X30239Y5944D01*
X30266Y5917D01*
X30268Y5916D01*
X30258Y5866D01*
X28548D01*
X28421Y5993D01*
Y6021D01*
X28406Y6057D01*
X28379Y6084D01*
X28342Y6099D01*
X28303D01*
X28267Y6084D01*
X28239Y6057D01*
X28224Y6021D01*
Y5981D01*
X28239Y5945D01*
X28267Y5918D01*
X28303Y5903D01*
X28331D01*
X28477Y5757D01*
X28522Y5738D01*
X37514D01*
X37536Y5688D01*
X37517Y5666D01*
X26749D01*
X26423Y5992D01*
Y6020D01*
X26418Y6031D01*
X26448Y6081D01*
X27863D01*
X27883Y6062D01*
X27919Y6047D01*
X27958D01*
X27994Y6062D01*
X28022Y6089D01*
X28037Y6125D01*
Y6165D01*
X28022Y6201D01*
X27994Y6228D01*
X27958Y6243D01*
X27919D01*
X27883Y6228D01*
X27863Y6209D01*
X23468D01*
X23423Y6190D01*
X23331Y6098D01*
X23303D01*
X23267Y6083D01*
X23239Y6056D01*
X23224Y6020D01*
Y5980D01*
X23239Y5944D01*
X23267Y5917D01*
X23303Y5902D01*
X23342D01*
X23379Y5917D01*
X23406Y5944D01*
X23421Y5980D01*
Y6008D01*
X23494Y6081D01*
X24197D01*
X24227Y6031D01*
X24222Y6020D01*
Y5980D01*
X24237Y5944D01*
X24265Y5917D01*
X24301Y5902D01*
X24329D01*
X24882Y5349D01*
X24927Y5330D01*
X36540D01*
X36559Y5309D01*
X36536Y5259D01*
X22156D01*
X21421Y5993D01*
Y6021D01*
X21406Y6057D01*
X21379Y6085D01*
X21342Y6100D01*
X21303D01*
X21267Y6085D01*
X21239Y6057D01*
X21224Y6021D01*
Y5982D01*
X21239Y5946D01*
X21267Y5918D01*
X21303Y5903D01*
X21331D01*
X22084Y5150D01*
X22129Y5131D01*
X38421D01*
X38441Y5112D01*
X38477Y5097D01*
X38516D01*
X38552Y5112D01*
X38580Y5139D01*
X38595Y5175D01*
Y5215D01*
X38580Y5251D01*
X38552Y5278D01*
X38516Y5293D01*
X38477D01*
X38441Y5278D01*
X38421Y5259D01*
X36696D01*
X36686Y5309D01*
X36689Y5310D01*
X36717Y5338D01*
X36732Y5374D01*
Y5413D01*
X36717Y5450D01*
X36689Y5477D01*
X36661Y5489D01*
X36653Y5492D01*
X36659Y5522D01*
X36659D01*
X36659Y5522D01*
X36702Y5539D01*
X37532D01*
X37552Y5519D01*
X37588Y5504D01*
X37627D01*
X37663Y5519D01*
X37691Y5547D01*
X37706Y5583D01*
Y5622D01*
X37691Y5658D01*
X37663Y5686D01*
X37658Y5688D01*
X37668Y5738D01*
X39496D01*
X39517Y5717D01*
X39553Y5702D01*
X39592D01*
X39629Y5717D01*
X39656Y5745D01*
X39671Y5781D01*
Y5820D01*
X39656Y5856D01*
X39629Y5884D01*
X39622Y5887D01*
X39632Y5937D01*
X41534D01*
X41553Y5918D01*
X41589Y5903D01*
X41628D01*
X41664Y5918D01*
X41692Y5946D01*
X41707Y5982D01*
Y6021D01*
X41692Y6057D01*
X41685Y6064D01*
X41705Y6115D01*
X41711Y6116D01*
X41719Y6116D01*
X41750D01*
X41787Y6130D01*
X41814Y6158D01*
X41829Y6194D01*
Y6234D01*
X41814Y6270D01*
X41787Y6297D01*
X41750Y6312D01*
X41711D01*
X41675Y6297D01*
X41656Y6278D01*
X37244D01*
X37223Y6328D01*
X37233Y6338D01*
X37248Y6374D01*
Y6413D01*
X37233Y6449D01*
X37206Y6477D01*
X37169Y6492D01*
D02*
G37*
G36*
X8424Y6038D02*
X8377D01*
X8334Y6020D01*
X8300Y5986D01*
X8282Y5943D01*
Y5896D01*
X8300Y5853D01*
X8334Y5819D01*
X8377Y5801D01*
X8424D01*
X8468Y5819D01*
X8501Y5853D01*
X8519Y5896D01*
Y5943D01*
X8501Y5986D01*
X8468Y6020D01*
X8424Y6038D01*
D02*
G37*
G36*
X6952D02*
X6905D01*
X6862Y6020D01*
X6828Y5986D01*
X6810Y5943D01*
Y5896D01*
X6828Y5853D01*
X6862Y5819D01*
X6905Y5801D01*
X6952D01*
X6996Y5819D01*
X7029Y5853D01*
X7047Y5896D01*
Y5943D01*
X7029Y5986D01*
X6996Y6020D01*
X6952Y6038D01*
D02*
G37*
G36*
X6234D02*
X6187D01*
X6143Y6020D01*
X6110Y5986D01*
X6092Y5943D01*
Y5896D01*
X6110Y5853D01*
X6143Y5819D01*
X6187Y5801D01*
X6234D01*
X6277Y5819D01*
X6310Y5853D01*
X6328Y5896D01*
Y5943D01*
X6310Y5986D01*
X6277Y6020D01*
X6234Y6038D01*
D02*
G37*
G36*
X47926Y6034D02*
X47879D01*
X47835Y6016D01*
X47802Y5983D01*
X47784Y5940D01*
Y5893D01*
X47802Y5849D01*
X47835Y5816D01*
X47879Y5798D01*
X47926D01*
X47969Y5816D01*
X48002Y5849D01*
X48020Y5893D01*
Y5940D01*
X48002Y5983D01*
X47969Y6016D01*
X47926Y6034D01*
D02*
G37*
G36*
X7602Y6034D02*
X7555D01*
X7512Y6016D01*
X7479Y5982D01*
X7461Y5939D01*
Y5892D01*
X7479Y5849D01*
X7512Y5815D01*
X7555Y5797D01*
X7602D01*
X7646Y5815D01*
X7679Y5849D01*
X7697Y5892D01*
Y5939D01*
X7679Y5982D01*
X7646Y6016D01*
X7602Y6034D01*
D02*
G37*
G36*
X11830Y5592D02*
X11783D01*
X11739Y5574D01*
X11706Y5541D01*
X11688Y5497D01*
Y5450D01*
X11706Y5407D01*
X11739Y5373D01*
X11783Y5356D01*
X11830D01*
X11873Y5373D01*
X11906Y5407D01*
X11924Y5450D01*
Y5497D01*
X11906Y5541D01*
X11873Y5574D01*
X11830Y5592D01*
D02*
G37*
G36*
X12998Y5455D02*
X12951D01*
X12908Y5437D01*
X12875Y5403D01*
X12857Y5360D01*
Y5313D01*
X12875Y5270D01*
X12908Y5236D01*
X12951Y5218D01*
X12998D01*
X13042Y5236D01*
X13075Y5270D01*
X13093Y5313D01*
Y5360D01*
X13075Y5403D01*
X13042Y5437D01*
X12998Y5455D01*
D02*
G37*
G36*
X12334Y5590D02*
X12287D01*
X12244Y5572D01*
X12210Y5539D01*
X12192Y5496D01*
Y5495D01*
X12160Y5454D01*
X12113D01*
X12070Y5436D01*
X12037Y5403D01*
X12019Y5359D01*
Y5312D01*
X12037Y5269D01*
X12070Y5235D01*
X12113Y5217D01*
X12160D01*
X12204Y5235D01*
X12237Y5269D01*
X12255Y5312D01*
Y5313D01*
X12287Y5354D01*
X12334D01*
X12377Y5372D01*
X12411Y5405D01*
X12429Y5449D01*
Y5496D01*
X12411Y5539D01*
X12377Y5572D01*
X12334Y5590D01*
D02*
G37*
G36*
X14215Y5307D02*
X14168D01*
X14124Y5289D01*
X14091Y5256D01*
X14073Y5213D01*
Y5166D01*
X14091Y5122D01*
X14124Y5089D01*
X14168Y5071D01*
X14215D01*
X14258Y5089D01*
X14291Y5122D01*
X14309Y5166D01*
Y5213D01*
X14291Y5256D01*
X14258Y5289D01*
X14215Y5307D01*
D02*
G37*
G36*
X16846Y4842D02*
X16799D01*
X16756Y4824D01*
X16723Y4791D01*
X16705Y4747D01*
Y4700D01*
X16723Y4657D01*
X16756Y4624D01*
X16799Y4606D01*
X16846D01*
X16890Y4624D01*
X16923Y4657D01*
X16941Y4700D01*
Y4747D01*
X16923Y4791D01*
X16890Y4824D01*
X16846Y4842D01*
D02*
G37*
G36*
X13220Y4766D02*
X13173D01*
X13129Y4748D01*
X13096Y4715D01*
X13078Y4671D01*
Y4624D01*
X13096Y4581D01*
X13129Y4548D01*
X13173Y4530D01*
X13220D01*
X13263Y4548D01*
X13296Y4581D01*
X13314Y4624D01*
Y4671D01*
X13296Y4715D01*
X13263Y4748D01*
X13220Y4766D01*
D02*
G37*
G36*
X38672Y4695D02*
X38633D01*
X38596Y4680D01*
X38577Y4660D01*
X21922D01*
X21876Y4642D01*
X21333Y4098D01*
X21305D01*
X21269Y4083D01*
X21242Y4056D01*
X21227Y4020D01*
Y3980D01*
X21242Y3944D01*
X21269Y3917D01*
X21305Y3902D01*
X21345D01*
X21381Y3917D01*
X21409Y3944D01*
X21423Y3980D01*
Y4008D01*
X21948Y4533D01*
X36432D01*
X36446Y4483D01*
X36419Y4456D01*
X24712D01*
X24667Y4437D01*
X24331Y4102D01*
X24303D01*
X24267Y4087D01*
X24239Y4059D01*
X24224Y4023D01*
Y3984D01*
X24239Y3948D01*
X24267Y3920D01*
X24303Y3905D01*
X24342D01*
X24379Y3920D01*
X24406Y3948D01*
X24421Y3984D01*
Y4011D01*
X24738Y4328D01*
X26519D01*
X26529Y4278D01*
X26498Y4266D01*
X26331Y4099D01*
X26303D01*
X26267Y4084D01*
X26239Y4056D01*
X26224Y4020D01*
Y3981D01*
X26239Y3944D01*
X26241Y3943D01*
X26220Y3893D01*
X25426D01*
X25405Y3943D01*
X25406Y3944D01*
X25421Y3980D01*
Y4020D01*
X25406Y4056D01*
X25379Y4083D01*
X25342Y4098D01*
X25303D01*
X25267Y4083D01*
X25239Y4056D01*
X25224Y4020D01*
Y3980D01*
X25239Y3944D01*
X25241Y3943D01*
X25220Y3893D01*
X24726D01*
X24706Y3913D01*
X24670Y3928D01*
X24631D01*
X24595Y3913D01*
X24567Y3885D01*
X24552Y3849D01*
Y3810D01*
X24557Y3797D01*
X24528Y3747D01*
X23692D01*
X23672Y3766D01*
X23636Y3781D01*
X23597D01*
X23561Y3766D01*
X23533Y3739D01*
X23518Y3702D01*
Y3663D01*
X23533Y3627D01*
X23561Y3599D01*
X23597Y3584D01*
X23636D01*
X23672Y3599D01*
X23692Y3619D01*
X28006D01*
X28051Y3638D01*
X28315Y3902D01*
X28342D01*
X28379Y3917D01*
X28406Y3944D01*
X28421Y3980D01*
Y4020D01*
X28406Y4056D01*
X28379Y4083D01*
X28342Y4098D01*
X28303D01*
X28267Y4083D01*
X28239Y4056D01*
X28224Y4020D01*
Y3992D01*
X27979Y3747D01*
X27228D01*
X27210Y3797D01*
X27315Y3902D01*
X27342D01*
X27379Y3917D01*
X27406Y3944D01*
X27421Y3980D01*
Y4020D01*
X27406Y4056D01*
X27379Y4083D01*
X27342Y4098D01*
X27303D01*
X27267Y4083D01*
X27239Y4056D01*
X27224Y4020D01*
Y3992D01*
X27125Y3893D01*
X26426D01*
X26405Y3943D01*
X26406Y3944D01*
X26421Y3981D01*
Y4008D01*
X26570Y4157D01*
X37402D01*
X37422Y4137D01*
X37458Y4122D01*
X37497D01*
X37533Y4137D01*
X37561Y4165D01*
X37576Y4201D01*
Y4240D01*
X37561Y4276D01*
X37533Y4304D01*
X37497Y4319D01*
X37458D01*
X37422Y4304D01*
X37402Y4284D01*
X36598D01*
X36577Y4334D01*
X36579Y4337D01*
X36594Y4373D01*
Y4412D01*
X36579Y4448D01*
X36551Y4476D01*
X36535Y4483D01*
X36545Y4533D01*
X38577D01*
X38596Y4513D01*
X38633Y4498D01*
X38672D01*
X38708Y4513D01*
X38736Y4541D01*
X38751Y4577D01*
Y4616D01*
X38736Y4652D01*
X38708Y4680D01*
X38672Y4695D01*
D02*
G37*
G36*
X14284Y4609D02*
X14237D01*
X14193Y4591D01*
X14160Y4557D01*
X14142Y4514D01*
Y4467D01*
X14160Y4424D01*
X14193Y4390D01*
X14237Y4372D01*
X14284D01*
X14327Y4390D01*
X14360Y4424D01*
X14378Y4467D01*
Y4514D01*
X14360Y4557D01*
X14327Y4591D01*
X14284Y4609D01*
D02*
G37*
G36*
X5693Y4449D02*
X5646D01*
X5602Y4431D01*
X5569Y4398D01*
X5551Y4354D01*
Y4307D01*
X5569Y4264D01*
X5602Y4231D01*
X5646Y4213D01*
X5693D01*
X5736Y4231D01*
X5769Y4264D01*
X5787Y4307D01*
Y4354D01*
X5769Y4398D01*
X5736Y4431D01*
X5693Y4449D01*
D02*
G37*
G36*
X13673Y4155D02*
X13626D01*
X13583Y4137D01*
X13549Y4104D01*
X13531Y4061D01*
Y4014D01*
X13549Y3970D01*
X13583Y3937D01*
X13626Y3919D01*
X13673D01*
X13716Y3937D01*
X13750Y3970D01*
X13768Y4014D01*
Y4061D01*
X13750Y4104D01*
X13716Y4137D01*
X13673Y4155D01*
D02*
G37*
G36*
X23342Y4098D02*
X23303D01*
X23267Y4083D01*
X23239Y4056D01*
X23224Y4020D01*
Y3980D01*
X23239Y3944D01*
X23267Y3917D01*
X23303Y3902D01*
X23342D01*
X23379Y3917D01*
X23406Y3944D01*
X23421Y3980D01*
Y4020D01*
X23406Y4056D01*
X23379Y4083D01*
X23342Y4098D01*
D02*
G37*
G36*
X22342D02*
X22303D01*
X22267Y4083D01*
X22239Y4056D01*
X22224Y4020D01*
Y3980D01*
X22239Y3944D01*
X22267Y3917D01*
X22303Y3902D01*
X22342D01*
X22379Y3917D01*
X22406Y3944D01*
X22421Y3980D01*
Y4020D01*
X22406Y4056D01*
X22379Y4083D01*
X22342Y4098D01*
D02*
G37*
G36*
X20347Y4118D02*
X20300D01*
X20256Y4100D01*
X20223Y4067D01*
X20205Y4024D01*
Y3977D01*
X20223Y3933D01*
X20256Y3900D01*
X20300Y3882D01*
X20347D01*
X20390Y3900D01*
X20423Y3933D01*
X20441Y3977D01*
Y4024D01*
X20423Y4067D01*
X20390Y4100D01*
X20347Y4118D01*
D02*
G37*
G36*
X31342Y4102D02*
X31303D01*
X31267Y4087D01*
X31239Y4060D01*
X31224Y4024D01*
Y3984D01*
X31239Y3948D01*
X31267Y3921D01*
X31303Y3906D01*
X31331D01*
X31452Y3784D01*
X31498Y3765D01*
X36922D01*
X36927Y3763D01*
X36939Y3747D01*
X36914Y3697D01*
X30717D01*
X30421Y3993D01*
Y4020D01*
X30406Y4057D01*
X30379Y4084D01*
X30342Y4099D01*
X30303D01*
X30267Y4084D01*
X30239Y4057D01*
X30224Y4020D01*
Y3981D01*
X30239Y3945D01*
X30267Y3917D01*
X30303Y3902D01*
X30331D01*
X30645Y3588D01*
X30690Y3569D01*
X37220D01*
X37239Y3550D01*
X37275Y3535D01*
X37314D01*
X37351Y3550D01*
X37378Y3577D01*
X37393Y3614D01*
Y3653D01*
X37378Y3689D01*
X37351Y3717D01*
X37314Y3732D01*
X37275D01*
X37239Y3717D01*
X37220Y3697D01*
X37090D01*
X37078Y3742D01*
X37078Y3747D01*
X37105Y3774D01*
X37120Y3810D01*
Y3816D01*
X37126Y3830D01*
X37120Y3843D01*
Y3849D01*
X37105Y3885D01*
X37104Y3886D01*
X37125Y3936D01*
X41414D01*
X41433Y3918D01*
X41469Y3903D01*
X41508D01*
X41544Y3918D01*
X41572Y3945D01*
X41587Y3982D01*
Y4021D01*
X41572Y4057D01*
X41544Y4085D01*
X41508Y4100D01*
X41469D01*
X41433Y4085D01*
X41412Y4064D01*
X32398D01*
X32379Y4083D01*
X32342Y4098D01*
X32303D01*
X32267Y4083D01*
X32239Y4056D01*
X32224Y4020D01*
Y3980D01*
X32239Y3944D01*
X32240Y3943D01*
X32220Y3893D01*
X31524D01*
X31421Y3996D01*
Y4024D01*
X31406Y4060D01*
X31379Y4087D01*
X31342Y4102D01*
D02*
G37*
G36*
X11048Y3931D02*
X11001D01*
X10958Y3913D01*
X10925Y3880D01*
X10907Y3837D01*
Y3790D01*
X10925Y3746D01*
X10958Y3713D01*
X11001Y3695D01*
X11048D01*
X11092Y3713D01*
X11125Y3746D01*
X11143Y3790D01*
Y3837D01*
X11125Y3880D01*
X11092Y3913D01*
X11048Y3931D01*
D02*
G37*
G36*
X6255Y2392D02*
X6208D01*
X6164Y2374D01*
X6131Y2341D01*
X6113Y2297D01*
Y2250D01*
X6131Y2207D01*
X6164Y2174D01*
X6208Y2156D01*
X6255D01*
X6298Y2174D01*
X6331Y2207D01*
X6349Y2250D01*
Y2297D01*
X6331Y2341D01*
X6298Y2374D01*
X6255Y2392D01*
D02*
G37*
G36*
X5755D02*
X5708D01*
X5664Y2374D01*
X5631Y2341D01*
X5613Y2297D01*
Y2250D01*
X5631Y2207D01*
X5664Y2174D01*
X5708Y2156D01*
X5755D01*
X5798Y2174D01*
X5831Y2207D01*
X5849Y2250D01*
Y2297D01*
X5831Y2341D01*
X5798Y2374D01*
X5755Y2392D01*
D02*
G37*
G36*
X5255D02*
X5208D01*
X5164Y2374D01*
X5131Y2341D01*
X5113Y2297D01*
Y2250D01*
X5131Y2207D01*
X5164Y2174D01*
X5208Y2156D01*
X5255D01*
X5298Y2174D01*
X5331Y2207D01*
X5349Y2250D01*
Y2297D01*
X5331Y2341D01*
X5298Y2374D01*
X5255Y2392D01*
D02*
G37*
G36*
X9433Y2244D02*
X9386D01*
X9343Y2226D01*
X9309Y2193D01*
X9291Y2150D01*
Y2103D01*
X9309Y2059D01*
X9343Y2026D01*
X9386Y2008D01*
X9433D01*
X9476Y2026D01*
X9510Y2059D01*
X9528Y2103D01*
Y2150D01*
X9510Y2193D01*
X9476Y2226D01*
X9433Y2244D01*
D02*
G37*
G36*
X51583Y2235D02*
X51536D01*
X51492Y2217D01*
X51459Y2184D01*
X51441Y2141D01*
Y2094D01*
X51459Y2050D01*
X51492Y2017D01*
X51536Y1999D01*
X51583D01*
X51626Y2017D01*
X51659Y2050D01*
X51677Y2094D01*
Y2141D01*
X51659Y2184D01*
X51626Y2217D01*
X51583Y2235D01*
D02*
G37*
G36*
X7228Y2205D02*
X7181D01*
X7138Y2187D01*
X7105Y2154D01*
X7087Y2110D01*
Y2063D01*
X7105Y2020D01*
X7138Y1986D01*
X7181Y1969D01*
X7228D01*
X7272Y1986D01*
X7305Y2020D01*
X7323Y2063D01*
Y2110D01*
X7305Y2154D01*
X7272Y2187D01*
X7228Y2205D01*
D02*
G37*
G36*
X47542Y2194D02*
X47495D01*
X47452Y2176D01*
X47419Y2143D01*
X47401Y2099D01*
Y2052D01*
X47419Y2009D01*
X47452Y1976D01*
X47495Y1958D01*
X47542D01*
X47586Y1976D01*
X47619Y2009D01*
X47637Y2052D01*
Y2099D01*
X47619Y2143D01*
X47586Y2176D01*
X47542Y2194D01*
D02*
G37*
G36*
X11991Y2046D02*
X11944D01*
X11901Y2028D01*
X11868Y1995D01*
X11850Y1952D01*
Y1905D01*
X11868Y1861D01*
X11901Y1828D01*
X11944Y1810D01*
X11991D01*
X12035Y1828D01*
X12068Y1861D01*
X12086Y1905D01*
Y1952D01*
X12068Y1995D01*
X12035Y2028D01*
X11991Y2046D01*
D02*
G37*
G36*
X8134Y1693D02*
X8087D01*
X8043Y1675D01*
X8010Y1642D01*
X7992Y1598D01*
Y1551D01*
X8010Y1508D01*
X8043Y1475D01*
X8087Y1457D01*
X8134D01*
X8177Y1475D01*
X8210Y1508D01*
X8228Y1551D01*
Y1598D01*
X8210Y1642D01*
X8177Y1675D01*
X8134Y1693D01*
D02*
G37*
G36*
X17393Y2677D02*
X17253D01*
X17116Y2650D01*
X16987Y2597D01*
X16871Y2519D01*
X16772Y2420D01*
X16695Y2304D01*
X16641Y2175D01*
X16614Y2038D01*
Y1899D01*
X16641Y1762D01*
X16695Y1633D01*
X16772Y1517D01*
X16871Y1418D01*
X16987Y1341D01*
X17116Y1287D01*
X17253Y1260D01*
X17393D01*
X17530Y1287D01*
X17659Y1341D01*
X17775Y1418D01*
X17873Y1517D01*
X17951Y1633D01*
X18004Y1762D01*
X18032Y1899D01*
Y2038D01*
X18004Y2175D01*
X17951Y2304D01*
X17873Y2420D01*
X17775Y2519D01*
X17659Y2597D01*
X17530Y2650D01*
X17393Y2677D01*
D02*
G37*
G36*
X3219D02*
X3080D01*
X2943Y2650D01*
X2814Y2597D01*
X2698Y2519D01*
X2599Y2420D01*
X2522Y2304D01*
X2468Y2175D01*
X2441Y2038D01*
Y1899D01*
X2468Y1762D01*
X2522Y1633D01*
X2599Y1517D01*
X2698Y1418D01*
X2814Y1341D01*
X2943Y1287D01*
X3080Y1260D01*
X3219D01*
X3356Y1287D01*
X3485Y1341D01*
X3601Y1418D01*
X3700Y1517D01*
X3778Y1633D01*
X3831Y1762D01*
X3858Y1899D01*
Y2038D01*
X3831Y2175D01*
X3778Y2304D01*
X3700Y2420D01*
X3601Y2519D01*
X3485Y2597D01*
X3356Y2650D01*
X3219Y2677D01*
D02*
G37*
G36*
X41802Y2677D02*
X41662D01*
X41526Y2650D01*
X41397Y2597D01*
X41281Y2519D01*
X41182Y2420D01*
X41104Y2304D01*
X41051Y2175D01*
X41024Y2038D01*
Y1899D01*
X41051Y1762D01*
X41104Y1633D01*
X41182Y1517D01*
X41281Y1418D01*
X41397Y1341D01*
X41526Y1287D01*
X41662Y1260D01*
X41802D01*
X41939Y1287D01*
X42068Y1341D01*
X42184Y1418D01*
X42283Y1517D01*
X42360Y1633D01*
X42414Y1762D01*
X42441Y1899D01*
Y2038D01*
X42414Y2175D01*
X42360Y2304D01*
X42283Y2420D01*
X42184Y2519D01*
X42068Y2597D01*
X41939Y2650D01*
X41802Y2677D01*
D02*
G37*
G36*
X11182Y1526D02*
X11110D01*
X11040Y1508D01*
X10978Y1472D01*
X10927Y1421D01*
X10891Y1358D01*
X10872Y1289D01*
Y1216D01*
X10891Y1147D01*
X10927Y1084D01*
X10978Y1033D01*
X11040Y997D01*
X11110Y979D01*
X11182D01*
X11251Y997D01*
X11314Y1033D01*
X11365Y1084D01*
X11401Y1147D01*
X11419Y1216D01*
Y1289D01*
X11401Y1358D01*
X11365Y1421D01*
X11314Y1472D01*
X11251Y1508D01*
X11182Y1526D01*
D02*
G37*
G36*
X5755Y856D02*
X5708D01*
X5664Y838D01*
X5631Y805D01*
X5613Y762D01*
Y715D01*
X5631Y671D01*
X5664Y638D01*
X5708Y620D01*
X5755D01*
X5798Y638D01*
X5831Y671D01*
X5849Y715D01*
Y762D01*
X5831Y805D01*
X5798Y838D01*
X5755Y856D01*
D02*
G37*
G36*
X5255D02*
X5208D01*
X5164Y838D01*
X5131Y805D01*
X5113Y762D01*
Y715D01*
X5131Y671D01*
X5164Y638D01*
X5208Y620D01*
X5255D01*
X5298Y638D01*
X5331Y671D01*
X5349Y715D01*
Y762D01*
X5331Y805D01*
X5298Y838D01*
X5255Y856D01*
D02*
G37*
G36*
X8182Y1126D02*
X8110D01*
X8040Y1108D01*
X7978Y1072D01*
X7927Y1021D01*
X7891Y958D01*
X7872Y889D01*
Y816D01*
X7891Y747D01*
X7927Y684D01*
X7978Y633D01*
X8040Y597D01*
X8110Y579D01*
X8182D01*
X8251Y597D01*
X8314Y633D01*
X8365Y684D01*
X8401Y747D01*
X8419Y816D01*
Y889D01*
X8401Y958D01*
X8365Y1021D01*
X8314Y1072D01*
X8251Y1108D01*
X8182Y1126D01*
D02*
G37*
G36*
X8370Y551D02*
X8323D01*
X8280Y533D01*
X8246Y500D01*
X8228Y457D01*
Y410D01*
X8246Y366D01*
X8280Y333D01*
X8323Y315D01*
X8370D01*
X8413Y333D01*
X8447Y366D01*
X8465Y410D01*
Y457D01*
X8447Y500D01*
X8413Y533D01*
X8370Y551D01*
D02*
G37*
%LPD*%
G36*
X49790Y17560D02*
X49771Y17513D01*
X48158D01*
X48124Y17563D01*
X48127Y17570D01*
Y17617D01*
X48109Y17661D01*
X48076Y17694D01*
X48033Y17712D01*
X47986D01*
X47942Y17694D01*
X47909Y17661D01*
X47891Y17617D01*
Y17570D01*
X47894Y17563D01*
X47861Y17513D01*
X45695D01*
X45662Y17563D01*
X45665Y17570D01*
Y17617D01*
X45647Y17661D01*
X45614Y17694D01*
X45570Y17712D01*
X45523D01*
X45480Y17694D01*
X45447Y17661D01*
X45429Y17617D01*
Y17570D01*
X45432Y17563D01*
X45398Y17513D01*
X37642D01*
X37631Y17555D01*
X37630Y17563D01*
X37656Y17589D01*
X37671Y17626D01*
Y17653D01*
X37794Y17776D01*
X49574D01*
X49790Y17560D01*
D02*
G37*
G36*
X37662Y17825D02*
X37581Y17744D01*
X37553D01*
X37517Y17729D01*
X37489Y17701D01*
X37474Y17665D01*
Y17626D01*
X37489Y17589D01*
X37515Y17563D01*
X37515Y17555D01*
X37503Y17513D01*
X22453D01*
X22429Y17563D01*
X22437Y17574D01*
X24405D01*
X24450Y17592D01*
X24729Y17871D01*
X37643D01*
X37662Y17825D01*
D02*
G37*
G36*
X38163Y17345D02*
Y17306D01*
X38125Y17268D01*
X37309D01*
X37289Y17287D01*
X37253Y17302D01*
X37214D01*
X37178Y17287D01*
X37150Y17260D01*
X37135Y17223D01*
Y17184D01*
X37096Y17148D01*
X25670D01*
X25660Y17198D01*
X25663Y17199D01*
X25691Y17227D01*
X25706Y17263D01*
Y17302D01*
X25691Y17338D01*
X25715Y17385D01*
X38126D01*
X38163Y17345D01*
D02*
G37*
G36*
X48689Y12777D02*
X48167Y12256D01*
X48117Y12272D01*
X48102Y12308D01*
X48074Y12335D01*
X48038Y12350D01*
X47999D01*
X47977Y12341D01*
X47958Y12349D01*
X47939Y12362D01*
X47930Y12372D01*
Y12399D01*
X47915Y12435D01*
X47888Y12463D01*
X47852Y12478D01*
X47830D01*
X47811Y12480D01*
X47783Y12520D01*
Y12522D01*
X47768Y12558D01*
X47741Y12586D01*
X47704Y12601D01*
X47665D01*
X47629Y12586D01*
X47601Y12558D01*
X47586Y12522D01*
Y12494D01*
X47245Y12153D01*
X41189D01*
X41177Y12169D01*
X41163Y12203D01*
X41177Y12236D01*
Y12283D01*
X41159Y12327D01*
X41126Y12360D01*
X41082Y12378D01*
X41035D01*
X40992Y12360D01*
X40959Y12327D01*
X40941Y12283D01*
Y12236D01*
X40955Y12203D01*
X40941Y12169D01*
X40929Y12153D01*
X40517D01*
X40194Y12476D01*
X40148Y12494D01*
X37725D01*
X37680Y12476D01*
X37337Y12132D01*
X37300D01*
X37280Y12152D01*
X37244Y12167D01*
X37205D01*
X37169Y12152D01*
X37141Y12124D01*
X37126Y12088D01*
Y12049D01*
X37141Y12012D01*
X37169Y11985D01*
X37205Y11970D01*
X37244D01*
X37280Y11985D01*
X37300Y12004D01*
X37363D01*
X37408Y12023D01*
X37457Y12014D01*
X37485Y11987D01*
X37521Y11972D01*
X37560D01*
X37596Y11987D01*
X37624Y12014D01*
X37639Y12051D01*
Y12078D01*
X37842Y12281D01*
X40088D01*
X40406Y11963D01*
X40451Y11945D01*
X41338D01*
X41366Y11895D01*
X41357Y11872D01*
Y11825D01*
X41375Y11782D01*
X41408Y11748D01*
X41451Y11730D01*
X41498D01*
X41542Y11748D01*
X41575Y11782D01*
X41593Y11825D01*
Y11872D01*
X41583Y11895D01*
X41611Y11945D01*
X47168D01*
X47192Y11909D01*
Y11884D01*
X46167Y10859D01*
X41913D01*
X41604Y11168D01*
Y11193D01*
X41589Y11229D01*
X41561Y11257D01*
X41525Y11272D01*
X41486D01*
X41450Y11257D01*
X41422Y11229D01*
X41367Y11228D01*
X41187Y11408D01*
Y11618D01*
X41205Y11635D01*
X41220Y11672D01*
Y11711D01*
X41205Y11747D01*
X41177Y11775D01*
X41141Y11790D01*
X41102D01*
X41066Y11775D01*
X41038Y11747D01*
X41023Y11711D01*
Y11672D01*
X41038Y11635D01*
X41056Y11618D01*
Y11381D01*
X41061Y11356D01*
X41075Y11334D01*
X41696Y10713D01*
X41677Y10667D01*
X38589D01*
X37737Y11520D01*
Y11547D01*
X37722Y11584D01*
X37694Y11611D01*
X37658Y11626D01*
X37619D01*
X37582Y11611D01*
X37555Y11584D01*
X37540Y11547D01*
Y11508D01*
X37555Y11472D01*
X37582Y11444D01*
X37619Y11429D01*
X37646D01*
X38442Y10634D01*
X38423Y10587D01*
X37692D01*
X37644Y10593D01*
X37644Y10593D01*
X37644D01*
X37638Y10635D01*
X37646Y10638D01*
X37674Y10650D01*
X37702Y10677D01*
X37717Y10714D01*
Y10753D01*
X37702Y10789D01*
X37674Y10817D01*
X37638Y10832D01*
X37599D01*
X37563Y10817D01*
X37535Y10789D01*
X37520Y10753D01*
Y10714D01*
X37535Y10677D01*
X37563Y10650D01*
X37591Y10638D01*
X37599Y10635D01*
X37593Y10593D01*
X37593D01*
X37593Y10593D01*
X37546Y10587D01*
X37208D01*
X37206Y10636D01*
X37214Y10640D01*
X37242Y10651D01*
X37270Y10679D01*
X37285Y10715D01*
Y10754D01*
X37270Y10791D01*
X37242Y10818D01*
X37206Y10833D01*
X37167D01*
X37130Y10818D01*
X37103Y10791D01*
X37088Y10754D01*
Y10715D01*
X37103Y10679D01*
X37130Y10651D01*
X37158Y10640D01*
X37167Y10636D01*
X37164Y10587D01*
X30975D01*
X29903Y11660D01*
X29923Y11710D01*
X35817D01*
X35863Y11728D01*
X36687Y12552D01*
X41391D01*
X41402Y12538D01*
X41417Y12502D01*
X41407Y12477D01*
Y12438D01*
X41422Y12401D01*
X41450Y12374D01*
X41486Y12359D01*
X41525D01*
X41561Y12374D01*
X41589Y12401D01*
X41604Y12438D01*
Y12477D01*
X41593Y12502D01*
X41608Y12538D01*
X41620Y12552D01*
X45702D01*
X45727Y12527D01*
X45772Y12509D01*
X45853D01*
X45873Y12489D01*
X45909Y12474D01*
X45948D01*
X45984Y12489D01*
X46004Y12509D01*
X46923D01*
X46968Y12527D01*
X47125Y12685D01*
X48001D01*
X48047Y12703D01*
X48167Y12824D01*
X48670D01*
X48689Y12777D01*
D02*
G37*
G36*
X49429Y12624D02*
Y12173D01*
X49191Y11935D01*
X49158Y11948D01*
X49145Y11959D01*
Y12001D01*
X49127Y12044D01*
X49094Y12078D01*
X49051Y12096D01*
X49004D01*
X48960Y12078D01*
X48927Y12044D01*
X48909Y12001D01*
Y11954D01*
X48927Y11911D01*
X48952Y11885D01*
X48945Y11847D01*
X48939Y11833D01*
X48898Y11816D01*
X48330Y11248D01*
X48302D01*
X48266Y11233D01*
X48238Y11205D01*
X48223Y11169D01*
Y11130D01*
X48238Y11094D01*
X48266Y11066D01*
X48302Y11051D01*
X48341D01*
X48377Y11066D01*
X48405Y11094D01*
X48420Y11130D01*
Y11158D01*
X48970Y11707D01*
X49115D01*
X49123Y11699D01*
X49141Y11663D01*
X49062Y11583D01*
X49034D01*
X48998Y11568D01*
X48970Y11540D01*
X48955Y11504D01*
Y11465D01*
X48970Y11429D01*
X48998Y11401D01*
X49034Y11386D01*
X49073D01*
X49109Y11401D01*
X49137Y11429D01*
X49152Y11465D01*
Y11493D01*
X49581Y11921D01*
X49631Y11901D01*
Y11034D01*
X49018Y10422D01*
X46753D01*
X46734Y10468D01*
X48769Y12502D01*
X49210D01*
X49255Y12521D01*
X49379Y12645D01*
X49429Y12624D01*
D02*
G37*
G36*
X26235Y11729D02*
X26239Y11718D01*
X26267Y11690D01*
X26303Y11675D01*
X26342D01*
X26379Y11690D01*
X26398Y11710D01*
X26635D01*
X26668Y11660D01*
X26668Y11658D01*
Y11619D01*
X26683Y11583D01*
X26710Y11555D01*
X26747Y11540D01*
X26786D01*
X26822Y11555D01*
X26843Y11576D01*
X28242D01*
X28254Y11534D01*
X28254Y11526D01*
X28223Y11494D01*
X28205Y11451D01*
Y11404D01*
X28223Y11360D01*
X28256Y11327D01*
X28299Y11309D01*
X28346D01*
X28390Y11327D01*
X28423Y11360D01*
X28441Y11404D01*
Y11451D01*
X28423Y11494D01*
X28391Y11526D01*
X28392Y11534D01*
X28403Y11576D01*
X29806D01*
X30262Y11120D01*
X30243Y11074D01*
X24556D01*
X24421Y11208D01*
Y11236D01*
X24413Y11257D01*
X24432Y11297D01*
X24442Y11307D01*
X25716D01*
X25761Y11325D01*
X26178Y11743D01*
X26235Y11729D01*
D02*
G37*
G36*
X24213Y11297D02*
X24233Y11257D01*
X24224Y11236D01*
Y11197D01*
X24239Y11160D01*
X24267Y11133D01*
X24303Y11118D01*
X24331D01*
X24410Y11039D01*
X24391Y10993D01*
X22772D01*
X22699Y11066D01*
X22701Y11087D01*
X22714Y11116D01*
X23448D01*
X23493Y11134D01*
X23665Y11307D01*
X24204D01*
X24213Y11297D01*
D02*
G37*
G36*
X28800Y10293D02*
Y10254D01*
X28776Y10218D01*
X28015D01*
X27995Y10238D01*
X27959Y10253D01*
X27920D01*
X27884Y10238D01*
X27856Y10210D01*
X27841Y10174D01*
Y10135D01*
X27856Y10098D01*
X27884Y10071D01*
X27920Y10056D01*
X27959D01*
X27995Y10071D01*
X28015Y10090D01*
X28474D01*
X28512Y10053D01*
Y10014D01*
X28475Y9974D01*
X26229D01*
X25973Y10230D01*
Y10257D01*
X25964Y10280D01*
X25981Y10318D01*
X25992Y10330D01*
X28762D01*
X28800Y10293D01*
D02*
G37*
G36*
X47995Y10247D02*
X47889Y10142D01*
X38674D01*
Y10294D01*
X47976D01*
X47995Y10247D01*
D02*
G37*
G36*
X41905Y9912D02*
X41911Y9882D01*
X41783Y9755D01*
X38674D01*
Y9932D01*
X41895D01*
X41905Y9912D01*
D02*
G37*
%LPC*%
G36*
X36840Y12088D02*
X36793D01*
X36749Y12070D01*
X36716Y12037D01*
X36698Y11993D01*
Y11946D01*
X36716Y11903D01*
X36749Y11870D01*
X36793Y11852D01*
X36840D01*
X36883Y11870D01*
X36916Y11903D01*
X36934Y11946D01*
Y11993D01*
X36916Y12037D01*
X36883Y12070D01*
X36840Y12088D01*
D02*
G37*
G36*
X37342Y11804D02*
X37295D01*
X37251Y11786D01*
X37218Y11753D01*
X37200Y11710D01*
Y11663D01*
X37218Y11619D01*
X37251Y11586D01*
X37295Y11568D01*
X37342D01*
X37385Y11586D01*
X37418Y11619D01*
X37436Y11663D01*
Y11710D01*
X37418Y11753D01*
X37385Y11786D01*
X37342Y11804D01*
D02*
G37*
G36*
X44787Y11614D02*
X44740D01*
X44697Y11596D01*
X44664Y11562D01*
X44646Y11519D01*
Y11472D01*
X44664Y11429D01*
X44697Y11395D01*
X44740Y11377D01*
X44787D01*
X44831Y11395D01*
X44864Y11429D01*
X44882Y11472D01*
Y11519D01*
X44864Y11562D01*
X44831Y11596D01*
X44787Y11614D01*
D02*
G37*
G36*
X41474Y11559D02*
X41427D01*
X41383Y11541D01*
X41350Y11508D01*
X41332Y11465D01*
Y11418D01*
X41350Y11374D01*
X41383Y11341D01*
X41427Y11323D01*
X41474D01*
X41517Y11341D01*
X41550Y11374D01*
X41568Y11418D01*
Y11465D01*
X41550Y11508D01*
X41517Y11541D01*
X41474Y11559D01*
D02*
G37*
G36*
X37319Y11506D02*
X37272D01*
X37228Y11488D01*
X37195Y11455D01*
X37177Y11411D01*
Y11364D01*
X37195Y11321D01*
X37228Y11288D01*
X37272Y11270D01*
X37319D01*
X37362Y11288D01*
X37396Y11321D01*
X37413Y11364D01*
Y11411D01*
X37396Y11455D01*
X37362Y11488D01*
X37319Y11506D01*
D02*
G37*
G36*
X37559Y11242D02*
X37520D01*
X37484Y11227D01*
X37456Y11200D01*
X37441Y11164D01*
Y11124D01*
X37456Y11088D01*
X37484Y11061D01*
X37520Y11046D01*
X37559D01*
X37595Y11061D01*
X37623Y11088D01*
X37638Y11124D01*
Y11164D01*
X37623Y11200D01*
X37595Y11227D01*
X37559Y11242D01*
D02*
G37*
G36*
X48783Y12304D02*
X48736D01*
X48692Y12286D01*
X48659Y12252D01*
X48641Y12209D01*
Y12162D01*
X48659Y12119D01*
X48692Y12085D01*
X48736Y12067D01*
X48783D01*
X48826Y12085D01*
X48859Y12119D01*
X48877Y12162D01*
Y12209D01*
X48859Y12252D01*
X48826Y12286D01*
X48783Y12304D01*
D02*
G37*
G36*
X29346Y11509D02*
X29299D01*
X29256Y11491D01*
X29223Y11458D01*
X29205Y11415D01*
Y11368D01*
X29223Y11324D01*
X29256Y11291D01*
X29299Y11273D01*
X29346D01*
X29390Y11291D01*
X29423Y11324D01*
X29441Y11368D01*
Y11415D01*
X29423Y11458D01*
X29390Y11491D01*
X29346Y11509D01*
D02*
G37*
%LPD*%
G36*
X8764Y8012D02*
X8645Y7893D01*
X6536D01*
X6517Y7939D01*
X6636Y8058D01*
X8745D01*
X8764Y8012D01*
D02*
G37*
G36*
X11264Y7091D02*
X11096Y6923D01*
X9901D01*
X9878Y6971D01*
X9896Y7014D01*
Y7061D01*
X9884Y7091D01*
X9902Y7130D01*
X9913Y7141D01*
X11244D01*
X11264Y7091D01*
D02*
G37*
G36*
X26231Y6031D02*
X26226Y6020D01*
Y5980D01*
X26241Y5944D01*
X26269Y5917D01*
X26305Y5902D01*
X26333D01*
X26677Y5557D01*
X26722Y5539D01*
X36565D01*
X36608Y5522D01*
X36608Y5522D01*
X36608D01*
X36614Y5492D01*
X36607Y5489D01*
X36578Y5477D01*
X36558Y5458D01*
X24953D01*
X24419Y5992D01*
Y6020D01*
X24414Y6031D01*
X24444Y6081D01*
X25199D01*
X25229Y6031D01*
X25224Y6020D01*
Y5980D01*
X25239Y5944D01*
X25267Y5917D01*
X25303Y5902D01*
X25342D01*
X25379Y5917D01*
X25406Y5944D01*
X25421Y5980D01*
Y6020D01*
X25417Y6031D01*
X25446Y6081D01*
X26201D01*
X26231Y6031D01*
D02*
G37*
D10*
X49366Y15058D02*
G03*
X49307Y15201I-202J0D01*
G01*
X49366Y14495D02*
G03*
X49471Y14242I358J0D01*
G01*
X49502Y14167D02*
G03*
X49471Y14242I-105J0D01*
G01*
X49504Y15201D02*
G03*
X49445Y15058I143J-143D01*
G01*
Y14495D02*
G03*
X49527Y14298I279J0D01*
G01*
X49581Y14167D02*
G03*
X49527Y14298I-184J0D01*
G01*
X49581Y13981D02*
G03*
X49600Y13934I67J0D01*
G01*
X49482Y13937D02*
G03*
X49502Y13985I-47J47D01*
G01*
X49814Y12764D02*
G03*
X49796Y12721I43J-43D01*
G01*
X49493Y12952D02*
G03*
X49476Y12992I-57J0D01*
G01*
X53712Y21176D02*
G03*
X53684Y21164I0J-39D01*
G01*
X51063Y11993D02*
Y12563D01*
X50360Y13266D02*
X51063Y12563D01*
X50633Y11563D02*
X51063Y11993D01*
X50975Y12021D02*
Y12526D01*
X50371Y13130D02*
X50975Y12526D01*
X50547Y11593D02*
X50975Y12021D01*
X4051Y14731D02*
Y15815D01*
Y14731D02*
X4567Y14216D01*
Y6412D02*
Y14216D01*
X4051Y15815D02*
X4604Y16367D01*
X3971Y14699D02*
Y15846D01*
Y14699D02*
X4346Y14323D01*
X3971Y15846D02*
X4571Y16446D01*
X4346Y6216D02*
X4775Y5788D01*
X5079D01*
X4346Y6216D02*
Y14323D01*
X13964Y11179D02*
X13965Y11180D01*
X23448D01*
X23639Y11371D01*
X25716D01*
X26403Y12058D01*
X35863D01*
X27739Y11901D02*
X35827D01*
X36622Y12696D01*
X26323Y11774D02*
X35817D01*
X36660Y12616D01*
X26766Y11639D02*
X26767Y11640D01*
X29832D01*
X30948Y10524D01*
X24323Y11216D02*
X24529Y11010D01*
X30348D01*
X30918Y10440D01*
X22649Y11025D02*
X22745Y10929D01*
X30317D01*
X30888Y10358D01*
X22658Y10848D02*
X30275D01*
X22614Y10891D02*
X22658Y10848D01*
X30275D02*
X31045Y10078D01*
X36660Y12616D02*
X45729D01*
X36622Y12696D02*
X46602D01*
X35863Y12058D02*
X36582Y12776D01*
X45985D01*
X45729Y12616D02*
X45772Y12573D01*
X45928D01*
X46923D01*
X47099Y12749D01*
X46602Y12696D02*
X46781Y12875D01*
X37363Y12068D02*
X37725Y12430D01*
X40148D02*
X40490Y12089D01*
X37725Y12430D02*
X40148D01*
X40115Y12345D02*
X40451Y12009D01*
X37541Y12070D02*
X37816Y12345D01*
X40115D01*
X45985Y12776D02*
X46100Y12891D01*
X10847Y8533D02*
X11263Y8949D01*
X8793Y8206D02*
X9120Y8533D01*
X10847D01*
X10985Y8452D02*
X11263Y8730D01*
X9173Y8452D02*
X10985D01*
X8843Y8122D02*
X9173Y8452D01*
X11126Y8374D02*
X11263Y8511D01*
X9216Y8374D02*
X11126D01*
X8672Y7829D02*
X9216Y8374D01*
X6240Y7510D02*
X6479Y7749D01*
X8704D01*
X9247Y8292D01*
X11263D01*
X5827Y7441D02*
X6165Y7779D01*
X6393D01*
X6443Y7829D01*
X8672D01*
X5916Y7864D02*
X6351D01*
X6610Y8122D01*
X5906Y7874D02*
X5916Y7864D01*
X6610Y8122D02*
X8843D01*
X6240Y7982D02*
X6464Y8206D01*
X8793D01*
X50184Y13266D02*
X50360D01*
X49890Y13130D02*
X50371D01*
X50431Y12902D02*
X50683Y12650D01*
Y12096D02*
Y12650D01*
X49062Y9195D02*
X50633Y10766D01*
Y11563D01*
X50547Y10802D02*
Y11593D01*
X50382Y10882D02*
Y11909D01*
X50603Y12130D01*
Y12562D01*
X50465Y10841D02*
Y11878D01*
X50683Y12096D01*
X49068Y9323D02*
X50547Y10802D01*
X49067Y9443D02*
X50465Y10841D01*
X49024Y9524D02*
X50382Y10882D01*
X50172Y12993D02*
X50603Y12562D01*
X42099Y9524D02*
X49024D01*
X21323Y14000D02*
X21611Y14287D01*
X40017D01*
X50562Y14396D02*
Y14708D01*
X50292Y14126D02*
X50562Y14396D01*
X50292Y13946D02*
Y14126D01*
X50914Y14415D02*
X50983Y14484D01*
X50873Y14415D02*
X50914D01*
X50735Y14277D02*
X50873Y14415D01*
X50983Y14484D02*
Y17037D01*
X50263Y13779D02*
X50884D01*
X50404Y13563D02*
X51009D01*
X50246Y13406D02*
X50404Y13563D01*
X50028Y13406D02*
X50246D01*
X50974Y13652D02*
X51550Y14228D01*
X50165Y13543D02*
X50274Y13652D01*
X50974D01*
X50437Y13451D02*
X51037D01*
X51498Y13912D01*
X36399Y7742D02*
X36956Y7185D01*
X51699D01*
X15062Y8075D02*
X15395Y7742D01*
X36399D01*
X24703Y17935D02*
X49625D01*
X24405Y17638D02*
X24703Y17935D01*
X22323Y17638D02*
X24405D01*
X23654Y17762D02*
X24400D01*
X24652Y18014D02*
X49660D01*
X24400Y17762D02*
X24652Y18014D01*
X24617Y18093D02*
X49698D01*
X24406Y17883D02*
X24617Y18093D01*
X22592Y17883D02*
X24406D01*
X37767Y17840D02*
X49601D01*
X50452Y16988D01*
X37573Y17645D02*
X37767Y17840D01*
X49625Y17935D02*
X50545Y17015D01*
X49660Y18014D02*
X50632Y17042D01*
X49698Y18093D02*
X50742Y17049D01*
X49725Y18180D02*
X50870Y17035D01*
X24319Y18001D02*
X24498Y18180D01*
X49725D01*
X23323Y18126D02*
X23458Y18261D01*
X49759D01*
X50983Y17037D01*
X36373Y16127D02*
X36450Y16204D01*
X46434D01*
X36378Y16261D02*
X36404Y16287D01*
X46466D01*
X36573Y16000D02*
X36697Y16124D01*
X46395D01*
X23972Y16261D02*
X36378D01*
X46466Y16287D02*
X48509Y14245D01*
X23004Y16128D02*
X23005Y16127D01*
X36373D01*
X46434Y16204D02*
X48495Y14144D01*
X46395Y16124D02*
X48715Y13804D01*
X22486Y15836D02*
X46490D01*
X22323Y16000D02*
X22486Y15836D01*
X46490D02*
X48030Y14297D01*
X23323Y15714D02*
X46444D01*
X47984Y14174D01*
X28006Y3683D02*
X28323Y4000D01*
X23616Y3683D02*
X28006D01*
X24229Y6409D02*
X27319D01*
X27152Y3829D02*
X27323Y4000D01*
X24650Y3829D02*
X27152D01*
X23468Y6145D02*
X27939D01*
X23323Y6000D02*
X23468Y6145D01*
X22129Y5195D02*
X38497D01*
X21323Y6001D02*
X22129Y5195D01*
X21922Y4597D02*
X38652D01*
X21325Y4000D02*
X21922Y4597D01*
X36634Y5394D02*
X36634Y5394D01*
X24927Y5394D02*
X36634D01*
X24321Y6000D02*
X24927Y5394D01*
X37568Y5602D02*
X37568Y5602D01*
X26722Y5602D02*
X37568D01*
X26325Y6000D02*
X26722Y5602D01*
X24712Y4392D02*
X36496D01*
X24323Y4003D02*
X24712Y4392D01*
X26543Y4220D02*
X37477D01*
X26323Y4000D02*
X26543Y4220D01*
X39571Y5802D02*
X39573Y5800D01*
X28522Y5802D02*
X39571D01*
X28323Y6001D02*
X28522Y5802D01*
X30690Y3633D02*
X37295D01*
X30323Y4001D02*
X30690Y3633D01*
X37022Y3830D02*
X37062D01*
X37021Y3829D02*
X37022Y3830D01*
X31498Y3829D02*
X37021D01*
X37149Y6392D02*
X37150Y6393D01*
X30714Y6392D02*
X37149D01*
X30322Y6000D02*
X30714Y6392D01*
X31323Y4004D02*
X31498Y3829D01*
X31323Y6000D02*
X31537Y6214D01*
X41731D01*
X41487Y4000D02*
X41488Y4001D01*
X32323Y4000D02*
X41487D01*
X41598Y6001D02*
X41599Y6001D01*
X32323Y6001D02*
X41598D01*
X24445Y12383D02*
X35827D01*
X22323Y11025D02*
X22649D01*
X49296Y13721D02*
X49336Y13681D01*
X49339D01*
X47984Y14174D02*
X48210D01*
X48664Y13721D01*
X49296D01*
X50028Y12992D02*
X50028Y12993D01*
X50172D01*
X41940Y9365D02*
X42099Y9524D01*
X27940Y10154D02*
X30258D01*
X31048Y9365D01*
X41940D01*
X50742Y14716D02*
Y17049D01*
X48495Y14144D02*
X49021D01*
X50028Y15750D02*
X50106Y15828D01*
Y16816D01*
X49838Y17084D02*
X50106Y16816D01*
X50077Y14008D02*
Y15275D01*
X50190Y15388D02*
Y16859D01*
X50077Y15275D02*
X50190Y15388D01*
X49845Y17204D02*
X50190Y16859D01*
X50202Y15206D02*
X50279Y15284D01*
Y16911D01*
X49865Y17325D02*
X50279Y16911D01*
X49872Y17449D02*
X50363Y16958D01*
X50333Y15032D02*
X50363Y15063D01*
Y16958D01*
X50188Y14708D02*
X50452Y14973D01*
Y16988D01*
X50632Y14779D02*
Y17042D01*
X50870Y14557D02*
Y17035D01*
X30987Y9195D02*
X49062D01*
X30272Y9910D02*
X30987Y9195D01*
X26202Y9910D02*
X30272D01*
X31020Y9279D02*
X41966D01*
X28611Y10033D02*
X30265D01*
X31020Y9279D01*
X28899Y10274D02*
X30251D01*
X31079Y9446D02*
X41905D01*
X30251Y10274D02*
X31079Y9446D01*
X21828Y10394D02*
X30245D01*
X31112Y9527D02*
X41871D01*
X30245Y10394D02*
X31112Y9527D01*
X31146Y9610D02*
X41843D01*
X30244Y10512D02*
X31146Y9610D01*
X27729Y10512D02*
X30244D01*
X31179Y9691D02*
X41810D01*
X30228Y10642D02*
X31179Y9691D01*
X27034Y10642D02*
X30228D01*
X22553Y10765D02*
X30235D01*
X31005Y9996D02*
X47948D01*
X30235Y10765D02*
X31005Y9996D01*
X31045Y10078D02*
X47916D01*
X30888Y10358D02*
X49044D01*
X37224Y12068D02*
X37363D01*
X49366Y14495D02*
Y15058D01*
X49502Y13985D02*
Y14167D01*
X49445Y14495D02*
Y15058D01*
X49581Y13981D02*
Y14167D01*
X50182Y10917D02*
Y12579D01*
X48950Y9685D02*
X50182Y10917D01*
X52004Y6852D02*
X52082Y6929D01*
X50916Y6852D02*
X52004D01*
X50839Y6929D02*
X50916Y6852D01*
X36985Y6929D02*
X50839D01*
X37010Y7017D02*
X51550D01*
X9210Y9314D02*
X10264D01*
X8627Y8730D02*
X9210Y9314D01*
X7434Y8730D02*
X8627D01*
X7343Y8822D02*
X7434Y8730D01*
X7343Y8822D02*
Y8850D01*
X47916Y10078D02*
X48111Y10273D01*
X49073D01*
X47948Y9996D02*
X48143Y10191D01*
X49109D01*
X41810Y9691D02*
X41962Y9843D01*
X47917D01*
X48181Y10107D01*
X49140D01*
X47953Y9764D02*
X48217Y10027D01*
X41997Y9764D02*
X47953D01*
X41843Y9610D02*
X41997Y9764D01*
X48217Y10027D02*
X49177D01*
X41871Y9527D02*
X42029Y9685D01*
X48950D01*
X41905Y9446D02*
X42064Y9604D01*
X48988D01*
X6398Y7274D02*
X6467Y7205D01*
X11314D01*
X12975Y8866D01*
Y8964D01*
X14993Y9439D02*
X22323D01*
X15266Y10394D02*
X21828D01*
X15259Y10888D02*
X21587D01*
X15404Y11025D02*
X22323D01*
X51616Y14511D02*
X51862D01*
X51864Y14514D01*
X50884Y13779D02*
X51616Y14511D01*
X51507Y14061D02*
X51715D01*
X51009Y13563D02*
X51507Y14061D01*
X15873Y17283D02*
X16308D01*
X25608Y17283D01*
X15728Y18001D02*
X16079D01*
X47916Y13228D02*
X47955Y13268D01*
X49100D01*
X49238Y13406D01*
X47557Y13206D02*
X47580Y13228D01*
X47916D01*
X47518Y13289D02*
X47602Y13373D01*
X49094D01*
X49264Y13543D01*
X46342Y13206D02*
X47557D01*
X46669Y13289D02*
X47518D01*
X46514Y13444D02*
X46669Y13289D01*
X46142Y13444D02*
X46514D01*
X45714Y13016D02*
X46142Y13444D01*
X46079Y13262D02*
X46286D01*
X46342Y13206D01*
X45752Y12935D02*
X46079Y13262D01*
X45787Y12856D02*
X45943Y13013D01*
X47985D02*
X48094Y13121D01*
X45943Y13013D02*
X47985D01*
X46781Y12875D02*
X47776D01*
X47901Y11899D02*
X47902Y11901D01*
X36547Y12856D02*
X45787D01*
X35832Y12140D02*
X36547Y12856D01*
X25735Y12140D02*
X35832D01*
X35841Y12263D02*
X36514Y12935D01*
X25323Y12263D02*
X35841D01*
X36459Y13016D02*
X45714D01*
X35827Y12383D02*
X36459Y13016D01*
X27323Y12510D02*
X35841D01*
X36432Y13102D02*
X45687D01*
X35841Y12510D02*
X36432Y13102D01*
X36387Y13187D02*
X41340D01*
X35837Y12636D02*
X36387Y13187D01*
X28749Y12636D02*
X35837D01*
X38563Y10603D02*
X46370D01*
X37638Y11528D02*
X38563Y10603D01*
X40490Y12089D02*
X47271D01*
X47685Y12502D01*
X47307Y12009D02*
X47678Y12380D01*
X40451Y12009D02*
X47307D01*
X47678Y12380D02*
X47832D01*
X39573Y18768D02*
X41317Y20512D01*
X47756D01*
X41946Y13307D02*
X41946Y13307D01*
X45644D01*
X13423Y8649D02*
X14318D01*
X15309Y7657D01*
X36370D01*
X14260Y8491D02*
X15177Y7575D01*
X36340D01*
X46370Y10603D02*
X48019Y12252D01*
X30948Y10524D02*
X46525D01*
X47901Y11899D01*
X30918Y10440D02*
X46616D01*
X48742Y12566D01*
X49695Y11008D02*
Y12748D01*
X49044Y10358D02*
X49695Y11008D01*
X49073Y10273D02*
X49796Y10997D01*
Y12721D01*
X49109Y10191D02*
X49902Y10985D01*
Y12686D01*
X49140Y10107D02*
X50001Y10968D01*
Y12742D01*
X50080Y10930D02*
Y12787D01*
X49177Y10027D02*
X50080Y10930D01*
X48988Y9604D02*
X50300Y10917D01*
Y12690D01*
X42130Y9443D02*
X49067D01*
X42573Y9323D02*
X49068D01*
X41966Y9279D02*
X42130Y9443D01*
X10598Y5251D02*
X11023Y5677D01*
X10592Y5127D02*
X11110Y5645D01*
X10582Y5005D02*
X11194Y5617D01*
X7471Y5005D02*
X10582D01*
X6901Y4745D02*
X7150Y4496D01*
X11489D01*
X11489Y6908D02*
X11574D01*
X11023Y6443D02*
X11489Y6908D01*
X11023Y5677D02*
Y6443D01*
X8051Y5251D02*
X10598D01*
X11449Y6751D02*
X11574D01*
X11110Y6411D02*
X11449Y6751D01*
X11110Y5645D02*
Y6411D01*
X7901Y5127D02*
X10592D01*
X11414Y6593D02*
X11574D01*
X11194Y6373D02*
X11414Y6593D01*
X11194Y5617D02*
Y6373D01*
X11377Y6436D02*
X11574D01*
X11282Y5590D02*
Y6340D01*
X11377Y6436D01*
X10574Y4882D02*
X11282Y5590D01*
X7285Y4882D02*
X10574D01*
X11550Y4884D02*
X11574D01*
X11417Y4751D02*
X11550Y4884D01*
X9130Y4751D02*
X11417D01*
X7603Y4628D02*
X11452D01*
X11551Y4727D02*
X11574D01*
X11452Y4628D02*
X11551Y4727D01*
X11489Y4496D02*
X11561Y4569D01*
X11574D01*
X6614Y4843D02*
X7045Y4412D01*
X11574D01*
X36514Y12935D02*
X45752D01*
X45687Y13102D02*
X46303Y13717D01*
X41340Y13187D02*
X45658D01*
X46395Y13924D01*
X36340Y7575D02*
X36985Y6929D01*
X4571Y16446D02*
X5236D01*
X5552Y16762D01*
Y17314D01*
X6793Y18555D01*
Y19677D01*
X7253Y20137D01*
Y20542D01*
X7077Y20719D02*
X7253Y20542D01*
X4604Y16367D02*
X5270D01*
X5631Y16728D01*
Y17280D01*
X6874Y18523D01*
Y19642D01*
X7333Y20101D01*
Y20719D01*
X4567Y6412D02*
X4916Y6063D01*
X5276D01*
X50298Y12692D02*
X50300Y12690D01*
X49210Y12566D02*
X49395Y12750D01*
X48742Y12566D02*
X49210D01*
X37234Y17204D02*
X49845D01*
X21323Y17084D02*
X49838D01*
X48715Y13804D02*
X49510D01*
X48509Y14245D02*
X49209D01*
X46387Y14050D02*
X47832D01*
X45644Y13307D02*
X46387Y14050D01*
X46395Y13924D02*
X48002D01*
X46303Y13717D02*
X47564D01*
X36370Y7657D02*
X37010Y7017D01*
X36715Y7539D02*
X48886D01*
X49054Y11485D02*
X49573Y12004D01*
Y12940D01*
X49167Y12992D02*
X49339D01*
X49062Y12888D02*
X49167Y12992D01*
X48140Y12888D02*
X49062D01*
X49064Y13001D02*
X49192Y13130D01*
X49339D01*
X48119Y13001D02*
X49064D01*
X49214Y13268D02*
X49339D01*
X49068Y13121D02*
X49214Y13268D01*
X48094Y13121D02*
X49068D01*
X49238Y13406D02*
X49339D01*
X49264Y13543D02*
X49339D01*
X49510Y13804D02*
X49614Y13700D01*
Y13681D02*
Y13700D01*
X48322Y11150D02*
X48322D01*
X48943Y11771D01*
X49118D01*
X49493Y12146D01*
Y12952D01*
X49573Y12940D02*
X49614Y12982D01*
X36361Y8022D02*
X36718Y7666D01*
X23867Y8022D02*
X36361D01*
X36718Y7666D02*
X48335D01*
X23794Y7925D02*
X36329D01*
X36715Y7539D01*
X21587Y10888D02*
X22431D01*
X22553Y10765D01*
X47099Y12749D02*
X48001D01*
X48140Y12888D01*
X47993Y12875D02*
X48119Y13001D01*
X16079Y18001D02*
X24319Y18001D01*
X49890Y12977D02*
Y12992D01*
Y12977D02*
X50080Y12787D01*
X48841Y21597D02*
Y23318D01*
X47756Y20512D02*
X48841Y21597D01*
X47776Y12875D02*
X47993D01*
X48094Y13121D02*
X48094Y13121D01*
X47901Y11899D02*
X48788Y12786D01*
X48809D01*
X50562Y14708D02*
X50632Y14779D01*
X48886Y7549D02*
X48887Y7549D01*
X23743Y8146D02*
X23867Y8022D01*
X49814Y12764D02*
X49814Y12764D01*
X49806Y12757D02*
X49814Y12764D01*
X21828Y10394D02*
X21835Y10387D01*
X28653Y14162D02*
X40069D01*
X40232Y14326D01*
X47445D01*
X40017Y14287D02*
X40181Y14451D01*
X47310D01*
X38262Y17325D02*
X49865D01*
X49752Y13681D02*
Y13683D01*
X25875Y10238D02*
X26202Y9910D01*
X50028Y13268D02*
X50184Y13266D01*
X21619Y17449D02*
X49872D01*
X56528Y21030D02*
X56681Y21183D01*
X53747Y21030D02*
X56528D01*
X51063Y18347D02*
X53747Y21030D01*
X21788Y18347D02*
X51063D01*
X50985Y18466D02*
X53684Y21164D01*
X21985Y18466D02*
X50985D01*
X50865Y14553D02*
X50870Y14557D01*
X50028Y13681D02*
X50292Y13946D01*
X50545Y14881D02*
Y17015D01*
X50403Y14739D02*
X50545Y14881D01*
X49752Y13683D02*
X50077Y14008D01*
X49890Y13688D02*
X50188Y13986D01*
Y14708D01*
X49890Y13681D02*
Y13688D01*
X47290Y11890D02*
X47290Y11890D01*
X49752Y12991D02*
Y12992D01*
Y12991D02*
X50001Y12742D01*
X51498Y13912D02*
X52082D01*
X49614Y12982D02*
Y12992D01*
X49476Y12991D02*
Y12992D01*
X53712Y21176D02*
X55055D01*
X5827Y7441D02*
X5834Y7434D01*
D11*
X7406Y16870D02*
X7974Y17437D01*
X8426D01*
X6169Y16870D02*
X6169Y16870D01*
X7251D01*
X7406D01*
X5984Y8662D02*
X6437Y9114D01*
Y9518D01*
D12*
X8527Y17906D02*
X8646Y17786D01*
X8527Y17906D02*
Y19142D01*
X9668Y20283D01*
X8646Y17328D02*
Y17786D01*
X8415Y17097D02*
X8646Y17328D01*
X8199Y17097D02*
X8415D01*
X9668Y20283D02*
X9941D01*
X10242Y20584D01*
Y20882D01*
X10980Y21620D01*
D14*
X41885Y10793D02*
X46194D01*
X41505Y11174D02*
X41885Y10793D01*
X46194D02*
X47290Y11890D01*
X41121Y11381D02*
Y11691D01*
Y11381D02*
X41801Y10701D01*
X46300D01*
X47553Y11954D01*
D15*
X12823Y7852D02*
X12823Y7852D01*
X13698D01*
X12823Y5836D02*
X12825Y5833D01*
X13699D01*
X13531Y7461D02*
X13699Y7628D01*
X12845Y7461D02*
X13531D01*
X12604Y7220D02*
X12845Y7461D01*
X11493Y7220D02*
X12604D01*
X11126Y6852D02*
X11493Y7220D01*
X11499Y7085D02*
X12059D01*
X11163Y6749D02*
X11499Y7085D01*
X9401Y6749D02*
X11163D01*
X9300Y6276D02*
X10717D01*
X9117Y6458D02*
X9300Y6276D01*
X8550Y6458D02*
X9117D01*
X8498Y6405D02*
X8550Y6458D01*
X7686Y6405D02*
X8498D01*
X9296Y6854D02*
X9401Y6749D01*
X8677Y6854D02*
X9296D01*
X9338Y6954D02*
X9440Y6852D01*
X11126D01*
X8567Y6954D02*
X9338D01*
X8611Y6788D02*
X8677Y6854D01*
X8159Y6788D02*
X8611D01*
X7881Y6509D02*
X8159Y6788D01*
X7815Y6644D02*
X8060Y6889D01*
X8502D02*
X8567Y6954D01*
X8060Y6889D02*
X8502D01*
X7738Y6509D02*
X7881D01*
X7657Y6590D02*
X7738Y6509D01*
X7657Y6590D02*
Y6644D01*
X7500Y6591D02*
X7686Y6405D01*
X7500Y6591D02*
Y6644D01*
D16*
X8189Y17697D02*
X8357Y17865D01*
Y19145D02*
X9685Y20473D01*
X8357Y17865D02*
Y19145D01*
X605Y23007D02*
X1378Y23780D01*
X605Y19096D02*
Y23007D01*
Y19096D02*
X1051Y18650D01*
Y18226D02*
Y18650D01*
X1417Y21850D02*
X2128D01*
X2293Y21686D01*
Y18389D02*
Y21686D01*
Y18389D02*
X2457Y18226D01*
X2449Y18871D02*
Y20024D01*
X2323Y22795D02*
X2449Y22670D01*
X1053Y18871D02*
Y20022D01*
X1051Y20024D02*
X1053Y20022D01*
X1051Y20024D02*
X1220Y20194D01*
Y22638D01*
X1378Y22795D01*
X2449Y20024D02*
Y22670D01*
D17*
X10394Y354D02*
X10433Y394D01*
Y1693D01*
D21*
X1069Y11204D02*
D03*
Y7799D02*
D03*
Y17203D02*
D03*
Y13797D02*
D03*
D22*
X2715Y7799D02*
D03*
Y11204D02*
D03*
Y13797D02*
D03*
Y17203D02*
D03*
D50*
X4734Y4813D02*
D03*
X4832Y5925D02*
D03*
X4459Y11093D02*
D03*
X4449Y12451D02*
D03*
X5758Y10226D02*
D03*
X4449Y14567D02*
D03*
Y13602D02*
D03*
X2717Y18159D02*
D03*
X2589Y19793D02*
D03*
X50617Y8426D02*
D03*
X51089Y8918D02*
D03*
X38862Y20354D02*
D03*
X41476Y21368D02*
D03*
X43091Y21358D02*
D03*
X44213Y18907D02*
D03*
X44242Y20089D02*
D03*
X44665Y21378D02*
D03*
X49881Y14115D02*
D03*
D03*
X49761D02*
D03*
D03*
X50165Y13543D02*
D03*
X50437Y13451D02*
D03*
X49339Y13681D02*
D03*
X50028Y12992D02*
D03*
X49021Y14144D02*
D03*
X50182Y12579D02*
D03*
X50028Y13543D02*
D03*
Y13406D02*
D03*
X49395Y12750D02*
D03*
X49482Y13937D02*
D03*
X49600Y13934D02*
D03*
X49890Y13130D02*
D03*
X50028Y13268D02*
D03*
Y13681D02*
D03*
X49752D02*
D03*
X49890D02*
D03*
X49476Y13543D02*
D03*
D03*
Y13406D02*
D03*
D03*
Y13130D02*
D03*
D03*
Y13268D02*
D03*
D03*
X49209Y14245D02*
D03*
X49614Y13681D02*
D03*
X49890Y13268D02*
D03*
D03*
Y13406D02*
D03*
D03*
Y13543D02*
D03*
D03*
X49752D02*
D03*
D03*
X49476Y13681D02*
D03*
D03*
X49614Y13543D02*
D03*
D03*
X49902Y12686D02*
D03*
X49752Y12992D02*
D03*
X49890D02*
D03*
X48809Y12786D02*
D03*
X49339Y13543D02*
D03*
Y13406D02*
D03*
X49752Y13130D02*
D03*
X49614D02*
D03*
X49814Y12764D02*
D03*
X49752Y13130D02*
D03*
X49614Y12992D02*
D03*
X49476D02*
D03*
X49339D02*
D03*
Y13130D02*
D03*
Y13268D02*
D03*
X49614Y13130D02*
D03*
X49695Y12748D02*
D03*
D83*
X11146Y453D02*
D03*
Y1253D02*
D03*
X8146Y853D02*
D03*
D137*
X4961Y23032D02*
D03*
X41732Y1969D02*
D03*
X17323Y1969D02*
D03*
X3150D02*
D03*
X44528Y23032D02*
D03*
X17323D02*
D03*
D139*
X1850Y24134D02*
D03*
Y21457D02*
D03*
D148*
X50298Y12692D02*
D03*
D156*
X507Y397D02*
D03*
X1947Y356D02*
D03*
X376Y2165D02*
D03*
X433Y1205D02*
D03*
X1657Y2158D02*
D03*
X3137Y397D02*
D03*
X4068Y357D02*
D03*
X4157Y1158D02*
D03*
X2157D02*
D03*
X3157D02*
D03*
X2333Y2431D02*
D03*
X1157Y3158D02*
D03*
X318Y4397D02*
D03*
X323Y3585D02*
D03*
X3157Y3158D02*
D03*
X4075Y2530D02*
D03*
X4157Y3158D02*
D03*
X2157D02*
D03*
X2657Y4158D02*
D03*
X4823Y1372D02*
D03*
X4852Y378D02*
D03*
X4657Y2158D02*
D03*
X4891Y1735D02*
D03*
X4733Y2632D02*
D03*
X6004Y1548D02*
D03*
X6614Y1523D02*
D03*
X5301Y1548D02*
D03*
X6630Y2879D02*
D03*
X5938Y2886D02*
D03*
X4823Y3248D02*
D03*
X5467Y2905D02*
D03*
X5386Y3394D02*
D03*
X5492Y4035D02*
D03*
X5517Y4543D02*
D03*
X6043Y3484D02*
D03*
X6371Y3152D02*
D03*
X6466Y3590D02*
D03*
X5972Y4583D02*
D03*
X6240Y4094D02*
D03*
X6657Y4158D02*
D03*
X327Y5534D02*
D03*
X2157Y5158D02*
D03*
X1657Y6158D02*
D03*
X3657D02*
D03*
X2657D02*
D03*
X5355Y4942D02*
D03*
X4911Y5344D02*
D03*
X5324Y5587D02*
D03*
X4941Y6240D02*
D03*
X335Y6662D02*
D03*
X699Y6959D02*
D03*
X2057Y6969D02*
D03*
X4871Y7421D02*
D03*
X3297Y7970D02*
D03*
X5029Y6821D02*
D03*
X5634Y5415D02*
D03*
X5988Y4988D02*
D03*
X6044Y5541D02*
D03*
X6428Y4988D02*
D03*
X6584Y5396D02*
D03*
X6503Y5655D02*
D03*
X5468Y6264D02*
D03*
X5699Y6471D02*
D03*
X6791Y7038D02*
D03*
X7586Y1034D02*
D03*
X7598Y482D02*
D03*
X6870Y1575D02*
D03*
X7264Y1437D02*
D03*
X7616Y1783D02*
D03*
X8015Y1206D02*
D03*
X8081Y315D02*
D03*
X8617Y1620D02*
D03*
X7835Y2224D02*
D03*
X8657Y2158D02*
D03*
X8366Y2283D02*
D03*
X7157Y3158D02*
D03*
X7537Y2598D02*
D03*
X7045Y3590D02*
D03*
X7167Y4056D02*
D03*
X7955Y2876D02*
D03*
X8303Y3092D02*
D03*
X8394Y3590D02*
D03*
X7638Y4045D02*
D03*
X7915Y3590D02*
D03*
X8878Y295D02*
D03*
X8875Y1328D02*
D03*
X9115Y2081D02*
D03*
X9513Y2492D02*
D03*
X9695Y1427D02*
D03*
X9911Y325D02*
D03*
X9657Y2158D02*
D03*
X10030Y1476D02*
D03*
X10060Y1950D02*
D03*
X8766Y2685D02*
D03*
X9700Y3054D02*
D03*
X9157Y3158D02*
D03*
X10108Y2584D02*
D03*
X10591Y3029D02*
D03*
X10157Y3158D02*
D03*
X10156Y4036D02*
D03*
X10585Y3590D02*
D03*
X10168D02*
D03*
X6860Y5679D02*
D03*
X6877Y5317D02*
D03*
X7104Y5541D02*
D03*
X7106Y5224D02*
D03*
X7316Y7510D02*
D03*
X6791Y7982D02*
D03*
Y7510D02*
D03*
X7316Y7982D02*
D03*
Y7038D02*
D03*
X7841D02*
D03*
Y7510D02*
D03*
Y7982D02*
D03*
X8209Y5541D02*
D03*
X9439Y5709D02*
D03*
X8366Y7038D02*
D03*
X8415Y5709D02*
D03*
X8947Y6289D02*
D03*
X9741Y5475D02*
D03*
X10093Y5481D02*
D03*
X10289Y6003D02*
D03*
X9621Y6118D02*
D03*
X10098Y6427D02*
D03*
X10566Y7055D02*
D03*
X8366Y7510D02*
D03*
Y7982D02*
D03*
X10189Y7434D02*
D03*
X9685Y7894D02*
D03*
X9932Y7963D02*
D03*
X10524Y8006D02*
D03*
X2947Y8242D02*
D03*
X3297Y8246D02*
D03*
X3494Y8107D02*
D03*
X4907Y8961D02*
D03*
X5709Y8465D02*
D03*
X5118Y8661D02*
D03*
X5827Y9095D02*
D03*
X4204Y9502D02*
D03*
X4747Y9978D02*
D03*
X5984Y8327D02*
D03*
X6811Y8465D02*
D03*
X6697Y9843D02*
D03*
X6900Y10089D02*
D03*
X3394Y10308D02*
D03*
X3297Y11034D02*
D03*
Y10758D02*
D03*
X3465Y10906D02*
D03*
X4756Y10704D02*
D03*
X641Y12088D02*
D03*
X888Y12344D02*
D03*
X642D02*
D03*
X1500Y12088D02*
D03*
X3415Y11978D02*
D03*
X1248Y12344D02*
D03*
X1501D02*
D03*
X5087Y10743D02*
D03*
X5186Y10412D02*
D03*
X4764Y11289D02*
D03*
X6395Y10762D02*
D03*
X6677Y10427D02*
D03*
X6778Y11069D02*
D03*
X4784Y11972D02*
D03*
X5656Y11377D02*
D03*
X5245Y11547D02*
D03*
X4783Y12490D02*
D03*
X5127Y12373D02*
D03*
X5699Y12433D02*
D03*
X6121Y11871D02*
D03*
X6335Y11492D02*
D03*
X6108Y12310D02*
D03*
X6559Y12375D02*
D03*
X7316Y8455D02*
D03*
X7841D02*
D03*
X8366D02*
D03*
X7165Y9508D02*
D03*
X9685Y8140D02*
D03*
X10538Y8672D02*
D03*
X10015Y8701D02*
D03*
X9144Y8721D02*
D03*
X9626Y9085D02*
D03*
X8415Y9734D02*
D03*
X8657Y10158D02*
D03*
X8291Y10256D02*
D03*
X7200Y10368D02*
D03*
X7280Y10846D02*
D03*
X8434Y10476D02*
D03*
X8907Y10341D02*
D03*
X8759Y10588D02*
D03*
X8294Y12340D02*
D03*
X8657Y12158D02*
D03*
X9200Y12364D02*
D03*
X9626Y9734D02*
D03*
X10530Y9846D02*
D03*
X9758Y10041D02*
D03*
X9331Y10630D02*
D03*
X9430Y10322D02*
D03*
X9760Y10963D02*
D03*
X9233Y11758D02*
D03*
X9289Y12018D02*
D03*
X10079Y10659D02*
D03*
X10127Y10172D02*
D03*
X10157Y11158D02*
D03*
X9848Y11570D02*
D03*
X10075Y11891D02*
D03*
X10574Y12350D02*
D03*
X10915Y2096D02*
D03*
X11188Y1737D02*
D03*
X11466Y2040D02*
D03*
X11553Y625D02*
D03*
X12183Y317D02*
D03*
X11530Y1018D02*
D03*
X11890Y1177D02*
D03*
X12238Y1387D02*
D03*
X10650Y2520D02*
D03*
X11280Y2569D02*
D03*
X11157Y3158D02*
D03*
X11478Y3393D02*
D03*
X11657Y2158D02*
D03*
X12269Y3020D02*
D03*
X12254Y3557D02*
D03*
X11493Y4009D02*
D03*
X12281Y4114D02*
D03*
X11657Y4158D02*
D03*
X13071Y317D02*
D03*
X13960D02*
D03*
X12330Y1887D02*
D03*
X13157Y1158D02*
D03*
X13657Y2158D02*
D03*
X14849Y317D02*
D03*
X15737D02*
D03*
X16157Y1158D02*
D03*
X14157D02*
D03*
X15157D02*
D03*
X15657Y2158D02*
D03*
X12339Y2556D02*
D03*
X12657Y2158D02*
D03*
X13718Y2939D02*
D03*
X13157Y3158D02*
D03*
X13913Y3977D02*
D03*
X13200Y3987D02*
D03*
X16157Y3158D02*
D03*
X15157D02*
D03*
X14306Y3403D02*
D03*
X15657Y4158D02*
D03*
X14657D02*
D03*
X10841Y4902D02*
D03*
X11347Y4911D02*
D03*
X10685Y5566D02*
D03*
X11082Y5148D02*
D03*
X12657Y4158D02*
D03*
X10880Y6093D02*
D03*
X11694Y5680D02*
D03*
X11441Y6072D02*
D03*
X10858Y6518D02*
D03*
X11994Y6083D02*
D03*
X12536Y5730D02*
D03*
X13157Y5158D02*
D03*
X14801Y4772D02*
D03*
X15564Y4649D02*
D03*
X15945Y5078D02*
D03*
X14017Y5482D02*
D03*
X15157Y5158D02*
D03*
X15953Y5720D02*
D03*
X13946Y5996D02*
D03*
X13262Y7219D02*
D03*
X14547Y6513D02*
D03*
X14406Y7387D02*
D03*
X14657Y6158D02*
D03*
X15980Y6184D02*
D03*
X15362Y6666D02*
D03*
X15157Y7158D02*
D03*
X15972Y6847D02*
D03*
X16339Y7349D02*
D03*
X17514Y317D02*
D03*
X18403D02*
D03*
X16626D02*
D03*
X18157Y1158D02*
D03*
X17157D02*
D03*
X19291Y317D02*
D03*
X21069D02*
D03*
X20180D02*
D03*
X19157Y1158D02*
D03*
X21157D02*
D03*
X20157D02*
D03*
X17157Y3158D02*
D03*
X18657Y2158D02*
D03*
Y4158D02*
D03*
X18719Y3315D02*
D03*
X19657Y4158D02*
D03*
Y2158D02*
D03*
X21657D02*
D03*
X20657D02*
D03*
X19819Y3353D02*
D03*
X20942Y3332D02*
D03*
X20657Y4158D02*
D03*
X22846Y317D02*
D03*
X23734D02*
D03*
X21957D02*
D03*
X23157Y1158D02*
D03*
X22157D02*
D03*
X24623Y317D02*
D03*
X26400D02*
D03*
X25512D02*
D03*
X24157Y1158D02*
D03*
X26157D02*
D03*
X25157D02*
D03*
X21816Y3307D02*
D03*
X23657Y2158D02*
D03*
X22657D02*
D03*
Y4158D02*
D03*
X22828Y3345D02*
D03*
X23657Y4158D02*
D03*
X24657Y2158D02*
D03*
X25657D02*
D03*
X25819Y3311D02*
D03*
X23871Y3345D02*
D03*
X24745Y3328D02*
D03*
X25657Y4158D02*
D03*
X16365Y5131D02*
D03*
X16391Y6055D02*
D03*
X19157Y5158D02*
D03*
X17157D02*
D03*
X19996Y4928D02*
D03*
X20686Y4779D02*
D03*
X21976Y4862D02*
D03*
X20761Y5987D02*
D03*
X21157Y5158D02*
D03*
X21657Y6158D02*
D03*
X18657D02*
D03*
X16594Y7185D02*
D03*
X18157Y7158D02*
D03*
X17157D02*
D03*
X19657Y6158D02*
D03*
X22157Y7158D02*
D03*
X19157D02*
D03*
X21157D02*
D03*
X21135Y7406D02*
D03*
X23129Y4891D02*
D03*
X23607Y4895D02*
D03*
X22381Y4902D02*
D03*
X24257D02*
D03*
X23822Y5388D02*
D03*
X24614Y4903D02*
D03*
X25380Y4830D02*
D03*
X26039Y4889D02*
D03*
X24851Y5797D02*
D03*
X24994Y4914D02*
D03*
X25826Y5615D02*
D03*
X22657Y6158D02*
D03*
X23779Y5928D02*
D03*
X23812Y6319D02*
D03*
X23157Y7158D02*
D03*
X24157D02*
D03*
X23980Y7406D02*
D03*
X24815Y6596D02*
D03*
X25705Y6636D02*
D03*
X26157Y7158D02*
D03*
X24928Y7406D02*
D03*
X25157Y7158D02*
D03*
X25876Y7406D02*
D03*
X10643Y7452D02*
D03*
X11329Y7546D02*
D03*
X10974Y8985D02*
D03*
X11114Y7992D02*
D03*
X11657Y8158D02*
D03*
X12576Y7640D02*
D03*
X13064Y8116D02*
D03*
X11930Y8166D02*
D03*
X12556Y8225D02*
D03*
X11157Y9158D02*
D03*
X11375Y9319D02*
D03*
X11187Y10028D02*
D03*
X12610Y9574D02*
D03*
X11940Y9818D02*
D03*
X13037Y9735D02*
D03*
X14003Y7708D02*
D03*
X14733Y7714D02*
D03*
X14435Y7858D02*
D03*
X14213Y8261D02*
D03*
X15973Y7902D02*
D03*
X17342Y7406D02*
D03*
X15976Y7424D02*
D03*
X15969Y8389D02*
D03*
X16368Y8120D02*
D03*
X17303Y8140D02*
D03*
X14164Y9366D02*
D03*
X14741Y8563D02*
D03*
X14736Y9326D02*
D03*
X13716Y9459D02*
D03*
X15969Y10003D02*
D03*
X13806Y10023D02*
D03*
X15969Y8784D02*
D03*
X17313Y8719D02*
D03*
X16351Y8743D02*
D03*
X15971Y9248D02*
D03*
X17305Y9268D02*
D03*
X16378Y9272D02*
D03*
X10620Y10317D02*
D03*
X11657Y10158D02*
D03*
X11157Y11158D02*
D03*
X11955Y10788D02*
D03*
X11159Y10950D02*
D03*
X12273Y10115D02*
D03*
X13116Y10307D02*
D03*
X13699Y10713D02*
D03*
X12602Y11093D02*
D03*
X13141Y10853D02*
D03*
X13157Y11158D02*
D03*
X10819Y11343D02*
D03*
X11617Y11403D02*
D03*
X11383Y12004D02*
D03*
X10657Y12158D02*
D03*
X10877Y12004D02*
D03*
X11418Y12345D02*
D03*
X12588Y12013D02*
D03*
X13716Y11335D02*
D03*
X13155Y11518D02*
D03*
X11657Y12158D02*
D03*
X13716Y12021D02*
D03*
X13188Y12417D02*
D03*
X14389Y10045D02*
D03*
X14963Y10034D02*
D03*
X14483Y10710D02*
D03*
X14657Y10158D02*
D03*
X15050Y10784D02*
D03*
X15970Y10243D02*
D03*
X16383Y10204D02*
D03*
X17256Y10224D02*
D03*
X15967Y10638D02*
D03*
X16394Y10646D02*
D03*
X17331Y10661D02*
D03*
X14545Y11483D02*
D03*
X15957Y11320D02*
D03*
X15355Y11956D02*
D03*
X14450Y12057D02*
D03*
X15967Y12091D02*
D03*
X14657Y12158D02*
D03*
X16403Y11339D02*
D03*
X17080Y11558D02*
D03*
X15968Y11562D02*
D03*
X16457Y11900D02*
D03*
X17077Y12030D02*
D03*
X18291Y7406D02*
D03*
X19239D02*
D03*
X17657Y8158D02*
D03*
X17835Y8007D02*
D03*
X18657Y8158D02*
D03*
X20087Y7406D02*
D03*
X21657Y8158D02*
D03*
X20657D02*
D03*
X19657D02*
D03*
X20912Y8695D02*
D03*
X21744Y8723D02*
D03*
X18157Y9158D02*
D03*
X19157D02*
D03*
X17811Y10033D02*
D03*
X19657Y10158D02*
D03*
X18657D02*
D03*
X19973Y9291D02*
D03*
X20893Y9248D02*
D03*
X21766Y9256D02*
D03*
X21657Y10158D02*
D03*
X20833Y10224D02*
D03*
X22083Y7406D02*
D03*
X23032D02*
D03*
X22657Y8158D02*
D03*
X22811Y8742D02*
D03*
X23869Y8814D02*
D03*
X23884Y8344D02*
D03*
X25861Y8172D02*
D03*
X24833Y8231D02*
D03*
X24781Y8780D02*
D03*
X25830Y8736D02*
D03*
X24837Y9164D02*
D03*
X22750Y9250D02*
D03*
X23813Y9300D02*
D03*
X24181Y10014D02*
D03*
X22122Y10093D02*
D03*
X22891Y10194D02*
D03*
X23861Y10233D02*
D03*
X25166Y10038D02*
D03*
X25849Y9269D02*
D03*
X24800Y10210D02*
D03*
X25657Y10158D02*
D03*
X18203Y10643D02*
D03*
X18947Y10661D02*
D03*
X18193Y11326D02*
D03*
X19433D02*
D03*
X18756D02*
D03*
X19917Y10661D02*
D03*
X20886Y10616D02*
D03*
X21841Y10662D02*
D03*
X19914Y11326D02*
D03*
X21790D02*
D03*
X20894D02*
D03*
X17362Y11336D02*
D03*
X17907Y11715D02*
D03*
X17657Y12158D02*
D03*
X18497Y11722D02*
D03*
X18657Y12158D02*
D03*
X19322Y11679D02*
D03*
X20099Y11604D02*
D03*
X20684Y11685D02*
D03*
X19657Y12158D02*
D03*
X21657D02*
D03*
X20657D02*
D03*
X22819Y10599D02*
D03*
X23818Y10603D02*
D03*
X22663Y11326D02*
D03*
X22968D02*
D03*
X23767Y11636D02*
D03*
X24826Y10601D02*
D03*
X25688Y10593D02*
D03*
X25701Y11156D02*
D03*
X23946Y11229D02*
D03*
X24815Y11156D02*
D03*
X22152Y11789D02*
D03*
X23087Y11757D02*
D03*
X23657Y12158D02*
D03*
X22657D02*
D03*
X24117Y12449D02*
D03*
X23136Y12495D02*
D03*
X25166Y11816D02*
D03*
X25655Y11808D02*
D03*
X26055Y11912D02*
D03*
X24842Y12018D02*
D03*
X25174Y12147D02*
D03*
X888Y12658D02*
D03*
X640D02*
D03*
X641Y12914D02*
D03*
X1248Y12658D02*
D03*
X1501Y12658D02*
D03*
X1500Y12914D02*
D03*
X3297Y13968D02*
D03*
X2947Y14240D02*
D03*
X3297Y14244D02*
D03*
X2947Y16760D02*
D03*
X3297Y16756D02*
D03*
X3494Y14106D02*
D03*
X3799Y13809D02*
D03*
X3533Y14567D02*
D03*
X4766Y13126D02*
D03*
X5157Y13158D02*
D03*
X4769Y14330D02*
D03*
X4793Y13671D02*
D03*
X5226Y13880D02*
D03*
X3494Y16894D02*
D03*
X4774Y14911D02*
D03*
X5167Y16939D02*
D03*
X4774Y16988D02*
D03*
X1824Y18170D02*
D03*
X1496Y18189D02*
D03*
X787Y18228D02*
D03*
X2126Y18189D02*
D03*
X3150Y18199D02*
D03*
X2692Y18407D02*
D03*
X3297Y17032D02*
D03*
X3317Y17431D02*
D03*
X4144Y17884D02*
D03*
X4449Y17323D02*
D03*
X5157Y17158D02*
D03*
X4655Y17731D02*
D03*
X3873Y18391D02*
D03*
X4232Y18234D02*
D03*
X4134Y18504D02*
D03*
X4953Y17894D02*
D03*
X5669Y13276D02*
D03*
X6157Y13158D02*
D03*
X5684Y14010D02*
D03*
X6125Y13916D02*
D03*
X6657Y14158D02*
D03*
X6802Y12579D02*
D03*
X8068Y12692D02*
D03*
X7817Y12905D02*
D03*
X7157Y13158D02*
D03*
X7454Y13721D02*
D03*
X7657Y14158D02*
D03*
X5243Y14594D02*
D03*
X5694Y14813D02*
D03*
X6144Y14822D02*
D03*
X6331Y15187D02*
D03*
X6671Y14603D02*
D03*
X7523Y14749D02*
D03*
X8157Y15158D02*
D03*
X6744Y15396D02*
D03*
X7157Y15158D02*
D03*
X7732Y15444D02*
D03*
X8157Y13158D02*
D03*
X9157D02*
D03*
X8727Y13591D02*
D03*
X10023Y13491D02*
D03*
X9284Y14012D02*
D03*
X10157Y13158D02*
D03*
X11130Y12922D02*
D03*
X11157Y13158D02*
D03*
X10589Y14036D02*
D03*
X10653Y13363D02*
D03*
X11417Y14031D02*
D03*
X8657Y14158D02*
D03*
X9808Y14042D02*
D03*
X9769Y14723D02*
D03*
X8274Y14787D02*
D03*
X8937Y14764D02*
D03*
X9157Y15158D02*
D03*
X10636Y14758D02*
D03*
X11361Y14756D02*
D03*
X11157Y15158D02*
D03*
X9872Y15403D02*
D03*
X10157Y15158D02*
D03*
X10743Y15406D02*
D03*
X6238Y15929D02*
D03*
X5672Y16544D02*
D03*
X6820Y15973D02*
D03*
X7309Y15948D02*
D03*
X8657Y16158D02*
D03*
X7657D02*
D03*
X5787Y17175D02*
D03*
X7018Y18514D02*
D03*
X7490D02*
D03*
X7963D02*
D03*
X8842Y16565D02*
D03*
X9238Y15986D02*
D03*
X8791Y16979D02*
D03*
X9261Y16569D02*
D03*
X9241Y16952D02*
D03*
X9781Y15964D02*
D03*
X11204D02*
D03*
X10465Y15980D02*
D03*
X9779Y16544D02*
D03*
X10657Y16158D02*
D03*
X9803Y16949D02*
D03*
X10856Y17087D02*
D03*
X11157Y17158D02*
D03*
X11023Y17486D02*
D03*
X10945Y17795D02*
D03*
X11005Y18396D02*
D03*
X1568Y18567D02*
D03*
X1927Y18550D02*
D03*
X1929Y19354D02*
D03*
X1532Y19376D02*
D03*
X2689Y18840D02*
D03*
X3130Y18720D02*
D03*
X3209Y19390D02*
D03*
X3552Y19168D02*
D03*
X1826Y19828D02*
D03*
X2956Y19578D02*
D03*
X768Y20049D02*
D03*
X915Y20423D02*
D03*
X4488Y19921D02*
D03*
X4990Y18583D02*
D03*
X5106Y18858D02*
D03*
X4842Y19252D02*
D03*
X276Y21654D02*
D03*
X1003Y21378D02*
D03*
X825Y21789D02*
D03*
X851Y22292D02*
D03*
X827Y22805D02*
D03*
X1003Y20728D02*
D03*
X1460Y21346D02*
D03*
X2803Y21648D02*
D03*
X1467Y22333D02*
D03*
X2657Y22158D02*
D03*
X2136Y22323D02*
D03*
X276Y23110D02*
D03*
X1157Y23158D02*
D03*
X827Y23445D02*
D03*
X359Y24350D02*
D03*
X872Y23986D02*
D03*
X815Y24678D02*
D03*
X1555Y23307D02*
D03*
X3421Y23206D02*
D03*
X2126Y23317D02*
D03*
X1893Y24674D02*
D03*
X2657Y24158D02*
D03*
X2998Y24683D02*
D03*
X4232Y20748D02*
D03*
X3489Y21680D02*
D03*
X3848Y20856D02*
D03*
X4309Y21471D02*
D03*
X5344Y20719D02*
D03*
X6014Y20807D02*
D03*
X3434Y22587D02*
D03*
X4657Y22158D02*
D03*
X3657D02*
D03*
X3826Y24554D02*
D03*
X4157Y23158D02*
D03*
X4062Y23794D02*
D03*
X5657Y22158D02*
D03*
X6164Y21821D02*
D03*
X6157Y23158D02*
D03*
X4966Y24609D02*
D03*
X5576Y23760D02*
D03*
X6103Y24660D02*
D03*
X7490Y18986D02*
D03*
X7018Y19459D02*
D03*
Y18986D02*
D03*
X7490Y19459D02*
D03*
X7963D02*
D03*
Y18986D02*
D03*
X7866Y20663D02*
D03*
X8209Y20394D02*
D03*
X8780Y20472D02*
D03*
X10709Y18750D02*
D03*
X9976Y18876D02*
D03*
X11212Y18852D02*
D03*
X10039Y20620D02*
D03*
X11386Y19498D02*
D03*
X10633Y20612D02*
D03*
X11419Y19980D02*
D03*
X11521Y20638D02*
D03*
X6437Y20935D02*
D03*
X6791Y20925D02*
D03*
X6973Y21547D02*
D03*
X7304Y21087D02*
D03*
X7589Y20719D02*
D03*
X7627Y21540D02*
D03*
X8224Y21468D02*
D03*
X7830Y22054D02*
D03*
X6530Y22188D02*
D03*
X7179Y22227D02*
D03*
X7097Y22748D02*
D03*
X6561Y23804D02*
D03*
X7009Y23523D02*
D03*
X7005Y24615D02*
D03*
X7787Y22936D02*
D03*
X7985Y22627D02*
D03*
X7890Y23291D02*
D03*
X7918Y24636D02*
D03*
X8441Y23509D02*
D03*
X8465Y24685D02*
D03*
X8812Y20916D02*
D03*
X9475Y21266D02*
D03*
X8657Y22158D02*
D03*
X9147Y21504D02*
D03*
X9151Y22095D02*
D03*
X10157Y21158D02*
D03*
X11157D02*
D03*
X10196Y21981D02*
D03*
X9657Y22158D02*
D03*
X10657D02*
D03*
X9885Y22607D02*
D03*
X9102Y23292D02*
D03*
X9852Y23268D02*
D03*
X8979Y24474D02*
D03*
X8997Y23731D02*
D03*
X10157Y23158D02*
D03*
X10648Y22867D02*
D03*
X11157Y23158D02*
D03*
X9936Y24539D02*
D03*
X10699Y23819D02*
D03*
X10755Y24560D02*
D03*
X11958Y12498D02*
D03*
X12007Y12919D02*
D03*
X11525Y13403D02*
D03*
X12157Y13158D02*
D03*
X12694Y13498D02*
D03*
X12810Y12844D02*
D03*
X13716Y12770D02*
D03*
X14157Y13158D02*
D03*
X13157D02*
D03*
X13588Y13540D02*
D03*
X13657Y14158D02*
D03*
X11657D02*
D03*
X12657D02*
D03*
X12149Y14264D02*
D03*
X12503Y14907D02*
D03*
X12157Y15158D02*
D03*
X13177Y14202D02*
D03*
X14349Y14305D02*
D03*
X13521Y14634D02*
D03*
X13157Y15158D02*
D03*
X14102Y14922D02*
D03*
X14157Y15158D02*
D03*
X14473Y12615D02*
D03*
X15378Y12667D02*
D03*
X14422Y13517D02*
D03*
X15157Y13158D02*
D03*
X15364Y13580D02*
D03*
X15970Y12500D02*
D03*
X16435Y12546D02*
D03*
X17077Y12672D02*
D03*
X15973Y12977D02*
D03*
X17862Y12689D02*
D03*
X17157Y13158D02*
D03*
X15964Y14042D02*
D03*
X15968Y13684D02*
D03*
X16378Y13691D02*
D03*
X14589Y14816D02*
D03*
X15284Y14214D02*
D03*
X15971Y14582D02*
D03*
X16400Y14354D02*
D03*
X17489Y13853D02*
D03*
X17186Y14514D02*
D03*
X16427Y14902D02*
D03*
X17757Y15001D02*
D03*
X17250Y15141D02*
D03*
X11907Y15392D02*
D03*
X13127Y15447D02*
D03*
X11657Y16158D02*
D03*
X12657D02*
D03*
X13162Y16369D02*
D03*
X13558Y15448D02*
D03*
X14026Y15404D02*
D03*
X13942Y15982D02*
D03*
X13657Y16158D02*
D03*
X14358Y16432D02*
D03*
X13968Y16681D02*
D03*
X12157Y17158D02*
D03*
X12474Y17005D02*
D03*
X11999Y17689D02*
D03*
X12715Y17784D02*
D03*
X14561Y16950D02*
D03*
X13823Y17136D02*
D03*
X13649Y17606D02*
D03*
X14404Y17661D02*
D03*
X15960Y15263D02*
D03*
X16414Y15792D02*
D03*
X14605Y15915D02*
D03*
X15975Y15998D02*
D03*
X16385Y16194D02*
D03*
X17304Y15856D02*
D03*
X17061Y16551D02*
D03*
X17569Y16567D02*
D03*
X18065Y16573D02*
D03*
X15970Y17052D02*
D03*
X15973Y16577D02*
D03*
X16436Y16584D02*
D03*
X15949Y17481D02*
D03*
X16440Y17093D02*
D03*
X17783Y17091D02*
D03*
X17064Y17102D02*
D03*
X16447Y17499D02*
D03*
X17214Y17502D02*
D03*
X17971Y17505D02*
D03*
X18562Y12689D02*
D03*
X20075Y12723D02*
D03*
X18157Y13158D02*
D03*
X20632Y12922D02*
D03*
X19157Y13158D02*
D03*
X20747Y12575D02*
D03*
X21475Y12532D02*
D03*
X22608Y12597D02*
D03*
X21157Y13158D02*
D03*
X22103Y12972D02*
D03*
X21322Y13000D02*
D03*
X19657Y14158D02*
D03*
X20657D02*
D03*
X18657D02*
D03*
X20048Y14759D02*
D03*
X20576Y14768D02*
D03*
X20885Y13505D02*
D03*
X21841Y13543D02*
D03*
X21812Y14130D02*
D03*
X21164Y14754D02*
D03*
X21736Y14466D02*
D03*
X22528Y14965D02*
D03*
X22919Y13025D02*
D03*
X23679Y12930D02*
D03*
X23157Y13158D02*
D03*
X24157D02*
D03*
X23863Y13253D02*
D03*
X26058Y12558D02*
D03*
X24859Y13208D02*
D03*
X25126Y12999D02*
D03*
X26012Y13094D02*
D03*
X22836Y14122D02*
D03*
X22841Y13509D02*
D03*
X23858Y13711D02*
D03*
X23758Y14472D02*
D03*
X23852Y14135D02*
D03*
X24539Y14921D02*
D03*
X24936Y14104D02*
D03*
X25997Y13645D02*
D03*
X26001Y14133D02*
D03*
X24923Y14466D02*
D03*
X25235Y14760D02*
D03*
X26484Y14974D02*
D03*
X18157Y15158D02*
D03*
X19157D02*
D03*
X18416Y15818D02*
D03*
X19657Y16158D02*
D03*
X18657D02*
D03*
X21157Y15158D02*
D03*
X20846Y15666D02*
D03*
X20089Y16547D02*
D03*
X21657Y16158D02*
D03*
X20547Y16543D02*
D03*
X18434Y17104D02*
D03*
X19105Y17100D02*
D03*
X19944Y17468D02*
D03*
X18657Y18158D02*
D03*
X18769Y17499D02*
D03*
X19657Y18158D02*
D03*
X20035Y17108D02*
D03*
X21111Y17068D02*
D03*
X20550Y17082D02*
D03*
X20563Y17482D02*
D03*
X21148Y17470D02*
D03*
X20657Y18158D02*
D03*
X21751Y15123D02*
D03*
X22157Y15158D02*
D03*
X21815Y15708D02*
D03*
X22765Y15266D02*
D03*
X22776Y16001D02*
D03*
X23510Y15000D02*
D03*
X24927Y15132D02*
D03*
X25157Y15158D02*
D03*
X23157D02*
D03*
X26079Y15182D02*
D03*
X23760Y15275D02*
D03*
X22785Y16516D02*
D03*
X24774Y17734D02*
D03*
X25911Y17264D02*
D03*
X25378Y17617D02*
D03*
X25812Y17683D02*
D03*
X26478Y17689D02*
D03*
X11916Y18577D02*
D03*
X12658Y18899D02*
D03*
X13447Y19122D02*
D03*
X13762Y18512D02*
D03*
X14879Y18245D02*
D03*
X14268Y18457D02*
D03*
X14688Y19322D02*
D03*
X14972Y19548D02*
D03*
X11850Y19587D02*
D03*
X12157Y21158D02*
D03*
X12203Y20233D02*
D03*
X13178Y21022D02*
D03*
X14047Y20418D02*
D03*
X13368Y20474D02*
D03*
X14737Y20454D02*
D03*
X14865Y20933D02*
D03*
X15808Y18199D02*
D03*
X15919Y18643D02*
D03*
X16154Y19039D02*
D03*
X15724Y19515D02*
D03*
X16396Y18170D02*
D03*
X17657Y18158D02*
D03*
X17090Y18209D02*
D03*
X16378Y18701D02*
D03*
X17441Y18244D02*
D03*
X17157Y19158D02*
D03*
X15468Y19752D02*
D03*
X16280Y19921D02*
D03*
X16224Y20385D02*
D03*
X15283Y20420D02*
D03*
X16276Y20927D02*
D03*
X15496Y20943D02*
D03*
X16798Y20035D02*
D03*
X17397Y19966D02*
D03*
X17812Y20036D02*
D03*
X17289Y20918D02*
D03*
X11575Y21299D02*
D03*
X13258Y21329D02*
D03*
X11543Y22283D02*
D03*
X13287Y21841D02*
D03*
X13657Y22158D02*
D03*
X13750Y21442D02*
D03*
X14157Y21158D02*
D03*
X14468Y21378D02*
D03*
X13838Y21828D02*
D03*
X14464Y21821D02*
D03*
X13946Y22302D02*
D03*
X12157Y23158D02*
D03*
X12166Y22311D02*
D03*
X12738Y22322D02*
D03*
X11753Y23237D02*
D03*
X11880Y23809D02*
D03*
X11777Y24555D02*
D03*
X13132Y22450D02*
D03*
X13157Y23158D02*
D03*
X14006Y23209D02*
D03*
X13003Y23784D02*
D03*
X13966Y23810D02*
D03*
X14016Y24626D02*
D03*
X15157Y21158D02*
D03*
X15542Y22282D02*
D03*
X15007Y22891D02*
D03*
X15049Y22323D02*
D03*
X15157Y23158D02*
D03*
X16157Y21158D02*
D03*
X17657Y22158D02*
D03*
X16657D02*
D03*
X16157Y23158D02*
D03*
X17918Y22289D02*
D03*
X16437Y22328D02*
D03*
X15157Y23610D02*
D03*
X15063Y24482D02*
D03*
X15415Y23852D02*
D03*
X15247Y24693D02*
D03*
X16552Y23852D02*
D03*
X17689D02*
D03*
X17760Y24693D02*
D03*
X15876D02*
D03*
X17132D02*
D03*
X16504D02*
D03*
X18262Y18635D02*
D03*
X19916Y18762D02*
D03*
X18157Y19158D02*
D03*
X19157D02*
D03*
X19990Y19510D02*
D03*
X20959Y18459D02*
D03*
X21844Y18641D02*
D03*
X21861Y19271D02*
D03*
X20607Y19996D02*
D03*
X21004Y19620D02*
D03*
X21406Y20044D02*
D03*
X18657Y20158D02*
D03*
X18979Y20860D02*
D03*
X18242Y20893D02*
D03*
X19608Y20951D02*
D03*
X19157Y21158D02*
D03*
X19657Y20158D02*
D03*
X21831Y20719D02*
D03*
X19986Y20783D02*
D03*
X20797Y20728D02*
D03*
X21066Y22088D02*
D03*
X22848Y18646D02*
D03*
X22878Y18172D02*
D03*
X22822Y19282D02*
D03*
X23882Y18657D02*
D03*
X23897Y19977D02*
D03*
X23926Y19418D02*
D03*
X25807Y18829D02*
D03*
X24843Y18878D02*
D03*
X24531Y19982D02*
D03*
X24950Y19514D02*
D03*
X25156Y19899D02*
D03*
X22421Y20071D02*
D03*
X23388Y20039D02*
D03*
X22890Y20063D02*
D03*
X21884Y20076D02*
D03*
X22799Y20874D02*
D03*
X22657Y22158D02*
D03*
X23829Y20581D02*
D03*
X25758Y20069D02*
D03*
X24794Y20382D02*
D03*
X23657Y22158D02*
D03*
X25866Y20807D02*
D03*
X24813Y20817D02*
D03*
X18657Y22158D02*
D03*
X18913Y22334D02*
D03*
X18991Y22880D02*
D03*
X19385Y22508D02*
D03*
X19739Y22848D02*
D03*
X19777Y22263D02*
D03*
X20657Y22158D02*
D03*
X20723Y22407D02*
D03*
X19956Y22565D02*
D03*
X20750Y22992D02*
D03*
X20157Y23158D02*
D03*
X18157D02*
D03*
X19157D02*
D03*
X18964Y23454D02*
D03*
X18388Y24693D02*
D03*
X18825Y23852D02*
D03*
X19016Y24693D02*
D03*
X19791Y23310D02*
D03*
X20815Y23535D02*
D03*
X19962Y23852D02*
D03*
X19644Y24693D02*
D03*
X20900D02*
D03*
X20272D02*
D03*
X21657Y22158D02*
D03*
X24157Y23158D02*
D03*
X21157D02*
D03*
X23157D02*
D03*
X22157D02*
D03*
X24657Y22158D02*
D03*
X25657D02*
D03*
X26157Y23158D02*
D03*
X24510Y23852D02*
D03*
X25157Y23158D02*
D03*
X25647Y23852D02*
D03*
X21099D02*
D03*
X23373D02*
D03*
X22236D02*
D03*
X21528Y24693D02*
D03*
X22785D02*
D03*
X22157D02*
D03*
X25297D02*
D03*
X26553D02*
D03*
X25925D02*
D03*
X23413D02*
D03*
X24669D02*
D03*
X24041D02*
D03*
X27289Y317D02*
D03*
X28177D02*
D03*
X27157Y1158D02*
D03*
X28157D02*
D03*
X27657Y2158D02*
D03*
X29066Y317D02*
D03*
X29954D02*
D03*
X30157Y1158D02*
D03*
X28657Y2158D02*
D03*
X29157Y1158D02*
D03*
X29657Y2158D02*
D03*
X26657D02*
D03*
X27800Y3311D02*
D03*
X26768Y3315D02*
D03*
X27688Y4850D02*
D03*
X26786Y4934D02*
D03*
X28761Y3311D02*
D03*
X29082Y4895D02*
D03*
X28496Y4934D02*
D03*
X30653Y4923D02*
D03*
X29929Y4939D02*
D03*
X31732Y317D02*
D03*
X32620D02*
D03*
X30843D02*
D03*
X32157Y1158D02*
D03*
X31157D02*
D03*
X33509Y317D02*
D03*
X34397D02*
D03*
X34157Y1158D02*
D03*
X33157D02*
D03*
X34657Y2158D02*
D03*
X33657D02*
D03*
X30657D02*
D03*
X31657D02*
D03*
X32157Y3158D02*
D03*
X30682Y3350D02*
D03*
X31740Y4884D02*
D03*
X31227Y4923D02*
D03*
X32657Y2158D02*
D03*
X34157Y3158D02*
D03*
X33157D02*
D03*
X32440Y4900D02*
D03*
X33153Y4889D02*
D03*
X34101Y4911D02*
D03*
X26817Y5844D02*
D03*
X27818Y5816D02*
D03*
X26818Y6600D02*
D03*
X27738Y6388D02*
D03*
X28157Y7158D02*
D03*
X28657Y6158D02*
D03*
X29657D02*
D03*
X29020Y6716D02*
D03*
X28208Y6809D02*
D03*
X29683Y6753D02*
D03*
X30157Y7158D02*
D03*
X26824Y7406D02*
D03*
X27157Y7158D02*
D03*
X27773Y7406D02*
D03*
X26822Y8193D02*
D03*
X27800Y8186D02*
D03*
Y8726D02*
D03*
X28721Y7406D02*
D03*
X29669D02*
D03*
X29836Y8226D02*
D03*
X28783Y8732D02*
D03*
X28814Y8235D02*
D03*
X29682Y8781D02*
D03*
X30847Y6633D02*
D03*
X31768Y6641D02*
D03*
X31157Y7158D02*
D03*
X32514Y7406D02*
D03*
X31566D02*
D03*
X32936Y6769D02*
D03*
X33928Y6779D02*
D03*
X34157Y7158D02*
D03*
X33157D02*
D03*
X34410Y7406D02*
D03*
X33462D02*
D03*
X30460Y8298D02*
D03*
X30617Y7406D02*
D03*
X31105Y8282D02*
D03*
X30332Y8697D02*
D03*
X31834Y8303D02*
D03*
X31120Y8745D02*
D03*
X32361Y8298D02*
D03*
X33996Y8314D02*
D03*
X33192Y8324D02*
D03*
X32324Y8830D02*
D03*
X33189Y8857D02*
D03*
X33793Y8884D02*
D03*
X35286Y317D02*
D03*
X36174D02*
D03*
X35157Y1158D02*
D03*
X36157D02*
D03*
X35657Y2158D02*
D03*
X37063Y317D02*
D03*
X37952D02*
D03*
X37157Y1158D02*
D03*
X36657Y2158D02*
D03*
X37657D02*
D03*
X37157Y3158D02*
D03*
X35157D02*
D03*
X36157D02*
D03*
X34858Y4861D02*
D03*
X35689Y4889D02*
D03*
X36179Y4900D02*
D03*
X36772Y4424D02*
D03*
X36849Y4781D02*
D03*
X37711Y4866D02*
D03*
X36671Y5030D02*
D03*
X36860Y5376D02*
D03*
X37714Y5389D02*
D03*
X38840Y317D02*
D03*
X39157Y1158D02*
D03*
X38157D02*
D03*
X39657Y2158D02*
D03*
X38657D02*
D03*
X39729Y317D02*
D03*
X40617D02*
D03*
X40157Y1158D02*
D03*
Y3158D02*
D03*
X40657Y2158D02*
D03*
X41157Y3158D02*
D03*
X38157D02*
D03*
X38657Y4158D02*
D03*
X38470Y4837D02*
D03*
X38272Y5610D02*
D03*
X39157Y5158D02*
D03*
X38820Y5609D02*
D03*
X39157Y3158D02*
D03*
X40657Y4158D02*
D03*
X39657D02*
D03*
X40157Y5158D02*
D03*
X41157D02*
D03*
X40592Y5790D02*
D03*
X35194Y6760D02*
D03*
X35815Y7082D02*
D03*
X35157Y7158D02*
D03*
X36157D02*
D03*
X35358Y7406D02*
D03*
X36298Y6761D02*
D03*
X37824Y6392D02*
D03*
X36806Y6610D02*
D03*
X36307Y7406D02*
D03*
X37802Y6764D02*
D03*
X37758Y7380D02*
D03*
X34822Y8287D02*
D03*
X35536Y8309D02*
D03*
X36020Y8443D02*
D03*
X34818Y8876D02*
D03*
X36324Y8699D02*
D03*
X35965Y8849D02*
D03*
X36820Y7871D02*
D03*
X38141Y7828D02*
D03*
X37787Y7849D02*
D03*
X36806Y8455D02*
D03*
X37790Y8332D02*
D03*
X38113Y8705D02*
D03*
X38332Y6398D02*
D03*
X38839Y6379D02*
D03*
X38294Y6745D02*
D03*
X38855Y6735D02*
D03*
X39291Y6773D02*
D03*
X39353Y6401D02*
D03*
X39861Y5822D02*
D03*
X39749Y6377D02*
D03*
X39775Y6745D02*
D03*
X40309Y6415D02*
D03*
X40352Y6734D02*
D03*
X38335Y7373D02*
D03*
X39421Y7356D02*
D03*
X38824Y7377D02*
D03*
X38285Y8341D02*
D03*
X39093Y7815D02*
D03*
X39145Y8724D02*
D03*
X40137Y7814D02*
D03*
X40935Y7340D02*
D03*
X40214Y7347D02*
D03*
X40218Y8737D02*
D03*
X41097Y7824D02*
D03*
X40657Y8158D02*
D03*
X26863Y9104D02*
D03*
X27788Y9270D02*
D03*
X27560Y10079D02*
D03*
X28808Y9213D02*
D03*
X29713Y9435D02*
D03*
X26795Y10601D02*
D03*
X26896Y10091D02*
D03*
X29687Y11192D02*
D03*
X30769Y9011D02*
D03*
X31786Y8990D02*
D03*
X30157Y9158D02*
D03*
X30479Y9430D02*
D03*
X31831Y10691D02*
D03*
X34021Y10686D02*
D03*
X33242D02*
D03*
X31170Y10691D02*
D03*
X31157Y11158D02*
D03*
X30546Y11183D02*
D03*
X31423Y11169D02*
D03*
X32301Y11187D02*
D03*
X32415Y10705D02*
D03*
X34157Y11158D02*
D03*
X33157D02*
D03*
X32831Y11170D02*
D03*
X34587Y11174D02*
D03*
X33709Y11176D02*
D03*
X29664Y11496D02*
D03*
X26801Y13092D02*
D03*
X27738Y13092D02*
D03*
X30546Y11475D02*
D03*
X31423Y11477D02*
D03*
X32831Y11463D02*
D03*
X33709Y11465D02*
D03*
X34587Y11475D02*
D03*
X32301Y11487D02*
D03*
X30545Y13137D02*
D03*
X29729Y13143D02*
D03*
X31157Y13158D02*
D03*
X30157D02*
D03*
X31691Y13137D02*
D03*
X32570Y13116D02*
D03*
X33157Y13158D02*
D03*
X34157D02*
D03*
X33493Y13181D02*
D03*
X35550Y8980D02*
D03*
X36351Y9009D02*
D03*
X35095Y10695D02*
D03*
X36833Y8968D02*
D03*
X37757Y8996D02*
D03*
X35822Y10730D02*
D03*
X36772Y10719D02*
D03*
X35154Y11188D02*
D03*
X36339Y11035D02*
D03*
X36032Y11174D02*
D03*
X37883Y10757D02*
D03*
X36778Y11371D02*
D03*
X36879Y11163D02*
D03*
X38821Y10218D02*
D03*
X38863Y9850D02*
D03*
X39363Y10219D02*
D03*
X39381Y9848D02*
D03*
X40425Y9839D02*
D03*
X39761Y9847D02*
D03*
X39732Y10218D02*
D03*
X40937Y10218D02*
D03*
X40211Y10219D02*
D03*
X39765Y11019D02*
D03*
X38321Y11126D02*
D03*
X39371Y11019D02*
D03*
X38978D02*
D03*
X40537Y11113D02*
D03*
X41050Y11150D02*
D03*
X35154Y11480D02*
D03*
X35880Y11545D02*
D03*
X36791Y11684D02*
D03*
X37869Y11681D02*
D03*
X35157Y13158D02*
D03*
X35814Y12844D02*
D03*
X36048Y13086D02*
D03*
X37838Y12081D02*
D03*
X36773Y12260D02*
D03*
X39371Y11412D02*
D03*
X39765D02*
D03*
X38978D02*
D03*
X39765Y11806D02*
D03*
X39371D02*
D03*
X40898Y11459D02*
D03*
X38297Y12122D02*
D03*
X38978Y11806D02*
D03*
X39765Y12200D02*
D03*
X38978D02*
D03*
X39371D02*
D03*
X41506Y317D02*
D03*
X42394D02*
D03*
X41157Y1158D02*
D03*
X43157D02*
D03*
X42157D02*
D03*
X43283Y317D02*
D03*
X45060D02*
D03*
X44172D02*
D03*
X44157Y1158D02*
D03*
X45157D02*
D03*
X44657Y2158D02*
D03*
X42657D02*
D03*
X43157Y3158D02*
D03*
X41657Y4158D02*
D03*
X42157Y3158D02*
D03*
X42657Y4158D02*
D03*
X43657Y2158D02*
D03*
X44928Y2778D02*
D03*
X43657Y4158D02*
D03*
X44157Y3158D02*
D03*
X44657Y4158D02*
D03*
X45949Y317D02*
D03*
X46157Y1158D02*
D03*
X45569Y1543D02*
D03*
X46034Y1886D02*
D03*
X46819Y1898D02*
D03*
X46837Y317D02*
D03*
X47726D02*
D03*
X48157Y1158D02*
D03*
X46836Y1554D02*
D03*
X47157Y1158D02*
D03*
X47853Y2140D02*
D03*
X45657Y2158D02*
D03*
X46657D02*
D03*
X46157Y3158D02*
D03*
X45657Y4158D02*
D03*
X46832Y3307D02*
D03*
X46657Y4158D02*
D03*
X47468Y2283D02*
D03*
X47926Y2827D02*
D03*
X47566Y2857D02*
D03*
X47508Y3763D02*
D03*
X47988Y3741D02*
D03*
X42157Y5158D02*
D03*
X43157D02*
D03*
X41179Y6404D02*
D03*
X41312Y5822D02*
D03*
X42657Y6158D02*
D03*
X44157Y5158D02*
D03*
X45433Y4882D02*
D03*
X45459Y6083D02*
D03*
X43657Y6158D02*
D03*
X44657D02*
D03*
X44906Y6548D02*
D03*
X41264Y6756D02*
D03*
X42985Y6748D02*
D03*
X41871Y7339D02*
D03*
X42248Y7826D02*
D03*
X42460Y7343D02*
D03*
X43195Y7819D02*
D03*
X44028Y6734D02*
D03*
X44066Y7350D02*
D03*
X43205D02*
D03*
X45150Y7818D02*
D03*
X44240Y7832D02*
D03*
X46157Y5158D02*
D03*
X46942Y5045D02*
D03*
X46128Y5638D02*
D03*
X46985Y5965D02*
D03*
X46657Y6158D02*
D03*
X47577Y4409D02*
D03*
X47922Y4421D02*
D03*
X47925Y4993D02*
D03*
X47509Y5878D02*
D03*
X47592Y5053D02*
D03*
X48190Y5679D02*
D03*
X45620Y6746D02*
D03*
X45657Y6158D02*
D03*
X46187Y6491D02*
D03*
X45567Y7366D02*
D03*
X46145Y7370D02*
D03*
X46212Y7820D02*
D03*
X46753Y6723D02*
D03*
X47507Y6556D02*
D03*
X46695Y7366D02*
D03*
X47077Y7852D02*
D03*
X47544Y7873D02*
D03*
X48614Y317D02*
D03*
X49503D02*
D03*
X48327Y2146D02*
D03*
X49157Y1158D02*
D03*
X48657Y2158D02*
D03*
X50157Y1158D02*
D03*
X50392Y317D02*
D03*
X50197Y1457D02*
D03*
X49657Y2158D02*
D03*
X49862Y2096D02*
D03*
X50657Y2158D02*
D03*
X48273Y2527D02*
D03*
X48864Y2829D02*
D03*
X48209Y3275D02*
D03*
X48902Y3755D02*
D03*
X49399Y2527D02*
D03*
X49961Y2707D02*
D03*
X50941Y2839D02*
D03*
X49901Y3681D02*
D03*
X50157Y3158D02*
D03*
X50806Y3261D02*
D03*
X51280Y317D02*
D03*
X52169D02*
D03*
X51157Y1158D02*
D03*
X51918Y1238D02*
D03*
X52236Y2032D02*
D03*
X53781Y370D02*
D03*
X52293Y1609D02*
D03*
X53157Y1158D02*
D03*
X53657Y2158D02*
D03*
X51289Y2185D02*
D03*
X51826Y2192D02*
D03*
X51741Y2845D02*
D03*
X51297Y3787D02*
D03*
X51749Y3797D02*
D03*
X52311Y2757D02*
D03*
X52657Y2158D02*
D03*
X53157Y3158D02*
D03*
X52287Y3308D02*
D03*
X53258Y3524D02*
D03*
X52657Y4158D02*
D03*
X48657D02*
D03*
X49155Y4479D02*
D03*
X48456Y4993D02*
D03*
X49106Y4995D02*
D03*
X49612Y5639D02*
D03*
X49657Y4158D02*
D03*
X50657D02*
D03*
X49928Y4661D02*
D03*
X49629Y5248D02*
D03*
X50157Y5158D02*
D03*
X50807Y5648D02*
D03*
X48657Y6158D02*
D03*
X48740Y5866D02*
D03*
X49613Y6733D02*
D03*
X48652Y7763D02*
D03*
X49120Y7519D02*
D03*
X49657Y6158D02*
D03*
X50657D02*
D03*
X50268Y6716D02*
D03*
X49706Y7396D02*
D03*
X50814Y6751D02*
D03*
X50680Y7337D02*
D03*
X50920Y4681D02*
D03*
X51376Y4472D02*
D03*
X50819Y5237D02*
D03*
X51382Y4995D02*
D03*
X51400Y5862D02*
D03*
X51729Y5012D02*
D03*
X53657Y4158D02*
D03*
X51740Y4430D02*
D03*
X51783Y5937D02*
D03*
X53157Y5158D02*
D03*
X52257Y5355D02*
D03*
X51252Y6559D02*
D03*
X51775Y6532D02*
D03*
X51186Y7937D02*
D03*
X51206Y7392D02*
D03*
X51893Y7488D02*
D03*
X52347Y6631D02*
D03*
X53657Y6158D02*
D03*
X52657D02*
D03*
X52283Y7730D02*
D03*
X52318Y7115D02*
D03*
X53157Y7158D02*
D03*
X41164Y8737D02*
D03*
X41281Y9854D02*
D03*
X41348Y10944D02*
D03*
X42106Y10969D02*
D03*
X42657Y8158D02*
D03*
X43657D02*
D03*
X43448Y8712D02*
D03*
X42123Y8724D02*
D03*
X44117Y8989D02*
D03*
X44157Y11158D02*
D03*
X42399Y11184D02*
D03*
X42764Y11196D02*
D03*
X43157Y11158D02*
D03*
X43642Y11182D02*
D03*
X42403Y11500D02*
D03*
X42764Y11488D02*
D03*
X43642Y11490D02*
D03*
X44657Y8158D02*
D03*
X45657D02*
D03*
X45092Y9007D02*
D03*
X45880Y9001D02*
D03*
X46657Y8158D02*
D03*
X48657D02*
D03*
X47431Y8410D02*
D03*
X46861Y8982D02*
D03*
X48582Y8750D02*
D03*
X47533Y8979D02*
D03*
X45571Y11135D02*
D03*
X46951Y10513D02*
D03*
X46157Y11158D02*
D03*
X44520Y11500D02*
D03*
Y11200D02*
D03*
X44991Y11248D02*
D03*
X47556Y11100D02*
D03*
X47563Y10506D02*
D03*
X48611Y10586D02*
D03*
X42223Y11822D02*
D03*
X43316Y11804D02*
D03*
X45081Y11772D02*
D03*
X45943Y11798D02*
D03*
X42385Y12255D02*
D03*
X44134Y11808D02*
D03*
X42784Y11827D02*
D03*
X41783Y12263D02*
D03*
X42730Y12353D02*
D03*
X43442Y12393D02*
D03*
X44429Y12365D02*
D03*
X46548Y12348D02*
D03*
X45054Y12380D02*
D03*
X45733Y12383D02*
D03*
X46815Y11782D02*
D03*
X47734Y12204D02*
D03*
X47050Y12388D02*
D03*
X49064Y8080D02*
D03*
X49533Y8283D02*
D03*
X49070Y8582D02*
D03*
X50143Y8982D02*
D03*
X49405Y9287D02*
D03*
X50657Y8158D02*
D03*
X50586Y9434D02*
D03*
X50295Y9821D02*
D03*
X50812Y10035D02*
D03*
X49494Y11062D02*
D03*
X49506Y11458D02*
D03*
X51210Y8629D02*
D03*
X51891Y8671D02*
D03*
X51157Y9158D02*
D03*
X51877Y9258D02*
D03*
X51895Y8113D02*
D03*
X53657Y8158D02*
D03*
X52657D02*
D03*
X52236Y8585D02*
D03*
X53157Y9158D02*
D03*
X52260Y9407D02*
D03*
X51216Y10006D02*
D03*
X51893Y9848D02*
D03*
X51895Y10521D02*
D03*
X51907Y11153D02*
D03*
X51878Y11498D02*
D03*
X52244Y10328D02*
D03*
X53657Y10158D02*
D03*
X52657D02*
D03*
X52247Y11045D02*
D03*
X53157Y11158D02*
D03*
X52250Y11837D02*
D03*
X53657Y12158D02*
D03*
X52657D02*
D03*
X51898Y13065D02*
D03*
X52278Y12629D02*
D03*
X52250Y13001D02*
D03*
X53157Y13158D02*
D03*
X26778Y13672D02*
D03*
X27733Y13706D02*
D03*
X26775Y14141D02*
D03*
X27733Y14135D02*
D03*
X26817Y14450D02*
D03*
X29682Y13609D02*
D03*
X29689Y14011D02*
D03*
X27734Y14463D02*
D03*
X28695Y14455D02*
D03*
X27157Y15158D02*
D03*
X28133Y14922D02*
D03*
X27419Y15068D02*
D03*
X29064Y14552D02*
D03*
X29589Y14502D02*
D03*
X29091Y15060D02*
D03*
X29605Y15051D02*
D03*
X30157Y15158D02*
D03*
X30313Y13619D02*
D03*
X30945Y13609D02*
D03*
X31160Y13999D02*
D03*
X31706Y13634D02*
D03*
X31745Y13998D02*
D03*
X32589Y13691D02*
D03*
X34779Y13415D02*
D03*
X33984Y13529D02*
D03*
X32426Y13992D02*
D03*
X33405Y13985D02*
D03*
X34191Y13998D02*
D03*
X30315Y14443D02*
D03*
X30594Y13999D02*
D03*
X31206Y14441D02*
D03*
X30678Y15044D02*
D03*
X31778Y14982D02*
D03*
X32330Y14989D02*
D03*
X33915Y14482D02*
D03*
X34699Y14448D02*
D03*
X34686Y14809D02*
D03*
X33080Y15045D02*
D03*
X33698Y15054D02*
D03*
X34157Y15158D02*
D03*
X26840Y15502D02*
D03*
X27872Y15540D02*
D03*
X28834Y15258D02*
D03*
X31157Y15158D02*
D03*
X31032Y17264D02*
D03*
X26765D02*
D03*
X28472D02*
D03*
X27618D02*
D03*
X27359Y17686D02*
D03*
X28247D02*
D03*
X29012Y17717D02*
D03*
X29095Y17264D02*
D03*
X30179D02*
D03*
X29563Y17268D02*
D03*
X29617Y17693D02*
D03*
X30227Y17710D02*
D03*
X30947Y17738D02*
D03*
X31674Y15345D02*
D03*
X32593Y15434D02*
D03*
X32298Y17255D02*
D03*
X34112Y15496D02*
D03*
X33503Y15503D02*
D03*
X34610Y15514D02*
D03*
X31846Y17264D02*
D03*
X32739D02*
D03*
X32877Y17691D02*
D03*
X31788Y17742D02*
D03*
X32331Y17710D02*
D03*
X32549Y18635D02*
D03*
X33593Y17264D02*
D03*
X34446D02*
D03*
X34542Y17695D02*
D03*
X33622Y18740D02*
D03*
X33687Y17705D02*
D03*
X34243Y18687D02*
D03*
X35049Y13760D02*
D03*
X35964Y13941D02*
D03*
X36915Y13971D02*
D03*
X36971Y14438D02*
D03*
X37234Y13968D02*
D03*
X38247Y13969D02*
D03*
X37899Y13973D02*
D03*
X36001Y14831D02*
D03*
X36014Y14442D02*
D03*
X35157Y15158D02*
D03*
X36527Y15072D02*
D03*
X35988Y15198D02*
D03*
X36558Y14707D02*
D03*
X38057Y14481D02*
D03*
X36988Y14853D02*
D03*
X37446Y15045D02*
D03*
X38755Y14941D02*
D03*
X38446Y15045D02*
D03*
X39234Y14479D02*
D03*
X39942Y14515D02*
D03*
X39157Y15158D02*
D03*
X39786Y14865D02*
D03*
X40717Y15001D02*
D03*
X40929Y14694D02*
D03*
X43569Y14743D02*
D03*
X42443Y14772D02*
D03*
X41157Y15158D02*
D03*
X43555Y15060D02*
D03*
X42157Y15158D02*
D03*
X35160Y15503D02*
D03*
X35300Y17264D02*
D03*
X35993Y15574D02*
D03*
X37002Y15362D02*
D03*
X38049Y15300D02*
D03*
X37006Y17264D02*
D03*
X36011Y17264D02*
D03*
X36507Y17269D02*
D03*
X36680Y17640D02*
D03*
X35265Y17691D02*
D03*
X35909Y17680D02*
D03*
X35954Y18626D02*
D03*
X37315Y17671D02*
D03*
X37870Y17632D02*
D03*
X38288Y17637D02*
D03*
X37079Y18651D02*
D03*
X38072Y18622D02*
D03*
X39073Y15530D02*
D03*
X40077Y15554D02*
D03*
X41095Y15549D02*
D03*
X43049Y15301D02*
D03*
X42208Y15558D02*
D03*
X39378Y17615D02*
D03*
X40211Y17640D02*
D03*
X40975Y17645D02*
D03*
X42118Y17642D02*
D03*
X42967Y17652D02*
D03*
X27805Y18819D02*
D03*
X28819Y18789D02*
D03*
X26772Y18829D02*
D03*
X27746Y19557D02*
D03*
X26949Y19577D02*
D03*
X29872Y18750D02*
D03*
X30157Y19158D02*
D03*
X28829Y19587D02*
D03*
X30571Y19528D02*
D03*
X29744Y19577D02*
D03*
X26841Y20079D02*
D03*
X27815Y20108D02*
D03*
X26722Y20856D02*
D03*
X28829Y20827D02*
D03*
X27795Y20846D02*
D03*
X28829Y20108D02*
D03*
X30657Y20158D02*
D03*
X29657D02*
D03*
X30157Y21158D02*
D03*
X30197Y20197D02*
D03*
X30591Y20807D02*
D03*
X31358Y18750D02*
D03*
X34157Y19158D02*
D03*
X31157D02*
D03*
X32540Y19645D02*
D03*
X33505Y19673D02*
D03*
X34823Y18799D02*
D03*
X35157Y19158D02*
D03*
X35974Y19537D02*
D03*
X34657Y20158D02*
D03*
X35234Y19575D02*
D03*
X35818Y19977D02*
D03*
X31657Y20158D02*
D03*
X33657D02*
D03*
X32657D02*
D03*
X31157Y21158D02*
D03*
X34085Y20778D02*
D03*
X36166Y20292D02*
D03*
X34157Y21158D02*
D03*
X34911Y20856D02*
D03*
X36157Y21158D02*
D03*
X27657Y22158D02*
D03*
X28657D02*
D03*
X26657D02*
D03*
X28157Y23158D02*
D03*
X27157D02*
D03*
X29657Y22158D02*
D03*
X30657D02*
D03*
X31157Y23158D02*
D03*
X29157D02*
D03*
X30157D02*
D03*
X31332Y23852D02*
D03*
X26784D02*
D03*
X29058D02*
D03*
X27921D02*
D03*
X27181Y24693D02*
D03*
X28438D02*
D03*
X27810D02*
D03*
X30195Y23852D02*
D03*
X31578Y24693D02*
D03*
X30950D02*
D03*
X29066D02*
D03*
X30322D02*
D03*
X29694D02*
D03*
X33657Y22158D02*
D03*
X31657D02*
D03*
X32657D02*
D03*
X33157Y23158D02*
D03*
X34657Y22158D02*
D03*
X35157Y21158D02*
D03*
X35657Y22158D02*
D03*
X34157Y23158D02*
D03*
X36157D02*
D03*
X35157D02*
D03*
X32157D02*
D03*
X33606Y23852D02*
D03*
X32469D02*
D03*
X32206Y24693D02*
D03*
X33462D02*
D03*
X32834D02*
D03*
X34743Y23852D02*
D03*
X35879D02*
D03*
X35975Y24693D02*
D03*
X34091D02*
D03*
X35347D02*
D03*
X34719D02*
D03*
X36199Y18989D02*
D03*
X37157Y19158D02*
D03*
X37002Y19299D02*
D03*
X38076Y19274D02*
D03*
X37204Y19633D02*
D03*
X39140Y19289D02*
D03*
X40069Y18799D02*
D03*
X39144Y18819D02*
D03*
X38205Y19656D02*
D03*
X40184Y19636D02*
D03*
X38981Y19654D02*
D03*
X36408Y19788D02*
D03*
X36765Y20070D02*
D03*
X37106Y20256D02*
D03*
X37688Y20074D02*
D03*
X38062Y20312D02*
D03*
X38248Y19986D02*
D03*
X38634Y20008D02*
D03*
X39657Y20158D02*
D03*
X39145Y20301D02*
D03*
X40045Y20312D02*
D03*
X40232Y19163D02*
D03*
X41112Y18799D02*
D03*
X40885Y19702D02*
D03*
X41070Y19266D02*
D03*
X41681Y19713D02*
D03*
X42062Y19263D02*
D03*
X43120Y18789D02*
D03*
X42126Y18839D02*
D03*
X43030Y19280D02*
D03*
X40502Y19952D02*
D03*
X41036Y20027D02*
D03*
X41587Y20032D02*
D03*
X40657Y20158D02*
D03*
X41246Y20220D02*
D03*
X40898Y20317D02*
D03*
X42077Y20098D02*
D03*
X43906Y20058D02*
D03*
X42657Y20158D02*
D03*
X43041Y20108D02*
D03*
X43657Y20158D02*
D03*
X38051Y20797D02*
D03*
X38157Y21158D02*
D03*
X36657Y22158D02*
D03*
X37157Y21158D02*
D03*
X37657Y22158D02*
D03*
X39104Y20807D02*
D03*
X40089Y20787D02*
D03*
X39157Y21158D02*
D03*
X38657Y22158D02*
D03*
X39657D02*
D03*
X40157Y23158D02*
D03*
X37016Y23852D02*
D03*
X37157Y23158D02*
D03*
X38153Y23852D02*
D03*
X36603Y24693D02*
D03*
X37859D02*
D03*
X37231D02*
D03*
X38157Y23158D02*
D03*
X39157D02*
D03*
X39290Y23852D02*
D03*
X38487Y24693D02*
D03*
X39744D02*
D03*
X39115D02*
D03*
X40945Y20797D02*
D03*
X40657Y22158D02*
D03*
X41657D02*
D03*
X42077Y20807D02*
D03*
X44006Y20738D02*
D03*
X43002Y20807D02*
D03*
X42657Y22158D02*
D03*
X43157Y23158D02*
D03*
X40427Y23852D02*
D03*
X41157Y23158D02*
D03*
X41564Y23852D02*
D03*
X40372Y24693D02*
D03*
X41628D02*
D03*
X41000D02*
D03*
X42157Y23158D02*
D03*
X43657Y24158D02*
D03*
X42657D02*
D03*
X42256Y24693D02*
D03*
X43512D02*
D03*
X42884D02*
D03*
X45017Y14732D02*
D03*
X47241Y14722D02*
D03*
X44484Y14751D02*
D03*
X45157Y15158D02*
D03*
X44065Y15313D02*
D03*
X45014Y15308D02*
D03*
X45613Y14742D02*
D03*
X46663Y14735D02*
D03*
X46595Y15274D02*
D03*
X45321Y15564D02*
D03*
X45570Y15297D02*
D03*
X47413Y15745D02*
D03*
X48769Y13997D02*
D03*
X48255Y14724D02*
D03*
X48157Y15158D02*
D03*
X48082Y16132D02*
D03*
X48587Y15725D02*
D03*
X48941Y15842D02*
D03*
X49235Y16023D02*
D03*
X46649Y16568D02*
D03*
X46746Y16209D02*
D03*
X44132Y17666D02*
D03*
X45081Y17633D02*
D03*
X44051Y18630D02*
D03*
X45468Y18628D02*
D03*
X45018Y18643D02*
D03*
X45926Y18616D02*
D03*
X46765Y18658D02*
D03*
X48121Y16544D02*
D03*
X48478Y16158D02*
D03*
X48844Y16305D02*
D03*
X49545Y16457D02*
D03*
X48993Y16932D02*
D03*
X47276Y18637D02*
D03*
X49412Y17691D02*
D03*
X48235Y18619D02*
D03*
X49058Y18612D02*
D03*
X49583Y18641D02*
D03*
X49683Y13337D02*
D03*
X50445Y14034D02*
D03*
X51938Y13573D02*
D03*
X52338Y13811D02*
D03*
X52161Y14180D02*
D03*
X53036Y13730D02*
D03*
X52657Y14158D02*
D03*
X53851Y13901D02*
D03*
X53657Y14158D02*
D03*
X49850Y16875D02*
D03*
X49880Y16136D02*
D03*
X51157Y15158D02*
D03*
X51174Y14354D02*
D03*
X51368Y14632D02*
D03*
X51227Y15780D02*
D03*
X50688Y17559D02*
D03*
X50059Y18200D02*
D03*
X50447Y17956D02*
D03*
X50657Y18158D02*
D03*
X51074Y17381D02*
D03*
X51293Y16970D02*
D03*
X51157Y17158D02*
D03*
X51141Y18032D02*
D03*
X51361Y17683D02*
D03*
X51370Y18366D02*
D03*
X52157Y15158D02*
D03*
X51390Y15341D02*
D03*
X52657Y16158D02*
D03*
X51401Y16179D02*
D03*
X53150Y14459D02*
D03*
X53898Y14630D02*
D03*
X53157Y15158D02*
D03*
X53129Y15698D02*
D03*
X53900Y15623D02*
D03*
X53657Y16158D02*
D03*
X51392Y16635D02*
D03*
X52044Y16182D02*
D03*
X52157Y17158D02*
D03*
X51912Y18170D02*
D03*
X52655Y17394D02*
D03*
X51952Y17634D02*
D03*
X53157Y17158D02*
D03*
X53903Y16448D02*
D03*
X53889Y17368D02*
D03*
X52657Y18158D02*
D03*
X53657D02*
D03*
X53209Y18179D02*
D03*
X45157Y19158D02*
D03*
X44157D02*
D03*
X46696Y19279D02*
D03*
X46633Y19894D02*
D03*
X45187Y20276D02*
D03*
X44181Y20306D02*
D03*
X45069Y20896D02*
D03*
X45797Y20915D02*
D03*
X45827Y20226D02*
D03*
X46821Y20059D02*
D03*
X46734Y20312D02*
D03*
X46770Y20702D02*
D03*
X47335Y20316D02*
D03*
X47037Y20876D02*
D03*
X47980Y18745D02*
D03*
X47551Y19166D02*
D03*
X47944Y19280D02*
D03*
X48578Y18677D02*
D03*
X48432Y19243D02*
D03*
X49072Y19260D02*
D03*
X47380Y19882D02*
D03*
X48361Y19886D02*
D03*
X47654Y20008D02*
D03*
X47629Y20705D02*
D03*
X47919Y20364D02*
D03*
X48343Y20835D02*
D03*
X48839Y19705D02*
D03*
X49355Y19771D02*
D03*
X49569Y20188D02*
D03*
X48518Y20194D02*
D03*
X48970Y20200D02*
D03*
X49101Y20662D02*
D03*
X45541Y21407D02*
D03*
X45935Y21405D02*
D03*
X45492Y21860D02*
D03*
X44657Y22158D02*
D03*
X46285Y21352D02*
D03*
X46588Y21654D02*
D03*
X47095Y21671D02*
D03*
X45977Y22609D02*
D03*
X46048Y22103D02*
D03*
X44657Y24158D02*
D03*
X45482Y23061D02*
D03*
X45657Y24158D02*
D03*
X44140Y24693D02*
D03*
X45396D02*
D03*
X44768D02*
D03*
X46157Y23158D02*
D03*
X46765Y22974D02*
D03*
X46025Y24693D02*
D03*
X46592Y23319D02*
D03*
X46653Y24693D02*
D03*
X47157Y21158D02*
D03*
X47528Y21169D02*
D03*
X47690Y21631D02*
D03*
X48173Y21157D02*
D03*
X48623Y21132D02*
D03*
X49220Y21345D02*
D03*
X48198Y21564D02*
D03*
X47135Y23251D02*
D03*
X47910Y22951D02*
D03*
X47505Y22990D02*
D03*
X47281Y24693D02*
D03*
X47574Y23297D02*
D03*
X47909Y24693D02*
D03*
X48157Y23158D02*
D03*
X48620Y22975D02*
D03*
X49157Y23158D02*
D03*
X48537Y24693D02*
D03*
X48600Y23293D02*
D03*
X49165Y24693D02*
D03*
X50055Y18715D02*
D03*
X50551Y18681D02*
D03*
X49828Y19245D02*
D03*
X50238Y19513D02*
D03*
X49854Y19858D02*
D03*
X51014Y18756D02*
D03*
X51761Y18751D02*
D03*
X51391Y19114D02*
D03*
X50582Y19144D02*
D03*
X52157Y19158D02*
D03*
X50875Y19624D02*
D03*
X50355Y20166D02*
D03*
X50657Y20158D02*
D03*
X49621Y20915D02*
D03*
X50111Y20400D02*
D03*
X50157Y21158D02*
D03*
X50927Y20745D02*
D03*
X52171Y19903D02*
D03*
X51657Y20158D02*
D03*
X50661Y20979D02*
D03*
X52157Y21158D02*
D03*
X51157D02*
D03*
X53157Y19158D02*
D03*
X53873Y19033D02*
D03*
X52564Y19523D02*
D03*
X53342Y19674D02*
D03*
X53059Y20038D02*
D03*
X53902Y19810D02*
D03*
X55994Y19911D02*
D03*
X56790Y19913D02*
D03*
X53882Y20193D02*
D03*
X56082Y20162D02*
D03*
X54898Y20209D02*
D03*
X52713Y20444D02*
D03*
X53465Y20474D02*
D03*
X54360Y20520D02*
D03*
X53157Y21158D02*
D03*
X53849Y20874D02*
D03*
X53741Y21339D02*
D03*
X55023Y20822D02*
D03*
X55676Y20540D02*
D03*
X56050Y20544D02*
D03*
X54599Y20861D02*
D03*
X56762Y20886D02*
D03*
X54767Y21341D02*
D03*
X49951Y21614D02*
D03*
X49629Y23020D02*
D03*
X50306Y23015D02*
D03*
X50645Y21706D02*
D03*
X51091Y21671D02*
D03*
X51657Y22158D02*
D03*
X52657D02*
D03*
X52157Y23158D02*
D03*
X49596Y23311D02*
D03*
X50603Y23271D02*
D03*
X50048Y23287D02*
D03*
X49793Y24693D02*
D03*
X51049D02*
D03*
X50421D02*
D03*
X51157Y23158D02*
D03*
X52657Y24158D02*
D03*
X51657D02*
D03*
X51678Y24693D02*
D03*
X52934D02*
D03*
X52306D02*
D03*
X55059Y21527D02*
D03*
X54657Y22158D02*
D03*
X55030Y21978D02*
D03*
X56667Y21532D02*
D03*
X56657Y22158D02*
D03*
X53157Y23158D02*
D03*
X53657Y22158D02*
D03*
X54157Y23158D02*
D03*
X53562Y24693D02*
D03*
X53657Y24158D02*
D03*
X54190Y24693D02*
D03*
X54657Y24158D02*
D03*
X56157Y23158D02*
D03*
X56657Y24158D02*
D03*
X54818Y24693D02*
D03*
X56702D02*
D03*
X56074D02*
D03*
X4204Y15500D02*
D03*
X51148Y11453D02*
D03*
X51875Y12700D02*
D03*
X50813Y11489D02*
D03*
X51224Y10789D02*
D03*
X50567Y10476D02*
D03*
X50788Y10846D02*
D03*
X2947Y9206D02*
D03*
Y9797D02*
D03*
X2947Y15401D02*
D03*
X2948Y15599D02*
D03*
X5276Y15158D02*
D03*
X3425Y16429D02*
D03*
X3357Y15500D02*
D03*
X3888Y14351D02*
D03*
X2570Y15992D02*
D03*
X3831Y9860D02*
D03*
X3357Y9502D02*
D03*
X9725Y8817D02*
D03*
X50462Y12186D02*
D03*
X15064Y17841D02*
D03*
X5899Y11572D02*
D03*
X9548Y11271D02*
D03*
X7777Y20301D02*
D03*
X50230Y19116D02*
D03*
X50806Y13931D02*
D03*
X46841Y23318D02*
D03*
X51865Y13769D02*
D03*
X29331Y15534D02*
D03*
X44457Y15549D02*
D03*
X37752Y9846D02*
D03*
X36264Y18767D02*
D03*
X37295Y11388D02*
D03*
X36575Y20787D02*
D03*
X37318Y11686D02*
D03*
X37559Y18780D02*
D03*
X36816Y11970D02*
D03*
X38803Y19832D02*
D03*
X41059Y12260D02*
D03*
X41450Y11441D02*
D03*
X38573Y18768D02*
D03*
X38583Y20827D02*
D03*
X41475Y11849D02*
D03*
X40573Y20768D02*
D03*
X46772Y21181D02*
D03*
X50341Y23318D02*
D03*
X20323Y4000D02*
D03*
X13217Y6672D02*
D03*
X13196Y4648D02*
D03*
X24321Y20817D02*
D03*
X14191Y5189D02*
D03*
X51715Y14061D02*
D03*
X25315Y18937D02*
D03*
X11968Y1928D02*
D03*
X16823Y4724D02*
D03*
X29323Y11391D02*
D03*
Y7020D02*
D03*
X414Y18170D02*
D03*
X48294Y15393D02*
D03*
X48103Y13543D02*
D03*
X9295Y6564D02*
D03*
X12137Y5336D02*
D03*
X12040Y7707D02*
D03*
X9778Y7038D02*
D03*
X7584Y12862D02*
D03*
X7742Y12710D02*
D03*
X7899Y12559D02*
D03*
X8062Y12396D02*
D03*
X6231Y2274D02*
D03*
X8726Y11160D02*
D03*
X8458Y19865D02*
D03*
X7007Y12152D02*
D03*
X7111Y11267D02*
D03*
X9928Y21807D02*
D03*
X8426Y17437D02*
D03*
X6169Y16870D02*
D03*
X38008Y9002D02*
D03*
X13487Y9826D02*
D03*
Y10198D02*
D03*
X12823Y7211D02*
D03*
X12975Y5336D02*
D03*
X12824Y9187D02*
D03*
X13333Y7624D02*
D03*
X13653Y6093D02*
D03*
X13336Y5609D02*
D03*
X14896Y18512D02*
D03*
X12908Y20523D02*
D03*
X12420Y17446D02*
D03*
X14203Y18713D02*
D03*
X11974Y18296D02*
D03*
X6490Y17612D02*
D03*
X12310Y9466D02*
D03*
X11807D02*
D03*
X12310Y7496D02*
D03*
X11806Y7497D02*
D03*
X12310Y5472D02*
D03*
X11806Y5474D02*
D03*
X14260Y8491D02*
D03*
Y6514D02*
D03*
X14191Y7213D02*
D03*
X14260Y4490D02*
D03*
X13649Y4037D02*
D03*
X26824Y8595D02*
D03*
X4953Y17545D02*
D03*
X2569Y9994D02*
D03*
X4953Y17282D02*
D03*
X2559Y8977D02*
D03*
X20323Y18768D02*
D03*
X29323Y20768D02*
D03*
X35573Y18768D02*
D03*
Y13768D02*
D03*
X20323Y8768D02*
D03*
Y13768D02*
D03*
X44455Y20768D02*
D03*
X14291Y20728D02*
D03*
X10315Y17598D02*
D03*
Y17283D02*
D03*
X10551D02*
D03*
Y17598D02*
D03*
X12510Y23492D02*
D03*
X6417Y21693D02*
D03*
X5231Y2274D02*
D03*
X5731D02*
D03*
X7205Y2087D02*
D03*
X2757Y20451D02*
D03*
Y20196D02*
D03*
X4134Y11743D02*
D03*
X9279Y7754D02*
D03*
X55768Y20337D02*
D03*
X55965D02*
D03*
X13504Y23790D02*
D03*
X47519Y2076D02*
D03*
X48094Y6198D02*
D03*
X47902Y5916D02*
D03*
X51559Y2117D02*
D03*
X51550Y14228D02*
D03*
X46341Y23318D02*
D03*
X28323Y11427D02*
D03*
X44764Y11496D02*
D03*
X39572Y14688D02*
D03*
X40573Y14826D02*
D03*
X41815Y14967D02*
D03*
X41573Y15108D02*
D03*
X25004Y12808D02*
D03*
X41094Y13936D02*
D03*
X48018Y19052D02*
D03*
X27323Y13108D02*
D03*
X28323Y15108D02*
D03*
Y13108D02*
D03*
X50841Y23318D02*
D03*
X49841D02*
D03*
X49341D02*
D03*
X48841D02*
D03*
X48341D02*
D03*
X47341D02*
D03*
X48759Y12186D02*
D03*
X49027Y11978D02*
D03*
X4871Y7746D02*
D03*
X6775Y6206D02*
D03*
X48009Y17594D02*
D03*
X45525Y19052D02*
D03*
X8986Y6703D02*
D03*
X9502Y7006D02*
D03*
X6460Y6181D02*
D03*
X5876Y7195D02*
D03*
X7579Y5916D02*
D03*
X9385Y9766D02*
D03*
X8346Y433D02*
D03*
X6929Y5919D02*
D03*
X5427Y8836D02*
D03*
X13504Y23217D02*
D03*
X9360Y9085D02*
D03*
X6210Y5919D02*
D03*
X6950Y9255D02*
D03*
X5251Y7195D02*
D03*
X8401Y5919D02*
D03*
X7677Y10374D02*
D03*
X7453Y23497D02*
D03*
X45547Y17594D02*
D03*
X3701Y20354D02*
D03*
X10945Y827D02*
D03*
X4921Y18228D02*
D03*
X10980Y21620D02*
D03*
X47750Y19458D02*
D03*
X1575Y20473D02*
D03*
X32073Y18768D02*
D03*
Y13768D02*
D03*
X16823Y8768D02*
D03*
Y13768D02*
D03*
Y18768D02*
D03*
X8189Y17697D02*
D03*
X6496Y16024D02*
D03*
X9685Y20472D02*
D03*
X2449Y20024D02*
D03*
Y18871D02*
D03*
X1051Y20024D02*
D03*
X1053Y18871D02*
D03*
X2323Y22795D02*
D03*
X1378D02*
D03*
X1417Y21850D02*
D03*
X1378Y23780D02*
D03*
X8691Y21385D02*
D03*
X10472Y19213D02*
D03*
X10669D02*
D03*
X9055Y22835D02*
D03*
X13091Y19291D02*
D03*
X9234Y18880D02*
D03*
X9063Y18883D02*
D03*
X8901Y18884D02*
D03*
X8729Y18888D02*
D03*
X55055Y21176D02*
D03*
X56681Y21183D02*
D03*
X39573Y18768D02*
D03*
X47756Y20512D02*
D03*
X39573Y20768D02*
D03*
X46220Y21575D02*
D03*
X46609Y21398D02*
D03*
X48740Y20040D02*
D03*
X9921Y7402D02*
D03*
X5939Y19636D02*
D03*
X10433Y1693D02*
D03*
X5669Y4331D02*
D03*
X11025Y3813D02*
D03*
X10394Y354D02*
D03*
X8110Y1575D02*
D03*
X5276Y6063D02*
D03*
X5079Y5788D02*
D03*
X6181Y19636D02*
D03*
X5231Y738D02*
D03*
X9409Y2126D02*
D03*
X56063Y22362D02*
D03*
X55669D02*
D03*
X5731Y738D02*
D03*
X1969Y18819D02*
D03*
Y19095D02*
D03*
X1693Y18819D02*
D03*
Y19095D02*
D03*
X5935Y19390D02*
D03*
X5118Y21260D02*
D03*
X8661Y9439D02*
D03*
X5984Y8662D02*
D03*
X2457Y18226D02*
D03*
X1051Y18226D02*
D03*
X6181Y19390D02*
D03*
X7077Y20719D02*
D03*
X7333D02*
D03*
X6437Y9518D02*
D03*
D166*
X6815Y11969D02*
X7738D01*
X8282Y11425D01*
Y10929D02*
Y11425D01*
X8130Y10777D02*
X8282Y10929D01*
X8130Y8849D02*
Y10777D01*
X7972Y8917D02*
X8007Y8952D01*
Y10907D01*
X8145Y11045D01*
X7924Y11044D02*
X7927Y11040D01*
X7815Y8879D02*
X7924Y8988D01*
Y11045D01*
X7657Y8865D02*
X7831Y9039D01*
X7704Y10663D02*
X7831Y10536D01*
Y9039D02*
Y10536D01*
X7483Y8866D02*
X7500Y8849D01*
X7483Y8866D02*
Y11045D01*
X7704Y10663D02*
Y11044D01*
X7657Y8849D02*
Y8865D01*
X7815Y8849D02*
Y8879D01*
X7972Y8849D02*
Y8917D01*
D181*
X2526Y14362D02*
D03*
Y16638D02*
D03*
Y8364D02*
D03*
Y10639D02*
D03*
D182*
X5335Y7972D02*
D03*
X6093Y5128D02*
D03*
X5541Y6112D02*
D03*
X5659Y7323D02*
D03*
X5679Y7795D02*
D03*
X5807Y6850D02*
D03*
X6132Y6693D02*
D03*
X10640Y1211D02*
D03*
X9665Y7490D02*
D03*
X6181Y9193D02*
D03*
X9252Y11250D02*
D03*
X10748Y423D02*
D03*
X11358Y856D02*
D03*
X11644Y433D02*
D03*
X26176Y9749D02*
D03*
X26134Y10208D02*
D03*
X26259Y11436D02*
D03*
X26548Y11908D02*
D03*
X4006Y20000D02*
D03*
X4567Y20404D02*
D03*
X5679Y20433D02*
D03*
X6407D02*
D03*
X7096Y20492D02*
D03*
X26539Y12541D02*
D03*
X26525Y12897D02*
D03*
X27657Y9708D02*
D03*
X28400Y10030D02*
D03*
X28891Y9705D02*
D03*
X30109Y9747D02*
D03*
X26595Y11218D02*
D03*
X27898Y11172D02*
D03*
X27492Y11197D02*
D03*
X28458Y10274D02*
D03*
X28762Y11167D02*
D03*
X29056Y11179D02*
D03*
X27103Y11441D02*
D03*
X27908Y11490D02*
D03*
X27043Y11908D02*
D03*
X27527Y11505D02*
D03*
X27537Y11908D02*
D03*
X28755Y11506D02*
D03*
X29035Y11507D02*
D03*
X27121Y12517D02*
D03*
X27911Y12661D02*
D03*
X27529Y12665D02*
D03*
X27090Y12905D02*
D03*
X28420Y12663D02*
D03*
X29064Y12817D02*
D03*
X28722Y13236D02*
D03*
X30326Y11525D02*
D03*
X36959Y10732D02*
D03*
X38189Y10735D02*
D03*
X38658Y10752D02*
D03*
X40031Y10819D02*
D03*
X40853Y10791D02*
D03*
X40340Y11297D02*
D03*
X40438Y11712D02*
D03*
X40119Y12045D02*
D03*
X40913Y11850D02*
D03*
X40355Y12448D02*
D03*
X48196Y11293D02*
D03*
X48590Y11176D02*
D03*
X41364Y12250D02*
D03*
X48094Y11679D02*
D03*
X48519Y11660D02*
D03*
X49027Y11647D02*
D03*
X47843Y12599D02*
D03*
X48505Y12720D02*
D03*
X48953Y12425D02*
D03*
X50722Y10636D02*
D03*
X49079Y11271D02*
D03*
X49247Y12078D02*
D03*
X49338Y12494D02*
D03*
X52073Y12117D02*
D03*
X51540Y12424D02*
D03*
X28703Y13919D02*
D03*
X29057Y13576D02*
D03*
X28156Y13920D02*
D03*
X29041Y13995D02*
D03*
X36394Y13439D02*
D03*
X37039Y13371D02*
D03*
X39110Y13340D02*
D03*
X38207Y13348D02*
D03*
X39945Y13340D02*
D03*
X41447Y13356D02*
D03*
X39531Y13956D02*
D03*
X40590Y13640D02*
D03*
X41514Y13721D02*
D03*
X42154Y13472D02*
D03*
X43289Y13485D02*
D03*
X43841Y13789D02*
D03*
X41880Y14123D02*
D03*
X42588Y13826D02*
D03*
X42926Y14145D02*
D03*
X40417Y14167D02*
D03*
X44549Y13491D02*
D03*
X44205Y14174D02*
D03*
X44859Y13913D02*
D03*
X45148Y14149D02*
D03*
X45430Y13485D02*
D03*
X45852Y13851D02*
D03*
X46198Y14175D02*
D03*
X46962Y14186D02*
D03*
X44739Y15586D02*
D03*
X47663Y14228D02*
D03*
X49043Y15000D02*
D03*
X47264Y16253D02*
D03*
X47441Y16614D02*
D03*
X50699Y13313D02*
D03*
X51217Y13447D02*
D03*
X51507Y13595D02*
D03*
X51732Y14343D02*
D03*
X5039Y15598D02*
D03*
D03*
Y15402D02*
D03*
D03*
X50850Y12289D02*
D03*
D03*
X2947Y15795D02*
D03*
D03*
Y15205D02*
D03*
D03*
X2947Y9600D02*
D03*
D03*
X2947Y9403D02*
D03*
D03*
X13964Y11179D02*
D03*
X27739Y11901D02*
D03*
X26766Y11639D02*
D03*
X6240Y7510D02*
D03*
X11263Y8292D02*
D03*
X21323Y14000D02*
D03*
D03*
X50735Y14277D02*
D03*
X15062Y8075D02*
D03*
X51699Y7175D02*
D03*
X36573Y16000D02*
D03*
D03*
X23004Y16128D02*
D03*
X22323Y9439D02*
D03*
X36573Y14427D02*
D03*
D03*
X22323Y16000D02*
D03*
D03*
Y4000D02*
D03*
D03*
Y6000D02*
D03*
D03*
X28323Y4000D02*
D03*
X23616Y3683D02*
D03*
X23323Y4000D02*
D03*
D03*
X27319Y6409D02*
D03*
X24229D02*
D03*
X27323Y4000D02*
D03*
X24650Y3829D02*
D03*
X25323Y4000D02*
D03*
D03*
Y6000D02*
D03*
D03*
X27939Y6145D02*
D03*
X23323Y6000D02*
D03*
X38652Y4597D02*
D03*
X38497Y5195D02*
D03*
X21323Y6001D02*
D03*
X21325Y4000D02*
D03*
X36634Y5394D02*
D03*
X24321Y6000D02*
D03*
X37608Y5602D02*
D03*
X26325Y6000D02*
D03*
X36496Y4392D02*
D03*
X24323Y4003D02*
D03*
X37477Y4220D02*
D03*
X26323Y4000D02*
D03*
X39573Y5800D02*
D03*
X28323Y6001D02*
D03*
X37295Y3633D02*
D03*
X30323Y4001D02*
D03*
X37150Y6393D02*
D03*
X30322Y6000D02*
D03*
X37022Y3830D02*
D03*
X31323Y4004D02*
D03*
X41731Y6214D02*
D03*
X31323Y6000D02*
D03*
X41488Y4001D02*
D03*
X32323Y4000D02*
D03*
X41609Y6001D02*
D03*
X32323Y6001D02*
D03*
X39573Y14427D02*
D03*
D03*
X23323Y15714D02*
D03*
D03*
X24323Y11216D02*
D03*
Y16000D02*
D03*
D03*
X24445Y12383D02*
D03*
X24323Y14000D02*
D03*
D03*
X23972Y16261D02*
D03*
X37573Y16000D02*
D03*
D03*
Y17645D02*
D03*
Y14000D02*
D03*
D03*
X37234Y17204D02*
D03*
X25513Y12949D02*
D03*
D03*
X23323Y18126D02*
D03*
X22592Y17883D02*
D03*
X23323Y14000D02*
D03*
D03*
X27323Y16000D02*
D03*
D03*
X27940Y10154D02*
D03*
X22323Y9439D02*
D03*
X22323Y14000D02*
D03*
D03*
X21985Y18466D02*
D03*
X38573Y14000D02*
D03*
D03*
X38262Y17325D02*
D03*
X38573Y16000D02*
D03*
D03*
X37539Y11144D02*
D03*
X46460Y13325D02*
D03*
D03*
X50742Y14716D02*
D03*
X22592Y17883D02*
D03*
X23323Y18126D02*
D03*
X48030Y14297D02*
D03*
X26323Y12586D02*
D03*
D03*
X49307Y15201D02*
D03*
X49504D02*
D03*
X50562Y14708D02*
D03*
X51550Y7017D02*
D03*
X52082Y6929D02*
D03*
X52082Y13912D02*
D03*
X10264Y9314D02*
D03*
X7343Y8850D02*
D03*
X37394Y10198D02*
D03*
D03*
X7500Y6644D02*
D03*
X7657D02*
D03*
X7815D02*
D03*
X6398Y7274D02*
D03*
X12975Y8964D02*
D03*
X12823Y7852D02*
D03*
X13698Y7852D02*
D03*
X14993Y9439D02*
D03*
X15266Y10394D02*
D03*
X15259Y10888D02*
D03*
X15404Y11025D02*
D03*
X12823Y5836D02*
D03*
X13699Y5833D02*
D03*
X51864Y14514D02*
D03*
X15873Y17283D02*
D03*
X15728Y18001D02*
D03*
X6815Y11969D02*
D03*
X47776Y12875D02*
D03*
X48094Y13121D02*
D03*
X47916Y13228D02*
D03*
X47096Y13449D02*
D03*
D03*
X46249Y13132D02*
D03*
D03*
X46100Y12891D02*
D03*
D03*
X45928Y12573D02*
D03*
X46921Y12754D02*
D03*
X47901Y11899D02*
D03*
X49054Y11485D02*
D03*
X48887Y9902D02*
D03*
D03*
X48322Y9897D02*
D03*
D03*
X48322Y11150D02*
D03*
X13699Y7628D02*
D03*
X12059Y7085D02*
D03*
X10717Y6276D02*
D03*
X6815Y11969D02*
D03*
X8199Y17097D02*
D03*
X37224Y12068D02*
D03*
X37619Y10733D02*
D03*
D03*
X41505Y12457D02*
D03*
D03*
X37186Y10735D02*
D03*
D03*
X41946Y13307D02*
D03*
X41505Y11174D02*
D03*
X41121Y11691D02*
D03*
X47553Y11954D02*
D03*
X13423Y8649D02*
D03*
X37638Y11528D02*
D03*
X11263Y8511D02*
D03*
Y8730D02*
D03*
Y8949D02*
D03*
X7471Y5005D02*
D03*
X6901Y4745D02*
D03*
X8051Y5251D02*
D03*
X7901Y5127D02*
D03*
X7285Y4882D02*
D03*
X11574Y6908D02*
D03*
Y6751D02*
D03*
Y6593D02*
D03*
Y6436D02*
D03*
X9130Y4751D02*
D03*
X7603Y4628D02*
D03*
X11574Y4884D02*
D03*
Y4727D02*
D03*
Y4569D02*
D03*
Y4412D02*
D03*
X6614Y4843D02*
D03*
X8145Y11045D02*
D03*
X7924Y11044D02*
D03*
X7704Y11044D02*
D03*
X7483Y11043D02*
D03*
X37541Y12070D02*
D03*
X48019Y12252D02*
D03*
X6240Y7982D02*
D03*
X25608Y17283D02*
D03*
X48887Y7539D02*
D03*
X48335Y7666D02*
D03*
X23743Y8146D02*
D03*
X23794Y7925D02*
D03*
X21835Y10387D02*
D03*
X28653Y14162D02*
D03*
X47445Y14326D02*
D03*
X47310Y14451D02*
D03*
X24859Y12599D02*
D03*
D03*
X25875Y10238D02*
D03*
X42573Y9323D02*
D03*
X24319Y18001D02*
D03*
X23654Y17762D02*
D03*
X22323Y17638D02*
D03*
X21619Y17449D02*
D03*
X21323Y17084D02*
D03*
X21788Y18347D02*
D03*
X50865Y14553D02*
D03*
X50403Y14739D02*
D03*
X50028Y15750D02*
D03*
X50202Y15206D02*
D03*
X50333Y15032D02*
D03*
X27014Y10642D02*
D03*
X28749Y12636D02*
D03*
X27323Y12510D02*
D03*
X25323Y12263D02*
D03*
X25735Y12140D02*
D03*
X26323Y11774D02*
D03*
X47290Y11890D02*
D03*
X22323Y11025D02*
D03*
X22614Y10891D02*
D03*
X21587Y10888D02*
D03*
X27729Y10512D02*
D03*
X28899Y10274D02*
D03*
X28611Y10033D02*
D03*
X50429Y12904D02*
D03*
X47832Y14050D02*
D03*
X48002Y13924D02*
D03*
X47564Y13717D02*
D03*
X46921Y12754D02*
D03*
X47685Y12502D02*
D03*
X47832Y12380D02*
D03*
X5827Y7441D02*
D03*
X5906Y7874D02*
D03*
X8130Y8849D02*
D03*
X7972Y8849D02*
D03*
X7815Y8849D02*
D03*
X7657Y8849D02*
D03*
X7500D02*
D03*
D183*
X49814Y12764D02*
D03*
X49752Y13681D02*
D03*
D184*
X50028Y13543D02*
X50263Y13779D01*
M02*
