G04*
G04 #@! TF.GenerationSoftware,Altium Limited,Altium Designer,26.3.0 (6)*
G04*
G04 Layer_Color=32896*
%FSLAX24Y24*%
%MOIN*%
G70*
G04*
G04 #@! TF.SameCoordinates,16BEF44E-F0A4-4101-97DD-AF4FD7D9166A*
G04*
G04*
G04 #@! TF.FilePolarity,Positive*
G04*
G01*
G75*
%ADD10C,0.0039*%
%ADD16C,0.0059*%
%ADD191C,0.0020*%
D10*
X55561Y20427D02*
G03*
X55561Y20427I-295J0D01*
G01*
X55640D02*
G03*
X55640Y20427I-374J0D01*
G01*
X56742D02*
G03*
X56742Y20427I-295J0D01*
G01*
X56821D02*
G03*
X56821Y20427I-374J0D01*
G01*
X4325Y16281D02*
G03*
X4325Y16281I-295J0D01*
G01*
X4404D02*
G03*
X4404Y16281I-374J0D01*
G01*
X4325Y15100D02*
G03*
X4325Y15100I-295J0D01*
G01*
X4404D02*
G03*
X4404Y15100I-374J0D01*
G01*
X6094Y21380D02*
G03*
X6094Y21380I-374J0D01*
G01*
X6015D02*
G03*
X6015Y21380I-295J0D01*
G01*
X11354Y21620D02*
G03*
X11354Y21620I-374J0D01*
G01*
X11275D02*
G03*
X11275Y21620I-295J0D01*
G01*
X5594Y15293D02*
G03*
X5594Y15293I-374J0D01*
G01*
X5515D02*
G03*
X5515Y15293I-295J0D01*
G01*
X11338Y453D02*
G03*
X11338Y453I-193J0D01*
G01*
Y1252D02*
G03*
X11338Y1252I-193J0D01*
G01*
X8338Y853D02*
G03*
X8338Y853I-193J0D01*
G01*
X5515Y9280D02*
G03*
X5515Y9280I-295J0D01*
G01*
X5594D02*
G03*
X5594Y9280I-374J0D01*
G01*
X9495Y22850D02*
G03*
X9495Y22850I-295J0D01*
G01*
X9574D02*
G03*
X9574Y22850I-374J0D01*
G01*
X8985Y21580D02*
G03*
X8985Y21580I-295J0D01*
G01*
X9064D02*
G03*
X9064Y21580I-374J0D01*
G01*
X1953Y20585D02*
G03*
X1953Y20585I-374J0D01*
G01*
X1875D02*
G03*
X1875Y20585I-295J0D01*
G01*
X4404Y10282D02*
G03*
X4404Y10282I-374J0D01*
G01*
X4325D02*
G03*
X4325Y10282I-295J0D01*
G01*
X4400Y9101D02*
G03*
X4400Y9101I-374J0D01*
G01*
X4321D02*
G03*
X4321Y9101I-295J0D01*
G01*
X10853Y1620D02*
G03*
X10853Y1620I-374J0D01*
G01*
X10774D02*
G03*
X10774Y1620I-295J0D01*
G01*
X11955D02*
G03*
X11955Y1620I-295J0D01*
G01*
X12034D02*
G03*
X12034Y1620I-374J0D01*
G01*
X8491D02*
G03*
X8491Y1620I-374J0D01*
G01*
X8412D02*
G03*
X8412Y1620I-295J0D01*
G01*
X9672D02*
G03*
X9672Y1620I-374J0D01*
G01*
X9593D02*
G03*
X9593Y1620I-295J0D01*
G01*
X4905Y19260D02*
G03*
X4905Y19260I-295J0D01*
G01*
X4984D02*
G03*
X4984Y19260I-374J0D01*
G01*
X14535Y19370D02*
G03*
X14535Y19370I-295J0D01*
G01*
X14614D02*
G03*
X14614Y19370I-374J0D01*
G01*
X3935Y12500D02*
G03*
X3935Y12500I-295J0D01*
G01*
X4014D02*
G03*
X4014Y12500I-374J0D01*
G01*
X18205Y5140D02*
G03*
X18205Y5140I-295J0D01*
G01*
X18284D02*
G03*
X18284Y5140I-374J0D01*
G01*
D16*
X5591Y23032D02*
G03*
X5591Y23032I-630J0D01*
G01*
X42362Y1969D02*
G03*
X42362Y1969I-630J0D01*
G01*
X17953Y1969D02*
G03*
X17953Y1969I-630J0D01*
G01*
X3780D02*
G03*
X3780Y1969I-630J0D01*
G01*
X45157Y23032D02*
G03*
X45157Y23032I-630J0D01*
G01*
X17953D02*
G03*
X17953Y23032I-630J0D01*
G01*
D191*
X55486Y20487D02*
X55406D01*
X55446D01*
Y20367D01*
X55366D02*
Y20487D01*
X55306D01*
X55286Y20467D01*
Y20427D01*
X55306Y20407D01*
X55366D01*
X55166Y20367D02*
X55246D01*
X55166Y20447D01*
Y20467D01*
X55186Y20487D01*
X55226D01*
X55246Y20467D01*
X55126D02*
X55106Y20487D01*
X55066D01*
X55046Y20467D01*
Y20447D01*
X55066Y20427D01*
X55046Y20407D01*
Y20387D01*
X55066Y20367D01*
X55106D01*
X55126Y20387D01*
Y20407D01*
X55106Y20427D01*
X55126Y20447D01*
Y20467D01*
X55106Y20427D02*
X55066D01*
X56668Y20494D02*
X56588D01*
X56628D01*
Y20374D01*
X56548D02*
Y20494D01*
X56488D01*
X56468Y20474D01*
Y20434D01*
X56488Y20414D01*
X56548D01*
X56348Y20374D02*
X56428D01*
X56348Y20454D01*
Y20474D01*
X56368Y20494D01*
X56408D01*
X56428Y20474D01*
X56228Y20494D02*
X56268Y20474D01*
X56308Y20434D01*
Y20394D01*
X56288Y20374D01*
X56248D01*
X56228Y20394D01*
Y20414D01*
X56248Y20434D01*
X56308D01*
X4250Y16341D02*
X4170D01*
X4210D01*
Y16221D01*
X4130D02*
Y16341D01*
X4070D01*
X4050Y16321D01*
Y16281D01*
X4070Y16261D01*
X4130D01*
X3930Y16221D02*
X4010D01*
X3930Y16301D01*
Y16321D01*
X3950Y16341D01*
X3990D01*
X4010Y16321D01*
X3890D02*
X3870Y16341D01*
X3830D01*
X3810Y16321D01*
Y16301D01*
X3830Y16281D01*
X3850D01*
X3830D01*
X3810Y16261D01*
Y16241D01*
X3830Y16221D01*
X3870D01*
X3890Y16241D01*
X4250Y15160D02*
X4170D01*
X4210D01*
Y15040D01*
X4130D02*
Y15160D01*
X4070D01*
X4050Y15140D01*
Y15100D01*
X4070Y15080D01*
X4130D01*
X3930Y15040D02*
X4010D01*
X3930Y15120D01*
Y15140D01*
X3950Y15160D01*
X3990D01*
X4010Y15140D01*
X3810Y15040D02*
X3890D01*
X3810Y15120D01*
Y15140D01*
X3830Y15160D01*
X3870D01*
X3890Y15140D01*
X5880Y21440D02*
X5800D01*
X5840D01*
Y21320D01*
X5760D02*
Y21440D01*
X5700D01*
X5680Y21420D01*
Y21380D01*
X5700Y21360D01*
X5760D01*
X5560Y21440D02*
X5640D01*
Y21380D01*
X5600Y21400D01*
X5580D01*
X5560Y21380D01*
Y21340D01*
X5580Y21320D01*
X5620D01*
X5640Y21340D01*
X11120Y21680D02*
X11040D01*
X11080D01*
Y21560D01*
X11000D02*
Y21680D01*
X10940D01*
X10920Y21660D01*
Y21620D01*
X10940Y21600D01*
X11000D01*
X10880Y21560D02*
X10840D01*
X10860D01*
Y21680D01*
X10880Y21660D01*
X5421Y15358D02*
X5341D01*
X5381D01*
Y15238D01*
X5301D02*
Y15358D01*
X5241D01*
X5221Y15338D01*
Y15298D01*
X5241Y15278D01*
X5301D01*
X5101Y15238D02*
X5181D01*
X5101Y15318D01*
Y15338D01*
X5121Y15358D01*
X5161D01*
X5181Y15338D01*
X5061Y15238D02*
X5021D01*
X5041D01*
Y15358D01*
X5061Y15338D01*
X5440Y9340D02*
X5360D01*
X5400D01*
Y9220D01*
X5320D02*
Y9340D01*
X5260D01*
X5240Y9320D01*
Y9280D01*
X5260Y9260D01*
X5320D01*
X5120Y9220D02*
X5200D01*
X5120Y9300D01*
Y9320D01*
X5140Y9340D01*
X5180D01*
X5200Y9320D01*
X5020Y9220D02*
Y9340D01*
X5080Y9280D01*
X5000D01*
X9360Y22910D02*
X9280D01*
X9320D01*
Y22790D01*
X9240D02*
Y22910D01*
X9180D01*
X9160Y22890D01*
Y22850D01*
X9180Y22830D01*
X9240D01*
X9060Y22790D02*
Y22910D01*
X9120Y22850D01*
X9040D01*
X8850Y21640D02*
X8770D01*
X8810D01*
Y21520D01*
X8730D02*
Y21640D01*
X8670D01*
X8650Y21620D01*
Y21580D01*
X8670Y21560D01*
X8730D01*
X8530Y21640D02*
X8570Y21620D01*
X8610Y21580D01*
Y21540D01*
X8590Y21520D01*
X8550D01*
X8530Y21540D01*
Y21560D01*
X8550Y21580D01*
X8610D01*
X1789Y20645D02*
X1709D01*
X1749D01*
Y20525D01*
X1669D02*
Y20645D01*
X1609D01*
X1589Y20625D01*
Y20585D01*
X1609Y20565D01*
X1669D01*
X1549Y20525D02*
X1509D01*
X1529D01*
Y20645D01*
X1549Y20625D01*
X1389Y20525D02*
Y20645D01*
X1449Y20585D01*
X1369D01*
X4250Y10342D02*
X4170D01*
X4210D01*
Y10222D01*
X4130D02*
Y10342D01*
X4070D01*
X4050Y10322D01*
Y10282D01*
X4070Y10262D01*
X4130D01*
X3930Y10222D02*
X4010D01*
X3930Y10302D01*
Y10322D01*
X3950Y10342D01*
X3990D01*
X4010Y10322D01*
X3810Y10342D02*
X3890D01*
Y10282D01*
X3850Y10302D01*
X3830D01*
X3810Y10282D01*
Y10242D01*
X3830Y10222D01*
X3870D01*
X3890Y10242D01*
X4246Y9161D02*
X4166D01*
X4206D01*
Y9041D01*
X4126D02*
Y9161D01*
X4066D01*
X4046Y9141D01*
Y9101D01*
X4066Y9081D01*
X4126D01*
X3926Y9041D02*
X4006D01*
X3926Y9121D01*
Y9141D01*
X3946Y9161D01*
X3986D01*
X4006Y9141D01*
X3886Y9161D02*
X3806D01*
Y9141D01*
X3886Y9061D01*
Y9041D01*
X10689Y1680D02*
X10609D01*
X10649D01*
Y1560D01*
X10569D02*
Y1680D01*
X10509D01*
X10489Y1660D01*
Y1620D01*
X10509Y1600D01*
X10569D01*
X10449Y1560D02*
X10409D01*
X10429D01*
Y1680D01*
X10449Y1660D01*
X10349D02*
X10329Y1680D01*
X10289D01*
X10269Y1660D01*
Y1580D01*
X10289Y1560D01*
X10329D01*
X10349Y1580D01*
Y1660D01*
X11820Y1680D02*
X11740D01*
X11780D01*
Y1560D01*
X11700D02*
Y1680D01*
X11640D01*
X11620Y1660D01*
Y1620D01*
X11640Y1600D01*
X11700D01*
X11580Y1680D02*
X11500D01*
Y1660D01*
X11580Y1580D01*
Y1560D01*
X8277Y1680D02*
X8197D01*
X8237D01*
Y1560D01*
X8157D02*
Y1680D01*
X8097D01*
X8077Y1660D01*
Y1620D01*
X8097Y1600D01*
X8157D01*
X8037Y1580D02*
X8017Y1560D01*
X7977D01*
X7957Y1580D01*
Y1660D01*
X7977Y1680D01*
X8017D01*
X8037Y1660D01*
Y1640D01*
X8017Y1620D01*
X7957D01*
X9458Y1680D02*
X9378D01*
X9418D01*
Y1560D01*
X9338D02*
Y1680D01*
X9278D01*
X9258Y1660D01*
Y1620D01*
X9278Y1600D01*
X9338D01*
X9218Y1660D02*
X9198Y1680D01*
X9158D01*
X9138Y1660D01*
Y1640D01*
X9158Y1620D01*
X9138Y1600D01*
Y1580D01*
X9158Y1560D01*
X9198D01*
X9218Y1580D01*
Y1600D01*
X9198Y1620D01*
X9218Y1640D01*
Y1660D01*
X9198Y1620D02*
X9158D01*
X4820Y19320D02*
X4740D01*
X4780D01*
Y19200D01*
X4700D02*
Y19320D01*
X4640D01*
X4620Y19300D01*
Y19260D01*
X4640Y19240D01*
X4700D01*
X4580Y19200D02*
X4540D01*
X4560D01*
Y19320D01*
X4580Y19300D01*
X4400Y19320D02*
X4440Y19300D01*
X4480Y19260D01*
Y19220D01*
X4460Y19200D01*
X4420D01*
X4400Y19220D01*
Y19240D01*
X4420Y19260D01*
X4480D01*
X14460Y19430D02*
X14380D01*
X14420D01*
Y19310D01*
X14340D02*
Y19430D01*
X14280D01*
X14260Y19410D01*
Y19370D01*
X14280Y19350D01*
X14340D01*
X14140Y19310D02*
X14220D01*
X14140Y19390D01*
Y19410D01*
X14160Y19430D01*
X14200D01*
X14220Y19410D01*
X14100D02*
X14080Y19430D01*
X14040D01*
X14020Y19410D01*
Y19330D01*
X14040Y19310D01*
X14080D01*
X14100Y19330D01*
Y19410D01*
X3850Y12560D02*
X3770D01*
X3810D01*
Y12440D01*
X3730D02*
Y12560D01*
X3670D01*
X3650Y12540D01*
Y12500D01*
X3670Y12480D01*
X3730D01*
X3610Y12440D02*
X3570D01*
X3590D01*
Y12560D01*
X3610Y12540D01*
X3510Y12460D02*
X3490Y12440D01*
X3450D01*
X3430Y12460D01*
Y12540D01*
X3450Y12560D01*
X3490D01*
X3510Y12540D01*
Y12520D01*
X3490Y12500D01*
X3430D01*
X18120Y5200D02*
X18040D01*
X18080D01*
Y5080D01*
X18000D02*
Y5200D01*
X17940D01*
X17920Y5180D01*
Y5140D01*
X17940Y5120D01*
X18000D01*
X17880Y5080D02*
X17840D01*
X17860D01*
Y5200D01*
X17880Y5180D01*
X17780D02*
X17760Y5200D01*
X17720D01*
X17700Y5180D01*
Y5160D01*
X17720Y5140D01*
X17700Y5120D01*
Y5100D01*
X17720Y5080D01*
X17760D01*
X17780Y5100D01*
Y5120D01*
X17760Y5140D01*
X17780Y5160D01*
Y5180D01*
X17760Y5140D02*
X17720D01*
M02*
