G04*
G04 #@! TF.GenerationSoftware,Altium Limited,Altium Designer,26.3.0 (6)*
G04*
G04 Layer_Color=16711935*
%FSLAX24Y24*%
%MOIN*%
G70*
G04*
G04 #@! TF.SameCoordinates,16BEF44E-F0A4-4101-97DD-AF4FD7D9166A*
G04*
G04*
G04 #@! TF.FilePolarity,Negative*
G04*
G01*
G75*
%ADD108C,0.0671*%
%ADD133C,0.0787*%
%ADD135O,0.0827X0.0394*%
%ADD136O,0.0709X0.0394*%
%ADD137C,0.1260*%
%ADD138C,0.0470*%
%ADD139C,0.0354*%
%ADD140C,0.0276*%
D108*
X3640Y12500D02*
D03*
X17910Y5140D02*
D03*
X4610Y19260D02*
D03*
X14240Y19370D02*
D03*
X55266Y20427D02*
D03*
X56447D02*
D03*
X4030Y16281D02*
D03*
Y15100D02*
D03*
X5220Y15293D02*
D03*
X5720Y21380D02*
D03*
X10980Y21620D02*
D03*
X5220Y9280D02*
D03*
X9200Y22850D02*
D03*
X8690Y21580D02*
D03*
X1579Y20585D02*
D03*
X4030Y10282D02*
D03*
X4026Y9101D02*
D03*
X10479Y1620D02*
D03*
X11660D02*
D03*
X8117D02*
D03*
X9298D02*
D03*
D133*
X55547Y24209D02*
D03*
X52500Y1000D02*
D03*
X1250Y1250D02*
D03*
D135*
X2715Y7799D02*
D03*
Y11204D02*
D03*
Y13797D02*
D03*
Y17203D02*
D03*
D136*
X1069Y11204D02*
D03*
Y7799D02*
D03*
Y17203D02*
D03*
Y13797D02*
D03*
D137*
X4961Y23032D02*
D03*
X41732Y1969D02*
D03*
X17323Y1969D02*
D03*
X3150D02*
D03*
X44528Y23032D02*
D03*
X17323D02*
D03*
D138*
X11146Y453D02*
D03*
Y1253D02*
D03*
X8146Y853D02*
D03*
D139*
X1850Y24134D02*
D03*
Y21457D02*
D03*
D140*
X2526Y14362D02*
D03*
Y16638D02*
D03*
Y8364D02*
D03*
Y10639D02*
D03*
M02*
