G04*
G04 #@! TF.GenerationSoftware,Altium Limited,Altium Designer,26.3.0 (6)*
G04*
G04 Layer_Physical_Order=6*
G04 Layer_Color=16776960*
%FSLAX24Y24*%
%MOIN*%
G70*
G04*
G04 #@! TF.SameCoordinates,16BEF44E-F0A4-4101-97DD-AF4FD7D9166A*
G04*
G04*
G04 #@! TF.FilePolarity,Positive*
G04*
G01*
G75*
%ADD10C,0.0039*%
%ADD14C,0.0050*%
%ADD16C,0.0059*%
%ADD17C,0.0049*%
%ADD21O,0.0669X0.0354*%
%ADD22O,0.0787X0.0354*%
%ADD83C,0.0390*%
%ADD137C,0.1260*%
%ADD139C,0.0354*%
%ADD146C,0.0080*%
%ADD156C,0.0157*%
%ADD181C,0.0236*%
%ADD182C,0.0118*%
G36*
X56749Y24792D02*
X56784Y24777D01*
X56816Y24756D01*
X56843Y24729D01*
X56864Y24698D01*
X56878Y24663D01*
X56886Y24625D01*
Y24606D01*
X56886Y19817D01*
X54010Y19817D01*
X54009Y13623D01*
X52146D01*
Y13836D01*
X52166Y13856D01*
X52181Y13892D01*
Y13932D01*
X52166Y13968D01*
X52138Y13995D01*
X52102Y14010D01*
X52074D01*
X52010Y14075D01*
Y14674D01*
X51991Y14719D01*
X51837Y14873D01*
Y18503D01*
X51818Y18548D01*
X48405Y21961D01*
Y23217D01*
X48408Y23218D01*
X48441Y23251D01*
X48459Y23295D01*
Y23342D01*
X48441Y23385D01*
X48408Y23418D01*
X48365Y23436D01*
X48318D01*
X48274Y23418D01*
X48241Y23385D01*
X48223Y23342D01*
Y23295D01*
X48241Y23251D01*
X48274Y23218D01*
X48277Y23217D01*
Y22038D01*
X48231Y22019D01*
X46958Y23292D01*
X46959Y23295D01*
Y23342D01*
X46941Y23385D01*
X46908Y23418D01*
X46865Y23436D01*
X46818D01*
X46774Y23418D01*
X46741Y23385D01*
X46723Y23342D01*
Y23295D01*
X46724Y23293D01*
X46690Y23243D01*
X46507D01*
X46458Y23292D01*
X46459Y23295D01*
Y23342D01*
X46441Y23385D01*
X46408Y23418D01*
X46365Y23436D01*
X46318D01*
X46274Y23418D01*
X46241Y23385D01*
X46223Y23342D01*
Y23295D01*
X46241Y23251D01*
X46274Y23218D01*
X46318Y23200D01*
X46365D01*
X46368Y23201D01*
X46435Y23134D01*
X46480Y23115D01*
X46835D01*
X51486Y18464D01*
Y14329D01*
X51483Y14328D01*
X51450Y14295D01*
X51432Y14251D01*
Y14204D01*
X51450Y14161D01*
X51483Y14128D01*
X51486Y14126D01*
Y13952D01*
X51436Y13931D01*
X50661Y14707D01*
Y14728D01*
X50646Y14764D01*
X50618Y14792D01*
X50582Y14807D01*
X50543D01*
X50506Y14792D01*
X50479Y14764D01*
X50464Y14728D01*
Y14689D01*
X50479Y14653D01*
X50506Y14625D01*
X50543Y14610D01*
X50577D01*
X51357Y13830D01*
Y6624D01*
X51375Y6579D01*
X51495Y6459D01*
Y2219D01*
X51492Y2217D01*
X51459Y2184D01*
X51441Y2141D01*
Y2094D01*
X51459Y2050D01*
X51492Y2017D01*
X51536Y1999D01*
X51583D01*
X51626Y2017D01*
X51659Y2050D01*
X51677Y2094D01*
Y2141D01*
X51659Y2184D01*
X51626Y2217D01*
X51623Y2219D01*
Y6486D01*
X51605Y6531D01*
X51484Y6651D01*
Y6884D01*
X51531Y6919D01*
X51570D01*
X51606Y6934D01*
X51634Y6961D01*
X51649Y6998D01*
Y7037D01*
X51659Y7050D01*
X51686Y7076D01*
X51718D01*
X51754Y7091D01*
X51782Y7119D01*
X51797Y7155D01*
Y7194D01*
X51782Y7230D01*
X51763Y7250D01*
Y13577D01*
X51838Y13652D01*
X51841Y13651D01*
X51888D01*
X51932Y13669D01*
X51965Y13702D01*
X51968Y13709D01*
X52018Y13699D01*
Y7005D01*
X51998Y6985D01*
X51983Y6949D01*
Y6910D01*
X51998Y6874D01*
X52026Y6846D01*
X52062Y6831D01*
X52101D01*
X52137Y6846D01*
X52165Y6874D01*
X52180Y6910D01*
Y6949D01*
X52165Y6985D01*
X52146Y7005D01*
Y12919D01*
X53974D01*
X54009Y12883D01*
X54008Y201D01*
X11352Y201D01*
X11331Y251D01*
X11365Y284D01*
X11401Y347D01*
X11419Y416D01*
Y489D01*
X11401Y558D01*
X11365Y621D01*
X11314Y672D01*
X11251Y708D01*
X11182Y726D01*
X11110D01*
X11072Y716D01*
X11047Y757D01*
X11045Y761D01*
X11063Y803D01*
Y850D01*
X11045Y894D01*
X11012Y927D01*
X10968Y945D01*
X10921D01*
X10878Y927D01*
X10845Y894D01*
X10827Y850D01*
Y803D01*
X10845Y760D01*
X10878Y727D01*
X10921Y709D01*
X10947D01*
X10965Y659D01*
X10927Y621D01*
X10891Y558D01*
X10872Y489D01*
Y416D01*
X10891Y347D01*
X10927Y284D01*
X10960Y251D01*
X10940Y201D01*
X10462Y201D01*
X10452Y251D01*
X10461Y254D01*
X10494Y288D01*
X10512Y331D01*
Y378D01*
X10494Y421D01*
X10461Y455D01*
X10417Y473D01*
X10370D01*
X10327Y455D01*
X10294Y421D01*
X10276Y378D01*
Y331D01*
X10294Y288D01*
X10327Y254D01*
X10335Y251D01*
X10325Y201D01*
X394Y201D01*
X394Y201D01*
X393Y201D01*
X374Y201D01*
X337Y208D01*
X302Y223D01*
X271Y244D01*
X244Y271D01*
X223Y302D01*
X208Y337D01*
X201Y375D01*
Y394D01*
X201Y24606D01*
Y24625D01*
X208Y24663D01*
X223Y24698D01*
X244Y24729D01*
X271Y24756D01*
X302Y24777D01*
X337Y24792D01*
X375Y24799D01*
X394D01*
X56694Y24799D01*
X56712D01*
X56749Y24792D01*
D02*
G37*
%LPC*%
G36*
X1884Y24390D02*
X1817D01*
X1752Y24372D01*
X1693Y24339D01*
X1646Y24291D01*
X1612Y24233D01*
X1594Y24168D01*
Y24100D01*
X1612Y24035D01*
X1646Y23977D01*
X1693Y23929D01*
X1752Y23896D01*
X1817Y23878D01*
X1884D01*
X1949Y23896D01*
X2008Y23929D01*
X2055Y23977D01*
X2089Y24035D01*
X2106Y24100D01*
Y24168D01*
X2089Y24233D01*
X2055Y24291D01*
X2008Y24339D01*
X1949Y24372D01*
X1884Y24390D01*
D02*
G37*
G36*
X13527Y23908D02*
X13480D01*
X13437Y23890D01*
X13403Y23857D01*
X13385Y23813D01*
Y23766D01*
X13403Y23723D01*
X13437Y23689D01*
X13480Y23672D01*
X13527D01*
X13570Y23689D01*
X13604Y23723D01*
X13622Y23766D01*
Y23813D01*
X13604Y23857D01*
X13570Y23890D01*
X13527Y23908D01*
D02*
G37*
G36*
X1401Y23898D02*
X1354D01*
X1311Y23880D01*
X1278Y23846D01*
X1260Y23803D01*
Y23756D01*
X1278Y23713D01*
X1311Y23679D01*
X1354Y23661D01*
X1401D01*
X1445Y23679D01*
X1478Y23713D01*
X1496Y23756D01*
Y23803D01*
X1478Y23846D01*
X1445Y23880D01*
X1401Y23898D01*
D02*
G37*
G36*
X7477Y23615D02*
X7430D01*
X7386Y23597D01*
X7353Y23564D01*
X7335Y23520D01*
Y23473D01*
X7353Y23430D01*
X7386Y23397D01*
X7430Y23379D01*
X7477D01*
X7520Y23397D01*
X7553Y23430D01*
X7571Y23473D01*
Y23520D01*
X7553Y23564D01*
X7520Y23597D01*
X7477Y23615D01*
D02*
G37*
G36*
X12533Y23610D02*
X12486D01*
X12443Y23592D01*
X12410Y23559D01*
X12392Y23515D01*
Y23468D01*
X12410Y23425D01*
X12443Y23392D01*
X12486Y23374D01*
X12533D01*
X12577Y23392D01*
X12610Y23425D01*
X12628Y23468D01*
Y23515D01*
X12610Y23559D01*
X12577Y23592D01*
X12533Y23610D01*
D02*
G37*
G36*
X50865Y23436D02*
X50818D01*
X50774Y23418D01*
X50741Y23385D01*
X50723Y23342D01*
Y23295D01*
X50741Y23251D01*
X50774Y23218D01*
X50818Y23200D01*
X50865D01*
X50908Y23218D01*
X50941Y23251D01*
X50959Y23295D01*
Y23342D01*
X50941Y23385D01*
X50908Y23418D01*
X50865Y23436D01*
D02*
G37*
G36*
X50365D02*
X50318D01*
X50274Y23418D01*
X50241Y23385D01*
X50223Y23342D01*
Y23295D01*
X50241Y23251D01*
X50274Y23218D01*
X50318Y23200D01*
X50365D01*
X50408Y23218D01*
X50441Y23251D01*
X50459Y23295D01*
Y23342D01*
X50441Y23385D01*
X50408Y23418D01*
X50365Y23436D01*
D02*
G37*
G36*
X49865D02*
X49818D01*
X49774Y23418D01*
X49741Y23385D01*
X49723Y23342D01*
Y23295D01*
X49741Y23251D01*
X49774Y23218D01*
X49818Y23200D01*
X49865D01*
X49908Y23218D01*
X49941Y23251D01*
X49959Y23295D01*
Y23342D01*
X49941Y23385D01*
X49908Y23418D01*
X49865Y23436D01*
D02*
G37*
G36*
X49365D02*
X49318D01*
X49274Y23418D01*
X49241Y23385D01*
X49223Y23342D01*
Y23295D01*
X49241Y23251D01*
X49274Y23218D01*
X49318Y23200D01*
X49365D01*
X49408Y23218D01*
X49441Y23251D01*
X49459Y23295D01*
Y23342D01*
X49441Y23385D01*
X49408Y23418D01*
X49365Y23436D01*
D02*
G37*
G36*
X48865D02*
X48818D01*
X48774Y23418D01*
X48741Y23385D01*
X48723Y23342D01*
Y23295D01*
X48741Y23251D01*
X48774Y23218D01*
X48818Y23200D01*
X48865D01*
X48908Y23218D01*
X48941Y23251D01*
X48959Y23295D01*
Y23342D01*
X48941Y23385D01*
X48908Y23418D01*
X48865Y23436D01*
D02*
G37*
G36*
X47365D02*
X47318D01*
X47274Y23418D01*
X47241Y23385D01*
X47223Y23342D01*
Y23295D01*
X47241Y23251D01*
X47274Y23218D01*
X47318Y23200D01*
X47365D01*
X47408Y23218D01*
X47441Y23251D01*
X47459Y23295D01*
Y23342D01*
X47441Y23385D01*
X47408Y23418D01*
X47365Y23436D01*
D02*
G37*
G36*
X13527Y23335D02*
X13480D01*
X13437Y23317D01*
X13404Y23284D01*
X13386Y23240D01*
Y23193D01*
X13404Y23150D01*
X13437Y23117D01*
X13480Y23099D01*
X13527D01*
X13571Y23117D01*
X13604Y23150D01*
X13622Y23193D01*
Y23240D01*
X13604Y23284D01*
X13571Y23317D01*
X13527Y23335D01*
D02*
G37*
G36*
X9079Y22953D02*
X9032D01*
X8988Y22935D01*
X8955Y22902D01*
X8937Y22858D01*
Y22811D01*
X8955Y22768D01*
X8988Y22735D01*
X9032Y22717D01*
X9079D01*
X9122Y22735D01*
X9155Y22768D01*
X9173Y22811D01*
Y22858D01*
X9155Y22902D01*
X9122Y22935D01*
X9079Y22953D01*
D02*
G37*
G36*
X2346Y22914D02*
X2299D01*
X2256Y22896D01*
X2223Y22862D01*
X2205Y22819D01*
Y22772D01*
X2223Y22729D01*
X2256Y22695D01*
X2299Y22677D01*
X2346D01*
X2390Y22695D01*
X2423Y22729D01*
X2441Y22772D01*
Y22819D01*
X2423Y22862D01*
X2390Y22896D01*
X2346Y22914D01*
D02*
G37*
G36*
X1401D02*
X1354D01*
X1311Y22896D01*
X1278Y22862D01*
X1260Y22819D01*
Y22772D01*
X1278Y22729D01*
X1311Y22695D01*
X1354Y22677D01*
X1401D01*
X1445Y22695D01*
X1478Y22729D01*
X1496Y22772D01*
Y22819D01*
X1478Y22862D01*
X1445Y22896D01*
X1401Y22914D01*
D02*
G37*
G36*
X5030Y23740D02*
X4891D01*
X4754Y23713D01*
X4625Y23660D01*
X4509Y23582D01*
X4410Y23483D01*
X4333Y23367D01*
X4279Y23238D01*
X4252Y23101D01*
Y22962D01*
X4279Y22825D01*
X4333Y22696D01*
X4410Y22580D01*
X4509Y22481D01*
X4625Y22404D01*
X4754Y22350D01*
X4891Y22323D01*
X5030D01*
X5167Y22350D01*
X5296Y22404D01*
X5412Y22481D01*
X5511Y22580D01*
X5589Y22696D01*
X5642Y22825D01*
X5669Y22962D01*
Y23101D01*
X5642Y23238D01*
X5589Y23367D01*
X5511Y23483D01*
X5412Y23582D01*
X5296Y23660D01*
X5167Y23713D01*
X5030Y23740D01*
D02*
G37*
G36*
X44597Y23740D02*
X44458D01*
X44321Y23713D01*
X44192Y23660D01*
X44076Y23582D01*
X43977Y23483D01*
X43900Y23367D01*
X43846Y23238D01*
X43819Y23101D01*
Y22962D01*
X43846Y22825D01*
X43900Y22696D01*
X43977Y22580D01*
X44076Y22481D01*
X44192Y22404D01*
X44321Y22350D01*
X44458Y22323D01*
X44597D01*
X44734Y22350D01*
X44863Y22404D01*
X44979Y22481D01*
X45078Y22580D01*
X45156Y22696D01*
X45209Y22825D01*
X45236Y22962D01*
Y23101D01*
X45209Y23238D01*
X45156Y23367D01*
X45078Y23483D01*
X44979Y23582D01*
X44863Y23660D01*
X44734Y23713D01*
X44597Y23740D01*
D02*
G37*
G36*
X17393D02*
X17253D01*
X17116Y23713D01*
X16987Y23660D01*
X16871Y23582D01*
X16772Y23483D01*
X16695Y23367D01*
X16641Y23238D01*
X16614Y23101D01*
Y22962D01*
X16641Y22825D01*
X16695Y22696D01*
X16772Y22580D01*
X16871Y22481D01*
X16987Y22404D01*
X17116Y22350D01*
X17253Y22323D01*
X17393D01*
X17530Y22350D01*
X17659Y22404D01*
X17775Y22481D01*
X17873Y22580D01*
X17951Y22696D01*
X18004Y22825D01*
X18032Y22962D01*
Y23101D01*
X18004Y23238D01*
X17951Y23367D01*
X17873Y23483D01*
X17775Y23582D01*
X17659Y23660D01*
X17530Y23713D01*
X17393Y23740D01*
D02*
G37*
G36*
X56086Y22480D02*
X56040D01*
X55996Y22462D01*
X55963Y22429D01*
X55945Y22386D01*
Y22339D01*
X55963Y22295D01*
X55996Y22262D01*
X56040Y22244D01*
X56086D01*
X56130Y22262D01*
X56163Y22295D01*
X56181Y22339D01*
Y22386D01*
X56163Y22429D01*
X56130Y22462D01*
X56086Y22480D01*
D02*
G37*
G36*
X55693D02*
X55646D01*
X55602Y22462D01*
X55569Y22429D01*
X55551Y22386D01*
Y22339D01*
X55569Y22295D01*
X55602Y22262D01*
X55646Y22244D01*
X55693D01*
X55736Y22262D01*
X55769Y22295D01*
X55787Y22339D01*
Y22386D01*
X55769Y22429D01*
X55736Y22462D01*
X55693Y22480D01*
D02*
G37*
G36*
X1441Y21969D02*
X1394D01*
X1350Y21951D01*
X1317Y21917D01*
X1299Y21874D01*
Y21827D01*
X1317Y21783D01*
X1350Y21750D01*
X1394Y21732D01*
X1441D01*
X1484Y21750D01*
X1517Y21783D01*
X1535Y21827D01*
Y21874D01*
X1517Y21917D01*
X1484Y21951D01*
X1441Y21969D01*
D02*
G37*
G36*
X9951Y21925D02*
X9904D01*
X9861Y21907D01*
X9827Y21874D01*
X9809Y21831D01*
Y21784D01*
X9827Y21740D01*
X9861Y21707D01*
X9904Y21689D01*
X9951D01*
X9995Y21707D01*
X10028Y21740D01*
X10046Y21784D01*
Y21831D01*
X10028Y21874D01*
X9995Y21907D01*
X9951Y21925D01*
D02*
G37*
G36*
X6441Y21811D02*
X6394D01*
X6350Y21793D01*
X6317Y21760D01*
X6299Y21716D01*
Y21669D01*
X6317Y21626D01*
X6350Y21593D01*
X6394Y21575D01*
X6441D01*
X6484Y21593D01*
X6517Y21626D01*
X6535Y21669D01*
Y21716D01*
X6517Y21760D01*
X6484Y21793D01*
X6441Y21811D01*
D02*
G37*
G36*
X11004Y21738D02*
X10957D01*
X10913Y21720D01*
X10880Y21687D01*
X10862Y21644D01*
Y21597D01*
X10880Y21553D01*
X10913Y21520D01*
X10957Y21502D01*
X11004D01*
X11047Y21520D01*
X11080Y21553D01*
X11098Y21597D01*
Y21644D01*
X11080Y21687D01*
X11047Y21720D01*
X11004Y21738D01*
D02*
G37*
G36*
X8714Y21503D02*
X8667D01*
X8624Y21485D01*
X8591Y21452D01*
X8573Y21409D01*
Y21362D01*
X8591Y21318D01*
X8624Y21285D01*
X8667Y21267D01*
X8714D01*
X8758Y21285D01*
X8791Y21318D01*
X8809Y21362D01*
Y21409D01*
X8791Y21452D01*
X8758Y21485D01*
X8714Y21503D01*
D02*
G37*
G36*
X1884Y21713D02*
X1817D01*
X1752Y21695D01*
X1693Y21662D01*
X1646Y21614D01*
X1612Y21556D01*
X1594Y21491D01*
Y21423D01*
X1612Y21358D01*
X1646Y21300D01*
X1693Y21252D01*
X1752Y21218D01*
X1817Y21201D01*
X1884D01*
X1949Y21218D01*
X2008Y21252D01*
X2055Y21300D01*
X2089Y21358D01*
X2106Y21423D01*
Y21491D01*
X2089Y21556D01*
X2055Y21614D01*
X2008Y21662D01*
X1949Y21695D01*
X1884Y21713D01*
D02*
G37*
G36*
X5142Y21378D02*
X5095D01*
X5051Y21360D01*
X5018Y21327D01*
X5000Y21284D01*
Y21237D01*
X5018Y21193D01*
X5051Y21160D01*
X5095Y21142D01*
X5142D01*
X5185Y21160D01*
X5218Y21193D01*
X5236Y21237D01*
Y21284D01*
X5218Y21327D01*
X5185Y21360D01*
X5142Y21378D01*
D02*
G37*
G36*
X56704Y21301D02*
X56657D01*
X56614Y21283D01*
X56581Y21250D01*
X56563Y21206D01*
Y21159D01*
X56581Y21116D01*
X56614Y21083D01*
X56657Y21065D01*
X56704D01*
X56748Y21083D01*
X56781Y21116D01*
X56799Y21159D01*
Y21206D01*
X56781Y21250D01*
X56748Y21283D01*
X56704Y21301D01*
D02*
G37*
G36*
X46244Y21693D02*
X46197D01*
X46154Y21675D01*
X46120Y21642D01*
X46102Y21598D01*
Y21551D01*
X46104Y21548D01*
X46055Y21499D01*
X46036Y21454D01*
Y17239D01*
X45986Y17229D01*
X45974Y17257D01*
X45664Y17567D01*
X45665Y17570D01*
Y17617D01*
X45647Y17661D01*
X45614Y17694D01*
X45570Y17712D01*
X45523D01*
X45480Y17694D01*
X45447Y17661D01*
X45398Y17673D01*
X45380Y17688D01*
Y18816D01*
X45499Y18935D01*
X45502Y18934D01*
X45549D01*
X45592Y18952D01*
X45626Y18985D01*
X45644Y19028D01*
Y19075D01*
X45626Y19119D01*
X45592Y19152D01*
X45549Y19170D01*
X45502D01*
X45459Y19152D01*
X45425Y19119D01*
X45407Y19075D01*
Y19028D01*
X45409Y19025D01*
X45271Y18888D01*
X45252Y18843D01*
Y17613D01*
X45271Y17568D01*
X45722Y17118D01*
Y13671D01*
X45702Y13651D01*
X45687Y13615D01*
Y13576D01*
X45702Y13540D01*
X45730Y13512D01*
X45766Y13497D01*
X45805D01*
X45815Y13501D01*
X45865Y13470D01*
Y12648D01*
X45845Y12628D01*
X45830Y12592D01*
Y12553D01*
X45845Y12517D01*
X45873Y12489D01*
X45909Y12474D01*
X45948D01*
X45984Y12489D01*
X46012Y12517D01*
X46027Y12553D01*
Y12592D01*
X46012Y12628D01*
X45993Y12647D01*
Y12788D01*
X46043Y12809D01*
X46044Y12808D01*
X46080Y12793D01*
X46119D01*
X46156Y12808D01*
X46183Y12836D01*
X46198Y12872D01*
Y12911D01*
X46183Y12947D01*
X46164Y12967D01*
Y13011D01*
X46166Y13014D01*
X46214Y13040D01*
X46229Y13033D01*
X46269D01*
X46305Y13048D01*
X46332Y13076D01*
X46347Y13112D01*
Y13151D01*
X46332Y13188D01*
X46313Y13207D01*
Y13299D01*
X46313Y13302D01*
X46361Y13306D01*
X46365Y13297D01*
X46376Y13270D01*
X46404Y13242D01*
X46440Y13227D01*
X46479D01*
X46515Y13242D01*
X46543Y13270D01*
X46558Y13306D01*
Y13345D01*
X46543Y13381D01*
X46521Y13404D01*
Y20840D01*
X46745Y21064D01*
X46748Y21063D01*
X46795D01*
X46839Y21081D01*
X46872Y21114D01*
X46890Y21158D01*
Y21205D01*
X46872Y21248D01*
X46839Y21281D01*
X46795Y21299D01*
X46748D01*
X46746Y21298D01*
X46727Y21315D01*
X46712Y21339D01*
X46727Y21374D01*
Y21421D01*
X46709Y21465D01*
X46676Y21498D01*
X46632Y21516D01*
X46585D01*
X46542Y21498D01*
X46509Y21465D01*
X46491Y21421D01*
Y21374D01*
X46492Y21371D01*
X46214Y21093D01*
X46168Y21106D01*
X46164Y21108D01*
Y21423D01*
X46197Y21457D01*
X46244D01*
X46287Y21475D01*
X46321Y21508D01*
X46339Y21551D01*
Y21598D01*
X46321Y21642D01*
X46287Y21675D01*
X46244Y21693D01*
D02*
G37*
G36*
X55079Y21294D02*
X55032D01*
X54988Y21276D01*
X54955Y21243D01*
X54937Y21199D01*
Y21152D01*
X54955Y21109D01*
X54988Y21075D01*
X55032Y21057D01*
X55079D01*
X55122Y21075D01*
X55155Y21109D01*
X55173Y21152D01*
Y21199D01*
X55155Y21243D01*
X55122Y21276D01*
X55079Y21294D01*
D02*
G37*
G36*
X7356Y20837D02*
X7309D01*
X7266Y20819D01*
X7233Y20786D01*
X7232Y20784D01*
X7178D01*
X7177Y20786D01*
X7144Y20819D01*
X7100Y20837D01*
X7053D01*
X7010Y20819D01*
X6977Y20786D01*
X6959Y20742D01*
Y20695D01*
X6977Y20652D01*
X7010Y20619D01*
X7053Y20601D01*
X7100D01*
X7144Y20619D01*
X7177Y20652D01*
X7178Y20654D01*
X7232D01*
X7233Y20652D01*
X7266Y20619D01*
X7309Y20601D01*
X7356D01*
X7400Y20619D01*
X7433Y20652D01*
X7451Y20695D01*
Y20742D01*
X7433Y20786D01*
X7400Y20819D01*
X7356Y20837D01*
D02*
G37*
G36*
X38606Y20945D02*
X38559D01*
X38516Y20927D01*
X38483Y20894D01*
X38465Y20850D01*
Y20803D01*
X38483Y20760D01*
X38516Y20727D01*
X38559Y20709D01*
X38606D01*
X38650Y20727D01*
X38683Y20760D01*
X38701Y20803D01*
Y20850D01*
X38683Y20894D01*
X38650Y20927D01*
X38606Y20945D01*
D02*
G37*
G36*
X24344Y20935D02*
X24297D01*
X24254Y20917D01*
X24221Y20884D01*
X24203Y20841D01*
Y20794D01*
X24221Y20750D01*
X24254Y20717D01*
X24297Y20699D01*
X24344D01*
X24388Y20717D01*
X24421Y20750D01*
X24439Y20794D01*
Y20841D01*
X24421Y20884D01*
X24388Y20917D01*
X24344Y20935D01*
D02*
G37*
G36*
X36598Y20906D02*
X36551D01*
X36508Y20888D01*
X36475Y20854D01*
X36457Y20811D01*
Y20764D01*
X36475Y20721D01*
X36508Y20687D01*
X36551Y20669D01*
X36598D01*
X36642Y20687D01*
X36675Y20721D01*
X36693Y20764D01*
Y20811D01*
X36675Y20854D01*
X36642Y20888D01*
X36598Y20906D01*
D02*
G37*
G36*
X44478Y20886D02*
X44431D01*
X44388Y20868D01*
X44355Y20834D01*
X44337Y20791D01*
Y20744D01*
X44355Y20701D01*
X44388Y20667D01*
X44431Y20649D01*
X44478D01*
X44522Y20667D01*
X44555Y20701D01*
X44573Y20744D01*
Y20791D01*
X44555Y20834D01*
X44522Y20868D01*
X44478Y20886D01*
D02*
G37*
G36*
X40596D02*
X40549D01*
X40506Y20868D01*
X40473Y20834D01*
X40455Y20791D01*
Y20744D01*
X40473Y20701D01*
X40506Y20667D01*
X40549Y20649D01*
X40596D01*
X40640Y20667D01*
X40673Y20701D01*
X40691Y20744D01*
Y20791D01*
X40673Y20834D01*
X40640Y20868D01*
X40596Y20886D01*
D02*
G37*
G36*
X39596D02*
X39549D01*
X39506Y20868D01*
X39473Y20834D01*
X39455Y20791D01*
Y20744D01*
X39473Y20701D01*
X39506Y20667D01*
X39549Y20649D01*
X39596D01*
X39640Y20667D01*
X39673Y20701D01*
X39691Y20744D01*
Y20791D01*
X39673Y20834D01*
X39640Y20868D01*
X39596Y20886D01*
D02*
G37*
G36*
X29346D02*
X29299D01*
X29256Y20868D01*
X29223Y20834D01*
X29205Y20791D01*
Y20744D01*
X29223Y20701D01*
X29256Y20667D01*
X29299Y20649D01*
X29346D01*
X29390Y20667D01*
X29423Y20701D01*
X29441Y20744D01*
Y20791D01*
X29423Y20834D01*
X29390Y20868D01*
X29346Y20886D01*
D02*
G37*
G36*
X14315Y20847D02*
X14268D01*
X14224Y20829D01*
X14191Y20795D01*
X14173Y20752D01*
Y20705D01*
X14191Y20662D01*
X14224Y20628D01*
X14268Y20610D01*
X14315D01*
X14358Y20628D01*
X14391Y20662D01*
X14409Y20705D01*
Y20752D01*
X14391Y20795D01*
X14358Y20829D01*
X14315Y20847D01*
D02*
G37*
G36*
X55988Y20455D02*
X55941D01*
X55898Y20437D01*
X55866Y20406D01*
X55835Y20437D01*
X55791Y20455D01*
X55744D01*
X55701Y20437D01*
X55668Y20404D01*
X55650Y20360D01*
Y20313D01*
X55668Y20270D01*
X55701Y20237D01*
X55744Y20219D01*
X55791D01*
X55835Y20237D01*
X55866Y20268D01*
X55898Y20237D01*
X55941Y20219D01*
X55988D01*
X56031Y20237D01*
X56065Y20270D01*
X56083Y20313D01*
Y20360D01*
X56065Y20404D01*
X56031Y20437D01*
X55988Y20455D01*
D02*
G37*
G36*
X12932Y20641D02*
X12885D01*
X12841Y20623D01*
X12808Y20590D01*
X12790Y20547D01*
Y20500D01*
X12808Y20456D01*
X12841Y20423D01*
X12885Y20405D01*
X12932D01*
X12975Y20423D01*
X13008Y20456D01*
X13026Y20500D01*
Y20547D01*
X13008Y20590D01*
X12975Y20623D01*
X12932Y20641D01*
D02*
G37*
G36*
X1598Y20591D02*
X1551D01*
X1508Y20573D01*
X1475Y20540D01*
X1457Y20496D01*
Y20449D01*
X1475Y20406D01*
X1508Y20372D01*
X1551Y20354D01*
X1598D01*
X1642Y20372D01*
X1675Y20406D01*
X1693Y20449D01*
Y20496D01*
X1675Y20540D01*
X1642Y20573D01*
X1598Y20591D01*
D02*
G37*
G36*
X9709Y20591D02*
X9662D01*
X9618Y20573D01*
X9585Y20539D01*
X9567Y20496D01*
Y20449D01*
X9585Y20406D01*
X9618Y20372D01*
X9662Y20354D01*
X9709D01*
X9752Y20372D01*
X9785Y20406D01*
X9803Y20449D01*
Y20496D01*
X9785Y20539D01*
X9752Y20573D01*
X9709Y20591D01*
D02*
G37*
G36*
X3724Y20473D02*
X3677D01*
X3634Y20455D01*
X3601Y20421D01*
X3583Y20378D01*
Y20331D01*
X3601Y20288D01*
X3634Y20254D01*
X3677Y20236D01*
X3724D01*
X3768Y20254D01*
X3801Y20288D01*
X3819Y20331D01*
Y20378D01*
X3801Y20421D01*
X3768Y20455D01*
X3724Y20473D01*
D02*
G37*
G36*
X2780Y20570D02*
X2733D01*
X2690Y20552D01*
X2657Y20518D01*
X2639Y20475D01*
Y20428D01*
X2657Y20385D01*
X2690Y20351D01*
X2691Y20351D01*
Y20297D01*
X2690Y20296D01*
X2657Y20263D01*
X2639Y20219D01*
Y20172D01*
X2657Y20129D01*
X2690Y20096D01*
X2733Y20078D01*
X2780D01*
X2824Y20096D01*
X2857Y20129D01*
X2875Y20172D01*
Y20219D01*
X2857Y20263D01*
X2824Y20296D01*
X2822Y20297D01*
Y20351D01*
X2824Y20351D01*
X2857Y20385D01*
X2875Y20428D01*
Y20475D01*
X2857Y20518D01*
X2824Y20552D01*
X2780Y20570D01*
D02*
G37*
G36*
X47779Y20630D02*
X47732D01*
X47689Y20612D01*
X47656Y20579D01*
X47638Y20535D01*
Y20488D01*
X47655Y20448D01*
X46876Y19669D01*
X46857Y19624D01*
Y12829D01*
X46837Y12809D01*
X46822Y12773D01*
Y12734D01*
X46837Y12698D01*
X46865Y12670D01*
X46901Y12655D01*
X46940D01*
X46977Y12670D01*
X47004Y12698D01*
X47019Y12734D01*
Y12773D01*
X47004Y12809D01*
X46985Y12829D01*
Y13350D01*
X47035Y13371D01*
X47040Y13366D01*
X47076Y13351D01*
X47115D01*
X47152Y13366D01*
X47179Y13393D01*
X47194Y13430D01*
Y13469D01*
X47179Y13505D01*
X47160Y13524D01*
Y19226D01*
X47910Y19976D01*
X48639D01*
X48640Y19973D01*
X48673Y19939D01*
X48717Y19921D01*
X48764D01*
X48807Y19939D01*
X48840Y19973D01*
X48858Y20016D01*
Y20063D01*
X48840Y20106D01*
X48807Y20140D01*
X48764Y20158D01*
X48717D01*
X48673Y20140D01*
X48640Y20106D01*
X48639Y20103D01*
X47883D01*
X47838Y20085D01*
X47051Y19298D01*
X47032Y19252D01*
X46985Y19259D01*
Y19598D01*
X47782Y20395D01*
X47823Y20412D01*
X47856Y20445D01*
X47874Y20488D01*
Y20535D01*
X47856Y20579D01*
X47823Y20612D01*
X47779Y20630D01*
D02*
G37*
G36*
X2472Y20143D02*
X2425D01*
X2382Y20125D01*
X2349Y20091D01*
X2331Y20048D01*
Y20001D01*
X2349Y19957D01*
X2382Y19924D01*
X2425Y19906D01*
X2472D01*
X2516Y19924D01*
X2549Y19957D01*
X2567Y20001D01*
Y20048D01*
X2549Y20091D01*
X2516Y20125D01*
X2472Y20143D01*
D02*
G37*
G36*
X1075D02*
X1028D01*
X984Y20125D01*
X951Y20091D01*
X933Y20048D01*
Y20001D01*
X951Y19957D01*
X984Y19924D01*
X1028Y19906D01*
X1075D01*
X1118Y19924D01*
X1151Y19957D01*
X1169Y20001D01*
Y20048D01*
X1151Y20091D01*
X1118Y20125D01*
X1075Y20143D01*
D02*
G37*
G36*
X38827Y19950D02*
X38780D01*
X38736Y19932D01*
X38703Y19899D01*
X38685Y19856D01*
Y19809D01*
X38703Y19765D01*
X38736Y19732D01*
X38780Y19714D01*
X38827D01*
X38870Y19732D01*
X38903Y19765D01*
X38921Y19809D01*
Y19856D01*
X38903Y19899D01*
X38870Y19932D01*
X38827Y19950D01*
D02*
G37*
G36*
X6205Y19754D02*
X6158D01*
X6114Y19736D01*
X6090Y19712D01*
X6060Y19706D01*
X6030Y19712D01*
X6006Y19736D01*
X5962Y19754D01*
X5915D01*
X5872Y19736D01*
X5839Y19703D01*
X5821Y19659D01*
Y19612D01*
X5839Y19569D01*
X5865Y19543D01*
X5867Y19507D01*
X5863Y19485D01*
X5835Y19457D01*
X5817Y19413D01*
Y19366D01*
X5835Y19323D01*
X5868Y19290D01*
X5912Y19272D01*
X5959D01*
X6002Y19290D01*
X6029Y19317D01*
X6058Y19320D01*
X6087Y19317D01*
X6114Y19290D01*
X6158Y19272D01*
X6205D01*
X6248Y19290D01*
X6281Y19323D01*
X6299Y19366D01*
Y19413D01*
X6281Y19457D01*
X6254Y19484D01*
X6251Y19513D01*
X6254Y19542D01*
X6281Y19569D01*
X6299Y19612D01*
Y19659D01*
X6281Y19703D01*
X6248Y19736D01*
X6205Y19754D01*
D02*
G37*
G36*
X47773Y19576D02*
X47727D01*
X47683Y19558D01*
X47650Y19525D01*
X47632Y19482D01*
Y19435D01*
X47650Y19391D01*
X47683Y19358D01*
X47727Y19340D01*
X47773D01*
X47817Y19358D01*
X47850Y19391D01*
X47868Y19435D01*
Y19482D01*
X47850Y19525D01*
X47817Y19558D01*
X47773Y19576D01*
D02*
G37*
G36*
X10693Y19331D02*
X10646D01*
X10602Y19313D01*
X10571Y19281D01*
X10539Y19313D01*
X10496Y19331D01*
X10449D01*
X10406Y19313D01*
X10372Y19280D01*
X10354Y19236D01*
Y19189D01*
X10372Y19146D01*
X10406Y19112D01*
X10449Y19094D01*
X10496D01*
X10539Y19112D01*
X10571Y19144D01*
X10602Y19112D01*
X10646Y19094D01*
X10693D01*
X10736Y19112D01*
X10769Y19146D01*
X10787Y19189D01*
Y19236D01*
X10769Y19280D01*
X10736Y19313D01*
X10693Y19331D01*
D02*
G37*
G36*
X13114Y19410D02*
X13067D01*
X13024Y19392D01*
X12990Y19358D01*
X12972Y19315D01*
Y19268D01*
X12990Y19225D01*
X13024Y19191D01*
X13067Y19173D01*
X13114D01*
X13157Y19191D01*
X13191Y19225D01*
X13209Y19268D01*
Y19315D01*
X13191Y19358D01*
X13157Y19392D01*
X13114Y19410D01*
D02*
G37*
G36*
X1992Y19213D02*
X1945D01*
X1902Y19195D01*
X1868Y19162D01*
X1857Y19135D01*
X1804D01*
X1793Y19162D01*
X1760Y19195D01*
X1716Y19213D01*
X1669D01*
X1626Y19195D01*
X1593Y19162D01*
X1575Y19118D01*
Y19071D01*
X1593Y19028D01*
X1626Y18995D01*
X1653Y18983D01*
Y18930D01*
X1626Y18919D01*
X1593Y18886D01*
X1575Y18843D01*
Y18796D01*
X1593Y18752D01*
X1626Y18719D01*
X1669Y18701D01*
X1716D01*
X1760Y18719D01*
X1793Y18752D01*
X1804Y18779D01*
X1857D01*
X1868Y18752D01*
X1902Y18719D01*
X1945Y18701D01*
X1992D01*
X2035Y18719D01*
X2069Y18752D01*
X2087Y18796D01*
Y18843D01*
X2069Y18886D01*
X2035Y18919D01*
X2008Y18930D01*
Y18983D01*
X2035Y18995D01*
X2069Y19028D01*
X2087Y19071D01*
Y19118D01*
X2069Y19162D01*
X2035Y19195D01*
X1992Y19213D01*
D02*
G37*
G36*
X50254Y19234D02*
X50207D01*
X50163Y19216D01*
X50130Y19183D01*
X50112Y19140D01*
Y19093D01*
X50130Y19049D01*
X50163Y19016D01*
X50207Y18998D01*
X50254D01*
X50297Y19016D01*
X50330Y19049D01*
X50348Y19093D01*
Y19140D01*
X50330Y19183D01*
X50297Y19216D01*
X50254Y19234D01*
D02*
G37*
G36*
X7801Y20419D02*
X7754D01*
X7710Y20401D01*
X7677Y20368D01*
X7659Y20325D01*
Y20278D01*
X7677Y20234D01*
X7710Y20201D01*
X7754Y20183D01*
X7781D01*
X7875Y20090D01*
X7875Y20090D01*
X7901Y20072D01*
X7932Y20066D01*
X7932Y20066D01*
X8371D01*
X8410Y20027D01*
X8398Y19968D01*
X8391Y19965D01*
X8357Y19932D01*
X8339Y19888D01*
Y19841D01*
X8357Y19798D01*
X8391Y19765D01*
X8434Y19747D01*
X8481D01*
X9177Y19051D01*
X9167Y18999D01*
X9135Y18985D01*
X9127Y18984D01*
X9086Y19001D01*
X9039D01*
X8996Y18983D01*
X8983Y18969D01*
X8968Y18984D01*
X8924Y19002D01*
X8877D01*
X8834Y18984D01*
X8817Y18967D01*
X8796Y18988D01*
X8753Y19006D01*
X8706D01*
X8662Y18988D01*
X8629Y18955D01*
X8611Y18912D01*
Y18865D01*
X8629Y18821D01*
X8662Y18788D01*
X8706Y18770D01*
X8753D01*
X8796Y18788D01*
X8813Y18805D01*
X8834Y18784D01*
X8877Y18766D01*
X8924D01*
X8968Y18784D01*
X8981Y18797D01*
X8996Y18782D01*
X9039Y18764D01*
X9086D01*
X9130Y18782D01*
X9147Y18800D01*
X9167Y18780D01*
X9211Y18762D01*
X9258D01*
X9301Y18780D01*
X9322Y18800D01*
X9372Y18782D01*
Y11951D01*
X9372Y11949D01*
Y11436D01*
X9160Y11225D01*
X8826D01*
X8826Y11226D01*
X8792Y11260D01*
X8749Y11278D01*
X8702D01*
X8659Y11260D01*
X8625Y11226D01*
X8607Y11183D01*
Y11136D01*
X8625Y11093D01*
X8659Y11059D01*
X8702Y11041D01*
X8749D01*
X8792Y11059D01*
X8826Y11093D01*
X8826Y11094D01*
X9187D01*
X9212Y11099D01*
X9234Y11113D01*
X9380Y11260D01*
X9408Y11253D01*
X9432Y11242D01*
X9448Y11204D01*
X9481Y11170D01*
X9525Y11152D01*
X9572D01*
X9615Y11170D01*
X9648Y11204D01*
X9666Y11247D01*
Y11294D01*
X9648Y11337D01*
X9636Y11350D01*
Y18996D01*
X9636Y18996D01*
X9630Y19027D01*
X9613Y19053D01*
X9613Y19053D01*
X8462Y20204D01*
X8436Y20222D01*
X8405Y20228D01*
X8405Y20228D01*
X7965D01*
X7895Y20298D01*
Y20325D01*
X7877Y20368D01*
X7844Y20401D01*
X7801Y20419D01*
D02*
G37*
G36*
X48042Y19170D02*
X47995D01*
X47951Y19152D01*
X47918Y19119D01*
X47900Y19075D01*
Y19028D01*
X47901Y19025D01*
X47649Y18773D01*
X47630Y18727D01*
Y14009D01*
X47559Y13938D01*
X47532D01*
X47495Y13923D01*
X47468Y13895D01*
X47453Y13859D01*
Y13820D01*
X47468Y13783D01*
X47495Y13756D01*
X47532Y13741D01*
X47571D01*
X47607Y13756D01*
X47635Y13783D01*
X47650Y13820D01*
X47662Y13828D01*
X47712Y13800D01*
Y12950D01*
X47693Y12931D01*
X47678Y12895D01*
Y12856D01*
X47693Y12819D01*
X47721Y12792D01*
X47757Y12777D01*
X47796D01*
X47802Y12779D01*
X47852Y12746D01*
Y12108D01*
X47713Y11969D01*
X47694Y11924D01*
Y2342D01*
X47545Y2193D01*
X47542Y2194D01*
X47495D01*
X47452Y2176D01*
X47419Y2143D01*
X47401Y2099D01*
Y2052D01*
X47419Y2009D01*
X47452Y1976D01*
X47495Y1958D01*
X47542D01*
X47586Y1976D01*
X47619Y2009D01*
X47637Y2052D01*
Y2099D01*
X47636Y2102D01*
X47803Y2270D01*
X47822Y2315D01*
Y5768D01*
X47872Y5801D01*
X47879Y5798D01*
X47926D01*
X47969Y5816D01*
X48002Y5849D01*
X48020Y5893D01*
Y5940D01*
X48002Y5983D01*
X47969Y6016D01*
X47966Y6018D01*
Y6087D01*
X48016Y6108D01*
X48027Y6098D01*
X48070Y6080D01*
X48117D01*
X48161Y6098D01*
X48194Y6131D01*
X48212Y6174D01*
Y6221D01*
X48194Y6265D01*
X48161Y6298D01*
X48158Y6299D01*
Y13046D01*
X48177Y13066D01*
X48192Y13102D01*
Y13141D01*
X48177Y13177D01*
X48149Y13205D01*
X48113Y13220D01*
X48074D01*
X48064Y13216D01*
X48014Y13247D01*
Y13248D01*
X47999Y13284D01*
X47972Y13312D01*
X47935Y13327D01*
X47896D01*
X47890Y13324D01*
X47840Y13357D01*
Y17334D01*
X47983Y17477D01*
X47986Y17476D01*
X48033D01*
X48076Y17494D01*
X48109Y17527D01*
X48127Y17570D01*
Y17617D01*
X48109Y17661D01*
X48076Y17694D01*
X48033Y17712D01*
X47986D01*
X47942Y17694D01*
X47909Y17661D01*
X47891Y17617D01*
Y17570D01*
X47892Y17567D01*
X47804Y17479D01*
X47758Y17498D01*
Y18701D01*
X47992Y18935D01*
X47995Y18934D01*
X48042D01*
X48085Y18952D01*
X48118Y18985D01*
X48136Y19028D01*
Y19075D01*
X48118Y19119D01*
X48085Y19152D01*
X48042Y19170D01*
D02*
G37*
G36*
X25338Y19055D02*
X25291D01*
X25248Y19037D01*
X25215Y19004D01*
X25197Y18961D01*
Y18914D01*
X25215Y18870D01*
X25248Y18837D01*
X25291Y18819D01*
X25338D01*
X25382Y18837D01*
X25415Y18870D01*
X25433Y18914D01*
Y18961D01*
X25415Y19004D01*
X25382Y19037D01*
X25338Y19055D01*
D02*
G37*
G36*
X2472Y18989D02*
X2425D01*
X2382Y18971D01*
X2349Y18937D01*
X2331Y18894D01*
Y18847D01*
X2349Y18804D01*
X2382Y18770D01*
X2425Y18752D01*
X2472D01*
X2516Y18770D01*
X2549Y18804D01*
X2567Y18847D01*
Y18894D01*
X2549Y18937D01*
X2516Y18971D01*
X2472Y18989D01*
D02*
G37*
G36*
X1077D02*
X1030D01*
X986Y18971D01*
X953Y18937D01*
X935Y18894D01*
Y18847D01*
X953Y18804D01*
X986Y18770D01*
X1030Y18752D01*
X1077D01*
X1120Y18770D01*
X1153Y18804D01*
X1171Y18847D01*
Y18894D01*
X1153Y18937D01*
X1120Y18971D01*
X1077Y18989D01*
D02*
G37*
G36*
X37583Y18898D02*
X37536D01*
X37492Y18880D01*
X37459Y18846D01*
X37441Y18803D01*
Y18756D01*
X37459Y18713D01*
X37492Y18679D01*
X37536Y18661D01*
X37583D01*
X37626Y18679D01*
X37659Y18713D01*
X37677Y18756D01*
Y18803D01*
X37659Y18846D01*
X37626Y18880D01*
X37583Y18898D01*
D02*
G37*
G36*
X39596Y18886D02*
X39549D01*
X39506Y18868D01*
X39473Y18834D01*
X39455Y18791D01*
Y18744D01*
X39473Y18701D01*
X39506Y18667D01*
X39549Y18649D01*
X39596D01*
X39640Y18667D01*
X39673Y18701D01*
X39691Y18744D01*
Y18791D01*
X39673Y18834D01*
X39640Y18868D01*
X39596Y18886D01*
D02*
G37*
G36*
X38596D02*
X38549D01*
X38506Y18868D01*
X38473Y18834D01*
X38455Y18791D01*
Y18744D01*
X38473Y18701D01*
X38506Y18667D01*
X38549Y18649D01*
X38596D01*
X38640Y18667D01*
X38673Y18701D01*
X38691Y18744D01*
Y18791D01*
X38673Y18834D01*
X38640Y18868D01*
X38596Y18886D01*
D02*
G37*
G36*
X35596D02*
X35549D01*
X35506Y18868D01*
X35473Y18834D01*
X35455Y18791D01*
Y18744D01*
X35473Y18701D01*
X35506Y18667D01*
X35549Y18649D01*
X35596D01*
X35640Y18667D01*
X35673Y18701D01*
X35691Y18744D01*
Y18791D01*
X35673Y18834D01*
X35640Y18868D01*
X35596Y18886D01*
D02*
G37*
G36*
X32096D02*
X32049D01*
X32006Y18868D01*
X31973Y18834D01*
X31955Y18791D01*
Y18744D01*
X31973Y18701D01*
X32006Y18667D01*
X32049Y18649D01*
X32096D01*
X32140Y18667D01*
X32173Y18701D01*
X32191Y18744D01*
Y18791D01*
X32173Y18834D01*
X32140Y18868D01*
X32096Y18886D01*
D02*
G37*
G36*
X20346D02*
X20299D01*
X20256Y18868D01*
X20223Y18834D01*
X20205Y18791D01*
Y18744D01*
X20223Y18701D01*
X20256Y18667D01*
X20299Y18649D01*
X20346D01*
X20390Y18667D01*
X20423Y18701D01*
X20441Y18744D01*
Y18791D01*
X20423Y18834D01*
X20390Y18868D01*
X20346Y18886D01*
D02*
G37*
G36*
X16846D02*
X16799D01*
X16756Y18868D01*
X16723Y18834D01*
X16705Y18791D01*
Y18744D01*
X16723Y18701D01*
X16756Y18667D01*
X16799Y18649D01*
X16846D01*
X16890Y18667D01*
X16923Y18701D01*
X16941Y18744D01*
Y18791D01*
X16923Y18834D01*
X16890Y18868D01*
X16846Y18886D01*
D02*
G37*
G36*
X36287Y18885D02*
X36240D01*
X36197Y18867D01*
X36164Y18834D01*
X36146Y18791D01*
Y18744D01*
X36164Y18700D01*
X36197Y18667D01*
X36240Y18649D01*
X36287D01*
X36331Y18667D01*
X36364Y18700D01*
X36382Y18744D01*
Y18791D01*
X36364Y18834D01*
X36331Y18867D01*
X36287Y18885D01*
D02*
G37*
G36*
X14226Y18831D02*
X14179D01*
X14136Y18813D01*
X14103Y18780D01*
X14085Y18736D01*
Y18689D01*
X14103Y18646D01*
X14136Y18613D01*
X14179Y18595D01*
X14226D01*
X14270Y18613D01*
X14303Y18646D01*
X14321Y18689D01*
Y18736D01*
X14303Y18780D01*
X14270Y18813D01*
X14226Y18831D01*
D02*
G37*
G36*
X14919Y18630D02*
X14872D01*
X14829Y18612D01*
X14796Y18579D01*
X14778Y18535D01*
Y18488D01*
X14796Y18445D01*
X14829Y18412D01*
X14872Y18394D01*
X14919D01*
X14963Y18412D01*
X14996Y18445D01*
X15014Y18488D01*
Y18535D01*
X14996Y18579D01*
X14963Y18612D01*
X14919Y18630D01*
D02*
G37*
G36*
X11998Y18415D02*
X11951D01*
X11907Y18397D01*
X11874Y18363D01*
X11856Y18320D01*
Y18273D01*
X11874Y18230D01*
X11907Y18196D01*
X11951Y18178D01*
X11998D01*
X12041Y18196D01*
X12074Y18230D01*
X12092Y18273D01*
Y18320D01*
X12074Y18363D01*
X12041Y18397D01*
X11998Y18415D01*
D02*
G37*
G36*
X4945Y18347D02*
X4898D01*
X4854Y18329D01*
X4821Y18295D01*
X4803Y18252D01*
Y18205D01*
X4821Y18162D01*
X4854Y18128D01*
X4898Y18110D01*
X4945D01*
X4988Y18128D01*
X5021Y18162D01*
X5039Y18205D01*
Y18252D01*
X5021Y18295D01*
X4988Y18329D01*
X4945Y18347D01*
D02*
G37*
G36*
X2480Y18344D02*
X2433D01*
X2390Y18326D01*
X2356Y18293D01*
X2338Y18249D01*
Y18202D01*
X2356Y18159D01*
X2390Y18126D01*
X2433Y18108D01*
X2480D01*
X2523Y18126D01*
X2557Y18159D01*
X2575Y18202D01*
Y18249D01*
X2557Y18293D01*
X2523Y18326D01*
X2480Y18344D01*
D02*
G37*
G36*
X1075Y18344D02*
X1028D01*
X984Y18326D01*
X951Y18293D01*
X933Y18249D01*
Y18202D01*
X951Y18159D01*
X984Y18126D01*
X1028Y18108D01*
X1075D01*
X1118Y18126D01*
X1151Y18159D01*
X1169Y18202D01*
Y18249D01*
X1151Y18293D01*
X1118Y18326D01*
X1075Y18344D01*
D02*
G37*
G36*
X438Y18288D02*
X391D01*
X347Y18270D01*
X314Y18237D01*
X296Y18193D01*
Y18146D01*
X314Y18103D01*
X347Y18070D01*
X391Y18052D01*
X438D01*
X481Y18070D01*
X514Y18103D01*
X532Y18146D01*
Y18193D01*
X514Y18237D01*
X481Y18270D01*
X438Y18288D01*
D02*
G37*
G36*
X23342Y18225D02*
X23303D01*
X23267Y18210D01*
X23239Y18182D01*
X23224Y18146D01*
Y18107D01*
X23239Y18070D01*
X23267Y18043D01*
X23303Y18028D01*
X23331D01*
X23366Y17993D01*
X23347Y17947D01*
X22667D01*
X22647Y17966D01*
X22611Y17981D01*
X22572D01*
X22536Y17966D01*
X22508Y17938D01*
X22493Y17902D01*
Y17863D01*
X22508Y17827D01*
X22536Y17799D01*
X22572Y17784D01*
X22611D01*
X22647Y17799D01*
X22667Y17819D01*
X23419D01*
X25360Y15877D01*
Y6311D01*
X25151Y6102D01*
X25133Y6057D01*
Y4126D01*
X25151Y4081D01*
X25224Y4008D01*
Y3980D01*
X25239Y3944D01*
X25267Y3917D01*
X25303Y3902D01*
X25342D01*
X25379Y3917D01*
X25406Y3944D01*
X25421Y3980D01*
Y4020D01*
X25406Y4056D01*
X25379Y4083D01*
X25342Y4098D01*
X25315D01*
X25261Y4153D01*
Y5865D01*
X25303Y5902D01*
X25342D01*
X25379Y5917D01*
X25406Y5944D01*
X25421Y5980D01*
Y6008D01*
X25551Y6138D01*
X25570Y6183D01*
Y15943D01*
X25551Y15988D01*
X23421Y18118D01*
Y18146D01*
X23406Y18182D01*
X23379Y18210D01*
X23342Y18225D01*
D02*
G37*
G36*
X15748Y18100D02*
X15709D01*
X15672Y18085D01*
X15645Y18057D01*
X15630Y18021D01*
Y17982D01*
X15645Y17946D01*
X15672Y17918D01*
X15709Y17903D01*
X15748D01*
X15784Y17918D01*
X15812Y17946D01*
X15827Y17982D01*
Y18021D01*
X15812Y18057D01*
X15784Y18085D01*
X15748Y18100D01*
D02*
G37*
G36*
X15087Y17959D02*
X15040D01*
X14997Y17941D01*
X14963Y17908D01*
X14945Y17865D01*
Y17818D01*
X14963Y17774D01*
X14997Y17741D01*
X15040Y17723D01*
X15087D01*
X15130Y17741D01*
X15164Y17774D01*
X15182Y17818D01*
Y17865D01*
X15164Y17908D01*
X15130Y17941D01*
X15087Y17959D01*
D02*
G37*
G36*
X10575Y17717D02*
X10528D01*
X10484Y17699D01*
X10464Y17678D01*
X10433Y17670D01*
X10402Y17678D01*
X10382Y17699D01*
X10338Y17717D01*
X10291D01*
X10248Y17699D01*
X10215Y17665D01*
X10197Y17622D01*
Y17575D01*
X10215Y17532D01*
X10248Y17498D01*
X10291Y17480D01*
X10338D01*
X10382Y17498D01*
X10402Y17519D01*
X10433Y17527D01*
X10464Y17519D01*
X10484Y17498D01*
X10528Y17480D01*
X10575D01*
X10618Y17498D01*
X10651Y17532D01*
X10669Y17575D01*
Y17622D01*
X10651Y17665D01*
X10618Y17699D01*
X10575Y17717D01*
D02*
G37*
G36*
X8212Y17815D02*
X8165D01*
X8122Y17797D01*
X8089Y17764D01*
X8071Y17720D01*
Y17673D01*
X8089Y17630D01*
X8122Y17597D01*
X8165Y17579D01*
X8212D01*
X8256Y17597D01*
X8289Y17630D01*
X8307Y17673D01*
Y17720D01*
X8289Y17764D01*
X8256Y17797D01*
X8212Y17815D01*
D02*
G37*
G36*
X6513Y17731D02*
X6466D01*
X6423Y17713D01*
X6389Y17679D01*
X6371Y17636D01*
Y17589D01*
X6389Y17546D01*
X6423Y17512D01*
X6466Y17494D01*
X6513D01*
X6556Y17512D01*
X6590Y17546D01*
X6608Y17589D01*
Y17636D01*
X6590Y17679D01*
X6556Y17713D01*
X6513Y17731D01*
D02*
G37*
G36*
X15601Y17886D02*
X15562D01*
X15526Y17871D01*
X15498Y17844D01*
X15483Y17808D01*
Y17768D01*
X15498Y17732D01*
X15514Y17716D01*
X15495Y17680D01*
X15488Y17672D01*
X15452D01*
X15416Y17657D01*
X15388Y17629D01*
X15373Y17593D01*
Y17554D01*
X15388Y17518D01*
X15416Y17490D01*
X15452Y17475D01*
X15491D01*
X15527Y17490D01*
X15555Y17518D01*
X15570Y17554D01*
Y17593D01*
X15555Y17629D01*
X15539Y17645D01*
X15558Y17681D01*
X15565Y17690D01*
X15601D01*
X15638Y17705D01*
X15665Y17732D01*
X15680Y17768D01*
Y17808D01*
X15665Y17844D01*
X15638Y17871D01*
X15601Y17886D01*
D02*
G37*
G36*
X10575Y17402D02*
X10528D01*
X10484Y17384D01*
X10464Y17363D01*
X10433Y17355D01*
X10402Y17363D01*
X10382Y17384D01*
X10338Y17402D01*
X10291D01*
X10248Y17384D01*
X10215Y17350D01*
X10197Y17307D01*
Y17260D01*
X10215Y17217D01*
X10248Y17183D01*
X10291Y17165D01*
X10338D01*
X10382Y17183D01*
X10402Y17204D01*
X10433Y17212D01*
X10464Y17204D01*
X10484Y17183D01*
X10528Y17165D01*
X10575D01*
X10618Y17183D01*
X10651Y17217D01*
X10669Y17260D01*
Y17307D01*
X10651Y17350D01*
X10618Y17384D01*
X10575Y17402D01*
D02*
G37*
G36*
X12444Y17564D02*
X12397D01*
X12353Y17546D01*
X12320Y17513D01*
X12302Y17470D01*
Y17423D01*
X12320Y17379D01*
X12353Y17346D01*
X12397Y17328D01*
X12444D01*
X12487Y17346D01*
X12520Y17379D01*
X12538Y17423D01*
Y17470D01*
X12520Y17513D01*
X12487Y17546D01*
X12444Y17564D01*
D02*
G37*
G36*
X8449Y17556D02*
X8402D01*
X8359Y17538D01*
X8326Y17504D01*
X8308Y17461D01*
Y17414D01*
X8326Y17371D01*
X8359Y17337D01*
X8402Y17319D01*
X8449D01*
X8493Y17337D01*
X8526Y17371D01*
X8544Y17414D01*
Y17461D01*
X8526Y17504D01*
X8493Y17538D01*
X8449Y17556D01*
D02*
G37*
G36*
X15892Y17381D02*
X15853D01*
X15817Y17366D01*
X15789Y17338D01*
X15774Y17302D01*
Y17263D01*
X15789Y17227D01*
X15817Y17199D01*
X15853Y17184D01*
X15892D01*
X15928Y17199D01*
X15956Y17227D01*
X15971Y17263D01*
Y17302D01*
X15956Y17338D01*
X15928Y17366D01*
X15892Y17381D01*
D02*
G37*
G36*
X2931Y17424D02*
X2498D01*
X2414Y17407D01*
X2342Y17359D01*
X2294Y17287D01*
X2277Y17203D01*
X2294Y17118D01*
X2342Y17047D01*
X2414Y16999D01*
X2498Y16982D01*
X2931D01*
X3016Y16999D01*
X3087Y17047D01*
X3135Y17118D01*
X3152Y17203D01*
X3135Y17287D01*
X3087Y17359D01*
X3016Y17407D01*
X2931Y17424D01*
D02*
G37*
G36*
X1226D02*
X911D01*
X827Y17407D01*
X755Y17359D01*
X707Y17287D01*
X691Y17203D01*
X707Y17118D01*
X755Y17047D01*
X827Y16999D01*
X911Y16982D01*
X1226D01*
X1311Y16999D01*
X1382Y17047D01*
X1430Y17118D01*
X1447Y17203D01*
X1430Y17287D01*
X1382Y17359D01*
X1311Y17407D01*
X1226Y17424D01*
D02*
G37*
G36*
X6193Y16988D02*
X6146D01*
X6102Y16970D01*
X6069Y16937D01*
X6051Y16894D01*
Y16847D01*
X6069Y16803D01*
X6102Y16770D01*
X6146Y16752D01*
X6193D01*
X6236Y16770D01*
X6269Y16803D01*
X6287Y16847D01*
Y16894D01*
X6269Y16937D01*
X6236Y16970D01*
X6193Y16988D01*
D02*
G37*
G36*
X2565Y16835D02*
X2486D01*
X2414Y16805D01*
X2359Y16749D01*
X2329Y16677D01*
Y16599D01*
X2359Y16526D01*
X2414Y16471D01*
X2486Y16441D01*
X2565D01*
X2637Y16471D01*
X2692Y16526D01*
X2722Y16599D01*
Y16677D01*
X2692Y16749D01*
X2637Y16805D01*
X2565Y16835D01*
D02*
G37*
G36*
X3449Y16547D02*
X3402D01*
X3358Y16529D01*
X3325Y16496D01*
X3307Y16452D01*
Y16405D01*
X3325Y16362D01*
X3358Y16329D01*
X3402Y16311D01*
X3449D01*
X3492Y16329D01*
X3525Y16362D01*
X3543Y16405D01*
Y16452D01*
X3525Y16496D01*
X3492Y16529D01*
X3449Y16547D01*
D02*
G37*
G36*
X6520Y16142D02*
X6473D01*
X6429Y16124D01*
X6396Y16091D01*
X6378Y16047D01*
Y16000D01*
X6396Y15957D01*
X6429Y15923D01*
X6473Y15906D01*
X6520D01*
X6563Y15923D01*
X6596Y15957D01*
X6614Y16000D01*
Y16047D01*
X6596Y16091D01*
X6563Y16124D01*
X6520Y16142D01*
D02*
G37*
G36*
X44481Y15667D02*
X44434D01*
X44390Y15649D01*
X44357Y15616D01*
X44339Y15572D01*
Y15525D01*
X44357Y15482D01*
X44390Y15449D01*
X44434Y15431D01*
X44481D01*
X44524Y15449D01*
X44557Y15482D01*
X44575Y15525D01*
Y15572D01*
X44557Y15616D01*
X44524Y15649D01*
X44481Y15667D01*
D02*
G37*
G36*
X29354Y15652D02*
X29307D01*
X29264Y15634D01*
X29231Y15600D01*
X29213Y15557D01*
Y15510D01*
X29231Y15467D01*
X29264Y15433D01*
X29307Y15415D01*
X29354D01*
X29398Y15433D01*
X29431Y15467D01*
X29449Y15510D01*
Y15557D01*
X29431Y15600D01*
X29398Y15634D01*
X29354Y15652D01*
D02*
G37*
G36*
X3381Y15618D02*
X3334D01*
X3290Y15600D01*
X3257Y15567D01*
X3239Y15524D01*
Y15477D01*
X3257Y15433D01*
X3290Y15400D01*
X3334Y15382D01*
X3381D01*
X3424Y15400D01*
X3457Y15433D01*
X3475Y15477D01*
Y15524D01*
X3457Y15567D01*
X3424Y15600D01*
X3381Y15618D01*
D02*
G37*
G36*
X2971Y15717D02*
X2924D01*
X2881Y15699D01*
X2847Y15665D01*
X2829Y15622D01*
Y15575D01*
X2847Y15532D01*
X2879Y15500D01*
X2846Y15468D01*
X2828Y15425D01*
Y15378D01*
X2846Y15335D01*
X2880Y15301D01*
X2923Y15283D01*
X2970D01*
X3013Y15301D01*
X3047Y15335D01*
X3065Y15378D01*
Y15425D01*
X3047Y15468D01*
X3015Y15500D01*
X3048Y15532D01*
X3066Y15575D01*
Y15622D01*
X3048Y15665D01*
X3014Y15699D01*
X2971Y15717D01*
D02*
G37*
G36*
X48317Y15511D02*
X48270D01*
X48227Y15493D01*
X48194Y15460D01*
X48176Y15417D01*
Y15370D01*
X48194Y15326D01*
X48227Y15293D01*
X48270Y15275D01*
X48317D01*
X48361Y15293D01*
X48394Y15326D01*
X48412Y15370D01*
Y15417D01*
X48394Y15460D01*
X48361Y15493D01*
X48317Y15511D01*
D02*
G37*
G36*
X49524Y15299D02*
X49485D01*
X49448Y15284D01*
X49438Y15274D01*
X49406Y15262D01*
X49374Y15274D01*
X49363Y15284D01*
X49327Y15299D01*
X49288D01*
X49252Y15284D01*
X49224Y15257D01*
X49209Y15221D01*
Y15181D01*
X49224Y15145D01*
X49252Y15118D01*
X49288Y15103D01*
X49327D01*
X49363Y15118D01*
X49374Y15128D01*
X49406Y15140D01*
X49438Y15128D01*
X49448Y15118D01*
X49485Y15103D01*
X49524D01*
X49560Y15118D01*
X49588Y15145D01*
X49603Y15181D01*
Y15221D01*
X49588Y15257D01*
X49560Y15284D01*
X49524Y15299D01*
D02*
G37*
G36*
X5299Y15276D02*
X5252D01*
X5209Y15258D01*
X5175Y15225D01*
X5157Y15181D01*
Y15134D01*
X5175Y15091D01*
X5209Y15057D01*
X5252Y15040D01*
X5299D01*
X5343Y15057D01*
X5376Y15091D01*
X5394Y15134D01*
Y15181D01*
X5376Y15225D01*
X5343Y15258D01*
X5299Y15276D01*
D02*
G37*
G36*
X28346Y15226D02*
X28299D01*
X28256Y15208D01*
X28223Y15175D01*
X28205Y15131D01*
Y15084D01*
X28223Y15041D01*
X28256Y15008D01*
X28299Y14990D01*
X28346D01*
X28390Y15008D01*
X28423Y15041D01*
X28441Y15084D01*
Y15131D01*
X28423Y15175D01*
X28390Y15208D01*
X28346Y15226D01*
D02*
G37*
G36*
X41596D02*
X41549D01*
X41506Y15208D01*
X41473Y15175D01*
X41455Y15131D01*
Y15084D01*
X41473Y15041D01*
X41506Y15008D01*
X41549Y14990D01*
X41596D01*
X41640Y15008D01*
X41658Y15026D01*
X41700Y14997D01*
X41697Y14991D01*
Y14944D01*
X41715Y14900D01*
X41749Y14867D01*
X41792Y14849D01*
X41839D01*
X41882Y14867D01*
X41916Y14900D01*
X41934Y14944D01*
Y14991D01*
X41916Y15034D01*
X41882Y15068D01*
X41839Y15086D01*
X41792D01*
X41749Y15068D01*
X41731Y15050D01*
X41688Y15078D01*
X41691Y15084D01*
Y15131D01*
X41673Y15175D01*
X41640Y15208D01*
X41596Y15226D01*
D02*
G37*
G36*
X37592Y17744D02*
X37553D01*
X37517Y17729D01*
X37489Y17701D01*
X37474Y17665D01*
Y17626D01*
X37489Y17589D01*
X37509Y17570D01*
Y16075D01*
X37489Y16056D01*
X37474Y16020D01*
Y15980D01*
X37489Y15944D01*
X37509Y15925D01*
Y15154D01*
X37528Y15109D01*
X37629Y15008D01*
Y14784D01*
X37579Y14763D01*
X37298Y15044D01*
Y17129D01*
X37317Y17148D01*
X37332Y17184D01*
Y17223D01*
X37317Y17260D01*
X37289Y17287D01*
X37253Y17302D01*
X37214D01*
X37178Y17287D01*
X37150Y17260D01*
X37135Y17223D01*
Y17184D01*
X37150Y17148D01*
X37170Y17129D01*
Y15018D01*
X37188Y14973D01*
X37509Y14652D01*
Y14075D01*
X37489Y14056D01*
X37474Y14020D01*
Y13980D01*
X37489Y13944D01*
X37509Y13925D01*
Y10156D01*
X37433Y10080D01*
X37414Y10035D01*
Y4344D01*
X37409Y4340D01*
X37359Y4367D01*
Y11287D01*
X37362Y11288D01*
X37396Y11321D01*
X37413Y11364D01*
Y11411D01*
X37396Y11455D01*
X37362Y11488D01*
X37340Y11497D01*
X37319Y11546D01*
X37319Y11556D01*
X37327Y11568D01*
X37342D01*
X37385Y11586D01*
X37418Y11619D01*
X37436Y11663D01*
Y11710D01*
X37418Y11753D01*
X37385Y11786D01*
X37342Y11804D01*
X37295D01*
X37251Y11786D01*
X37218Y11753D01*
X37200Y11710D01*
Y11663D01*
X37201Y11660D01*
X37136Y11594D01*
X37086Y11615D01*
Y11764D01*
X37067Y11809D01*
X36933Y11943D01*
X36934Y11946D01*
Y11993D01*
X36916Y12037D01*
X36883Y12070D01*
X36840Y12088D01*
X36793D01*
X36749Y12070D01*
X36748Y12068D01*
X36698Y12089D01*
Y12523D01*
X36744Y12569D01*
X36762Y12614D01*
Y15874D01*
X36744Y15920D01*
X36671Y15992D01*
Y16020D01*
X36656Y16056D01*
X36629Y16083D01*
X36592Y16098D01*
X36553D01*
X36517Y16083D01*
X36489Y16056D01*
X36474Y16020D01*
Y15980D01*
X36489Y15944D01*
X36517Y15917D01*
X36553Y15902D01*
X36581D01*
X36634Y15848D01*
Y14562D01*
X36592Y14526D01*
X36553D01*
X36517Y14511D01*
X36489Y14483D01*
X36474Y14447D01*
Y14408D01*
X36489Y14371D01*
X36509Y14352D01*
Y12734D01*
X36451Y12676D01*
X36432Y12631D01*
Y4468D01*
X36412Y4448D01*
X36397Y4412D01*
Y4373D01*
X36412Y4337D01*
X36440Y4309D01*
X36476Y4294D01*
X36515D01*
X36551Y4309D01*
X36579Y4337D01*
X36594Y4373D01*
Y4412D01*
X36579Y4448D01*
X36560Y4467D01*
Y5264D01*
X36610Y5297D01*
X36614Y5295D01*
X36653D01*
X36689Y5310D01*
X36717Y5338D01*
X36732Y5374D01*
Y5413D01*
X36717Y5450D01*
X36698Y5469D01*
Y11850D01*
X36748Y11871D01*
X36749Y11870D01*
X36793Y11852D01*
X36840D01*
X36843Y11853D01*
X36958Y11738D01*
Y3905D01*
X36938Y3885D01*
X36923Y3849D01*
Y3810D01*
X36938Y3774D01*
X36966Y3746D01*
X37002Y3731D01*
X37041D01*
X37077Y3746D01*
X37105Y3774D01*
X37120Y3810D01*
Y3849D01*
X37105Y3885D01*
X37086Y3905D01*
Y6259D01*
X37130Y6295D01*
X37169D01*
X37181Y6300D01*
X37231Y6271D01*
Y3709D01*
X37211Y3689D01*
X37196Y3653D01*
Y3614D01*
X37211Y3577D01*
X37239Y3550D01*
X37275Y3535D01*
X37314D01*
X37351Y3550D01*
X37378Y3577D01*
X37393Y3614D01*
Y3653D01*
X37378Y3689D01*
X37359Y3708D01*
Y4129D01*
X37409Y4149D01*
X37422Y4137D01*
X37458Y4122D01*
X37497D01*
X37533Y4137D01*
X37561Y4165D01*
X37576Y4201D01*
Y4240D01*
X37561Y4276D01*
X37542Y4295D01*
Y5469D01*
X37588Y5504D01*
X37627D01*
X37663Y5519D01*
X37691Y5547D01*
X37706Y5583D01*
Y5622D01*
X37691Y5658D01*
X37672Y5678D01*
Y9697D01*
X37722Y9731D01*
X37728Y9728D01*
X37775D01*
X37819Y9746D01*
X37852Y9779D01*
X37870Y9823D01*
Y9870D01*
X37852Y9913D01*
X37819Y9946D01*
X37775Y9964D01*
X37728D01*
X37702Y10007D01*
X37700Y10022D01*
X37738Y10059D01*
X37757Y10105D01*
Y15035D01*
X37738Y15080D01*
X37637Y15181D01*
Y15925D01*
X37656Y15944D01*
X37671Y15980D01*
Y16020D01*
X37656Y16056D01*
X37637Y16075D01*
Y17570D01*
X37656Y17589D01*
X37671Y17626D01*
Y17665D01*
X37656Y17701D01*
X37629Y17729D01*
X37592Y17744D01*
D02*
G37*
G36*
X40596Y14944D02*
X40549D01*
X40506Y14926D01*
X40473Y14893D01*
X40455Y14850D01*
Y14803D01*
X40473Y14759D01*
X40506Y14726D01*
X40549Y14708D01*
X40596D01*
X40640Y14726D01*
X40673Y14759D01*
X40691Y14803D01*
Y14850D01*
X40673Y14893D01*
X40640Y14926D01*
X40596Y14944D01*
D02*
G37*
G36*
X2593Y16110D02*
X2546D01*
X2503Y16092D01*
X2470Y16059D01*
X2452Y16016D01*
Y15969D01*
X2470Y15925D01*
X2503Y15892D01*
X2546Y15874D01*
X2593D01*
X2637Y15892D01*
X2670Y15925D01*
X2670Y15927D01*
X3381D01*
X3823Y15485D01*
Y14451D01*
X3821Y14451D01*
X3788Y14417D01*
X3770Y14374D01*
Y14327D01*
X3788Y14284D01*
X3821Y14250D01*
X3864Y14232D01*
X3911D01*
X3955Y14250D01*
X3988Y14284D01*
X4006Y14327D01*
Y14374D01*
X3988Y14417D01*
X3955Y14451D01*
X3953Y14451D01*
Y15512D01*
X3948Y15537D01*
X3934Y15558D01*
X3454Y16038D01*
X3433Y16053D01*
X3408Y16058D01*
X2670D01*
X2670Y16059D01*
X2637Y16092D01*
X2593Y16110D01*
D02*
G37*
G36*
X2565Y14559D02*
X2486D01*
X2414Y14529D01*
X2359Y14474D01*
X2329Y14402D01*
Y14323D01*
X2359Y14251D01*
X2414Y14195D01*
X2486Y14166D01*
X2565D01*
X2637Y14195D01*
X2692Y14251D01*
X2722Y14323D01*
Y14402D01*
X2692Y14474D01*
X2637Y14529D01*
X2565Y14559D01*
D02*
G37*
G36*
X41118Y14054D02*
X41071D01*
X41027Y14036D01*
X40994Y14003D01*
X40976Y13959D01*
Y13912D01*
X40994Y13869D01*
X41027Y13836D01*
X41071Y13818D01*
X41118D01*
X41161Y13836D01*
X41194Y13869D01*
X41212Y13912D01*
Y13959D01*
X41194Y14003D01*
X41161Y14036D01*
X41118Y14054D01*
D02*
G37*
G36*
X50830Y14049D02*
X50783D01*
X50739Y14031D01*
X50706Y13998D01*
X50688Y13955D01*
Y13908D01*
X50706Y13864D01*
X50739Y13831D01*
X50783Y13813D01*
X50830D01*
X50873Y13831D01*
X50906Y13864D01*
X50924Y13908D01*
Y13955D01*
X50906Y13998D01*
X50873Y14031D01*
X50830Y14049D01*
D02*
G37*
G36*
X35596Y13886D02*
X35549D01*
X35506Y13868D01*
X35473Y13834D01*
X35455Y13791D01*
Y13744D01*
X35473Y13701D01*
X35506Y13667D01*
X35549Y13649D01*
X35596D01*
X35640Y13667D01*
X35673Y13701D01*
X35691Y13744D01*
Y13791D01*
X35673Y13834D01*
X35640Y13868D01*
X35596Y13886D01*
D02*
G37*
G36*
X32096D02*
X32049D01*
X32006Y13868D01*
X31973Y13834D01*
X31955Y13791D01*
Y13744D01*
X31973Y13701D01*
X32006Y13667D01*
X32049Y13649D01*
X32096D01*
X32140Y13667D01*
X32173Y13701D01*
X32191Y13744D01*
Y13791D01*
X32173Y13834D01*
X32140Y13868D01*
X32096Y13886D01*
D02*
G37*
G36*
X20346D02*
X20299D01*
X20256Y13868D01*
X20223Y13834D01*
X20205Y13791D01*
Y13744D01*
X20223Y13701D01*
X20256Y13667D01*
X20299Y13649D01*
X20346D01*
X20390Y13667D01*
X20423Y13701D01*
X20441Y13744D01*
Y13791D01*
X20423Y13834D01*
X20390Y13868D01*
X20346Y13886D01*
D02*
G37*
G36*
X16846D02*
X16799D01*
X16756Y13868D01*
X16723Y13834D01*
X16705Y13791D01*
Y13744D01*
X16723Y13701D01*
X16756Y13667D01*
X16799Y13649D01*
X16846D01*
X16890Y13667D01*
X16923Y13701D01*
X16941Y13744D01*
Y13791D01*
X16923Y13834D01*
X16890Y13868D01*
X16846Y13886D01*
D02*
G37*
G36*
X2931Y14018D02*
X2498D01*
X2414Y14001D01*
X2342Y13954D01*
X2294Y13882D01*
X2277Y13797D01*
X2294Y13713D01*
X2342Y13641D01*
X2414Y13593D01*
X2498Y13577D01*
X2931D01*
X3016Y13593D01*
X3087Y13641D01*
X3135Y13713D01*
X3152Y13797D01*
X3135Y13882D01*
X3087Y13954D01*
X3016Y14001D01*
X2931Y14018D01*
D02*
G37*
G36*
X1226D02*
X911D01*
X827Y14001D01*
X755Y13954D01*
X707Y13882D01*
X691Y13797D01*
X707Y13713D01*
X755Y13641D01*
X827Y13593D01*
X911Y13577D01*
X1226D01*
X1311Y13593D01*
X1382Y13641D01*
X1430Y13713D01*
X1447Y13797D01*
X1430Y13882D01*
X1382Y13954D01*
X1311Y14001D01*
X1226Y14018D01*
D02*
G37*
G36*
X48127Y13661D02*
X48080D01*
X48036Y13643D01*
X48003Y13610D01*
X47985Y13566D01*
Y13519D01*
X48003Y13476D01*
X48036Y13442D01*
X48080Y13425D01*
X48127D01*
X48170Y13442D01*
X48203Y13476D01*
X48221Y13519D01*
Y13566D01*
X48203Y13610D01*
X48170Y13643D01*
X48127Y13661D01*
D02*
G37*
G36*
X28346Y13226D02*
X28299D01*
X28256Y13208D01*
X28223Y13175D01*
X28205Y13131D01*
Y13084D01*
X28223Y13041D01*
X28256Y13008D01*
X28299Y12990D01*
X28346D01*
X28390Y13008D01*
X28423Y13041D01*
X28441Y13084D01*
Y13131D01*
X28423Y13175D01*
X28390Y13208D01*
X28346Y13226D01*
D02*
G37*
G36*
X27346D02*
X27299D01*
X27256Y13208D01*
X27223Y13175D01*
X27205Y13131D01*
Y13084D01*
X27223Y13041D01*
X27256Y13008D01*
X27299Y12990D01*
X27346D01*
X27390Y13008D01*
X27423Y13041D01*
X27441Y13084D01*
Y13131D01*
X27423Y13175D01*
X27390Y13208D01*
X27346Y13226D01*
D02*
G37*
G36*
X25027Y12926D02*
X24980D01*
X24937Y12909D01*
X24904Y12875D01*
X24886Y12832D01*
Y12785D01*
X24904Y12741D01*
X24937Y12708D01*
X24980Y12690D01*
X25027D01*
X25071Y12708D01*
X25104Y12741D01*
X25122Y12785D01*
Y12832D01*
X25104Y12875D01*
X25071Y12909D01*
X25027Y12926D01*
D02*
G37*
G36*
X22005Y18564D02*
X21966D01*
X21929Y18549D01*
X21902Y18521D01*
X21887Y18485D01*
Y18446D01*
X21902Y18410D01*
X21921Y18390D01*
Y14338D01*
X21940Y14293D01*
X22224Y14008D01*
Y13980D01*
X22239Y13944D01*
X22267Y13917D01*
X22303Y13902D01*
X22342D01*
X22377Y13878D01*
Y12494D01*
X22327Y12474D01*
X21387Y13414D01*
Y13924D01*
X21407Y13944D01*
X21422Y13980D01*
Y14019D01*
X21407Y14055D01*
X21379Y14083D01*
X21343Y14098D01*
X21304D01*
X21268Y14083D01*
X21240Y14055D01*
X21225Y14019D01*
Y13980D01*
X21240Y13944D01*
X21259Y13924D01*
Y13387D01*
X21278Y13342D01*
X22259Y12361D01*
Y6197D01*
X22158Y6097D01*
X22140Y6052D01*
Y4119D01*
X22158Y4074D01*
X22224Y4008D01*
Y3980D01*
X22239Y3944D01*
X22267Y3917D01*
X22303Y3902D01*
X22342D01*
X22379Y3917D01*
X22406Y3944D01*
X22421Y3980D01*
Y4020D01*
X22406Y4056D01*
X22379Y4083D01*
X22342Y4098D01*
X22315D01*
X22268Y4146D01*
Y5878D01*
X22303Y5902D01*
X22342D01*
X22379Y5917D01*
X22406Y5944D01*
X22421Y5980D01*
Y6008D01*
X22486Y6073D01*
X22505Y6118D01*
Y14267D01*
X22486Y14312D01*
X22383Y14415D01*
Y15921D01*
X22406Y15944D01*
X22421Y15980D01*
Y16020D01*
X22406Y16056D01*
X22379Y16083D01*
X22342Y16098D01*
X22303D01*
X22267Y16083D01*
X22239Y16056D01*
X22224Y16020D01*
Y15980D01*
X22239Y15944D01*
X22255Y15929D01*
Y14389D01*
X22274Y14344D01*
X22377Y14240D01*
Y14122D01*
X22342Y14098D01*
X22315D01*
X22049Y14364D01*
Y18390D01*
X22069Y18410D01*
X22084Y18446D01*
Y18485D01*
X22069Y18521D01*
X22041Y18549D01*
X22005Y18564D01*
D02*
G37*
G36*
X41525Y12556D02*
X41486D01*
X41450Y12541D01*
X41422Y12513D01*
X41407Y12477D01*
Y12438D01*
X41422Y12401D01*
X41450Y12374D01*
X41486Y12359D01*
X41525D01*
X41561Y12374D01*
X41589Y12401D01*
X41604Y12438D01*
Y12477D01*
X41589Y12513D01*
X41561Y12541D01*
X41525Y12556D01*
D02*
G37*
G36*
X7608Y12980D02*
X7561D01*
X7517Y12962D01*
X7484Y12929D01*
X7466Y12886D01*
Y12839D01*
X7484Y12795D01*
X7517Y12762D01*
X7561Y12744D01*
X7577D01*
X7610Y12736D01*
X7624Y12698D01*
Y12686D01*
X7642Y12643D01*
X7675Y12610D01*
X7718Y12592D01*
X7735D01*
X7767Y12586D01*
X7781Y12545D01*
Y12536D01*
X7799Y12493D01*
X7832Y12459D01*
X7876Y12441D01*
X7899D01*
X7930Y12427D01*
X7944Y12396D01*
Y12373D01*
X7962Y12329D01*
X7995Y12296D01*
X8038Y12278D01*
X8085D01*
X8129Y12296D01*
X8162Y12329D01*
X8180Y12373D01*
Y12420D01*
X8162Y12463D01*
X8129Y12496D01*
X8085Y12514D01*
X8062D01*
X8031Y12529D01*
X8017Y12560D01*
Y12583D01*
X7999Y12626D01*
X7966Y12660D01*
X7923Y12678D01*
X7906D01*
X7874Y12684D01*
X7860Y12724D01*
Y12733D01*
X7842Y12777D01*
X7809Y12810D01*
X7765Y12828D01*
X7749D01*
X7716Y12836D01*
X7702Y12874D01*
Y12886D01*
X7684Y12929D01*
X7651Y12962D01*
X7608Y12980D01*
D02*
G37*
G36*
X50486Y12304D02*
X50439D01*
X50395Y12286D01*
X50362Y12252D01*
X50344Y12209D01*
Y12162D01*
X50362Y12119D01*
X50395Y12085D01*
X50439Y12067D01*
X50486D01*
X50529Y12085D01*
X50562Y12119D01*
X50580Y12162D01*
Y12209D01*
X50562Y12252D01*
X50529Y12286D01*
X50486Y12304D01*
D02*
G37*
G36*
X48783D02*
X48736D01*
X48692Y12286D01*
X48659Y12252D01*
X48641Y12209D01*
Y12162D01*
X48659Y12119D01*
X48692Y12085D01*
X48736Y12067D01*
X48783D01*
X48826Y12085D01*
X48859Y12119D01*
X48877Y12162D01*
Y12209D01*
X48859Y12252D01*
X48826Y12286D01*
X48783Y12304D01*
D02*
G37*
G36*
X49051Y12096D02*
X49004D01*
X48960Y12078D01*
X48927Y12044D01*
X48909Y12001D01*
Y11954D01*
X48927Y11911D01*
X48960Y11877D01*
X49004Y11859D01*
X49051D01*
X49094Y11877D01*
X49127Y11911D01*
X49145Y11954D01*
Y12001D01*
X49127Y12044D01*
X49094Y12078D01*
X49051Y12096D01*
D02*
G37*
G36*
X4158Y11861D02*
X4111D01*
X4068Y11843D01*
X4034Y11810D01*
X4016Y11766D01*
Y11719D01*
X4034Y11676D01*
X4068Y11643D01*
X4111Y11625D01*
X4158D01*
X4201Y11643D01*
X4235Y11676D01*
X4253Y11719D01*
Y11766D01*
X4235Y11810D01*
X4201Y11843D01*
X4158Y11861D01*
D02*
G37*
G36*
X41082Y12378D02*
X41035D01*
X40992Y12360D01*
X40959Y12327D01*
X40941Y12283D01*
Y12236D01*
X40959Y12193D01*
X40992Y12160D01*
X41035Y12142D01*
X41082D01*
X41126Y12160D01*
X41159Y12193D01*
X41160Y12196D01*
X41236D01*
X41423Y12009D01*
X41411Y11950D01*
X41408Y11949D01*
X41375Y11916D01*
X41357Y11872D01*
Y11825D01*
X41375Y11782D01*
X41408Y11748D01*
X41451Y11730D01*
X41498D01*
X41501Y11732D01*
X41545Y11688D01*
Y11579D01*
X41495Y11551D01*
X41474Y11559D01*
X41427D01*
X41383Y11541D01*
X41350Y11508D01*
X41332Y11465D01*
Y11418D01*
X41350Y11374D01*
X41383Y11341D01*
X41424Y11324D01*
Y4076D01*
X41405Y4057D01*
X41390Y4021D01*
Y3982D01*
X41405Y3945D01*
X41433Y3918D01*
X41469Y3903D01*
X41508D01*
X41544Y3918D01*
X41572Y3945D01*
X41587Y3982D01*
Y4021D01*
X41572Y4057D01*
X41552Y4076D01*
Y5864D01*
X41589Y5903D01*
X41628D01*
X41664Y5918D01*
X41692Y5946D01*
X41707Y5982D01*
Y6021D01*
X41692Y6057D01*
X41708Y6112D01*
X41711Y6116D01*
X41750D01*
X41787Y6130D01*
X41814Y6158D01*
X41829Y6194D01*
Y6234D01*
X41814Y6270D01*
X41795Y6289D01*
Y11792D01*
X41776Y11837D01*
X41308Y12305D01*
X41263Y12324D01*
X41160D01*
X41159Y12327D01*
X41126Y12360D01*
X41082Y12378D01*
D02*
G37*
G36*
X5922Y11690D02*
X5875D01*
X5832Y11672D01*
X5798Y11639D01*
X5780Y11596D01*
Y11549D01*
X5798Y11505D01*
X5832Y11472D01*
X5875Y11454D01*
X5922D01*
X5965Y11472D01*
X5999Y11505D01*
X6017Y11549D01*
Y11596D01*
X5999Y11639D01*
X5965Y11672D01*
X5922Y11690D01*
D02*
G37*
G36*
X44787Y11614D02*
X44740D01*
X44697Y11596D01*
X44664Y11562D01*
X44646Y11519D01*
Y11472D01*
X44664Y11429D01*
X44697Y11395D01*
X44740Y11377D01*
X44787D01*
X44831Y11395D01*
X44864Y11429D01*
X44882Y11472D01*
Y11519D01*
X44864Y11562D01*
X44831Y11596D01*
X44787Y11614D01*
D02*
G37*
G36*
X28346Y11545D02*
X28299D01*
X28256Y11527D01*
X28223Y11494D01*
X28205Y11451D01*
Y11404D01*
X28223Y11360D01*
X28256Y11327D01*
X28299Y11309D01*
X28346D01*
X28390Y11327D01*
X28423Y11360D01*
X28441Y11404D01*
Y11451D01*
X28423Y11494D01*
X28390Y11527D01*
X28346Y11545D01*
D02*
G37*
G36*
X29346Y11509D02*
X29299D01*
X29256Y11491D01*
X29223Y11458D01*
X29205Y11415D01*
Y11368D01*
X29223Y11324D01*
X29256Y11291D01*
X29299Y11273D01*
X29346D01*
X29390Y11291D01*
X29423Y11324D01*
X29441Y11368D01*
Y11415D01*
X29423Y11458D01*
X29390Y11491D01*
X29346Y11509D01*
D02*
G37*
G36*
X7134Y11385D02*
X7087D01*
X7044Y11367D01*
X7011Y11334D01*
X6993Y11291D01*
Y11244D01*
X7011Y11200D01*
X7044Y11167D01*
X7087Y11149D01*
X7134D01*
X7178Y11167D01*
X7211Y11200D01*
X7229Y11244D01*
Y11291D01*
X7211Y11334D01*
X7178Y11367D01*
X7134Y11385D01*
D02*
G37*
G36*
X2931Y11425D02*
X2498D01*
X2414Y11408D01*
X2342Y11361D01*
X2294Y11289D01*
X2277Y11204D01*
X2294Y11120D01*
X2342Y11048D01*
X2414Y11000D01*
X2498Y10984D01*
X2931D01*
X3016Y11000D01*
X3087Y11048D01*
X3135Y11120D01*
X3152Y11204D01*
X3135Y11289D01*
X3087Y11361D01*
X3016Y11408D01*
X2931Y11425D01*
D02*
G37*
G36*
X1226D02*
X911D01*
X827Y11408D01*
X755Y11361D01*
X707Y11289D01*
X691Y11204D01*
X707Y11120D01*
X755Y11048D01*
X827Y11000D01*
X911Y10984D01*
X1226D01*
X1311Y11000D01*
X1382Y11048D01*
X1430Y11120D01*
X1447Y11204D01*
X1430Y11289D01*
X1382Y11361D01*
X1311Y11408D01*
X1226Y11425D01*
D02*
G37*
G36*
X15424Y11124D02*
X15385D01*
X15348Y11109D01*
X15321Y11081D01*
X15306Y11045D01*
Y11029D01*
X15285Y10997D01*
X15260Y10986D01*
X15239D01*
X15203Y10971D01*
X15175Y10943D01*
X15160Y10907D01*
Y10868D01*
X15175Y10832D01*
X15203Y10804D01*
X15239Y10789D01*
X15278D01*
X15314Y10804D01*
X15342Y10832D01*
X15357Y10868D01*
Y10884D01*
X15378Y10916D01*
X15403Y10927D01*
X15424D01*
X15460Y10942D01*
X15488Y10969D01*
X15503Y11006D01*
Y11045D01*
X15488Y11081D01*
X15460Y11109D01*
X15424Y11124D01*
D02*
G37*
G36*
X2565Y10836D02*
X2486D01*
X2414Y10806D01*
X2359Y10751D01*
X2329Y10679D01*
Y10600D01*
X2359Y10528D01*
X2414Y10473D01*
X2486Y10443D01*
X2565D01*
X2637Y10473D01*
X2692Y10528D01*
X2722Y10600D01*
Y10679D01*
X2692Y10751D01*
X2637Y10806D01*
X2565Y10836D01*
D02*
G37*
G36*
X15286Y10492D02*
X15247D01*
X15210Y10477D01*
X15183Y10450D01*
X15168Y10414D01*
Y10374D01*
X15183Y10338D01*
X15210Y10311D01*
X15247Y10296D01*
X15286D01*
X15322Y10311D01*
X15350Y10338D01*
X15365Y10374D01*
Y10414D01*
X15350Y10450D01*
X15322Y10477D01*
X15286Y10492D01*
D02*
G37*
G36*
X7701Y10492D02*
X7654D01*
X7610Y10474D01*
X7577Y10441D01*
X7559Y10398D01*
Y10351D01*
X7577Y10307D01*
X7610Y10274D01*
X7654Y10256D01*
X7701D01*
X7744Y10274D01*
X7777Y10307D01*
X7795Y10351D01*
Y10398D01*
X7777Y10441D01*
X7744Y10474D01*
X7701Y10492D01*
D02*
G37*
G36*
X4977Y17663D02*
X4930D01*
X4886Y17645D01*
X4853Y17612D01*
X4835Y17568D01*
Y17521D01*
X4836Y17520D01*
X4570Y17254D01*
X4556Y17233D01*
X4551Y17208D01*
Y11025D01*
X3706Y10180D01*
X2690D01*
X2665Y10175D01*
X2644Y10161D01*
X2594Y10111D01*
X2592Y10112D01*
X2545D01*
X2502Y10094D01*
X2469Y10061D01*
X2451Y10017D01*
Y9970D01*
X2469Y9927D01*
X2502Y9894D01*
X2545Y9876D01*
X2582D01*
X2607Y9847D01*
X2615Y9831D01*
X2611Y9811D01*
Y9133D01*
X2583Y9095D01*
X2536D01*
X2492Y9077D01*
X2459Y9043D01*
X2441Y9000D01*
Y8953D01*
X2459Y8910D01*
X2492Y8876D01*
X2536Y8858D01*
X2583D01*
X2626Y8876D01*
X2659Y8910D01*
X2677Y8953D01*
Y9000D01*
X2676Y9002D01*
X2722Y9047D01*
X2736Y9069D01*
X2741Y9094D01*
Y9784D01*
X2780Y9823D01*
X2829Y9801D01*
Y9773D01*
X2847Y9730D01*
X2880Y9697D01*
X2923Y9679D01*
X2970D01*
X3014Y9697D01*
X3047Y9730D01*
X3065Y9773D01*
Y9820D01*
X3047Y9864D01*
X3034Y9877D01*
X3055Y9927D01*
X3686D01*
X3713Y9885D01*
X3713Y9884D01*
Y9837D01*
X3731Y9794D01*
X3764Y9760D01*
X3807Y9742D01*
X3854D01*
X3898Y9760D01*
X3931Y9794D01*
X3949Y9837D01*
Y9884D01*
X3931Y9927D01*
X3898Y9961D01*
X3884Y9966D01*
X3872Y10025D01*
X5007Y11160D01*
X5021Y11181D01*
X5026Y11206D01*
Y17188D01*
X5053Y17216D01*
X5071Y17259D01*
Y17306D01*
X5053Y17349D01*
X5020Y17383D01*
X5011Y17387D01*
Y17441D01*
X5020Y17445D01*
X5053Y17478D01*
X5071Y17521D01*
Y17568D01*
X5053Y17612D01*
X5020Y17645D01*
X4977Y17663D01*
D02*
G37*
G36*
X13510Y10316D02*
X13463D01*
X13420Y10298D01*
X13387Y10265D01*
X13369Y10222D01*
Y10175D01*
X13387Y10131D01*
X13420Y10098D01*
X13463Y10080D01*
X13510D01*
X13554Y10098D01*
X13587Y10131D01*
X13605Y10175D01*
Y10222D01*
X13587Y10265D01*
X13554Y10298D01*
X13510Y10316D01*
D02*
G37*
G36*
X49073Y11583D02*
X49034D01*
X48998Y11568D01*
X48970Y11540D01*
X48955Y11504D01*
Y11477D01*
X48842Y11363D01*
X48823Y11318D01*
Y9977D01*
X48803Y9957D01*
X48788Y9921D01*
Y9882D01*
X48803Y9846D01*
X48831Y9818D01*
X48867Y9803D01*
X48906D01*
X48942Y9818D01*
X48970Y9846D01*
X48985Y9882D01*
Y9921D01*
X48970Y9957D01*
X48951Y9977D01*
Y11291D01*
X49046Y11386D01*
X49073D01*
X49109Y11401D01*
X49137Y11429D01*
X49152Y11465D01*
Y11504D01*
X49137Y11540D01*
X49109Y11568D01*
X49073Y11583D01*
D02*
G37*
G36*
X48341Y11248D02*
X48302D01*
X48266Y11233D01*
X48238Y11205D01*
X48223Y11169D01*
Y11130D01*
X48238Y11094D01*
X48258Y11074D01*
Y9972D01*
X48238Y9953D01*
X48224Y9917D01*
Y9878D01*
X48238Y9841D01*
X48266Y9814D01*
X48302Y9799D01*
X48342D01*
X48378Y9814D01*
X48405Y9841D01*
X48420Y9878D01*
Y9917D01*
X48405Y9953D01*
X48386Y9972D01*
Y11075D01*
X48405Y11094D01*
X48420Y11130D01*
Y11169D01*
X48405Y11205D01*
X48377Y11233D01*
X48341Y11248D01*
D02*
G37*
G36*
X13510Y9944D02*
X13463D01*
X13420Y9926D01*
X13387Y9893D01*
X13369Y9850D01*
Y9803D01*
X13387Y9759D01*
X13420Y9726D01*
X13463Y9708D01*
X13510D01*
X13554Y9726D01*
X13587Y9759D01*
X13605Y9803D01*
Y9850D01*
X13587Y9893D01*
X13554Y9926D01*
X13510Y9944D01*
D02*
G37*
G36*
X9409Y9884D02*
X9362D01*
X9319Y9866D01*
X9285Y9833D01*
X9267Y9790D01*
Y9743D01*
X9285Y9699D01*
X9319Y9666D01*
X9362Y9648D01*
X9409D01*
X9452Y9666D01*
X9486Y9699D01*
X9504Y9743D01*
Y9790D01*
X9486Y9833D01*
X9452Y9866D01*
X9409Y9884D01*
D02*
G37*
G36*
X6461Y9636D02*
X6414D01*
X6370Y9618D01*
X6337Y9585D01*
X6319Y9541D01*
Y9494D01*
X6337Y9451D01*
X6370Y9418D01*
X6414Y9400D01*
X6461D01*
X6504Y9418D01*
X6537Y9451D01*
X6555Y9494D01*
Y9541D01*
X6537Y9585D01*
X6504Y9618D01*
X6461Y9636D01*
D02*
G37*
G36*
X3381Y9620D02*
X3334D01*
X3290Y9602D01*
X3257Y9569D01*
X3239Y9525D01*
Y9478D01*
X3257Y9435D01*
X3290Y9402D01*
X3334Y9384D01*
X3381D01*
X3424Y9402D01*
X3457Y9435D01*
X3475Y9478D01*
Y9525D01*
X3457Y9569D01*
X3424Y9602D01*
X3381Y9620D01*
D02*
G37*
G36*
X12334Y9584D02*
X12287D01*
X12244Y9566D01*
X12210Y9533D01*
X12192Y9489D01*
Y9442D01*
X12210Y9399D01*
X12244Y9366D01*
X12287Y9348D01*
X12334D01*
X12377Y9366D01*
X12411Y9399D01*
X12429Y9442D01*
Y9489D01*
X12411Y9533D01*
X12377Y9566D01*
X12334Y9584D01*
D02*
G37*
G36*
X11830D02*
X11783D01*
X11740Y9566D01*
X11706Y9533D01*
X11688Y9489D01*
Y9442D01*
X11706Y9399D01*
X11740Y9366D01*
X11783Y9348D01*
X11830D01*
X11873Y9366D01*
X11907Y9399D01*
X11925Y9442D01*
Y9489D01*
X11907Y9533D01*
X11873Y9566D01*
X11830Y9584D01*
D02*
G37*
G36*
X15012Y9538D02*
X14973D01*
X14937Y9523D01*
X14909Y9495D01*
X14894Y9459D01*
Y9420D01*
X14909Y9384D01*
X14937Y9356D01*
X14973Y9341D01*
X15012D01*
X15048Y9356D01*
X15076Y9384D01*
X15091Y9420D01*
Y9459D01*
X15076Y9495D01*
X15048Y9523D01*
X15012Y9538D01*
D02*
G37*
G36*
X8685Y9557D02*
X8638D01*
X8595Y9539D01*
X8561Y9506D01*
X8543Y9463D01*
Y9416D01*
X8561Y9372D01*
X8595Y9339D01*
X8638Y9321D01*
X8685D01*
X8728Y9339D01*
X8762Y9372D01*
X8780Y9416D01*
Y9463D01*
X8762Y9506D01*
X8728Y9539D01*
X8685Y9557D01*
D02*
G37*
G36*
X6974Y9373D02*
X6927D01*
X6883Y9355D01*
X6850Y9322D01*
X6832Y9279D01*
Y9232D01*
X6850Y9188D01*
X6883Y9155D01*
X6927Y9137D01*
X6974D01*
X7017Y9155D01*
X7050Y9188D01*
X7068Y9232D01*
Y9279D01*
X7050Y9322D01*
X7017Y9355D01*
X6974Y9373D01*
D02*
G37*
G36*
X2970Y9324D02*
X2923D01*
X2880Y9306D01*
X2847Y9273D01*
X2829Y9230D01*
Y9183D01*
X2847Y9139D01*
X2880Y9106D01*
X2923Y9088D01*
X2970D01*
X3014Y9106D01*
X3047Y9139D01*
X3065Y9183D01*
Y9230D01*
X3047Y9273D01*
X3014Y9306D01*
X2970Y9324D01*
D02*
G37*
G36*
X12847Y9305D02*
X12800D01*
X12757Y9287D01*
X12724Y9254D01*
X12706Y9210D01*
Y9163D01*
X12724Y9120D01*
X12757Y9087D01*
X12800Y9069D01*
X12847D01*
X12891Y9087D01*
X12924Y9120D01*
X12942Y9163D01*
Y9210D01*
X12924Y9254D01*
X12891Y9287D01*
X12847Y9305D01*
D02*
G37*
G36*
X9384Y9203D02*
X9337D01*
X9293Y9185D01*
X9260Y9152D01*
X9242Y9108D01*
Y9061D01*
X9260Y9018D01*
X9293Y8985D01*
X9337Y8967D01*
X9384D01*
X9427Y8985D01*
X9460Y9018D01*
X9478Y9061D01*
Y9108D01*
X9460Y9152D01*
X9427Y9185D01*
X9384Y9203D01*
D02*
G37*
G36*
X38032Y9121D02*
X37985D01*
X37941Y9103D01*
X37908Y9069D01*
X37890Y9026D01*
Y8979D01*
X37908Y8936D01*
X37941Y8902D01*
X37985Y8884D01*
X38032D01*
X38075Y8902D01*
X38108Y8936D01*
X38126Y8979D01*
Y9026D01*
X38108Y9069D01*
X38075Y9103D01*
X38032Y9121D01*
D02*
G37*
G36*
X5450Y8954D02*
X5403D01*
X5360Y8936D01*
X5326Y8903D01*
X5308Y8859D01*
Y8812D01*
X5326Y8769D01*
X5360Y8736D01*
X5403Y8718D01*
X5450D01*
X5493Y8736D01*
X5527Y8769D01*
X5545Y8812D01*
Y8859D01*
X5527Y8903D01*
X5493Y8936D01*
X5450Y8954D01*
D02*
G37*
G36*
X9748Y8935D02*
X9701D01*
X9658Y8917D01*
X9625Y8884D01*
X9607Y8840D01*
Y8793D01*
X9625Y8750D01*
X9658Y8717D01*
X9701Y8699D01*
X9748D01*
X9792Y8717D01*
X9825Y8750D01*
X9843Y8793D01*
Y8840D01*
X9825Y8884D01*
X9792Y8917D01*
X9748Y8935D01*
D02*
G37*
G36*
X20346Y8886D02*
X20299D01*
X20256Y8868D01*
X20223Y8834D01*
X20205Y8791D01*
Y8744D01*
X20223Y8701D01*
X20256Y8667D01*
X20299Y8649D01*
X20346D01*
X20390Y8667D01*
X20423Y8701D01*
X20441Y8744D01*
Y8791D01*
X20423Y8834D01*
X20390Y8868D01*
X20346Y8886D01*
D02*
G37*
G36*
X16846D02*
X16799D01*
X16756Y8868D01*
X16723Y8834D01*
X16705Y8791D01*
Y8744D01*
X16723Y8701D01*
X16756Y8667D01*
X16799Y8649D01*
X16846D01*
X16890Y8667D01*
X16923Y8701D01*
X16941Y8744D01*
Y8791D01*
X16923Y8834D01*
X16890Y8868D01*
X16846Y8886D01*
D02*
G37*
G36*
X6008Y8780D02*
X5961D01*
X5917Y8762D01*
X5884Y8728D01*
X5866Y8685D01*
Y8638D01*
X5884Y8595D01*
X5917Y8561D01*
X5961Y8543D01*
X6008D01*
X6051Y8561D01*
X6084Y8595D01*
X6102Y8638D01*
Y8685D01*
X6084Y8728D01*
X6051Y8762D01*
X6008Y8780D01*
D02*
G37*
G36*
X26847Y8713D02*
X26800D01*
X26757Y8695D01*
X26724Y8662D01*
X26706Y8618D01*
Y8571D01*
X26724Y8528D01*
X26757Y8495D01*
X26800Y8477D01*
X26847D01*
X26891Y8495D01*
X26924Y8528D01*
X26942Y8571D01*
Y8618D01*
X26924Y8662D01*
X26891Y8695D01*
X26847Y8713D01*
D02*
G37*
G36*
X14284Y8609D02*
X14237D01*
X14193Y8591D01*
X14163Y8561D01*
X12507D01*
X12480Y8556D01*
X12457Y8541D01*
X8317Y4401D01*
X5766D01*
X5736Y4431D01*
X5693Y4449D01*
X5646D01*
X5602Y4431D01*
X5569Y4398D01*
X5551Y4354D01*
Y4307D01*
X5569Y4264D01*
X5602Y4231D01*
X5646Y4213D01*
X5693D01*
X5736Y4231D01*
X5766Y4261D01*
X8346D01*
X8373Y4266D01*
X8396Y4281D01*
X11640Y7525D01*
X11688Y7503D01*
Y7474D01*
X11706Y7430D01*
X11740Y7397D01*
X11783Y7379D01*
X11830D01*
X11873Y7397D01*
X11907Y7430D01*
X11925Y7474D01*
Y7521D01*
X11907Y7564D01*
X11873Y7597D01*
X11830Y7615D01*
X11801D01*
X11778Y7663D01*
X11884Y7769D01*
X11926Y7741D01*
X11922Y7731D01*
Y7684D01*
X11940Y7640D01*
X11973Y7607D01*
X12017Y7589D01*
X12064D01*
X12107Y7607D01*
X12140Y7640D01*
X12158Y7684D01*
Y7731D01*
X12140Y7774D01*
X12107Y7807D01*
X12064Y7825D01*
X12017D01*
X12007Y7821D01*
X11978Y7864D01*
X12536Y8421D01*
X14163D01*
X14193Y8391D01*
X14237Y8373D01*
X14284D01*
X14327Y8391D01*
X14360Y8424D01*
X14378Y8468D01*
Y8515D01*
X14360Y8558D01*
X14327Y8591D01*
X14284Y8609D01*
D02*
G37*
G36*
X2565Y8561D02*
X2486D01*
X2414Y8531D01*
X2359Y8475D01*
X2329Y8403D01*
Y8325D01*
X2359Y8252D01*
X2414Y8197D01*
X2486Y8167D01*
X2565D01*
X2637Y8197D01*
X2692Y8252D01*
X2722Y8325D01*
Y8403D01*
X2692Y8475D01*
X2637Y8531D01*
X2565Y8561D01*
D02*
G37*
G36*
X12843Y7951D02*
X12803D01*
X12767Y7936D01*
X12739Y7908D01*
X12725Y7872D01*
Y7833D01*
X12739Y7796D01*
X12767Y7769D01*
X12803Y7754D01*
X12843D01*
X12879Y7769D01*
X12906Y7796D01*
X12921Y7833D01*
Y7872D01*
X12906Y7908D01*
X12879Y7936D01*
X12843Y7951D01*
D02*
G37*
G36*
X9303Y7872D02*
X9256D01*
X9213Y7854D01*
X9179Y7821D01*
X9161Y7777D01*
Y7730D01*
X9179Y7687D01*
X9213Y7654D01*
X9256Y7636D01*
X9303D01*
X9346Y7654D01*
X9380Y7687D01*
X9398Y7730D01*
Y7777D01*
X9380Y7821D01*
X9346Y7854D01*
X9303Y7872D01*
D02*
G37*
G36*
X4894Y7864D02*
X4847D01*
X4804Y7846D01*
X4771Y7813D01*
X4753Y7770D01*
Y7723D01*
X4771Y7679D01*
X4804Y7646D01*
X4847Y7628D01*
X4894D01*
X4938Y7646D01*
X4971Y7679D01*
X4989Y7723D01*
Y7770D01*
X4971Y7813D01*
X4938Y7846D01*
X4894Y7864D01*
D02*
G37*
G36*
X2931Y8020D02*
X2498D01*
X2414Y8003D01*
X2342Y7955D01*
X2294Y7883D01*
X2277Y7799D01*
X2294Y7714D01*
X2342Y7643D01*
X2414Y7595D01*
X2498Y7578D01*
X2931D01*
X3016Y7595D01*
X3087Y7643D01*
X3135Y7714D01*
X3152Y7799D01*
X3135Y7883D01*
X3087Y7955D01*
X3016Y8003D01*
X2931Y8020D01*
D02*
G37*
G36*
X1226D02*
X911D01*
X827Y8003D01*
X755Y7955D01*
X707Y7883D01*
X691Y7799D01*
X707Y7714D01*
X755Y7643D01*
X827Y7595D01*
X911Y7578D01*
X1226D01*
X1311Y7595D01*
X1382Y7643D01*
X1430Y7714D01*
X1447Y7799D01*
X1430Y7883D01*
X1382Y7955D01*
X1311Y8003D01*
X1226Y8020D01*
D02*
G37*
G36*
X13356Y7742D02*
X13309D01*
X13266Y7724D01*
X13233Y7691D01*
X13215Y7647D01*
Y7600D01*
X13233Y7557D01*
X13266Y7524D01*
X13309Y7506D01*
X13356D01*
X13400Y7524D01*
X13433Y7557D01*
X13451Y7600D01*
Y7647D01*
X13433Y7691D01*
X13400Y7724D01*
X13356Y7742D01*
D02*
G37*
G36*
X12334Y7614D02*
X12287D01*
X12244Y7596D01*
X12210Y7563D01*
X12192Y7519D01*
Y7472D01*
X12210Y7429D01*
X12244Y7396D01*
X12287Y7378D01*
X12334D01*
X12377Y7396D01*
X12411Y7429D01*
X12429Y7472D01*
Y7519D01*
X12411Y7563D01*
X12377Y7596D01*
X12334Y7614D01*
D02*
G37*
G36*
X9945Y7520D02*
X9898D01*
X9854Y7502D01*
X9821Y7469D01*
X9803Y7425D01*
Y7378D01*
X9821Y7335D01*
X9854Y7302D01*
X9898Y7284D01*
X9945D01*
X9988Y7302D01*
X10021Y7335D01*
X10039Y7378D01*
Y7425D01*
X10021Y7469D01*
X9988Y7502D01*
X9945Y7520D01*
D02*
G37*
G36*
X14215Y7331D02*
X14168D01*
X14124Y7313D01*
X14091Y7280D01*
X14073Y7237D01*
Y7190D01*
X14091Y7146D01*
X14124Y7113D01*
X14168Y7095D01*
X14215D01*
X14258Y7113D01*
X14291Y7146D01*
X14309Y7190D01*
Y7237D01*
X14291Y7280D01*
X14258Y7313D01*
X14215Y7331D01*
D02*
G37*
G36*
X12846Y7329D02*
X12799D01*
X12756Y7311D01*
X12723Y7277D01*
X12705Y7234D01*
Y7187D01*
X12723Y7144D01*
X12756Y7110D01*
X12799Y7092D01*
X12846D01*
X12890Y7110D01*
X12923Y7144D01*
X12941Y7187D01*
Y7234D01*
X12923Y7277D01*
X12890Y7311D01*
X12846Y7329D01*
D02*
G37*
G36*
X5899Y7313D02*
X5852D01*
X5809Y7295D01*
X5776Y7262D01*
X5758Y7219D01*
Y7172D01*
X5776Y7128D01*
X5809Y7095D01*
X5852Y7077D01*
X5899D01*
X5943Y7095D01*
X5976Y7128D01*
X5994Y7172D01*
Y7219D01*
X5976Y7262D01*
X5943Y7295D01*
X5899Y7313D01*
D02*
G37*
G36*
X5275D02*
X5228D01*
X5185Y7295D01*
X5151Y7262D01*
X5133Y7219D01*
Y7172D01*
X5151Y7128D01*
X5185Y7095D01*
X5228Y7077D01*
X5275D01*
X5318Y7095D01*
X5352Y7128D01*
X5370Y7172D01*
Y7219D01*
X5352Y7262D01*
X5318Y7295D01*
X5275Y7313D01*
D02*
G37*
G36*
X9802Y7156D02*
X9755D01*
X9711Y7138D01*
X9678Y7105D01*
X9661Y7063D01*
X9656Y7061D01*
X9610Y7054D01*
X9602Y7073D01*
X9569Y7106D01*
X9525Y7124D01*
X9478D01*
X9435Y7106D01*
X9402Y7073D01*
X9384Y7030D01*
Y6983D01*
X9402Y6939D01*
X9435Y6906D01*
X9478Y6888D01*
X9525D01*
X9569Y6906D01*
X9602Y6939D01*
X9620Y6982D01*
X9624Y6983D01*
X9670Y6990D01*
X9678Y6971D01*
X9711Y6938D01*
X9755Y6920D01*
X9802D01*
X9845Y6938D01*
X9878Y6971D01*
X9896Y7014D01*
Y7061D01*
X9878Y7105D01*
X9845Y7138D01*
X9802Y7156D01*
D02*
G37*
G36*
X29346Y7138D02*
X29299D01*
X29256Y7120D01*
X29223Y7086D01*
X29205Y7043D01*
Y6996D01*
X29223Y6953D01*
X29256Y6919D01*
X29299Y6901D01*
X29346D01*
X29390Y6919D01*
X29423Y6953D01*
X29441Y6996D01*
Y7043D01*
X29423Y7086D01*
X29390Y7120D01*
X29346Y7138D01*
D02*
G37*
G36*
X9010Y6821D02*
X8963D01*
X8919Y6803D01*
X8886Y6770D01*
X8868Y6726D01*
Y6679D01*
X8886Y6636D01*
X8919Y6603D01*
X8963Y6585D01*
X9010D01*
X9053Y6603D01*
X9086Y6636D01*
X9104Y6679D01*
Y6726D01*
X9086Y6770D01*
X9053Y6803D01*
X9010Y6821D01*
D02*
G37*
G36*
X13240Y6790D02*
X13193D01*
X13150Y6772D01*
X13117Y6739D01*
X13099Y6695D01*
Y6648D01*
X13117Y6605D01*
X13150Y6572D01*
X13193Y6554D01*
X13240D01*
X13284Y6572D01*
X13317Y6605D01*
X13335Y6648D01*
Y6695D01*
X13317Y6739D01*
X13284Y6772D01*
X13240Y6790D01*
D02*
G37*
G36*
X9318Y6682D02*
X9271D01*
X9228Y6664D01*
X9195Y6631D01*
X9177Y6588D01*
Y6541D01*
X9195Y6497D01*
X9228Y6464D01*
X9271Y6446D01*
X9318D01*
X9362Y6464D01*
X9395Y6497D01*
X9413Y6541D01*
Y6588D01*
X9395Y6631D01*
X9362Y6664D01*
X9318Y6682D01*
D02*
G37*
G36*
X14284Y6632D02*
X14237D01*
X14193Y6615D01*
X14160Y6581D01*
X14142Y6538D01*
Y6491D01*
X14160Y6447D01*
X14193Y6414D01*
X14237Y6396D01*
X14284D01*
X14327Y6414D01*
X14360Y6447D01*
X14378Y6491D01*
Y6538D01*
X14360Y6581D01*
X14327Y6615D01*
X14284Y6632D01*
D02*
G37*
G36*
X6799Y6324D02*
X6752D01*
X6708Y6306D01*
X6675Y6273D01*
X6657Y6229D01*
Y6182D01*
X6675Y6139D01*
X6708Y6106D01*
X6752Y6088D01*
X6799D01*
X6842Y6106D01*
X6875Y6139D01*
X6893Y6182D01*
Y6229D01*
X6875Y6273D01*
X6842Y6306D01*
X6799Y6324D01*
D02*
G37*
G36*
X6484Y6299D02*
X6437D01*
X6393Y6281D01*
X6360Y6248D01*
X6342Y6205D01*
Y6158D01*
X6360Y6114D01*
X6393Y6081D01*
X6437Y6063D01*
X6484D01*
X6527Y6081D01*
X6560Y6114D01*
X6578Y6158D01*
Y6205D01*
X6560Y6248D01*
X6527Y6281D01*
X6484Y6299D01*
D02*
G37*
G36*
X27342Y16098D02*
X27303D01*
X27267Y16083D01*
X27239Y16056D01*
X27224Y16020D01*
Y15980D01*
X27239Y15944D01*
X27259Y15925D01*
Y15616D01*
X27278Y15571D01*
X27876Y14973D01*
Y10230D01*
X27856Y10210D01*
X27841Y10174D01*
Y10135D01*
X27856Y10098D01*
X27876Y10079D01*
Y6221D01*
X27855Y6201D01*
X27840Y6165D01*
Y6125D01*
X27855Y6089D01*
X27883Y6062D01*
X27919Y6047D01*
X27958D01*
X27994Y6062D01*
X28022Y6089D01*
X28037Y6125D01*
Y6165D01*
X28022Y6201D01*
X28003Y6219D01*
Y10079D01*
X28023Y10098D01*
X28038Y10135D01*
Y10174D01*
X28023Y10210D01*
X28003Y10230D01*
Y15000D01*
X27985Y15045D01*
X27387Y15643D01*
Y15925D01*
X27406Y15944D01*
X27421Y15980D01*
Y16020D01*
X27406Y16056D01*
X27379Y16083D01*
X27342Y16098D01*
D02*
G37*
G36*
X13677Y6211D02*
X13630D01*
X13586Y6193D01*
X13553Y6160D01*
X13535Y6117D01*
Y6070D01*
X13553Y6026D01*
X13586Y5993D01*
X13630Y5975D01*
X13677D01*
X13720Y5993D01*
X13753Y6026D01*
X13771Y6070D01*
Y6117D01*
X13753Y6160D01*
X13720Y6193D01*
X13677Y6211D01*
D02*
G37*
G36*
X5299Y6181D02*
X5252D01*
X5209Y6163D01*
X5175Y6130D01*
X5157Y6087D01*
Y6040D01*
X5175Y5996D01*
X5209Y5963D01*
X5252Y5945D01*
X5299D01*
X5343Y5963D01*
X5376Y5996D01*
X5394Y6040D01*
Y6087D01*
X5376Y6130D01*
X5343Y6163D01*
X5299Y6181D01*
D02*
G37*
G36*
X8424Y6038D02*
X8377D01*
X8334Y6020D01*
X8300Y5986D01*
X8282Y5943D01*
Y5896D01*
X8300Y5853D01*
X8334Y5819D01*
X8377Y5801D01*
X8424D01*
X8468Y5819D01*
X8501Y5853D01*
X8519Y5896D01*
Y5943D01*
X8501Y5986D01*
X8468Y6020D01*
X8424Y6038D01*
D02*
G37*
G36*
X6952D02*
X6905D01*
X6862Y6020D01*
X6828Y5986D01*
X6810Y5943D01*
Y5896D01*
X6828Y5853D01*
X6862Y5819D01*
X6905Y5801D01*
X6952D01*
X6996Y5819D01*
X7029Y5853D01*
X7047Y5896D01*
Y5943D01*
X7029Y5986D01*
X6996Y6020D01*
X6952Y6038D01*
D02*
G37*
G36*
X6234D02*
X6187D01*
X6143Y6020D01*
X6110Y5986D01*
X6092Y5943D01*
Y5896D01*
X6110Y5853D01*
X6143Y5819D01*
X6187Y5801D01*
X6234D01*
X6277Y5819D01*
X6310Y5853D01*
X6328Y5896D01*
Y5943D01*
X6310Y5986D01*
X6277Y6020D01*
X6234Y6038D01*
D02*
G37*
G36*
X7602Y6034D02*
X7555D01*
X7512Y6016D01*
X7479Y5982D01*
X7461Y5939D01*
Y5892D01*
X7479Y5849D01*
X7512Y5815D01*
X7555Y5797D01*
X7602D01*
X7646Y5815D01*
X7679Y5849D01*
X7697Y5892D01*
Y5939D01*
X7679Y5982D01*
X7646Y6016D01*
X7602Y6034D01*
D02*
G37*
G36*
X12843Y5934D02*
X12803D01*
X12767Y5919D01*
X12739Y5891D01*
X12725Y5855D01*
Y5816D01*
X12739Y5780D01*
X12767Y5752D01*
X12803Y5737D01*
X12843D01*
X12879Y5752D01*
X12906Y5780D01*
X12921Y5816D01*
Y5855D01*
X12906Y5891D01*
X12879Y5919D01*
X12843Y5934D01*
D02*
G37*
G36*
X39596Y14806D02*
X39549D01*
X39505Y14788D01*
X39472Y14754D01*
X39454Y14711D01*
Y14664D01*
X39472Y14621D01*
X39505Y14587D01*
X39543Y14572D01*
X39546Y14542D01*
X39544Y14522D01*
X39517Y14511D01*
X39489Y14483D01*
X39474Y14447D01*
Y14408D01*
X39489Y14371D01*
X39509Y14352D01*
Y5876D01*
X39489Y5856D01*
X39474Y5820D01*
Y5781D01*
X39489Y5745D01*
X39517Y5717D01*
X39553Y5702D01*
X39592D01*
X39629Y5717D01*
X39656Y5745D01*
X39671Y5781D01*
Y5820D01*
X39656Y5856D01*
X39637Y5876D01*
Y14352D01*
X39656Y14371D01*
X39671Y14408D01*
Y14447D01*
X39656Y14483D01*
X39629Y14511D01*
X39602Y14522D01*
X39599Y14540D01*
X39601Y14571D01*
X39602Y14572D01*
X39639Y14587D01*
X39672Y14621D01*
X39690Y14664D01*
Y14711D01*
X39672Y14754D01*
X39639Y14788D01*
X39596Y14806D01*
D02*
G37*
G36*
X5102Y5906D02*
X5055D01*
X5012Y5888D01*
X4979Y5854D01*
X4961Y5811D01*
Y5764D01*
X4979Y5721D01*
X5012Y5687D01*
X5055Y5669D01*
X5102D01*
X5146Y5687D01*
X5179Y5721D01*
X5197Y5764D01*
Y5811D01*
X5179Y5854D01*
X5146Y5888D01*
X5102Y5906D01*
D02*
G37*
G36*
X13360Y5727D02*
X13313D01*
X13269Y5709D01*
X13236Y5676D01*
X13218Y5633D01*
Y5586D01*
X13236Y5542D01*
X13269Y5509D01*
X13313Y5491D01*
X13360D01*
X13403Y5509D01*
X13436Y5542D01*
X13454Y5586D01*
Y5633D01*
X13436Y5676D01*
X13403Y5709D01*
X13360Y5727D01*
D02*
G37*
G36*
X11830Y5592D02*
X11783D01*
X11739Y5574D01*
X11706Y5541D01*
X11688Y5497D01*
Y5450D01*
X11706Y5407D01*
X11739Y5373D01*
X11783Y5356D01*
X11830D01*
X11873Y5373D01*
X11906Y5407D01*
X11924Y5450D01*
Y5497D01*
X11906Y5541D01*
X11873Y5574D01*
X11830Y5592D01*
D02*
G37*
G36*
X12998Y5455D02*
X12951D01*
X12908Y5437D01*
X12875Y5403D01*
X12857Y5360D01*
Y5313D01*
X12875Y5270D01*
X12908Y5236D01*
X12951Y5218D01*
X12998D01*
X13042Y5236D01*
X13075Y5270D01*
X13093Y5313D01*
Y5360D01*
X13075Y5403D01*
X13042Y5437D01*
X12998Y5455D01*
D02*
G37*
G36*
X12334Y5590D02*
X12287D01*
X12244Y5572D01*
X12210Y5539D01*
X12192Y5496D01*
Y5495D01*
X12160Y5454D01*
X12113D01*
X12070Y5436D01*
X12037Y5403D01*
X12019Y5359D01*
Y5312D01*
X12037Y5269D01*
X12070Y5235D01*
X12113Y5217D01*
X12160D01*
X12204Y5235D01*
X12237Y5269D01*
X12255Y5312D01*
Y5313D01*
X12287Y5354D01*
X12334D01*
X12377Y5372D01*
X12411Y5405D01*
X12429Y5449D01*
Y5496D01*
X12411Y5539D01*
X12377Y5572D01*
X12334Y5590D01*
D02*
G37*
G36*
X14215Y5307D02*
X14168D01*
X14124Y5289D01*
X14091Y5256D01*
X14073Y5213D01*
Y5166D01*
X14091Y5122D01*
X14124Y5089D01*
X14168Y5071D01*
X14215D01*
X14258Y5089D01*
X14291Y5122D01*
X14309Y5166D01*
Y5213D01*
X14291Y5256D01*
X14258Y5289D01*
X14215Y5307D01*
D02*
G37*
G36*
X16846Y4842D02*
X16799D01*
X16756Y4824D01*
X16723Y4791D01*
X16705Y4747D01*
Y4700D01*
X16723Y4657D01*
X16756Y4624D01*
X16799Y4606D01*
X16846D01*
X16890Y4624D01*
X16923Y4657D01*
X16941Y4700D01*
Y4747D01*
X16923Y4791D01*
X16890Y4824D01*
X16846Y4842D01*
D02*
G37*
G36*
X13220Y4766D02*
X13173D01*
X13129Y4748D01*
X13096Y4715D01*
X13078Y4671D01*
Y4624D01*
X13096Y4581D01*
X13129Y4548D01*
X13173Y4530D01*
X13220D01*
X13263Y4548D01*
X13296Y4581D01*
X13314Y4624D01*
Y4671D01*
X13296Y4715D01*
X13263Y4748D01*
X13220Y4766D01*
D02*
G37*
G36*
X38281Y17424D02*
X38242D01*
X38206Y17409D01*
X38178Y17381D01*
X38163Y17345D01*
Y17306D01*
X38178Y17270D01*
X38198Y17250D01*
Y14311D01*
X38217Y14266D01*
X38474Y14008D01*
Y13992D01*
X38451Y13969D01*
X38433Y13924D01*
Y5270D01*
X38413Y5251D01*
X38398Y5215D01*
Y5175D01*
X38413Y5139D01*
X38441Y5112D01*
X38477Y5097D01*
X38516D01*
X38538Y5106D01*
X38577Y5087D01*
X38588Y5077D01*
Y4672D01*
X38569Y4652D01*
X38554Y4616D01*
Y4577D01*
X38569Y4541D01*
X38596Y4513D01*
X38633Y4498D01*
X38672D01*
X38708Y4513D01*
X38736Y4541D01*
X38751Y4577D01*
Y4616D01*
X38736Y4652D01*
X38716Y4672D01*
Y13641D01*
X38994Y13919D01*
X39022D01*
X39058Y13934D01*
X39085Y13961D01*
X39100Y13997D01*
Y14037D01*
X39085Y14073D01*
X39066Y14092D01*
Y15116D01*
X39047Y15161D01*
X38637Y15572D01*
Y15925D01*
X38656Y15944D01*
X38671Y15980D01*
Y16020D01*
X38656Y16056D01*
X38629Y16083D01*
X38592Y16098D01*
X38553D01*
X38517Y16083D01*
X38489Y16056D01*
X38474Y16020D01*
Y15980D01*
X38489Y15944D01*
X38509Y15925D01*
Y15545D01*
X38528Y15500D01*
X38938Y15090D01*
Y14092D01*
X38919Y14073D01*
X38904Y14037D01*
Y14009D01*
X38610Y13716D01*
X38594Y13717D01*
X38560Y13731D01*
Y13897D01*
X38565Y13902D01*
X38592D01*
X38629Y13917D01*
X38656Y13944D01*
X38671Y13980D01*
Y14020D01*
X38656Y14056D01*
X38629Y14083D01*
X38592Y14098D01*
X38565D01*
X38326Y14338D01*
Y17250D01*
X38345Y17270D01*
X38360Y17306D01*
Y17345D01*
X38345Y17381D01*
X38318Y17409D01*
X38281Y17424D01*
D02*
G37*
G36*
X14284Y4609D02*
X14237D01*
X14193Y4591D01*
X14160Y4557D01*
X14142Y4514D01*
Y4467D01*
X14160Y4424D01*
X14193Y4390D01*
X14237Y4372D01*
X14284D01*
X14327Y4390D01*
X14360Y4424D01*
X14378Y4467D01*
Y4514D01*
X14360Y4557D01*
X14327Y4591D01*
X14284Y4609D01*
D02*
G37*
G36*
X13673Y4155D02*
X13626D01*
X13583Y4137D01*
X13549Y4104D01*
X13531Y4061D01*
Y4014D01*
X13549Y3970D01*
X13583Y3937D01*
X13626Y3919D01*
X13673D01*
X13716Y3937D01*
X13750Y3970D01*
X13768Y4014D01*
Y4061D01*
X13750Y4104D01*
X13716Y4137D01*
X13673Y4155D01*
D02*
G37*
G36*
X20347Y4118D02*
X20300D01*
X20256Y4100D01*
X20223Y4067D01*
X20205Y4024D01*
Y3977D01*
X20223Y3933D01*
X20256Y3900D01*
X20300Y3882D01*
X20347D01*
X20390Y3900D01*
X20423Y3933D01*
X20441Y3977D01*
Y4024D01*
X20423Y4067D01*
X20390Y4100D01*
X20347Y4118D01*
D02*
G37*
G36*
X23991Y16360D02*
X23952D01*
X23916Y16345D01*
X23888Y16317D01*
X23873Y16281D01*
Y16242D01*
X23888Y16206D01*
X23916Y16178D01*
X23952Y16163D01*
X23980D01*
X24139Y16004D01*
Y14120D01*
X24157Y14075D01*
X24224Y14008D01*
Y13980D01*
X24239Y13944D01*
X24259Y13925D01*
Y6529D01*
X24237Y6507D01*
X24209D01*
X24173Y6492D01*
X24146Y6464D01*
X24131Y6428D01*
Y6389D01*
X24146Y6353D01*
X24173Y6325D01*
X24209Y6310D01*
X24249D01*
X24285Y6325D01*
X24312Y6353D01*
X24327Y6389D01*
X24331Y6390D01*
X24381Y6350D01*
Y4035D01*
X24400Y3989D01*
X24552Y3837D01*
Y3810D01*
X24567Y3773D01*
X24595Y3746D01*
X24631Y3731D01*
X24670D01*
X24706Y3746D01*
X24734Y3773D01*
X24749Y3810D01*
Y3849D01*
X24734Y3885D01*
X24706Y3913D01*
X24670Y3928D01*
X24642D01*
X24509Y4061D01*
Y12308D01*
X24528Y12328D01*
X24543Y12364D01*
Y12403D01*
X24528Y12439D01*
X24511Y12456D01*
Y14107D01*
X24493Y14152D01*
X24387Y14258D01*
Y15925D01*
X24406Y15944D01*
X24421Y15980D01*
Y16020D01*
X24406Y16056D01*
X24379Y16083D01*
X24342Y16098D01*
X24303D01*
X24294Y16095D01*
X24248Y16076D01*
X24070Y16253D01*
Y16281D01*
X24055Y16317D01*
X24027Y16345D01*
X23991Y16360D01*
D02*
G37*
G36*
X11048Y3931D02*
X11001D01*
X10958Y3913D01*
X10925Y3880D01*
X10907Y3837D01*
Y3790D01*
X10925Y3746D01*
X10958Y3713D01*
X11001Y3695D01*
X11048D01*
X11092Y3713D01*
X11125Y3746D01*
X11143Y3790D01*
Y3837D01*
X11125Y3880D01*
X11092Y3913D01*
X11048Y3931D01*
D02*
G37*
G36*
X23024Y16226D02*
X22985D01*
X22949Y16211D01*
X22921Y16183D01*
X22906Y16147D01*
Y16108D01*
X22921Y16072D01*
X22940Y16052D01*
Y14318D01*
X22959Y14273D01*
X23224Y14008D01*
Y13980D01*
X23239Y13944D01*
X23259Y13925D01*
Y4075D01*
X23239Y4056D01*
X23224Y4020D01*
Y3980D01*
X23239Y3944D01*
X23267Y3917D01*
X23303Y3902D01*
X23342D01*
X23377Y3878D01*
Y3858D01*
X23396Y3812D01*
X23518Y3691D01*
Y3663D01*
X23533Y3627D01*
X23561Y3599D01*
X23597Y3584D01*
X23636D01*
X23672Y3599D01*
X23700Y3627D01*
X23715Y3663D01*
Y3702D01*
X23700Y3739D01*
X23672Y3766D01*
X23636Y3781D01*
X23608D01*
X23505Y3884D01*
Y14064D01*
X23487Y14109D01*
X23387Y14209D01*
Y15639D01*
X23406Y15658D01*
X23421Y15695D01*
Y15734D01*
X23406Y15770D01*
X23378Y15798D01*
X23342Y15813D01*
X23303D01*
X23267Y15798D01*
X23239Y15770D01*
X23224Y15734D01*
Y15695D01*
X23239Y15658D01*
X23259Y15639D01*
Y14225D01*
X23209Y14204D01*
X23068Y14345D01*
Y16052D01*
X23088Y16072D01*
X23103Y16108D01*
Y16147D01*
X23088Y16183D01*
X23060Y16211D01*
X23024Y16226D01*
D02*
G37*
G36*
X6255Y2392D02*
X6208D01*
X6164Y2374D01*
X6131Y2341D01*
X6113Y2297D01*
Y2250D01*
X6131Y2207D01*
X6164Y2174D01*
X6208Y2156D01*
X6255D01*
X6298Y2174D01*
X6331Y2207D01*
X6349Y2250D01*
Y2297D01*
X6331Y2341D01*
X6298Y2374D01*
X6255Y2392D01*
D02*
G37*
G36*
X5755D02*
X5708D01*
X5664Y2374D01*
X5631Y2341D01*
X5613Y2297D01*
Y2250D01*
X5631Y2207D01*
X5664Y2174D01*
X5708Y2156D01*
X5755D01*
X5798Y2174D01*
X5831Y2207D01*
X5849Y2250D01*
Y2297D01*
X5831Y2341D01*
X5798Y2374D01*
X5755Y2392D01*
D02*
G37*
G36*
X5255D02*
X5208D01*
X5164Y2374D01*
X5131Y2341D01*
X5113Y2297D01*
Y2250D01*
X5131Y2207D01*
X5164Y2174D01*
X5208Y2156D01*
X5255D01*
X5298Y2174D01*
X5331Y2207D01*
X5349Y2250D01*
Y2297D01*
X5331Y2341D01*
X5298Y2374D01*
X5255Y2392D01*
D02*
G37*
G36*
X9433Y2244D02*
X9386D01*
X9343Y2226D01*
X9309Y2193D01*
X9291Y2150D01*
Y2103D01*
X9309Y2059D01*
X9343Y2026D01*
X9386Y2008D01*
X9433D01*
X9476Y2026D01*
X9510Y2059D01*
X9528Y2103D01*
Y2150D01*
X9510Y2193D01*
X9476Y2226D01*
X9433Y2244D01*
D02*
G37*
G36*
X7228Y2205D02*
X7181D01*
X7138Y2187D01*
X7105Y2154D01*
X7087Y2110D01*
Y2063D01*
X7105Y2020D01*
X7138Y1986D01*
X7181Y1969D01*
X7228D01*
X7272Y1986D01*
X7305Y2020D01*
X7323Y2063D01*
Y2110D01*
X7305Y2154D01*
X7272Y2187D01*
X7228Y2205D01*
D02*
G37*
G36*
X11991Y2046D02*
X11944D01*
X11901Y2028D01*
X11868Y1995D01*
X11850Y1952D01*
Y1905D01*
X11868Y1861D01*
X11901Y1828D01*
X11944Y1810D01*
X11991D01*
X12035Y1828D01*
X12068Y1861D01*
X12086Y1905D01*
Y1952D01*
X12068Y1995D01*
X12035Y2028D01*
X11991Y2046D01*
D02*
G37*
G36*
X10457Y1811D02*
X10410D01*
X10366Y1793D01*
X10333Y1760D01*
X10315Y1717D01*
Y1670D01*
X10333Y1626D01*
X10366Y1593D01*
X10410Y1575D01*
X10457D01*
X10500Y1593D01*
X10533Y1626D01*
X10551Y1670D01*
Y1717D01*
X10533Y1760D01*
X10500Y1793D01*
X10457Y1811D01*
D02*
G37*
G36*
X8134Y1693D02*
X8087D01*
X8043Y1675D01*
X8010Y1642D01*
X7992Y1598D01*
Y1551D01*
X8010Y1508D01*
X8043Y1475D01*
X8087Y1457D01*
X8134D01*
X8177Y1475D01*
X8210Y1508D01*
X8228Y1551D01*
Y1598D01*
X8210Y1642D01*
X8177Y1675D01*
X8134Y1693D01*
D02*
G37*
G36*
X17393Y2677D02*
X17253D01*
X17116Y2650D01*
X16987Y2597D01*
X16871Y2519D01*
X16772Y2420D01*
X16695Y2304D01*
X16641Y2175D01*
X16614Y2038D01*
Y1899D01*
X16641Y1762D01*
X16695Y1633D01*
X16772Y1517D01*
X16871Y1418D01*
X16987Y1341D01*
X17116Y1287D01*
X17253Y1260D01*
X17393D01*
X17530Y1287D01*
X17659Y1341D01*
X17775Y1418D01*
X17873Y1517D01*
X17951Y1633D01*
X18004Y1762D01*
X18032Y1899D01*
Y2038D01*
X18004Y2175D01*
X17951Y2304D01*
X17873Y2420D01*
X17775Y2519D01*
X17659Y2597D01*
X17530Y2650D01*
X17393Y2677D01*
D02*
G37*
G36*
X3219D02*
X3080D01*
X2943Y2650D01*
X2814Y2597D01*
X2698Y2519D01*
X2599Y2420D01*
X2522Y2304D01*
X2468Y2175D01*
X2441Y2038D01*
Y1899D01*
X2468Y1762D01*
X2522Y1633D01*
X2599Y1517D01*
X2698Y1418D01*
X2814Y1341D01*
X2943Y1287D01*
X3080Y1260D01*
X3219D01*
X3356Y1287D01*
X3485Y1341D01*
X3601Y1418D01*
X3700Y1517D01*
X3778Y1633D01*
X3831Y1762D01*
X3858Y1899D01*
Y2038D01*
X3831Y2175D01*
X3778Y2304D01*
X3700Y2420D01*
X3601Y2519D01*
X3485Y2597D01*
X3356Y2650D01*
X3219Y2677D01*
D02*
G37*
G36*
X41802Y2677D02*
X41662D01*
X41526Y2650D01*
X41397Y2597D01*
X41281Y2519D01*
X41182Y2420D01*
X41104Y2304D01*
X41051Y2175D01*
X41024Y2038D01*
Y1899D01*
X41051Y1762D01*
X41104Y1633D01*
X41182Y1517D01*
X41281Y1418D01*
X41397Y1341D01*
X41526Y1287D01*
X41662Y1260D01*
X41802D01*
X41939Y1287D01*
X42068Y1341D01*
X42184Y1418D01*
X42283Y1517D01*
X42360Y1633D01*
X42414Y1762D01*
X42441Y1899D01*
Y2038D01*
X42414Y2175D01*
X42360Y2304D01*
X42283Y2420D01*
X42184Y2519D01*
X42068Y2597D01*
X41939Y2650D01*
X41802Y2677D01*
D02*
G37*
G36*
X11182Y1526D02*
X11110D01*
X11040Y1508D01*
X10978Y1472D01*
X10927Y1421D01*
X10891Y1358D01*
X10872Y1289D01*
Y1216D01*
X10891Y1147D01*
X10927Y1084D01*
X10978Y1033D01*
X11040Y997D01*
X11110Y979D01*
X11182D01*
X11251Y997D01*
X11314Y1033D01*
X11365Y1084D01*
X11401Y1147D01*
X11419Y1216D01*
Y1289D01*
X11401Y1358D01*
X11365Y1421D01*
X11314Y1472D01*
X11251Y1508D01*
X11182Y1526D01*
D02*
G37*
G36*
X5755Y856D02*
X5708D01*
X5664Y838D01*
X5631Y805D01*
X5613Y762D01*
Y715D01*
X5631Y671D01*
X5664Y638D01*
X5708Y620D01*
X5755D01*
X5798Y638D01*
X5831Y671D01*
X5849Y715D01*
Y762D01*
X5831Y805D01*
X5798Y838D01*
X5755Y856D01*
D02*
G37*
G36*
X7031Y12270D02*
X6984D01*
X6940Y12252D01*
X6907Y12219D01*
X6889Y12176D01*
Y12129D01*
X6907Y12085D01*
X6940Y12052D01*
X6942Y12051D01*
Y11643D01*
X4463Y9164D01*
X4449Y9143D01*
X4444Y9118D01*
Y1460D01*
X4449Y1435D01*
X4463Y1414D01*
X5114Y764D01*
X5113Y762D01*
Y715D01*
X5131Y671D01*
X5164Y638D01*
X5208Y620D01*
X5255D01*
X5298Y638D01*
X5331Y671D01*
X5349Y715D01*
Y762D01*
X5331Y805D01*
X5298Y838D01*
X5255Y856D01*
X5208D01*
X5206Y856D01*
X4574Y1487D01*
Y9091D01*
X7053Y11570D01*
X7067Y11591D01*
X7072Y11616D01*
Y12051D01*
X7074Y12052D01*
X7107Y12085D01*
X7125Y12129D01*
Y12176D01*
X7107Y12219D01*
X7074Y12252D01*
X7031Y12270D01*
D02*
G37*
G36*
X8182Y1126D02*
X8110D01*
X8040Y1108D01*
X7978Y1072D01*
X7927Y1021D01*
X7891Y958D01*
X7872Y889D01*
Y816D01*
X7891Y747D01*
X7927Y684D01*
X7978Y633D01*
X8040Y597D01*
X8110Y579D01*
X8182D01*
X8251Y597D01*
X8314Y633D01*
X8365Y684D01*
X8401Y747D01*
X8419Y816D01*
Y889D01*
X8401Y958D01*
X8365Y1021D01*
X8314Y1072D01*
X8251Y1108D01*
X8182Y1126D01*
D02*
G37*
G36*
X8370Y551D02*
X8323D01*
X8280Y533D01*
X8246Y500D01*
X8228Y457D01*
Y410D01*
X8246Y366D01*
X8280Y333D01*
X8323Y315D01*
X8370D01*
X8413Y333D01*
X8447Y366D01*
X8465Y410D01*
Y457D01*
X8447Y500D01*
X8413Y533D01*
X8370Y551D01*
D02*
G37*
%LPD*%
G36*
X4835Y17264D02*
Y17259D01*
X4853Y17216D01*
X4886Y17182D01*
X4895Y17179D01*
Y11233D01*
X4728Y11065D01*
X4681Y11084D01*
Y17181D01*
X4785Y17285D01*
X4835Y17264D01*
D02*
G37*
D10*
X21323Y13387D02*
Y14000D01*
Y13387D02*
X22323Y12388D01*
X22204Y4119D02*
X22323Y4000D01*
X51864Y13770D02*
Y14639D01*
Y13770D02*
X51865Y13769D01*
X51699Y13603D02*
X51865Y13769D01*
X51699Y7175D02*
Y13603D01*
X51666Y14837D02*
Y18493D01*
Y14837D02*
X51864Y14639D01*
X46841Y23318D02*
X51666Y18493D01*
X23972Y16261D02*
X24203Y16030D01*
Y14120D02*
Y16030D01*
X23004Y14318D02*
Y16128D01*
X27940Y10154D02*
Y15000D01*
X27323Y15616D02*
Y16000D01*
Y15616D02*
X27940Y15000D01*
X36573Y16000D02*
X36698Y15874D01*
Y12614D02*
Y15874D01*
X22319Y14389D02*
Y16000D01*
X22204Y4119D02*
Y6052D01*
X22323Y6171D01*
Y12388D01*
Y6000D02*
X22441Y6118D01*
Y14267D01*
X23441Y3858D02*
X23616Y3683D01*
X23441Y3858D02*
Y14064D01*
X23323Y4000D02*
Y14000D01*
X24229Y6409D02*
X24323Y6502D01*
Y14000D01*
X24445Y4035D02*
X24650Y3829D01*
X24445Y4035D02*
Y12383D01*
X25197Y4126D02*
X25323Y4000D01*
X25197Y4126D02*
Y6057D01*
X25424Y6285D01*
Y15903D01*
X25323Y6000D02*
X25506Y6183D01*
Y15943D01*
X27939Y6145D02*
X27940Y6146D01*
X38652Y4597D02*
X38652Y4597D01*
X38652Y4597D02*
Y13667D01*
X38497Y13924D02*
X38573Y14000D01*
X38497Y5195D02*
Y13924D01*
X36634Y5394D02*
Y12550D01*
X36698Y12614D01*
X37608Y5602D02*
Y10020D01*
X37693Y10105D01*
X36496Y4392D02*
X36496Y4393D01*
Y12631D01*
X37477Y4220D02*
X37478Y4221D01*
Y10035D01*
X39573Y5800D02*
Y14427D01*
X37295Y3633D02*
X37295Y3634D01*
Y11388D01*
X36816Y11970D02*
X37022Y11764D01*
Y3830D02*
Y11764D01*
X37150Y6393D02*
Y11518D01*
X41731Y6214D02*
X41731Y6214D01*
Y11792D01*
X41488Y4001D02*
Y11403D01*
X41263Y12260D02*
X41731Y11792D01*
X41609Y6001D02*
Y11715D01*
X41475Y11849D02*
X41609Y11715D01*
X41059Y12260D02*
X41263D01*
X41450Y11441D02*
X41488Y11403D01*
X37150Y11518D02*
X37318Y11686D01*
X23323Y14182D02*
X23441Y14064D01*
X23323Y14182D02*
Y15714D01*
X24445Y12383D02*
X24447Y12386D01*
Y14107D01*
X24323Y14232D02*
X24447Y14107D01*
X24323Y14232D02*
Y16000D01*
X24203Y14120D02*
X24323Y14000D01*
X37478Y10035D02*
X37573Y10130D01*
Y14000D01*
X37693Y10105D02*
Y15035D01*
X37573Y15154D02*
X37693Y15035D01*
X37573Y15154D02*
Y16000D01*
Y17645D01*
Y14000D02*
Y14679D01*
X37234Y15018D02*
X37573Y14679D01*
X37234Y15018D02*
Y17204D01*
X23445Y17883D02*
X25424Y15903D01*
X22592Y17883D02*
X23445D01*
X23323Y18126D02*
X25506Y15943D01*
X36496Y12631D02*
X36573Y12707D01*
Y14427D01*
X23004Y14318D02*
X23323Y14000D01*
X27940Y6146D02*
Y10154D01*
X22319Y14389D02*
X22441Y14267D01*
X21985Y14338D02*
X22323Y14000D01*
X21985Y14338D02*
Y18466D01*
X38652Y13667D02*
X39002Y14017D01*
X38262Y14311D02*
X38573Y14000D01*
X38262Y14311D02*
Y17325D01*
X38573Y15545D02*
Y16000D01*
Y15545D02*
X39002Y15116D01*
Y14017D02*
Y15116D01*
X46457Y20866D02*
X46772Y21181D01*
X46457Y13328D02*
Y20866D01*
Y13328D02*
X46460Y13325D01*
X47758Y11924D02*
X47916Y12082D01*
X47519Y2076D02*
X47758Y2315D01*
Y11924D01*
X47916Y12082D02*
Y13228D01*
X52082Y6929D02*
Y13911D01*
X46249Y21038D02*
X46609Y21398D01*
X46249Y13132D02*
Y21038D01*
X46100Y21454D02*
X46220Y21575D01*
X46100Y12891D02*
Y21454D01*
X45928Y12583D02*
X45929Y12583D01*
Y17212D01*
X48887Y9902D02*
Y11318D01*
X49054Y11485D01*
X45547Y17594D02*
X45929Y17212D01*
X45316Y17613D02*
Y18843D01*
Y17613D02*
X45785Y17144D01*
Y13595D02*
Y17144D01*
X45316Y18843D02*
X45525Y19052D01*
X47756Y20459D02*
Y20512D01*
X46921Y12754D02*
Y19624D01*
X47756Y20459D01*
X47883Y20040D02*
X48740D01*
X47096Y13449D02*
Y19252D01*
X47883Y20040D01*
X46862Y23179D02*
X51550Y18491D01*
X46480Y23179D02*
X46862D01*
X51550Y14228D02*
Y18491D01*
X48341Y21935D02*
Y23318D01*
Y21935D02*
X51773Y18503D01*
Y14847D02*
Y18503D01*
Y14847D02*
X51946Y14674D01*
X47551Y13839D02*
X47694Y13982D01*
Y18727D02*
X48018Y19052D01*
X47694Y13982D02*
Y18727D01*
X48322Y9897D02*
Y11150D01*
X46341Y23318D02*
X46480Y23179D01*
X47776Y17361D02*
X48009Y17594D01*
X47776Y12875D02*
Y17361D01*
X48094Y6198D02*
Y13121D01*
X47902Y5916D02*
Y11901D01*
X50569Y14708D02*
X51421Y13856D01*
Y6624D02*
Y13856D01*
Y6624D02*
X51559Y6486D01*
Y2117D02*
Y6486D01*
X51550Y7017D02*
Y14228D01*
X51946Y14048D02*
X52082Y13912D01*
X51946Y14048D02*
Y14674D01*
D14*
X8458Y19863D02*
X9437Y18883D01*
X8458Y19863D02*
Y19865D01*
X9437Y11951D02*
Y18883D01*
D16*
X12507Y8491D02*
X14260D01*
X8346Y4331D02*
X12507Y8491D01*
X5669Y4331D02*
X8346D01*
D17*
X2570Y15992D02*
X3408D01*
X3888Y15512D01*
Y14351D02*
Y15512D01*
X2857Y9992D02*
X3747D01*
X4961Y11206D01*
X2676Y9811D02*
X2857Y9992D01*
X2690Y10115D02*
X3733D01*
X2569Y9994D02*
X2690Y10115D01*
X3733D02*
X4616Y10998D01*
X8726Y11160D02*
X9187D01*
X9437Y11409D01*
Y11951D01*
X4509Y1460D02*
X5231Y738D01*
X4509Y1460D02*
Y9118D01*
X7007Y11616D01*
Y12152D01*
X4616Y17208D02*
X4953Y17545D01*
X4616Y10998D02*
Y17208D01*
X4953Y17282D02*
X4961Y17275D01*
Y11206D02*
Y17275D01*
X2676Y9094D02*
Y9811D01*
X2559Y8977D02*
X2676Y9094D01*
D21*
X1069Y11204D02*
D03*
Y7799D02*
D03*
Y17203D02*
D03*
Y13797D02*
D03*
D22*
X2715Y7799D02*
D03*
Y11204D02*
D03*
Y13797D02*
D03*
Y17203D02*
D03*
D83*
X11146Y453D02*
D03*
Y1253D02*
D03*
X8146Y853D02*
D03*
D137*
X4961Y23032D02*
D03*
X41732Y1969D02*
D03*
X17323Y1969D02*
D03*
X3150D02*
D03*
X44528Y23032D02*
D03*
X17323D02*
D03*
D139*
X1850Y24134D02*
D03*
Y21457D02*
D03*
D146*
X9548Y11271D02*
X9555Y11278D01*
Y18996D01*
X8405Y20147D02*
X9555Y18996D01*
X7932Y20147D02*
X8405D01*
X7777Y20301D02*
X7932Y20147D01*
D156*
X507Y397D02*
D03*
X1947Y356D02*
D03*
X376Y2165D02*
D03*
X433Y1205D02*
D03*
X1657Y2158D02*
D03*
X3137Y397D02*
D03*
X4068Y357D02*
D03*
X4157Y1158D02*
D03*
X2157D02*
D03*
X3157D02*
D03*
X2333Y2431D02*
D03*
X1157Y3158D02*
D03*
X318Y4397D02*
D03*
X323Y3585D02*
D03*
X3157Y3158D02*
D03*
X4075Y2530D02*
D03*
X4157Y3158D02*
D03*
X2157D02*
D03*
X2657Y4158D02*
D03*
X4823Y1372D02*
D03*
X4852Y378D02*
D03*
X4657Y2158D02*
D03*
X4891Y1735D02*
D03*
X4733Y2632D02*
D03*
X6004Y1548D02*
D03*
X6614Y1523D02*
D03*
X5301Y1548D02*
D03*
X6630Y2879D02*
D03*
X5938Y2886D02*
D03*
X4823Y3248D02*
D03*
X5467Y2905D02*
D03*
X5386Y3394D02*
D03*
X5492Y4035D02*
D03*
X5517Y4543D02*
D03*
X6043Y3484D02*
D03*
X6371Y3152D02*
D03*
X6466Y3590D02*
D03*
X5972Y4583D02*
D03*
X6240Y4094D02*
D03*
X6657Y4158D02*
D03*
X327Y5534D02*
D03*
X2157Y5158D02*
D03*
X1657Y6158D02*
D03*
X3657D02*
D03*
X2657D02*
D03*
X5355Y4942D02*
D03*
X4911Y5344D02*
D03*
X5324Y5587D02*
D03*
X4941Y6240D02*
D03*
X335Y6662D02*
D03*
X699Y6959D02*
D03*
X2057Y6969D02*
D03*
X4871Y7421D02*
D03*
X3297Y7970D02*
D03*
X5029Y6821D02*
D03*
X5634Y5415D02*
D03*
X5988Y4988D02*
D03*
X6044Y5541D02*
D03*
X6428Y4988D02*
D03*
X6584Y5396D02*
D03*
X6503Y5655D02*
D03*
X5468Y6264D02*
D03*
X5699Y6471D02*
D03*
X6791Y7038D02*
D03*
X7586Y1034D02*
D03*
X7598Y482D02*
D03*
X6870Y1575D02*
D03*
X7264Y1437D02*
D03*
X7616Y1783D02*
D03*
X8015Y1206D02*
D03*
X8081Y315D02*
D03*
X8617Y1620D02*
D03*
X7835Y2224D02*
D03*
X8657Y2158D02*
D03*
X8366Y2283D02*
D03*
X7157Y3158D02*
D03*
X7537Y2598D02*
D03*
X7045Y3590D02*
D03*
X7167Y4056D02*
D03*
X7955Y2876D02*
D03*
X8303Y3092D02*
D03*
X8394Y3590D02*
D03*
X7638Y4045D02*
D03*
X7915Y3590D02*
D03*
X8878Y295D02*
D03*
X8875Y1328D02*
D03*
X9115Y2081D02*
D03*
X9513Y2492D02*
D03*
X9695Y1427D02*
D03*
X9911Y325D02*
D03*
X9657Y2158D02*
D03*
X10030Y1476D02*
D03*
X10060Y1950D02*
D03*
X8766Y2685D02*
D03*
X9700Y3054D02*
D03*
X9157Y3158D02*
D03*
X10108Y2584D02*
D03*
X10591Y3029D02*
D03*
X10157Y3158D02*
D03*
X10156Y4036D02*
D03*
X10585Y3590D02*
D03*
X10168D02*
D03*
X6860Y5679D02*
D03*
X6877Y5317D02*
D03*
X7104Y5541D02*
D03*
X7106Y5224D02*
D03*
X7316Y7510D02*
D03*
X6791Y7982D02*
D03*
Y7510D02*
D03*
X7316Y7982D02*
D03*
Y7038D02*
D03*
X7841D02*
D03*
Y7510D02*
D03*
Y7982D02*
D03*
X8209Y5541D02*
D03*
X9439Y5709D02*
D03*
X8366Y7038D02*
D03*
X8415Y5709D02*
D03*
X8947Y6289D02*
D03*
X9741Y5475D02*
D03*
X10093Y5481D02*
D03*
X10289Y6003D02*
D03*
X9621Y6118D02*
D03*
X10098Y6427D02*
D03*
X10566Y7055D02*
D03*
X8366Y7510D02*
D03*
Y7982D02*
D03*
X10189Y7434D02*
D03*
X9685Y7894D02*
D03*
X9932Y7963D02*
D03*
X10524Y8006D02*
D03*
X2947Y8242D02*
D03*
X3297Y8246D02*
D03*
X3494Y8107D02*
D03*
X4907Y8961D02*
D03*
X5709Y8465D02*
D03*
X5118Y8661D02*
D03*
X5827Y9095D02*
D03*
X4204Y9502D02*
D03*
X4747Y9978D02*
D03*
X5984Y8327D02*
D03*
X6811Y8465D02*
D03*
X6697Y9843D02*
D03*
X6900Y10089D02*
D03*
X3394Y10308D02*
D03*
X3297Y11034D02*
D03*
Y10758D02*
D03*
X3465Y10906D02*
D03*
X4756Y10704D02*
D03*
X641Y12088D02*
D03*
X888Y12344D02*
D03*
X642D02*
D03*
X1500Y12088D02*
D03*
X3415Y11978D02*
D03*
X1248Y12344D02*
D03*
X1501D02*
D03*
X5087Y10743D02*
D03*
X5186Y10412D02*
D03*
X4764Y11289D02*
D03*
X6395Y10762D02*
D03*
X6677Y10427D02*
D03*
X6778Y11069D02*
D03*
X4784Y11972D02*
D03*
X5656Y11377D02*
D03*
X5245Y11547D02*
D03*
X4783Y12490D02*
D03*
X5127Y12373D02*
D03*
X5699Y12433D02*
D03*
X6121Y11871D02*
D03*
X6335Y11492D02*
D03*
X6108Y12310D02*
D03*
X6559Y12375D02*
D03*
X7316Y8455D02*
D03*
X7841D02*
D03*
X8366D02*
D03*
X7165Y9508D02*
D03*
X9685Y8140D02*
D03*
X10538Y8672D02*
D03*
X10015Y8701D02*
D03*
X9144Y8721D02*
D03*
X9626Y9085D02*
D03*
X8415Y9734D02*
D03*
X8657Y10158D02*
D03*
X8291Y10256D02*
D03*
X7200Y10368D02*
D03*
X7280Y10846D02*
D03*
X8434Y10476D02*
D03*
X8907Y10341D02*
D03*
X8759Y10588D02*
D03*
X8294Y12340D02*
D03*
X8657Y12158D02*
D03*
X9200Y12364D02*
D03*
X9626Y9734D02*
D03*
X10530Y9846D02*
D03*
X9758Y10041D02*
D03*
X9331Y10630D02*
D03*
X9430Y10322D02*
D03*
X9760Y10963D02*
D03*
X9233Y11758D02*
D03*
X9289Y12018D02*
D03*
X10079Y10659D02*
D03*
X10127Y10172D02*
D03*
X10157Y11158D02*
D03*
X9848Y11570D02*
D03*
X10075Y11891D02*
D03*
X10574Y12350D02*
D03*
X10915Y2096D02*
D03*
X11188Y1737D02*
D03*
X11466Y2040D02*
D03*
X11553Y625D02*
D03*
X12183Y317D02*
D03*
X11530Y1018D02*
D03*
X11890Y1177D02*
D03*
X12238Y1387D02*
D03*
X10650Y2520D02*
D03*
X11280Y2569D02*
D03*
X11157Y3158D02*
D03*
X11478Y3393D02*
D03*
X11657Y2158D02*
D03*
X12269Y3020D02*
D03*
X12254Y3557D02*
D03*
X11493Y4009D02*
D03*
X12281Y4114D02*
D03*
X11657Y4158D02*
D03*
X13071Y317D02*
D03*
X13960D02*
D03*
X12330Y1887D02*
D03*
X13157Y1158D02*
D03*
X13657Y2158D02*
D03*
X14849Y317D02*
D03*
X15737D02*
D03*
X16157Y1158D02*
D03*
X14157D02*
D03*
X15157D02*
D03*
X15657Y2158D02*
D03*
X12339Y2556D02*
D03*
X12657Y2158D02*
D03*
X13718Y2939D02*
D03*
X13157Y3158D02*
D03*
X13913Y3977D02*
D03*
X13200Y3987D02*
D03*
X16157Y3158D02*
D03*
X15157D02*
D03*
X14306Y3403D02*
D03*
X15657Y4158D02*
D03*
X14657D02*
D03*
X10841Y4902D02*
D03*
X11347Y4911D02*
D03*
X10685Y5566D02*
D03*
X11082Y5148D02*
D03*
X12657Y4158D02*
D03*
X10880Y6093D02*
D03*
X11694Y5680D02*
D03*
X11441Y6072D02*
D03*
X10858Y6518D02*
D03*
X11994Y6083D02*
D03*
X12536Y5730D02*
D03*
X13157Y5158D02*
D03*
X14801Y4772D02*
D03*
X15564Y4649D02*
D03*
X15945Y5078D02*
D03*
X14017Y5482D02*
D03*
X15157Y5158D02*
D03*
X15953Y5720D02*
D03*
X13946Y5996D02*
D03*
X13262Y7219D02*
D03*
X14547Y6513D02*
D03*
X14406Y7387D02*
D03*
X14657Y6158D02*
D03*
X15980Y6184D02*
D03*
X15362Y6666D02*
D03*
X15157Y7158D02*
D03*
X15972Y6847D02*
D03*
X16339Y7349D02*
D03*
X17514Y317D02*
D03*
X18403D02*
D03*
X16626D02*
D03*
X18157Y1158D02*
D03*
X17157D02*
D03*
X19291Y317D02*
D03*
X21069D02*
D03*
X20180D02*
D03*
X19157Y1158D02*
D03*
X21157D02*
D03*
X20157D02*
D03*
X17157Y3158D02*
D03*
X18657Y2158D02*
D03*
Y4158D02*
D03*
X18719Y3315D02*
D03*
X19657Y4158D02*
D03*
Y2158D02*
D03*
X21657D02*
D03*
X20657D02*
D03*
X19819Y3353D02*
D03*
X20942Y3332D02*
D03*
X20657Y4158D02*
D03*
X22846Y317D02*
D03*
X23734D02*
D03*
X21957D02*
D03*
X23157Y1158D02*
D03*
X22157D02*
D03*
X24623Y317D02*
D03*
X26400D02*
D03*
X25512D02*
D03*
X24157Y1158D02*
D03*
X26157D02*
D03*
X25157D02*
D03*
X21816Y3307D02*
D03*
X23657Y2158D02*
D03*
X22657D02*
D03*
Y4158D02*
D03*
X22828Y3345D02*
D03*
X23657Y4158D02*
D03*
X24657Y2158D02*
D03*
X25657D02*
D03*
X25819Y3311D02*
D03*
X23871Y3345D02*
D03*
X24745Y3328D02*
D03*
X25657Y4158D02*
D03*
X16365Y5131D02*
D03*
X16391Y6055D02*
D03*
X19157Y5158D02*
D03*
X17157D02*
D03*
X19996Y4928D02*
D03*
X20686Y4779D02*
D03*
X21976Y4862D02*
D03*
X20761Y5987D02*
D03*
X21157Y5158D02*
D03*
X21657Y6158D02*
D03*
X18657D02*
D03*
X16594Y7185D02*
D03*
X18157Y7158D02*
D03*
X17157D02*
D03*
X19657Y6158D02*
D03*
X22157Y7158D02*
D03*
X19157D02*
D03*
X21157D02*
D03*
X21135Y7406D02*
D03*
X23129Y4891D02*
D03*
X23607Y4895D02*
D03*
X22381Y4902D02*
D03*
X24257D02*
D03*
X23822Y5388D02*
D03*
X24614Y4903D02*
D03*
X25380Y4830D02*
D03*
X26039Y4889D02*
D03*
X24851Y5797D02*
D03*
X24994Y4914D02*
D03*
X25826Y5615D02*
D03*
X22657Y6158D02*
D03*
X23779Y5928D02*
D03*
X23812Y6319D02*
D03*
X23157Y7158D02*
D03*
X24157D02*
D03*
X23980Y7406D02*
D03*
X24815Y6596D02*
D03*
X25705Y6636D02*
D03*
X26157Y7158D02*
D03*
X24928Y7406D02*
D03*
X25157Y7158D02*
D03*
X25876Y7406D02*
D03*
X10643Y7452D02*
D03*
X11329Y7546D02*
D03*
X10974Y8985D02*
D03*
X11114Y7992D02*
D03*
X11657Y8158D02*
D03*
X12576Y7640D02*
D03*
X13064Y8116D02*
D03*
X11930Y8166D02*
D03*
X12556Y8225D02*
D03*
X11157Y9158D02*
D03*
X11375Y9319D02*
D03*
X11187Y10028D02*
D03*
X12610Y9574D02*
D03*
X11940Y9818D02*
D03*
X13037Y9735D02*
D03*
X14003Y7708D02*
D03*
X14733Y7714D02*
D03*
X14435Y7858D02*
D03*
X14213Y8261D02*
D03*
X15973Y7902D02*
D03*
X17342Y7406D02*
D03*
X15976Y7424D02*
D03*
X15969Y8389D02*
D03*
X16368Y8120D02*
D03*
X17303Y8140D02*
D03*
X14164Y9366D02*
D03*
X14741Y8563D02*
D03*
X14736Y9326D02*
D03*
X13716Y9459D02*
D03*
X15969Y10003D02*
D03*
X13806Y10023D02*
D03*
X15969Y8784D02*
D03*
X17313Y8719D02*
D03*
X16351Y8743D02*
D03*
X15971Y9248D02*
D03*
X17305Y9268D02*
D03*
X16378Y9272D02*
D03*
X10620Y10317D02*
D03*
X11657Y10158D02*
D03*
X11157Y11158D02*
D03*
X11955Y10788D02*
D03*
X11159Y10950D02*
D03*
X12273Y10115D02*
D03*
X13116Y10307D02*
D03*
X13699Y10713D02*
D03*
X12602Y11093D02*
D03*
X13141Y10853D02*
D03*
X13157Y11158D02*
D03*
X10819Y11343D02*
D03*
X11617Y11403D02*
D03*
X11383Y12004D02*
D03*
X10657Y12158D02*
D03*
X10877Y12004D02*
D03*
X11418Y12345D02*
D03*
X12588Y12013D02*
D03*
X13716Y11335D02*
D03*
X13155Y11518D02*
D03*
X11657Y12158D02*
D03*
X13716Y12021D02*
D03*
X13188Y12417D02*
D03*
X14389Y10045D02*
D03*
X14963Y10034D02*
D03*
X14483Y10710D02*
D03*
X14657Y10158D02*
D03*
X15050Y10784D02*
D03*
X15970Y10243D02*
D03*
X16383Y10204D02*
D03*
X17256Y10224D02*
D03*
X15967Y10638D02*
D03*
X16394Y10646D02*
D03*
X17331Y10661D02*
D03*
X14545Y11483D02*
D03*
X15957Y11320D02*
D03*
X15355Y11956D02*
D03*
X14450Y12057D02*
D03*
X15967Y12091D02*
D03*
X14657Y12158D02*
D03*
X16403Y11339D02*
D03*
X17080Y11558D02*
D03*
X15968Y11562D02*
D03*
X16457Y11900D02*
D03*
X17077Y12030D02*
D03*
X18291Y7406D02*
D03*
X19239D02*
D03*
X17657Y8158D02*
D03*
X17835Y8007D02*
D03*
X18657Y8158D02*
D03*
X20087Y7406D02*
D03*
X21657Y8158D02*
D03*
X20657D02*
D03*
X19657D02*
D03*
X20912Y8695D02*
D03*
X21744Y8723D02*
D03*
X18157Y9158D02*
D03*
X19157D02*
D03*
X17811Y10033D02*
D03*
X19657Y10158D02*
D03*
X18657D02*
D03*
X19973Y9291D02*
D03*
X20893Y9248D02*
D03*
X21766Y9256D02*
D03*
X21657Y10158D02*
D03*
X20833Y10224D02*
D03*
X22083Y7406D02*
D03*
X23032D02*
D03*
X22657Y8158D02*
D03*
X22811Y8742D02*
D03*
X23869Y8814D02*
D03*
X23884Y8344D02*
D03*
X25861Y8172D02*
D03*
X24833Y8231D02*
D03*
X24781Y8780D02*
D03*
X25830Y8736D02*
D03*
X24837Y9164D02*
D03*
X22750Y9250D02*
D03*
X23813Y9300D02*
D03*
X24181Y10014D02*
D03*
X22122Y10093D02*
D03*
X22891Y10194D02*
D03*
X23861Y10233D02*
D03*
X25166Y10038D02*
D03*
X25849Y9269D02*
D03*
X24800Y10210D02*
D03*
X25657Y10158D02*
D03*
X18203Y10643D02*
D03*
X18947Y10661D02*
D03*
X18193Y11326D02*
D03*
X19433D02*
D03*
X18756D02*
D03*
X19917Y10661D02*
D03*
X20886Y10616D02*
D03*
X21841Y10662D02*
D03*
X19914Y11326D02*
D03*
X21790D02*
D03*
X20894D02*
D03*
X17362Y11336D02*
D03*
X17907Y11715D02*
D03*
X17657Y12158D02*
D03*
X18497Y11722D02*
D03*
X18657Y12158D02*
D03*
X19322Y11679D02*
D03*
X20099Y11604D02*
D03*
X20684Y11685D02*
D03*
X19657Y12158D02*
D03*
X21657D02*
D03*
X20657D02*
D03*
X22819Y10599D02*
D03*
X23818Y10603D02*
D03*
X22663Y11326D02*
D03*
X22968D02*
D03*
X23767Y11636D02*
D03*
X24826Y10601D02*
D03*
X25688Y10593D02*
D03*
X25701Y11156D02*
D03*
X23946Y11229D02*
D03*
X24815Y11156D02*
D03*
X22152Y11789D02*
D03*
X23087Y11757D02*
D03*
X23657Y12158D02*
D03*
X22657D02*
D03*
X24117Y12449D02*
D03*
X23136Y12495D02*
D03*
X25166Y11816D02*
D03*
X25655Y11808D02*
D03*
X26055Y11912D02*
D03*
X24842Y12018D02*
D03*
X25174Y12147D02*
D03*
X888Y12658D02*
D03*
X640D02*
D03*
X641Y12914D02*
D03*
X1248Y12658D02*
D03*
X1501Y12658D02*
D03*
X1500Y12914D02*
D03*
X3297Y13968D02*
D03*
X2947Y14240D02*
D03*
X3297Y14244D02*
D03*
X2947Y16760D02*
D03*
X3297Y16756D02*
D03*
X3494Y14106D02*
D03*
X3799Y13809D02*
D03*
X3533Y14567D02*
D03*
X4766Y13126D02*
D03*
X5157Y13158D02*
D03*
X4769Y14330D02*
D03*
X4793Y13671D02*
D03*
X5226Y13880D02*
D03*
X3494Y16894D02*
D03*
X4774Y14911D02*
D03*
X5167Y16939D02*
D03*
X4774Y16988D02*
D03*
X1824Y18170D02*
D03*
X1496Y18189D02*
D03*
X787Y18228D02*
D03*
X2126Y18189D02*
D03*
X3150Y18199D02*
D03*
X2692Y18407D02*
D03*
X3297Y17032D02*
D03*
X3317Y17431D02*
D03*
X4144Y17884D02*
D03*
X4449Y17323D02*
D03*
X5157Y17158D02*
D03*
X4655Y17731D02*
D03*
X3873Y18391D02*
D03*
X4232Y18234D02*
D03*
X4134Y18504D02*
D03*
X4953Y17894D02*
D03*
X5669Y13276D02*
D03*
X6157Y13158D02*
D03*
X5684Y14010D02*
D03*
X6125Y13916D02*
D03*
X6657Y14158D02*
D03*
X6802Y12579D02*
D03*
X8068Y12692D02*
D03*
X7817Y12905D02*
D03*
X7157Y13158D02*
D03*
X7454Y13721D02*
D03*
X7657Y14158D02*
D03*
X5243Y14594D02*
D03*
X5694Y14813D02*
D03*
X6144Y14822D02*
D03*
X6331Y15187D02*
D03*
X6671Y14603D02*
D03*
X7523Y14749D02*
D03*
X8157Y15158D02*
D03*
X6744Y15396D02*
D03*
X7157Y15158D02*
D03*
X7732Y15444D02*
D03*
X8157Y13158D02*
D03*
X9157D02*
D03*
X8727Y13591D02*
D03*
X10023Y13491D02*
D03*
X9284Y14012D02*
D03*
X10157Y13158D02*
D03*
X11130Y12922D02*
D03*
X11157Y13158D02*
D03*
X10589Y14036D02*
D03*
X10653Y13363D02*
D03*
X11417Y14031D02*
D03*
X8657Y14158D02*
D03*
X9808Y14042D02*
D03*
X9769Y14723D02*
D03*
X8274Y14787D02*
D03*
X8937Y14764D02*
D03*
X9157Y15158D02*
D03*
X10636Y14758D02*
D03*
X11361Y14756D02*
D03*
X11157Y15158D02*
D03*
X9872Y15403D02*
D03*
X10157Y15158D02*
D03*
X10743Y15406D02*
D03*
X6238Y15929D02*
D03*
X5672Y16544D02*
D03*
X6820Y15973D02*
D03*
X7309Y15948D02*
D03*
X8657Y16158D02*
D03*
X7657D02*
D03*
X5787Y17175D02*
D03*
X7018Y18514D02*
D03*
X7490D02*
D03*
X7963D02*
D03*
X8842Y16565D02*
D03*
X9238Y15986D02*
D03*
X8791Y16979D02*
D03*
X9261Y16569D02*
D03*
X9241Y16952D02*
D03*
X9781Y15964D02*
D03*
X11204D02*
D03*
X10465Y15980D02*
D03*
X9779Y16544D02*
D03*
X10657Y16158D02*
D03*
X9803Y16949D02*
D03*
X10856Y17087D02*
D03*
X11157Y17158D02*
D03*
X11023Y17486D02*
D03*
X10945Y17795D02*
D03*
X11005Y18396D02*
D03*
X1568Y18567D02*
D03*
X1927Y18550D02*
D03*
X1929Y19354D02*
D03*
X1532Y19376D02*
D03*
X2689Y18840D02*
D03*
X3130Y18720D02*
D03*
X3209Y19390D02*
D03*
X3552Y19168D02*
D03*
X1826Y19828D02*
D03*
X2956Y19578D02*
D03*
X768Y20049D02*
D03*
X915Y20423D02*
D03*
X4488Y19921D02*
D03*
X4990Y18583D02*
D03*
X5106Y18858D02*
D03*
X4842Y19252D02*
D03*
X276Y21654D02*
D03*
X1003Y21378D02*
D03*
X825Y21789D02*
D03*
X851Y22292D02*
D03*
X827Y22805D02*
D03*
X1003Y20728D02*
D03*
X1460Y21346D02*
D03*
X2803Y21648D02*
D03*
X1467Y22333D02*
D03*
X2657Y22158D02*
D03*
X2136Y22323D02*
D03*
X276Y23110D02*
D03*
X1157Y23158D02*
D03*
X827Y23445D02*
D03*
X359Y24350D02*
D03*
X872Y23986D02*
D03*
X815Y24678D02*
D03*
X1555Y23307D02*
D03*
X3421Y23206D02*
D03*
X2126Y23317D02*
D03*
X1893Y24674D02*
D03*
X2657Y24158D02*
D03*
X2998Y24683D02*
D03*
X4232Y20748D02*
D03*
X3489Y21680D02*
D03*
X3848Y20856D02*
D03*
X4309Y21471D02*
D03*
X5344Y20719D02*
D03*
X6014Y20807D02*
D03*
X3434Y22587D02*
D03*
X4657Y22158D02*
D03*
X3657D02*
D03*
X3826Y24554D02*
D03*
X4157Y23158D02*
D03*
X4062Y23794D02*
D03*
X5657Y22158D02*
D03*
X6164Y21821D02*
D03*
X6157Y23158D02*
D03*
X4966Y24609D02*
D03*
X5576Y23760D02*
D03*
X6103Y24660D02*
D03*
X7490Y18986D02*
D03*
X7018Y19459D02*
D03*
Y18986D02*
D03*
X7490Y19459D02*
D03*
X7963D02*
D03*
Y18986D02*
D03*
X7866Y20663D02*
D03*
X8209Y20394D02*
D03*
X8780Y20472D02*
D03*
X10709Y18750D02*
D03*
X9976Y18876D02*
D03*
X11212Y18852D02*
D03*
X10039Y20620D02*
D03*
X11386Y19498D02*
D03*
X10633Y20612D02*
D03*
X11419Y19980D02*
D03*
X11521Y20638D02*
D03*
X6437Y20935D02*
D03*
X6791Y20925D02*
D03*
X6973Y21547D02*
D03*
X7304Y21087D02*
D03*
X7589Y20719D02*
D03*
X7627Y21540D02*
D03*
X8224Y21468D02*
D03*
X7830Y22054D02*
D03*
X6530Y22188D02*
D03*
X7179Y22227D02*
D03*
X7097Y22748D02*
D03*
X6561Y23804D02*
D03*
X7009Y23523D02*
D03*
X7005Y24615D02*
D03*
X7787Y22936D02*
D03*
X7985Y22627D02*
D03*
X7890Y23291D02*
D03*
X7918Y24636D02*
D03*
X8441Y23509D02*
D03*
X8465Y24685D02*
D03*
X8812Y20916D02*
D03*
X9475Y21266D02*
D03*
X8657Y22158D02*
D03*
X9147Y21504D02*
D03*
X9151Y22095D02*
D03*
X10157Y21158D02*
D03*
X11157D02*
D03*
X10196Y21981D02*
D03*
X9657Y22158D02*
D03*
X10657D02*
D03*
X9885Y22607D02*
D03*
X9102Y23292D02*
D03*
X9852Y23268D02*
D03*
X8979Y24474D02*
D03*
X8997Y23731D02*
D03*
X10157Y23158D02*
D03*
X10648Y22867D02*
D03*
X11157Y23158D02*
D03*
X9936Y24539D02*
D03*
X10699Y23819D02*
D03*
X10755Y24560D02*
D03*
X11958Y12498D02*
D03*
X12007Y12919D02*
D03*
X11525Y13403D02*
D03*
X12157Y13158D02*
D03*
X12694Y13498D02*
D03*
X12810Y12844D02*
D03*
X13716Y12770D02*
D03*
X14157Y13158D02*
D03*
X13157D02*
D03*
X13588Y13540D02*
D03*
X13657Y14158D02*
D03*
X11657D02*
D03*
X12657D02*
D03*
X12149Y14264D02*
D03*
X12503Y14907D02*
D03*
X12157Y15158D02*
D03*
X13177Y14202D02*
D03*
X14349Y14305D02*
D03*
X13521Y14634D02*
D03*
X13157Y15158D02*
D03*
X14102Y14922D02*
D03*
X14157Y15158D02*
D03*
X14473Y12615D02*
D03*
X15378Y12667D02*
D03*
X14422Y13517D02*
D03*
X15157Y13158D02*
D03*
X15364Y13580D02*
D03*
X15970Y12500D02*
D03*
X16435Y12546D02*
D03*
X17077Y12672D02*
D03*
X15973Y12977D02*
D03*
X17862Y12689D02*
D03*
X17157Y13158D02*
D03*
X15964Y14042D02*
D03*
X15968Y13684D02*
D03*
X16378Y13691D02*
D03*
X14589Y14816D02*
D03*
X15284Y14214D02*
D03*
X15971Y14582D02*
D03*
X16400Y14354D02*
D03*
X17489Y13853D02*
D03*
X17186Y14514D02*
D03*
X16427Y14902D02*
D03*
X17757Y15001D02*
D03*
X17250Y15141D02*
D03*
X11907Y15392D02*
D03*
X13127Y15447D02*
D03*
X11657Y16158D02*
D03*
X12657D02*
D03*
X13162Y16369D02*
D03*
X13558Y15448D02*
D03*
X14026Y15404D02*
D03*
X13942Y15982D02*
D03*
X13657Y16158D02*
D03*
X14358Y16432D02*
D03*
X13968Y16681D02*
D03*
X12157Y17158D02*
D03*
X12474Y17005D02*
D03*
X11999Y17689D02*
D03*
X12715Y17784D02*
D03*
X14561Y16950D02*
D03*
X13823Y17136D02*
D03*
X13649Y17606D02*
D03*
X14404Y17661D02*
D03*
X15960Y15263D02*
D03*
X16414Y15792D02*
D03*
X14605Y15915D02*
D03*
X15975Y15998D02*
D03*
X16385Y16194D02*
D03*
X17304Y15856D02*
D03*
X17061Y16551D02*
D03*
X17569Y16567D02*
D03*
X18065Y16573D02*
D03*
X15970Y17052D02*
D03*
X15973Y16577D02*
D03*
X16436Y16584D02*
D03*
X15949Y17481D02*
D03*
X16440Y17093D02*
D03*
X17783Y17091D02*
D03*
X17064Y17102D02*
D03*
X16447Y17499D02*
D03*
X17214Y17502D02*
D03*
X17971Y17505D02*
D03*
X18562Y12689D02*
D03*
X20075Y12723D02*
D03*
X18157Y13158D02*
D03*
X20632Y12922D02*
D03*
X19157Y13158D02*
D03*
X20747Y12575D02*
D03*
X21475Y12532D02*
D03*
X22608Y12597D02*
D03*
X21157Y13158D02*
D03*
X22103Y12972D02*
D03*
X21322Y13000D02*
D03*
X19657Y14158D02*
D03*
X20657D02*
D03*
X18657D02*
D03*
X20048Y14759D02*
D03*
X20576Y14768D02*
D03*
X20885Y13505D02*
D03*
X21841Y13543D02*
D03*
X21812Y14130D02*
D03*
X21164Y14754D02*
D03*
X21736Y14466D02*
D03*
X22528Y14965D02*
D03*
X22919Y13025D02*
D03*
X23679Y12930D02*
D03*
X23157Y13158D02*
D03*
X24157D02*
D03*
X23863Y13253D02*
D03*
X26058Y12558D02*
D03*
X24859Y13208D02*
D03*
X25126Y12999D02*
D03*
X26012Y13094D02*
D03*
X22836Y14122D02*
D03*
X22841Y13509D02*
D03*
X23858Y13711D02*
D03*
X23758Y14472D02*
D03*
X23852Y14135D02*
D03*
X24539Y14921D02*
D03*
X24936Y14104D02*
D03*
X25997Y13645D02*
D03*
X26001Y14133D02*
D03*
X24923Y14466D02*
D03*
X25235Y14760D02*
D03*
X26484Y14974D02*
D03*
X18157Y15158D02*
D03*
X19157D02*
D03*
X18416Y15818D02*
D03*
X19657Y16158D02*
D03*
X18657D02*
D03*
X21157Y15158D02*
D03*
X20846Y15666D02*
D03*
X20089Y16547D02*
D03*
X21657Y16158D02*
D03*
X20547Y16543D02*
D03*
X18434Y17104D02*
D03*
X19105Y17100D02*
D03*
X19944Y17468D02*
D03*
X18657Y18158D02*
D03*
X18769Y17499D02*
D03*
X19657Y18158D02*
D03*
X20035Y17108D02*
D03*
X21111Y17068D02*
D03*
X20550Y17082D02*
D03*
X20563Y17482D02*
D03*
X21148Y17470D02*
D03*
X20657Y18158D02*
D03*
X21751Y15123D02*
D03*
X22157Y15158D02*
D03*
X21815Y15708D02*
D03*
X22765Y15266D02*
D03*
X22776Y16001D02*
D03*
X23510Y15000D02*
D03*
X24927Y15132D02*
D03*
X25157Y15158D02*
D03*
X23157D02*
D03*
X26079Y15182D02*
D03*
X23760Y15275D02*
D03*
X22785Y16516D02*
D03*
X24774Y17734D02*
D03*
X25911Y17264D02*
D03*
X25378Y17617D02*
D03*
X25812Y17683D02*
D03*
X26478Y17689D02*
D03*
X11916Y18577D02*
D03*
X12658Y18899D02*
D03*
X13447Y19122D02*
D03*
X13762Y18512D02*
D03*
X14879Y18245D02*
D03*
X14268Y18457D02*
D03*
X14688Y19322D02*
D03*
X14972Y19548D02*
D03*
X11850Y19587D02*
D03*
X12157Y21158D02*
D03*
X12203Y20233D02*
D03*
X13178Y21022D02*
D03*
X14047Y20418D02*
D03*
X13368Y20474D02*
D03*
X14737Y20454D02*
D03*
X14865Y20933D02*
D03*
X15808Y18199D02*
D03*
X15919Y18643D02*
D03*
X16154Y19039D02*
D03*
X15724Y19515D02*
D03*
X16396Y18170D02*
D03*
X17657Y18158D02*
D03*
X17090Y18209D02*
D03*
X16378Y18701D02*
D03*
X17441Y18244D02*
D03*
X17157Y19158D02*
D03*
X15468Y19752D02*
D03*
X16280Y19921D02*
D03*
X16224Y20385D02*
D03*
X15283Y20420D02*
D03*
X16276Y20927D02*
D03*
X15496Y20943D02*
D03*
X16798Y20035D02*
D03*
X17397Y19966D02*
D03*
X17812Y20036D02*
D03*
X17289Y20918D02*
D03*
X11575Y21299D02*
D03*
X13258Y21329D02*
D03*
X11543Y22283D02*
D03*
X13287Y21841D02*
D03*
X13657Y22158D02*
D03*
X13750Y21442D02*
D03*
X14157Y21158D02*
D03*
X14468Y21378D02*
D03*
X13838Y21828D02*
D03*
X14464Y21821D02*
D03*
X13946Y22302D02*
D03*
X12157Y23158D02*
D03*
X12166Y22311D02*
D03*
X12738Y22322D02*
D03*
X11753Y23237D02*
D03*
X11880Y23809D02*
D03*
X11777Y24555D02*
D03*
X13132Y22450D02*
D03*
X13157Y23158D02*
D03*
X14006Y23209D02*
D03*
X13003Y23784D02*
D03*
X13966Y23810D02*
D03*
X14016Y24626D02*
D03*
X15157Y21158D02*
D03*
X15542Y22282D02*
D03*
X15007Y22891D02*
D03*
X15049Y22323D02*
D03*
X15157Y23158D02*
D03*
X16157Y21158D02*
D03*
X17657Y22158D02*
D03*
X16657D02*
D03*
X16157Y23158D02*
D03*
X17918Y22289D02*
D03*
X16437Y22328D02*
D03*
X15157Y23610D02*
D03*
X15063Y24482D02*
D03*
X15415Y23852D02*
D03*
X15247Y24693D02*
D03*
X16552Y23852D02*
D03*
X17689D02*
D03*
X17760Y24693D02*
D03*
X15876D02*
D03*
X17132D02*
D03*
X16504D02*
D03*
X18262Y18635D02*
D03*
X19916Y18762D02*
D03*
X18157Y19158D02*
D03*
X19157D02*
D03*
X19990Y19510D02*
D03*
X20959Y18459D02*
D03*
X21844Y18641D02*
D03*
X21861Y19271D02*
D03*
X20607Y19996D02*
D03*
X21004Y19620D02*
D03*
X21406Y20044D02*
D03*
X18657Y20158D02*
D03*
X18979Y20860D02*
D03*
X18242Y20893D02*
D03*
X19608Y20951D02*
D03*
X19157Y21158D02*
D03*
X19657Y20158D02*
D03*
X21831Y20719D02*
D03*
X19986Y20783D02*
D03*
X20797Y20728D02*
D03*
X21066Y22088D02*
D03*
X22848Y18646D02*
D03*
X22878Y18172D02*
D03*
X22822Y19282D02*
D03*
X23882Y18657D02*
D03*
X23897Y19977D02*
D03*
X23926Y19418D02*
D03*
X25807Y18829D02*
D03*
X24843Y18878D02*
D03*
X24531Y19982D02*
D03*
X24950Y19514D02*
D03*
X25156Y19899D02*
D03*
X22421Y20071D02*
D03*
X23388Y20039D02*
D03*
X22890Y20063D02*
D03*
X21884Y20076D02*
D03*
X22799Y20874D02*
D03*
X22657Y22158D02*
D03*
X23829Y20581D02*
D03*
X25758Y20069D02*
D03*
X24794Y20382D02*
D03*
X23657Y22158D02*
D03*
X25866Y20807D02*
D03*
X24813Y20817D02*
D03*
X18657Y22158D02*
D03*
X18913Y22334D02*
D03*
X18991Y22880D02*
D03*
X19385Y22508D02*
D03*
X19739Y22848D02*
D03*
X19777Y22263D02*
D03*
X20657Y22158D02*
D03*
X20723Y22407D02*
D03*
X19956Y22565D02*
D03*
X20750Y22992D02*
D03*
X20157Y23158D02*
D03*
X18157D02*
D03*
X19157D02*
D03*
X18964Y23454D02*
D03*
X18388Y24693D02*
D03*
X18825Y23852D02*
D03*
X19016Y24693D02*
D03*
X19791Y23310D02*
D03*
X20815Y23535D02*
D03*
X19962Y23852D02*
D03*
X19644Y24693D02*
D03*
X20900D02*
D03*
X20272D02*
D03*
X21657Y22158D02*
D03*
X24157Y23158D02*
D03*
X21157D02*
D03*
X23157D02*
D03*
X22157D02*
D03*
X24657Y22158D02*
D03*
X25657D02*
D03*
X26157Y23158D02*
D03*
X24510Y23852D02*
D03*
X25157Y23158D02*
D03*
X25647Y23852D02*
D03*
X21099D02*
D03*
X23373D02*
D03*
X22236D02*
D03*
X21528Y24693D02*
D03*
X22785D02*
D03*
X22157D02*
D03*
X25297D02*
D03*
X26553D02*
D03*
X25925D02*
D03*
X23413D02*
D03*
X24669D02*
D03*
X24041D02*
D03*
X27289Y317D02*
D03*
X28177D02*
D03*
X27157Y1158D02*
D03*
X28157D02*
D03*
X27657Y2158D02*
D03*
X29066Y317D02*
D03*
X29954D02*
D03*
X30157Y1158D02*
D03*
X28657Y2158D02*
D03*
X29157Y1158D02*
D03*
X29657Y2158D02*
D03*
X26657D02*
D03*
X27800Y3311D02*
D03*
X26768Y3315D02*
D03*
X27688Y4850D02*
D03*
X26786Y4934D02*
D03*
X28761Y3311D02*
D03*
X29082Y4895D02*
D03*
X28496Y4934D02*
D03*
X30653Y4923D02*
D03*
X29929Y4939D02*
D03*
X31732Y317D02*
D03*
X32620D02*
D03*
X30843D02*
D03*
X32157Y1158D02*
D03*
X31157D02*
D03*
X33509Y317D02*
D03*
X34397D02*
D03*
X34157Y1158D02*
D03*
X33157D02*
D03*
X34657Y2158D02*
D03*
X33657D02*
D03*
X30657D02*
D03*
X31657D02*
D03*
X32157Y3158D02*
D03*
X30682Y3350D02*
D03*
X31740Y4884D02*
D03*
X31227Y4923D02*
D03*
X32657Y2158D02*
D03*
X34157Y3158D02*
D03*
X33157D02*
D03*
X32440Y4900D02*
D03*
X33153Y4889D02*
D03*
X34101Y4911D02*
D03*
X26817Y5844D02*
D03*
X27818Y5816D02*
D03*
X26818Y6600D02*
D03*
X27738Y6388D02*
D03*
X28157Y7158D02*
D03*
X28657Y6158D02*
D03*
X29657D02*
D03*
X29020Y6716D02*
D03*
X28208Y6809D02*
D03*
X29683Y6753D02*
D03*
X30157Y7158D02*
D03*
X26824Y7406D02*
D03*
X27157Y7158D02*
D03*
X27773Y7406D02*
D03*
X26822Y8193D02*
D03*
X27800Y8186D02*
D03*
Y8726D02*
D03*
X28721Y7406D02*
D03*
X29669D02*
D03*
X29836Y8226D02*
D03*
X28783Y8732D02*
D03*
X28814Y8235D02*
D03*
X29682Y8781D02*
D03*
X30847Y6633D02*
D03*
X31768Y6641D02*
D03*
X31157Y7158D02*
D03*
X32514Y7406D02*
D03*
X31566D02*
D03*
X32936Y6769D02*
D03*
X33928Y6779D02*
D03*
X34157Y7158D02*
D03*
X33157D02*
D03*
X34410Y7406D02*
D03*
X33462D02*
D03*
X30460Y8298D02*
D03*
X30617Y7406D02*
D03*
X31105Y8282D02*
D03*
X30332Y8697D02*
D03*
X31834Y8303D02*
D03*
X31120Y8745D02*
D03*
X32361Y8298D02*
D03*
X33996Y8314D02*
D03*
X33192Y8324D02*
D03*
X32324Y8830D02*
D03*
X33189Y8857D02*
D03*
X33793Y8884D02*
D03*
X35286Y317D02*
D03*
X36174D02*
D03*
X35157Y1158D02*
D03*
X36157D02*
D03*
X35657Y2158D02*
D03*
X37063Y317D02*
D03*
X37952D02*
D03*
X37157Y1158D02*
D03*
X36657Y2158D02*
D03*
X37657D02*
D03*
X37157Y3158D02*
D03*
X35157D02*
D03*
X36157D02*
D03*
X34858Y4861D02*
D03*
X35689Y4889D02*
D03*
X36179Y4900D02*
D03*
X36772Y4424D02*
D03*
X36849Y4781D02*
D03*
X37711Y4866D02*
D03*
X36671Y5030D02*
D03*
X36860Y5376D02*
D03*
X37714Y5389D02*
D03*
X38840Y317D02*
D03*
X39157Y1158D02*
D03*
X38157D02*
D03*
X39657Y2158D02*
D03*
X38657D02*
D03*
X39729Y317D02*
D03*
X40617D02*
D03*
X40157Y1158D02*
D03*
Y3158D02*
D03*
X40657Y2158D02*
D03*
X41157Y3158D02*
D03*
X38157D02*
D03*
X38657Y4158D02*
D03*
X38470Y4837D02*
D03*
X38272Y5610D02*
D03*
X39157Y5158D02*
D03*
X38820Y5609D02*
D03*
X39157Y3158D02*
D03*
X40657Y4158D02*
D03*
X39657D02*
D03*
X40157Y5158D02*
D03*
X41157D02*
D03*
X40592Y5790D02*
D03*
X35194Y6760D02*
D03*
X35815Y7082D02*
D03*
X35157Y7158D02*
D03*
X36157D02*
D03*
X35358Y7406D02*
D03*
X36298Y6761D02*
D03*
X37824Y6392D02*
D03*
X36806Y6610D02*
D03*
X36307Y7406D02*
D03*
X37802Y6764D02*
D03*
X37758Y7380D02*
D03*
X34822Y8287D02*
D03*
X35536Y8309D02*
D03*
X36020Y8443D02*
D03*
X34818Y8876D02*
D03*
X36324Y8699D02*
D03*
X35965Y8849D02*
D03*
X36820Y7871D02*
D03*
X38141Y7828D02*
D03*
X37787Y7849D02*
D03*
X36806Y8455D02*
D03*
X37790Y8332D02*
D03*
X38113Y8705D02*
D03*
X38332Y6398D02*
D03*
X38839Y6379D02*
D03*
X38294Y6745D02*
D03*
X38855Y6735D02*
D03*
X39291Y6773D02*
D03*
X39353Y6401D02*
D03*
X39861Y5822D02*
D03*
X39749Y6377D02*
D03*
X39775Y6745D02*
D03*
X40309Y6415D02*
D03*
X40352Y6734D02*
D03*
X38335Y7373D02*
D03*
X39421Y7356D02*
D03*
X38824Y7377D02*
D03*
X38285Y8341D02*
D03*
X39093Y7815D02*
D03*
X39145Y8724D02*
D03*
X40137Y7814D02*
D03*
X40935Y7340D02*
D03*
X40214Y7347D02*
D03*
X40218Y8737D02*
D03*
X41097Y7824D02*
D03*
X40657Y8158D02*
D03*
X26863Y9104D02*
D03*
X27788Y9270D02*
D03*
X27560Y10079D02*
D03*
X28808Y9213D02*
D03*
X29713Y9435D02*
D03*
X26795Y10601D02*
D03*
X26896Y10091D02*
D03*
X29687Y11192D02*
D03*
X30769Y9011D02*
D03*
X31786Y8990D02*
D03*
X30157Y9158D02*
D03*
X30479Y9430D02*
D03*
X31831Y10691D02*
D03*
X34021Y10686D02*
D03*
X33242D02*
D03*
X31170Y10691D02*
D03*
X31157Y11158D02*
D03*
X30546Y11183D02*
D03*
X31423Y11169D02*
D03*
X32301Y11187D02*
D03*
X32415Y10705D02*
D03*
X34157Y11158D02*
D03*
X33157D02*
D03*
X32831Y11170D02*
D03*
X34587Y11174D02*
D03*
X33709Y11176D02*
D03*
X29664Y11496D02*
D03*
X26801Y13092D02*
D03*
X27738Y13092D02*
D03*
X30546Y11475D02*
D03*
X31423Y11477D02*
D03*
X32831Y11463D02*
D03*
X33709Y11465D02*
D03*
X34587Y11475D02*
D03*
X32301Y11487D02*
D03*
X30545Y13137D02*
D03*
X29729Y13143D02*
D03*
X31157Y13158D02*
D03*
X30157D02*
D03*
X31691Y13137D02*
D03*
X32570Y13116D02*
D03*
X33157Y13158D02*
D03*
X34157D02*
D03*
X33493Y13181D02*
D03*
X35550Y8980D02*
D03*
X36351Y9009D02*
D03*
X35095Y10695D02*
D03*
X36833Y8968D02*
D03*
X37757Y8996D02*
D03*
X35822Y10730D02*
D03*
X36772Y10719D02*
D03*
X35154Y11188D02*
D03*
X36339Y11035D02*
D03*
X36032Y11174D02*
D03*
X37883Y10757D02*
D03*
X36778Y11371D02*
D03*
X36879Y11163D02*
D03*
X38821Y10218D02*
D03*
X38863Y9850D02*
D03*
X39363Y10219D02*
D03*
X39381Y9848D02*
D03*
X40425Y9839D02*
D03*
X39761Y9847D02*
D03*
X39732Y10218D02*
D03*
X40937Y10218D02*
D03*
X40211Y10219D02*
D03*
X39765Y11019D02*
D03*
X38321Y11126D02*
D03*
X39371Y11019D02*
D03*
X38978D02*
D03*
X40537Y11113D02*
D03*
X41050Y11150D02*
D03*
X35154Y11480D02*
D03*
X35880Y11545D02*
D03*
X36791Y11684D02*
D03*
X37869Y11681D02*
D03*
X35157Y13158D02*
D03*
X35814Y12844D02*
D03*
X36048Y13086D02*
D03*
X37838Y12081D02*
D03*
X36773Y12260D02*
D03*
X39371Y11412D02*
D03*
X39765D02*
D03*
X38978D02*
D03*
X39765Y11806D02*
D03*
X39371D02*
D03*
X40898Y11459D02*
D03*
X38297Y12122D02*
D03*
X38978Y11806D02*
D03*
X39765Y12200D02*
D03*
X38978D02*
D03*
X39371D02*
D03*
X41506Y317D02*
D03*
X42394D02*
D03*
X41157Y1158D02*
D03*
X43157D02*
D03*
X42157D02*
D03*
X43283Y317D02*
D03*
X45060D02*
D03*
X44172D02*
D03*
X44157Y1158D02*
D03*
X45157D02*
D03*
X44657Y2158D02*
D03*
X42657D02*
D03*
X43157Y3158D02*
D03*
X41657Y4158D02*
D03*
X42157Y3158D02*
D03*
X42657Y4158D02*
D03*
X43657Y2158D02*
D03*
X44928Y2778D02*
D03*
X43657Y4158D02*
D03*
X44157Y3158D02*
D03*
X44657Y4158D02*
D03*
X45949Y317D02*
D03*
X46157Y1158D02*
D03*
X45569Y1543D02*
D03*
X46034Y1886D02*
D03*
X46819Y1898D02*
D03*
X46837Y317D02*
D03*
X47726D02*
D03*
X48157Y1158D02*
D03*
X46836Y1554D02*
D03*
X47157Y1158D02*
D03*
X47853Y2140D02*
D03*
X45657Y2158D02*
D03*
X46657D02*
D03*
X46157Y3158D02*
D03*
X45657Y4158D02*
D03*
X46832Y3307D02*
D03*
X46657Y4158D02*
D03*
X47468Y2283D02*
D03*
X47926Y2827D02*
D03*
X47566Y2857D02*
D03*
X47508Y3763D02*
D03*
X47988Y3741D02*
D03*
X42157Y5158D02*
D03*
X43157D02*
D03*
X41179Y6404D02*
D03*
X41312Y5822D02*
D03*
X42657Y6158D02*
D03*
X44157Y5158D02*
D03*
X45433Y4882D02*
D03*
X45459Y6083D02*
D03*
X43657Y6158D02*
D03*
X44657D02*
D03*
X44906Y6548D02*
D03*
X41264Y6756D02*
D03*
X42985Y6748D02*
D03*
X41871Y7339D02*
D03*
X42248Y7826D02*
D03*
X42460Y7343D02*
D03*
X43195Y7819D02*
D03*
X44028Y6734D02*
D03*
X44066Y7350D02*
D03*
X43205D02*
D03*
X45150Y7818D02*
D03*
X44240Y7832D02*
D03*
X46157Y5158D02*
D03*
X46942Y5045D02*
D03*
X46128Y5638D02*
D03*
X46985Y5965D02*
D03*
X46657Y6158D02*
D03*
X47577Y4409D02*
D03*
X47922Y4421D02*
D03*
X47925Y4993D02*
D03*
X47509Y5878D02*
D03*
X47592Y5053D02*
D03*
X48190Y5679D02*
D03*
X45620Y6746D02*
D03*
X45657Y6158D02*
D03*
X46187Y6491D02*
D03*
X45567Y7366D02*
D03*
X46145Y7370D02*
D03*
X46212Y7820D02*
D03*
X46753Y6723D02*
D03*
X47507Y6556D02*
D03*
X46695Y7366D02*
D03*
X47077Y7852D02*
D03*
X47544Y7873D02*
D03*
X48614Y317D02*
D03*
X49503D02*
D03*
X48327Y2146D02*
D03*
X49157Y1158D02*
D03*
X48657Y2158D02*
D03*
X50157Y1158D02*
D03*
X50392Y317D02*
D03*
X50197Y1457D02*
D03*
X49657Y2158D02*
D03*
X49862Y2096D02*
D03*
X50657Y2158D02*
D03*
X48273Y2527D02*
D03*
X48864Y2829D02*
D03*
X48209Y3275D02*
D03*
X48902Y3755D02*
D03*
X49399Y2527D02*
D03*
X49961Y2707D02*
D03*
X50941Y2839D02*
D03*
X49901Y3681D02*
D03*
X50157Y3158D02*
D03*
X50806Y3261D02*
D03*
X51280Y317D02*
D03*
X52169D02*
D03*
X51157Y1158D02*
D03*
X51918Y1238D02*
D03*
X52236Y2032D02*
D03*
X53781Y370D02*
D03*
X52293Y1609D02*
D03*
X53157Y1158D02*
D03*
X53657Y2158D02*
D03*
X51289Y2185D02*
D03*
X51826Y2192D02*
D03*
X51741Y2845D02*
D03*
X51297Y3787D02*
D03*
X51749Y3797D02*
D03*
X52311Y2757D02*
D03*
X52657Y2158D02*
D03*
X53157Y3158D02*
D03*
X52287Y3308D02*
D03*
X53258Y3524D02*
D03*
X52657Y4158D02*
D03*
X48657D02*
D03*
X49155Y4479D02*
D03*
X48456Y4993D02*
D03*
X49106Y4995D02*
D03*
X49612Y5639D02*
D03*
X49657Y4158D02*
D03*
X50657D02*
D03*
X49928Y4661D02*
D03*
X49629Y5248D02*
D03*
X50157Y5158D02*
D03*
X50807Y5648D02*
D03*
X48657Y6158D02*
D03*
X48740Y5866D02*
D03*
X49613Y6733D02*
D03*
X48652Y7763D02*
D03*
X49120Y7519D02*
D03*
X49657Y6158D02*
D03*
X50657D02*
D03*
X50268Y6716D02*
D03*
X49706Y7396D02*
D03*
X50814Y6751D02*
D03*
X50680Y7337D02*
D03*
X50920Y4681D02*
D03*
X51376Y4472D02*
D03*
X50819Y5237D02*
D03*
X51382Y4995D02*
D03*
X51400Y5862D02*
D03*
X51729Y5012D02*
D03*
X53657Y4158D02*
D03*
X51740Y4430D02*
D03*
X51783Y5937D02*
D03*
X53157Y5158D02*
D03*
X52257Y5355D02*
D03*
X51252Y6559D02*
D03*
X51775Y6532D02*
D03*
X51186Y7937D02*
D03*
X51206Y7392D02*
D03*
X51893Y7488D02*
D03*
X52347Y6631D02*
D03*
X53657Y6158D02*
D03*
X52657D02*
D03*
X52283Y7730D02*
D03*
X52318Y7115D02*
D03*
X53157Y7158D02*
D03*
X41164Y8737D02*
D03*
X41281Y9854D02*
D03*
X41348Y10944D02*
D03*
X42106Y10969D02*
D03*
X42657Y8158D02*
D03*
X43657D02*
D03*
X43448Y8712D02*
D03*
X42123Y8724D02*
D03*
X44117Y8989D02*
D03*
X44157Y11158D02*
D03*
X42399Y11184D02*
D03*
X42764Y11196D02*
D03*
X43157Y11158D02*
D03*
X43642Y11182D02*
D03*
X42403Y11500D02*
D03*
X42764Y11488D02*
D03*
X43642Y11490D02*
D03*
X44657Y8158D02*
D03*
X45657D02*
D03*
X45092Y9007D02*
D03*
X45880Y9001D02*
D03*
X46657Y8158D02*
D03*
X48657D02*
D03*
X47431Y8410D02*
D03*
X46861Y8982D02*
D03*
X48582Y8750D02*
D03*
X47533Y8979D02*
D03*
X45571Y11135D02*
D03*
X46951Y10513D02*
D03*
X46157Y11158D02*
D03*
X44520Y11500D02*
D03*
Y11200D02*
D03*
X44991Y11248D02*
D03*
X47556Y11100D02*
D03*
X47563Y10506D02*
D03*
X48611Y10586D02*
D03*
X42223Y11822D02*
D03*
X43316Y11804D02*
D03*
X45081Y11772D02*
D03*
X45943Y11798D02*
D03*
X42385Y12255D02*
D03*
X44134Y11808D02*
D03*
X42784Y11827D02*
D03*
X41783Y12263D02*
D03*
X42730Y12353D02*
D03*
X43442Y12393D02*
D03*
X44429Y12365D02*
D03*
X46548Y12348D02*
D03*
X45054Y12380D02*
D03*
X45733Y12383D02*
D03*
X46815Y11782D02*
D03*
X47734Y12204D02*
D03*
X47050Y12388D02*
D03*
X49064Y8080D02*
D03*
X49533Y8283D02*
D03*
X49070Y8582D02*
D03*
X50143Y8982D02*
D03*
X49405Y9287D02*
D03*
X50657Y8158D02*
D03*
X50586Y9434D02*
D03*
X50295Y9821D02*
D03*
X50812Y10035D02*
D03*
X49494Y11062D02*
D03*
X49506Y11458D02*
D03*
X51210Y8629D02*
D03*
X51891Y8671D02*
D03*
X51157Y9158D02*
D03*
X51877Y9258D02*
D03*
X51895Y8113D02*
D03*
X53657Y8158D02*
D03*
X52657D02*
D03*
X52236Y8585D02*
D03*
X53157Y9158D02*
D03*
X52260Y9407D02*
D03*
X51216Y10006D02*
D03*
X51893Y9848D02*
D03*
X51895Y10521D02*
D03*
X51907Y11153D02*
D03*
X51878Y11498D02*
D03*
X52244Y10328D02*
D03*
X53657Y10158D02*
D03*
X52657D02*
D03*
X52247Y11045D02*
D03*
X53157Y11158D02*
D03*
X52250Y11837D02*
D03*
X53657Y12158D02*
D03*
X52657D02*
D03*
X51898Y13065D02*
D03*
X52278Y12629D02*
D03*
X52250Y13001D02*
D03*
X53157Y13158D02*
D03*
X26778Y13672D02*
D03*
X27733Y13706D02*
D03*
X26775Y14141D02*
D03*
X27733Y14135D02*
D03*
X26817Y14450D02*
D03*
X29682Y13609D02*
D03*
X29689Y14011D02*
D03*
X27734Y14463D02*
D03*
X28695Y14455D02*
D03*
X27157Y15158D02*
D03*
X28133Y14922D02*
D03*
X27419Y15068D02*
D03*
X29064Y14552D02*
D03*
X29589Y14502D02*
D03*
X29091Y15060D02*
D03*
X29605Y15051D02*
D03*
X30157Y15158D02*
D03*
X30313Y13619D02*
D03*
X30945Y13609D02*
D03*
X31160Y13999D02*
D03*
X31706Y13634D02*
D03*
X31745Y13998D02*
D03*
X32589Y13691D02*
D03*
X34779Y13415D02*
D03*
X33984Y13529D02*
D03*
X32426Y13992D02*
D03*
X33405Y13985D02*
D03*
X34191Y13998D02*
D03*
X30315Y14443D02*
D03*
X30594Y13999D02*
D03*
X31206Y14441D02*
D03*
X30678Y15044D02*
D03*
X31778Y14982D02*
D03*
X32330Y14989D02*
D03*
X33915Y14482D02*
D03*
X34699Y14448D02*
D03*
X34686Y14809D02*
D03*
X33080Y15045D02*
D03*
X33698Y15054D02*
D03*
X34157Y15158D02*
D03*
X26840Y15502D02*
D03*
X27872Y15540D02*
D03*
X28834Y15258D02*
D03*
X31157Y15158D02*
D03*
X31032Y17264D02*
D03*
X26765D02*
D03*
X28472D02*
D03*
X27618D02*
D03*
X27359Y17686D02*
D03*
X28247D02*
D03*
X29012Y17717D02*
D03*
X29095Y17264D02*
D03*
X30179D02*
D03*
X29563Y17268D02*
D03*
X29617Y17693D02*
D03*
X30227Y17710D02*
D03*
X30947Y17738D02*
D03*
X31674Y15345D02*
D03*
X32593Y15434D02*
D03*
X32298Y17255D02*
D03*
X34112Y15496D02*
D03*
X33503Y15503D02*
D03*
X34610Y15514D02*
D03*
X31846Y17264D02*
D03*
X32739D02*
D03*
X32877Y17691D02*
D03*
X31788Y17742D02*
D03*
X32331Y17710D02*
D03*
X32549Y18635D02*
D03*
X33593Y17264D02*
D03*
X34446D02*
D03*
X34542Y17695D02*
D03*
X33622Y18740D02*
D03*
X33687Y17705D02*
D03*
X34243Y18687D02*
D03*
X35049Y13760D02*
D03*
X35964Y13941D02*
D03*
X36915Y13971D02*
D03*
X36971Y14438D02*
D03*
X37234Y13968D02*
D03*
X38247Y13969D02*
D03*
X37899Y13973D02*
D03*
X36001Y14831D02*
D03*
X36014Y14442D02*
D03*
X35157Y15158D02*
D03*
X36527Y15072D02*
D03*
X35988Y15198D02*
D03*
X36558Y14707D02*
D03*
X38057Y14481D02*
D03*
X36988Y14853D02*
D03*
X37446Y15045D02*
D03*
X38755Y14941D02*
D03*
X38446Y15045D02*
D03*
X39234Y14479D02*
D03*
X39942Y14515D02*
D03*
X39157Y15158D02*
D03*
X39786Y14865D02*
D03*
X40717Y15001D02*
D03*
X40929Y14694D02*
D03*
X43569Y14743D02*
D03*
X42443Y14772D02*
D03*
X41157Y15158D02*
D03*
X43555Y15060D02*
D03*
X42157Y15158D02*
D03*
X35160Y15503D02*
D03*
X35300Y17264D02*
D03*
X35993Y15574D02*
D03*
X37002Y15362D02*
D03*
X38049Y15300D02*
D03*
X37006Y17264D02*
D03*
X36011Y17264D02*
D03*
X36507Y17269D02*
D03*
X36680Y17640D02*
D03*
X35265Y17691D02*
D03*
X35909Y17680D02*
D03*
X35954Y18626D02*
D03*
X37315Y17671D02*
D03*
X37870Y17632D02*
D03*
X38288Y17637D02*
D03*
X37079Y18651D02*
D03*
X38072Y18622D02*
D03*
X39073Y15530D02*
D03*
X40077Y15554D02*
D03*
X41095Y15549D02*
D03*
X43049Y15301D02*
D03*
X42208Y15558D02*
D03*
X39378Y17615D02*
D03*
X40211Y17640D02*
D03*
X40975Y17645D02*
D03*
X42118Y17642D02*
D03*
X42967Y17652D02*
D03*
X27805Y18819D02*
D03*
X28819Y18789D02*
D03*
X26772Y18829D02*
D03*
X27746Y19557D02*
D03*
X26949Y19577D02*
D03*
X29872Y18750D02*
D03*
X30157Y19158D02*
D03*
X28829Y19587D02*
D03*
X30571Y19528D02*
D03*
X29744Y19577D02*
D03*
X26841Y20079D02*
D03*
X27815Y20108D02*
D03*
X26722Y20856D02*
D03*
X28829Y20827D02*
D03*
X27795Y20846D02*
D03*
X28829Y20108D02*
D03*
X30657Y20158D02*
D03*
X29657D02*
D03*
X30157Y21158D02*
D03*
X30197Y20197D02*
D03*
X30591Y20807D02*
D03*
X31358Y18750D02*
D03*
X34157Y19158D02*
D03*
X31157D02*
D03*
X32540Y19645D02*
D03*
X33505Y19673D02*
D03*
X34823Y18799D02*
D03*
X35157Y19158D02*
D03*
X35974Y19537D02*
D03*
X34657Y20158D02*
D03*
X35234Y19575D02*
D03*
X35818Y19977D02*
D03*
X31657Y20158D02*
D03*
X33657D02*
D03*
X32657D02*
D03*
X31157Y21158D02*
D03*
X34085Y20778D02*
D03*
X36166Y20292D02*
D03*
X34157Y21158D02*
D03*
X34911Y20856D02*
D03*
X36157Y21158D02*
D03*
X27657Y22158D02*
D03*
X28657D02*
D03*
X26657D02*
D03*
X28157Y23158D02*
D03*
X27157D02*
D03*
X29657Y22158D02*
D03*
X30657D02*
D03*
X31157Y23158D02*
D03*
X29157D02*
D03*
X30157D02*
D03*
X31332Y23852D02*
D03*
X26784D02*
D03*
X29058D02*
D03*
X27921D02*
D03*
X27181Y24693D02*
D03*
X28438D02*
D03*
X27810D02*
D03*
X30195Y23852D02*
D03*
X31578Y24693D02*
D03*
X30950D02*
D03*
X29066D02*
D03*
X30322D02*
D03*
X29694D02*
D03*
X33657Y22158D02*
D03*
X31657D02*
D03*
X32657D02*
D03*
X33157Y23158D02*
D03*
X34657Y22158D02*
D03*
X35157Y21158D02*
D03*
X35657Y22158D02*
D03*
X34157Y23158D02*
D03*
X36157D02*
D03*
X35157D02*
D03*
X32157D02*
D03*
X33606Y23852D02*
D03*
X32469D02*
D03*
X32206Y24693D02*
D03*
X33462D02*
D03*
X32834D02*
D03*
X34743Y23852D02*
D03*
X35879D02*
D03*
X35975Y24693D02*
D03*
X34091D02*
D03*
X35347D02*
D03*
X34719D02*
D03*
X36199Y18989D02*
D03*
X37157Y19158D02*
D03*
X37002Y19299D02*
D03*
X38076Y19274D02*
D03*
X37204Y19633D02*
D03*
X39140Y19289D02*
D03*
X40069Y18799D02*
D03*
X39144Y18819D02*
D03*
X38205Y19656D02*
D03*
X40184Y19636D02*
D03*
X38981Y19654D02*
D03*
X36408Y19788D02*
D03*
X36765Y20070D02*
D03*
X37106Y20256D02*
D03*
X37688Y20074D02*
D03*
X38062Y20312D02*
D03*
X38248Y19986D02*
D03*
X38634Y20008D02*
D03*
X39657Y20158D02*
D03*
X39145Y20301D02*
D03*
X40045Y20312D02*
D03*
X40232Y19163D02*
D03*
X41112Y18799D02*
D03*
X40885Y19702D02*
D03*
X41070Y19266D02*
D03*
X41681Y19713D02*
D03*
X42062Y19263D02*
D03*
X43120Y18789D02*
D03*
X42126Y18839D02*
D03*
X43030Y19280D02*
D03*
X40502Y19952D02*
D03*
X41036Y20027D02*
D03*
X41587Y20032D02*
D03*
X40657Y20158D02*
D03*
X41246Y20220D02*
D03*
X40898Y20317D02*
D03*
X42077Y20098D02*
D03*
X43906Y20058D02*
D03*
X42657Y20158D02*
D03*
X43041Y20108D02*
D03*
X43657Y20158D02*
D03*
X38051Y20797D02*
D03*
X38157Y21158D02*
D03*
X36657Y22158D02*
D03*
X37157Y21158D02*
D03*
X37657Y22158D02*
D03*
X39104Y20807D02*
D03*
X40089Y20787D02*
D03*
X39157Y21158D02*
D03*
X38657Y22158D02*
D03*
X39657D02*
D03*
X40157Y23158D02*
D03*
X37016Y23852D02*
D03*
X37157Y23158D02*
D03*
X38153Y23852D02*
D03*
X36603Y24693D02*
D03*
X37859D02*
D03*
X37231D02*
D03*
X38157Y23158D02*
D03*
X39157D02*
D03*
X39290Y23852D02*
D03*
X38487Y24693D02*
D03*
X39744D02*
D03*
X39115D02*
D03*
X40945Y20797D02*
D03*
X40657Y22158D02*
D03*
X41657D02*
D03*
X42077Y20807D02*
D03*
X44006Y20738D02*
D03*
X43002Y20807D02*
D03*
X42657Y22158D02*
D03*
X43157Y23158D02*
D03*
X40427Y23852D02*
D03*
X41157Y23158D02*
D03*
X41564Y23852D02*
D03*
X40372Y24693D02*
D03*
X41628D02*
D03*
X41000D02*
D03*
X42157Y23158D02*
D03*
X43657Y24158D02*
D03*
X42657D02*
D03*
X42256Y24693D02*
D03*
X43512D02*
D03*
X42884D02*
D03*
X45017Y14732D02*
D03*
X47241Y14722D02*
D03*
X44484Y14751D02*
D03*
X45157Y15158D02*
D03*
X44065Y15313D02*
D03*
X45014Y15308D02*
D03*
X45613Y14742D02*
D03*
X46663Y14735D02*
D03*
X46595Y15274D02*
D03*
X45321Y15564D02*
D03*
X45570Y15297D02*
D03*
X47413Y15745D02*
D03*
X48769Y13997D02*
D03*
X48255Y14724D02*
D03*
X48157Y15158D02*
D03*
X48082Y16132D02*
D03*
X48587Y15725D02*
D03*
X48941Y15842D02*
D03*
X49235Y16023D02*
D03*
X46649Y16568D02*
D03*
X46746Y16209D02*
D03*
X44132Y17666D02*
D03*
X45081Y17633D02*
D03*
X44051Y18630D02*
D03*
X45468Y18628D02*
D03*
X45018Y18643D02*
D03*
X45926Y18616D02*
D03*
X46765Y18658D02*
D03*
X48121Y16544D02*
D03*
X48478Y16158D02*
D03*
X48844Y16305D02*
D03*
X49545Y16457D02*
D03*
X48993Y16932D02*
D03*
X47276Y18637D02*
D03*
X49412Y17691D02*
D03*
X48235Y18619D02*
D03*
X49058Y18612D02*
D03*
X49583Y18641D02*
D03*
X49683Y13337D02*
D03*
X50445Y14034D02*
D03*
X51938Y13573D02*
D03*
X52338Y13811D02*
D03*
X52161Y14180D02*
D03*
X53036Y13730D02*
D03*
X52657Y14158D02*
D03*
X53851Y13901D02*
D03*
X53657Y14158D02*
D03*
X49850Y16875D02*
D03*
X49880Y16136D02*
D03*
X51157Y15158D02*
D03*
X51174Y14354D02*
D03*
X51368Y14632D02*
D03*
X51227Y15780D02*
D03*
X50688Y17559D02*
D03*
X50059Y18200D02*
D03*
X50447Y17956D02*
D03*
X50657Y18158D02*
D03*
X51074Y17381D02*
D03*
X51293Y16970D02*
D03*
X51157Y17158D02*
D03*
X51141Y18032D02*
D03*
X51361Y17683D02*
D03*
X51370Y18366D02*
D03*
X52157Y15158D02*
D03*
X51390Y15341D02*
D03*
X52657Y16158D02*
D03*
X51401Y16179D02*
D03*
X53150Y14459D02*
D03*
X53898Y14630D02*
D03*
X53157Y15158D02*
D03*
X53129Y15698D02*
D03*
X53900Y15623D02*
D03*
X53657Y16158D02*
D03*
X51392Y16635D02*
D03*
X52044Y16182D02*
D03*
X52157Y17158D02*
D03*
X51912Y18170D02*
D03*
X52655Y17394D02*
D03*
X51952Y17634D02*
D03*
X53157Y17158D02*
D03*
X53903Y16448D02*
D03*
X53889Y17368D02*
D03*
X52657Y18158D02*
D03*
X53657D02*
D03*
X53209Y18179D02*
D03*
X45157Y19158D02*
D03*
X44157D02*
D03*
X46696Y19279D02*
D03*
X46633Y19894D02*
D03*
X45187Y20276D02*
D03*
X44181Y20306D02*
D03*
X45069Y20896D02*
D03*
X45797Y20915D02*
D03*
X45827Y20226D02*
D03*
X46821Y20059D02*
D03*
X46734Y20312D02*
D03*
X46770Y20702D02*
D03*
X47335Y20316D02*
D03*
X47037Y20876D02*
D03*
X47980Y18745D02*
D03*
X47551Y19166D02*
D03*
X47944Y19280D02*
D03*
X48578Y18677D02*
D03*
X48432Y19243D02*
D03*
X49072Y19260D02*
D03*
X47380Y19882D02*
D03*
X48361Y19886D02*
D03*
X47654Y20008D02*
D03*
X47629Y20705D02*
D03*
X47919Y20364D02*
D03*
X48343Y20835D02*
D03*
X48839Y19705D02*
D03*
X49355Y19771D02*
D03*
X49569Y20188D02*
D03*
X48518Y20194D02*
D03*
X48970Y20200D02*
D03*
X49101Y20662D02*
D03*
X45541Y21407D02*
D03*
X45935Y21405D02*
D03*
X45492Y21860D02*
D03*
X44657Y22158D02*
D03*
X46285Y21352D02*
D03*
X46588Y21654D02*
D03*
X47095Y21671D02*
D03*
X45977Y22609D02*
D03*
X46048Y22103D02*
D03*
X44657Y24158D02*
D03*
X45482Y23061D02*
D03*
X45657Y24158D02*
D03*
X44140Y24693D02*
D03*
X45396D02*
D03*
X44768D02*
D03*
X46157Y23158D02*
D03*
X46765Y22974D02*
D03*
X46025Y24693D02*
D03*
X46592Y23319D02*
D03*
X46653Y24693D02*
D03*
X47157Y21158D02*
D03*
X47528Y21169D02*
D03*
X47690Y21631D02*
D03*
X48173Y21157D02*
D03*
X48623Y21132D02*
D03*
X49220Y21345D02*
D03*
X48198Y21564D02*
D03*
X47135Y23251D02*
D03*
X47910Y22951D02*
D03*
X47505Y22990D02*
D03*
X47281Y24693D02*
D03*
X47574Y23297D02*
D03*
X47909Y24693D02*
D03*
X48157Y23158D02*
D03*
X48620Y22975D02*
D03*
X49157Y23158D02*
D03*
X48537Y24693D02*
D03*
X48600Y23293D02*
D03*
X49165Y24693D02*
D03*
X50055Y18715D02*
D03*
X50551Y18681D02*
D03*
X49828Y19245D02*
D03*
X50238Y19513D02*
D03*
X49854Y19858D02*
D03*
X51014Y18756D02*
D03*
X51761Y18751D02*
D03*
X51391Y19114D02*
D03*
X50582Y19144D02*
D03*
X52157Y19158D02*
D03*
X50875Y19624D02*
D03*
X50355Y20166D02*
D03*
X50657Y20158D02*
D03*
X49621Y20915D02*
D03*
X50111Y20400D02*
D03*
X50157Y21158D02*
D03*
X50927Y20745D02*
D03*
X52171Y19903D02*
D03*
X51657Y20158D02*
D03*
X50661Y20979D02*
D03*
X52157Y21158D02*
D03*
X51157D02*
D03*
X53157Y19158D02*
D03*
X53873Y19033D02*
D03*
X52564Y19523D02*
D03*
X53342Y19674D02*
D03*
X53059Y20038D02*
D03*
X53902Y19810D02*
D03*
X55994Y19911D02*
D03*
X56790Y19913D02*
D03*
X53882Y20193D02*
D03*
X56082Y20162D02*
D03*
X54898Y20209D02*
D03*
X52713Y20444D02*
D03*
X53465Y20474D02*
D03*
X54360Y20520D02*
D03*
X53157Y21158D02*
D03*
X53849Y20874D02*
D03*
X53741Y21339D02*
D03*
X55023Y20822D02*
D03*
X55676Y20540D02*
D03*
X56050Y20544D02*
D03*
X54599Y20861D02*
D03*
X56762Y20886D02*
D03*
X54767Y21341D02*
D03*
X49951Y21614D02*
D03*
X49629Y23020D02*
D03*
X50306Y23015D02*
D03*
X50645Y21706D02*
D03*
X51091Y21671D02*
D03*
X51657Y22158D02*
D03*
X52657D02*
D03*
X52157Y23158D02*
D03*
X49596Y23311D02*
D03*
X50603Y23271D02*
D03*
X50048Y23287D02*
D03*
X49793Y24693D02*
D03*
X51049D02*
D03*
X50421D02*
D03*
X51157Y23158D02*
D03*
X52657Y24158D02*
D03*
X51657D02*
D03*
X51678Y24693D02*
D03*
X52934D02*
D03*
X52306D02*
D03*
X55059Y21527D02*
D03*
X54657Y22158D02*
D03*
X55030Y21978D02*
D03*
X56667Y21532D02*
D03*
X56657Y22158D02*
D03*
X53157Y23158D02*
D03*
X53657Y22158D02*
D03*
X54157Y23158D02*
D03*
X53562Y24693D02*
D03*
X53657Y24158D02*
D03*
X54190Y24693D02*
D03*
X54657Y24158D02*
D03*
X56157Y23158D02*
D03*
X56657Y24158D02*
D03*
X54818Y24693D02*
D03*
X56702D02*
D03*
X56074D02*
D03*
X4204Y15500D02*
D03*
X51148Y11453D02*
D03*
X51875Y12700D02*
D03*
X50813Y11489D02*
D03*
X51224Y10789D02*
D03*
X50567Y10476D02*
D03*
X50788Y10846D02*
D03*
X2947Y9206D02*
D03*
Y9797D02*
D03*
X2947Y15401D02*
D03*
X2948Y15599D02*
D03*
X5276Y15158D02*
D03*
X3425Y16429D02*
D03*
X3357Y15500D02*
D03*
X3888Y14351D02*
D03*
X2570Y15992D02*
D03*
X3831Y9860D02*
D03*
X3357Y9502D02*
D03*
X9725Y8817D02*
D03*
X50462Y12186D02*
D03*
X15064Y17841D02*
D03*
X5899Y11572D02*
D03*
X9548Y11271D02*
D03*
X7777Y20301D02*
D03*
X50230Y19116D02*
D03*
X50806Y13931D02*
D03*
X46841Y23318D02*
D03*
X51865Y13769D02*
D03*
X29331Y15534D02*
D03*
X44457Y15549D02*
D03*
X37752Y9846D02*
D03*
X36264Y18767D02*
D03*
X37295Y11388D02*
D03*
X36575Y20787D02*
D03*
X37318Y11686D02*
D03*
X37559Y18780D02*
D03*
X36816Y11970D02*
D03*
X38803Y19832D02*
D03*
X41059Y12260D02*
D03*
X41450Y11441D02*
D03*
X38573Y18768D02*
D03*
X38583Y20827D02*
D03*
X41475Y11849D02*
D03*
X40573Y20768D02*
D03*
X46772Y21181D02*
D03*
X50341Y23318D02*
D03*
X20323Y4000D02*
D03*
X13217Y6672D02*
D03*
X13196Y4648D02*
D03*
X24321Y20817D02*
D03*
X14191Y5189D02*
D03*
X51715Y14061D02*
D03*
X25315Y18937D02*
D03*
X11968Y1928D02*
D03*
X16823Y4724D02*
D03*
X29323Y11391D02*
D03*
Y7020D02*
D03*
X414Y18170D02*
D03*
X48294Y15393D02*
D03*
X48103Y13543D02*
D03*
X9295Y6564D02*
D03*
X12137Y5336D02*
D03*
X12040Y7707D02*
D03*
X9778Y7038D02*
D03*
X7584Y12862D02*
D03*
X7742Y12710D02*
D03*
X7899Y12559D02*
D03*
X8062Y12396D02*
D03*
X6231Y2274D02*
D03*
X8726Y11160D02*
D03*
X8458Y19865D02*
D03*
X7007Y12152D02*
D03*
X7111Y11267D02*
D03*
X9928Y21807D02*
D03*
X8426Y17437D02*
D03*
X6169Y16870D02*
D03*
X38008Y9002D02*
D03*
X13487Y9826D02*
D03*
Y10198D02*
D03*
X12823Y7211D02*
D03*
X12975Y5336D02*
D03*
X12824Y9187D02*
D03*
X13333Y7624D02*
D03*
X13653Y6093D02*
D03*
X13336Y5609D02*
D03*
X14896Y18512D02*
D03*
X12908Y20523D02*
D03*
X12420Y17446D02*
D03*
X14203Y18713D02*
D03*
X11974Y18296D02*
D03*
X6490Y17612D02*
D03*
X12310Y9466D02*
D03*
X11807D02*
D03*
X12310Y7496D02*
D03*
X11806Y7497D02*
D03*
X12310Y5472D02*
D03*
X11806Y5474D02*
D03*
X14260Y8491D02*
D03*
Y6514D02*
D03*
X14191Y7213D02*
D03*
X14260Y4490D02*
D03*
X13649Y4037D02*
D03*
X26824Y8595D02*
D03*
X4953Y17545D02*
D03*
X2569Y9994D02*
D03*
X4953Y17282D02*
D03*
X2559Y8977D02*
D03*
X20323Y18768D02*
D03*
X29323Y20768D02*
D03*
X35573Y18768D02*
D03*
Y13768D02*
D03*
X20323Y8768D02*
D03*
Y13768D02*
D03*
X44455Y20768D02*
D03*
X14291Y20728D02*
D03*
X10315Y17598D02*
D03*
Y17283D02*
D03*
X10551D02*
D03*
Y17598D02*
D03*
X12510Y23492D02*
D03*
X6417Y21693D02*
D03*
X5231Y2274D02*
D03*
X5731D02*
D03*
X7205Y2087D02*
D03*
X2757Y20451D02*
D03*
Y20196D02*
D03*
X4134Y11743D02*
D03*
X9279Y7754D02*
D03*
X55768Y20337D02*
D03*
X55965D02*
D03*
X13504Y23790D02*
D03*
X47519Y2076D02*
D03*
X48094Y6198D02*
D03*
X47902Y5916D02*
D03*
X51559Y2117D02*
D03*
X51550Y14228D02*
D03*
X46341Y23318D02*
D03*
X28323Y11427D02*
D03*
X44764Y11496D02*
D03*
X39572Y14688D02*
D03*
X40573Y14826D02*
D03*
X41815Y14967D02*
D03*
X41573Y15108D02*
D03*
X25004Y12808D02*
D03*
X41094Y13936D02*
D03*
X48018Y19052D02*
D03*
X27323Y13108D02*
D03*
X28323Y15108D02*
D03*
Y13108D02*
D03*
X50841Y23318D02*
D03*
X49841D02*
D03*
X49341D02*
D03*
X48841D02*
D03*
X48341D02*
D03*
X47341D02*
D03*
X48759Y12186D02*
D03*
X49027Y11978D02*
D03*
X4871Y7746D02*
D03*
X6775Y6206D02*
D03*
X48009Y17594D02*
D03*
X45525Y19052D02*
D03*
X8986Y6703D02*
D03*
X9502Y7006D02*
D03*
X6460Y6181D02*
D03*
X5876Y7195D02*
D03*
X7579Y5916D02*
D03*
X9385Y9766D02*
D03*
X8346Y433D02*
D03*
X6929Y5919D02*
D03*
X5427Y8836D02*
D03*
X13504Y23217D02*
D03*
X9360Y9085D02*
D03*
X6210Y5919D02*
D03*
X6950Y9255D02*
D03*
X5251Y7195D02*
D03*
X8401Y5919D02*
D03*
X7677Y10374D02*
D03*
X7453Y23497D02*
D03*
X45547Y17594D02*
D03*
X3701Y20354D02*
D03*
X10945Y827D02*
D03*
X4921Y18228D02*
D03*
X10980Y21620D02*
D03*
X47750Y19458D02*
D03*
X1575Y20473D02*
D03*
X32073Y18768D02*
D03*
Y13768D02*
D03*
X16823Y8768D02*
D03*
Y13768D02*
D03*
Y18768D02*
D03*
X8189Y17697D02*
D03*
X6496Y16024D02*
D03*
X9685Y20472D02*
D03*
X2449Y20024D02*
D03*
Y18871D02*
D03*
X1051Y20024D02*
D03*
X1053Y18871D02*
D03*
X2323Y22795D02*
D03*
X1378D02*
D03*
X1417Y21850D02*
D03*
X1378Y23780D02*
D03*
X8691Y21385D02*
D03*
X10472Y19213D02*
D03*
X10669D02*
D03*
X9055Y22835D02*
D03*
X13091Y19291D02*
D03*
X9234Y18880D02*
D03*
X9063Y18883D02*
D03*
X8901Y18884D02*
D03*
X8729Y18888D02*
D03*
X55055Y21176D02*
D03*
X56681Y21183D02*
D03*
X39573Y18768D02*
D03*
X47756Y20512D02*
D03*
X39573Y20768D02*
D03*
X46220Y21575D02*
D03*
X46609Y21398D02*
D03*
X48740Y20040D02*
D03*
X9921Y7402D02*
D03*
X5939Y19636D02*
D03*
X10433Y1693D02*
D03*
X5669Y4331D02*
D03*
X11025Y3813D02*
D03*
X10394Y354D02*
D03*
X8110Y1575D02*
D03*
X5276Y6063D02*
D03*
X5079Y5788D02*
D03*
X6181Y19636D02*
D03*
X5231Y738D02*
D03*
X9409Y2126D02*
D03*
X56063Y22362D02*
D03*
X55669D02*
D03*
X5731Y738D02*
D03*
X1969Y18819D02*
D03*
Y19095D02*
D03*
X1693Y18819D02*
D03*
Y19095D02*
D03*
X5935Y19390D02*
D03*
X5118Y21260D02*
D03*
X8661Y9439D02*
D03*
X5984Y8662D02*
D03*
X2457Y18226D02*
D03*
X1051Y18226D02*
D03*
X6181Y19390D02*
D03*
X7077Y20719D02*
D03*
X7333D02*
D03*
X6437Y9518D02*
D03*
D181*
X2526Y14362D02*
D03*
Y16638D02*
D03*
Y8364D02*
D03*
Y10639D02*
D03*
D182*
X15472Y17573D02*
D03*
D03*
X15582Y17788D02*
D03*
D03*
X21323Y14000D02*
D03*
X51699Y7175D02*
D03*
X36573Y16000D02*
D03*
X23004Y16128D02*
D03*
X22323Y16000D02*
D03*
Y4000D02*
D03*
Y6000D02*
D03*
X23616Y3683D02*
D03*
X23323Y4000D02*
D03*
X24229Y6409D02*
D03*
X24650Y3829D02*
D03*
X25323Y4000D02*
D03*
Y6000D02*
D03*
X27939Y6145D02*
D03*
X38652Y4597D02*
D03*
X38497Y5195D02*
D03*
X36634Y5394D02*
D03*
X37608Y5602D02*
D03*
X36496Y4392D02*
D03*
X37477Y4220D02*
D03*
X39573Y5800D02*
D03*
X37295Y3633D02*
D03*
X37150Y6393D02*
D03*
X37022Y3830D02*
D03*
X41731Y6214D02*
D03*
X41488Y4001D02*
D03*
X41609Y6001D02*
D03*
X39573Y14427D02*
D03*
X23323Y15714D02*
D03*
X24323Y16000D02*
D03*
X24445Y12383D02*
D03*
X24323Y14000D02*
D03*
X23972Y16261D02*
D03*
X37573Y16000D02*
D03*
Y17645D02*
D03*
Y14000D02*
D03*
X37234Y17204D02*
D03*
X23323Y18126D02*
D03*
X22592Y17883D02*
D03*
X36573Y14427D02*
D03*
X23323Y14000D02*
D03*
X27323Y16000D02*
D03*
X27940Y10154D02*
D03*
X22323Y14000D02*
D03*
X21985Y18466D02*
D03*
X38573Y14000D02*
D03*
X38262Y17325D02*
D03*
X38573Y16000D02*
D03*
X39002Y14017D02*
D03*
X46460Y13325D02*
D03*
X49307Y15201D02*
D03*
D03*
X49504D02*
D03*
D03*
X50562Y14708D02*
D03*
X51550Y7017D02*
D03*
X52082Y6929D02*
D03*
X52082Y13912D02*
D03*
X12823Y7852D02*
D03*
D03*
X14993Y9439D02*
D03*
D03*
X15266Y10394D02*
D03*
D03*
X15259Y10888D02*
D03*
D03*
X15404Y11025D02*
D03*
D03*
X12823Y5836D02*
D03*
D03*
X15873Y17283D02*
D03*
D03*
X15728Y18001D02*
D03*
D03*
X47776Y12875D02*
D03*
X48094Y13121D02*
D03*
X47916Y13228D02*
D03*
X47096Y13449D02*
D03*
X46249Y13132D02*
D03*
X46100Y12891D02*
D03*
X45928Y12573D02*
D03*
X46921Y12754D02*
D03*
X47901Y11899D02*
D03*
X49054Y11485D02*
D03*
X48887Y9902D02*
D03*
X48322Y9897D02*
D03*
X48322Y11150D02*
D03*
X41505Y12457D02*
D03*
X45785Y13595D02*
D03*
X47551Y13839D02*
D03*
M02*
