G04*
G04 #@! TF.GenerationSoftware,Altium Limited,Altium Designer,26.3.0 (6)*
G04*
G04 Layer_Color=8421504*
%FSLAX24Y24*%
%MOIN*%
G70*
G04*
G04 #@! TF.SameCoordinates,16BEF44E-F0A4-4101-97DD-AF4FD7D9166A*
G04*
G04*
G04 #@! TF.FilePolarity,Positive*
G04*
G01*
G75*
G04:AMPARAMS|DCode=20|XSize=43.3mil|YSize=39.4mil|CornerRadius=3mil|HoleSize=0mil|Usage=FLASHONLY|Rotation=180.000|XOffset=0mil|YOffset=0mil|HoleType=Round|Shape=RoundedRectangle|*
%AMROUNDEDRECTD20*
21,1,0.0433,0.0335,0,0,180.0*
21,1,0.0374,0.0394,0,0,180.0*
1,1,0.0059,-0.0187,0.0167*
1,1,0.0059,0.0187,0.0167*
1,1,0.0059,0.0187,-0.0167*
1,1,0.0059,-0.0187,-0.0167*
%
%ADD20ROUNDEDRECTD20*%
%ADD21O,0.0669X0.0354*%
%ADD22O,0.0787X0.0354*%
%ADD23R,0.0366X0.0445*%
%ADD24R,0.0118X0.0106*%
%ADD25R,0.0106X0.0118*%
%ADD26R,0.1083X0.0551*%
%ADD27R,0.0299X0.0945*%
%ADD28R,0.0157X0.0098*%
%ADD29R,0.0449X0.0236*%
%ADD30R,0.0315X0.0295*%
%ADD31C,0.0098*%
%ADD32R,0.0236X0.0197*%
%ADD33R,0.0197X0.0236*%
%ADD34R,0.0295X0.0315*%
%ADD35R,0.0335X0.0374*%
G04:AMPARAMS|DCode=36|XSize=9.8mil|YSize=28.3mil|CornerRadius=2.5mil|HoleSize=0mil|Usage=FLASHONLY|Rotation=90.000|XOffset=0mil|YOffset=0mil|HoleType=Round|Shape=RoundedRectangle|*
%AMROUNDEDRECTD36*
21,1,0.0098,0.0234,0,0,90.0*
21,1,0.0049,0.0283,0,0,90.0*
1,1,0.0049,0.0117,0.0025*
1,1,0.0049,0.0117,-0.0025*
1,1,0.0049,-0.0117,-0.0025*
1,1,0.0049,-0.0117,0.0025*
%
%ADD36ROUNDEDRECTD36*%
%ADD37R,0.0728X0.1358*%
G04:AMPARAMS|DCode=38|XSize=9.8mil|YSize=28.3mil|CornerRadius=2.5mil|HoleSize=0mil|Usage=FLASHONLY|Rotation=0.000|XOffset=0mil|YOffset=0mil|HoleType=Round|Shape=RoundedRectangle|*
%AMROUNDEDRECTD38*
21,1,0.0098,0.0234,0,0,0.0*
21,1,0.0049,0.0283,0,0,0.0*
1,1,0.0049,0.0025,-0.0117*
1,1,0.0049,-0.0025,-0.0117*
1,1,0.0049,-0.0025,0.0117*
1,1,0.0049,0.0025,0.0117*
%
%ADD38ROUNDEDRECTD38*%
%ADD39R,0.0071X0.0201*%
%ADD40R,0.0400X0.1130*%
%ADD41O,0.0335X0.0118*%
%ADD42R,0.0167X0.0197*%
%ADD43R,0.0197X0.0167*%
%ADD44R,0.1378X0.1378*%
%ADD45R,0.0402X0.0862*%
%ADD46R,0.0394X0.0236*%
%ADD47R,0.0236X0.0217*%
%ADD48R,0.0201X0.0071*%
%ADD49R,0.0453X0.0177*%
%ADD50C,0.0079*%
%ADD51R,0.0315X0.0295*%
%ADD52R,0.0276X0.0079*%
%ADD53R,0.0118X0.0118*%
%ADD54R,0.0449X0.0118*%
%ADD55R,0.0300X0.0320*%
%ADD56R,0.0335X0.0315*%
%ADD57R,0.0157X0.0276*%
%ADD58R,0.0240X0.0071*%
%ADD59R,0.0433X0.0630*%
%ADD60R,0.0197X0.0157*%
%ADD61R,0.0280X0.0362*%
%ADD62R,0.0165X0.0177*%
%ADD63C,0.0167*%
%ADD64R,0.0445X0.0717*%
%ADD65O,0.0118X0.0335*%
%ADD66R,0.0228X0.0197*%
%ADD67R,0.0217X0.0236*%
%ADD68R,0.0118X0.0315*%
%ADD69R,0.0236X0.1024*%
%ADD70R,0.0197X0.0197*%
%ADD71R,0.0630X0.0394*%
%ADD72R,0.0295X0.0551*%
%ADD73R,0.0717X0.0445*%
G36*
X1693Y21678D02*
X1629Y21614D01*
X1063Y21614D01*
Y22008D01*
X1693D01*
X1693Y21678D01*
D02*
G37*
G36*
X2638Y21614D02*
X2072Y21614D01*
X2008Y21678D01*
X2008Y22008D01*
X2638D01*
Y21614D01*
D02*
G37*
G36*
X1629Y23977D02*
X1693Y23913D01*
X1693Y23583D01*
X1063D01*
Y23977D01*
X1629Y23977D01*
D02*
G37*
G36*
X2638Y23583D02*
X2008D01*
X2008Y23913D01*
X2072Y23977D01*
X2638Y23977D01*
Y23583D01*
D02*
G37*
D20*
X8346Y8455D02*
D03*
X7835D02*
D03*
X7323D02*
D03*
X6811D02*
D03*
X8346Y7982D02*
D03*
X7835D02*
D03*
X7323D02*
D03*
X6811D02*
D03*
X8346Y7510D02*
D03*
X7835D02*
D03*
X7323D02*
D03*
X6811D02*
D03*
Y7038D02*
D03*
X7323D02*
D03*
X7835D02*
D03*
X8346D02*
D03*
D21*
X1069Y17201D02*
D03*
Y13799D02*
D03*
Y11202D02*
D03*
Y7801D02*
D03*
D22*
X2715Y13799D02*
D03*
Y17201D02*
D03*
Y7801D02*
D03*
Y11202D02*
D03*
D23*
X39816Y11086D02*
D03*
Y11609D02*
D03*
Y12133D02*
D03*
X39371Y11086D02*
D03*
Y11609D02*
D03*
Y12133D02*
D03*
X38927Y11086D02*
D03*
Y11609D02*
D03*
Y12133D02*
D03*
D24*
X51701Y13489D02*
D03*
Y13264D02*
D03*
X6614Y5191D02*
D03*
X6043Y5715D02*
D03*
X6890Y5112D02*
D03*
X7105Y5715D02*
D03*
X8209D02*
D03*
X5650Y9079D02*
D03*
X6813Y12377D02*
D03*
X9331Y8677D02*
D03*
X9547Y8902D02*
D03*
X7159Y12377D02*
D03*
X7265Y11043D02*
D03*
X13492Y5834D02*
D03*
Y7852D02*
D03*
X1307Y18434D02*
D03*
X795Y18434D02*
D03*
X2193Y18434D02*
D03*
X6457Y20664D02*
D03*
X7589Y20526D02*
D03*
X6772Y20664D02*
D03*
X12860Y17514D02*
D03*
X14755Y17814D02*
D03*
X13527Y18550D02*
D03*
X41505Y12682D02*
D03*
X49027Y11645D02*
D03*
X51069Y12951D02*
D03*
X48297Y13794D02*
D03*
X49321Y15014D02*
D03*
X49557Y15014D02*
D03*
X45709Y17368D02*
D03*
X48189D02*
D03*
X51058Y13489D02*
D03*
X52354Y13562D02*
D03*
X53848Y13690D02*
D03*
X45709Y18825D02*
D03*
X48189D02*
D03*
X50850Y12727D02*
D03*
Y12951D02*
D03*
X51069Y12727D02*
D03*
X50644Y12727D02*
D03*
Y12951D02*
D03*
X52354Y13337D02*
D03*
X13527Y18774D02*
D03*
X7704Y11044D02*
D03*
Y11268D02*
D03*
X50850Y12513D02*
D03*
Y12289D02*
D03*
X13699Y5834D02*
D03*
Y5609D02*
D03*
X13492Y5609D02*
D03*
Y7628D02*
D03*
X7159Y12152D02*
D03*
X7265Y11268D02*
D03*
X5650Y8854D02*
D03*
X1053Y18434D02*
D03*
Y18658D02*
D03*
X795Y18658D02*
D03*
X7589Y20301D02*
D03*
X6813Y12152D02*
D03*
X6929Y11492D02*
D03*
Y11267D02*
D03*
X7924Y11269D02*
D03*
Y11045D02*
D03*
X12975Y9188D02*
D03*
Y8964D02*
D03*
X14755Y18038D02*
D03*
X12860Y17290D02*
D03*
X8145Y11045D02*
D03*
Y11269D02*
D03*
X6614Y4967D02*
D03*
X6890Y4888D02*
D03*
X12975Y5187D02*
D03*
Y4963D02*
D03*
X13699Y7852D02*
D03*
Y7628D02*
D03*
X12975Y7211D02*
D03*
Y6987D02*
D03*
X41505Y12457D02*
D03*
X7483Y11268D02*
D03*
X53848Y13465D02*
D03*
X51058Y13264D02*
D03*
X7483Y11043D02*
D03*
X49557Y14790D02*
D03*
X49027Y11870D02*
D03*
X49321Y14790D02*
D03*
X49247Y11870D02*
D03*
Y11645D02*
D03*
X48297Y13569D02*
D03*
X6457Y20439D02*
D03*
X6772D02*
D03*
X48189Y17593D02*
D03*
X45709Y19049D02*
D03*
X48189D02*
D03*
X45709Y17593D02*
D03*
X8209Y5939D02*
D03*
X1307Y18658D02*
D03*
X2193Y18658D02*
D03*
X6043Y5939D02*
D03*
X7105D02*
D03*
X9547Y8677D02*
D03*
X9331Y8902D02*
D03*
X2459Y18434D02*
D03*
Y18658D02*
D03*
D25*
X52133Y13265D02*
D03*
X51909D02*
D03*
X51492Y13268D02*
D03*
X5027Y7423D02*
D03*
X9505Y7900D02*
D03*
X4104Y10008D02*
D03*
Y10207D02*
D03*
X4443Y11575D02*
D03*
X5276Y10752D02*
D03*
X8407Y9439D02*
D03*
X9502Y8140D02*
D03*
X9543Y9485D02*
D03*
X11582Y5321D02*
D03*
X12535Y5319D02*
D03*
X11582Y7344D02*
D03*
X12535Y7343D02*
D03*
X11582Y9313D02*
D03*
X12535D02*
D03*
X13268Y9605D02*
D03*
X4108Y14555D02*
D03*
Y14784D02*
D03*
X4522Y16969D02*
D03*
Y16740D02*
D03*
X4335Y17431D02*
D03*
X4435Y18238D02*
D03*
X5301Y18858D02*
D03*
X9763Y18719D02*
D03*
X10188D02*
D03*
X10190Y19032D02*
D03*
X9763Y19034D02*
D03*
X36962Y10735D02*
D03*
X38505Y10380D02*
D03*
X48725Y12368D02*
D03*
X49295Y12328D02*
D03*
X50861Y13731D02*
D03*
X4297Y16969D02*
D03*
Y16740D02*
D03*
X3884Y14555D02*
D03*
Y14784D02*
D03*
X11263Y8291D02*
D03*
X11487D02*
D03*
X50637Y13731D02*
D03*
X13082Y18550D02*
D03*
X13307D02*
D03*
X13307Y18777D02*
D03*
X13082D02*
D03*
X10800Y4193D02*
D03*
X38281Y10380D02*
D03*
X37186Y10735D02*
D03*
X37394Y10733D02*
D03*
X37619D02*
D03*
X12420Y17290D02*
D03*
X12645D02*
D03*
X12310Y5319D02*
D03*
X11806Y5321D02*
D03*
X12310Y7343D02*
D03*
X11806Y7344D02*
D03*
X13492Y9605D02*
D03*
X12310Y9313D02*
D03*
X11807D02*
D03*
X10413Y18719D02*
D03*
X11487Y8949D02*
D03*
X11263D02*
D03*
X11487Y8730D02*
D03*
X11263D02*
D03*
X11487Y8511D02*
D03*
X11263D02*
D03*
X50625Y13268D02*
D03*
X50849D02*
D03*
X51268Y13268D02*
D03*
X6093Y5252D02*
D03*
X6317D02*
D03*
X49519Y12328D02*
D03*
X48949Y12368D02*
D03*
X9538Y19034D02*
D03*
X9278Y7195D02*
D03*
X9502D02*
D03*
X5501Y10752D02*
D03*
X9538Y18719D02*
D03*
X4659Y18238D02*
D03*
X5526Y18858D02*
D03*
X4110Y17431D02*
D03*
X5251Y7423D02*
D03*
X9281Y7900D02*
D03*
X4219Y11575D02*
D03*
X3879Y10207D02*
D03*
Y10008D02*
D03*
X10414Y19032D02*
D03*
X9318Y9485D02*
D03*
X8183Y9439D02*
D03*
X9278Y8140D02*
D03*
X50230Y18937D02*
D03*
X50006D02*
D03*
X47750D02*
D03*
X47526D02*
D03*
Y17480D02*
D03*
X47750D02*
D03*
X50006D02*
D03*
X50230D02*
D03*
X11025Y4193D02*
D03*
D26*
X1071Y3794D02*
D03*
X3729D02*
D03*
X44861Y3288D02*
D03*
X47519D02*
D03*
X44861Y7028D02*
D03*
X47519D02*
D03*
X48901Y3288D02*
D03*
X51559D02*
D03*
X48901Y7028D02*
D03*
X51559D02*
D03*
X3729Y5369D02*
D03*
X1071D02*
D03*
X44861Y5453D02*
D03*
X47519D02*
D03*
X48901D02*
D03*
X51559D02*
D03*
X44861Y1713D02*
D03*
X47519D02*
D03*
X48901D02*
D03*
X51559D02*
D03*
D27*
X6231Y738D02*
D03*
X46841Y22353D02*
D03*
D03*
X47341D02*
D03*
D03*
X48341D02*
D03*
D03*
X50341D02*
D03*
X49841D02*
D03*
X50841D02*
D03*
X46841Y23888D02*
D03*
D03*
X50341D02*
D03*
X7231Y738D02*
D03*
X6731D02*
D03*
X5731D02*
D03*
X5231D02*
D03*
X7231Y2274D02*
D03*
X6731D02*
D03*
X6231D02*
D03*
X5731D02*
D03*
X5231D02*
D03*
X46341Y22353D02*
D03*
D03*
X47841D02*
D03*
X48341Y23888D02*
D03*
X47841D02*
D03*
X47341D02*
D03*
X46341D02*
D03*
X48841D02*
D03*
X49341D02*
D03*
X49841D02*
D03*
X50841D02*
D03*
X48841Y22353D02*
D03*
X49341D02*
D03*
X46341Y23888D02*
D03*
X47341D02*
D03*
X47841D02*
D03*
X48341D02*
D03*
X47841Y22353D02*
D03*
D28*
X9221Y4104D02*
D03*
X6815Y11792D02*
D03*
X45965Y17392D02*
D03*
X48445D02*
D03*
X45965Y18849D02*
D03*
X48445D02*
D03*
X6815Y11969D02*
D03*
X9221Y4282D02*
D03*
X45965Y19026D02*
D03*
X48445D02*
D03*
X45965Y17569D02*
D03*
X48445D02*
D03*
D29*
X2947Y8242D02*
D03*
Y10761D02*
D03*
Y14240D02*
D03*
Y16760D02*
D03*
Y16445D02*
D03*
Y14555D02*
D03*
Y8557D02*
D03*
Y10447D02*
D03*
D30*
X5138Y8314D02*
D03*
X5945Y10423D02*
D03*
X6378Y10423D02*
D03*
X7264Y16566D02*
D03*
X6781D02*
D03*
X8199D02*
D03*
X7726D02*
D03*
X9184Y18109D02*
D03*
X3287Y19813D02*
D03*
X9184Y20191D02*
D03*
X9184Y19645D02*
D03*
X3793Y16849D02*
D03*
X7264Y17097D02*
D03*
X8199D02*
D03*
X49837Y11722D02*
D03*
Y12253D02*
D03*
X3853Y10853D02*
D03*
Y11384D02*
D03*
X3793Y17381D02*
D03*
X7726Y17097D02*
D03*
X6781D02*
D03*
X3287Y20345D02*
D03*
X5138Y7783D02*
D03*
X6378Y9892D02*
D03*
X5945Y9892D02*
D03*
X9184Y18641D02*
D03*
Y19113D02*
D03*
X9184Y20722D02*
D03*
D31*
X6398Y8376D02*
D03*
X6240Y8455D02*
D03*
X7185Y8849D02*
D03*
X8287D02*
D03*
X8209Y9006D02*
D03*
X8760Y8297D02*
D03*
X6555Y8849D02*
D03*
X6398D02*
D03*
X8524Y6486D02*
D03*
X8760Y6723D02*
D03*
Y6880D02*
D03*
Y7038D02*
D03*
X8445Y8849D02*
D03*
X8130D02*
D03*
X6634Y9006D02*
D03*
X7264D02*
D03*
X7421D02*
D03*
X7579D02*
D03*
X7736D02*
D03*
X7894D02*
D03*
X8051D02*
D03*
X6713Y8849D02*
D03*
X6870D02*
D03*
X7028D02*
D03*
X7343D02*
D03*
X7500D02*
D03*
X7657D02*
D03*
X7815D02*
D03*
X7972D02*
D03*
X6240Y8770D02*
D03*
X8760D02*
D03*
X6398Y8691D02*
D03*
X6240Y8612D02*
D03*
X8760D02*
D03*
X6398Y8534D02*
D03*
X8760Y8455D02*
D03*
X6240Y8297D02*
D03*
X6398Y8219D02*
D03*
X6240Y8140D02*
D03*
X8760D02*
D03*
X6398Y8061D02*
D03*
X6240Y7982D02*
D03*
X8760D02*
D03*
X6398Y7904D02*
D03*
X6240Y7825D02*
D03*
X8760D02*
D03*
X6398Y7746D02*
D03*
X6240Y7667D02*
D03*
X8760D02*
D03*
X6240Y7510D02*
D03*
X8760D02*
D03*
X6240Y7353D02*
D03*
X8760D02*
D03*
X6398Y7274D02*
D03*
X6240Y7195D02*
D03*
X8760D02*
D03*
X6398Y7116D02*
D03*
X6240Y7038D02*
D03*
Y6880D02*
D03*
X6398Y6959D02*
D03*
Y6801D02*
D03*
Y6644D02*
D03*
X6555D02*
D03*
X6713D02*
D03*
X6870D02*
D03*
X7028D02*
D03*
X7185D02*
D03*
X7343D02*
D03*
X7500D02*
D03*
X7657D02*
D03*
X7815D02*
D03*
X7972D02*
D03*
X8130D02*
D03*
X8287D02*
D03*
X8445D02*
D03*
X6476Y6486D02*
D03*
X6634D02*
D03*
X6791D02*
D03*
X6949D02*
D03*
X7106D02*
D03*
X7264D02*
D03*
X7421D02*
D03*
X7579D02*
D03*
X7736D02*
D03*
X7894D02*
D03*
X8051D02*
D03*
X8209D02*
D03*
X6240Y6723D02*
D03*
X8602Y8849D02*
D03*
Y6644D02*
D03*
X8366Y6486D02*
D03*
Y9006D02*
D03*
X6398Y7431D02*
D03*
Y7589D02*
D03*
D32*
X6988Y9756D02*
D03*
X4211Y10460D02*
D03*
X7145Y10091D02*
D03*
X8691Y9734D02*
D03*
X13102Y10010D02*
D03*
X4213Y16457D02*
D03*
X5209Y17904D02*
D03*
X55276Y21536D02*
D03*
X56457D02*
D03*
X3819Y16457D02*
D03*
X13496Y10010D02*
D03*
X56063Y21536D02*
D03*
X55669D02*
D03*
X5603Y17904D02*
D03*
X9085Y9734D02*
D03*
X7538Y10091D02*
D03*
X3817Y10460D02*
D03*
X7382Y9756D02*
D03*
D33*
X888Y12077D02*
D03*
X1248D02*
D03*
X8002Y10256D02*
D03*
X888Y12924D02*
D03*
X1248D02*
D03*
X50217Y11891D02*
D03*
X49043Y15000D02*
D03*
X888Y11683D02*
D03*
X1248D02*
D03*
Y13318D02*
D03*
X888D02*
D03*
X49043Y14607D02*
D03*
X50217Y12284D02*
D03*
X8002Y9862D02*
D03*
D34*
X4969Y11071D02*
D03*
X9183Y17618D02*
D03*
X5089Y19183D02*
D03*
Y19626D02*
D03*
X8652Y17618D02*
D03*
X5501Y11071D02*
D03*
X5620Y19183D02*
D03*
Y19626D02*
D03*
D35*
X10079Y8978D02*
D03*
X10532Y9549D02*
D03*
X51223Y11829D02*
D03*
X51675Y12400D02*
D03*
X51223D02*
D03*
X51675Y11829D02*
D03*
X10079Y9549D02*
D03*
X10532Y8978D02*
D03*
D36*
X8076Y11880D02*
D03*
X12310Y9042D02*
D03*
Y8885D02*
D03*
Y8727D02*
D03*
Y8570D02*
D03*
Y8412D02*
D03*
X11807D02*
D03*
Y8570D02*
D03*
Y8727D02*
D03*
Y8885D02*
D03*
Y9042D02*
D03*
X12310Y7066D02*
D03*
Y6908D02*
D03*
Y6751D02*
D03*
Y6593D02*
D03*
Y6436D02*
D03*
X11807D02*
D03*
Y6593D02*
D03*
Y6751D02*
D03*
Y6908D02*
D03*
Y7066D02*
D03*
Y5042D02*
D03*
Y4884D02*
D03*
Y4727D02*
D03*
Y4569D02*
D03*
Y4412D02*
D03*
X12310D02*
D03*
Y4569D02*
D03*
Y4727D02*
D03*
Y4884D02*
D03*
Y5042D02*
D03*
X7407Y11880D02*
D03*
D37*
X14240Y2044D02*
D03*
D38*
X12059Y4392D02*
D03*
Y6416D02*
D03*
Y8393D02*
D03*
Y9062D02*
D03*
Y7085D02*
D03*
Y5061D02*
D03*
X7427Y11628D02*
D03*
X7584D02*
D03*
X7742D02*
D03*
X7899D02*
D03*
X8057D02*
D03*
Y12132D02*
D03*
X7899D02*
D03*
X7742D02*
D03*
X7584D02*
D03*
X7427D02*
D03*
D39*
X13964Y4264D02*
D03*
Y6288D02*
D03*
Y8265D02*
D03*
X37067Y11145D02*
D03*
X37382Y12070D02*
D03*
X41190Y11150D02*
D03*
X41348D02*
D03*
X41663Y12075D02*
D03*
X13649Y8265D02*
D03*
X37539Y11145D02*
D03*
X41190Y12075D02*
D03*
X41348D02*
D03*
X41505D02*
D03*
X41663Y11150D02*
D03*
X41505D02*
D03*
X37539Y12070D02*
D03*
X37224D02*
D03*
X37067D02*
D03*
X37224Y11145D02*
D03*
X37382D02*
D03*
X13492Y6288D02*
D03*
X13649D02*
D03*
X13807D02*
D03*
X13964Y7213D02*
D03*
X13807D02*
D03*
X13649D02*
D03*
X13492D02*
D03*
Y8265D02*
D03*
X13807D02*
D03*
X13964Y9190D02*
D03*
X13807D02*
D03*
X13649D02*
D03*
X13492D02*
D03*
Y4264D02*
D03*
X13649D02*
D03*
X13807D02*
D03*
X13964Y5189D02*
D03*
X13807D02*
D03*
X13649D02*
D03*
X13492D02*
D03*
D40*
X16823Y6000D02*
D03*
X17823D02*
D03*
X20323D02*
D03*
X16823Y11000D02*
D03*
X20323D02*
D03*
X17823D02*
D03*
X16823Y16000D02*
D03*
X17823D02*
D03*
X20323D02*
D03*
X16823Y21000D02*
D03*
X17823D02*
D03*
X20323D02*
D03*
X29323Y4000D02*
D03*
Y9000D02*
D03*
Y14000D02*
D03*
X32073Y16000D02*
D03*
X33073D02*
D03*
X35573D02*
D03*
X29323Y19000D02*
D03*
X33073Y21000D02*
D03*
X32073D02*
D03*
X35573D02*
D03*
X44573Y14000D02*
D03*
Y19000D02*
D03*
X29323Y6000D02*
D03*
X28323Y4000D02*
D03*
Y6000D02*
D03*
X27323Y4000D02*
D03*
Y6000D02*
D03*
X26323Y4000D02*
D03*
Y6000D02*
D03*
X25323Y4000D02*
D03*
Y6000D02*
D03*
X20323Y4000D02*
D03*
X21323D02*
D03*
Y6000D02*
D03*
X22323Y4000D02*
D03*
Y6000D02*
D03*
X23323Y4000D02*
D03*
Y6000D02*
D03*
X24323Y4000D02*
D03*
Y6000D02*
D03*
X32323Y4000D02*
D03*
Y6000D02*
D03*
X31323Y4000D02*
D03*
Y6000D02*
D03*
X30323Y4000D02*
D03*
Y6000D02*
D03*
X36573Y19000D02*
D03*
Y21000D02*
D03*
X37573Y19000D02*
D03*
Y21000D02*
D03*
X38573Y19000D02*
D03*
Y21000D02*
D03*
X40573D02*
D03*
X23323Y16000D02*
D03*
X27323D02*
D03*
X22323Y21000D02*
D03*
X23323Y19000D02*
D03*
X22323Y16000D02*
D03*
X23323Y14000D02*
D03*
X16823Y4000D02*
D03*
X17823D02*
D03*
X20323Y9000D02*
D03*
X21323D02*
D03*
X22323D02*
D03*
X23323D02*
D03*
X24323D02*
D03*
X21323Y11000D02*
D03*
X22323D02*
D03*
X23323D02*
D03*
X24323D02*
D03*
X26323Y9000D02*
D03*
X25323D02*
D03*
X27323D02*
D03*
X28323D02*
D03*
X25323Y11000D02*
D03*
X26323D02*
D03*
X27323D02*
D03*
X28323D02*
D03*
X29323D02*
D03*
X17823Y19000D02*
D03*
X16823D02*
D03*
X33073D02*
D03*
X32073D02*
D03*
X39573Y21000D02*
D03*
Y19000D02*
D03*
X35573D02*
D03*
X40573D02*
D03*
X41573Y21000D02*
D03*
Y19000D02*
D03*
X42573Y21000D02*
D03*
Y19000D02*
D03*
X43573Y21000D02*
D03*
Y19000D02*
D03*
X44573Y21000D02*
D03*
X29323D02*
D03*
X28323Y19000D02*
D03*
Y21000D02*
D03*
X27323Y19000D02*
D03*
Y21000D02*
D03*
X26323Y19000D02*
D03*
Y21000D02*
D03*
X25323Y19000D02*
D03*
Y21000D02*
D03*
X20323Y19000D02*
D03*
X21323D02*
D03*
Y21000D02*
D03*
X22323Y19000D02*
D03*
X23323Y21000D02*
D03*
X24323Y19000D02*
D03*
Y21000D02*
D03*
X20323Y14000D02*
D03*
X29323Y16000D02*
D03*
X35573Y14000D02*
D03*
X44573Y16000D02*
D03*
X32073Y14000D02*
D03*
X33073D02*
D03*
X16823Y9000D02*
D03*
X17823D02*
D03*
X16823Y14000D02*
D03*
X17823D02*
D03*
X43573D02*
D03*
Y16000D02*
D03*
X42573Y14000D02*
D03*
Y16000D02*
D03*
X41573Y14000D02*
D03*
X41573Y16000D02*
D03*
X40573Y14000D02*
D03*
X40573Y16000D02*
D03*
X36573Y14000D02*
D03*
Y16000D02*
D03*
X37573Y14000D02*
D03*
Y16000D02*
D03*
X38573Y14000D02*
D03*
Y16000D02*
D03*
X39573Y14000D02*
D03*
Y16000D02*
D03*
X28323Y14000D02*
D03*
Y16000D02*
D03*
X27323Y14000D02*
D03*
X26323D02*
D03*
Y16000D02*
D03*
X25323Y14000D02*
D03*
Y16000D02*
D03*
X21323Y14000D02*
D03*
Y16000D02*
D03*
X22323Y14000D02*
D03*
X24323D02*
D03*
Y16000D02*
D03*
D41*
X8455Y18494D02*
D03*
Y19282D02*
D03*
Y18297D02*
D03*
Y18691D02*
D03*
Y18888D02*
D03*
Y19085D02*
D03*
Y19479D02*
D03*
Y19675D02*
D03*
X6526D02*
D03*
Y19479D02*
D03*
Y19282D02*
D03*
Y19085D02*
D03*
Y18888D02*
D03*
Y18691D02*
D03*
Y18494D02*
D03*
Y18297D02*
D03*
D42*
X4365Y18504D02*
D03*
X5221Y18583D02*
D03*
X4729Y18504D02*
D03*
X5586Y18583D02*
D03*
D43*
X5106Y20724D02*
D03*
X5106Y21088D02*
D03*
D44*
X7490Y18986D02*
D03*
D45*
X9455Y22926D02*
D03*
Y24079D02*
D03*
X14501Y24079D02*
D03*
Y22926D02*
D03*
X7455Y22926D02*
D03*
Y24079D02*
D03*
X8455Y22926D02*
D03*
Y24079D02*
D03*
X13501Y24079D02*
D03*
Y22926D02*
D03*
X12501Y24079D02*
D03*
Y22926D02*
D03*
D46*
X13281Y17664D02*
D03*
Y18038D02*
D03*
Y17290D02*
D03*
X14344D02*
D03*
Y18038D02*
D03*
D47*
X15253Y18713D02*
D03*
X15646D02*
D03*
X15253Y19052D02*
D03*
X15646D02*
D03*
X14896Y18713D02*
D03*
X14502D02*
D03*
X14896Y19052D02*
D03*
X14502D02*
D03*
X12908Y20752D02*
D03*
X12514D02*
D03*
X5207Y18238D02*
D03*
X5600D02*
D03*
D48*
X36998Y11529D02*
D03*
Y11371D02*
D03*
Y11686D02*
D03*
X41121Y11534D02*
D03*
Y11376D02*
D03*
X37608Y11686D02*
D03*
X36998Y11844D02*
D03*
X41732Y11376D02*
D03*
Y11849D02*
D03*
Y11691D02*
D03*
Y11534D02*
D03*
X41121Y11691D02*
D03*
X37608Y11529D02*
D03*
Y11844D02*
D03*
X13423Y6829D02*
D03*
Y6672D02*
D03*
Y6514D02*
D03*
X14033D02*
D03*
Y6672D02*
D03*
Y6829D02*
D03*
Y6987D02*
D03*
X13423Y8806D02*
D03*
Y8649D02*
D03*
Y8491D02*
D03*
X14033D02*
D03*
Y8649D02*
D03*
Y8806D02*
D03*
Y8964D02*
D03*
X13423Y4805D02*
D03*
Y4648D02*
D03*
Y4490D02*
D03*
X14033D02*
D03*
Y4648D02*
D03*
Y4805D02*
D03*
Y4963D02*
D03*
D49*
X40462Y12359D02*
D03*
Y10859D02*
D03*
Y11359D02*
D03*
Y11859D02*
D03*
X38281Y10859D02*
D03*
Y11359D02*
D03*
Y11859D02*
D03*
Y12359D02*
D03*
D50*
X49063Y12717D02*
D03*
X49476D02*
D03*
X50165Y13130D02*
D03*
X50303D02*
D03*
Y12717D02*
D03*
X49063Y13957D02*
D03*
X49614Y13268D02*
D03*
Y13406D02*
D03*
X49752D02*
D03*
Y13268D02*
D03*
X50303Y13406D02*
D03*
Y13957D02*
D03*
X49890D02*
D03*
X49752D02*
D03*
X49614D02*
D03*
X50165D02*
D03*
X50028D02*
D03*
X49476D02*
D03*
X49339D02*
D03*
X49201D02*
D03*
X49614Y13819D02*
D03*
X49476D02*
D03*
X50303D02*
D03*
X50165D02*
D03*
X50028D02*
D03*
X49890D02*
D03*
X49752D02*
D03*
X49339D02*
D03*
X49201D02*
D03*
X49063D02*
D03*
X50165Y12717D02*
D03*
X50028D02*
D03*
X49890D02*
D03*
X49752D02*
D03*
X49614D02*
D03*
X49339D02*
D03*
X49201D02*
D03*
X50303Y12854D02*
D03*
X50165D02*
D03*
X50028D02*
D03*
X49890D02*
D03*
X49752D02*
D03*
X49614D02*
D03*
X49476D02*
D03*
X49339D02*
D03*
X49201D02*
D03*
X49063D02*
D03*
X50303Y12992D02*
D03*
X50165D02*
D03*
X50028D02*
D03*
X49890D02*
D03*
X49752D02*
D03*
X49614D02*
D03*
X49476D02*
D03*
X49339D02*
D03*
X49201D02*
D03*
X49063D02*
D03*
X49890Y13130D02*
D03*
X49752D02*
D03*
X49614D02*
D03*
X49476D02*
D03*
X49339D02*
D03*
X49201D02*
D03*
X49063D02*
D03*
X50303Y13268D02*
D03*
X50028D02*
D03*
X49890D02*
D03*
X49476D02*
D03*
X49339D02*
D03*
X49201D02*
D03*
X49063D02*
D03*
X50165Y13406D02*
D03*
X50028D02*
D03*
X49890D02*
D03*
X49476D02*
D03*
X49339D02*
D03*
X49201D02*
D03*
X49063D02*
D03*
X50303Y13543D02*
D03*
X50165D02*
D03*
X50028D02*
D03*
X49890D02*
D03*
X49752D02*
D03*
X49614D02*
D03*
X49476D02*
D03*
X49339D02*
D03*
X49201D02*
D03*
X49063D02*
D03*
X50303Y13681D02*
D03*
X50165D02*
D03*
X50028D02*
D03*
X49890D02*
D03*
X49752D02*
D03*
X49614D02*
D03*
X49476D02*
D03*
X49339D02*
D03*
X49201D02*
D03*
X49063D02*
D03*
D51*
X53459Y12869D02*
D03*
X52711D02*
D03*
Y13676D02*
D03*
X53459D02*
D03*
D52*
X3963Y15500D02*
D03*
Y9502D02*
D03*
X3596Y9698D02*
D03*
Y9502D02*
D03*
Y9305D02*
D03*
X3963Y9698D02*
D03*
Y9305D02*
D03*
X3596Y15697D02*
D03*
Y15500D02*
D03*
Y15303D02*
D03*
X3963Y15697D02*
D03*
Y15303D02*
D03*
D53*
X5039Y15599D02*
D03*
Y15402D02*
D03*
Y9600D02*
D03*
Y9403D02*
D03*
X4803Y15599D02*
D03*
Y15402D02*
D03*
Y9600D02*
D03*
Y9403D02*
D03*
D54*
X2947Y15992D02*
D03*
Y14811D02*
D03*
Y15402D02*
D03*
Y15795D02*
D03*
Y9994D02*
D03*
Y8813D02*
D03*
Y15008D02*
D03*
Y15205D02*
D03*
Y15599D02*
D03*
Y16189D02*
D03*
Y9010D02*
D03*
Y9206D02*
D03*
Y9403D02*
D03*
Y9600D02*
D03*
Y9797D02*
D03*
Y10191D02*
D03*
D55*
X9882Y4193D02*
D03*
X10432D02*
D03*
X49134Y17480D02*
D03*
X49684D02*
D03*
X46654Y18937D02*
D03*
X47204D02*
D03*
X46654Y17480D02*
D03*
X47204D02*
D03*
X49134Y18937D02*
D03*
X49684D02*
D03*
D56*
X5501Y10433D02*
D03*
Y9882D02*
D03*
X48625Y14842D02*
D03*
Y15393D02*
D03*
D57*
X7091Y11880D02*
D03*
X9497Y4193D02*
D03*
X46240Y18937D02*
D03*
X48720D02*
D03*
X46240Y17480D02*
D03*
X48720D02*
D03*
D58*
X41141Y11849D02*
D03*
X37589Y11371D02*
D03*
X13443Y6987D02*
D03*
Y8964D02*
D03*
Y4963D02*
D03*
D59*
X12330Y18294D02*
D03*
D60*
X12743Y18550D02*
D03*
Y18038D02*
D03*
X5899Y11072D02*
D03*
Y11387D02*
D03*
D61*
X1238Y19453D02*
D03*
X864D02*
D03*
X2262D02*
D03*
X2636D02*
D03*
D62*
X795Y19809D02*
D03*
X1051D02*
D03*
X1307D02*
D03*
Y19097D02*
D03*
X1051D02*
D03*
X795D02*
D03*
X2193D02*
D03*
X2449D02*
D03*
X2705D02*
D03*
Y19809D02*
D03*
X2449D02*
D03*
X2193D02*
D03*
D63*
X8760Y9006D02*
D03*
Y6486D02*
D03*
X6240D02*
D03*
Y9006D02*
D03*
D64*
X9735Y18129D02*
D03*
X10432D02*
D03*
D65*
X8179Y19951D02*
D03*
X7982D02*
D03*
X7785D02*
D03*
X7392D02*
D03*
X7195D02*
D03*
X6998D02*
D03*
X6801D02*
D03*
Y18022D02*
D03*
X6998D02*
D03*
X7195D02*
D03*
X7392D02*
D03*
X7589D02*
D03*
X7785D02*
D03*
X7982D02*
D03*
X8179D02*
D03*
X7589Y19951D02*
D03*
D66*
X53542Y13273D02*
D03*
X52629D02*
D03*
D67*
X55276Y21181D02*
D03*
Y20788D02*
D03*
X56457Y21181D02*
D03*
Y20788D02*
D03*
X56063Y21181D02*
D03*
Y20788D02*
D03*
X55669Y21181D02*
D03*
Y20788D02*
D03*
X4764Y21103D02*
D03*
Y20709D02*
D03*
D68*
X55472Y22047D02*
D03*
X56260D02*
D03*
X56063D02*
D03*
X55866D02*
D03*
X55669D02*
D03*
D69*
X56614Y22953D02*
D03*
X55118D02*
D03*
D70*
X2323Y21811D02*
D03*
Y23780D02*
D03*
X1378Y21811D02*
D03*
Y23780D02*
D03*
D71*
X2323Y22795D02*
D03*
X1378D02*
D03*
D72*
X48594Y11053D02*
D03*
X49165D02*
D03*
D73*
X9892Y20162D02*
D03*
Y19465D02*
D03*
M02*
