M48
;Layer_Color=9474304
;FILE_FORMAT=2:4
INCH,TZ
;TYPE=PLATED
T02F00S00C0.0098
T03F00S00C0.0354
%
T02
X236Y236
Y657
Y1079
Y1579
Y2079
Y2579
Y3079
Y3579
Y4079
Y4579
Y5079
Y5579
Y6079
Y6579
Y7079
Y7579
Y8079
X391Y8342
X236Y8579
Y9079
X707Y8025
X597Y6255
Y4255
Y2255
X736Y236
X1236
X1736
X2236
X2736
X3236
X3736
X4236
X4736
X5236
X5736
X6236
X6736
X7236
X7764Y236
X8264
X8764
X9264
X9764
X10264
X10764
X11264
X11764
X12264
X12764
X13264
X13764
X14264
X14764
X15264
X15764
X16264
X16098Y1255
X15098
X14097
X13097
X12098
X11098
X10098
X9097
X8098
X7097
X6097
X5098
X4098
X3097
X2097
X1098
X1597Y2255
X2598
X3598
X4597
X5598
X6597
X7598
X8597
X9597
X10597
X11597
X12598
X13598
X14598
X15597
X16098Y3255
X15098
X14097
X13097
X12098
X11098
X10098
X9097
X8098
X7097
X6097
X5098
X4098
X3097
X2097
X1098
X1250Y5348
X2250Y5348
X3097Y5255
X4098
X4754Y5256
X5098Y5255
X5252Y4600
X6250Y4596
X7252Y4600
X8252
X9252
X10252
X11252
X10925Y5472
X11949
X12242Y4974
X13252Y4600
X14252Y4797
X13976Y5482
X14823Y5502
X15768
X16260Y4902
X16252Y6120
X16506Y6772
X15896Y8455
X15640Y8967
X16098Y9255
X15098
X13097
X12224Y9026
X12854Y7982
X13671
X13097Y7255
X12815Y6959
X11821Y6801
X11683Y7185
X10665Y6779
X10252Y6120
X9252
X8524Y5482
X7252Y6120
X6252
X5252
X5098Y7255
X6097
X7097
X8098
X8853Y8361
X10001Y8551
X9836Y8931
X10224Y9262
X10489Y9358
X9911Y7441
X6754Y8471
X6481Y9121
X5098Y9255
X4098
X3097
X2336Y9192
X2108Y9322
X1001Y9287
X1011Y8881
X1090Y8392
X1592Y8667
X2598Y8255
X3598
X4597
X5598
X4098Y7255
X3097
X2123
X1769Y6856
X3598Y6255
X2719Y4600
X13291Y6120
X14163Y6841
X15252Y4600
X17764Y4579
Y5079
Y5579
Y6079
Y6579
Y7079
Y7579
Y8079
Y8579
Y9079
X16654Y8632
X17764Y4079
Y3579
Y3079
Y2579
Y2079
Y1579
Y1079
Y677
Y236
X17264
X16764
X17098Y1255
X16597Y2255
X17098Y3255
X17764Y9579
Y10079
Y10579
Y11079
Y11579
Y12457
Y13457
Y14455
Y14957
Y15457
Y15957
Y16455
Y16957
Y17459
X17264Y17457
X16764
X16597Y16255
X17098Y15255
X16597Y14255
Y10255
X15597
X14598
X15098Y11255
X16098
X15597Y12255
X14598
X13598
X12628Y11742
X12120Y11740
Y11122
X12490Y11122
X13097Y11255
X14097
Y13255
X15098
X16098
X15597Y14255
X14598
X13598
X12598
X11597
X10597
X10355Y13731
X10533Y13471
X9917Y13433
X9624Y13461
X9319Y13445
Y13711
Y14055
Y14360
X9039Y14415
X9181Y14677
X9263Y14981
X9502Y15186
X9815Y15223
X10130
X10445
X10760
X11075
X11390
X11705
X12019
X12334Y15227
X12678Y15257
X12974Y15273
X13130Y15472
X13128Y15709
X13435Y16024
X13337Y16289
X13598Y16255
X13118Y16423
X13117Y16884
Y17198
X13264Y17457
X13764
X14264
X14764
X15264
X15764
X16264
X15597Y16255
X14598
X15098Y15255
X16098
X14097
X12202Y16062
X11922Y16066
X11607
X11292
X10977
X10662
X10347
X10032
X9717
X9404Y16030
X9106Y15929
X8842Y15757
X8622Y15532
X8463Y15260
X8098Y15255
X8368Y14960
X8351Y14646
X8488Y14415
X8034Y14394
X8216Y14068
X7945Y13941
X8187Y13481
X8764Y13366
Y13628
X8764Y12557
X9236
X9709
Y12084
Y11612
Y11140
X9236
Y11612
Y12084
X8764
Y11612
Y11140
X8291
Y11612
Y12084
Y12557
X7395Y12640
X6946Y12825
X6788Y12596
X6780Y12320
X5598Y12255
X4597
X3598
X2598
X3097Y13255
X4098
X5098
X6097
X6335Y13181
X6401Y13731
X6980Y13701
X7285Y13791
X7222Y14062
X6597Y14255
X5598
X4597
X3598
X2598
X1597
X2097Y15255
X3097
X4098
X5098
X6097
X7097
X7587Y14563
X7598Y16255
X8597
X8736Y17457
X8236
X7736
X7236
X6736
X6236
X5736
X5236
X4736
X4236
X3736
X3236
X2736
X2236
X1736
X1236
X1597Y16255
X2598
X3598
X4597
X5598
X6597
X9236Y17457
X9736
X10236
X10736
X11236
X11736
X12236
X11996Y17096
X12283Y16782
X12283Y16468
X11917Y13150
X11510Y12960
X11261Y12641
X10915Y12470
X10633Y12609
X11747Y12262
X13097Y13255
X9597Y14255
X9765Y10010
X9295Y10111
X10369Y10285
X10780Y9970
X7259Y10461
X6815Y10505
X6484Y10793
X6501Y9851
X6693Y9461
X5598Y10255
X4597
X3598
X2598
X1597
X2097Y11255
X3097
X4098
X5098
X1098
X2097Y13255
X1098Y15255
X236Y15461
Y15959
Y16459
Y16957
Y17457
X736
X597Y16255
X236Y14961
Y14463
Y13465
Y12466
Y11579
Y11079
Y10579
Y10079
Y9579
T03
X17324Y12055
Y13055
Y14055
X676Y14055
Y13055
Y12055
M30
