M48
;Layer_Color=9474304
;FILE_FORMAT=2:4
INCH,TZ
;TYPE=PLATED
T01F00S00C0.0039
%
T01
X7746Y5236
X10071Y5089
X10098Y6624
X11594Y6683
X12599Y6656
X12441Y7726
X12047
X10460Y8743
X9281Y8331
X9264Y9345
X8958Y9244
X8781Y9221
X8584Y9225
X8408Y9221
X8250Y9225
X8086
X7924Y9221
X7794Y9305
X7723Y9162
X7720Y9020
X7148Y9007
X7135Y9168
Y9330
X8171Y7801
X14500Y7562
X15250Y7562
X16000Y7562
X14961Y6831
X14748Y6656
X14185Y5233
X14034Y5085
X16750Y7562
X13100Y10079
Y10279
Y10479
Y10679
X12943Y10866
X12755Y11369
X11289Y11991
X11112Y12244
X10705Y11927
X10846Y11772
X10728Y11614
X10519Y12392
X11654Y13238
X11325Y13930
X11184Y13788
X7268Y11967
X6582Y11673
X7238Y9611
X7135Y9501
X7278Y9421
X7417Y9461
X7585
X7789Y9462
X7353Y9721
X8395Y10048
Y10203
X8408Y10368
X8590Y10376
Y10203
Y10048
X8958Y9944
X8958Y9735
X9084Y9830
X9289Y9813
X9264Y9517
X9094Y9595
Y9385
X8958Y9505
M30
