M48
;Layer_Color=9474304
;FILE_FORMAT=2:4
INCH,TZ
;TYPE=PLATED
T01F00S00C0.0039
;TYPE=NON_PLATED
%
T01
X10748Y423
X10640Y1211
X11358Y856
X11644Y433
X11574Y4412
Y4569
Y4727
Y4884
X9130Y4751
X8051Y5251
X7901Y5127
X7471Y5005
X7285Y4882
X6901Y4745
X6614Y4843
X6093Y5128
X7603Y4628
X21325Y4000
X22323
X23323
X24323Y4003
X25323Y4000
X26323Y4000
X27323Y4000
X28323
X30323Y4001
X31323Y4004
X32323Y4000
X37394Y10198
X37186Y10735
X37619Y10733
X37539Y11144
X37638Y11528
X37541Y12070
X37224Y12068
X37573Y14000
X38573
X39573Y14427
X38573Y16000
X37573
X41946Y13307
X41505Y12457
X41121Y11691
X41505Y11174
X42573Y9323
X48322Y9897
X48887Y9902
X49079Y11271
X49027Y11647
X48519Y11660
X48094Y11679
X48196Y11293
X48590Y11176
X49247Y12078
X49338Y12494
X49395Y12750
X49339Y12992
X49476
Y13130
Y13268
Y13406
X49339
Y13268
Y13130
X49614
X49752
X49890
Y13268
X50028
Y13406
X49890
Y13543
X50028
Y13681
X49890
X49752
X49614
Y13543
X49752
X49476
Y13681
X49339
Y13543
X49482Y13937
X49600Y13934
X49761Y14115
X49881
X49209Y14245
X49021Y14144
X49043Y15000
X50333Y15032
X50202Y15206
X50403Y14739
X50742Y14716
X50865Y14553
X50735Y14277
X50699Y13313
X50437Y13451
X50165Y13543
X50028Y12992
X49890
X49752
X49614
X49695Y12748
X49814Y12764
X49902Y12686
X50182Y12579
X50298Y12692
X50429Y12904
X50850Y12289
X51540Y12424
X52073Y12117
X51507Y13595
X51217Y13447
X51732Y14343
X50028Y15750
X47264Y16253
X47441Y16614
X47445Y14326
X47310Y14451
X48030Y14297
X48002Y13924
X47832Y14050
X47564Y13717
X47096Y13449
X46460Y13325
X46249Y13132
X46100Y12891
X46921Y12754
X47685Y12502
X47843Y12599
X47832Y12380
X48019Y12252
X47553Y11954
X47290Y11890
X48505Y12720
X48809Y12786
X48953Y12425
X48887Y7539
X48335Y7666
X44739Y15586
X36573Y16000
Y14427
X36959Y10732
X30326Y11525
X28749Y12636
X27323Y12510
X27739Y11901
X26766Y11639
X26323Y11774
Y12586
X25735Y12140
X25323Y12263
X24859Y12599
X25513Y12949
X24323Y14000
X23323
X22323
Y16000
X23323Y15714
X24323Y16000
X24319Y18001
X23654Y17762
X23323Y18126
X22592Y17883
X22323Y17638
X21619Y17449
X21788Y18347
X25608Y17283
X27323Y16000
X28653Y14162
X27014Y10642
X25875Y10238
X24323Y11216
X22323Y11025
X21587Y10888
X21835Y10387
X22323Y9439
X23743Y8146
X23794Y7925
X23323Y6000
X24321
X25323
X26325
X27319Y6409
X28323Y6001
X30322Y6000
X31323
X32323Y6001
X22323Y6000
X21323Y6001
X13699Y5833
X13699Y7628
X13698Y7852
X13423Y8649
X12975Y8964
X11263Y8949
Y8730
Y8511
Y8292
X11574Y6908
Y6751
Y6593
Y6436
X10717Y6276
X12059Y7085
X9665Y7490
X7815Y6644
X7657
X7500
X6132Y6693
X5807Y6850
X5827Y7441
X6240Y7510
X6398Y7274
X6240Y7982
X5906Y7874
X6181Y9193
X7343Y8850
X7500Y8849
X7657
X7815Y8849
X7972Y8849
X8130Y8849
X8145Y11045
X7924Y11044
X7704Y11044
X7483Y11043
X6815Y11969
X9252Y11250
X13964Y11179
X15062Y8075
X21323Y14000
X21323Y17084
X8199Y17097
X7096Y20492
X6407Y20433
X5679
X4567Y20404
X4006Y20000
X2947Y15795
Y15205
X5039Y15402
Y15598
X5335Y7972
X5679Y7795
X5659Y7323
X5541Y6112
X2947Y9403
X2947Y9600
M30
