M48
;Layer_Color=9474304
;FILE_FORMAT=2:4
INCH,TZ
;TYPE=PLATED
T01F00S00C0.0039
;TYPE=NON_PLATED
%
T01
X22323Y4000
X23323
X23616Y3683
X24650Y3829
X25323Y4000
X36496Y4392
X37022Y3830
X36634Y5394
X37608Y5602
X38497Y5195
X38652Y4597
X37477Y4220
X37295Y3633
X41488Y4001
X41609Y6001
X41731Y6214
X39573Y5800
X37150Y6393
X37573Y14000
X38573
X39002Y14017
X39573Y14427
X38573Y16000
X37573
X37234Y17204
X37573Y17645
X38262Y17325
X41505Y12457
X45928Y12573
X46100Y12891
X46249Y13132
X46460Y13325
X47096Y13449
X47551Y13839
X47916Y13228
X48094Y13121
X47776Y12875
X46921Y12754
X47901Y11899
X48322Y11150
X49054Y11485
X48887Y9902
X48322Y9897
X51699Y7175
X51550Y7017
X52082Y6929
X52082Y13912
X50562Y14708
X49504Y15201
X49307
X45785Y13595
X36573Y14427
Y16000
X27323
X24323
X23972Y16261
X23004Y16128
X23323Y15714
X22323Y16000
Y14000
X23323
X24323
X24445Y12383
X27940Y10154
X27939Y6145
X25323Y6000
X24229Y6409
X22323Y6000
X22592Y17883
X23323Y18126
X21985Y18466
X21323Y14000
X15873Y17283
X15472Y17573
X15582Y17788
X15728Y18001
X15404Y11025
X15259Y10888
X15266Y10394
X14993Y9439
X12823Y7852
Y5836
M30
