M48
;Layer_Color=9474304
;FILE_FORMAT=2:4
INCH,TZ
;TYPE=PLATED
T01F00S00C0.0039
;TYPE=NON_PLATED
%
T01
X4734Y4813
X22323Y4000
X23323
X23616Y3683
X24650Y3829
X25323Y4000
X36496Y4392
X37022Y3830
X36634Y5394
X37608Y5602
X38497Y5195
X38652Y4597
X37477Y4220
X37295Y3633
X41488Y4001
X41609Y6001
X41731Y6214
X39573Y5800
X37150Y6393
X37394Y10198
X37186Y10735
X37619Y10733
X38189Y10735
X38658Y10752
X40031Y10819
X40340Y11297
X40438Y11712
X40913Y11850
X41364Y12250
X41505Y12457
X41447Y13356
X41514Y13721
X41880Y14123
X42154Y13472
X42588Y13826
X42926Y14145
X43289Y13485
X43841Y13789
X44205Y14174
X44859Y13913
X45148Y14149
X45430Y13485
X45852Y13851
X46198Y14175
X46962Y14186
X47663Y14228
X47916Y13228
X48094Y13121
X47776Y12875
X46921Y12754
X47096Y13449
X46460Y13325
X46249Y13132
X46100Y12891
X45928Y12573
X44549Y13491
X40590Y13640
X40417Y14167
X39531Y13956
X39573Y14427
X38573Y14000
X37573
X37039Y13371
X38207Y13348
X39110Y13340
X39945
X40355Y12448
X40119Y12045
X40853Y10791
X38573Y16000
X37573
X37234Y17204
X37573Y17645
X38262Y17325
X38862Y20354
X41476Y21368
X43091Y21358
X44665Y21378
X44242Y20089
X44213Y18907
X49307Y15201
X49504
X49761Y14115
X49881
X49890Y13543
X49752
X49614
X49476
Y13681
Y13406
Y13268
Y13130
X49614
X49752
X49890Y13268
Y13406
X50562Y14708
X51864Y14514
X52082Y13912
X50850Y12289
X50722Y10636
X51089Y8918
X50617Y8426
X51699Y7175
X51550Y7017
X52082Y6929
X48887Y9902
X48322Y9897
X48322Y11150
X49054Y11485
X47901Y11899
X36394Y13439
X36573Y14427
Y16000
X27323
X28156Y13920
X28703Y13919
X29041Y13995
X29057Y13576
X28722Y13236
X29064Y12817
X28420Y12663
X27911Y12661
X27529Y12665
X27121Y12517
X27090Y12905
X26525Y12897
X26539Y12541
X26323Y12586
X26548Y11908
X27043
X27537
X27527Y11505
X27492Y11197
X27898Y11172
X27908Y11490
X27103Y11441
X26595Y11218
X26259Y11436
X26134Y10208
X26176Y9749
X27657Y9708
X27940Y10154
X27729Y10512
X28458Y10274
X28400Y10030
X28611Y10033
X28899Y10274
X28891Y9705
X30109Y9747
X29056Y11179
X28762Y11167
X28755Y11506
X29035Y11507
X25513Y12949
X24859Y12599
X24445Y12383
X24323Y14000
X23323
X22323
Y16000
X23004Y16128
X23323Y15714
X23972Y16261
X24323Y16000
X23323Y18126
X22592Y17883
X21985Y18466
X22614Y10891
X22323Y9439
X22323Y6000
X24229Y6409
X25323Y6000
X27939Y6145
X21323Y14000
X15873Y17283
X15728Y18001
X15404Y11025
X15259Y10888
X15266Y10394
X14993Y9439
X12823Y7852
Y5836
X10264Y9314
X6815Y11969
X5758Y10226
X4459Y11093
X4449Y12451
Y13602
Y14567
X5039Y15402
Y15598
X2947Y15795
Y15205
X2717Y18159
X2589Y19793
X2947Y9600
X2947Y9403
X4832Y5925
M30
