M48
;Layer_Color=9474304
;FILE_FORMAT=2:4
INCH,TZ
;TYPE=PLATED
T02F00S00C0.0079
;TYPE=NON_PLATED
T04F00S00C0.0236
T05F00S00C0.0354
T06F00S00C0.0390
T07F00S00C0.1260
%
T02
X507Y397
X433Y1205
X376Y2165
X1657Y2158
X2333Y2431
X2157Y3158
X1157
X323Y3585
X318Y4397
X327Y5534
X2157Y5158
X2657Y4158
X3157Y3158
X4157
X4075Y2530
X4733Y2632
X4657Y2158
X4891Y1735
X4823Y1372
X5301Y1548
X5231Y2274
X5731
X5467Y2905
X5386Y3394
X4823Y3248
X5492Y4035
X5669Y4331
X5517Y4543
X5355Y4942
X5324Y5587
X5634Y5415
X4911Y5344
X5231Y738
X5731
X4852Y378
X4068Y357
X4157Y1158
X3157
X3137Y397
X1947Y356
X2157Y1158
X6004Y1548
X6614Y1523
X6870Y1575
X7264Y1437
X7616Y1783
X7835Y2224
X8366Y2283
X8657Y2158
X9115Y2081
X9409Y2126
X9657Y2158
X9513Y2492
X10108Y2584
X10650Y2520
X10591Y3029
X10157Y3158
X10168Y3590
X10585
X11025Y3813
X11493Y4009
X11657Y4158
X12281Y4114
X12657Y4158
X13200Y3987
X13649Y4037
X13913Y3977
X14260Y4490
X14657Y4158
X14801Y4772
X15157Y5158
X15945Y5078
X16365Y5131
X17157Y5158
X16823Y4724
X15564Y4649
X15657Y4158
X16157Y3158
X15157
X14306Y3403
X13718Y2939
X13157Y3158
X12269Y3020
X12339Y2556
X12330Y1887
X11968Y1928
X11657Y2158
X11466Y2040
X11188Y1737
X10915Y2096
X11280Y2569
X11157Y3158
X11478Y3393
X12254Y3557
X12657Y2158
X13657
X13157Y1158
X13071Y317
X12183
X11553Y625
X11530Y1018
X11890Y1177
X12238Y1387
X10945Y827
X10394Y354
X9911Y325
X8878Y295
X8346Y433
X8081Y315
X7598Y482
X7586Y1034
X8015Y1206
X8110Y1575
X8617Y1620
X8875Y1328
X9695Y1427
X10030Y1476
X10060Y1950
X10433Y1693
X9700Y3054
X9157Y3158
X8766Y2685
X8303Y3092
X7955Y2876
X7537Y2598
X7205Y2087
X7157Y3158
X7045Y3590
X6466
X6043Y3484
X6371Y3152
X6630Y2879
X5938Y2886
X6231Y2274
X6240Y4094
X6657Y4158
X7167Y4056
X7638Y4045
X7915Y3590
X8394
X8209Y5541
X8415Y5709
X9439
X9741Y5475
X10093Y5481
X10685Y5566
X11082Y5148
X10841Y4902
X11347Y4911
X11806Y5474
X11694Y5680
X12137Y5336
X12310Y5472
X12536Y5730
X12975Y5336
X13157Y5158
X13196Y4648
X13336Y5609
X14017Y5482
X14191Y5189
X15953Y5720
X17157Y3158
X18719Y3315
X18657Y4158
X19657
X20323Y4000
X20657Y4158
X20686Y4779
X19996Y4928
X19157Y5158
X21157
X20942Y3332
X19819Y3353
X19657Y2158
X18657
X18157Y1158
X17157
X16157
X15157
X14157
X13960Y317
X14849
X15737
X16626
X17514
X18403
X19291
X20180
X20157Y1158
X19157
X21157
X21069Y317
X20657Y2158
X15657
X10156Y4036
X7106Y5224
X7104Y5541
X6860Y5679
X6877Y5317
X6584Y5396
X6503Y5655
X6044Y5541
X5988Y4988
X5972Y4583
X6428Y4988
X21976Y4862
X22381Y4902
X23129Y4891
X23607Y4895
X24257Y4902
X24614Y4903
X24994Y4914
X25380Y4830
X26039Y4889
X26786Y4934
X27688Y4850
X28496Y4934
X29082Y4895
X29929Y4939
X30653Y4923
X31227
X31740Y4884
X32440Y4900
X33153Y4889
X34101Y4911
X34858Y4861
X35689Y4889
X36179Y4900
X36671Y5030
X36849Y4781
X36772Y4424
X36860Y5376
X36157Y3158
X35157
X34157
X33157
X32157
X31657Y2158
X30657
X29657
X28657
X27657
X26657
X25657
X24657
X23657
X22657
X21657
X21816Y3307
X22828Y3345
X22657Y4158
X23657
X23871Y3345
X24745Y3328
X25819Y3311
X26768Y3315
X27800Y3311
X28761
X30682Y3350
X31157Y1158
X30157
X29157
X29066Y317
X28177
X28157Y1158
X27157
X27289Y317
X26400
X25512
X24623
X23734
X22846
X21957
X22157Y1158
X23157
X24157
X25157
X26157
X25657Y4158
X25826Y5615
X23822Y5388
X29954Y317
X30843
X31732
X32620
X33509
X34397
X35286
X36174
X36157Y1158
X35157
X34157
X33157
X32157
X32657Y2158
X33657
X34657
X35657
X36657
X37657
X38657
X39657
X40657
X40157Y1158
X39157
X38157
X37157
X37063Y317
X37952
X38840
X39729
X40617
X41506
X42394
X43283
X44172
X44157Y1158
X43157
X42157
X41157
Y3158
X40157
X39157
X38157
X37157
X37711Y4866
X37714Y5389
X38272Y5610
X38820Y5609
X39157Y5158
X40157
X41157
X42157
X43157
X44157
X43657Y4158
X42657
X41657
X40657
X39657
X38657
X38470Y4837
X42157Y3158
X43157
X44157
X44928Y2778
X44657Y2158
X43657
X42657
X45657
X46034Y1886
X46819Y1898
X46836Y1554
X47157Y1158
X46157
X45569Y1543
X45157Y1158
X45060Y317
X45949
X46837
X47726
X48614
X49503
X50392
X51280
X52169
X51918Y1238
X52293Y1609
X52236Y2032
X51826Y2192
X51559Y2117
X51289Y2185
X50657Y2158
X49862Y2096
X49657Y2158
X49399Y2527
X49961Y2707
X50157Y3158
X50806Y3261
X50941Y2839
X51741Y2845
X52311Y2757
X52287Y3308
X51749Y3797
X51297Y3787
X51376Y4472
X51740Y4430
X51729Y5012
X51382Y4995
X50920Y4681
X50819Y5237
X50807Y5648
X50157Y5158
X49629Y5248
X49612Y5639
X49106Y4995
X49155Y4479
X48657Y4158
X48902Y3755
X47988Y3741
X47508Y3763
X47577Y4409
X47922Y4421
X47925Y4993
X47592Y5053
X46942Y5045
X46157Y5158
X46128Y5638
X45433Y4882
X45657Y4158
X44657
X46657
X46832Y3307
X46157Y3158
X46657Y2158
X47468Y2283
X47519Y2076
X47853Y2140
X48327Y2146
X48657Y2158
X48273Y2527
X47926Y2827
X47566Y2857
X48209Y3275
X48864Y2829
X49901Y3681
X49657Y4158
X49928Y4661
X50657Y4158
X52257Y5355
X48456Y4993
X48190Y5679
X48157Y1158
X49157
X50157
X50197Y1457
X51157Y1158
X53157
X53781Y370
X53657Y2158
X52657
X53157Y3158
X53258Y3524
X53657Y4158
X52657
X53157Y5158
X53657Y6158
X52657
X53157Y7158
X53657Y8158
X52657
X53157Y9158
X53657Y10158
X52657
X53157Y11158
X53657Y12158
X52657
X53157Y13158
X53036Y13730
X52657Y14158
X53150Y14459
X53157Y15158
X53129Y15698
X53900Y15623
X53657Y16158
X53903Y16448
X53889Y17368
X53157Y17158
X53209Y18179
X53657Y18158
X52657
X53157Y19158
X53342Y19674
X53059Y20038
X52713Y20444
X53465Y20474
X53882Y20193
X53902Y19810
X53873Y19033
X53849Y20874
X53741Y21339
X53157Y21158
X54599Y20861
X55023Y20822
X55055Y21176
X54767Y21341
X54360Y20520
X54898Y20209
X55768Y20337
X55965
X56082Y20162
X55994Y19911
X56050Y20544
X55676Y20540
X56762Y20886
X56681Y21183
X56790Y19913
X52657Y16158
X53898Y14630
X53657Y14158
X53851Y13901
X52338Y13811
X51865Y13769
X51938Y13573
X51898Y13065
X51875Y12700
X52278Y12629
X52250Y13001
X52250Y11837
X51878Y11498
X51907Y11153
X52247Y11045
X52244Y10328
X51895Y10521
X51893Y9848
X51877Y9258
X52260Y9407
X52236Y8585
X51891Y8671
X51895Y8113
X51893Y7488
X52283Y7730
X52318Y7115
X52347Y6631
X51775Y6532
X51252Y6559
X50814Y6751
X50268Y6716
X49613Y6733
X49657Y6158
X48657
X48740Y5866
X47902Y5916
X47509Y5878
X46985Y5965
X46657Y6158
X46753Y6723
X46695Y7366
X46145Y7370
X46212Y7820
X46657Y8158
X47077Y7852
X47544Y7873
X47431Y8410
X47533Y8979
X46861Y8982
X45880Y9001
X45092Y9007
X44117Y8989
X43448Y8712
X43657Y8158
X43195Y7819
X43205Y7350
X42460Y7343
X41871Y7339
X42248Y7826
X42657Y8158
X42123Y8724
X41164Y8737
X40218
X40137Y7814
X40214Y7347
X40935Y7340
X41097Y7824
X40657Y8158
X40352Y6734
X40309Y6415
X39749Y6377
X39775Y6745
X39291Y6773
X39353Y6401
X38839Y6379
X38855Y6735
X38294Y6745
X38332Y6398
X37824Y6392
X37802Y6764
X37758Y7380
X37787Y7849
X38141Y7828
X38335Y7373
X38824Y7377
X39421Y7356
X39093Y7815
X39145Y8724
X38113Y8705
X38008Y9002
X37757Y8996
X37790Y8332
X38285Y8341
X37752Y9846
X37883Y10757
X38321Y11126
X38978Y11019
X39371
X39765
Y11412
Y11806
X39371
Y11412
X38978
Y11806
Y12200
X39371
X39765
X41059Y12260
X41783Y12263
X42385Y12255
X42730Y12353
X42784Y11827
X42764Y11488
Y11196
X42399Y11184
X42403Y11500
X42223Y11822
X41475Y11849
X41450Y11441
X40898Y11459
X41050Y11150
X41348Y10944
X42106Y10969
X43157Y11158
X43642Y11182
Y11490
X43316Y11804
X43442Y12393
X44429Y12365
X45054Y12380
X45081Y11772
X44764Y11496
X44520Y11500
Y11200
X44157Y11158
X44134Y11808
X44991Y11248
X45571Y11135
X46157Y11158
X45943Y11798
X45733Y12383
X46548Y12348
X47050Y12388
X46815Y11782
X47734Y12204
X48759Y12186
X49027Y11978
X49506Y11458
X49494Y11062
X48611Y10586
X47563Y10506
X47556Y11100
X46951Y10513
X48582Y8750
X49070Y8582
X49064Y8080
X48657Y8158
X48652Y7763
X49120Y7519
X49706Y7396
X50680Y7337
X51206Y7392
X51186Y7937
X51210Y8629
X51157Y9158
X50586Y9434
X50295Y9821
X50812Y10035
X51216Y10006
X51224Y10789
X50788Y10846
X50567Y10476
X50813Y11489
X51148Y11453
X50462Y12186
X50445Y14034
X50806Y13931
X51174Y14354
X51368Y14632
X51550Y14228
X51715Y14061
X52161Y14180
X52157Y15158
X51390Y15341
X51157Y15158
X51227Y15780
X51401Y16179
X51392Y16635
X51293Y16970
X51157Y17158
X51074Y17381
X50688Y17559
X50657Y18158
X50447Y17956
X50059Y18200
X50055Y18715
X50551Y18681
X50582Y19144
X50230Y19116
X50238Y19513
X49828Y19245
X49854Y19858
X49355Y19771
X48839Y19705
X48740Y20040
X48518Y20194
X48970Y20200
X49101Y20662
X49621Y20915
X49569Y20188
X50111Y20400
X50355Y20166
X50657Y20158
X50875Y19624
X51014Y18756
X51391Y19114
X51761Y18751
X51912Y18170
X51952Y17634
X51361Y17683
X51141Y18032
X51370Y18366
X52157Y19158
X52171Y19903
X51657Y20158
X50927Y20745
X50661Y20979
X51157Y21158
X50157
X49220Y21345
X48623Y21132
X48173Y21157
X48343Y20835
X47629Y20705
X47756Y20512
X47919Y20364
X47654Y20008
X47380Y19882
X47335Y20316
X46734Y20312
X46821Y20059
X46633Y19894
X46696Y19279
X46765Y18658
X47276Y18637
X47551Y19166
X47750Y19458
X47944Y19280
X48018Y19052
X47980Y18745
X48235Y18619
X48578Y18677
X49058Y18612
X49583Y18641
X49412Y17691
X48993Y16932
X48844Y16305
X48478Y16158
X48082Y16132
X48121Y16544
X48009Y17594
X48432Y19243
X49072Y19260
X48361Y19886
X47528Y21169
X47157Y21158
X47037Y20876
X46770Y20702
X46772Y21181
X46609Y21398
X46285Y21352
X45935Y21405
X45541Y21407
X45797Y20915
X45827Y20226
X45187Y20276
X45069Y20896
X44455Y20768
X44006Y20738
X44181Y20306
X43906Y20058
X43657Y20158
X43041Y20108
X42657Y20158
X42077Y20098
X41587Y20032
X41681Y19713
X40885Y19702
X41036Y20027
X41246Y20220
X40898Y20317
X40657Y20158
X40502Y19952
X40184Y19636
X40232Y19163
X40069Y18799
X39573Y18768
X39144Y18819
X39140Y19289
X38981Y19654
X38803Y19832
X38634Y20008
X38248Y19986
X38205Y19656
X38076Y19274
X38072Y18622
X38573Y18768
X37559Y18780
X37079Y18651
X37157Y19158
X37204Y19633
X37106Y20256
X37688Y20074
X38062Y20312
X38051Y20797
X38157Y21158
X38583Y20827
X39104Y20807
X39157Y21158
X39573Y20768
X40089Y20787
X40573Y20768
X40945Y20797
X42077Y20807
X43002
X43030Y19280
X43120Y18789
X42126Y18839
X42062Y19263
X41070Y19266
X41112Y18799
X40975Y17645
X40211Y17640
X39378Y17615
X38288Y17637
X37870Y17632
X37315Y17671
X37446Y15045
X38049Y15300
X38446Y15045
X38755Y14941
X39157Y15158
X39073Y15530
X40077Y15554
X39786Y14865
X39572Y14688
X39942Y14515
X39234Y14479
X38057Y14481
X37899Y13973
X38247Y13969
X37234Y13968
X37318Y11686
X37295Y11388
X37869Y11681
X37838Y12081
X38297Y12122
X38821Y10218
X38863Y9850
X39381Y9848
X39761Y9847
X39732Y10218
X39363Y10219
X40211Y10219
X40425Y9839
X41281Y9854
X40937Y10218
X40537Y11113
X41094Y13936
X40929Y14694
X40573Y14826
X40717Y15001
X41157Y15158
X41095Y15549
X41573Y15108
X41815Y14967
X42157Y15158
X42208Y15558
X42443Y14772
X43049Y15301
X43555Y15060
X43569Y14743
X44484Y14751
X45017Y14732
X45157Y15158
X45014Y15308
X45321Y15564
X45570Y15297
X45613Y14742
X46663Y14735
X47241Y14722
X48255Y14724
X48157Y15158
X48294Y15393
X48587Y15725
X48941Y15842
X49235Y16023
X49545Y16457
X49880Y16136
X49850Y16875
X52157Y17158
X52655Y17394
X52044Y16182
X52564Y19523
X52157Y21158
X45525Y19052
X45157Y19158
X45018Y18643
X45468Y18628
X45926Y18616
X45547Y17594
X45081Y17633
X44132Y17666
X44051Y18630
X44157Y19158
X42967Y17652
X42118Y17642
X44065Y15313
X44457Y15549
X46595Y15274
X46746Y16209
X46649Y16568
X47413Y15745
X48103Y13543
X48769Y13997
X49683Y13337
X49405Y9287
X50143Y8982
X49533Y8283
X50657Y8158
Y6158
X51400Y5862
X51783Y5937
X48094Y6198
X47507Y6556
X46187Y6491
X45620Y6746
X45657Y6158
X45459Y6083
X44657Y6158
X44906Y6548
X44028Y6734
X44066Y7350
X44240Y7832
X44657Y8158
X45150Y7818
X45657Y8158
X45567Y7366
X43657Y6158
X42657
X42985Y6748
X41264Y6756
X41179Y6404
X41312Y5822
X40592Y5790
X39861Y5822
X39657Y20158
X40045Y20312
X39145Y20301
X37157Y21158
X36575Y20787
X36157Y21158
X36166Y20292
X35818Y19977
X35974Y19537
X36408Y19788
X36765Y20070
X37002Y19299
X36199Y18989
X36264Y18767
X35954Y18626
X35573Y18768
X34823Y18799
X34243Y18687
X34157Y19158
X33622Y18740
X33505Y19673
X33657Y20158
X34657
X34911Y20856
X35157Y21158
X34157
X34085Y20778
X32657Y20158
X32540Y19645
X32549Y18635
X32073Y18768
X31358Y18750
X31157Y19158
X30571Y19528
X30657Y20158
X30197Y20197
X29657Y20158
X29744Y19577
X30157Y19158
X29872Y18750
X28819Y18789
X28829Y19587
Y20108
Y20827
X29323Y20768
X30157Y21158
X30591Y20807
X31157Y21158
X31657Y20158
X31788Y17742
X31846Y17264
X32298Y17255
X32739Y17264
X32877Y17691
X32331Y17710
X33687Y17705
X33593Y17264
X34446
X34542Y17695
X35265Y17691
X35300Y17264
X36011Y17264
X36507Y17269
X37006Y17264
X36680Y17640
X35909Y17680
X35993Y15574
X35988Y15198
X36001Y14831
X36014Y14442
X35964Y13941
X35573Y13768
X35049Y13760
X34779Y13415
X35157Y13158
X36048Y13086
X35814Y12844
X35880Y11545
X36032Y11174
X36339Y11035
X36879Y11163
X36778Y11371
X36791Y11684
X36816Y11970
X36773Y12260
X36772Y10719
X35822Y10730
X35095Y10695
X35154Y11188
Y11480
X34587Y11475
Y11174
X34157Y11158
X33709Y11176
Y11465
X33157Y11158
X32831Y11170
Y11463
X32301Y11487
Y11187
X32415Y10705
X31831Y10691
X31170
X31157Y11158
X31423Y11169
Y11477
X30546Y11475
Y11183
X29687Y11192
X29664Y11496
X29323Y11391
X28323Y11427
Y13108
X27738Y13092
X27323Y13108
X26801Y13092
X26778Y13672
X26775Y14141
X26817Y14450
X26484Y14974
X26079Y15182
X25157Y15158
X24927Y15132
X24539Y14921
X24923Y14466
X24936Y14104
X25235Y14760
X26001Y14133
X25997Y13645
X26012Y13094
X26058Y12558
X26055Y11912
X25655Y11808
X25166Y11816
X25174Y12147
X24842Y12018
X24815Y11156
X24826Y10601
X24800Y10210
X25166Y10038
X25657Y10158
X25688Y10593
X25701Y11156
X26795Y10601
X26896Y10091
X27560Y10079
X27788Y9270
X27800Y8726
Y8186
X27773Y7406
X28157Y7158
X28208Y6809
X27738Y6388
X27818Y5816
X26817Y5844
X26818Y6600
X26824Y7406
X27157Y7158
X26157
X25876Y7406
X25861Y8172
X25830Y8736
X25849Y9269
X24837Y9164
X24781Y8780
X24833Y8231
X24928Y7406
X25157Y7158
X24815Y6596
X24851Y5797
X23779Y5928
X23812Y6319
X24157Y7158
X23980Y7406
X23032
X23157Y7158
X22157
X22083Y7406
X21657Y8158
X21744Y8723
X21766Y9256
X22750Y9250
X22811Y8742
X22657Y8158
X23884Y8344
X23869Y8814
X23813Y9300
X23861Y10233
X23818Y10603
X23946Y11229
X23767Y11636
X23657Y12158
X24117Y12449
X24157Y13158
X23863Y13253
X23858Y13711
X23852Y14135
X23758Y14472
X23510Y15000
X23157Y15158
X22765Y15266
X22528Y14965
X22157Y15158
X21751Y15123
X21815Y15708
X21657Y16158
X22776Y16001
X22785Y16516
X22878Y18172
X22848Y18646
X22822Y19282
X22890Y20063
X22421Y20071
X21884Y20076
X21831Y20719
X22799Y20874
X23829Y20581
X23897Y19977
X23388Y20039
X23926Y19418
X23882Y18657
X24843Y18878
X25315Y18937
X25807Y18829
X26772
X26949Y19577
X26841Y20079
X26722Y20856
X25866Y20807
X25758Y20069
X25156Y19899
X24950Y19514
X24531Y19982
X24794Y20382
X24813Y20817
X24321Y20817
X27795Y20846
X27815Y20108
X27746Y19557
X27805Y18819
X28247Y17686
X28472Y17264
X29095
X29563Y17268
X29617Y17693
X30227Y17710
X30179Y17264
X31032
X30947Y17738
X29012Y17717
X27359Y17686
X27618Y17264
X26765
X26478Y17689
X25812Y17683
X25378Y17617
X24774Y17734
X25911Y17264
X26840Y15502
X27157Y15158
X27419Y15068
X28133Y14922
X28323Y15108
X28834Y15258
X29091Y15060
X29605Y15051
X29589Y14502
X29064Y14552
X28695Y14455
X27734Y14463
X27733Y14135
Y13706
X27872Y15540
X29331Y15534
X30157Y15158
X30678Y15044
X31157Y15158
X31674Y15345
X31778Y14982
X32330Y14989
X32593Y15434
X33080Y15045
X33698Y15054
X34157Y15158
X34112Y15496
X34610Y15514
X35160Y15503
X35157Y15158
X34686Y14809
X34699Y14448
X33915Y14482
X34191Y13998
X33984Y13529
X34157Y13158
X33493Y13181
X33157Y13158
X32570Y13116
X32589Y13691
X32426Y13992
X32073Y13768
X31706Y13634
X31745Y13998
X31160Y13999
X31206Y14441
X30315Y14443
X30594Y13999
X30313Y13619
X30157Y13158
X30545Y13137
X31157Y13158
X31691Y13137
X30945Y13609
X29682
X29689Y14011
X29729Y13143
X29713Y9435
X29682Y8781
X29836Y8226
X30460Y8298
X30332Y8697
X30157Y9158
X30479Y9430
X30769Y9011
X31120Y8745
X31105Y8282
X31834Y8303
X32361Y8298
X32324Y8830
X31786Y8990
X33189Y8857
X33192Y8324
X33996Y8314
X33793Y8884
X34818Y8876
X34822Y8287
X35536Y8309
X36020Y8443
X35965Y8849
X36324Y8699
X36351Y9009
X36833Y8968
X36806Y8455
X36820Y7871
X36307Y7406
X36157Y7158
X35815Y7082
X35157Y7158
X35194Y6760
X35358Y7406
X34410
X34157Y7158
X33928Y6779
X32936Y6769
X33157Y7158
X33462Y7406
X32514
X31566
X31157Y7158
X30617Y7406
X30157Y7158
X29669Y7406
X29683Y6753
X29657Y6158
X28657
X29020Y6716
X29323Y7020
X28721Y7406
X28814Y8235
X28783Y8732
X28808Y9213
X26863Y9104
X26824Y8595
X26822Y8193
X25705Y6636
X22657Y6158
X21657
Y10158
X22122Y10093
X21841Y10662
X21790Y11326
X22152Y11789
X21657Y12158
X21475Y12532
X22103Y12972
X21841Y13543
X21812Y14130
X21736Y14466
X22836Y14122
X22841Y13509
X22919Y13025
X23157Y13158
X23136Y12495
X22608Y12597
X22657Y12158
X23087Y11757
X22968Y11326
X22663
X22819Y10599
X22891Y10194
X24181Y10014
X23679Y12930
X25004Y12808
X25126Y12999
X24859Y13208
X23760Y15275
X21844Y18641
X21861Y19271
X35157Y19158
X35234Y19575
X36527Y15072
X36558Y14707
X36988Y14853
X36971Y14438
X36915Y13971
X37002Y15362
X33503Y15503
X33405Y13985
X33242Y10686
X34021
X35550Y8980
X36298Y6761
X36806Y6610
X31768Y6641
X30847Y6633
X21157Y7158
X21135Y7406
X20087
X19239
X19157Y7158
X18157
X18291Y7406
X17342
X17157Y7158
X16594Y7185
X16339Y7349
X15976Y7424
X15973Y7902
X15969Y8389
X15969Y8784
X16351Y8743
X16823Y8768
X17313Y8719
X17305Y9268
X16378Y9272
X15971Y9248
X15969Y10003
X15970Y10243
X15967Y10638
X16394Y10646
X16383Y10204
X17256Y10224
X17331Y10661
X17362Y11336
X17080Y11558
X17077Y12030
Y12672
X17157Y13158
X16823Y13768
X16378Y13691
X15968Y13684
X15964Y14042
X15971Y14582
X16400Y14354
X16427Y14902
X15960Y15263
X15975Y15998
X15973Y16577
X16436Y16584
X16385Y16194
X16414Y15792
X17304Y15856
X17250Y15141
X17757Y15001
X18157Y15158
X18416Y15818
X18657Y16158
X19657
X20089Y16547
X20547Y16543
X20550Y17082
X20563Y17482
X21148Y17470
X21111Y17068
X20035Y17108
X19944Y17468
X19657Y18158
X19916Y18762
X20323Y18768
X20959Y18459
X20657Y18158
X21004Y19620
X20607Y19996
X21406Y20044
X20797Y20728
X19986Y20783
X19608Y20951
X19157Y21158
X18979Y20860
X18242Y20893
X17289Y20918
X16276Y20927
X16157Y21158
X16224Y20385
X16280Y19921
X16798Y20035
X17397Y19966
X17812Y20036
X18657Y20158
X19657
X19990Y19510
X19157Y19158
X18157
X18262Y18635
X18657Y18158
X18769Y17499
X18434Y17104
X17783Y17091
X17971Y17505
X17214Y17502
X17064Y17102
X17061Y16551
X17569Y16567
X18065Y16573
X19105Y17100
X19157Y15158
X20048Y14759
X20576Y14768
X21164Y14754
X21157Y15158
X20846Y15666
X20657Y14158
X20323Y13768
X20885Y13505
X21157Y13158
X21322Y13000
X20632Y12922
X20747Y12575
X20657Y12158
X20684Y11685
X20894Y11326
X20886Y10616
X20833Y10224
X20893Y9248
X20912Y8695
X20323Y8768
X19973Y9291
X19157Y9158
X18157
X17811Y10033
X18657Y10158
X18947Y10661
X18203Y10643
X18193Y11326
X18756
X18497Y11722
X18657Y12158
X18562Y12689
X17862
X17657Y12158
X17907Y11715
X19322Y11679
X19433Y11326
X19914
X20099Y11604
X19657Y12158
X20075Y12723
X19157Y13158
X18157
X17489Y13853
X17186Y14514
X18657Y14158
X19657
X19917Y10661
X19657Y10158
Y8158
X18657
X17835Y8007
X17657Y8158
X17303Y8140
X16368Y8120
X15972Y6847
X15980Y6184
X16391Y6055
X15362Y6666
X15157Y7158
X14733Y7714
X14435Y7858
X14406Y7387
X14191Y7213
X14003Y7708
X13333Y7624
X13262Y7219
X12823Y7211
X12576Y7640
X12310Y7496
X12040Y7707
X11806Y7497
X11329Y7546
X11114Y7992
X10524Y8006
X9932Y7963
X9685Y7894
Y8140
X9725Y8817
X9626Y9085
X9360
X9144Y8721
X10015Y8701
X10538Y8672
X10974Y8985
X11157Y9158
X11375Y9319
X11807Y9466
X11940Y9818
X11657Y10158
X11187Y10028
X10530Y9846
X10620Y10317
X10127Y10172
X9758Y10041
X9626Y9734
X9385Y9766
X9430Y10322
X9331Y10630
X8759Y10588
X8907Y10341
X8657Y10158
X8291Y10256
X8434Y10476
X8415Y9734
X8661Y9439
X8366Y8455
Y7982
Y7510
Y7038
X7841
Y7510
Y7982
Y8455
X7316
Y7982
Y7510
Y7038
X6791
Y7510
Y7982
X6811Y8465
X6950Y9255
X7165Y9508
X6437Y9518
X6697Y9843
X6900Y10089
X6677Y10427
X7200Y10368
X7677Y10374
X7280Y10846
X7111Y11267
X6778Y11069
X6395Y10762
X6335Y11492
X5899Y11572
X6121Y11871
X6108Y12310
X6559Y12375
X6802Y12579
X7007Y12152
X7157Y13158
X7584Y12862
X7817Y12905
X7742Y12710
X7899Y12559
X8068Y12692
X8062Y12396
X8294Y12340
X8657Y12158
X9200Y12364
X9289Y12018
X9233Y11758
X9848Y11570
X10075Y11891
X10157Y11158
X10079Y10659
X9760Y10963
X9548Y11271
X8726Y11160
X10819Y11343
X11157Y11158
X11159Y10950
X11617Y11403
X11657Y12158
X11418Y12345
X11383Y12004
X10877
X10657Y12158
X10574Y12350
X10653Y13363
X10157Y13158
X10023Y13491
X9808Y14042
X9284Y14012
X8657Y14158
X8727Y13591
X9157Y13158
X8157
X7454Y13721
X7657Y14158
X7523Y14749
X7157Y15158
X6744Y15396
X6331Y15187
X6144Y14822
X6671Y14603
X6657Y14158
X6125Y13916
X6157Y13158
X6238Y15929
X6496Y16024
X6820Y15973
X7309Y15948
X7657Y16158
X7732Y15444
X8157Y15158
X8274Y14787
X8937Y14764
X9157Y15158
X9238Y15986
X9781Y15964
X9779Y16544
X9803Y16949
X9241Y16952
X9261Y16569
X8842Y16565
X8791Y16979
X8426Y17437
X8189Y17697
X7963Y18514
X7490
X7018
Y18986
X7490
Y19459
X7018
X6181Y19390
Y19636
X5939
X5935Y19390
X6014Y20807
X6437Y20935
X6791Y20925
X7077Y20719
X7333
X7589
X7866Y20663
X7777Y20301
X8209Y20394
X8780Y20472
X8812Y20916
X8691Y21385
X9475Y21266
X10157Y21158
X10039Y20620
X9685Y20472
X10633Y20612
X11521Y20638
X11575Y21299
X11157Y21158
X12157
X12203Y20233
X12908Y20523
X13368Y20474
X14047Y20418
X14291Y20728
X14157Y21158
X14468Y21378
X14865Y20933
X15157Y21158
X15496Y20943
X15283Y20420
X14737Y20454
X14972Y19548
X14688Y19322
X14896Y18512
X14879Y18245
X15064Y17841
X14404Y17661
X13649Y17606
X13823Y17136
X13968Y16681
X14358Y16432
X14561Y16950
X14605Y15915
X13942Y15982
X13657Y16158
X13162Y16369
X12657Y16158
X11657
X11204Y15964
X10657Y16158
X10465Y15980
X10743Y15406
X11157Y15158
X11361Y14756
X10636Y14758
X10589Y14036
X11417Y14031
X11657Y14158
X12149Y14264
X12657Y14158
X13177Y14202
X13657Y14158
X13521Y14634
X13558Y15448
X13127Y15447
X13157Y15158
X12503Y14907
X12157Y15158
X11907Y15392
X10157Y15158
X9872Y15403
X9769Y14723
X8657Y16158
X10315Y17283
X10551
Y17598
X10315
X11023Y17486
X10945Y17795
X11005Y18396
X10709Y18750
X10669Y19213
X10472
X9976Y18876
X9234Y18880
X9063Y18883
X8901Y18884
X8729Y18888
X7963Y18986
Y19459
X8458Y19865
X7304Y21087
X6490Y17612
X6169Y16870
X5787Y17175
X10856Y17087
X11157Y17158
X12157
X12474Y17005
X12420Y17446
X12715Y17784
X11999Y17689
X11974Y18296
X11916Y18577
X11212Y18852
X11386Y19498
X11419Y19980
X11850Y19587
X12658Y18899
X13091Y19291
X13447Y19122
X13762Y18512
X14268Y18457
X14203Y18713
X15919Y18643
X16378Y18701
X16823Y18768
X17157Y19158
X17090Y18209
X17441Y18244
X17657Y18158
X16396Y18170
X15808Y18199
X15949Y17481
X15970Y17052
X16440Y17093
X16447Y17499
X16154Y19039
X15724Y19515
X15468Y19752
X13178Y21022
X13258Y21329
X14026Y15404
X14157Y15158
X14102Y14922
X14589Y14816
X14349Y14305
X14422Y13517
X14157Y13158
X13716Y12770
Y12021
Y11335
X13699Y10713
X13141Y10853
X13157Y11158
X13155Y11518
X13188Y12417
X13157Y13158
X12810Y12844
X12694Y13498
X12157Y13158
X12007Y12919
X11958Y12498
X12588Y12013
X12602Y11093
X11955Y10788
X12273Y10115
X12310Y9466
X12610Y9574
X13037Y9735
X13487Y9826
Y10198
X13116Y10307
X13806Y10023
X14389Y10045
X14657Y10158
X14963Y10034
X15050Y10784
X14483Y10710
X14545Y11483
X14450Y12057
X14657Y12158
X14473Y12615
X15378Y12667
X15157Y13158
X15364Y13580
X15284Y14214
X15973Y12977
X15970Y12500
X15967Y12091
X15968Y11562
X15957Y11320
X16403Y11339
X16457Y11900
X16435Y12546
X15355Y11956
X14736Y9326
X14164Y9366
X13716Y9459
X12824Y9187
X12556Y8225
X13064Y8116
X11930Y8166
X11657Y8158
X10643Y7452
X10189Y7434
X9921Y7402
X9778Y7038
X9502Y7006
X9295Y6564
X8986Y6703
X8947Y6289
X9621Y6118
X10289Y6003
X10098Y6427
X10858Y6518
X10880Y6093
X11441Y6072
X11994Y6083
X13653Y6093
X13946Y5996
X14260Y6514
X14547Y6513
X14657Y6158
X13217Y6672
X14213Y8261
X14260Y8491
X14741Y8563
X10566Y7055
X9279Y7754
X8401Y5919
X7579Y5916
X6929Y5919
X6775Y6206
X6460Y6181
X6210Y5919
X5876Y7195
X5984Y8327
X5984Y8662
X5827Y9095
X11130Y12922
X11157Y13158
X11525Y13403
X13588Y13540
X18657Y6158
X19657
X20761Y5987
X20657Y8158
X5709Y8465
X5427Y8836
X5118Y8661
X4907Y8961
X4747Y9978
X4756Y10704
X5087Y10743
X5186Y10412
X5245Y11547
X5656Y11377
X4764Y11289
X4784Y11972
X4783Y12490
X5127Y12373
X5699Y12433
X5669Y13276
X5157Y13158
X4766Y13126
X4793Y13671
X5226Y13880
X5684Y14010
X5694Y14813
X5243Y14594
X5276Y15158
X4774Y14911
X4769Y14330
X3888Y14351
X3533Y14567
X3494Y14106
X3297Y13968
Y14244
X2947Y14240
X2947Y15401
X2948Y15599
X3357Y15500
X4204
X3425Y16429
X3297Y16756
Y17032
X3494Y16894
X2947Y16760
X3317Y17431
X3150Y18199
X3130Y18720
X2689Y18840
X2449Y18871
X1969Y18819
Y19095
X1693
Y18819
X1568Y18567
X1927Y18550
X1824Y18170
X2126Y18189
X2457Y18226
X2692Y18407
X3873Y18391
X4134Y18504
X4232Y18234
X4144Y17884
X4655Y17731
X4953Y17894
Y17545
Y17282
X5157Y17158
X5167Y16939
X4774Y16988
X4449Y17323
X4921Y18228
X4990Y18583
X5106Y18858
X4842Y19252
X4488Y19921
X4232Y20748
X3848Y20856
X3701Y20354
X2757Y20451
Y20196
X2449Y20024
X1826Y19828
X1929Y19354
X1532Y19376
X1053Y18871
X1051Y18226
X787Y18228
X414Y18170
X1496Y18189
X1051Y20024
X768Y20049
X915Y20423
X1003Y20728
Y21378
X1460Y21346
X1575Y20473
X2956Y19578
X3209Y19390
X3552Y19168
X5344Y20719
X5118Y21260
X5672Y16544
X2570Y15992
X3799Y13809
X3415Y11978
X4134Y11743
X3465Y10906
X3297Y11034
Y10758
X3394Y10308
X3357Y9502
X2947Y9206
Y9797
X2569Y9994
X2559Y8977
X2947Y8242
X3297Y8246
Y7970
X3494Y8107
X4871Y7746
Y7421
X5251Y7195
X5029Y6821
X4941Y6240
X5276Y6063
X5468Y6264
X5699Y6471
X5079Y5788
X3657Y6158
X2657
X1657
X2057Y6969
X699Y6959
X335Y6662
X641Y12088
X642Y12344
X888
Y12658
X640
X641Y12914
X1500
X1501Y12658
X1248Y12658
Y12344
X1501
X1500Y12088
X3831Y9860
X4204Y9502
X4309Y21471
X3489Y21680
X3657Y22158
X3434Y22587
X3421Y23206
X4157Y23158
X4062Y23794
X3826Y24554
X2998Y24683
X2657Y24158
X1893Y24674
X815Y24678
X872Y23986
X827Y23445
X1157Y23158
X1555Y23307
X2126Y23317
X2323Y22795
X2136Y22323
X1467Y22333
X1417Y21850
X825Y21789
X851Y22292
X827Y22805
X1378Y22795
X1378Y23780
X359Y24350
X276Y23110
Y21654
X2803Y21648
X2657Y22158
X4657
X5657
X5576Y23760
X4966Y24609
X6103Y24660
X7005Y24615
X7918Y24636
X8465Y24685
X8979Y24474
X8997Y23731
X9102Y23292
X9055Y22835
X9151Y22095
X8657Y22158
X7830Y22054
X7627Y21540
X6973Y21547
X6417Y21693
X6164Y21821
X6530Y22188
X7179Y22227
X7097Y22748
X7009Y23523
X7453Y23497
X7890Y23291
X7787Y22936
X7985Y22627
X8441Y23509
X9852Y23268
X10157Y23158
X10648Y22867
X10657Y22158
X10196Y21981
X9928Y21807
X9657Y22158
X9885Y22607
X11157Y23158
X11753Y23237
X12157Y23158
X12510Y23492
X13003Y23784
X13504Y23790
X13966Y23810
X14006Y23209
X13504Y23217
X13157Y23158
X13132Y22450
X12738Y22322
X12166Y22311
X11543Y22283
X10980Y21620
X9147Y21504
X8224Y21468
X6157Y23158
X6561Y23804
X9936Y24539
X10755Y24560
X10699Y23819
X11880Y23809
X11777Y24555
X14016Y24626
X15063Y24482
X15247Y24693
X15876
X16504
X17132
X17760
X18388
X19016
X19644
X20272
X20900
X21099Y23852
X20815Y23535
X20750Y22992
X21157Y23158
X20157
X19791Y23310
X19739Y22848
X19956Y22565
X19777Y22263
X19385Y22508
X18913Y22334
X18657Y22158
X17918Y22289
X17657Y22158
X16657
X16437Y22328
X15542Y22282
X15049Y22323
X15007Y22891
X15157Y23158
X15157Y23610
X15415Y23852
X16552
X16157Y23158
X18157
X19157
X18991Y22880
X18964Y23454
X18825Y23852
X17689
X19962
X20723Y22407
X20657Y22158
X21066Y22088
X14464Y21821
X13838Y21828
X13750Y21442
X13657Y22158
X13946Y22302
X13287Y21841
X21657Y22158
X22657
X23657
X24657
X25657
X26657
X27657
X28657
X29657
X30657
X31657
X32657
X33657
X34657
X35657
X36657
X36157Y23158
X35879Y23852
X35975Y24693
X35347
X34719
X34091
X33462
X32834
X32206
X31578
X30950
X30322
X29694
X29066
X28438
X27810
X27181
X26553
X25925
X25297
X24669
X24041
X23413
X22785
X22157
X21528
X22236Y23852
X22157Y23158
X23157
X23373Y23852
X24510
X24157Y23158
X25157
X26157
X27157
X28157
X27921Y23852
X26784
X25647
X29058
X29157Y23158
X30157
X30195Y23852
X31332
X31157Y23158
X32157
X33157
X34157
X35157
X34743Y23852
X33606
X32469
X37016
X36603Y24693
X37231
X37859
X38487
X39115
X39744
X40372
X41000
X41628
X42256
X42884
X43512
X44140
X44768
X45396
X46025
X46653
X47281
X47909
X48537
X49165
X49793
X50421
X51049
X51678
X51657Y24158
X52306Y24693
X52157Y23158
X51157
X50841Y23318
X50603Y23271
X50341Y23318
X50048Y23287
X49841Y23318
X49596Y23311
X49341Y23318
X49157Y23158
X48841Y23318
X48600Y23293
X48341Y23318
X48157Y23158
X47910Y22951
X47505Y22990
X47574Y23297
X47341Y23318
X47135Y23251
X46841Y23318
X46592Y23319
X46341Y23318
X46157Y23158
X45977Y22609
X46048Y22103
X46220Y21575
X46588Y21654
X47095Y21671
X47690Y21631
X48198Y21564
X49951Y21614
X50645Y21706
X51091Y21671
X51657Y22158
X50306Y23015
X49629Y23020
X48620Y22975
X46765Y22974
X45482Y23061
X45492Y21860
X44657Y22158
X42657
X41657
X40657
X39657
X38657
X37657
X37157Y23158
X38157
X38153Y23852
X39290
X39157Y23158
X40157
X40427Y23852
X41564
X41157Y23158
X42157
X43157
X43657Y24158
X42657
X44657
X45657
X52657
X52934Y24693
X53562
X54190
X54818
X54657Y24158
X53657
X53157Y23158
X54157
X54657Y22158
X55030Y21978
X55059Y21527
X55669Y22362
X56063
X56657Y22158
X56667Y21532
X56157Y23158
X56657Y24158
X56702Y24693
X56074
X53657Y22158
X52657
T04
X2526Y8364
Y10639
Y14362
Y16638
T05
X1850Y21457
Y24134
T06
X8146Y853
X11146Y453
Y1253
T07
X3150Y1969
X17323
X41732Y1969
X4961Y23032
X17323Y23032
X44528
M30
