M48
;Layer_Color=9474304
;FILE_FORMAT=2:4
INCH,TZ
;TYPE=PLATED
T01F00S00C0.0039
;TYPE=NON_PLATED
%
T01
X1072Y3794
X3730
X6614Y4843
X7285Y4882
X8465Y4045
X9222Y4104
X9961Y3839
X10758Y3848
X11574Y4412
Y4569
Y4727
Y4884
X11583Y5321
X12059Y5061
X12059Y4392
X12309Y4412
X12692Y4569
X12975Y4963
X12536Y5319
X13807Y5189
X13699Y5609
X13848Y4648
X13965Y4264
X21325Y4000
X22323
X23323
X24323Y4003
X25323Y4000
X26323Y4000
X27323Y4000
X28323
X30323Y4001
X31323Y4004
X32323Y4000
X37394Y10198
X37394Y10733
X37186Y10735
X37619Y10733
X37539Y11144
X37638Y11528
X37541Y12070
X37224Y12068
X37573Y14000
X38573
X39573Y14427
X38573Y16000
X37573
X40965Y16860
X42687Y16900
X44094Y16870
X45748Y17368
X45965Y17392
X46988Y17116
X47520Y17726
X47904Y18012
X48189Y17368
X48445Y17392
X48228Y17126
X48189Y18825
X48445Y18849
X47549Y18691
X47382Y19449
X45896Y19459
X45728Y18622
X44085Y19518
X42234Y19528
X41505Y12457
X41348Y12075
X41121Y11691
X41776Y11534
X41505Y11174
X41314Y10294
X40476
X42152
X42573Y9323
X38506Y10380
X40463Y12359
X47290Y11890
X47553Y11954
X47685Y12502
X47832Y12380
X48019Y12252
X48184Y12377
X48725Y12370
X48536Y12135
X48505Y12720
X48966Y12673
X49201Y12854
X49339
X49476
X49614
X49752
X49890
X50028
Y12992
X49890
Y13130
Y13268
X50028
Y13406
X49890
Y13543
X50028
Y13681
Y13819
X49890
Y13681
X49752
X49614
Y13819
X49752
Y13543
X49614
X49476
Y13681
X49339
X49201
Y13819
X49339
X49476
X49339Y13543
X49201
Y13406
Y13268
Y13130
Y12992
X49339
X49476
Y13130
Y13268
Y13406
X49339
Y13268
Y13130
X49614
Y12992
X49752
Y13130
X50165
Y12992
Y12854
X50453Y12730
X50401Y12619
X50462Y12389
X50644Y12517
X50850Y12289
X51223Y12400
X51266Y12724
X51277Y13080
X51069Y12951
X50934Y13451
X51217Y13447
X51458Y13450
X51701Y13490
X51614Y13087
X52446Y12851
X52349Y13556
X50861Y13731
X50612Y13450
X50303Y13543
X50165
Y13681
X50165Y13820
X50303Y13819
X50165Y13406
X50464Y13091
X50489Y11859
X50217Y11891
X50127Y11611
X49697Y11648
X49486Y11787
X49247Y11648
X49271Y11466
X49027Y11647
X48632Y11475
X49247Y12078
X49063Y13957
X49761Y14115
X49881
X49499Y14625
X49557Y14790
Y15014
X49321Y15014
Y14790
X49043Y15000
X49153Y15543
X50028Y15750
X50333Y15032
X50108Y17195
X48298Y13803
X48002Y13924
X47564Y13717
X47445Y14326
X47310Y14451
X48322Y9897
X48887Y9902
X48887Y7539
X48335Y7666
X51675Y11829
X36178Y11600
X36178Y10762
X36959Y10732
X36172Y12438
X36573Y14427
Y16000
X27323
X25608Y17283
X24319Y18001
X23654Y17762
X23323Y18126
X22592Y17883
X22323Y17638
X21619Y17449
X21788Y18347
X22323Y16000
X23323Y15714
X24323Y16000
Y14000
X23323
X22323
Y11025
X21587Y10888
X21835Y10387
X22323Y9439
X23743Y8146
X23794Y7925
X23323Y6000
X24321
X25323
X26325
X27319Y6409
X28323Y6001
X30322Y6000
X31323
X32323Y6001
X27014Y10642
X26766Y11639
X26323Y11774
Y12586
X25735Y12140
X25323Y12263
X24859Y12599
X25513Y12949
X27323Y12510
X27739Y11901
X28749Y12636
X28653Y14162
X25875Y10238
X24323Y11216
X22323Y6000
X21323Y6001
X13965Y6288
X13848Y6672
X13807Y7213
X13699Y7628
X13698Y7852
X13848Y8649
X13423
X12975Y8964
X12542Y8570
X12310Y8413
X11263Y8511
Y8292
Y8730
Y8949
X11583Y7344
X11574Y6908
Y6751
Y6593
Y6436
X12059Y6416
X12525Y6436
X12692Y6593
X12975Y6987
X12536Y7343
X12059Y7085
X13493Y5834
X13699Y5833
X13807Y9190
X13964Y11179
X15062Y8075
X9360Y8366
X9518Y7598
X8966Y7510
X8760Y7667
Y7825
X9278Y7195
X7815Y6644
X7657
X7500
X7274Y6260
X7736Y6241
X7894
X8051Y6240
X6634Y6486
X6398Y6959
Y7274
X6240Y7510
Y7825
Y7982
X6024Y7402
X5817Y5837
X7343Y8850
X7500Y8849
X7657
X7815Y8849
X7972Y8849
X8130Y8849
X7579Y9203
X7483Y11043
X7704Y11044
X7924Y11044
X8145Y11045
X6815Y11969
X6781Y16555
X7264Y16566
X7726
X8199
Y17097
X9084Y17786
X9084Y17940
X9281
X9281Y17786
X9763Y18719
X9763Y19034
X10190Y19032
X10188Y18719
X9252Y19843
X9094
Y20000
X9252
X8661Y20079
X6772Y20664
X6458
X6073Y20030
X12796Y19785
X13218Y19872
X13307Y18550
X13528Y18550
X13282Y17664
X12861Y17514
X14344Y17290
X14756Y17814
X15263Y18717
X21323Y17084
X21323Y14000
X5039Y15402
Y15598
X2947Y15795
Y15205
X2805Y14106
X3130
X3120Y16900
X2792
X3524Y16638
X4335Y17431
X4435Y18238
X5207Y17901
X5221Y18583
X5301Y18858
X5089Y19183
Y19626
X5089Y19931
X5090Y20729
X4370Y19478
X510Y19304
X260Y17684
X4443Y11575
X4104Y10207
Y10008
X2947Y9600
X2947Y9403
X2787Y8105
X3120
X5669Y7185
X5640Y6821
M30
