M48
;Layer_Color=9474304
;FILE_FORMAT=2:4
INCH,TZ
;TYPE=PLATED
T02F00S00C0.0079
;TYPE=NON_PLATED
%
T02
X22323Y4000
X23323
X23616Y3683
X24650Y3829
X25323Y4000
X36496Y4392
X37022Y3830
X36634Y5394
X37608Y5602
X38497Y5195
X38652Y4597
X37477Y4220
X37295Y3633
X41488Y4001
X41609Y6001
X41731Y6214
X39573Y5800
X37150Y6393
X37394Y10198
X37186Y10735
X37619Y10733
X37754Y12854
X37573Y14000
X38573
X39573Y14427
X39086Y12811
X40451Y12908
X41505Y12457
X41987Y12973
X43535Y13015
X44426Y12973
X45469Y13048
X46100Y12891
X46249Y13132
X46460Y13325
X47096Y13449
X46921Y12754
X47776Y12875
X47916Y13228
X48094Y13121
X48815Y13191
X48832Y13409
X49035Y13551
X48832Y13758
X49157Y13841
X49771Y13700
X49995Y13658
X50164Y13463
X50179Y13209
X50061Y13009
X49861Y12934
X49600Y12926
X49314Y12974
X49015Y12988
X49661Y12398
X50213Y12613
X49928Y11736
X50750
X50720Y13451
X51050Y13902
X52082Y13912
X50076Y14134
X50071Y14679
X50562Y14708
X50591Y15316
X50043Y15294
X49983Y15718
X49504Y15201
X49307
X49430Y14589
X49585Y14219
X50530Y16221
X49623Y17853
X48911Y18271
X47538Y18137
X46381Y18175
X46694Y17672
X47208Y17105
X45867Y17146
X45593Y16562
X44532Y16568
X44499Y17057
X44748Y17873
X42802Y17907
X42786Y17026
X43233Y16568
X41806Y16571
X41379Y17034
X41518Y17913
X40321Y17948
X40182Y17057
X40472Y16595
X39137
X38573Y16000
X37573
X37871Y16541
X38256Y17098
X38262Y17325
X37573Y17645
X37561Y17903
X37234Y17204
X39141Y17902
X40618Y21273
X42522Y19733
X43856Y19665
X45397Y19690
X45928Y12573
X47901Y11899
X48391Y12311
X48696Y11693
X49054Y11485
X48322Y11150
X48322Y9897
X48887Y9902
X51699Y7175
X51550Y7017
X52082Y6929
X36932Y9845
X36039Y10029
X35104Y10015
X34369Y9996
X33177
X32052Y10008
X30905Y10042
X30504Y10696
X29623Y10344
X29136Y10042
X29117Y10782
X28752Y11822
X28752Y12425
X29124Y12356
X29586Y11947
X30140Y12372
X30818Y12014
X31348Y12409
X32125Y11965
X32747Y12409
X33388Y11977
X34042Y12372
X34812Y11953
X35280Y12360
X36217Y12329
X36303Y11885
X36722Y12908
X36573Y14427
Y16000
X36394Y16559
X35416Y16553
X34213Y16588
X33077Y16560
X32081Y16577
X31061Y16565
X29982Y16571
X29027Y16560
X28361Y16583
X27691Y16566
X27010
X27323Y16000
X26085Y16530
X25154Y16578
X24899Y17103
X24223Y16554
X23972Y16261
X24323Y16000
X23323Y15714
X23004Y16128
X22323Y16000
X21905Y17091
X23298Y17103
X23323Y18126
X22592Y17883
X21985Y18466
X22323Y14000
X23323
X24323
X24445Y12383
X24859Y12599
X25513Y12949
X26323Y12586
X28126Y12379
X28046Y11842
X27940Y10154
X27939Y6145
X25323Y6000
X24229Y6409
X22323Y6000
X32596Y21180
X21323Y14000
X15873Y17283
X15472Y17573
X15582Y17788
X15728Y18001
X15404Y11025
X15259Y10888
X15266Y10394
X14993Y9439
X12823Y7852
Y5836
X10264Y9314
M30
