G04*
G04 #@! TF.GenerationSoftware,Altium Limited,Altium Designer,25.8.1 (18)*
G04*
G04 Layer_Color=32768*
%FSLAX24Y24*%
%MOIN*%
G70*
G04*
G04 #@! TF.SameCoordinates,BD92749D-DAB3-424A-A086-50895A4BE64C*
G04*
G04*
G04 #@! TF.FilePolarity,Positive*
G04*
G01*
G75*
%ADD10C,0.0039*%
%ADD13C,0.0050*%
%ADD101C,0.0020*%
%ADD102C,0.0020*%
%ADD103C,0.0013*%
D10*
X8555Y13957D02*
G03*
X8555Y13957I-39J0D01*
G01*
X14271Y7824D02*
G03*
X14729Y7824I229J32D01*
G01*
X14729Y7922D02*
G03*
X14271Y7922I-229J-32D01*
G01*
X15771Y7824D02*
G03*
X16229Y7824I229J32D01*
G01*
Y7922D02*
G03*
X15771Y7922I-229J-32D01*
G01*
X16521Y7824D02*
G03*
X16979Y7824I229J32D01*
G01*
Y7922D02*
G03*
X16521Y7922I-229J-32D01*
G01*
X15021Y7824D02*
G03*
X15479Y7824I229J32D01*
G01*
Y7922D02*
G03*
X15021Y7922I-229J-32D01*
G01*
X16979Y7299D02*
G03*
X16521Y7299I-229J-32D01*
G01*
Y7201D02*
G03*
X16979Y7201I229J32D01*
G01*
X15479Y7299D02*
G03*
X15021Y7299I-229J-32D01*
G01*
Y7201D02*
G03*
X15479Y7201I229J32D01*
G01*
X14729Y7299D02*
G03*
X14271Y7299I-229J-32D01*
G01*
Y7201D02*
G03*
X14729Y7201I229J32D01*
G01*
X16229Y7299D02*
G03*
X15771Y7299I-229J-32D01*
G01*
Y7201D02*
G03*
X16229Y7201I229J32D01*
G01*
X12798Y19071D02*
G03*
X12798Y19071I-98J0D01*
G01*
X1335Y12485D02*
G03*
X1696Y12485I181J32D01*
G01*
Y12602D02*
G03*
X1335Y12602I-181J-32D01*
G01*
X9756Y13057D02*
G03*
X9681Y13057I-37J0D01*
G01*
X9599D02*
G03*
X9524Y13057I-37J0D01*
G01*
X9441D02*
G03*
X9366Y13057I-37J0D01*
G01*
X9284D02*
G03*
X9209Y13057I-37J0D01*
G01*
X9127D02*
G03*
X9052Y13057I-37J0D01*
G01*
X8969D02*
G03*
X8894Y13057I-37J0D01*
G01*
X8812D02*
G03*
X8737Y13057I-37J0D01*
G01*
X8654D02*
G03*
X8579Y13057I-37J0D01*
G01*
X8497D02*
G03*
X8422Y13057I-37J0D01*
G01*
X8339D02*
G03*
X8264Y13057I-37J0D01*
G01*
X8182D02*
G03*
X8107Y13057I-37J0D01*
G01*
X9914D02*
G03*
X9839Y13057I-37J0D01*
G01*
X9913Y12636D02*
G03*
X9913Y12636I-126J0D01*
G01*
X7791Y12762D02*
G03*
X7791Y12687I0J-37D01*
G01*
Y11030D02*
G03*
X7791Y10955I0J-37D01*
G01*
Y11187D02*
G03*
X7791Y11112I0J-37D01*
G01*
Y11345D02*
G03*
X7791Y11270I0J-37D01*
G01*
X7791Y11502D02*
G03*
X7791Y11427I0J-37D01*
G01*
Y11660D02*
G03*
X7791Y11585I0J-37D01*
G01*
Y11817D02*
G03*
X7791Y11742I0J-37D01*
G01*
X7791Y11975D02*
G03*
X7791Y11900I0J-37D01*
G01*
X7791Y12132D02*
G03*
X7791Y12057I0J-37D01*
G01*
X7791Y12290D02*
G03*
X7791Y12215I0J-37D01*
G01*
Y12447D02*
G03*
X7791Y12372I0J-37D01*
G01*
Y12605D02*
G03*
X7791Y12530I0J-37D01*
G01*
X8086Y10639D02*
G03*
X8161Y10639I37J0D01*
G01*
X9818D02*
G03*
X9893Y10639I37J0D01*
G01*
X9661D02*
G03*
X9736Y10639I37J0D01*
G01*
X9503D02*
G03*
X9578Y10639I37J0D01*
G01*
X9346Y10639D02*
G03*
X9421Y10639I37J0D01*
G01*
X9188D02*
G03*
X9263Y10639I37J0D01*
G01*
X9031D02*
G03*
X9106Y10639I37J0D01*
G01*
X8873Y10639D02*
G03*
X8948Y10639I37J0D01*
G01*
X8716Y10639D02*
G03*
X8791Y10639I37J0D01*
G01*
X8559Y10639D02*
G03*
X8634Y10639I37J0D01*
G01*
X8401D02*
G03*
X8476Y10639I37J0D01*
G01*
X8244D02*
G03*
X8319Y10639I37J0D01*
G01*
X10209Y10934D02*
G03*
X10209Y11009I0J37D01*
G01*
Y12667D02*
G03*
X10209Y12742I0J37D01*
G01*
Y12509D02*
G03*
X10209Y12584I0J37D01*
G01*
Y12352D02*
G03*
X10209Y12427I0J37D01*
G01*
X10209Y12194D02*
G03*
X10209Y12269I0J37D01*
G01*
Y12037D02*
G03*
X10209Y12112I0J37D01*
G01*
Y11879D02*
G03*
X10209Y11954I0J37D01*
G01*
X10209Y11722D02*
G03*
X10209Y11797I0J37D01*
G01*
X10209Y11564D02*
G03*
X10209Y11639I0J37D01*
G01*
X10209Y11407D02*
G03*
X10209Y11482I0J37D01*
G01*
Y11249D02*
G03*
X10209Y11324I0J37D01*
G01*
Y11092D02*
G03*
X10209Y11167I0J37D01*
G01*
X16666Y12611D02*
G03*
X16305Y12611I-181J-32D01*
G01*
X16305Y12494D02*
G03*
X16666Y12494I181J32D01*
G01*
X8528Y13874D02*
X8528Y13825D01*
X8428Y13874D02*
Y14169D01*
X8528Y13825D02*
X8606D01*
X8528Y14169D02*
X8528Y14218D01*
X8606Y14169D02*
X8606Y14218D01*
X8528Y14218D02*
X8606D01*
X8428Y14169D02*
X9098D01*
X8428Y13874D02*
X9098D01*
X8724Y13825D02*
X8803D01*
X8724Y13825D02*
X8724Y13874D01*
X8606Y13825D02*
Y13874D01*
X8803Y13825D02*
X8803Y13874D01*
X8921Y13825D02*
X9000D01*
X8921Y13825D02*
X8921Y13874D01*
X9000Y13825D02*
X9000Y13874D01*
X8724Y14174D02*
X8724Y14223D01*
X8803Y14174D02*
X8803Y14223D01*
X8724Y14223D02*
X8803D01*
X9000Y14169D02*
Y14218D01*
X9098Y13874D02*
Y14169D01*
X8921Y14218D02*
X8921Y14169D01*
X8921Y14218D02*
X9000D01*
X7913Y3199D02*
Y6236D01*
X7587Y3199D02*
Y6236D01*
X7913D01*
X7587Y5929D02*
X7913D01*
X7587Y5061D02*
X7913D01*
X7150Y3411D02*
X7374Y3411D01*
Y3199D02*
Y3411D01*
X4150Y61D02*
X17350Y61D01*
X8374Y3411D02*
X8374Y3199D01*
X8126Y3411D02*
X8126Y3199D01*
X7374D02*
X8126D01*
X8126Y3411D02*
X8374D01*
X8913Y3199D02*
X8913Y6236D01*
X8587Y3199D02*
Y6236D01*
X8913D01*
X8587Y5929D02*
X8913D01*
X8587Y5061D02*
X8913D01*
X9374Y3199D02*
Y3411D01*
X9126Y3199D02*
Y3411D01*
X8374Y3199D02*
X9126D01*
Y3411D02*
X9374D01*
X9913Y3199D02*
Y6236D01*
X9587Y3199D02*
X9587Y6236D01*
X9913D01*
X9587Y5929D02*
X9913D01*
X9587Y5061D02*
X9913D01*
X10374Y3199D02*
Y3411D01*
X10126Y3199D02*
Y3411D01*
X9374Y3199D02*
X10126D01*
Y3411D02*
X10374D01*
X10913Y3199D02*
Y6236D01*
X10587D02*
X10587Y3199D01*
X10587Y6236D02*
X10913D01*
X10587Y5929D02*
X10913D01*
X10587Y5061D02*
X10913D01*
X11374Y3199D02*
Y3411D01*
X11126Y3199D02*
Y3411D01*
X10374Y3199D02*
X11126D01*
Y3411D02*
X11374D01*
X11913Y3199D02*
Y6236D01*
X11587Y3199D02*
Y6236D01*
X11913D01*
X11587Y5929D02*
X11913D01*
X11587Y5061D02*
X11913D01*
X12374Y3199D02*
Y3411D01*
X12126Y3199D02*
Y3411D01*
X11374Y3199D02*
X12126D01*
Y3411D02*
X12374D01*
X12913Y3199D02*
Y6236D01*
X12587Y3199D02*
Y6236D01*
X12913D01*
X12587Y5929D02*
X12913D01*
X12587Y5061D02*
X12913D01*
X13374Y3199D02*
Y3411D01*
X13126Y3199D02*
Y3411D01*
X12374Y3199D02*
X13126D01*
Y3411D02*
X13374D01*
X13913Y6236D02*
X13913Y3199D01*
X13587D02*
Y6236D01*
X13913D01*
X13587Y5929D02*
X13913D01*
X13587Y5061D02*
X13913D01*
X14374Y3199D02*
Y3411D01*
X14126Y3199D02*
Y3411D01*
X13374Y3199D02*
X14126D01*
Y3411D02*
X14374D01*
X14913Y3199D02*
Y6236D01*
X14587Y3199D02*
X14587Y6236D01*
X14913D01*
X14587Y5929D02*
X14913D01*
X14587Y5061D02*
X14913D01*
X15374Y3199D02*
Y3411D01*
X15126Y3199D02*
Y3411D01*
X14374Y3199D02*
X15126D01*
Y3411D02*
X15374D01*
X15913Y3199D02*
Y6236D01*
X15587Y3199D02*
Y6236D01*
X15913D01*
X15587Y5929D02*
X15913D01*
X15587Y5061D02*
X15913D01*
X16374Y3199D02*
X16374Y3411D01*
X16126Y3199D02*
X16126Y3411D01*
X15374Y3199D02*
X16126D01*
X16126Y3411D02*
X16374D01*
X16587Y3199D02*
Y6236D01*
X16913Y3199D02*
Y6236D01*
X16587D02*
X16913D01*
X16587Y5929D02*
X16913D01*
X16587Y5061D02*
X16913D01*
X17126Y3411D02*
X17350D01*
X17126D02*
X17126Y3199D01*
X17350Y61D02*
Y3411D01*
X16374Y3199D02*
X17126D01*
X4913Y3199D02*
Y6236D01*
X4587Y3199D02*
Y6236D01*
X4913D01*
X4587Y5929D02*
X4913D01*
X4587Y5061D02*
X4913D01*
X4150Y3411D02*
X4374Y3411D01*
Y3199D02*
Y3411D01*
X4150Y61D02*
Y3411D01*
X5374D02*
X5374Y3199D01*
X5126Y3411D02*
X5126Y3199D01*
X4374D02*
X5126D01*
X5126Y3411D02*
X5374D01*
X5913Y3199D02*
X5913Y6236D01*
X5587Y3199D02*
Y6236D01*
X5913D01*
X5587Y5929D02*
X5913D01*
X5587Y5061D02*
X5913D01*
X6374Y3199D02*
Y3411D01*
X6126Y3199D02*
Y3411D01*
X5374Y3199D02*
X6126D01*
Y3411D02*
X6374D01*
X6913Y3199D02*
Y6236D01*
X6587Y3199D02*
X6587Y6236D01*
X6913D01*
X6587Y5929D02*
X6913D01*
X6587Y5061D02*
X6913D01*
X7374Y3199D02*
Y3411D01*
X7126Y3199D02*
Y3411D01*
X6374Y3199D02*
X7126D01*
Y3411D02*
X7374D01*
X2087Y3199D02*
Y6236D01*
X2414Y3199D02*
Y6236D01*
X2087D02*
X2414D01*
X2087Y5929D02*
X2414D01*
X2087Y5061D02*
X2414D01*
X2626Y3411D02*
X2850D01*
X2626Y3199D02*
Y3411D01*
X2850Y61D02*
Y3411D01*
X1875Y3199D02*
Y3411D01*
Y3199D02*
X2626Y3199D01*
X1413Y3199D02*
Y6236D01*
X1086Y3199D02*
Y6236D01*
X1413D01*
X1086Y5929D02*
X1413D01*
X1086Y5061D02*
X1413D01*
X650Y3411D02*
X874D01*
Y3199D02*
Y3411D01*
X650Y61D02*
Y3411D01*
Y61D02*
X2850D01*
X1625Y3199D02*
Y3411D01*
X874Y3199D02*
X1625Y3199D01*
Y3411D02*
X1874D01*
X12238Y15753D02*
X12652D01*
X12238Y15536D02*
X12652D01*
X12238D02*
Y15753D01*
X12652Y15536D02*
Y15753D01*
X12593Y16335D02*
Y16748D01*
X12809Y16335D02*
Y16748D01*
X12593Y16335D02*
X12809D01*
X12593Y16748D02*
X12809D01*
X12238Y16995D02*
Y17211D01*
X12652Y16995D02*
Y17211D01*
X12238D02*
X12652D01*
X12238Y16995D02*
X12652D01*
X13163Y15881D02*
Y16097D01*
X12750Y15881D02*
Y16097D01*
Y15881D02*
X13163D01*
X12750Y16097D02*
X13163D01*
X12549Y7106D02*
Y7520D01*
X12333Y7106D02*
X12333Y7520D01*
X12549Y7520D01*
X12333Y7106D02*
X12549D01*
X12156D02*
Y7520D01*
X11939Y7106D02*
Y7520D01*
X12156D01*
X11939Y7106D02*
X12156D01*
X14539Y7824D02*
Y7922D01*
Y7824D02*
X14729D01*
X14271Y7824D02*
X14461Y7824D01*
X14539Y7922D02*
X14729D01*
X14271Y7922D02*
X14461Y7922D01*
Y7824D02*
Y7922D01*
X16039Y7824D02*
Y7922D01*
Y7824D02*
X16229D01*
X15771D02*
X15961D01*
X16039Y7922D02*
X16229Y7922D01*
X15771D02*
X15961Y7922D01*
Y7824D02*
Y7922D01*
X16789Y7824D02*
Y7922D01*
Y7824D02*
X16979D01*
X16521D02*
X16711D01*
X16789Y7922D02*
X16979D01*
X16521D02*
X16711D01*
Y7824D02*
Y7922D01*
X15289Y7824D02*
Y7922D01*
Y7824D02*
X15479D01*
X15021D02*
X15211D01*
X15289Y7922D02*
X15479D01*
X15021D02*
X15211D01*
Y7824D02*
Y7922D01*
X16521Y7299D02*
X16979D01*
X16521Y7201D02*
X16979D01*
X15021Y7299D02*
X15479Y7299D01*
X15021Y7201D02*
X15479D01*
X14271Y7299D02*
X14729D01*
X14271Y7201D02*
X14729D01*
X15771Y7201D02*
X16229D01*
X15771Y7299D02*
X16229D01*
X1903Y9252D02*
Y9382D01*
X1655Y9252D02*
Y9382D01*
Y9252D02*
X1903D01*
X1655Y9382D02*
X1903D01*
X1480Y9252D02*
Y9382D01*
X1231Y9252D02*
Y9382D01*
Y9252D02*
X1480D01*
X1231Y9382D02*
X1480D01*
X1231Y9478D02*
Y9608D01*
X1480Y9478D02*
Y9608D01*
X1231D02*
X1480D01*
X1231Y9478D02*
X1480D01*
X1309Y8671D02*
Y8893D01*
X1152D02*
X1309D01*
X1152Y8671D02*
Y8893D01*
X2057Y8671D02*
Y8893D01*
X1900D02*
X2057D01*
X1900Y8671D02*
Y8893D01*
Y7781D02*
Y8002D01*
Y7781D02*
X2057D01*
Y8002D01*
X1152Y7781D02*
Y8002D01*
Y7781D02*
X1309D01*
Y8002D01*
X1683Y7781D02*
Y8002D01*
X1526Y7781D02*
X1683D01*
X1526D02*
Y8002D01*
X994D02*
X2215D01*
X994Y8671D02*
X2215D01*
X994Y8002D02*
Y8671D01*
X2215Y8002D02*
Y8671D01*
X1171Y7431D02*
X1841D01*
X1171Y7077D02*
X1841D01*
X1171D02*
Y7431D01*
X1841Y7077D02*
Y7431D01*
X893Y8283D02*
Y8953D01*
X539Y8283D02*
Y8953D01*
X893D01*
X539Y8283D02*
X893D01*
X10416Y19760D02*
X10983Y19254D01*
Y19760D02*
X11550Y19254D01*
X11109Y19478D02*
X11676Y18972D01*
X10542Y19478D02*
X11109Y18972D01*
X10416D02*
X10542D01*
X11550Y19760D02*
X11676D01*
X10983Y19254D02*
Y19760D01*
X11109Y18972D02*
Y19478D01*
X11676Y18972D02*
Y19760D01*
X10416Y18972D02*
Y19760D01*
X11550Y19254D02*
Y19760D01*
X10542Y18972D02*
Y19478D01*
X10141Y18776D02*
Y19957D01*
Y18776D02*
X12897D01*
Y19957D01*
X10141D02*
X12897D01*
X12593Y17860D02*
X12809D01*
X12593Y17447D02*
X12809D01*
Y17860D01*
X12593Y17447D02*
Y17860D01*
X1335Y12602D02*
X1417D01*
X1335Y12485D02*
X1417D01*
X1614D02*
X1696D01*
X1417D02*
Y12602D01*
X1614Y12485D02*
Y12602D01*
X1696D01*
X10473Y8476D02*
Y8606D01*
X10225Y8476D02*
Y8606D01*
Y8476D02*
X10473D01*
X10225Y8606D02*
X10473D01*
X11318Y12782D02*
Y13137D01*
X10649Y12782D02*
Y13137D01*
Y12782D02*
X11318D01*
X10649Y13137D02*
X11318D01*
X10349Y13406D02*
Y13536D01*
X10101Y13406D02*
Y13536D01*
Y13406D02*
X10349D01*
X10101Y13536D02*
X10349D01*
X9187Y9200D02*
X9317D01*
X9187Y8951D02*
X9317D01*
Y9200D01*
X9187Y8951D02*
Y9200D01*
X10047Y9505D02*
Y9918D01*
X10264Y9505D02*
Y9918D01*
X10047Y9505D02*
X10264D01*
X10047Y9918D02*
X10264D01*
X10376Y9650D02*
X10593D01*
X10376Y10064D02*
X10593D01*
X10376Y9650D02*
Y10064D01*
X10593Y9650D02*
Y10064D01*
X7900Y13680D02*
X8030D01*
X7900Y13432D02*
X8030D01*
Y13680D01*
X7900Y13432D02*
Y13680D01*
X8143Y13634D02*
X8273D01*
X8143Y13883D02*
X8273D01*
X8143Y13634D02*
Y13883D01*
X8273Y13634D02*
Y13883D01*
X7415Y13667D02*
Y14336D01*
X7770Y13667D02*
Y14336D01*
X7415Y13667D02*
X7770D01*
X7415Y14336D02*
X7770D01*
X7788Y9675D02*
Y10345D01*
X7434Y9675D02*
Y10345D01*
X7788D01*
X7434Y9675D02*
X7788D01*
X7259Y8575D02*
Y9245D01*
X7613Y8575D02*
Y9245D01*
X7259Y8575D02*
X7613D01*
X7259Y9245D02*
X7613D01*
X8698Y10327D02*
X8828D01*
X8698Y10079D02*
X8828D01*
Y10327D01*
X8698Y10079D02*
Y10327D01*
X9585Y9816D02*
X9939D01*
X9585Y9147D02*
X9939D01*
Y9816D01*
X9585Y9147D02*
Y9816D01*
X6540Y13004D02*
X7209D01*
X6540Y13359D02*
X7209D01*
Y13004D02*
Y13359D01*
X6540Y13004D02*
Y13359D01*
X6970Y12517D02*
Y12647D01*
X7218Y12517D02*
Y12647D01*
X6970D02*
X7218D01*
X6970Y12517D02*
X7218D01*
X7026Y12236D02*
Y12366D01*
X7274Y12236D02*
Y12366D01*
X7026D02*
X7274D01*
X7026Y12236D02*
X7274D01*
X6593Y10963D02*
X7006D01*
X6593Y11179D02*
X7006D01*
Y10963D02*
Y11179D01*
X6593Y10963D02*
Y11179D01*
X6865Y10597D02*
X7278D01*
X6865Y10813D02*
X7278D01*
Y10597D02*
Y10813D01*
X6865Y10597D02*
Y10813D01*
X8775Y8729D02*
Y9713D01*
X7988Y8729D02*
X8775D01*
X7988D02*
Y9713D01*
X8775D01*
X11251Y11483D02*
Y11613D01*
X11500Y11483D02*
Y11613D01*
X11251D02*
X11500D01*
X11251Y11483D02*
X11500D01*
X11500Y12184D02*
Y12314D01*
X11251Y12184D02*
Y12314D01*
Y12184D02*
X11500D01*
X11251Y12314D02*
X11500D01*
X11251Y11711D02*
Y11841D01*
X11500Y11711D02*
Y11841D01*
X11251D02*
X11500D01*
X11251Y11711D02*
X11500D01*
X11411Y13453D02*
Y13748D01*
X11115Y13453D02*
Y13748D01*
X11411D01*
X11115Y13453D02*
X11411D01*
X7819Y10667D02*
Y13029D01*
X10181Y10667D02*
Y13029D01*
X7819Y10667D02*
X10181D01*
X9681Y13029D02*
Y13057D01*
X9756Y13029D02*
Y13057D01*
X9524Y13029D02*
Y13057D01*
X9599Y13029D02*
Y13057D01*
X9366Y13029D02*
Y13057D01*
X9441Y13029D02*
Y13057D01*
X9209Y13029D02*
Y13057D01*
X9284Y13029D02*
Y13057D01*
X9052Y13029D02*
Y13057D01*
X9127Y13029D02*
Y13057D01*
X8894Y13029D02*
Y13057D01*
X8969Y13029D02*
Y13057D01*
X8737Y13029D02*
Y13057D01*
X8812Y13029D02*
Y13057D01*
X8579Y13029D02*
Y13057D01*
X8654Y13029D02*
Y13057D01*
X8422Y13029D02*
Y13057D01*
X8497Y13029D02*
Y13057D01*
X8264Y13029D02*
Y13057D01*
X8339Y13029D02*
Y13057D01*
X8107Y13029D02*
Y13057D01*
X8182Y13029D02*
Y13057D01*
X9839Y13029D02*
Y13057D01*
X9914Y13029D02*
Y13057D01*
X7819Y13029D02*
X10181D01*
X7791Y12762D02*
X7819D01*
X7791Y12687D02*
X7819D01*
X7791Y11030D02*
X7819D01*
X7791Y10955D02*
X7819D01*
X7791Y11187D02*
X7819D01*
X7791Y11112D02*
X7819D01*
X7791Y11345D02*
X7819D01*
X7791Y11270D02*
X7819D01*
X7791Y11502D02*
X7819D01*
X7791Y11427D02*
X7819D01*
X7791Y11660D02*
X7819D01*
X7791Y11585D02*
X7819Y11585D01*
X7791Y11817D02*
X7819D01*
X7791Y11742D02*
X7819D01*
X7791Y11975D02*
X7819D01*
X7791Y11900D02*
X7819D01*
X7791Y12132D02*
X7819Y12132D01*
X7791Y12057D02*
X7819D01*
X7791Y12290D02*
X7819Y12290D01*
X7791Y12215D02*
X7819D01*
X7791Y12447D02*
X7819D01*
X7791Y12372D02*
X7819D01*
X7791Y12605D02*
X7819Y12605D01*
X7791Y12530D02*
X7819D01*
X8086Y10639D02*
Y10667D01*
X8161Y10639D02*
Y10667D01*
X9818Y10639D02*
Y10667D01*
X9893Y10639D02*
Y10667D01*
X9661Y10639D02*
Y10667D01*
X9736Y10639D02*
Y10667D01*
X9503Y10639D02*
Y10667D01*
X9578Y10639D02*
Y10667D01*
X9346Y10639D02*
Y10667D01*
X9421Y10639D02*
Y10667D01*
X9188Y10639D02*
Y10667D01*
X9263D02*
X9263Y10639D01*
X9031Y10639D02*
Y10667D01*
X9106Y10639D02*
Y10667D01*
X8873Y10639D02*
Y10667D01*
X8948Y10639D02*
Y10667D01*
X8716Y10639D02*
X8716Y10667D01*
X8791Y10639D02*
Y10667D01*
X8559D02*
X8559Y10639D01*
X8634Y10639D02*
Y10667D01*
X8401Y10639D02*
Y10667D01*
X8476Y10639D02*
Y10667D01*
X8244D02*
X8244Y10639D01*
X8319Y10639D02*
Y10667D01*
X10181Y10934D02*
X10209D01*
X10181Y11009D02*
X10209D01*
X10181Y12667D02*
X10209D01*
X10181Y12742D02*
X10209D01*
X10181Y12509D02*
X10209D01*
X10181Y12584D02*
X10209D01*
X10181Y12352D02*
X10209D01*
X10181Y12427D02*
X10209D01*
X10181Y12194D02*
X10209D01*
X10181Y12269D02*
X10209D01*
X10181Y12037D02*
X10209D01*
X10181Y12112D02*
X10209Y12112D01*
X10181Y11879D02*
X10209D01*
X10181Y11954D02*
X10209D01*
X10181Y11722D02*
X10209D01*
X10181Y11797D02*
X10209D01*
X10181Y11564D02*
X10209Y11564D01*
X10181Y11639D02*
X10209D01*
X10181Y11407D02*
X10209Y11407D01*
X10181Y11482D02*
X10209D01*
X10181Y11249D02*
X10209D01*
X10181Y11324D02*
X10209D01*
X10181Y11092D02*
X10209Y11092D01*
X10181Y11167D02*
X10209D01*
X6669Y11406D02*
Y12036D01*
X7141D01*
Y11406D02*
Y12036D01*
X6669Y11406D02*
X7141D01*
X7093Y12780D02*
Y12910D01*
X7341Y12780D02*
Y12910D01*
X7093D02*
X7341D01*
X7093Y12780D02*
X7341D01*
X16584Y12494D02*
X16666Y12494D01*
X16584Y12611D02*
X16666D01*
X16305Y12611D02*
X16387Y12611D01*
X16584Y12494D02*
X16584Y12611D01*
X16387Y12494D02*
X16387Y12611D01*
X16305Y12494D02*
X16387Y12494D01*
X361Y14539D02*
X991D01*
X361Y12539D02*
Y12571D01*
X991Y12539D02*
Y12571D01*
X1109Y11689D02*
Y12421D01*
Y12689D02*
Y13421D01*
X243Y11689D02*
Y12421D01*
Y12689D02*
Y13421D01*
Y12689D02*
X361Y12571D01*
X991D02*
X1109Y12689D01*
X991Y12539D02*
X1109Y12421D01*
X243D02*
X361Y12539D01*
X243Y13421D02*
X361Y13539D01*
X991Y11571D02*
X1109Y11689D01*
X361Y11571D02*
X991D01*
X243Y11689D02*
X361Y11571D01*
X991Y13539D02*
X1109Y13421D01*
X554Y11941D02*
X790D01*
X554Y12178D02*
X790Y12178D01*
X554Y12941D02*
X790D01*
X554Y13178D02*
X790D01*
Y12941D02*
Y13178D01*
Y11941D02*
Y12178D01*
X554Y12941D02*
Y13178D01*
Y12178D02*
X554Y11941D01*
X554Y13941D02*
Y14178D01*
X790Y13941D02*
Y14178D01*
X554D02*
X790D01*
X554Y13941D02*
X790D01*
X991Y14539D02*
X1109Y14421D01*
X243D02*
X361Y14539D01*
X991Y13571D02*
X1109Y13689D01*
X243Y13689D02*
X361Y13571D01*
X243Y13689D02*
Y14421D01*
X1109Y13689D02*
Y14421D01*
X991Y13539D02*
Y13571D01*
X361Y13539D02*
Y13571D01*
X11251Y11157D02*
Y11287D01*
X11500Y11157D02*
Y11287D01*
X11251D02*
X11500D01*
X11251Y11157D02*
X11500D01*
X11251Y10929D02*
Y11059D01*
X11500Y10929D02*
Y11059D01*
X11251D02*
X11500D01*
X11251Y10929D02*
X11500D01*
X17009Y13539D02*
Y13571D01*
X17639Y13539D02*
Y13571D01*
X17757Y13689D02*
Y14421D01*
X16891Y13689D02*
Y14421D01*
Y13689D02*
X17009Y13571D01*
X17639D02*
X17757Y13689D01*
X16891Y14421D02*
X17009Y14539D01*
X17639D02*
X17757Y14421D01*
X17201Y13941D02*
X17438D01*
X17201Y14178D02*
X17438D01*
Y13941D02*
Y14178D01*
X17201Y13941D02*
Y14178D01*
Y12178D02*
X17201Y11941D01*
X17201Y12941D02*
Y13178D01*
X17438Y11941D02*
Y12178D01*
Y12941D02*
Y13178D01*
X17201D02*
X17438D01*
X17201Y12941D02*
X17438D01*
X17201Y12178D02*
X17438Y12178D01*
X17201Y11941D02*
X17438D01*
X17639Y13539D02*
X17757Y13421D01*
X16891Y11689D02*
X17009Y11571D01*
X17639D01*
X17757Y11689D01*
X16891Y13421D02*
X17009Y13539D01*
X16891Y12421D02*
X17009Y12539D01*
X17639D02*
X17757Y12421D01*
X17639Y12571D02*
X17757Y12689D01*
X16891Y12689D02*
X17009Y12571D01*
X16891Y12689D02*
Y13421D01*
Y11689D02*
Y12421D01*
X17757Y12689D02*
Y13421D01*
Y11689D02*
Y12421D01*
X17639Y12539D02*
Y12571D01*
X17009Y12539D02*
Y12571D01*
Y14539D02*
X17639D01*
D13*
X11204Y13521D02*
G03*
X11204Y13521I-20J0D01*
G01*
D101*
X8763Y14084D02*
X8683D01*
Y14024D01*
X8723D01*
X8683D01*
Y13964D01*
X8803D02*
X8843D01*
X8823D01*
Y14084D01*
X8803Y14064D01*
X2650Y1475D02*
Y1595D01*
X2710D01*
X2730Y1575D01*
Y1535D01*
X2710Y1515D01*
X2650D01*
X2850Y1475D02*
X2770D01*
X2850Y1555D01*
Y1575D01*
X2830Y1595D01*
X2790D01*
X2770Y1575D01*
X12365Y15685D02*
X12345Y15705D01*
X12305D01*
X12285Y15685D01*
Y15605D01*
X12305Y15585D01*
X12345D01*
X12365Y15605D01*
X12485Y15585D02*
X12405D01*
X12485Y15665D01*
Y15685D01*
X12465Y15705D01*
X12425D01*
X12405Y15685D01*
X12585Y15585D02*
Y15705D01*
X12525Y15645D01*
X12605D01*
X12761Y16391D02*
X12641D01*
Y16451D01*
X12661Y16471D01*
X12701D01*
X12721Y16451D01*
Y16391D01*
Y16431D02*
X12761Y16471D01*
Y16511D02*
Y16551D01*
Y16531D01*
X12641D01*
X12661Y16511D01*
X12641Y16691D02*
X12661Y16651D01*
X12701Y16611D01*
X12741D01*
X12761Y16631D01*
Y16671D01*
X12741Y16691D01*
X12721D01*
X12701Y16671D01*
Y16611D01*
X12345Y17163D02*
Y17043D01*
X12425D01*
X12545D02*
X12465D01*
X12545Y17123D01*
Y17143D01*
X12525Y17163D01*
X12485D01*
X12465Y17143D01*
X12857Y16049D02*
Y15929D01*
X12937D01*
X13037D02*
Y16049D01*
X12977Y15989D01*
X13057D01*
X12501Y7213D02*
X12381D01*
Y7273D01*
X12401Y7293D01*
X12441D01*
X12461Y7273D01*
Y7213D01*
Y7253D02*
X12501Y7293D01*
X12401Y7333D02*
X12381Y7353D01*
Y7393D01*
X12401Y7413D01*
X12421D01*
X12441Y7393D01*
Y7373D01*
Y7393D01*
X12461Y7413D01*
X12481D01*
X12501Y7393D01*
Y7353D01*
X12481Y7333D01*
X12107Y7233D02*
X11987D01*
Y7293D01*
X12007Y7313D01*
X12047D01*
X12067Y7293D01*
Y7233D01*
Y7273D02*
X12107Y7313D01*
Y7353D02*
Y7393D01*
Y7373D01*
X11987D01*
X12007Y7353D01*
X1956Y9257D02*
Y9377D01*
X2016D01*
X2036Y9357D01*
Y9317D01*
X2016Y9297D01*
X1956D01*
X1996D02*
X2036Y9257D01*
X2076Y9377D02*
X2156D01*
Y9357D01*
X2076Y9277D01*
Y9257D01*
X864D02*
Y9377D01*
X924D01*
X944Y9357D01*
Y9317D01*
X924Y9297D01*
X864D01*
X904D02*
X944Y9257D01*
X1064Y9377D02*
X984D01*
Y9317D01*
X1024Y9337D01*
X1044D01*
X1064Y9317D01*
Y9277D01*
X1044Y9257D01*
X1004D01*
X984Y9277D01*
X944Y9583D02*
X924Y9603D01*
X884D01*
X864Y9583D01*
Y9503D01*
X884Y9483D01*
X924D01*
X944Y9503D01*
X984Y9483D02*
X1024D01*
X1004D01*
Y9603D01*
X984Y9583D01*
X1084Y9503D02*
X1104Y9483D01*
X1144D01*
X1164Y9503D01*
Y9583D01*
X1144Y9603D01*
X1104D01*
X1084Y9583D01*
Y9563D01*
X1104Y9543D01*
X1164D01*
X1504Y8397D02*
Y8297D01*
X1524Y8277D01*
X1564D01*
X1584Y8297D01*
Y8397D01*
X1704D02*
X1624D01*
Y8337D01*
X1664Y8357D01*
X1684D01*
X1704Y8337D01*
Y8297D01*
X1684Y8277D01*
X1644D01*
X1624Y8297D01*
X1446Y7294D02*
X1426Y7314D01*
X1386D01*
X1366Y7294D01*
Y7214D01*
X1386Y7194D01*
X1426D01*
X1446Y7214D01*
X1566Y7194D02*
X1486D01*
X1566Y7274D01*
Y7294D01*
X1546Y7314D01*
X1506D01*
X1486Y7294D01*
X1606Y7194D02*
X1646D01*
X1626D01*
Y7314D01*
X1606Y7294D01*
X676Y8538D02*
X656Y8518D01*
Y8478D01*
X676Y8458D01*
X756D01*
X776Y8478D01*
Y8518D01*
X756Y8538D01*
X776Y8658D02*
Y8578D01*
X696Y8658D01*
X676D01*
X656Y8638D01*
Y8598D01*
X676Y8578D01*
Y8698D02*
X656Y8718D01*
Y8758D01*
X676Y8778D01*
X756D01*
X776Y8758D01*
Y8718D01*
X756Y8698D01*
X676D01*
X12761Y17554D02*
X12641D01*
Y17614D01*
X12661Y17634D01*
X12701D01*
X12721Y17614D01*
Y17554D01*
Y17594D02*
X12761Y17634D01*
Y17753D02*
Y17673D01*
X12681Y17753D01*
X12661D01*
X12641Y17733D01*
Y17694D01*
X12661Y17673D01*
X1386Y12268D02*
X1366Y12288D01*
X1326D01*
X1306Y12268D01*
Y12248D01*
X1326Y12228D01*
X1366D01*
X1386Y12208D01*
Y12188D01*
X1366Y12168D01*
X1326D01*
X1306Y12188D01*
X1426Y12288D02*
Y12168D01*
X1486D01*
X1506Y12188D01*
Y12208D01*
X1486Y12228D01*
X1426D01*
X1486D01*
X1506Y12248D01*
Y12268D01*
X1486Y12288D01*
X1426D01*
X1546Y12168D02*
X1586D01*
X1566D01*
Y12288D01*
X1546Y12268D01*
X1646D02*
X1666Y12288D01*
X1706D01*
X1726Y12268D01*
Y12188D01*
X1706Y12168D01*
X1666D01*
X1646Y12188D01*
Y12268D01*
X10526Y8481D02*
Y8601D01*
X10586D01*
X10606Y8581D01*
Y8541D01*
X10586Y8521D01*
X10526D01*
X10566D02*
X10606Y8481D01*
X10646D02*
X10686D01*
X10666D01*
Y8601D01*
X10646Y8581D01*
X10746D02*
X10766Y8601D01*
X10806D01*
X10826Y8581D01*
Y8501D01*
X10806Y8481D01*
X10766D01*
X10746Y8501D01*
Y8581D01*
X10913Y13000D02*
X10893Y13020D01*
X10853D01*
X10833Y13000D01*
Y12920D01*
X10853Y12900D01*
X10893D01*
X10913Y12920D01*
X10953Y12900D02*
X10993D01*
X10973D01*
Y13020D01*
X10953Y13000D01*
X11053D02*
X11073Y13020D01*
X11113D01*
X11133Y13000D01*
Y12980D01*
X11113Y12960D01*
X11133Y12940D01*
Y12920D01*
X11113Y12900D01*
X11073D01*
X11053Y12920D01*
Y12940D01*
X11073Y12960D01*
X11053Y12980D01*
Y13000D01*
X11073Y12960D02*
X11113D01*
X10482Y13511D02*
X10462Y13531D01*
X10422D01*
X10402Y13511D01*
Y13431D01*
X10422Y13411D01*
X10462D01*
X10482Y13431D01*
X10522Y13411D02*
X10562D01*
X10542D01*
Y13531D01*
X10522Y13511D01*
X10622Y13531D02*
X10702D01*
Y13511D01*
X10622Y13431D01*
Y13411D01*
X9212Y9333D02*
X9192Y9313D01*
Y9273D01*
X9212Y9253D01*
X9292D01*
X9312Y9273D01*
Y9313D01*
X9292Y9333D01*
X9312Y9433D02*
X9192D01*
X9252Y9373D01*
Y9453D01*
X10115Y9641D02*
X10095Y9621D01*
Y9581D01*
X10115Y9561D01*
X10195D01*
X10215Y9581D01*
Y9621D01*
X10195Y9641D01*
X10215Y9681D02*
Y9721D01*
Y9701D01*
X10095D01*
X10115Y9681D01*
Y9781D02*
X10095Y9801D01*
Y9841D01*
X10115Y9861D01*
X10195D01*
X10215Y9841D01*
Y9801D01*
X10195Y9781D01*
X10115D01*
X10444Y9837D02*
X10424Y9817D01*
Y9777D01*
X10444Y9757D01*
X10524D01*
X10544Y9777D01*
Y9817D01*
X10524Y9837D01*
Y9877D02*
X10544Y9897D01*
Y9937D01*
X10524Y9957D01*
X10444D01*
X10424Y9937D01*
Y9897D01*
X10444Y9877D01*
X10464D01*
X10484Y9897D01*
Y9957D01*
X7925Y13813D02*
X7905Y13793D01*
Y13753D01*
X7925Y13733D01*
X8005D01*
X8025Y13753D01*
Y13793D01*
X8005Y13813D01*
X8025Y13853D02*
Y13893D01*
Y13873D01*
X7905D01*
X7925Y13853D01*
X8025Y14013D02*
X7905D01*
X7965Y13953D01*
Y14033D01*
X8168Y14016D02*
X8148Y13996D01*
Y13956D01*
X8168Y13936D01*
X8248D01*
X8268Y13956D01*
Y13996D01*
X8248Y14016D01*
X8268Y14056D02*
Y14096D01*
Y14076D01*
X8148D01*
X8168Y14056D01*
X8268Y14236D02*
Y14156D01*
X8188Y14236D01*
X8168D01*
X8148Y14216D01*
Y14176D01*
X8168Y14156D01*
X7543Y14041D02*
X7523Y14061D01*
X7483D01*
X7463Y14041D01*
Y13961D01*
X7483Y13941D01*
X7523D01*
X7543Y13961D01*
X7583Y13941D02*
X7623D01*
X7603D01*
Y14061D01*
X7583Y14041D01*
X7683Y13941D02*
X7723D01*
X7703D01*
Y14061D01*
X7683Y14041D01*
X7611Y10050D02*
X7591Y10070D01*
X7551D01*
X7531Y10050D01*
Y9970D01*
X7551Y9950D01*
X7591D01*
X7611Y9970D01*
X7651Y9950D02*
X7691D01*
X7671D01*
Y10070D01*
X7651Y10050D01*
X7416Y8950D02*
X7396Y8970D01*
X7356D01*
X7336Y8950D01*
Y8870D01*
X7356Y8850D01*
X7396D01*
X7416Y8870D01*
X7536Y8850D02*
X7456D01*
X7536Y8930D01*
Y8950D01*
X7516Y8970D01*
X7476D01*
X7456Y8950D01*
X8723Y10460D02*
X8703Y10440D01*
Y10400D01*
X8723Y10380D01*
X8803D01*
X8823Y10400D01*
Y10440D01*
X8803Y10460D01*
X8723Y10500D02*
X8703Y10520D01*
Y10560D01*
X8723Y10580D01*
X8743D01*
X8763Y10560D01*
X8783Y10580D01*
X8803D01*
X8823Y10560D01*
Y10520D01*
X8803Y10500D01*
X8783D01*
X8763Y10520D01*
X8743Y10500D01*
X8723D01*
X8763Y10520D02*
Y10560D01*
X9742Y9521D02*
X9722Y9541D01*
X9682D01*
X9662Y9521D01*
Y9441D01*
X9682Y9421D01*
X9722D01*
X9742Y9441D01*
X9782Y9541D02*
X9862D01*
Y9521D01*
X9782Y9441D01*
Y9421D01*
X6854Y13221D02*
X6834Y13241D01*
X6794D01*
X6774Y13221D01*
Y13141D01*
X6794Y13121D01*
X6834D01*
X6854Y13141D01*
X6974Y13241D02*
X6934Y13221D01*
X6894Y13181D01*
Y13141D01*
X6914Y13121D01*
X6954D01*
X6974Y13141D01*
Y13161D01*
X6954Y13181D01*
X6894D01*
X7351Y12622D02*
X7331Y12642D01*
X7291D01*
X7271Y12622D01*
Y12542D01*
X7291Y12522D01*
X7331D01*
X7351Y12542D01*
X7391Y12622D02*
X7411Y12642D01*
X7451D01*
X7471Y12622D01*
Y12602D01*
X7451Y12582D01*
X7431D01*
X7451D01*
X7471Y12562D01*
Y12542D01*
X7451Y12522D01*
X7411D01*
X7391Y12542D01*
X7408Y12341D02*
X7388Y12361D01*
X7348D01*
X7328Y12341D01*
Y12261D01*
X7348Y12241D01*
X7388D01*
X7408Y12261D01*
X7448Y12241D02*
X7488D01*
X7468D01*
Y12361D01*
X7448Y12341D01*
X7628Y12361D02*
X7548D01*
Y12301D01*
X7588Y12321D01*
X7608D01*
X7628Y12301D01*
Y12261D01*
X7608Y12241D01*
X7568D01*
X7548Y12261D01*
X6729Y11111D02*
X6709Y11131D01*
X6669D01*
X6649Y11111D01*
Y11031D01*
X6669Y11011D01*
X6709D01*
X6729Y11031D01*
X6769Y11011D02*
X6809D01*
X6789D01*
Y11131D01*
X6769Y11111D01*
X6949Y11131D02*
X6909Y11111D01*
X6869Y11071D01*
Y11031D01*
X6889Y11011D01*
X6929D01*
X6949Y11031D01*
Y11051D01*
X6929Y11071D01*
X6869D01*
X7052Y10745D02*
X7032Y10765D01*
X6992D01*
X6972Y10745D01*
Y10665D01*
X6992Y10645D01*
X7032D01*
X7052Y10665D01*
X7172Y10765D02*
X7092D01*
Y10705D01*
X7132Y10725D01*
X7152D01*
X7172Y10705D01*
Y10665D01*
X7152Y10645D01*
X7112D01*
X7092Y10665D01*
X8302Y9281D02*
Y9161D01*
X8382D01*
X8422D02*
X8462D01*
X8442D01*
Y9281D01*
X8422Y9261D01*
X11553Y11488D02*
Y11608D01*
X11613D01*
X11633Y11588D01*
Y11548D01*
X11613Y11528D01*
X11553D01*
X11593D02*
X11633Y11488D01*
X11673D02*
X11713D01*
X11693D01*
Y11608D01*
X11673Y11588D01*
X11773Y11488D02*
X11813D01*
X11793D01*
Y11608D01*
X11773Y11588D01*
X11553Y12189D02*
Y12309D01*
X11613D01*
X11633Y12289D01*
Y12249D01*
X11613Y12229D01*
X11553D01*
X11593D02*
X11633Y12189D01*
X11673D02*
X11713D01*
X11693D01*
Y12309D01*
X11673Y12289D01*
X11773D02*
X11793Y12309D01*
X11833D01*
X11853Y12289D01*
Y12269D01*
X11833Y12249D01*
X11813D01*
X11833D01*
X11853Y12229D01*
Y12209D01*
X11833Y12189D01*
X11793D01*
X11773Y12209D01*
X11553Y11716D02*
Y11836D01*
X11613D01*
X11633Y11816D01*
Y11776D01*
X11613Y11756D01*
X11553D01*
X11593D02*
X11633Y11716D01*
X11673D02*
X11713D01*
X11693D01*
Y11836D01*
X11673Y11816D01*
X11853Y11716D02*
X11773D01*
X11853Y11796D01*
Y11816D01*
X11833Y11836D01*
X11793D01*
X11773Y11816D01*
X11163Y13916D02*
Y13816D01*
X11183Y13796D01*
X11223D01*
X11243Y13816D01*
Y13916D01*
X11363D02*
X11323Y13896D01*
X11283Y13856D01*
Y13816D01*
X11303Y13796D01*
X11343D01*
X11363Y13816D01*
Y13836D01*
X11343Y13856D01*
X11283D01*
X8920Y11908D02*
Y11808D01*
X8940Y11788D01*
X8980D01*
X9000Y11808D01*
Y11908D01*
X9040Y11788D02*
X9080D01*
X9060D01*
Y11908D01*
X9040Y11888D01*
X6825Y11781D02*
X6905Y11661D01*
Y11781D02*
X6825Y11661D01*
X6945D02*
X6985D01*
X6965D01*
Y11781D01*
X6945Y11761D01*
X7475Y12885D02*
X7455Y12905D01*
X7415D01*
X7395Y12885D01*
Y12805D01*
X7415Y12785D01*
X7455D01*
X7475Y12805D01*
X7515Y12785D02*
X7555D01*
X7535D01*
Y12905D01*
X7515Y12885D01*
X7615D02*
X7635Y12905D01*
X7674D01*
X7694Y12885D01*
Y12865D01*
X7674Y12845D01*
X7655D01*
X7674D01*
X7694Y12825D01*
Y12805D01*
X7674Y12785D01*
X7635D01*
X7615Y12805D01*
X16416Y12245D02*
X16396Y12265D01*
X16356D01*
X16336Y12245D01*
Y12225D01*
X16356Y12205D01*
X16396D01*
X16416Y12185D01*
Y12165D01*
X16396Y12145D01*
X16356D01*
X16336Y12165D01*
X16456Y12265D02*
Y12145D01*
X16516D01*
X16536Y12165D01*
Y12185D01*
X16516Y12205D01*
X16456D01*
X16516D01*
X16536Y12225D01*
Y12245D01*
X16516Y12265D01*
X16456D01*
X16576Y12165D02*
X16596Y12145D01*
X16636D01*
X16656Y12165D01*
Y12245D01*
X16636Y12265D01*
X16596D01*
X16576Y12245D01*
Y12225D01*
X16596Y12205D01*
X16656D01*
X11553Y11162D02*
Y11282D01*
X11613D01*
X11633Y11262D01*
Y11222D01*
X11613Y11202D01*
X11553D01*
X11593D02*
X11633Y11162D01*
X11673D02*
X11713D01*
X11693D01*
Y11282D01*
X11673Y11262D01*
X11833Y11162D02*
Y11282D01*
X11773Y11222D01*
X11853D01*
X11553Y10934D02*
Y11054D01*
X11613D01*
X11633Y11034D01*
Y10994D01*
X11613Y10974D01*
X11553D01*
X11593D02*
X11633Y10934D01*
X11673D02*
X11713D01*
X11693D01*
Y11054D01*
X11673Y11034D01*
X11853Y11054D02*
X11773D01*
Y10994D01*
X11813Y11014D01*
X11833D01*
X11853Y10994D01*
Y10954D01*
X11833Y10934D01*
X11793D01*
X11773Y10954D01*
D102*
X12199Y1465D02*
Y1585D01*
X12259D01*
X12279Y1565D01*
Y1525D01*
X12259Y1505D01*
X12199D01*
X12319Y1465D02*
X12359D01*
X12339D01*
Y1585D01*
X12319Y1565D01*
X14415Y8287D02*
X14395Y8307D01*
X14355D01*
X14335Y8287D01*
Y8267D01*
X14355Y8247D01*
X14395D01*
X14415Y8227D01*
Y8207D01*
X14395Y8187D01*
X14355D01*
X14335Y8207D01*
X14455Y8307D02*
Y8187D01*
X14515D01*
X14535Y8207D01*
Y8227D01*
X14515Y8247D01*
X14455D01*
X14515D01*
X14535Y8267D01*
Y8287D01*
X14515Y8307D01*
X14455D01*
X14635Y8187D02*
Y8307D01*
X14575Y8247D01*
X14655D01*
X15935Y8287D02*
X15915Y8307D01*
X15875D01*
X15855Y8287D01*
Y8267D01*
X15875Y8247D01*
X15915D01*
X15935Y8227D01*
Y8207D01*
X15915Y8187D01*
X15875D01*
X15855Y8207D01*
X15975Y8307D02*
Y8187D01*
X16035D01*
X16055Y8207D01*
Y8227D01*
X16035Y8247D01*
X15975D01*
X16035D01*
X16055Y8267D01*
Y8287D01*
X16035Y8307D01*
X15975D01*
X16095Y8187D02*
X16135D01*
X16115D01*
Y8307D01*
X16095Y8287D01*
X16665Y8287D02*
X16645Y8307D01*
X16605D01*
X16585Y8287D01*
Y8267D01*
X16605Y8247D01*
X16645D01*
X16665Y8227D01*
Y8207D01*
X16645Y8187D01*
X16605D01*
X16585Y8207D01*
X16705Y8307D02*
Y8187D01*
X16765D01*
X16785Y8207D01*
Y8227D01*
X16765Y8247D01*
X16705D01*
X16765D01*
X16785Y8267D01*
Y8287D01*
X16765Y8307D01*
X16705D01*
X16905Y8187D02*
X16825D01*
X16905Y8267D01*
Y8287D01*
X16885Y8307D01*
X16845D01*
X16825Y8287D01*
X15165Y8287D02*
X15145Y8307D01*
X15105D01*
X15085Y8287D01*
Y8267D01*
X15105Y8247D01*
X15145D01*
X15165Y8227D01*
Y8207D01*
X15145Y8187D01*
X15105D01*
X15085Y8207D01*
X15205Y8307D02*
Y8187D01*
X15265D01*
X15285Y8207D01*
Y8227D01*
X15265Y8247D01*
X15205D01*
X15265D01*
X15285Y8267D01*
Y8287D01*
X15265Y8307D01*
X15205D01*
X15325Y8287D02*
X15345Y8307D01*
X15385D01*
X15405Y8287D01*
Y8267D01*
X15385Y8247D01*
X15365D01*
X15385D01*
X15405Y8227D01*
Y8207D01*
X15385Y8187D01*
X15345D01*
X15325Y8207D01*
X16673Y6932D02*
X16653Y6952D01*
X16613D01*
X16593Y6932D01*
Y6912D01*
X16613Y6892D01*
X16653D01*
X16673Y6872D01*
Y6852D01*
X16653Y6832D01*
X16613D01*
X16593Y6852D01*
X16713Y6952D02*
Y6832D01*
X16773D01*
X16793Y6852D01*
Y6872D01*
X16773Y6892D01*
X16713D01*
X16773D01*
X16793Y6912D01*
Y6932D01*
X16773Y6952D01*
X16713D01*
X16833D02*
X16913D01*
Y6932D01*
X16833Y6852D01*
Y6832D01*
X15173Y6932D02*
X15153Y6952D01*
X15113D01*
X15093Y6932D01*
Y6912D01*
X15113Y6892D01*
X15153D01*
X15173Y6872D01*
Y6852D01*
X15153Y6832D01*
X15113D01*
X15093Y6852D01*
X15213Y6952D02*
Y6832D01*
X15273D01*
X15293Y6852D01*
Y6872D01*
X15273Y6892D01*
X15213D01*
X15273D01*
X15293Y6912D01*
Y6932D01*
X15273Y6952D01*
X15213D01*
X15333Y6932D02*
X15353Y6952D01*
X15393D01*
X15413Y6932D01*
Y6912D01*
X15393Y6892D01*
X15413Y6872D01*
Y6852D01*
X15393Y6832D01*
X15353D01*
X15333Y6852D01*
Y6872D01*
X15353Y6892D01*
X15333Y6912D01*
Y6932D01*
X15353Y6892D02*
X15393D01*
X14423Y6932D02*
X14403Y6952D01*
X14363D01*
X14343Y6932D01*
Y6912D01*
X14363Y6892D01*
X14403D01*
X14423Y6872D01*
Y6852D01*
X14403Y6832D01*
X14363D01*
X14343Y6852D01*
X14463Y6952D02*
Y6832D01*
X14523D01*
X14543Y6852D01*
Y6872D01*
X14523Y6892D01*
X14463D01*
X14523D01*
X14543Y6912D01*
Y6932D01*
X14523Y6952D01*
X14463D01*
X14663D02*
X14583D01*
Y6892D01*
X14623Y6912D01*
X14643D01*
X14663Y6892D01*
Y6852D01*
X14643Y6832D01*
X14603D01*
X14583Y6852D01*
X15923Y6932D02*
X15903Y6952D01*
X15863D01*
X15843Y6932D01*
Y6912D01*
X15863Y6892D01*
X15903D01*
X15923Y6872D01*
Y6852D01*
X15903Y6832D01*
X15863D01*
X15843Y6852D01*
X15963Y6952D02*
Y6832D01*
X16023D01*
X16043Y6852D01*
Y6872D01*
X16023Y6892D01*
X15963D01*
X16023D01*
X16043Y6912D01*
Y6932D01*
X16023Y6952D01*
X15963D01*
X16163D02*
X16123Y6932D01*
X16083Y6892D01*
Y6852D01*
X16103Y6832D01*
X16143D01*
X16163Y6852D01*
Y6872D01*
X16143Y6892D01*
X16083D01*
X526Y13497D02*
Y13617D01*
X586D01*
X606Y13597D01*
Y13557D01*
X586Y13537D01*
X526D01*
X646Y13497D02*
X686D01*
X666D01*
Y13617D01*
X646Y13597D01*
X747D02*
X767Y13617D01*
X807D01*
X827Y13597D01*
Y13517D01*
X807Y13497D01*
X767D01*
X747Y13517D01*
Y13597D01*
X17224Y13497D02*
Y13617D01*
X17284D01*
X17304Y13597D01*
Y13557D01*
X17284Y13537D01*
X17224D01*
X17404Y13497D02*
Y13617D01*
X17344Y13557D01*
X17424D01*
D103*
X11832Y19337D02*
Y19389D01*
X11859Y19415D01*
X11885Y19389D01*
Y19337D01*
Y19376D01*
X11832D01*
X11911Y19337D02*
X11937D01*
X11924D01*
Y19415D01*
X11911Y19402D01*
M02*
