G04*
G04 #@! TF.GenerationSoftware,Altium Limited,Altium Designer,25.8.1 (18)*
G04*
G04 Layer_Physical_Order=3*
G04 Layer_Color=14930282*
%FSLAX24Y24*%
%MOIN*%
G70*
G04*
G04 #@! TF.SameCoordinates,BD92749D-DAB3-424A-A086-50895A4BE64C*
G04*
G04*
G04 #@! TF.FilePolarity,Positive*
G04*
G01*
G75*
%ADD80C,0.0200*%
%ADD92R,0.0591X0.0591*%
%ADD93C,0.0197*%
%ADD95C,0.0170*%
G36*
X17920Y250D02*
Y216D01*
X17894Y154D01*
X17846Y106D01*
X17784Y80D01*
X216D01*
X154Y106D01*
X106Y154D01*
X80Y216D01*
Y250D01*
X80Y17565D01*
X12414D01*
Y15940D01*
X9617D01*
X9458Y15919D01*
X9302Y15877D01*
X9153Y15816D01*
X9013Y15735D01*
X8886Y15637D01*
X8772Y15523D01*
X8673Y15395D01*
X8593Y15256D01*
X8531Y15107D01*
X8489Y14951D01*
X8468Y14791D01*
Y14489D01*
X8489Y14414D01*
X8527Y14346D01*
X8582Y14291D01*
X8650Y14252D01*
X8725Y14232D01*
X8803D01*
X8878Y14252D01*
X8945Y14291D01*
X9000Y14346D01*
X9039Y14414D01*
X9059Y14489D01*
Y14711D01*
X9062Y14773D01*
X9087Y14896D01*
X9135Y15012D01*
X9204Y15116D01*
X9293Y15204D01*
X9397Y15274D01*
X9513Y15322D01*
X9635Y15346D01*
X9698Y15349D01*
X12717D01*
X12722Y15350D01*
X12988D01*
X12986Y17530D01*
X13021Y17565D01*
X17920D01*
Y250D01*
D02*
G37*
%LPC*%
G36*
X1056Y14434D02*
X726D01*
Y14105D01*
X1056D01*
Y14434D01*
D02*
G37*
G36*
X626D02*
X297D01*
Y14105D01*
X626D01*
Y14434D01*
D02*
G37*
G36*
X17703Y14434D02*
X17374D01*
Y14105D01*
X17703D01*
Y14434D01*
D02*
G37*
G36*
X17274D02*
X16945D01*
Y14105D01*
X17274D01*
Y14434D01*
D02*
G37*
G36*
X7285Y13989D02*
X7260Y13987D01*
X7234Y13982D01*
X7210Y13974D01*
X7187Y13962D01*
X7165Y13948D01*
X7146Y13931D01*
X7129Y13911D01*
X7114Y13890D01*
X7082Y13874D01*
X7056Y13883D01*
X7056Y13884D01*
X7031Y13892D01*
X7006Y13897D01*
X6980Y13899D01*
X6954Y13897D01*
X6929Y13892D01*
X6905Y13884D01*
X6881Y13872D01*
X6860Y13858D01*
X6841Y13841D01*
X6823Y13821D01*
X6809Y13800D01*
X6798Y13777D01*
X6789Y13752D01*
X6784Y13727D01*
X6783Y13701D01*
X6784Y13676D01*
X6789Y13650D01*
X6798Y13626D01*
X6809Y13603D01*
X6823Y13581D01*
X6841Y13562D01*
X6860Y13545D01*
X6881Y13530D01*
X6905Y13519D01*
X6929Y13511D01*
X6954Y13506D01*
X6980Y13504D01*
X7006Y13506D01*
X7031Y13511D01*
X7056Y13519D01*
X7079Y13530D01*
X7100Y13545D01*
X7120Y13562D01*
X7137Y13581D01*
X7142Y13590D01*
X7181Y13600D01*
X7205Y13599D01*
X7431Y13373D01*
X7448Y13358D01*
X7463Y13341D01*
X7482Y13324D01*
X7504Y13309D01*
X7527Y13298D01*
X7552Y13289D01*
X7577Y13284D01*
X7603Y13282D01*
X8133D01*
X8179Y13236D01*
X8198Y13220D01*
X8218Y13207D01*
X8239Y13196D01*
X8262Y13188D01*
X8285Y13184D01*
X8309Y13182D01*
X8309Y13182D01*
X8693D01*
X8713Y13175D01*
X8738Y13170D01*
X8764Y13169D01*
X8790Y13170D01*
X8815Y13175D01*
X8839Y13184D01*
X8862Y13195D01*
X8884Y13209D01*
X8903Y13226D01*
X8920Y13246D01*
X8935Y13267D01*
X8946Y13290D01*
X8954Y13315D01*
X8959Y13340D01*
X8961Y13366D01*
X8959Y13392D01*
X8954Y13417D01*
X8946Y13441D01*
X8935Y13465D01*
X8920Y13486D01*
X8903Y13505D01*
X8884Y13522D01*
X8862Y13537D01*
X8839Y13548D01*
X8815Y13556D01*
X8790Y13562D01*
X8764Y13563D01*
X8738Y13562D01*
X8713Y13556D01*
X8693Y13550D01*
X8386D01*
X8363Y13572D01*
X8359Y13581D01*
X8345Y13602D01*
X8327Y13622D01*
X8308Y13639D01*
X8286Y13654D01*
X8263Y13665D01*
X8238Y13673D01*
X8213Y13678D01*
X8187Y13680D01*
X7686D01*
X7452Y13914D01*
X7432Y13931D01*
X7411Y13946D01*
X7404Y13949D01*
X7384Y13962D01*
X7361Y13974D01*
X7336Y13982D01*
X7311Y13987D01*
X7285Y13989D01*
D02*
G37*
G36*
X1056Y14005D02*
X726D01*
Y13676D01*
X1056D01*
Y14005D01*
D02*
G37*
G36*
X626D02*
X297D01*
Y13676D01*
X626D01*
Y14005D01*
D02*
G37*
G36*
X17703Y14005D02*
X17374D01*
Y13676D01*
X17703D01*
Y14005D01*
D02*
G37*
G36*
X17274D02*
X16945D01*
Y13676D01*
X17274D01*
Y14005D01*
D02*
G37*
G36*
X676Y13449D02*
X638Y13447D01*
X599Y13442D01*
X562Y13432D01*
X526Y13419D01*
X491Y13403D01*
X457Y13383D01*
X426Y13360D01*
X398Y13334D01*
X372Y13305D01*
X349Y13274D01*
X329Y13241D01*
X312Y13206D01*
X299Y13170D01*
X290Y13132D01*
X284Y13094D01*
X282Y13055D01*
X284Y13016D01*
X290Y12978D01*
X299Y12941D01*
X312Y12904D01*
X329Y12869D01*
X349Y12836D01*
X372Y12805D01*
X398Y12776D01*
X426Y12750D01*
X457Y12727D01*
X491Y12707D01*
X526Y12691D01*
X562Y12678D01*
X599Y12669D01*
X638Y12663D01*
X676Y12661D01*
X715Y12663D01*
X753Y12669D01*
X791Y12678D01*
X827Y12691D01*
X862Y12707D01*
X895Y12727D01*
X926Y12750D01*
X955Y12776D01*
X981Y12805D01*
X1004Y12836D01*
X1024Y12869D01*
X1041Y12904D01*
X1054Y12941D01*
X1063Y12978D01*
X1069Y13016D01*
X1071Y13055D01*
X1069Y13094D01*
X1063Y13132D01*
X1054Y13170D01*
X1041Y13206D01*
X1024Y13241D01*
X1004Y13274D01*
X981Y13305D01*
X955Y13334D01*
X926Y13360D01*
X895Y13383D01*
X862Y13403D01*
X827Y13419D01*
X791Y13432D01*
X753Y13442D01*
X715Y13447D01*
X676Y13449D01*
D02*
G37*
G36*
X17324Y13449D02*
X17285Y13447D01*
X17247Y13442D01*
X17209Y13432D01*
X17173Y13419D01*
X17138Y13403D01*
X17105Y13383D01*
X17074Y13360D01*
X17045Y13334D01*
X17019Y13305D01*
X16996Y13274D01*
X16976Y13241D01*
X16960Y13206D01*
X16947Y13170D01*
X16937Y13132D01*
X16932Y13094D01*
X16930Y13055D01*
X16932Y13016D01*
X16937Y12978D01*
X16947Y12941D01*
X16960Y12904D01*
X16976Y12869D01*
X16996Y12836D01*
X17019Y12805D01*
X17045Y12776D01*
X17074Y12750D01*
X17105Y12727D01*
X17138Y12707D01*
X17173Y12691D01*
X17209Y12678D01*
X17247Y12668D01*
X17285Y12663D01*
X17324Y12661D01*
X17363Y12663D01*
X17401Y12668D01*
X17438Y12678D01*
X17475Y12691D01*
X17510Y12707D01*
X17543Y12727D01*
X17574Y12750D01*
X17603Y12776D01*
X17629Y12805D01*
X17652Y12836D01*
X17672Y12869D01*
X17688Y12904D01*
X17701Y12941D01*
X17711Y12978D01*
X17716Y13016D01*
X17718Y13055D01*
X17716Y13094D01*
X17711Y13132D01*
X17701Y13170D01*
X17688Y13206D01*
X17672Y13241D01*
X17652Y13274D01*
X17629Y13305D01*
X17603Y13334D01*
X17574Y13360D01*
X17543Y13383D01*
X17510Y13403D01*
X17475Y13419D01*
X17438Y13432D01*
X17401Y13442D01*
X17363Y13447D01*
X17324Y13449D01*
D02*
G37*
G36*
X7395Y12838D02*
X7369Y12836D01*
X7343Y12831D01*
X7319Y12823D01*
X7296Y12811D01*
X7274Y12797D01*
X7255Y12780D01*
X7238Y12760D01*
X7224Y12739D01*
X7212Y12716D01*
X7204Y12691D01*
X7199Y12666D01*
X7197Y12640D01*
X7199Y12615D01*
X7204Y12589D01*
X7212Y12565D01*
X7224Y12542D01*
X7238Y12520D01*
X7255Y12501D01*
X7274Y12484D01*
X7296Y12469D01*
X7319Y12458D01*
X7343Y12450D01*
X7369Y12445D01*
X7395Y12443D01*
X7420Y12445D01*
X7446Y12450D01*
X7470Y12458D01*
X7493Y12469D01*
X7515Y12484D01*
X7534Y12501D01*
X7551Y12520D01*
X7565Y12542D01*
X7577Y12565D01*
X7585Y12589D01*
X7590Y12615D01*
X7592Y12640D01*
X7590Y12666D01*
X7585Y12691D01*
X7577Y12716D01*
X7565Y12739D01*
X7551Y12760D01*
X7534Y12780D01*
X7515Y12797D01*
X7493Y12811D01*
X7470Y12823D01*
X7446Y12831D01*
X7420Y12836D01*
X7395Y12838D01*
D02*
G37*
G36*
X676Y12449D02*
X638Y12447D01*
X599Y12442D01*
X562Y12432D01*
X526Y12419D01*
X491Y12403D01*
X457Y12383D01*
X426Y12360D01*
X398Y12334D01*
X372Y12305D01*
X349Y12274D01*
X329Y12241D01*
X312Y12206D01*
X299Y12170D01*
X290Y12132D01*
X284Y12094D01*
X282Y12055D01*
X284Y12016D01*
X290Y11978D01*
X299Y11941D01*
X312Y11904D01*
X329Y11869D01*
X349Y11836D01*
X372Y11805D01*
X398Y11776D01*
X426Y11750D01*
X457Y11727D01*
X491Y11707D01*
X526Y11691D01*
X562Y11678D01*
X599Y11669D01*
X638Y11663D01*
X676Y11661D01*
X715Y11663D01*
X753Y11669D01*
X791Y11678D01*
X827Y11691D01*
X862Y11707D01*
X895Y11727D01*
X926Y11750D01*
X955Y11776D01*
X981Y11805D01*
X1004Y11836D01*
X1024Y11869D01*
X1041Y11904D01*
X1054Y11941D01*
X1063Y11978D01*
X1069Y12016D01*
X1071Y12055D01*
X1069Y12094D01*
X1063Y12132D01*
X1054Y12170D01*
X1041Y12206D01*
X1024Y12241D01*
X1004Y12274D01*
X981Y12305D01*
X955Y12334D01*
X926Y12360D01*
X895Y12383D01*
X862Y12403D01*
X827Y12419D01*
X791Y12432D01*
X753Y12442D01*
X715Y12447D01*
X676Y12449D01*
D02*
G37*
G36*
X17324Y12449D02*
X17285Y12447D01*
X17247Y12442D01*
X17209Y12432D01*
X17173Y12419D01*
X17138Y12403D01*
X17105Y12383D01*
X17074Y12360D01*
X17045Y12334D01*
X17019Y12305D01*
X16996Y12274D01*
X16976Y12241D01*
X16960Y12206D01*
X16947Y12170D01*
X16937Y12132D01*
X16932Y12094D01*
X16930Y12055D01*
X16932Y12016D01*
X16937Y11978D01*
X16947Y11941D01*
X16960Y11904D01*
X16976Y11869D01*
X16996Y11836D01*
X17019Y11805D01*
X17045Y11776D01*
X17074Y11750D01*
X17105Y11727D01*
X17138Y11707D01*
X17173Y11691D01*
X17209Y11678D01*
X17247Y11668D01*
X17285Y11663D01*
X17324Y11661D01*
X17363Y11663D01*
X17401Y11668D01*
X17438Y11678D01*
X17475Y11691D01*
X17510Y11707D01*
X17543Y11727D01*
X17574Y11750D01*
X17603Y11776D01*
X17629Y11805D01*
X17652Y11836D01*
X17672Y11869D01*
X17688Y11904D01*
X17701Y11941D01*
X17711Y11978D01*
X17716Y12016D01*
X17718Y12055D01*
X17716Y12094D01*
X17711Y12132D01*
X17701Y12170D01*
X17688Y12206D01*
X17672Y12241D01*
X17652Y12274D01*
X17629Y12305D01*
X17603Y12334D01*
X17574Y12360D01*
X17543Y12383D01*
X17510Y12403D01*
X17475Y12419D01*
X17438Y12432D01*
X17401Y12442D01*
X17363Y12447D01*
X17324Y12449D01*
D02*
G37*
G36*
X7259Y10658D02*
X7233Y10657D01*
X7208Y10652D01*
X7184Y10643D01*
X7160Y10632D01*
X7139Y10618D01*
X7120Y10601D01*
X7103Y10581D01*
X7088Y10560D01*
X7077Y10537D01*
X7068Y10512D01*
X7063Y10487D01*
X7062Y10461D01*
X7063Y10435D01*
X7068Y10410D01*
X7077Y10386D01*
X7088Y10362D01*
X7103Y10341D01*
X7120Y10322D01*
X7139Y10305D01*
X7160Y10290D01*
X7184Y10279D01*
X7208Y10271D01*
X7233Y10266D01*
X7259Y10264D01*
X7285Y10266D01*
X7310Y10271D01*
X7335Y10279D01*
X7358Y10290D01*
X7379Y10305D01*
X7399Y10322D01*
X7416Y10341D01*
X7430Y10362D01*
X7441Y10386D01*
X7450Y10410D01*
X7455Y10435D01*
X7456Y10461D01*
X7455Y10487D01*
X7450Y10512D01*
X7441Y10537D01*
X7430Y10560D01*
X7416Y10581D01*
X7399Y10601D01*
X7379Y10618D01*
X7358Y10632D01*
X7335Y10643D01*
X7310Y10652D01*
X7285Y10657D01*
X7259Y10658D01*
D02*
G37*
G36*
X9917Y13630D02*
X9892Y13629D01*
X9866Y13624D01*
X9842Y13615D01*
X9819Y13604D01*
X9797Y13590D01*
X9778Y13573D01*
X9761Y13553D01*
X9747Y13532D01*
X9735Y13509D01*
X9727Y13484D01*
X9726Y13482D01*
X9725Y13479D01*
X9720Y13453D01*
X9719Y13427D01*
X9720Y13401D01*
X9725Y13376D01*
X9734Y13351D01*
X9745Y13328D01*
X9760Y13306D01*
X9777Y13287D01*
X10170Y12894D01*
Y10285D01*
X10172Y10259D01*
X10177Y10233D01*
X10185Y10209D01*
X10197Y10185D01*
X10211Y10164D01*
X10228Y10144D01*
X10248Y10127D01*
X10269Y10113D01*
X10293Y10101D01*
X10317Y10093D01*
X10343Y10088D01*
X10369Y10086D01*
X10395Y10088D01*
X10420Y10093D01*
X10445Y10101D01*
X10468Y10113D01*
X10490Y10127D01*
X10509Y10144D01*
X10527Y10164D01*
X10541Y10185D01*
X10553Y10209D01*
X10561Y10233D01*
X10566Y10259D01*
X10568Y10285D01*
Y12976D01*
X10566Y13002D01*
X10561Y13027D01*
X10553Y13052D01*
X10541Y13075D01*
X10527Y13097D01*
X10509Y13117D01*
X10076Y13550D01*
X10074Y13553D01*
X10057Y13573D01*
X10037Y13590D01*
X10016Y13604D01*
X9993Y13615D01*
X9968Y13624D01*
X9943Y13629D01*
X9917Y13630D01*
D02*
G37*
G36*
X9295Y10308D02*
X9269Y10307D01*
X9244Y10302D01*
X9220Y10293D01*
X9197Y10282D01*
X9175Y10268D01*
X9156Y10251D01*
X9139Y10231D01*
X9124Y10210D01*
X9113Y10187D01*
X9105Y10162D01*
X9100Y10137D01*
X9098Y10111D01*
X9100Y10085D01*
X9105Y10060D01*
X9113Y10036D01*
X9124Y10013D01*
X9139Y9991D01*
X9156Y9972D01*
X9175Y9955D01*
X9197Y9940D01*
X9220Y9929D01*
X9244Y9921D01*
X9269Y9916D01*
X9295Y9914D01*
X9321Y9916D01*
X9346Y9921D01*
X9371Y9929D01*
X9394Y9940D01*
X9415Y9955D01*
X9435Y9972D01*
X9452Y9991D01*
X9466Y10013D01*
X9477Y10036D01*
X9486Y10060D01*
X9491Y10085D01*
X9493Y10111D01*
X9491Y10137D01*
X9486Y10162D01*
X9477Y10187D01*
X9466Y10210D01*
X9452Y10231D01*
X9435Y10251D01*
X9415Y10268D01*
X9394Y10282D01*
X9371Y10293D01*
X9346Y10302D01*
X9321Y10307D01*
X9295Y10308D01*
D02*
G37*
G36*
X9765Y10207D02*
X9740Y10206D01*
X9714Y10201D01*
X9690Y10192D01*
X9667Y10181D01*
X9645Y10167D01*
X9626Y10150D01*
X9609Y10130D01*
X9595Y10109D01*
X9583Y10086D01*
X9575Y10061D01*
X9570Y10036D01*
X9568Y10010D01*
X9570Y9984D01*
X9575Y9959D01*
X9583Y9935D01*
X9595Y9911D01*
X9609Y9890D01*
X9626Y9871D01*
X9645Y9854D01*
X9667Y9839D01*
X9690Y9828D01*
X9714Y9819D01*
X9740Y9814D01*
X9765Y9813D01*
X9791Y9814D01*
X9816Y9819D01*
X9841Y9828D01*
X9864Y9839D01*
X9885Y9854D01*
X9905Y9871D01*
X9922Y9890D01*
X9936Y9911D01*
X9948Y9935D01*
X9956Y9959D01*
X9961Y9984D01*
X9963Y10010D01*
X9961Y10036D01*
X9956Y10061D01*
X9948Y10086D01*
X9936Y10109D01*
X9922Y10130D01*
X9905Y10150D01*
X9885Y10167D01*
X9864Y10181D01*
X9841Y10192D01*
X9816Y10201D01*
X9791Y10206D01*
X9765Y10207D01*
D02*
G37*
G36*
X6693Y9659D02*
X6667Y9657D01*
X6642Y9652D01*
X6617Y9644D01*
X6594Y9632D01*
X6572Y9618D01*
X6553Y9601D01*
X6536Y9581D01*
X6522Y9560D01*
X6510Y9537D01*
X6502Y9512D01*
X6497Y9487D01*
X6495Y9461D01*
X6497Y9436D01*
X6502Y9410D01*
X6510Y9386D01*
X6522Y9363D01*
X6536Y9341D01*
X6553Y9322D01*
X6572Y9305D01*
X6594Y9290D01*
X6617Y9279D01*
X6642Y9271D01*
X6667Y9266D01*
X6693Y9264D01*
X6718Y9266D01*
X6744Y9271D01*
X6768Y9279D01*
X6791Y9290D01*
X6813Y9305D01*
X6832Y9322D01*
X6849Y9341D01*
X6863Y9363D01*
X6875Y9386D01*
X6883Y9410D01*
X6888Y9436D01*
X6890Y9461D01*
X6888Y9487D01*
X6883Y9512D01*
X6875Y9537D01*
X6863Y9560D01*
X6849Y9581D01*
X6832Y9601D01*
X6813Y9618D01*
X6791Y9632D01*
X6768Y9644D01*
X6744Y9652D01*
X6718Y9657D01*
X6693Y9659D01*
D02*
G37*
G36*
X1011Y9078D02*
X985Y9076D01*
X960Y9071D01*
X936Y9063D01*
X912Y9052D01*
X891Y9037D01*
X872Y9020D01*
X855Y9001D01*
X840Y8980D01*
X829Y8956D01*
X820Y8932D01*
X815Y8907D01*
X814Y8881D01*
X815Y8855D01*
X820Y8830D01*
X829Y8805D01*
X840Y8782D01*
X855Y8761D01*
X872Y8741D01*
X891Y8724D01*
X912Y8710D01*
X936Y8699D01*
X960Y8690D01*
X985Y8685D01*
X1011Y8684D01*
X1037Y8685D01*
X1062Y8690D01*
X1087Y8699D01*
X1110Y8710D01*
X1131Y8724D01*
X1151Y8741D01*
X1168Y8761D01*
X1182Y8782D01*
X1193Y8805D01*
X1202Y8830D01*
X1207Y8855D01*
X1208Y8881D01*
X1207Y8907D01*
X1202Y8932D01*
X1193Y8956D01*
X1182Y8980D01*
X1168Y9001D01*
X1151Y9020D01*
X1131Y9037D01*
X1110Y9052D01*
X1087Y9063D01*
X1062Y9071D01*
X1037Y9076D01*
X1011Y9078D01*
D02*
G37*
G36*
X8853Y8559D02*
X8828Y8557D01*
X8802Y8552D01*
X8778Y8544D01*
X8755Y8532D01*
X8733Y8518D01*
X8714Y8501D01*
X8697Y8481D01*
X8683Y8460D01*
X8671Y8437D01*
X8663Y8412D01*
X8658Y8387D01*
X8656Y8361D01*
X8658Y8336D01*
X8663Y8310D01*
X8671Y8286D01*
X8683Y8263D01*
X8697Y8241D01*
X8714Y8222D01*
X8733Y8205D01*
X8755Y8190D01*
X8778Y8179D01*
X8802Y8171D01*
X8828Y8166D01*
X8853Y8164D01*
X8879Y8166D01*
X8905Y8171D01*
X8929Y8179D01*
X8952Y8190D01*
X8974Y8205D01*
X8993Y8222D01*
X9010Y8241D01*
X9024Y8263D01*
X9036Y8286D01*
X9044Y8310D01*
X9049Y8336D01*
X9051Y8361D01*
X9049Y8387D01*
X9044Y8412D01*
X9036Y8437D01*
X9024Y8460D01*
X9010Y8481D01*
X8993Y8501D01*
X8974Y8518D01*
X8952Y8532D01*
X8929Y8544D01*
X8905Y8552D01*
X8879Y8557D01*
X8853Y8559D01*
D02*
G37*
%LPD*%
D80*
X9917Y13427D02*
X10369Y12976D01*
Y10285D02*
Y12976D01*
X7311Y13773D02*
X7571Y13513D01*
X7603Y13481D02*
X8187D01*
D92*
X676Y14055D02*
D03*
X17324Y14055D02*
D03*
D93*
X9039Y14415D02*
D03*
X8764Y13628D02*
D03*
X8488Y14415D02*
D03*
X13130Y15472D02*
D03*
X13337Y16289D02*
D03*
X16654Y8632D02*
D03*
X12224Y9026D02*
D03*
X12490Y11122D02*
D03*
X16597Y16255D02*
D03*
X17098Y15255D02*
D03*
X16597Y14255D02*
D03*
Y10255D02*
D03*
X17098Y3255D02*
D03*
X16597Y2255D02*
D03*
X17098Y1255D02*
D03*
X15597Y16255D02*
D03*
X16098Y15255D02*
D03*
X15597Y14255D02*
D03*
X16098Y13255D02*
D03*
X15597Y12255D02*
D03*
X16098Y11255D02*
D03*
X15597Y10255D02*
D03*
X16098Y9255D02*
D03*
Y3255D02*
D03*
X15597Y2255D02*
D03*
X16098Y1255D02*
D03*
X14598Y16255D02*
D03*
X15098Y15255D02*
D03*
X14598Y14255D02*
D03*
X15098Y13255D02*
D03*
X14598Y12255D02*
D03*
X15098Y11255D02*
D03*
X14598Y10255D02*
D03*
X15098Y9255D02*
D03*
Y3255D02*
D03*
X14598Y2255D02*
D03*
X15098Y1255D02*
D03*
X13598Y16255D02*
D03*
X14097Y15255D02*
D03*
X13598Y14255D02*
D03*
X14097Y13255D02*
D03*
X13598Y12255D02*
D03*
X14097Y11255D02*
D03*
Y3255D02*
D03*
X13598Y2255D02*
D03*
X14097Y1255D02*
D03*
X12598Y14255D02*
D03*
X13097Y13255D02*
D03*
Y11255D02*
D03*
Y9255D02*
D03*
Y7255D02*
D03*
Y3255D02*
D03*
X12598Y2255D02*
D03*
X13097Y1255D02*
D03*
X11597Y14255D02*
D03*
X12098Y3255D02*
D03*
X11597Y2255D02*
D03*
X12098Y1255D02*
D03*
X10597Y14255D02*
D03*
X11098Y3255D02*
D03*
X10597Y2255D02*
D03*
X11098Y1255D02*
D03*
X9597Y14255D02*
D03*
X10098Y3255D02*
D03*
X9597Y2255D02*
D03*
X10098Y1255D02*
D03*
X8597Y16255D02*
D03*
X9097Y3255D02*
D03*
X8597Y2255D02*
D03*
X9097Y1255D02*
D03*
X7598Y16255D02*
D03*
X8098Y15255D02*
D03*
Y7255D02*
D03*
Y3255D02*
D03*
X7598Y2255D02*
D03*
X8098Y1255D02*
D03*
X6597Y16255D02*
D03*
X7097Y15255D02*
D03*
X6597Y14255D02*
D03*
X7097Y7255D02*
D03*
Y3255D02*
D03*
X6597Y2255D02*
D03*
X7097Y1255D02*
D03*
X5598Y16255D02*
D03*
X6097Y15255D02*
D03*
X5598Y14255D02*
D03*
X6097Y13255D02*
D03*
X5598Y12255D02*
D03*
Y10255D02*
D03*
Y8255D02*
D03*
X6097Y7255D02*
D03*
Y3255D02*
D03*
X5598Y2255D02*
D03*
X6097Y1255D02*
D03*
X4597Y16255D02*
D03*
X5098Y15255D02*
D03*
X4597Y14255D02*
D03*
X5098Y13255D02*
D03*
X4597Y12255D02*
D03*
X5098Y11255D02*
D03*
X4597Y10255D02*
D03*
X5098Y9255D02*
D03*
X4597Y8255D02*
D03*
X5098Y7255D02*
D03*
Y5255D02*
D03*
Y3255D02*
D03*
X4597Y2255D02*
D03*
X5098Y1255D02*
D03*
X3598Y16255D02*
D03*
X4098Y15255D02*
D03*
X3598Y14255D02*
D03*
X4098Y13255D02*
D03*
X3598Y12255D02*
D03*
X4098Y11255D02*
D03*
X3598Y10255D02*
D03*
X4098Y9255D02*
D03*
X3598Y8255D02*
D03*
X4098Y7255D02*
D03*
X3598Y6255D02*
D03*
X4098Y5255D02*
D03*
Y3255D02*
D03*
X3598Y2255D02*
D03*
X4098Y1255D02*
D03*
X2598Y16255D02*
D03*
X3097Y15255D02*
D03*
X2598Y14255D02*
D03*
X3097Y13255D02*
D03*
X2598Y12255D02*
D03*
X3097Y11255D02*
D03*
X2598Y10255D02*
D03*
X3097Y9255D02*
D03*
X2598Y8255D02*
D03*
X3097Y7255D02*
D03*
Y5255D02*
D03*
Y3255D02*
D03*
X2598Y2255D02*
D03*
X3097Y1255D02*
D03*
X1597Y16255D02*
D03*
X2097Y15255D02*
D03*
X1597Y14255D02*
D03*
X2097Y13255D02*
D03*
Y11255D02*
D03*
X1597Y10255D02*
D03*
X2097Y3255D02*
D03*
X1597Y2255D02*
D03*
X2097Y1255D02*
D03*
X597Y16255D02*
D03*
X1098Y15255D02*
D03*
Y11255D02*
D03*
X597Y6255D02*
D03*
Y4255D02*
D03*
X1098Y3255D02*
D03*
X597Y2255D02*
D03*
X1098Y1255D02*
D03*
X11821Y6801D02*
D03*
X10780Y9970D02*
D03*
X11747Y12262D02*
D03*
X10915Y12470D02*
D03*
X12120Y11122D02*
D03*
Y11740D02*
D03*
X12815Y6959D02*
D03*
X12854Y7982D02*
D03*
X14163Y6841D02*
D03*
X13976Y5482D02*
D03*
X11683Y7185D02*
D03*
X11949Y5472D02*
D03*
X12628Y11742D02*
D03*
X10633Y12609D02*
D03*
X9709Y12557D02*
D03*
Y12084D02*
D03*
Y11612D02*
D03*
Y11140D02*
D03*
X9236Y12557D02*
D03*
Y12084D02*
D03*
Y11612D02*
D03*
Y11140D02*
D03*
X8764Y12557D02*
D03*
Y12084D02*
D03*
Y11612D02*
D03*
Y11140D02*
D03*
X8291Y12557D02*
D03*
Y12084D02*
D03*
Y11140D02*
D03*
Y11612D02*
D03*
X13291Y6120D02*
D03*
X16252Y6120D02*
D03*
X10252Y6120D02*
D03*
X9252D02*
D03*
X6252D02*
D03*
X7252D02*
D03*
X5252D02*
D03*
X5252Y4600D02*
D03*
X7252Y4600D02*
D03*
X15252Y4600D02*
D03*
X12242Y4974D02*
D03*
X9911Y7441D02*
D03*
X10925Y5472D02*
D03*
X8524Y5482D02*
D03*
X16260Y4902D02*
D03*
X15768Y5502D02*
D03*
X16506Y6772D02*
D03*
X14823Y5502D02*
D03*
X236Y12466D02*
D03*
Y13465D02*
D03*
Y14961D02*
D03*
Y14463D02*
D03*
Y15959D02*
D03*
Y15461D02*
D03*
X12283Y16782D02*
D03*
X12236Y17457D02*
D03*
X13764Y17457D02*
D03*
X13264D02*
D03*
X13117Y16884D02*
D03*
Y17198D02*
D03*
X17764Y12457D02*
D03*
Y13457D02*
D03*
Y14455D02*
D03*
Y15957D02*
D03*
Y15457D02*
D03*
Y16455D02*
D03*
Y14957D02*
D03*
X12283Y16468D02*
D03*
X12678Y15257D02*
D03*
X12974Y15273D02*
D03*
X13118Y16423D02*
D03*
X11922Y16066D02*
D03*
X11607D02*
D03*
X11292D02*
D03*
X10977D02*
D03*
X10662D02*
D03*
X10347D02*
D03*
X10032D02*
D03*
X9717D02*
D03*
X9404Y16030D02*
D03*
X9106Y15929D02*
D03*
X8842Y15757D02*
D03*
X8622Y15532D02*
D03*
X8463Y15260D02*
D03*
X8368Y14960D02*
D03*
X8351Y14646D02*
D03*
X9181Y14677D02*
D03*
X9263Y14981D02*
D03*
X9502Y15186D02*
D03*
X9815Y15223D02*
D03*
X10130D02*
D03*
X10445D02*
D03*
X10760D02*
D03*
X11075D02*
D03*
X11390D02*
D03*
X11705D02*
D03*
X12019D02*
D03*
X12334Y15227D02*
D03*
X12202Y16062D02*
D03*
X15896Y8455D02*
D03*
X15640Y8967D02*
D03*
X13671Y7982D02*
D03*
X10665Y6779D02*
D03*
X11236Y17457D02*
D03*
X11736D02*
D03*
X10236D02*
D03*
X10736D02*
D03*
X17764Y7579D02*
D03*
Y8079D02*
D03*
Y8579D02*
D03*
Y7079D02*
D03*
X16764Y236D02*
D03*
X15764D02*
D03*
X15264D02*
D03*
X14764D02*
D03*
X14264D02*
D03*
X16264D02*
D03*
X14264Y17457D02*
D03*
X13128Y15709D02*
D03*
X14764Y17457D02*
D03*
X15264D02*
D03*
X15764D02*
D03*
X8736Y17457D02*
D03*
X8236D02*
D03*
X9736D02*
D03*
X9236D02*
D03*
X5736D02*
D03*
X5236D02*
D03*
X7236D02*
D03*
X7736D02*
D03*
X6736D02*
D03*
X6236D02*
D03*
X3236D02*
D03*
X3736D02*
D03*
X4736D02*
D03*
X4236D02*
D03*
X2236D02*
D03*
X2736D02*
D03*
X11996Y17096D02*
D03*
X10224Y9262D02*
D03*
X2250Y5348D02*
D03*
X1250Y5348D02*
D03*
X10252Y4600D02*
D03*
X8252D02*
D03*
X9252D02*
D03*
X11252D02*
D03*
X13252D02*
D03*
X14252Y4797D02*
D03*
X9319Y14360D02*
D03*
Y14055D02*
D03*
Y13711D02*
D03*
X6250Y4596D02*
D03*
X9319Y13445D02*
D03*
X13435Y16024D02*
D03*
X7764Y236D02*
D03*
X8264D02*
D03*
X8764D02*
D03*
X9264D02*
D03*
X7236Y236D02*
D03*
X6736D02*
D03*
X6236D02*
D03*
X5736D02*
D03*
X3736D02*
D03*
X4236D02*
D03*
X4736D02*
D03*
X5236D02*
D03*
X1736D02*
D03*
X2236D02*
D03*
X2736D02*
D03*
X3236D02*
D03*
X736D02*
D03*
X1236D02*
D03*
X236Y1579D02*
D03*
Y1079D02*
D03*
Y657D02*
D03*
Y236D02*
D03*
Y3579D02*
D03*
Y3079D02*
D03*
Y2579D02*
D03*
Y2079D02*
D03*
Y4579D02*
D03*
Y4079D02*
D03*
Y6579D02*
D03*
Y6079D02*
D03*
Y5579D02*
D03*
Y5079D02*
D03*
Y8579D02*
D03*
Y8079D02*
D03*
Y7579D02*
D03*
Y7079D02*
D03*
Y9579D02*
D03*
Y9079D02*
D03*
Y11579D02*
D03*
Y11079D02*
D03*
Y10579D02*
D03*
Y10079D02*
D03*
X11264Y236D02*
D03*
X10764D02*
D03*
X10264D02*
D03*
X9764D02*
D03*
X13264D02*
D03*
X12764D02*
D03*
X12264D02*
D03*
X11764D02*
D03*
X17264D02*
D03*
X13764D02*
D03*
X17764Y1579D02*
D03*
Y1079D02*
D03*
Y677D02*
D03*
Y236D02*
D03*
Y3579D02*
D03*
Y3079D02*
D03*
Y2579D02*
D03*
Y2079D02*
D03*
Y5579D02*
D03*
Y9579D02*
D03*
Y9079D02*
D03*
Y11579D02*
D03*
Y11079D02*
D03*
Y10079D02*
D03*
X17264Y17457D02*
D03*
X16764D02*
D03*
X16264D02*
D03*
X17764Y16957D02*
D03*
Y17459D02*
D03*
X236Y16459D02*
D03*
Y16957D02*
D03*
X1736Y17457D02*
D03*
X1236D02*
D03*
X736D02*
D03*
X236D02*
D03*
X2719Y4600D02*
D03*
X10489Y9358D02*
D03*
X9836Y8931D02*
D03*
X10001Y8551D02*
D03*
X8216Y14068D02*
D03*
X6484Y10793D02*
D03*
X6815Y10505D02*
D03*
X6501Y9851D02*
D03*
X6481Y9121D02*
D03*
X6754Y8471D02*
D03*
X7222Y14062D02*
D03*
X7945Y13941D02*
D03*
X7587Y14563D02*
D03*
X6788Y12596D02*
D03*
X6780Y12320D02*
D03*
X6946Y12825D02*
D03*
X6335Y13181D02*
D03*
X6401Y13731D02*
D03*
X9624Y13461D02*
D03*
X10355Y13731D02*
D03*
X10533Y13471D02*
D03*
X11261Y12641D02*
D03*
X11510Y12960D02*
D03*
X11917Y13150D02*
D03*
X8034Y14394D02*
D03*
X2336Y9192D02*
D03*
X2108Y9322D02*
D03*
X707Y8025D02*
D03*
X1769Y6856D02*
D03*
X391Y8342D02*
D03*
X1592Y8667D02*
D03*
X1001Y9287D02*
D03*
X1090Y8392D02*
D03*
X2123Y7255D02*
D03*
X4754Y5256D02*
D03*
X17764Y10579D02*
D03*
Y5079D02*
D03*
Y6079D02*
D03*
Y6579D02*
D03*
Y4079D02*
D03*
Y4579D02*
D03*
X10369Y10285D02*
D03*
X8764Y13366D02*
D03*
X8187Y13481D02*
D03*
X7285Y13791D02*
D03*
X9917Y13433D02*
D03*
D95*
X8194Y13481D02*
X8309Y13366D01*
X8764D01*
X8187Y13481D02*
X8194D01*
X7571Y13513D02*
X7603Y13481D01*
M02*
