G04*
G04 #@! TF.GenerationSoftware,Altium Limited,Altium Designer,25.8.1 (18)*
G04*
G04 Layer_Color=32768*
%FSLAX24Y24*%
%MOIN*%
G70*
G04*
G04 #@! TF.SameCoordinates,BD92749D-DAB3-424A-A086-50895A4BE64C*
G04*
G04*
G04 #@! TF.FilePolarity,Positive*
G04*
G01*
G75*
%ADD11C,0.0100*%
%ADD68C,0.0394*%
%ADD83C,0.0047*%
G36*
X8906Y14583D02*
X8805Y14329D01*
X8805Y14199D01*
X8707Y14199D01*
X8707Y14329D01*
X8606Y14583D01*
X8606Y14690D01*
X8906D01*
Y14583D01*
D02*
G37*
G36*
X12113Y15842D02*
X12113Y15448D01*
X12378D01*
X12378Y15842D01*
X12113D01*
D02*
G37*
G36*
X12890Y16482D02*
X12496D01*
Y15478D01*
X12890D01*
Y16482D01*
D02*
G37*
G36*
X12889Y17593D02*
X12495D01*
Y16600D01*
X12889D01*
Y17593D01*
D02*
G37*
D11*
X4992Y18397D02*
X4677D01*
Y18160D01*
X4834Y18239D01*
X4913D01*
X4992Y18160D01*
Y18003D01*
X4913Y17924D01*
X4755D01*
X4677Y18003D01*
X5149Y18318D02*
X5228Y18397D01*
X5385D01*
X5464Y18318D01*
Y18003D01*
X5385Y17924D01*
X5228D01*
X5149Y18003D01*
Y18318D01*
X6330Y18397D02*
X6172D01*
X6094Y18318D01*
Y18003D01*
X6172Y17924D01*
X6330D01*
X6408Y18003D01*
Y18318D01*
X6330Y18397D01*
X6566D02*
Y17924D01*
Y18160D01*
X6645Y18239D01*
X6802D01*
X6881Y18160D01*
Y17924D01*
X7038D02*
Y18239D01*
X7117D01*
X7196Y18160D01*
Y17924D01*
Y18160D01*
X7274Y18239D01*
X7353Y18160D01*
Y17924D01*
X7983D02*
X8219D01*
X8298Y18003D01*
X8219Y18082D01*
X8062D01*
X7983Y18160D01*
X8062Y18239D01*
X8298D01*
X8455Y17924D02*
X8612D01*
X8534D01*
Y18239D01*
X8455D01*
X8849Y17924D02*
Y18239D01*
X9085D01*
X9164Y18160D01*
Y17924D01*
X9478Y17767D02*
X9557D01*
X9636Y17846D01*
Y18239D01*
X9400D01*
X9321Y18160D01*
Y18003D01*
X9400Y17924D01*
X9636D01*
X9793D02*
X9951D01*
X9872D01*
Y18397D01*
X9793D01*
X10423Y17924D02*
X10266D01*
X10187Y18003D01*
Y18160D01*
X10266Y18239D01*
X10423D01*
X10502Y18160D01*
Y18082D01*
X10187D01*
X11446Y18239D02*
X11210D01*
X11131Y18160D01*
Y18003D01*
X11210Y17924D01*
X11446D01*
X11682D02*
X11840D01*
X11919Y18003D01*
Y18160D01*
X11840Y18239D01*
X11682D01*
X11604Y18160D01*
Y18003D01*
X11682Y17924D01*
X12076Y17767D02*
Y18239D01*
X12312D01*
X12391Y18160D01*
Y18003D01*
X12312Y17924D01*
X12076D01*
X12548D02*
X12706D01*
X12627D01*
Y18397D01*
X12548D01*
X13021Y18239D02*
X13178D01*
X13257Y18160D01*
Y17924D01*
X13021D01*
X12942Y18003D01*
X13021Y18082D01*
X13257D01*
X13414Y17924D02*
Y18239D01*
X13650D01*
X13729Y18160D01*
Y17924D01*
X13965Y18239D02*
X14123D01*
X14201Y18160D01*
Y17924D01*
X13965D01*
X13886Y18003D01*
X13965Y18082D01*
X14201D01*
X14359Y18239D02*
Y17924D01*
Y18082D01*
X14437Y18160D01*
X14516Y18239D01*
X14595D01*
X4677Y16960D02*
X4834D01*
X4755D01*
Y17275D01*
X4677D01*
X5070Y16960D02*
Y17275D01*
X5149D01*
X5228Y17196D01*
Y16960D01*
Y17196D01*
X5306Y17275D01*
X5385Y17196D01*
Y16960D01*
X5543Y16803D02*
Y17275D01*
X5779D01*
X5857Y17196D01*
Y17039D01*
X5779Y16960D01*
X5543D01*
X6251D02*
X6094D01*
X6015Y17039D01*
Y17196D01*
X6094Y17275D01*
X6251D01*
X6330Y17196D01*
Y17118D01*
X6015D01*
X6802Y17432D02*
Y16960D01*
X6566D01*
X6487Y17039D01*
Y17196D01*
X6566Y17275D01*
X6802D01*
X7038D02*
X7196D01*
X7274Y17196D01*
Y16960D01*
X7038D01*
X6959Y17039D01*
X7038Y17118D01*
X7274D01*
X7432Y16960D02*
Y17275D01*
X7668D01*
X7747Y17196D01*
Y16960D01*
X8219Y17275D02*
X7983D01*
X7904Y17196D01*
Y17039D01*
X7983Y16960D01*
X8219D01*
X8612D02*
X8455D01*
X8376Y17039D01*
Y17196D01*
X8455Y17275D01*
X8612D01*
X8691Y17196D01*
Y17118D01*
X8376D01*
X9400Y17354D02*
Y17275D01*
X9321D01*
X9478D01*
X9400D01*
Y17039D01*
X9478Y16960D01*
X9793D02*
X9951D01*
X10029Y17039D01*
Y17196D01*
X9951Y17275D01*
X9793D01*
X9715Y17196D01*
Y17039D01*
X9793Y16960D01*
X10187Y16803D02*
Y17275D01*
X10423D01*
X10502Y17196D01*
Y17039D01*
X10423Y16960D01*
X10187D01*
X9559Y14529D02*
X9244D01*
Y14292D01*
X9401Y14371D01*
X9480D01*
X9559Y14292D01*
Y14135D01*
X9480Y14056D01*
X9322D01*
X9244Y14135D01*
X9716Y14450D02*
X9795Y14529D01*
X9952D01*
X10031Y14450D01*
Y14135D01*
X9952Y14056D01*
X9795D01*
X9716Y14135D01*
Y14450D01*
X10897Y14529D02*
X10739D01*
X10661Y14450D01*
Y14135D01*
X10739Y14056D01*
X10897D01*
X10975Y14135D01*
Y14450D01*
X10897Y14529D01*
X11133D02*
Y14056D01*
Y14292D01*
X11212Y14371D01*
X11369D01*
X11448Y14292D01*
Y14056D01*
X11605D02*
Y14371D01*
X11684D01*
X11763Y14292D01*
Y14056D01*
Y14292D01*
X11841Y14371D01*
X11920Y14292D01*
Y14056D01*
X12550D02*
X12786D01*
X12865Y14135D01*
X12786Y14214D01*
X12628D01*
X12550Y14292D01*
X12628Y14371D01*
X12865D01*
X13022Y14056D02*
X13179D01*
X13101D01*
Y14371D01*
X13022D01*
X13416Y14056D02*
Y14371D01*
X13652D01*
X13730Y14292D01*
Y14056D01*
X14045Y13899D02*
X14124D01*
X14203Y13978D01*
Y14371D01*
X13967D01*
X13888Y14292D01*
Y14135D01*
X13967Y14056D01*
X14203D01*
X14360D02*
X14518D01*
X14439D01*
Y14529D01*
X14360D01*
X14990Y14056D02*
X14832D01*
X14754Y14135D01*
Y14292D01*
X14832Y14371D01*
X14990D01*
X15069Y14292D01*
Y14214D01*
X14754D01*
X9244Y13092D02*
X9401D01*
X9322D01*
Y13407D01*
X9244D01*
X9637Y13092D02*
Y13407D01*
X9716D01*
X9795Y13328D01*
Y13092D01*
Y13328D01*
X9873Y13407D01*
X9952Y13328D01*
Y13092D01*
X10110Y12935D02*
Y13407D01*
X10346D01*
X10424Y13328D01*
Y13171D01*
X10346Y13092D01*
X10110D01*
X10818D02*
X10661D01*
X10582Y13171D01*
Y13328D01*
X10661Y13407D01*
X10818D01*
X10897Y13328D01*
Y13249D01*
X10582D01*
X11369Y13564D02*
Y13092D01*
X11133D01*
X11054Y13171D01*
Y13328D01*
X11133Y13407D01*
X11369D01*
X11605D02*
X11763D01*
X11841Y13328D01*
Y13092D01*
X11605D01*
X11526Y13171D01*
X11605Y13249D01*
X11841D01*
X11999Y13092D02*
Y13407D01*
X12235D01*
X12314Y13328D01*
Y13092D01*
X12786Y13407D02*
X12550D01*
X12471Y13328D01*
Y13171D01*
X12550Y13092D01*
X12786D01*
X13179D02*
X13022D01*
X12943Y13171D01*
Y13328D01*
X13022Y13407D01*
X13179D01*
X13258Y13328D01*
Y13249D01*
X12943D01*
X13967Y13486D02*
Y13407D01*
X13888D01*
X14045D01*
X13967D01*
Y13171D01*
X14045Y13092D01*
X14360D02*
X14518D01*
X14596Y13171D01*
Y13328D01*
X14518Y13407D01*
X14360D01*
X14281Y13328D01*
Y13171D01*
X14360Y13092D01*
X14754Y12935D02*
Y13407D01*
X14990D01*
X15069Y13328D01*
Y13171D01*
X14990Y13092D01*
X14754D01*
X15226Y13328D02*
X15541D01*
X15698Y13092D02*
Y13407D01*
X15777D01*
X15856Y13328D01*
Y13092D01*
Y13328D01*
X15934Y13407D01*
X16013Y13328D01*
Y13092D01*
X16171D02*
X16328D01*
X16249D01*
Y13407D01*
X16171D01*
X16879Y13564D02*
Y13092D01*
X16643D01*
X16564Y13171D01*
Y13328D01*
X16643Y13407D01*
X16879D01*
X17036Y13092D02*
X17194D01*
X17115D01*
Y13564D01*
X17036Y13486D01*
D68*
X9690Y15645D02*
G03*
X8756Y14711I0J-934D01*
G01*
X9690Y15645D02*
X12175D01*
D83*
X8559Y13291D02*
X8599Y13252D01*
X8559Y13291D02*
Y13844D01*
X8599Y13029D02*
Y13252D01*
X8914Y13248D02*
X8953Y13288D01*
Y13844D01*
X8914Y13029D02*
Y13248D01*
M02*
