G04*
G04 #@! TF.GenerationSoftware,Altium Limited,Altium Designer,25.8.1 (18)*
G04*
G04 Layer_Physical_Order=2*
G04 Layer_Color=2130677*
%FSLAX24Y24*%
%MOIN*%
G70*
G04*
G04 #@! TF.SameCoordinates,BD92749D-DAB3-424A-A086-50895A4BE64C*
G04*
G04*
G04 #@! TF.FilePolarity,Positive*
G04*
G01*
G75*
%ADD18C,0.0079*%
%ADD71C,0.0060*%
%ADD75C,0.0197*%
%ADD91C,0.0591*%
%ADD92R,0.0591X0.0591*%
%ADD93C,0.0197*%
%ADD94C,0.0118*%
G36*
X17920Y250D02*
Y216D01*
X17894Y154D01*
X17846Y106D01*
X17784Y80D01*
X216D01*
X154Y106D01*
X106Y154D01*
X80Y216D01*
Y250D01*
X80Y17565D01*
X12414D01*
Y15940D01*
X9617D01*
X9458Y15919D01*
X9302Y15877D01*
X9153Y15816D01*
X9013Y15735D01*
X8886Y15637D01*
X8772Y15523D01*
X8673Y15395D01*
X8593Y15256D01*
X8531Y15107D01*
X8489Y14951D01*
X8468Y14791D01*
Y14489D01*
X8489Y14414D01*
X8527Y14346D01*
X8582Y14291D01*
X8650Y14252D01*
X8725Y14232D01*
X8803D01*
X8878Y14252D01*
X8945Y14291D01*
X9000Y14346D01*
X9039Y14414D01*
X9059Y14489D01*
Y14711D01*
X9062Y14773D01*
X9087Y14896D01*
X9135Y15012D01*
X9204Y15116D01*
X9293Y15204D01*
X9397Y15274D01*
X9513Y15322D01*
X9635Y15346D01*
X9698Y15349D01*
X12414D01*
X12988Y15349D01*
X12986Y17530D01*
X13021Y17565D01*
X17920D01*
Y250D01*
D02*
G37*
%LPC*%
G36*
X1056Y14434D02*
X726D01*
Y14105D01*
X1056D01*
Y14434D01*
D02*
G37*
G36*
X626D02*
X297D01*
Y14105D01*
X626D01*
Y14434D01*
D02*
G37*
G36*
X17703Y14434D02*
X17374D01*
Y14105D01*
X17703D01*
Y14434D01*
D02*
G37*
G36*
X17274D02*
X16945D01*
Y14105D01*
X17274D01*
Y14434D01*
D02*
G37*
G36*
X7285Y13989D02*
X7260Y13987D01*
X7234Y13982D01*
X7210Y13974D01*
X7187Y13962D01*
X7165Y13948D01*
X7146Y13931D01*
X7129Y13911D01*
X7114Y13890D01*
X7082Y13874D01*
X7056Y13883D01*
X7056Y13884D01*
X7031Y13892D01*
X7006Y13897D01*
X6980Y13899D01*
X6954Y13897D01*
X6929Y13892D01*
X6905Y13884D01*
X6881Y13872D01*
X6860Y13858D01*
X6841Y13841D01*
X6823Y13821D01*
X6809Y13800D01*
X6798Y13777D01*
X6789Y13752D01*
X6784Y13727D01*
X6783Y13701D01*
X6784Y13676D01*
X6789Y13650D01*
X6798Y13626D01*
X6809Y13603D01*
X6823Y13581D01*
X6841Y13562D01*
X6860Y13545D01*
X6881Y13530D01*
X6905Y13519D01*
X6929Y13511D01*
X6954Y13506D01*
X6980Y13504D01*
X7006Y13506D01*
X7031Y13511D01*
X7056Y13519D01*
X7079Y13530D01*
X7100Y13545D01*
X7120Y13562D01*
X7137Y13581D01*
X7151Y13603D01*
X7183Y13619D01*
X7209Y13609D01*
X7210Y13609D01*
X7234Y13601D01*
X7260Y13596D01*
X7285Y13594D01*
X7311Y13596D01*
X7336Y13601D01*
X7361Y13609D01*
X7384Y13621D01*
X7405Y13635D01*
X7425Y13652D01*
X7442Y13671D01*
X7456Y13693D01*
X7467Y13716D01*
X7476Y13740D01*
X7481Y13766D01*
X7483Y13791D01*
X7481Y13817D01*
X7476Y13842D01*
X7467Y13867D01*
X7456Y13890D01*
X7442Y13911D01*
X7425Y13931D01*
X7405Y13948D01*
X7384Y13962D01*
X7361Y13974D01*
X7336Y13982D01*
X7311Y13987D01*
X7285Y13989D01*
D02*
G37*
G36*
X1056Y14005D02*
X726D01*
Y13676D01*
X1056D01*
Y14005D01*
D02*
G37*
G36*
X626D02*
X297D01*
Y13676D01*
X626D01*
Y14005D01*
D02*
G37*
G36*
X17703Y14005D02*
X17374D01*
Y13676D01*
X17703D01*
Y14005D01*
D02*
G37*
G36*
X17274D02*
X16945D01*
Y13676D01*
X17274D01*
Y14005D01*
D02*
G37*
G36*
X8187Y13679D02*
X8161Y13677D01*
X8136Y13672D01*
X8111Y13664D01*
X8088Y13652D01*
X8067Y13638D01*
X8047Y13621D01*
X8030Y13601D01*
X8016Y13580D01*
X8005Y13557D01*
X7996Y13532D01*
X7991Y13507D01*
X7990Y13481D01*
X7991Y13456D01*
X7996Y13430D01*
X8005Y13406D01*
X8016Y13383D01*
X8030Y13361D01*
X8047Y13342D01*
X8067Y13325D01*
X8088Y13311D01*
X8111Y13299D01*
X8136Y13291D01*
X8161Y13286D01*
X8187Y13284D01*
X8213Y13286D01*
X8238Y13291D01*
X8262Y13299D01*
X8285Y13311D01*
X8307Y13325D01*
X8326Y13342D01*
X8343Y13361D01*
X8358Y13383D01*
X8369Y13406D01*
X8377Y13430D01*
X8382Y13456D01*
X8384Y13481D01*
X8382Y13507D01*
X8377Y13532D01*
X8369Y13557D01*
X8358Y13580D01*
X8343Y13601D01*
X8326Y13621D01*
X8307Y13638D01*
X8285Y13652D01*
X8262Y13664D01*
X8238Y13672D01*
X8213Y13677D01*
X8187Y13679D01*
D02*
G37*
G36*
X9917Y13630D02*
X9892Y13629D01*
X9866Y13624D01*
X9842Y13615D01*
X9819Y13604D01*
X9797Y13590D01*
X9778Y13573D01*
X9761Y13553D01*
X9747Y13532D01*
X9735Y13509D01*
X9727Y13484D01*
X9722Y13459D01*
X9720Y13433D01*
X9722Y13407D01*
X9727Y13382D01*
X9735Y13358D01*
X9747Y13334D01*
X9761Y13313D01*
X9778Y13294D01*
X9797Y13277D01*
X9819Y13262D01*
X9842Y13251D01*
X9866Y13243D01*
X9892Y13238D01*
X9917Y13236D01*
X9943Y13238D01*
X9968Y13243D01*
X9993Y13251D01*
X10016Y13262D01*
X10037Y13277D01*
X10057Y13294D01*
X10074Y13313D01*
X10088Y13334D01*
X10100Y13358D01*
X10108Y13382D01*
X10113Y13407D01*
X10115Y13433D01*
X10113Y13459D01*
X10108Y13484D01*
X10100Y13509D01*
X10088Y13532D01*
X10074Y13553D01*
X10057Y13573D01*
X10037Y13590D01*
X10016Y13604D01*
X9993Y13615D01*
X9968Y13624D01*
X9943Y13629D01*
X9917Y13630D01*
D02*
G37*
G36*
X8764Y13563D02*
X8738Y13562D01*
X8713Y13556D01*
X8688Y13548D01*
X8665Y13537D01*
X8644Y13522D01*
X8624Y13505D01*
X8607Y13486D01*
X8593Y13465D01*
X8582Y13441D01*
X8573Y13417D01*
X8568Y13392D01*
X8567Y13366D01*
X8568Y13340D01*
X8573Y13315D01*
X8582Y13290D01*
X8593Y13267D01*
X8607Y13246D01*
X8624Y13226D01*
X8644Y13209D01*
X8665Y13195D01*
X8688Y13184D01*
X8713Y13175D01*
X8738Y13170D01*
X8764Y13169D01*
X8790Y13170D01*
X8815Y13175D01*
X8839Y13184D01*
X8862Y13195D01*
X8884Y13209D01*
X8903Y13226D01*
X8920Y13246D01*
X8935Y13267D01*
X8946Y13290D01*
X8954Y13315D01*
X8959Y13340D01*
X8961Y13366D01*
X8959Y13392D01*
X8954Y13417D01*
X8946Y13441D01*
X8935Y13465D01*
X8920Y13486D01*
X8903Y13505D01*
X8884Y13522D01*
X8862Y13537D01*
X8839Y13548D01*
X8815Y13556D01*
X8790Y13562D01*
X8764Y13563D01*
D02*
G37*
G36*
X11575Y13455D02*
X10904D01*
X10883Y13453D01*
X10862Y13448D01*
X10842Y13440D01*
X10823Y13428D01*
X10807Y13414D01*
X10266Y12873D01*
X10252Y12857D01*
X10240Y12838D01*
X10232Y12818D01*
X10227Y12797D01*
X10225Y12776D01*
Y11770D01*
X10227Y11749D01*
X10232Y11728D01*
X10240Y11708D01*
X10252Y11689D01*
X10266Y11673D01*
X10866Y11072D01*
Y9882D01*
Y8040D01*
X9529Y6703D01*
X9075D01*
X9053Y6701D01*
X9032Y6696D01*
X9012Y6688D01*
X8994Y6677D01*
X8977Y6663D01*
X7705Y5391D01*
X7705Y5390D01*
X7702Y5388D01*
X7697Y5386D01*
X7674Y5377D01*
X7653Y5364D01*
X7634Y5348D01*
X7618Y5329D01*
X7605Y5308D01*
X7596Y5285D01*
X7590Y5261D01*
X7588Y5236D01*
X7590Y5212D01*
X7596Y5187D01*
X7605Y5164D01*
X7618Y5143D01*
X7634Y5125D01*
X7653Y5108D01*
X7674Y5095D01*
X7697Y5086D01*
X7721Y5080D01*
X7746Y5078D01*
X7771Y5080D01*
X7795Y5086D01*
X7818Y5095D01*
X7839Y5108D01*
X7858Y5125D01*
X7874Y5143D01*
X7887Y5164D01*
X7896Y5187D01*
X7897Y5191D01*
X7902Y5197D01*
X9132Y6427D01*
X9587D01*
X9608Y6428D01*
X9629Y6434D01*
X9649Y6442D01*
X9668Y6453D01*
X9684Y6467D01*
X9899Y6682D01*
X9944Y6656D01*
X9942Y6649D01*
X9940Y6624D01*
X9942Y6599D01*
X9948Y6575D01*
X9958Y6552D01*
X9971Y6531D01*
X9987Y6512D01*
X10006Y6496D01*
X10027Y6483D01*
X10050Y6474D01*
X10074Y6468D01*
X10098Y6466D01*
X10123Y6468D01*
X10147Y6474D01*
X10170Y6483D01*
X10191Y6496D01*
X10210Y6512D01*
X10226Y6531D01*
X10239Y6552D01*
X10249Y6575D01*
X10249Y6576D01*
X10255Y6582D01*
X11106Y7433D01*
X11152Y7414D01*
Y6365D01*
X10030Y5243D01*
X10030Y5243D01*
X10027Y5240D01*
X10022Y5239D01*
X9999Y5229D01*
X9978Y5216D01*
X9959Y5200D01*
X9943Y5181D01*
X9930Y5160D01*
X9921Y5137D01*
X9915Y5113D01*
X9913Y5089D01*
X9915Y5064D01*
X9921Y5040D01*
X9930Y5017D01*
X9943Y4996D01*
X9959Y4977D01*
X9978Y4961D01*
X9999Y4948D01*
X10022Y4938D01*
X10046Y4933D01*
X10071Y4931D01*
X10096Y4933D01*
X10120Y4938D01*
X10143Y4948D01*
X10164Y4961D01*
X10183Y4977D01*
X10199Y4996D01*
X10212Y5017D01*
X10221Y5040D01*
X10222Y5044D01*
X10227Y5050D01*
X11388Y6210D01*
X11402Y6226D01*
X11413Y6245D01*
X11421Y6265D01*
X11427Y6286D01*
X11428Y6308D01*
Y6559D01*
X11478Y6577D01*
X11483Y6571D01*
X11502Y6555D01*
X11523Y6542D01*
X11546Y6533D01*
X11570Y6527D01*
X11594Y6525D01*
X11619Y6527D01*
X11643Y6533D01*
X11666Y6542D01*
X11687Y6555D01*
X11706Y6571D01*
X11722Y6590D01*
X11735Y6611D01*
X11745Y6634D01*
X11751Y6658D01*
X11752Y6683D01*
X11751Y6708D01*
X11745Y6732D01*
X11735Y6755D01*
X11722Y6776D01*
X11706Y6795D01*
X11687Y6811D01*
X11666Y6824D01*
X11643Y6833D01*
X11639Y6834D01*
X11634Y6839D01*
X11566Y6907D01*
Y7429D01*
X11612Y7448D01*
X12445Y6615D01*
X12445Y6615D01*
X12448Y6612D01*
X12449Y6607D01*
X12459Y6585D01*
X12472Y6563D01*
X12488Y6545D01*
X12507Y6528D01*
X12528Y6515D01*
X12551Y6506D01*
X12575Y6500D01*
X12599Y6498D01*
X12624Y6500D01*
X12648Y6506D01*
X12671Y6515D01*
X12692Y6528D01*
X12711Y6545D01*
X12727Y6563D01*
X12740Y6585D01*
X12750Y6607D01*
X12755Y6632D01*
X12757Y6656D01*
X12755Y6681D01*
X12750Y6705D01*
X12740Y6728D01*
X12727Y6749D01*
X12711Y6768D01*
X12692Y6784D01*
X12671Y6797D01*
X12648Y6806D01*
X12644Y6807D01*
X12638Y6813D01*
X11703Y7748D01*
Y7810D01*
X11749Y7829D01*
X11893Y7685D01*
X11893Y7685D01*
X11896Y7682D01*
X11897Y7678D01*
X11906Y7655D01*
X11919Y7634D01*
X11936Y7615D01*
X11954Y7599D01*
X11976Y7586D01*
X11998Y7576D01*
X12023Y7570D01*
X12047Y7568D01*
X12072Y7570D01*
X12096Y7576D01*
X12119Y7586D01*
X12140Y7599D01*
X12159Y7615D01*
X12195Y7624D01*
X12211Y7624D01*
X12225Y7620D01*
X12232Y7615D01*
X12250Y7603D01*
X12270Y7595D01*
X12291Y7590D01*
X12313Y7588D01*
X12361D01*
X12361Y7588D01*
X12365Y7588D01*
X12369Y7586D01*
X12392Y7576D01*
X12416Y7570D01*
X12441Y7568D01*
X12466Y7570D01*
X12490Y7576D01*
X12513Y7586D01*
X12534Y7599D01*
X12553Y7615D01*
X12569Y7634D01*
X12582Y7655D01*
X12591Y7678D01*
X12597Y7702D01*
X12599Y7726D01*
X12597Y7751D01*
X12591Y7775D01*
X12582Y7798D01*
X12569Y7819D01*
X12553Y7838D01*
X12534Y7854D01*
X12513Y7867D01*
X12490Y7877D01*
X12466Y7882D01*
X12441Y7884D01*
X12416Y7882D01*
X12392Y7877D01*
X12369Y7867D01*
X12368Y7867D01*
X12020Y8215D01*
Y11655D01*
X12018Y11677D01*
X12013Y11698D01*
X12005Y11718D01*
X11993Y11736D01*
X11979Y11753D01*
X11390Y12342D01*
X11374Y12356D01*
X11355Y12367D01*
X11335Y12376D01*
X11314Y12381D01*
X11293Y12382D01*
X11192D01*
X11192Y12382D01*
X11188Y12382D01*
X11184Y12385D01*
X11161Y12394D01*
X11137Y12400D01*
X11112Y12402D01*
X11087Y12400D01*
X11063Y12394D01*
X11040Y12385D01*
X11019Y12372D01*
X11001Y12356D01*
X10984Y12337D01*
X10977Y12325D01*
X10957Y12312D01*
X10917Y12302D01*
X10913Y12303D01*
X10911Y12304D01*
X10890Y12309D01*
X10868Y12311D01*
X10796D01*
X10674Y12433D01*
X10674Y12433D01*
X10671Y12436D01*
X10670Y12441D01*
X10660Y12463D01*
X10647Y12485D01*
X10631Y12503D01*
X10612Y12520D01*
X10591Y12532D01*
X10568Y12542D01*
X10544Y12548D01*
X10519Y12550D01*
X10502Y12566D01*
Y12718D01*
X10962Y13178D01*
X11508D01*
X11513Y13166D01*
X11526Y13145D01*
X11542Y13126D01*
X11561Y13110D01*
X11582Y13097D01*
X11605Y13088D01*
X11629Y13082D01*
X11654Y13080D01*
X11678Y13082D01*
X11702Y13088D01*
X11725Y13097D01*
X11746Y13110D01*
X11765Y13126D01*
X11781Y13145D01*
X11794Y13166D01*
X11804Y13189D01*
X11810Y13213D01*
X11812Y13238D01*
X11810Y13263D01*
X11804Y13287D01*
X11794Y13310D01*
X11781Y13331D01*
X11765Y13350D01*
X11746Y13366D01*
X11725Y13379D01*
X11702Y13388D01*
X11698Y13389D01*
X11693Y13395D01*
X11673Y13414D01*
X11656Y13428D01*
X11638Y13440D01*
X11618Y13448D01*
X11597Y13453D01*
X11575Y13455D01*
D02*
G37*
G36*
X676Y13449D02*
X638Y13447D01*
X599Y13442D01*
X562Y13432D01*
X526Y13419D01*
X491Y13403D01*
X457Y13383D01*
X426Y13360D01*
X398Y13334D01*
X372Y13305D01*
X349Y13274D01*
X329Y13241D01*
X312Y13206D01*
X299Y13170D01*
X290Y13132D01*
X284Y13094D01*
X282Y13055D01*
X284Y13016D01*
X290Y12978D01*
X299Y12941D01*
X312Y12904D01*
X329Y12869D01*
X349Y12836D01*
X372Y12805D01*
X398Y12776D01*
X426Y12750D01*
X457Y12727D01*
X491Y12707D01*
X526Y12691D01*
X562Y12678D01*
X599Y12669D01*
X638Y12663D01*
X676Y12661D01*
X715Y12663D01*
X753Y12669D01*
X791Y12678D01*
X827Y12691D01*
X862Y12707D01*
X895Y12727D01*
X926Y12750D01*
X955Y12776D01*
X981Y12805D01*
X1004Y12836D01*
X1024Y12869D01*
X1041Y12904D01*
X1054Y12941D01*
X1063Y12978D01*
X1069Y13016D01*
X1071Y13055D01*
X1069Y13094D01*
X1063Y13132D01*
X1054Y13170D01*
X1041Y13206D01*
X1024Y13241D01*
X1004Y13274D01*
X981Y13305D01*
X955Y13334D01*
X926Y13360D01*
X895Y13383D01*
X862Y13403D01*
X827Y13419D01*
X791Y13432D01*
X753Y13442D01*
X715Y13447D01*
X676Y13449D01*
D02*
G37*
G36*
X15978Y14127D02*
X11325D01*
X11300Y14125D01*
X11274Y14120D01*
X11250Y14112D01*
X11227Y14100D01*
X11205Y14086D01*
X11186Y14069D01*
X11045Y13928D01*
X11028Y13908D01*
X11013Y13887D01*
X11002Y13864D01*
X10994Y13839D01*
X10989Y13814D01*
X10987Y13788D01*
X10989Y13763D01*
X10994Y13737D01*
X11002Y13713D01*
X11013Y13690D01*
X11028Y13668D01*
X11045Y13649D01*
X11064Y13632D01*
X11086Y13617D01*
X11109Y13606D01*
X11133Y13598D01*
X11158Y13593D01*
X11184Y13591D01*
X11210Y13593D01*
X11235Y13598D01*
X11260Y13606D01*
X11283Y13617D01*
X11304Y13632D01*
X11324Y13649D01*
X11407Y13732D01*
X15896D01*
X16712Y12916D01*
X16732Y12899D01*
X16753Y12884D01*
X16776Y12873D01*
X16801Y12865D01*
X16826Y12860D01*
X16852Y12858D01*
X16865D01*
X16888Y12857D01*
X16907Y12855D01*
X16925Y12851D01*
X16942Y12846D01*
X16959Y12839D01*
X16976Y12831D01*
X16992Y12821D01*
X17009Y12809D01*
X17025Y12796D01*
X17044Y12778D01*
X17044Y12777D01*
X17045Y12776D01*
X17074Y12750D01*
X17105Y12727D01*
X17138Y12707D01*
X17173Y12691D01*
X17209Y12678D01*
X17247Y12668D01*
X17285Y12663D01*
X17324Y12661D01*
X17363Y12663D01*
X17401Y12668D01*
X17438Y12678D01*
X17475Y12691D01*
X17510Y12707D01*
X17543Y12727D01*
X17574Y12750D01*
X17603Y12776D01*
X17629Y12805D01*
X17652Y12836D01*
X17672Y12869D01*
X17688Y12904D01*
X17701Y12941D01*
X17711Y12978D01*
X17716Y13016D01*
X17718Y13055D01*
X17716Y13094D01*
X17711Y13132D01*
X17701Y13170D01*
X17688Y13206D01*
X17672Y13241D01*
X17652Y13274D01*
X17629Y13305D01*
X17603Y13334D01*
X17574Y13360D01*
X17543Y13383D01*
X17510Y13403D01*
X17475Y13419D01*
X17438Y13432D01*
X17401Y13442D01*
X17363Y13447D01*
X17324Y13449D01*
X17285Y13447D01*
X17247Y13442D01*
X17209Y13432D01*
X17173Y13419D01*
X17138Y13403D01*
X17105Y13383D01*
X17074Y13360D01*
X17045Y13334D01*
X17044Y13333D01*
X17044Y13333D01*
X17025Y13315D01*
X17009Y13301D01*
X16992Y13289D01*
X16976Y13279D01*
X16959Y13271D01*
X16942Y13264D01*
X16926Y13260D01*
X16117Y14069D01*
X16098Y14086D01*
X16076Y14100D01*
X16053Y14112D01*
X16029Y14120D01*
X16003Y14125D01*
X15978Y14127D01*
D02*
G37*
G36*
X7395Y12838D02*
X7369Y12836D01*
X7343Y12831D01*
X7319Y12823D01*
X7296Y12811D01*
X7274Y12797D01*
X7255Y12780D01*
X7238Y12760D01*
X7224Y12739D01*
X7212Y12716D01*
X7204Y12691D01*
X7199Y12666D01*
X7197Y12640D01*
X7199Y12615D01*
X7204Y12589D01*
X7212Y12565D01*
X7224Y12542D01*
X7238Y12520D01*
X7255Y12501D01*
X7274Y12484D01*
X7296Y12469D01*
X7319Y12458D01*
X7343Y12450D01*
X7369Y12445D01*
X7395Y12443D01*
X7420Y12445D01*
X7446Y12450D01*
X7470Y12458D01*
X7493Y12469D01*
X7515Y12484D01*
X7534Y12501D01*
X7551Y12520D01*
X7565Y12542D01*
X7577Y12565D01*
X7585Y12589D01*
X7590Y12615D01*
X7592Y12640D01*
X7590Y12666D01*
X7585Y12691D01*
X7577Y12716D01*
X7565Y12739D01*
X7551Y12760D01*
X7534Y12780D01*
X7515Y12797D01*
X7493Y12811D01*
X7470Y12823D01*
X7446Y12831D01*
X7420Y12836D01*
X7395Y12838D01*
D02*
G37*
G36*
X16755Y12795D02*
X16217D01*
Y12313D01*
X16755D01*
Y12795D01*
D02*
G37*
G36*
X1789Y12759D02*
X1251D01*
Y12277D01*
X1789D01*
Y12759D01*
D02*
G37*
G36*
X676Y12449D02*
X638Y12447D01*
X599Y12442D01*
X562Y12432D01*
X526Y12419D01*
X491Y12403D01*
X457Y12383D01*
X426Y12360D01*
X398Y12334D01*
X372Y12305D01*
X349Y12274D01*
X329Y12241D01*
X312Y12206D01*
X299Y12170D01*
X290Y12132D01*
X284Y12094D01*
X282Y12055D01*
X284Y12016D01*
X290Y11978D01*
X299Y11941D01*
X312Y11904D01*
X329Y11869D01*
X349Y11836D01*
X372Y11805D01*
X398Y11776D01*
X426Y11750D01*
X457Y11727D01*
X491Y11707D01*
X526Y11691D01*
X562Y11678D01*
X599Y11669D01*
X638Y11663D01*
X676Y11661D01*
X715Y11663D01*
X753Y11669D01*
X791Y11678D01*
X827Y11691D01*
X862Y11707D01*
X895Y11727D01*
X926Y11750D01*
X955Y11776D01*
X981Y11805D01*
X1004Y11836D01*
X1024Y11869D01*
X1041Y11904D01*
X1054Y11941D01*
X1063Y11978D01*
X1069Y12016D01*
X1071Y12055D01*
X1069Y12094D01*
X1063Y12132D01*
X1054Y12170D01*
X1041Y12206D01*
X1024Y12241D01*
X1004Y12274D01*
X981Y12305D01*
X955Y12334D01*
X926Y12360D01*
X895Y12383D01*
X862Y12403D01*
X827Y12419D01*
X791Y12432D01*
X753Y12442D01*
X715Y12447D01*
X676Y12449D01*
D02*
G37*
G36*
X8132Y11119D02*
X7855Y10843D01*
Y10711D01*
X7454Y10310D01*
X7416Y10341D01*
X7430Y10362D01*
X7441Y10386D01*
X7450Y10410D01*
X7455Y10435D01*
X7456Y10461D01*
X7455Y10487D01*
X7450Y10512D01*
X7441Y10537D01*
X7430Y10560D01*
X7416Y10581D01*
X7399Y10601D01*
X7379Y10618D01*
X7358Y10632D01*
X7335Y10643D01*
X7310Y10652D01*
X7285Y10657D01*
X7259Y10658D01*
X7233Y10657D01*
X7208Y10652D01*
X7184Y10643D01*
X7160Y10632D01*
X7139Y10618D01*
X7120Y10601D01*
X7103Y10581D01*
X7088Y10560D01*
X7077Y10537D01*
X7068Y10512D01*
X7063Y10487D01*
X7062Y10461D01*
X7063Y10435D01*
X7068Y10410D01*
X7077Y10386D01*
X7088Y10362D01*
X7103Y10341D01*
X7120Y10322D01*
X7139Y10305D01*
X7160Y10290D01*
X7184Y10279D01*
X7208Y10271D01*
X7233Y10266D01*
X7259Y10264D01*
X7285Y10266D01*
X7310Y10271D01*
X7335Y10279D01*
X7358Y10290D01*
X7379Y10305D01*
X7410Y10266D01*
X6901Y9757D01*
Y9594D01*
X6851Y9579D01*
X6849Y9581D01*
X6832Y9601D01*
X6813Y9618D01*
X6791Y9632D01*
X6768Y9644D01*
X6744Y9652D01*
X6718Y9657D01*
X6693Y9659D01*
X6667Y9657D01*
X6642Y9652D01*
X6617Y9644D01*
X6594Y9632D01*
X6572Y9618D01*
X6553Y9601D01*
X6536Y9581D01*
X6522Y9560D01*
X6510Y9537D01*
X6502Y9512D01*
X6497Y9487D01*
X6495Y9461D01*
X6497Y9436D01*
X6502Y9410D01*
X6510Y9386D01*
X6522Y9363D01*
X6536Y9341D01*
X6553Y9322D01*
X6572Y9305D01*
X6594Y9290D01*
X6617Y9279D01*
X6642Y9271D01*
X6667Y9266D01*
X6693Y9264D01*
X6718Y9266D01*
X6744Y9271D01*
X6768Y9279D01*
X6791Y9290D01*
X6813Y9305D01*
X6832Y9322D01*
X6849Y9341D01*
X6851Y9344D01*
X6901Y9329D01*
X6901Y8527D01*
X7366Y8061D01*
X8928D01*
X9565Y8699D01*
Y9581D01*
X9611Y9600D01*
X9860Y9352D01*
Y9206D01*
X9861Y9184D01*
X9866Y9163D01*
X9875Y9143D01*
X9886Y9125D01*
X9900Y9108D01*
X10306Y8702D01*
X10306Y8702D01*
X10309Y8699D01*
X10310Y8694D01*
X10319Y8672D01*
X10332Y8650D01*
X10349Y8632D01*
X10367Y8615D01*
X10389Y8603D01*
X10411Y8593D01*
X10436Y8587D01*
X10460Y8585D01*
X10485Y8587D01*
X10509Y8593D01*
X10532Y8603D01*
X10553Y8615D01*
X10572Y8632D01*
X10588Y8650D01*
X10601Y8672D01*
X10610Y8694D01*
X10616Y8719D01*
X10618Y8743D01*
X10616Y8768D01*
X10610Y8792D01*
X10601Y8815D01*
X10588Y8836D01*
X10572Y8855D01*
X10553Y8871D01*
X10532Y8884D01*
X10509Y8894D01*
X10505Y8894D01*
X10499Y8900D01*
X10136Y9263D01*
Y9409D01*
X10134Y9431D01*
X10129Y9452D01*
X10121Y9472D01*
X10110Y9491D01*
X10095Y9507D01*
X9830Y9772D01*
X9841Y9827D01*
X9844Y9829D01*
X9864Y9839D01*
X9885Y9854D01*
X9905Y9871D01*
X9922Y9890D01*
X9936Y9911D01*
X9948Y9935D01*
X9956Y9959D01*
X9961Y9984D01*
X9963Y10010D01*
X9961Y10036D01*
X9956Y10061D01*
X9948Y10086D01*
X9936Y10109D01*
X9922Y10130D01*
X9905Y10150D01*
X9885Y10167D01*
X9864Y10181D01*
X9841Y10192D01*
X9816Y10201D01*
X9791Y10206D01*
X9765Y10207D01*
X9740Y10206D01*
X9714Y10201D01*
X9690Y10192D01*
X9667Y10181D01*
X9645Y10167D01*
X9626Y10150D01*
X9615Y10137D01*
X9588Y10142D01*
X9565Y10155D01*
Y10711D01*
X9565D01*
Y10771D01*
X9311Y11026D01*
X9225Y10940D01*
Y10926D01*
X9455Y10696D01*
Y10299D01*
X9454Y10298D01*
Y10232D01*
X9404Y10211D01*
X9379Y10236D01*
X9325Y10259D01*
X9266D01*
X9212Y10236D01*
X9170Y10195D01*
X9148Y10141D01*
Y10082D01*
X9170Y10028D01*
X9212Y9986D01*
X9256Y9967D01*
X9258Y9920D01*
X9257Y9917D01*
X9228Y9905D01*
X9197Y9874D01*
X9181Y9835D01*
Y9791D01*
X9197Y9752D01*
X9228Y9721D01*
X9268Y9705D01*
X9311D01*
X9345Y9719D01*
X9371Y9720D01*
X9376Y9723D01*
X9454D01*
Y9675D01*
X9455D01*
Y8808D01*
X9156Y8509D01*
X9047Y8400D01*
X8991Y8414D01*
X8979Y8445D01*
X8937Y8486D01*
X8883Y8509D01*
X8824D01*
X8770Y8486D01*
X8728Y8445D01*
X8706Y8391D01*
Y8332D01*
X8728Y8278D01*
X8739Y8267D01*
X8718Y8217D01*
X8673D01*
X8673Y8215D01*
X8662Y8205D01*
X7447Y8205D01*
X7024Y8628D01*
Y9700D01*
X7955Y10631D01*
Y10733D01*
X8236Y11014D01*
X8132Y11119D01*
D02*
G37*
G36*
X10369Y10482D02*
X10343Y10480D01*
X10318Y10475D01*
X10293Y10467D01*
X10270Y10456D01*
X10249Y10441D01*
X10229Y10424D01*
X10212Y10405D01*
X10198Y10384D01*
X10187Y10360D01*
X10178Y10336D01*
X10173Y10311D01*
X10172Y10285D01*
X10173Y10259D01*
X10178Y10234D01*
X10187Y10209D01*
X10198Y10186D01*
X10212Y10165D01*
X10229Y10145D01*
X10249Y10128D01*
X10270Y10114D01*
X10293Y10103D01*
X10318Y10094D01*
X10343Y10089D01*
X10369Y10088D01*
X10395Y10089D01*
X10420Y10094D01*
X10444Y10103D01*
X10467Y10114D01*
X10489Y10128D01*
X10508Y10145D01*
X10525Y10165D01*
X10540Y10186D01*
X10551Y10209D01*
X10559Y10234D01*
X10564Y10259D01*
X10566Y10285D01*
X10564Y10311D01*
X10559Y10336D01*
X10551Y10360D01*
X10540Y10384D01*
X10525Y10405D01*
X10508Y10424D01*
X10489Y10441D01*
X10467Y10456D01*
X10444Y10467D01*
X10420Y10475D01*
X10395Y10480D01*
X10369Y10482D01*
D02*
G37*
G36*
X1011Y9078D02*
X985Y9076D01*
X960Y9071D01*
X936Y9063D01*
X912Y9052D01*
X891Y9037D01*
X872Y9020D01*
X855Y9001D01*
X840Y8980D01*
X829Y8956D01*
X820Y8932D01*
X815Y8907D01*
X814Y8881D01*
X815Y8855D01*
X820Y8830D01*
X829Y8805D01*
X840Y8782D01*
X855Y8761D01*
X872Y8741D01*
X891Y8724D01*
X912Y8710D01*
X936Y8699D01*
X960Y8690D01*
X985Y8685D01*
X1011Y8684D01*
X1037Y8685D01*
X1062Y8690D01*
X1087Y8699D01*
X1110Y8710D01*
X1131Y8724D01*
X1151Y8741D01*
X1168Y8761D01*
X1182Y8782D01*
X1193Y8805D01*
X1202Y8830D01*
X1207Y8855D01*
X1208Y8881D01*
X1207Y8907D01*
X1202Y8932D01*
X1193Y8956D01*
X1182Y8980D01*
X1168Y9001D01*
X1151Y9020D01*
X1131Y9037D01*
X1110Y9052D01*
X1087Y9063D01*
X1062Y9071D01*
X1037Y9076D01*
X1011Y9078D01*
D02*
G37*
G36*
X17324Y12449D02*
X17285Y12447D01*
X17247Y12442D01*
X17209Y12432D01*
X17173Y12419D01*
X17138Y12403D01*
X17105Y12383D01*
X17074Y12360D01*
X17045Y12334D01*
X17019Y12305D01*
X16996Y12274D01*
X16976Y12241D01*
X16960Y12206D01*
X16947Y12170D01*
X16937Y12132D01*
X16932Y12094D01*
X16930Y12055D01*
X16932Y12016D01*
X16937Y11978D01*
X16947Y11941D01*
X16960Y11904D01*
X16976Y11869D01*
X16996Y11836D01*
X17019Y11805D01*
X17045Y11776D01*
X17046Y11776D01*
X17064Y11757D01*
X17078Y11740D01*
X17090Y11724D01*
X17100Y11707D01*
X17108Y11690D01*
X17115Y11673D01*
X17120Y11656D01*
X17123Y11638D01*
X17126Y11619D01*
X17127Y11596D01*
Y8144D01*
X17078Y8140D01*
X17077Y8140D01*
X16454D01*
X16452Y8159D01*
X16448Y8179D01*
X16440Y8198D01*
X16429Y8215D01*
X16416Y8230D01*
X16297Y8350D01*
X16281Y8363D01*
X16264Y8373D01*
X16245Y8381D01*
X16226Y8386D01*
X16206Y8387D01*
X15570D01*
X13257Y10700D01*
X13256Y10704D01*
X13251Y10728D01*
X13241Y10751D01*
X13228Y10772D01*
X13212Y10791D01*
X13193Y10807D01*
X13172Y10820D01*
X13149Y10829D01*
X13125Y10835D01*
X13100Y10841D01*
X13101Y10866D01*
X13099Y10891D01*
X13093Y10915D01*
X13084Y10938D01*
X13071Y10959D01*
X13055Y10978D01*
X13036Y10994D01*
X13015Y11007D01*
X12992Y11016D01*
X12968Y11022D01*
X12943Y11024D01*
X12933Y11023D01*
X12899Y11046D01*
X12883Y11065D01*
Y11278D01*
X12895Y11298D01*
X12905Y11321D01*
X12911Y11345D01*
X12913Y11369D01*
X12911Y11394D01*
X12905Y11418D01*
X12895Y11441D01*
X12882Y11462D01*
X12866Y11481D01*
X12847Y11497D01*
X12826Y11510D01*
X12803Y11520D01*
X12779Y11525D01*
X12755Y11527D01*
X12730Y11525D01*
X12706Y11520D01*
X12683Y11510D01*
X12662Y11497D01*
X12643Y11481D01*
X12627Y11462D01*
X12614Y11441D01*
X12604Y11418D01*
X12599Y11394D01*
X12597Y11369D01*
X12599Y11345D01*
X12604Y11321D01*
X12614Y11298D01*
X12626Y11278D01*
Y9932D01*
X12627Y9912D01*
X12632Y9893D01*
X12640Y9874D01*
X12650Y9857D01*
X12664Y9841D01*
X13779Y8726D01*
Y7666D01*
X13780Y7646D01*
X13785Y7627D01*
X13793Y7608D01*
X13803Y7591D01*
X13816Y7575D01*
X14619Y6772D01*
Y6748D01*
X14607Y6728D01*
X14598Y6705D01*
X14592Y6681D01*
X14590Y6656D01*
X14592Y6632D01*
X14598Y6607D01*
X14607Y6585D01*
X14620Y6563D01*
X14636Y6545D01*
X14655Y6528D01*
X14676Y6515D01*
X14699Y6506D01*
X14723Y6500D01*
X14748Y6498D01*
X14773Y6500D01*
X14797Y6506D01*
X14820Y6515D01*
X14841Y6528D01*
X14860Y6545D01*
X14876Y6563D01*
X14889Y6585D01*
X14898Y6607D01*
X14904Y6632D01*
X14928Y6664D01*
X14955Y6673D01*
X14961Y6673D01*
X14985Y6675D01*
X15009Y6680D01*
X15032Y6690D01*
X15053Y6703D01*
X15072Y6719D01*
X15088Y6738D01*
X15101Y6759D01*
X15111Y6782D01*
X15117Y6806D01*
X15119Y6831D01*
X15117Y6855D01*
X15111Y6880D01*
X15101Y6902D01*
X15088Y6924D01*
X15072Y6942D01*
X15053Y6959D01*
X15032Y6971D01*
X15009Y6981D01*
X14987Y6986D01*
X14596Y7378D01*
X14594Y7406D01*
X14602Y7442D01*
X14612Y7450D01*
X14628Y7469D01*
X14641Y7490D01*
X14650Y7513D01*
X14656Y7537D01*
X14658Y7562D01*
X14702Y7598D01*
X14831D01*
X14832Y7596D01*
X14842Y7579D01*
X14855Y7563D01*
X14948Y7470D01*
X14964Y7457D01*
X14981Y7447D01*
X14999Y7439D01*
X15019Y7434D01*
X15039Y7433D01*
X15159D01*
X15178Y7421D01*
X15201Y7411D01*
X15225Y7405D01*
X15250Y7404D01*
X15275Y7405D01*
X15299Y7411D01*
X15322Y7421D01*
X15343Y7434D01*
X15362Y7450D01*
X15378Y7469D01*
X15391Y7490D01*
X15400Y7513D01*
X15406Y7537D01*
X15408Y7562D01*
X15452Y7598D01*
X15523D01*
X15529Y7591D01*
X15650Y7470D01*
X15665Y7457D01*
X15682Y7447D01*
X15701Y7439D01*
X15721Y7434D01*
X15741Y7433D01*
X15909D01*
X15928Y7421D01*
X15951Y7411D01*
X15975Y7405D01*
X16000Y7404D01*
X16025Y7405D01*
X16049Y7411D01*
X16072Y7421D01*
X16093Y7434D01*
X16112Y7450D01*
X16128Y7469D01*
X16141Y7490D01*
X16150Y7513D01*
X16156Y7537D01*
X16158Y7562D01*
X16202Y7598D01*
X16268D01*
X16396Y7470D01*
X16411Y7457D01*
X16428Y7447D01*
X16447Y7439D01*
X16467Y7434D01*
X16487Y7433D01*
X16659D01*
X16678Y7421D01*
X16701Y7411D01*
X16725Y7405D01*
X16750Y7404D01*
X16775Y7405D01*
X16799Y7411D01*
X16822Y7421D01*
X16843Y7434D01*
X16862Y7450D01*
X16878Y7469D01*
X16891Y7490D01*
X16900Y7513D01*
X16906Y7537D01*
X16908Y7562D01*
X16952Y7598D01*
X17077D01*
X17078Y7598D01*
X17127Y7595D01*
Y6608D01*
X15865Y5347D01*
X14349D01*
X14324Y5372D01*
X14324Y5372D01*
X14305Y5389D01*
X14283Y5403D01*
X14260Y5415D01*
X14236Y5423D01*
X14210Y5428D01*
X14185Y5430D01*
X14159Y5428D01*
X14134Y5423D01*
X14109Y5415D01*
X14086Y5403D01*
X14065Y5389D01*
X14045Y5372D01*
X13916Y5243D01*
X13914Y5241D01*
X13894Y5224D01*
X13877Y5205D01*
X13863Y5184D01*
X13852Y5160D01*
X13843Y5136D01*
X13838Y5111D01*
X13837Y5085D01*
X13838Y5059D01*
X13843Y5034D01*
X13852Y5009D01*
X13863Y4986D01*
X13877Y4965D01*
X13894Y4945D01*
X13914Y4928D01*
X13935Y4914D01*
X13958Y4903D01*
X13983Y4894D01*
X14008Y4889D01*
X14034Y4888D01*
X14037D01*
X14063Y4889D01*
X14088Y4894D01*
X14112Y4903D01*
X14136Y4914D01*
X14157Y4928D01*
X14176Y4945D01*
X14197Y4966D01*
X14217Y4959D01*
X14242Y4954D01*
X14268Y4952D01*
X15947D01*
X15972Y4954D01*
X15998Y4959D01*
X16022Y4967D01*
X16045Y4979D01*
X16067Y4993D01*
X16086Y5010D01*
X17463Y6387D01*
X17480Y6407D01*
X17495Y6428D01*
X17506Y6451D01*
X17514Y6476D01*
X17519Y6501D01*
X17521Y6527D01*
Y11596D01*
X17522Y11619D01*
X17524Y11638D01*
X17528Y11656D01*
X17533Y11673D01*
X17540Y11690D01*
X17548Y11707D01*
X17558Y11724D01*
X17570Y11740D01*
X17584Y11757D01*
X17602Y11776D01*
X17603Y11776D01*
X17629Y11805D01*
X17652Y11836D01*
X17672Y11869D01*
X17688Y11904D01*
X17701Y11941D01*
X17711Y11978D01*
X17716Y12016D01*
X17718Y12055D01*
X17716Y12094D01*
X17711Y12132D01*
X17701Y12170D01*
X17688Y12206D01*
X17672Y12241D01*
X17652Y12274D01*
X17629Y12305D01*
X17603Y12334D01*
X17574Y12360D01*
X17543Y12383D01*
X17510Y12403D01*
X17475Y12419D01*
X17438Y12432D01*
X17401Y12442D01*
X17363Y12447D01*
X17324Y12449D01*
D02*
G37*
%LPD*%
G36*
X11653Y13297D02*
X11594Y13239D01*
X11594Y13240D01*
X11594Y13241D01*
X11592Y13242D01*
X11588Y13247D01*
X11574Y13262D01*
X11570Y13267D01*
X11625Y13322D01*
X11653Y13297D01*
D02*
G37*
G36*
X10579Y12390D02*
X10579Y12389D01*
X10581Y12387D01*
X10585Y12383D01*
X10599Y12368D01*
X10603Y12363D01*
X10548Y12308D01*
X10520Y12333D01*
X10578Y12391D01*
X10579Y12390D01*
D02*
G37*
G36*
X11155Y12285D02*
X11156Y12285D01*
X11159Y12284D01*
X11165Y12284D01*
X11185Y12283D01*
X11192Y12283D01*
Y12205D01*
X11154Y12203D01*
Y12285D01*
X11155Y12285D01*
D02*
G37*
G36*
X11348Y11990D02*
X11349Y11988D01*
X11350Y11987D01*
X11354Y11982D01*
X11368Y11967D01*
X11373Y11963D01*
X11317Y11907D01*
X11289Y11932D01*
X11348Y11990D01*
X11348Y11990D01*
D02*
G37*
G36*
X10748Y11968D02*
X10749Y11968D01*
X10751Y11968D01*
X10757Y11967D01*
X10778Y11967D01*
X10784Y11967D01*
Y11888D01*
X10747Y11886D01*
Y11969D01*
X10748Y11968D01*
D02*
G37*
G36*
X10906Y11770D02*
X10906Y11769D01*
X10908Y11767D01*
X10912Y11763D01*
X10926Y11748D01*
X10930Y11743D01*
X10875Y11688D01*
X10847Y11713D01*
X10906Y11771D01*
X10906Y11770D01*
D02*
G37*
G36*
X10788Y11613D02*
X10788Y11612D01*
X10790Y11610D01*
X10794Y11605D01*
X10808Y11591D01*
X10812Y11586D01*
X10757Y11530D01*
X10729Y11555D01*
X10787Y11614D01*
X10788Y11613D01*
D02*
G37*
G36*
X12047Y7785D02*
X11988Y7727D01*
X11988Y7728D01*
X11987Y7729D01*
X11986Y7731D01*
X11982Y7735D01*
X11968Y7750D01*
X11963Y7755D01*
X12019Y7810D01*
X12047Y7785D01*
D02*
G37*
G36*
X12399Y7685D02*
X12398Y7685D01*
X12397Y7686D01*
X12395Y7686D01*
X12388Y7687D01*
X12368Y7687D01*
X12361Y7687D01*
Y7766D01*
X12399Y7768D01*
Y7685D01*
D02*
G37*
G36*
X11594Y6742D02*
X11535Y6684D01*
X11535Y6684D01*
X11534Y6686D01*
X11533Y6687D01*
X11529Y6692D01*
X11515Y6707D01*
X11510Y6711D01*
X11566Y6767D01*
X11594Y6742D01*
D02*
G37*
G36*
X12599Y6715D02*
X12540Y6657D01*
X12540Y6658D01*
X12539Y6659D01*
X12538Y6660D01*
X12534Y6665D01*
X12520Y6680D01*
X12515Y6685D01*
X12571Y6740D01*
X12599Y6715D01*
D02*
G37*
G36*
X10183Y6650D02*
X10157Y6623D01*
X10101Y6683D01*
X10102Y6683D01*
X10103Y6684D01*
X10105Y6685D01*
X10107Y6687D01*
X10116Y6695D01*
X10129Y6708D01*
X10183Y6650D01*
D02*
G37*
G36*
X7830Y5265D02*
X7805Y5237D01*
X7747Y5295D01*
X7747Y5296D01*
X7749Y5296D01*
X7750Y5298D01*
X7755Y5301D01*
X7770Y5315D01*
X7774Y5320D01*
X7830Y5265D01*
D02*
G37*
G36*
X10155Y5117D02*
X10130Y5089D01*
X10072Y5148D01*
X10072Y5148D01*
X10074Y5149D01*
X10075Y5150D01*
X10080Y5154D01*
X10095Y5168D01*
X10099Y5173D01*
X10155Y5117D01*
D02*
G37*
G36*
X17113Y12849D02*
X17091Y12869D01*
X17069Y12888D01*
X17046Y12904D01*
X17023Y12918D01*
X16999Y12930D01*
X16974Y12939D01*
X16949Y12947D01*
X16923Y12952D01*
X16896Y12956D01*
X16868Y12957D01*
Y13154D01*
X16896Y13155D01*
X16923Y13158D01*
X16949Y13163D01*
X16974Y13171D01*
X16999Y13180D01*
X17023Y13192D01*
X17046Y13206D01*
X17069Y13222D01*
X17091Y13241D01*
X17113Y13261D01*
Y12849D01*
D02*
G37*
G36*
X9454Y9991D02*
Y9903D01*
X9374D01*
X9369Y9906D01*
X9363Y9906D01*
X9357Y9906D01*
X9347Y9920D01*
X9363Y9980D01*
X9379Y9986D01*
X9404Y10011D01*
X9454Y9991D01*
D02*
G37*
G36*
X9332Y9854D02*
X9333Y9854D01*
X9335Y9853D01*
X9342Y9853D01*
X9362Y9852D01*
X9369Y9852D01*
Y9774D01*
X9331Y9772D01*
Y9854D01*
X9332Y9854D01*
D02*
G37*
G36*
X10460Y8802D02*
X10401Y8744D01*
X10401Y8745D01*
X10400Y8746D01*
X10399Y8748D01*
X10395Y8752D01*
X10381Y8767D01*
X10376Y8772D01*
X10432Y8827D01*
X10460Y8802D01*
D02*
G37*
G36*
X17510Y11823D02*
X17492Y11800D01*
X17475Y11778D01*
X17461Y11754D01*
X17449Y11730D01*
X17440Y11705D01*
X17432Y11680D01*
X17427Y11654D01*
X17423Y11627D01*
X17422Y11600D01*
X17225D01*
X17224Y11627D01*
X17221Y11654D01*
X17216Y11680D01*
X17208Y11705D01*
X17198Y11730D01*
X17187Y11754D01*
X17172Y11778D01*
X17156Y11800D01*
X17138Y11823D01*
X17117Y11844D01*
X17531D01*
X17510Y11823D01*
D02*
G37*
G36*
X12794Y11325D02*
X12792Y11322D01*
X12790Y11319D01*
X12789Y11315D01*
X12787Y11311D01*
X12786Y11306D01*
X12786Y11301D01*
X12785Y11295D01*
X12784Y11283D01*
X12725D01*
X12725Y11289D01*
X12724Y11301D01*
X12723Y11306D01*
X12722Y11311D01*
X12721Y11315D01*
X12719Y11319D01*
X12717Y11322D01*
X12715Y11325D01*
X12713Y11327D01*
X12796D01*
X12794Y11325D01*
D02*
G37*
G36*
X12982Y10821D02*
X12980Y10819D01*
X12978Y10815D01*
X12977Y10812D01*
X12976Y10807D01*
X12975Y10803D01*
X12974Y10798D01*
X12973Y10792D01*
X12973Y10780D01*
X12913D01*
X12913Y10786D01*
X12912Y10798D01*
X12911Y10803D01*
X12910Y10807D01*
X12909Y10812D01*
X12907Y10815D01*
X12906Y10819D01*
X12904Y10821D01*
X12902Y10824D01*
X12984D01*
X12982Y10821D01*
D02*
G37*
G36*
X13159Y10672D02*
X13160Y10668D01*
X13161Y10665D01*
X13162Y10661D01*
X13164Y10657D01*
X13167Y10653D01*
X13170Y10649D01*
X13173Y10645D01*
X13182Y10636D01*
X13136Y10596D01*
X13132Y10600D01*
X13123Y10608D01*
X13119Y10611D01*
X13115Y10614D01*
X13111Y10616D01*
X13108Y10618D01*
X13104Y10619D01*
X13101Y10620D01*
X13098Y10620D01*
X13159Y10675D01*
X13159Y10672D01*
D02*
G37*
G36*
X13160Y10475D02*
X13160Y10472D01*
X13161Y10468D01*
X13163Y10464D01*
X13165Y10461D01*
X13168Y10457D01*
X13171Y10452D01*
X13174Y10448D01*
X13183Y10439D01*
X13140Y10397D01*
X13136Y10401D01*
X13127Y10409D01*
X13123Y10412D01*
X13119Y10414D01*
X13115Y10416D01*
X13111Y10418D01*
X13108Y10419D01*
X13104Y10420D01*
X13101Y10420D01*
X13159Y10478D01*
X13160Y10475D01*
D02*
G37*
G36*
Y10275D02*
X13160Y10272D01*
X13161Y10268D01*
X13163Y10264D01*
X13165Y10260D01*
X13168Y10256D01*
X13171Y10252D01*
X13174Y10248D01*
X13183Y10239D01*
X13140Y10197D01*
X13136Y10201D01*
X13127Y10209D01*
X13123Y10212D01*
X13119Y10214D01*
X13115Y10216D01*
X13111Y10218D01*
X13108Y10219D01*
X13104Y10220D01*
X13101Y10220D01*
X13159Y10278D01*
X13160Y10275D01*
D02*
G37*
G36*
Y10075D02*
X13160Y10071D01*
X13161Y10068D01*
X13163Y10064D01*
X13165Y10060D01*
X13168Y10056D01*
X13171Y10052D01*
X13174Y10048D01*
X13183Y10039D01*
X13140Y9997D01*
X13136Y10001D01*
X13127Y10008D01*
X13123Y10011D01*
X13119Y10014D01*
X13115Y10016D01*
X13111Y10018D01*
X13108Y10019D01*
X13104Y10019D01*
X13101Y10020D01*
X13159Y10078D01*
X13160Y10075D01*
D02*
G37*
G36*
X16708Y7520D02*
X16705Y7522D01*
X16702Y7524D01*
X16699Y7526D01*
X16695Y7527D01*
X16691Y7529D01*
X16687Y7530D01*
X16681Y7531D01*
X16676Y7531D01*
X16664Y7532D01*
Y7591D01*
X16670Y7592D01*
X16681Y7592D01*
X16687Y7593D01*
X16691Y7594D01*
X16695Y7596D01*
X16699Y7597D01*
X16702Y7599D01*
X16705Y7601D01*
X16708Y7603D01*
Y7520D01*
D02*
G37*
G36*
X15958D02*
X15955Y7522D01*
X15952Y7524D01*
X15949Y7526D01*
X15945Y7527D01*
X15941Y7529D01*
X15937Y7530D01*
X15931Y7531D01*
X15926Y7531D01*
X15914Y7532D01*
Y7591D01*
X15920Y7592D01*
X15931Y7592D01*
X15937Y7593D01*
X15941Y7594D01*
X15945Y7596D01*
X15949Y7597D01*
X15952Y7599D01*
X15955Y7601D01*
X15958Y7603D01*
Y7520D01*
D02*
G37*
G36*
X15208D02*
X15205Y7522D01*
X15202Y7524D01*
X15199Y7526D01*
X15195Y7527D01*
X15191Y7529D01*
X15187Y7530D01*
X15181Y7531D01*
X15176Y7531D01*
X15164Y7532D01*
Y7591D01*
X15170Y7592D01*
X15181Y7592D01*
X15187Y7593D01*
X15191Y7594D01*
X15195Y7596D01*
X15199Y7597D01*
X15202Y7599D01*
X15205Y7601D01*
X15208Y7603D01*
Y7520D01*
D02*
G37*
G36*
X14458D02*
X14455Y7522D01*
X14452Y7524D01*
X14449Y7526D01*
X14445Y7527D01*
X14441Y7529D01*
X14437Y7530D01*
X14431Y7531D01*
X14426Y7531D01*
X14414Y7532D01*
Y7591D01*
X14420Y7592D01*
X14431Y7592D01*
X14437Y7593D01*
X14441Y7594D01*
X14445Y7596D01*
X14449Y7597D01*
X14452Y7599D01*
X14455Y7601D01*
X14458Y7603D01*
Y7520D01*
D02*
G37*
G36*
X14925Y6908D02*
X14934Y6901D01*
X14938Y6898D01*
X14942Y6895D01*
X14946Y6893D01*
X14950Y6892D01*
X14953Y6891D01*
X14957Y6890D01*
X14960Y6890D01*
X14902Y6831D01*
X14901Y6835D01*
X14901Y6838D01*
X14900Y6842D01*
X14898Y6845D01*
X14896Y6849D01*
X14893Y6853D01*
X14890Y6857D01*
X14887Y6862D01*
X14878Y6871D01*
X14921Y6913D01*
X14925Y6908D01*
D02*
G37*
G36*
X14778Y6736D02*
X14779Y6725D01*
X14780Y6720D01*
X14781Y6715D01*
X14782Y6711D01*
X14784Y6707D01*
X14785Y6704D01*
X14787Y6701D01*
X14789Y6698D01*
X14707D01*
X14709Y6701D01*
X14711Y6704D01*
X14712Y6707D01*
X14714Y6711D01*
X14715Y6715D01*
X14716Y6720D01*
X14717Y6725D01*
X14718Y6730D01*
X14718Y6743D01*
X14778D01*
X14778Y6736D01*
D02*
G37*
D18*
X11565Y7691D02*
X12599Y6656D01*
X11565Y7691D02*
Y11476D01*
X11428Y9882D02*
Y11407D01*
Y6850D02*
X11594Y6683D01*
X11428Y6850D02*
Y9882D01*
X10908Y11927D02*
X11428Y11407D01*
X11290Y6308D02*
Y9882D01*
Y11328D01*
X10846Y11772D02*
X11290Y11328D01*
X10071Y5089D02*
X11290Y6308D01*
X11142Y7665D02*
Y9882D01*
Y11201D01*
X10728Y11614D02*
X11142Y11201D01*
X10101Y6624D02*
X11142Y7665D01*
X11004Y7982D02*
Y9882D01*
Y11130D01*
X10363Y11770D02*
X11004Y11130D01*
X9587Y6565D02*
X11004Y7982D01*
X11289Y11991D02*
X11729Y11551D01*
Y8045D02*
X12047Y7726D01*
X11729Y8045D02*
Y11551D01*
X11881Y8158D02*
X12313Y7726D01*
X11881Y8158D02*
Y11655D01*
X11293Y12244D02*
X11881Y11655D01*
X10868Y12172D02*
X11513Y11528D01*
X11565Y11476D01*
X12313Y7726D02*
X12441D01*
X11513Y13316D02*
X11575D01*
X10904D02*
X11513D01*
X11575D02*
X11654Y13238D01*
X10363Y12776D02*
X10904Y13316D01*
X10363Y11770D02*
Y12776D01*
X11112Y12244D02*
X11293D01*
X10739Y12172D02*
X10868D01*
X10519Y12392D02*
X10739Y12172D01*
X10705Y11927D02*
X10908D01*
X9075Y6565D02*
X9587D01*
X7746Y5236D02*
X9075Y6565D01*
X9998Y9206D02*
Y9409D01*
Y9206D02*
X10460Y8743D01*
X9594Y9813D02*
X9998Y9409D01*
X9289Y9813D02*
X9594D01*
D71*
X14043Y7748D02*
X14961Y6831D01*
X12943Y9961D02*
X14043Y8861D01*
Y7748D02*
Y8861D01*
X13907Y7666D02*
Y8780D01*
X12755Y9932D02*
X13907Y8780D01*
X14946Y7654D02*
Y8433D01*
X15039Y7562D02*
X15250D01*
X14946Y7654D02*
X15039Y7562D01*
X16325Y7723D02*
X16487Y7562D01*
X15516Y8259D02*
X16206D01*
X16325Y7723D02*
Y8139D01*
X16206Y8259D02*
X16325Y8139D01*
X16487Y7562D02*
X16750D01*
X15620Y7682D02*
Y7959D01*
X15741Y7562D02*
X16000D01*
X15620Y7682D02*
X15741Y7562D01*
X12755Y9932D02*
Y11369D01*
X14192Y7770D02*
Y8987D01*
X14400Y7562D02*
X14500D01*
X14192Y7770D02*
X14400Y7562D01*
X13100Y10079D02*
X14192Y8987D01*
X13907Y7666D02*
X14748Y6826D01*
X13100Y10279D02*
X14946Y8433D01*
X13100Y10479D02*
X15620Y7959D01*
X13100Y10674D02*
X15516Y8259D01*
X14748Y6656D02*
Y6826D01*
X13100Y10674D02*
Y10679D01*
X12943Y9961D02*
Y10866D01*
D75*
X14185Y5233D02*
X14268Y5149D01*
X15947D02*
X17324Y6527D01*
X14268Y5149D02*
X15947D01*
X14037Y5085D02*
X14185Y5233D01*
X11513Y13930D02*
X15978D01*
X11325D02*
X11513D01*
X16852Y13055D02*
X17324D01*
X15978Y13930D02*
X16852Y13055D01*
X17324Y6527D02*
Y12055D01*
X14034Y5085D02*
X14037D01*
X11184Y13788D02*
X11325Y13930D01*
D91*
X17324Y13055D02*
D03*
Y12055D02*
D03*
D92*
X676Y14055D02*
D03*
X17324Y14055D02*
D03*
D93*
X9039Y14415D02*
D03*
X8764Y13628D02*
D03*
X8488Y14415D02*
D03*
X13130Y15472D02*
D03*
X13337Y16289D02*
D03*
X16654Y8632D02*
D03*
X12224Y9026D02*
D03*
X12490Y11122D02*
D03*
X16597Y16255D02*
D03*
X17098Y15255D02*
D03*
X16597Y14255D02*
D03*
Y10255D02*
D03*
X17098Y3255D02*
D03*
X16597Y2255D02*
D03*
X17098Y1255D02*
D03*
X15597Y16255D02*
D03*
X16098Y15255D02*
D03*
X15597Y14255D02*
D03*
X16098Y13255D02*
D03*
X15597Y12255D02*
D03*
X16098Y11255D02*
D03*
X15597Y10255D02*
D03*
X16098Y9255D02*
D03*
Y3255D02*
D03*
X15597Y2255D02*
D03*
X16098Y1255D02*
D03*
X14598Y16255D02*
D03*
X15098Y15255D02*
D03*
X14598Y14255D02*
D03*
X15098Y13255D02*
D03*
X14598Y12255D02*
D03*
X15098Y11255D02*
D03*
X14598Y10255D02*
D03*
X15098Y9255D02*
D03*
Y3255D02*
D03*
X14598Y2255D02*
D03*
X15098Y1255D02*
D03*
X13598Y16255D02*
D03*
X14097Y15255D02*
D03*
X13598Y14255D02*
D03*
X14097Y13255D02*
D03*
X13598Y12255D02*
D03*
X14097Y11255D02*
D03*
Y3255D02*
D03*
X13598Y2255D02*
D03*
X14097Y1255D02*
D03*
X12598Y14255D02*
D03*
X13097Y13255D02*
D03*
Y11255D02*
D03*
Y9255D02*
D03*
Y7255D02*
D03*
Y3255D02*
D03*
X12598Y2255D02*
D03*
X13097Y1255D02*
D03*
X11597Y14255D02*
D03*
X12098Y3255D02*
D03*
X11597Y2255D02*
D03*
X12098Y1255D02*
D03*
X10597Y14255D02*
D03*
X11098Y3255D02*
D03*
X10597Y2255D02*
D03*
X11098Y1255D02*
D03*
X9597Y14255D02*
D03*
X10098Y3255D02*
D03*
X9597Y2255D02*
D03*
X10098Y1255D02*
D03*
X8597Y16255D02*
D03*
X9097Y3255D02*
D03*
X8597Y2255D02*
D03*
X9097Y1255D02*
D03*
X7598Y16255D02*
D03*
X8098Y15255D02*
D03*
Y7255D02*
D03*
Y3255D02*
D03*
X7598Y2255D02*
D03*
X8098Y1255D02*
D03*
X6597Y16255D02*
D03*
X7097Y15255D02*
D03*
X6597Y14255D02*
D03*
X7097Y7255D02*
D03*
Y3255D02*
D03*
X6597Y2255D02*
D03*
X7097Y1255D02*
D03*
X5598Y16255D02*
D03*
X6097Y15255D02*
D03*
X5598Y14255D02*
D03*
X6097Y13255D02*
D03*
X5598Y12255D02*
D03*
Y10255D02*
D03*
Y8255D02*
D03*
X6097Y7255D02*
D03*
Y3255D02*
D03*
X5598Y2255D02*
D03*
X6097Y1255D02*
D03*
X4597Y16255D02*
D03*
X5098Y15255D02*
D03*
X4597Y14255D02*
D03*
X5098Y13255D02*
D03*
X4597Y12255D02*
D03*
X5098Y11255D02*
D03*
X4597Y10255D02*
D03*
X5098Y9255D02*
D03*
X4597Y8255D02*
D03*
X5098Y7255D02*
D03*
Y5255D02*
D03*
Y3255D02*
D03*
X4597Y2255D02*
D03*
X5098Y1255D02*
D03*
X3598Y16255D02*
D03*
X4098Y15255D02*
D03*
X3598Y14255D02*
D03*
X4098Y13255D02*
D03*
X3598Y12255D02*
D03*
X4098Y11255D02*
D03*
X3598Y10255D02*
D03*
X4098Y9255D02*
D03*
X3598Y8255D02*
D03*
X4098Y7255D02*
D03*
X3598Y6255D02*
D03*
X4098Y5255D02*
D03*
Y3255D02*
D03*
X3598Y2255D02*
D03*
X4098Y1255D02*
D03*
X2598Y16255D02*
D03*
X3097Y15255D02*
D03*
X2598Y14255D02*
D03*
X3097Y13255D02*
D03*
X2598Y12255D02*
D03*
X3097Y11255D02*
D03*
X2598Y10255D02*
D03*
X3097Y9255D02*
D03*
X2598Y8255D02*
D03*
X3097Y7255D02*
D03*
Y5255D02*
D03*
Y3255D02*
D03*
X2598Y2255D02*
D03*
X3097Y1255D02*
D03*
X1597Y16255D02*
D03*
X2097Y15255D02*
D03*
X1597Y14255D02*
D03*
X2097Y13255D02*
D03*
Y11255D02*
D03*
X1597Y10255D02*
D03*
X2097Y3255D02*
D03*
X1597Y2255D02*
D03*
X2097Y1255D02*
D03*
X597Y16255D02*
D03*
X1098Y15255D02*
D03*
Y11255D02*
D03*
X597Y6255D02*
D03*
Y4255D02*
D03*
X1098Y3255D02*
D03*
X597Y2255D02*
D03*
X1098Y1255D02*
D03*
X11821Y6801D02*
D03*
X10780Y9970D02*
D03*
X11747Y12262D02*
D03*
X10915Y12470D02*
D03*
X12120Y11122D02*
D03*
Y11740D02*
D03*
X12815Y6959D02*
D03*
X12854Y7982D02*
D03*
X14163Y6841D02*
D03*
X13976Y5482D02*
D03*
X11683Y7185D02*
D03*
X11949Y5472D02*
D03*
X12628Y11742D02*
D03*
X10633Y12609D02*
D03*
X9709Y12557D02*
D03*
Y12084D02*
D03*
Y11612D02*
D03*
Y11140D02*
D03*
X9236Y12557D02*
D03*
Y12084D02*
D03*
Y11612D02*
D03*
Y11140D02*
D03*
X8764Y12557D02*
D03*
Y12084D02*
D03*
Y11612D02*
D03*
Y11140D02*
D03*
X8291Y12557D02*
D03*
Y12084D02*
D03*
Y11140D02*
D03*
Y11612D02*
D03*
X13291Y6120D02*
D03*
X16252Y6120D02*
D03*
X10252Y6120D02*
D03*
X9252D02*
D03*
X6252D02*
D03*
X7252D02*
D03*
X5252D02*
D03*
X5252Y4600D02*
D03*
X7252Y4600D02*
D03*
X15252Y4600D02*
D03*
X12242Y4974D02*
D03*
X9911Y7441D02*
D03*
X10925Y5472D02*
D03*
X8524Y5482D02*
D03*
X16260Y4902D02*
D03*
X15768Y5502D02*
D03*
X16506Y6772D02*
D03*
X14823Y5502D02*
D03*
X236Y12466D02*
D03*
Y13465D02*
D03*
Y14961D02*
D03*
Y14463D02*
D03*
Y15959D02*
D03*
Y15461D02*
D03*
X12283Y16782D02*
D03*
X12236Y17457D02*
D03*
X13764Y17457D02*
D03*
X13264D02*
D03*
X13117Y16884D02*
D03*
Y17198D02*
D03*
X17764Y12457D02*
D03*
Y13457D02*
D03*
Y14455D02*
D03*
Y15957D02*
D03*
Y15457D02*
D03*
Y16455D02*
D03*
Y14957D02*
D03*
X12283Y16468D02*
D03*
X12678Y15257D02*
D03*
X12974Y15273D02*
D03*
X13118Y16423D02*
D03*
X11922Y16066D02*
D03*
X11607D02*
D03*
X11292D02*
D03*
X10977D02*
D03*
X10662D02*
D03*
X10347D02*
D03*
X10032D02*
D03*
X9717D02*
D03*
X9404Y16030D02*
D03*
X9106Y15929D02*
D03*
X8842Y15757D02*
D03*
X8622Y15532D02*
D03*
X8463Y15260D02*
D03*
X8368Y14960D02*
D03*
X8351Y14646D02*
D03*
X9181Y14677D02*
D03*
X9263Y14981D02*
D03*
X9502Y15186D02*
D03*
X9815Y15223D02*
D03*
X10130D02*
D03*
X10445D02*
D03*
X10760D02*
D03*
X11075D02*
D03*
X11390D02*
D03*
X11705D02*
D03*
X12019D02*
D03*
X12334Y15227D02*
D03*
X12202Y16062D02*
D03*
X15896Y8455D02*
D03*
X15640Y8967D02*
D03*
X13671Y7982D02*
D03*
X10665Y6779D02*
D03*
X11236Y17457D02*
D03*
X11736D02*
D03*
X10236D02*
D03*
X10736D02*
D03*
X17764Y7579D02*
D03*
Y8079D02*
D03*
Y8579D02*
D03*
Y7079D02*
D03*
X16764Y236D02*
D03*
X15764D02*
D03*
X15264D02*
D03*
X14764D02*
D03*
X14264D02*
D03*
X16264D02*
D03*
X14264Y17457D02*
D03*
X13128Y15709D02*
D03*
X14764Y17457D02*
D03*
X15264D02*
D03*
X15764D02*
D03*
X8736Y17457D02*
D03*
X8236D02*
D03*
X9736D02*
D03*
X9236D02*
D03*
X5736D02*
D03*
X5236D02*
D03*
X7236D02*
D03*
X7736D02*
D03*
X6736D02*
D03*
X6236D02*
D03*
X3236D02*
D03*
X3736D02*
D03*
X4736D02*
D03*
X4236D02*
D03*
X2236D02*
D03*
X2736D02*
D03*
X11996Y17096D02*
D03*
X10224Y9262D02*
D03*
X2250Y5348D02*
D03*
X1250Y5348D02*
D03*
X10252Y4600D02*
D03*
X8252D02*
D03*
X9252D02*
D03*
X11252D02*
D03*
X13252D02*
D03*
X14252Y4797D02*
D03*
X9319Y14360D02*
D03*
Y14055D02*
D03*
Y13711D02*
D03*
X6250Y4596D02*
D03*
X9319Y13445D02*
D03*
X13435Y16024D02*
D03*
X7764Y236D02*
D03*
X8264D02*
D03*
X8764D02*
D03*
X9264D02*
D03*
X7236Y236D02*
D03*
X6736D02*
D03*
X6236D02*
D03*
X5736D02*
D03*
X3736D02*
D03*
X4236D02*
D03*
X4736D02*
D03*
X5236D02*
D03*
X1736D02*
D03*
X2236D02*
D03*
X2736D02*
D03*
X3236D02*
D03*
X736D02*
D03*
X1236D02*
D03*
X236Y1579D02*
D03*
Y1079D02*
D03*
Y657D02*
D03*
Y236D02*
D03*
Y3579D02*
D03*
Y3079D02*
D03*
Y2579D02*
D03*
Y2079D02*
D03*
Y4579D02*
D03*
Y4079D02*
D03*
Y6579D02*
D03*
Y6079D02*
D03*
Y5579D02*
D03*
Y5079D02*
D03*
Y8579D02*
D03*
Y8079D02*
D03*
Y7579D02*
D03*
Y7079D02*
D03*
Y9579D02*
D03*
Y9079D02*
D03*
Y11579D02*
D03*
Y11079D02*
D03*
Y10579D02*
D03*
Y10079D02*
D03*
X11264Y236D02*
D03*
X10764D02*
D03*
X10264D02*
D03*
X9764D02*
D03*
X13264D02*
D03*
X12764D02*
D03*
X12264D02*
D03*
X11764D02*
D03*
X17264D02*
D03*
X13764D02*
D03*
X17764Y1579D02*
D03*
Y1079D02*
D03*
Y677D02*
D03*
Y236D02*
D03*
Y3579D02*
D03*
Y3079D02*
D03*
Y2579D02*
D03*
Y2079D02*
D03*
Y5579D02*
D03*
Y9579D02*
D03*
Y9079D02*
D03*
Y11579D02*
D03*
Y11079D02*
D03*
Y10079D02*
D03*
X17264Y17457D02*
D03*
X16764D02*
D03*
X16264D02*
D03*
X17764Y16957D02*
D03*
Y17459D02*
D03*
X236Y16459D02*
D03*
Y16957D02*
D03*
X1736Y17457D02*
D03*
X1236D02*
D03*
X736D02*
D03*
X236D02*
D03*
X2719Y4600D02*
D03*
X10489Y9358D02*
D03*
X9836Y8931D02*
D03*
X10001Y8551D02*
D03*
X8216Y14068D02*
D03*
X6484Y10793D02*
D03*
X6815Y10505D02*
D03*
X6501Y9851D02*
D03*
X6481Y9121D02*
D03*
X6754Y8471D02*
D03*
X7222Y14062D02*
D03*
X7945Y13941D02*
D03*
X7587Y14563D02*
D03*
X6788Y12596D02*
D03*
X6780Y12320D02*
D03*
X6946Y12825D02*
D03*
X6335Y13181D02*
D03*
X6401Y13731D02*
D03*
X9624Y13461D02*
D03*
X10355Y13731D02*
D03*
X10533Y13471D02*
D03*
X11261Y12641D02*
D03*
X11510Y12960D02*
D03*
X11917Y13150D02*
D03*
X8034Y14394D02*
D03*
X2336Y9192D02*
D03*
X2108Y9322D02*
D03*
X707Y8025D02*
D03*
X1769Y6856D02*
D03*
X391Y8342D02*
D03*
X1592Y8667D02*
D03*
X1001Y9287D02*
D03*
X1090Y8392D02*
D03*
X2123Y7255D02*
D03*
X4754Y5256D02*
D03*
X17764Y10579D02*
D03*
Y5079D02*
D03*
Y6079D02*
D03*
Y6579D02*
D03*
Y4079D02*
D03*
Y4579D02*
D03*
D94*
X11654Y13238D02*
D03*
X11112Y12244D02*
D03*
X11289Y11991D02*
D03*
X7746Y5236D02*
D03*
X12599Y6656D02*
D03*
X12441Y7726D02*
D03*
X12047D02*
D03*
X12755Y11369D02*
D03*
X10705Y11927D02*
D03*
X10728Y11614D02*
D03*
X10846Y11772D02*
D03*
X14185Y5233D02*
D03*
X14034Y5085D02*
D03*
X11325Y13930D02*
D03*
X11184Y13788D02*
D03*
X14961Y6831D02*
D03*
X14748Y6656D02*
D03*
X14500Y7562D02*
D03*
X16000D02*
D03*
X15250Y7562D02*
D03*
X13100Y10479D02*
D03*
X11594Y6683D02*
D03*
X12943Y10866D02*
D03*
X13100Y10679D02*
D03*
Y10279D02*
D03*
Y10079D02*
D03*
X16750Y7562D02*
D03*
X10098Y6624D02*
D03*
X6582Y11673D02*
D03*
X7268Y11967D02*
D03*
X7135Y9330D02*
D03*
Y9168D02*
D03*
X7148Y9007D02*
D03*
X7720Y9020D02*
D03*
X7353Y9721D02*
D03*
X7238Y9611D02*
D03*
X7417Y9461D02*
D03*
X7585D02*
D03*
X7278Y9421D02*
D03*
X7723Y9162D02*
D03*
X8958Y9944D02*
D03*
X8958Y9735D02*
D03*
X8958Y9505D02*
D03*
X8958Y9244D02*
D03*
X9084Y9830D02*
D03*
X9094Y9595D02*
D03*
X9264Y9517D02*
D03*
X9094Y9385D02*
D03*
X9264Y9345D02*
D03*
X8584Y9225D02*
D03*
X8395Y10203D02*
D03*
Y10048D02*
D03*
X8590D02*
D03*
Y10203D02*
D03*
X8408Y10368D02*
D03*
X8590Y10376D02*
D03*
X7789Y9462D02*
D03*
X7794Y9305D02*
D03*
X8086Y9225D02*
D03*
X8250D02*
D03*
X7924Y9221D02*
D03*
X7135Y9501D02*
D03*
X8171Y7801D02*
D03*
X8408Y9221D02*
D03*
X8781D02*
D03*
X9281Y8331D02*
D03*
X10071Y5089D02*
D03*
X9289Y9813D02*
D03*
X10460Y8743D02*
D03*
X10519Y12392D02*
D03*
M02*
