G04*
G04 #@! TF.GenerationSoftware,Altium Limited,Altium Designer,25.8.1 (18)*
G04*
G04 Layer_Color=8421504*
%FSLAX24Y24*%
%MOIN*%
G70*
G04*
G04 #@! TF.SameCoordinates,BD92749D-DAB3-424A-A086-50895A4BE64C*
G04*
G04*
G04 #@! TF.FilePolarity,Positive*
G04*
G01*
G75*
%ADD20R,0.0098X0.0197*%
%ADD21R,0.0559X0.0921*%
%ADD22R,0.0559X0.0882*%
%ADD23R,0.0236X0.0197*%
%ADD24R,0.0217X0.0236*%
%ADD25R,0.0256X0.0197*%
%ADD26R,0.0106X0.0118*%
%ADD27R,0.0236X0.0413*%
%ADD28R,0.0295X0.0315*%
%ADD29R,0.0315X0.0295*%
%ADD30R,0.0197X0.0492*%
%ADD31R,0.0394X0.0394*%
%ADD32R,0.0118X0.0106*%
%ADD33R,0.0197X0.0236*%
%ADD34R,0.0874X0.0484*%
%ADD35C,0.0093*%
%ADD36O,0.0276X0.0079*%
%ADD37O,0.0079X0.0276*%
%ADD38R,0.1811X0.1811*%
%ADD39R,0.0217X0.0256*%
G36*
X970Y5061D02*
X1530D01*
Y4139D01*
X970D01*
X970Y5061D01*
D02*
G37*
G36*
X1970D02*
X2530D01*
Y4139D01*
X1970D01*
Y5061D01*
D02*
G37*
G36*
X970Y6561D02*
X1530D01*
Y5679D01*
X970Y5679D01*
Y6561D01*
D02*
G37*
G36*
X1970D02*
X2530D01*
Y5679D01*
X1970D01*
Y6561D01*
D02*
G37*
D20*
X8961Y14199D02*
D03*
X8764D02*
D03*
X8961Y13844D02*
D03*
X8764Y13844D02*
D03*
X8567Y14199D02*
D03*
Y13844D02*
D03*
D21*
X16750Y4600D02*
D03*
X10750Y4600D02*
D03*
X8750D02*
D03*
X14750Y4600D02*
D03*
X4750D02*
D03*
X12750Y4600D02*
D03*
X11750D02*
D03*
X9750D02*
D03*
X7750D02*
D03*
X6750D02*
D03*
X5750D02*
D03*
X13750Y4600D02*
D03*
X15750D02*
D03*
X1250Y6120D02*
D03*
X2250D02*
D03*
D22*
X15750Y6120D02*
D03*
X16750Y6120D02*
D03*
X8750D02*
D03*
X10750D02*
D03*
X13750D02*
D03*
X12750D02*
D03*
X9750D02*
D03*
X7750D02*
D03*
X6750D02*
D03*
X5750D02*
D03*
X4750D02*
D03*
X11750D02*
D03*
X14750Y6120D02*
D03*
X2250Y4600D02*
D03*
X1250Y4600D02*
D03*
D23*
X12248Y15645D02*
D03*
X12642D02*
D03*
X6996Y11071D02*
D03*
X6603D02*
D03*
X7269Y10705D02*
D03*
X6875D02*
D03*
D24*
X12701Y16344D02*
D03*
Y16738D02*
D03*
X12441Y7510D02*
D03*
Y7116D02*
D03*
X12047Y7510D02*
D03*
Y7116D02*
D03*
X12701Y17850D02*
D03*
Y17457D02*
D03*
D25*
X12258Y17103D02*
D03*
X12632D02*
D03*
X13144Y15989D02*
D03*
X12770D02*
D03*
D26*
X1667Y9317D02*
D03*
X1891D02*
D03*
X1468D02*
D03*
X1243D02*
D03*
X1468Y9543D02*
D03*
X1243D02*
D03*
X10461Y8541D02*
D03*
X10237D02*
D03*
X10113Y13471D02*
D03*
X10337D02*
D03*
X7206Y12582D02*
D03*
X6981D02*
D03*
X7263Y12301D02*
D03*
X7038D02*
D03*
X11263Y11548D02*
D03*
X11488D02*
D03*
X11263Y12249D02*
D03*
X11488D02*
D03*
X11263Y11776D02*
D03*
X11488D02*
D03*
X7329Y12845D02*
D03*
X7105D02*
D03*
X11263Y11222D02*
D03*
X11488D02*
D03*
X11263Y10994D02*
D03*
X11488D02*
D03*
D27*
X1978Y8878D02*
D03*
Y7795D02*
D03*
X1230D02*
D03*
Y8878D02*
D03*
X1604Y7795D02*
D03*
D28*
X1240Y7254D02*
D03*
X1772D02*
D03*
X10718Y12960D02*
D03*
X11249D02*
D03*
X7140Y13181D02*
D03*
X6609D02*
D03*
D29*
X716Y8884D02*
D03*
Y8352D02*
D03*
X7593Y13736D02*
D03*
Y14267D02*
D03*
X7611Y10276D02*
D03*
Y9744D02*
D03*
X7436Y8644D02*
D03*
Y9176D02*
D03*
X9762Y9747D02*
D03*
Y9216D02*
D03*
D30*
X12208Y19022D02*
D03*
Y19711D02*
D03*
D31*
X10338Y19366D02*
D03*
X12700Y19051D02*
D03*
D32*
X9252Y8963D02*
D03*
Y9188D02*
D03*
X7965Y13444D02*
D03*
Y13668D02*
D03*
X8208Y13646D02*
D03*
Y13871D02*
D03*
X8763Y10315D02*
D03*
Y10091D02*
D03*
D33*
X10155Y9908D02*
D03*
Y9514D02*
D03*
X10484Y10054D02*
D03*
Y9660D02*
D03*
D34*
X8382Y8794D02*
D03*
Y9648D02*
D03*
D35*
X11184Y13679D02*
D03*
X11184Y13521D02*
D03*
X11342Y13679D02*
D03*
Y13521D02*
D03*
D36*
X7819Y10982D02*
D03*
Y11140D02*
D03*
Y11297D02*
D03*
Y11455D02*
D03*
X10181Y12714D02*
D03*
Y12399D02*
D03*
Y12242D02*
D03*
Y12084D02*
D03*
Y11927D02*
D03*
Y11770D02*
D03*
Y11612D02*
D03*
Y11455D02*
D03*
X7819Y11612D02*
D03*
Y11770D02*
D03*
Y11927D02*
D03*
Y12084D02*
D03*
Y12242D02*
D03*
Y12399D02*
D03*
Y12557D02*
D03*
Y12714D02*
D03*
X10181Y11297D02*
D03*
Y12557D02*
D03*
Y11140D02*
D03*
Y10982D02*
D03*
D37*
X8921Y13029D02*
D03*
X9079D02*
D03*
X8921Y10667D02*
D03*
X9236D02*
D03*
X9551D02*
D03*
X9394D02*
D03*
X9079D02*
D03*
X8764D02*
D03*
X8291D02*
D03*
X8134D02*
D03*
Y13029D02*
D03*
X8291D02*
D03*
X8449D02*
D03*
X8606D02*
D03*
X8764D02*
D03*
X9866D02*
D03*
X9236D02*
D03*
X9394D02*
D03*
X9551D02*
D03*
X9709D02*
D03*
X8606Y10667D02*
D03*
X8449D02*
D03*
X9709D02*
D03*
X9866D02*
D03*
D38*
X9000Y11848D02*
D03*
D39*
X6738Y11947D02*
D03*
X7073Y11495D02*
D03*
X6738Y11495D02*
D03*
X7073Y11947D02*
D03*
M02*
